#N canvas 774 200 506 375 10;
#X obj 42 45 inlet;
#X text 36 21 Trigger;
#X obj 43 69 sel 0;
#X msg 46 100 stop;
#X obj 156 29 moses;
#X obj 145 60 t b b;
#X obj 183 97 t b;
#X obj 142 168 f \$1;
#X obj 142 196 pack 0 \$2;
#X msg 95 200 0;
#X obj 233 92 inlet;
#X text 233 73 Level;
#X obj 278 92 inlet;
#X text 275 73 Attack;
#X obj 321 91 inlet;
#X obj 366 91 inlet;
#X text 321 72 Decay;
#X text 363 72 Sustain;
#X obj 417 91 inlet;
#X text 414 72 Release;
#X obj 225 195 del \$2;
#X obj 225 226 f \$4;
#X obj 225 260 * 0.01;
#X obj 289 227 * \$1;
#X obj 289 257 pack 0 \$3;
#X obj 289 295 line~;
#X obj 289 326 outlet~;
#X obj 360 255 pack 0 \$5;
#X connect 0 0 2 0;
#X connect 2 0 3 0;
#X connect 2 0 27 0;
#X connect 2 1 4 0;
#X connect 3 0 20 0;
#X connect 4 0 5 0;
#X connect 4 1 6 0;
#X connect 5 0 6 0;
#X connect 5 1 9 0;
#X connect 6 0 7 0;
#X connect 6 0 20 0;
#X connect 7 0 8 0;
#X connect 8 0 25 0;
#X connect 9 0 25 0;
#X connect 10 0 7 1;
#X connect 10 0 23 1;
#X connect 12 0 8 1;
#X connect 12 0 20 1;
#X connect 14 0 24 1;
#X connect 15 0 21 1;
#X connect 18 0 27 1;
#X connect 20 0 21 0;
#X connect 21 0 22 0;
#X connect 22 0 23 0;
#X connect 23 0 24 0;
#X connect 24 0 25 0;
#X connect 25 0 26 0;
#X connect 27 0 25 0;
