#N canvas 605 22 527 165 10;
#X obj 317 90 knob 32 32 0 127 0 0 \$0-bass_speed \$0-bass_speed_set
speed 0 -8 192 8 -262144 -1 -1 781 1;
#X obj 357 90 knob 32 32 0 127 0 0 \$0-bass_amp \$0-bass_amp_set amp
0 -8 192 8 -262144 -1 -1 3100 1;
#X obj 237 90 knob 32 32 0 127 0 0 \$0-bass_amount \$0-bass_amount_set
amount 0 -8 192 8 -262144 -1 -1 586 1;
#X obj 277 90 knob 32 32 0 127 0 0 \$0-bass_rate \$0-bass_rate_set
rate 0 -8 192 8 -262144 -1 -1 244 1;
#X obj 397 40 tgl 15 0 \$0-bass_dest \$0-bass_dest_set d 0 -8 0 8 -262144
-1 -1 0 1;
#X obj 277 40 knob 32 32 0 127 0 0 \$0-bass_decay \$0-bass_decay_set
dec 0 -8 192 8 -262144 -1 -1 781 1;
#X obj 317 40 knob 32 32 0 127 0 0 \$0-bass_sustain \$0-bass_sustain_set
sus 0 -8 192 8 -262144 -1 -1 1562 1;
#X obj 357 40 knob 32 32 0 127 0 0 \$0-bass_release \$0-bass_release_set
rel 0 -8 192 8 -262144 -1 -1 586 1;
#X obj 237 40 knob 32 32 0 127 0 0 \$0-bass_attack \$0-bass_attack_set
att 0 -8 192 8 -262144 -1 -1 24 1;
#X obj 400 57 hsl 74 15 0 127 0 0 \$0-bass_gain \$0-bass_gain_set gain
6 7 0 8 -262144 -1 -1 5748 1;
#N canvas 443 256 740 436 parameters 0;
#X obj 485 76 prepend \$0;
#X obj 485 28 loadbang;
#X msg 485 100 \; \$1-bass_attack_set \$2 \; \$1-bass_decay_set \$3
\; \$1-bass_sustain_set \$4 \; \$1-bass_release_set \$5 \; \$1-bass_amount_set
\$6 \; \$1-bass_rate_set \$7 \; \$1-bass_speed_set \$8 \; \$1-bass_amp_set
\$9 \; \$1-bass_cutoff_set \$10 \; \$1-bass_res_set \$11 \; \$1-bass_wave_set
\$12 \; \$1-bass_dest_set \$13 \; \$1-bass_gain_set \$14 \;;
#X msg 485 51 1 32 64 24 24 10 32 127 127 64 0 0 100;
#X obj 18 324 s \$0-bass_attack_set;
#X obj 43 304 s \$0-bass_decay_set;
#X obj 69 284 s \$0-bass_sustain_set;
#X obj 94 264 s \$0-bass_release_set;
#X obj 120 244 s \$0-bass_amount_set;
#X obj 146 224 s \$0-bass_rate_set;
#X obj 171 204 s \$0-bass_speed_set;
#X obj 197 184 s \$0-bass_amp_set;
#X obj 222 164 s \$0-bass_cutoff_set;
#X obj 248 143 s \$0-bass_res_set;
#X obj 274 124 s \$0-bass_wave_set;
#X obj 299 104 s \$0-bass_dest_set;
#X obj 325 84 s \$0-bass_gain_set;
#X obj 18 39 route attack decay sustain release amount rate speed amp
cutoff res wave dest gain;
#X obj 18 13 inlet;
#X text 554 74 13 parameters;
#N canvas 913 369 212 288 parameters 0;
#X obj 21 16 inlet;
#X msg 21 42 \; \$1-bass_attack_set \$2 \; \$1-bass_decay_set \$3 \;
\$1-bass_sustain_set \$4 \; \$1-bass_release_set \$5 \; \$1-bass_amount_set
\$6 \; \$1-bass_rate_set \$7 \; \$1-bass_speed_set \$8 \; \$1-bass_amp_set
\$9 \; \$1-bass_cutoff_set \$10 \; \$1-bass_res_set \$11 \; \$1-bass_wave_set
\$12 \; \$1-bass_dest_set \$13 \; \$1-bass_gain_set \$14 \;;
#X text 62 14 13 Parameters;
#X connect 0 0 1 0;
#X restore 513 403 pd parameters;
#N canvas 475 39 483 581 presets 0;
#X obj 131 103 prepend;
#X obj 170 471 prepend \$0;
#X obj 48 220 t b b b;
#X obj 42 267 1-0;
#X obj 42 293 + 1;
#X obj 125 500 + 1;
#X obj 170 183 pack;
#X obj 170 156 f 0;
#X obj 131 130 t b b l;
#X obj 125 376 gate 2 2;
#X obj 48 193 inlet;
#X obj 67 293 f 0;
#X text 219 79 add 1 to it;
#X text 221 60 get the amount of presets stored;
#X text 220 98 prepend this to new preset;
#X text 216 119 store preset;
#X text 217 139 update the amount of presets;
#X msg 265 269 0 0;
#X msg 285 291 clear;
#X obj 246 227 bng 15 250 50 0 empty empty empty 17 7 0 10 -262144
-1 -1;
#X text 264 226 master reset (DONT TOUCH);
#X text 27 170 bang to save;
#X obj 170 500 outlet;
#X obj 246 247 t b b b;
#X obj 170 399 iter;
#X obj 170 423 int;
#X obj 152 48 t b f f;
#X obj 110 198 inlet;
#X obj 152 25 r \$0-fm7_preset_count;
#X obj 125 523 s \$0-fm7_preset_count;
#X obj 110 222 int;
#N canvas 517 171 426 433 param 0;
#X obj 48 379 outlet;
#X obj 28 27 inlet;
#X obj 28 173 f;
#X obj 48 344 pack f f f f f f f f f f f f f;
#X obj 43 56 r \$0-bass_attack;
#X obj 63 76 r \$0-bass_decay;
#X obj 83 96 r \$0-bass_sustain;
#X obj 103 116 r \$0-bass_release;
#X obj 123 136 r \$0-bass_amount;
#X obj 143 156 r \$0-bass_rate;
#X obj 163 176 r \$0-bass_speed;
#X obj 183 196 r \$0-bass_amp;
#X obj 203 216 r \$0-bass_cutoff;
#X obj 223 236 r \$0-bass_res;
#X obj 243 256 r \$0-bass_wave;
#X obj 263 276 r \$0-bass_dest;
#X obj 283 296 r \$0-bass_gain;
#X connect 1 0 2 0;
#X connect 2 0 3 0;
#X connect 3 0 0 0;
#X connect 4 0 2 1;
#X connect 5 0 3 1;
#X connect 6 0 3 2;
#X connect 7 0 3 3;
#X connect 8 0 3 4;
#X connect 9 0 3 5;
#X connect 10 0 3 6;
#X connect 11 0 3 7;
#X connect 12 0 3 8;
#X connect 13 0 3 9;
#X connect 14 0 3 10;
#X connect 15 0 3 11;
#X connect 16 0 3 12;
#X restore 131 77 pd param;
#X text 108 173 recall;
#X obj 170 447 zl group 13;
#X msg 246 316 write bass~_presets.txt;
#X obj 170 353 coll bass~_presets.txt;
#C restore;
#X connect 0 0 8 0;
#X connect 1 0 22 0;
#X connect 2 0 3 0;
#X connect 2 1 11 0;
#X connect 2 2 3 1;
#X connect 3 0 4 0;
#X connect 4 0 9 0;
#X connect 5 0 29 0;
#X connect 6 0 35 0;
#X connect 7 0 6 0;
#X connect 8 0 34 0;
#X connect 8 1 7 0;
#X connect 8 2 35 0;
#X connect 9 0 5 0;
#X connect 9 1 24 0;
#X connect 10 0 2 0;
#X connect 11 0 35 0;
#X connect 17 0 35 0;
#X connect 18 0 35 0;
#X connect 19 0 23 0;
#X connect 23 0 34 0;
#X connect 23 1 17 0;
#X connect 23 2 18 0;
#X connect 24 0 25 0;
#X connect 25 0 33 0;
#X connect 26 0 31 0;
#X connect 26 1 0 1;
#X connect 26 2 6 1;
#X connect 27 0 30 0;
#X connect 28 0 26 0;
#X connect 30 0 35 0;
#X connect 31 0 0 0;
#X connect 33 0 1 0;
#X connect 34 0 35 0;
#X connect 35 0 9 1;
#X restore 513 369 pd presets;
#N canvas 470 165 450 300 random 0;
#X obj 158 167 f \$0;
#X obj 119 105 random 128;
#X obj 119 190 prepend;
#X obj 119 150 t l b;
#X obj 119 83 until;
#X obj 119 39 inlet;
#X obj 119 216 outlet;
#X text 147 61 number of parameters;
#X text 158 82 keep banging;
#X text 189 104 random;
#X text 194 127 create list;
#X text 190 167 patch ID;
#X obj 119 127 zl group 13;
#X msg 119 61 13;
#X connect 0 0 2 1;
#X connect 1 0 12 0;
#X connect 2 0 6 0;
#X connect 3 0 2 0;
#X connect 3 1 0 0;
#X connect 4 0 1 0;
#X connect 5 0 13 0;
#X connect 12 0 3 0;
#X connect 13 0 4 0;
#X restore 405 369 pd random;
#X obj 405 315 r \$0-bass_random;
#X obj 513 315 r \$0-bass_save;
#X obj 570 342 r \$0-bass_recall;
#X connect 0 0 2 0;
#X connect 1 0 3 0;
#X connect 3 0 0 0;
#X connect 17 0 4 0;
#X connect 17 1 5 0;
#X connect 17 2 6 0;
#X connect 17 3 7 0;
#X connect 17 4 8 0;
#X connect 17 5 9 0;
#X connect 17 6 10 0;
#X connect 17 7 11 0;
#X connect 17 8 12 0;
#X connect 17 9 13 0;
#X connect 17 10 14 0;
#X connect 17 11 15 0;
#X connect 17 12 16 0;
#X connect 18 0 17 0;
#X connect 21 0 20 0;
#X connect 22 0 20 0;
#X connect 23 0 22 0;
#X connect 24 0 21 0;
#X connect 25 0 21 1;
#X restore 99 60 pd parameters;
#N canvas 150 22 581 756 guts 0;
#X obj 22 158 s \$0-bass_pitch;
#X obj 22 17 inlet;
#X obj 82 110 s \$0-bass_velocity;
#X obj 439 579 osc~;
#X obj 317 268 t b f;
#X obj 291 356 sig~;
#X obj 291 336 mtof;
#X obj 344 367 sig~;
#X obj 344 347 mtof;
#X obj 323 61 mid2dec;
#X obj 323 112 * 500;
#X obj 291 285 +;
#X obj 55 135 s \$0-bass_trigger;
#X obj 55 86 t f f;
#X obj 55 110 > 0;
#X obj 272 18 r \$0-bass_trigger;
#N canvas 262 156 541 509 guts 0;
#X obj 190 124 +~;
#X obj 190 87 *~;
#X obj 190 35 inlet~;
#X obj 233 35 inlet~;
#X obj 277 35 inlet~;
#X obj 190 362 outlet~;
#X obj 218 235 *~ 2;
#X obj 218 265 -~ 1;
#X obj 238 175 phasor~;
#X obj 267 235 expr~ $v1 > 0.5;
#X obj 267 265 *~ 2;
#X obj 267 295 -~ 1;
#X text 281 218 square;
#X text 229 218 saw;
#X obj 190 195 osc~;
#X obj 190 312 mux~ 1 2 3;
#X text 194 177 sine;
#X obj 96 196 r \$0-bass_wave;
#X connect 0 0 14 0;
#X connect 0 0 8 0;
#X connect 1 0 0 0;
#X connect 2 0 1 0;
#X connect 3 0 1 1;
#X connect 4 0 0 1;
#X connect 6 0 7 0;
#X connect 7 0 15 1;
#X connect 8 0 6 0;
#X connect 8 0 9 0;
#X connect 9 0 10 0;
#X connect 10 0 11 0;
#X connect 11 0 15 2;
#X connect 14 0 15 0;
#X connect 15 0 5 0;
#X connect 17 0 15 0;
#X restore 272 384 pd guts;
#X obj 323 40 r \$0-bass_rate;
#X obj 291 160 r \$0-bass_amount;
#X obj 317 244 r \$0-bass_pitch;
#X obj 257 599 *~;
#X obj 469 395 traninfo;
#X obj 439 436 *;
#X obj 514 419 t b f;
#X obj 439 349 mid2dec;
#X obj 439 415 int;
#X obj 439 371 * 15;
#X obj 439 393 + 1;
#X obj 439 328 r \$0-bass_speed;
#X obj 439 608 *~ 1;
#X obj 460 480 mid2dec;
#X msg 460 556 0;
#X obj 460 458 r \$0-bass_amp;
#X obj 76 500 r \$0-bass_attack;
#X obj 103 520 r \$0-bass_decay;
#X obj 130 540 r \$0-bass_sustain;
#X obj 157 560 r \$0-bass_release;
#X obj 49 476 r \$0-bass_velocity;
#X obj 22 455 r \$0-bass_trigger;
#X obj 460 531 sel 1;
#X obj 424 681 *~ 1;
#X obj 424 734 outlet~;
#X obj 445 637 r \$0-bass_gain;
#X obj 445 658 mid2dec;
#X obj 272 112 sel 1;
#X obj 272 134 ead~ 2 20;
#X obj 373 61 traninfo;
#X obj 291 181 mid2dec;
#X obj 291 202 * 48;
#X obj 291 226 int;
#X obj 291 313 min 127;
#X obj 460 508 traninfo;
#X obj 257 620 spigot~;
#X obj 424 637 *~;
#X obj 296 599 r \$0-bass_dest;
#X obj 22 40 unpack;
#X obj 272 571 lores~;
#X obj 329 523 mid2dec;
#X obj 329 545 sig~;
#X obj 288 477 pack 0 50;
#X obj 288 501 line~;
#X obj 288 523 mtof~;
#X obj 288 452 r \$0-bass_cutoff;
#X obj 329 500 r \$0-bass_res;
#X obj 22 580 midienv~ 1 2 200 50 100;
#X obj 424 708 hip~ 5;
#X connect 1 0 55 0;
#X connect 3 0 29 0;
#X connect 4 0 11 0;
#X connect 4 1 8 0;
#X connect 4 1 11 1;
#X connect 5 0 16 1;
#X connect 6 0 5 0;
#X connect 7 0 16 2;
#X connect 8 0 7 0;
#X connect 9 0 10 0;
#X connect 10 0 45 2;
#X connect 11 0 50 0;
#X connect 13 0 14 0;
#X connect 13 1 2 0;
#X connect 14 0 12 0;
#X connect 15 0 44 0;
#X connect 16 0 56 0;
#X connect 17 0 9 0;
#X connect 18 0 47 0;
#X connect 19 0 4 0;
#X connect 20 0 52 0;
#X connect 21 3 23 0;
#X connect 22 0 3 0;
#X connect 23 0 22 0;
#X connect 23 1 22 1;
#X connect 24 0 26 0;
#X connect 25 0 22 0;
#X connect 26 0 27 0;
#X connect 27 0 25 0;
#X connect 28 0 24 0;
#X connect 29 0 53 1;
#X connect 30 0 29 1;
#X connect 31 0 3 1;
#X connect 32 0 30 0;
#X connect 33 0 64 2;
#X connect 34 0 64 3;
#X connect 35 0 64 4;
#X connect 36 0 64 5;
#X connect 37 0 64 1;
#X connect 38 0 64 0;
#X connect 39 0 31 0;
#X connect 40 0 65 0;
#X connect 42 0 43 0;
#X connect 43 0 40 1;
#X connect 44 0 45 0;
#X connect 45 0 16 0;
#X connect 46 2 10 1;
#X connect 47 0 48 0;
#X connect 48 0 49 0;
#X connect 49 0 11 0;
#X connect 50 0 6 0;
#X connect 51 0 39 0;
#X connect 52 0 40 0;
#X connect 52 1 53 0;
#X connect 53 0 40 0;
#X connect 54 0 52 1;
#X connect 55 0 0 0;
#X connect 55 1 13 0;
#X connect 56 0 20 1;
#X connect 57 0 58 0;
#X connect 58 0 56 2;
#X connect 59 0 60 0;
#X connect 60 0 61 0;
#X connect 61 0 56 1;
#X connect 62 0 59 0;
#X connect 63 0 57 0;
#X connect 64 0 20 0;
#X connect 65 0 41 0;
#X restore 39 60 pd guts;
#X obj 397 90 knob 32 32 0 127 0 0 \$0-bass_cutoff \$0-bass_cutoff_set
cutoff 0 -8 192 8 -262144 -1 -1 3100 1;
#X obj 437 90 knob 32 32 0 127 0 0 \$0-bass_res \$0-bass_res_set res
0 -8 192 8 -262144 -1 -1 1562 1;
#X obj 39 22 inlet;
#X obj 39 102 outlet~;
#X obj 416 40 hradio 15 1 0 3 \$0-bass_wave \$0-bass_wave_set wave
0 -8 0 7 -262144 -1 -1 0;
#X obj 99 22 inlet;
#X obj 458 15 bng 10 250 50 0 \$0-bass_random \$0-bass_random_set empty
17 7 0 10 -260097 -1 -1;
#X obj 468 15 bng 10 250 50 0 \$0-bass_save \$0-bass_save_set empty
17 7 0 10 -258113 -1 -1;
#X obj 322 15 hsl 128 10 0 127 0 0 \$0-bass_recall \$0-bass_recall_set
empty -2 -8 0 10 -262144 -1 -1 0 1;
#X connect 11 0 15 0;
#X connect 14 0 11 0;
#X connect 17 0 10 0;
#X coords 0 -1 1 1 254 120 1 230 10;
