#N canvas 0 22 1280 558 10;
#X obj 414 52 inlet;
#X obj 545 219 counter;
#X obj 414 119 t f f;
#X obj 30 52 inlet;
#X obj 30 489 outlet;
#X obj 30 303 pack f f f;
#X obj 561 251 s \$0-arp_write_in;
#X obj 621 294 r \$0-arp_write_in;
#X obj 894 189 table \$0-rec_dur_1;
#X obj 1024 189 table \$0-rec_dur_2;
#X obj 469 351 tabwrite \$0-rec_dur_1;
#X obj 87 283 tabread \$0-rec_dur_2;
#X msg 268 266 set \$1-rec_dur_\$2;
#X msg 742 334 set \$1-rec_dur_\$2;
#X obj 268 169 prepend \$0;
#X obj 742 245 prepend \$0;
#X obj 268 127 < 1;
#X obj 268 147 + 1;
#X obj 530 251 f;
#X obj 530 277 s \$0-arp_max;
#X obj 30 191 random;
#X obj 63 146 r \$0-arp_max;
#X text 744 126 get max;
#X text 744 146 restart count;
#X text 744 166 switch arrays;
#X obj 610 193 counter 1;
#X obj 610 219 s \$0-arp_switch;
#X obj 742 222 + 1;
#X obj 742 198 r \$0-arp_switch;
#X obj 268 104 r \$0-arp_switch;
#X obj 441 153 gate 0;
#X obj 564 136 sel 1 0;
#X obj 583 162 t b b;
#X obj 63 168 + 1;
#X text 1140 147 start;
#X text 1140 168 end;
#X text 1140 189 duration;
#N canvas 329 22 381 589 anatomy 0;
#X obj 58 115 change;
#X obj 36 290 timer;
#X obj 58 234 sel 1 0;
#X obj 58 211 change;
#X obj 58 163 f 1;
#X obj 58 138 t b b;
#X obj 85 186 f 0;
#X obj 194 281 f;
#X obj 36 336 max 0;
#X obj 165 281 f;
#X obj 161 98 t f f f;
#X obj 137 353 pack f f f;
#X obj 36 264 t b b;
#X obj 221 52 inlet;
#X obj 137 381 zl rev;
#X obj 47 398 unpack f f f;
#X obj 27 461 outlet;
#X obj 81 461 outlet;
#X obj 131 461 outlet;
#X obj 240 281 f;
#X obj 230 461 outlet;
#X text 27 483 start;
#X text 77 483 end;
#X text 127 483 duration;
#X text 234 483 number;
#X obj 285 461 outlet;
#X text 286 483 channel;
#X text 123 96 value;
#X obj 221 81 unpack f f f;
#X obj 77 264 t b b b b;
#X obj 275 281 f;
#X text 175 25 [value \, number \, channel];
#X text 70 533 VALUE INFO;
#X text 240 533 IDENTITY INFO;
#X obj 85 163 delay 60;
#X obj 36 313 - 60;
#X connect 0 0 5 0;
#X connect 1 0 35 0;
#X connect 2 0 12 0;
#X connect 2 1 29 0;
#X connect 3 0 2 0;
#X connect 4 0 3 0;
#X connect 5 0 4 0;
#X connect 5 1 34 0;
#X connect 6 0 3 0;
#X connect 7 0 11 2;
#X connect 8 0 11 0;
#X connect 9 0 11 1;
#X connect 10 0 0 0;
#X connect 10 1 9 1;
#X connect 10 2 7 1;
#X connect 11 0 14 0;
#X connect 12 0 1 0;
#X connect 12 1 7 0;
#X connect 13 0 28 0;
#X connect 14 0 15 0;
#X connect 15 0 16 0;
#X connect 15 1 17 0;
#X connect 15 2 18 0;
#X connect 19 0 20 0;
#X connect 28 0 10 0;
#X connect 28 1 19 1;
#X connect 28 2 30 1;
#X connect 29 0 1 1;
#X connect 29 1 9 0;
#X connect 29 2 19 0;
#X connect 29 3 30 0;
#X connect 30 0 25 0;
#X connect 34 0 6 0;
#X connect 35 0 8 0;
#X restore 441 175 pd anatomy;
#X obj 498 202 t f b;
#X obj 414 96 route record list;
#X text 1140 209 number;
#X msg 30 324 \$1 \, \$2 \$3;
#X obj 30 345 line;
#X text 32 21 Bang;
#X text 563 20 [record 0/1];
#X text 890 267 generating random continuous control data based upon
continous control data recieved in the right inlet.;
#X text 890 107 switch the arrays round between which are used to write
in and which are used to read out;
#X text 890 307 break down control data into a list made up of a start
value \, end value \, duration and number.;
#X obj 894 149 table \$0-rec_sta_1;
#X obj 1024 149 table \$0-rec_sta_2;
#X obj 894 169 table \$0-rec_end_1;
#X obj 1024 169 table \$0-rec_end_2;
#X obj 894 209 table \$0-rec_num_1;
#X obj 1024 209 table \$0-rec_num_2;
#X obj 894 229 table \$0-rec_cha_1;
#X obj 1024 229 table \$0-rec_cha_2;
#X text 1140 229 channel;
#X obj 441 311 tabwrite \$0-rec_sta_1;
#X obj 455 331 tabwrite \$0-rec_end_1;
#X obj 483 371 tabwrite \$0-rec_num_1;
#X msg 742 294 set \$1-rec_sta_\$2;
#X msg 742 314 set \$1-rec_end_\$2;
#X msg 742 354 set \$1-rec_num_\$2;
#X msg 268 226 set \$1-rec_sta_\$2;
#X msg 268 246 set \$1-rec_end_\$2;
#X msg 268 286 set \$1-rec_num_\$2;
#X obj 112 303 tabread \$0-rec_num_2;
#X obj 58 263 tabread \$0-rec_end_2;
#X obj 30 243 tabread \$0-rec_sta_2;
#X obj 498 391 tabwrite \$0-rec_cha_1;
#X obj 30 389 pack f f f;
#X obj 268 194 t a a a a a;
#X obj 30 215 t f f f f f;
#X obj 132 323 tabread \$0-rec_cha_2;
#X obj 742 270 t a a a a a;
#X msg 742 374 set \$1-rec_cha_\$2;
#X msg 268 306 set \$1-rec_cha_\$2;
#X text 28 519 [value \, number \, channel];
#X obj 30 367 int;
#X text 413 20 [value \, number channel];
#X text 890 347 randomly output control change data [value \, number
channel] using line to ramp between start and end point.;
#X text 890 387 CHANGES need to resize tables \, at the moment they
have a permanent size of 100;
#X connect 0 0 39 0;
#X connect 1 0 6 0;
#X connect 1 0 18 1;
#X connect 2 0 31 0;
#X connect 2 1 30 0;
#X connect 3 0 20 0;
#X connect 5 0 41 0;
#X connect 7 0 10 1;
#X connect 7 0 57 1;
#X connect 7 0 58 1;
#X connect 7 0 59 1;
#X connect 7 0 69 1;
#X connect 11 0 5 2;
#X connect 12 0 11 0;
#X connect 13 0 10 0;
#X connect 14 0 71 0;
#X connect 15 0 74 0;
#X connect 16 0 17 0;
#X connect 17 0 14 0;
#X connect 18 0 19 0;
#X connect 20 0 72 0;
#X connect 21 0 33 0;
#X connect 25 0 26 0;
#X connect 27 0 15 0;
#X connect 28 0 27 0;
#X connect 29 0 16 0;
#X connect 30 0 37 0;
#X connect 31 0 1 2;
#X connect 31 1 32 0;
#X connect 32 0 18 0;
#X connect 32 1 25 0;
#X connect 33 0 20 1;
#X connect 37 0 57 0;
#X connect 37 1 58 0;
#X connect 37 2 10 0;
#X connect 37 3 59 0;
#X connect 37 4 38 0;
#X connect 38 0 69 0;
#X connect 38 1 1 0;
#X connect 39 0 2 0;
#X connect 39 1 30 1;
#X connect 41 0 42 0;
#X connect 42 0 78 0;
#X connect 60 0 57 0;
#X connect 61 0 58 0;
#X connect 62 0 59 0;
#X connect 63 0 68 0;
#X connect 64 0 67 0;
#X connect 65 0 66 0;
#X connect 66 0 70 1;
#X connect 67 0 5 1;
#X connect 68 0 5 0;
#X connect 70 0 4 0;
#X connect 71 0 63 0;
#X connect 71 1 64 0;
#X connect 71 2 12 0;
#X connect 71 3 65 0;
#X connect 71 4 76 0;
#X connect 72 0 68 0;
#X connect 72 1 67 0;
#X connect 72 2 11 0;
#X connect 72 3 66 0;
#X connect 72 4 73 0;
#X connect 73 0 70 2;
#X connect 74 0 60 0;
#X connect 74 1 61 0;
#X connect 74 2 13 0;
#X connect 74 3 62 0;
#X connect 74 4 75 0;
#X connect 75 0 69 0;
#X connect 76 0 73 0;
#X connect 78 0 70 0;
