#N canvas 698 51 515 652 10;
#X obj 24 26 inlet~;
#X obj 94 26 inlet~;
#X obj 24 113 *~ 0.6;
#X obj 94 113 *~ 0.6;
#X text 73 350 Gain Stage;
#X text 75 365 Filter;
#X text 75 379 Pan;
#X obj 127 78 * 0.01;
#X obj 68 329 outlet~;
#X obj 119 329 outlet~;
#X obj 205 33 r \$1-mixer_\$2_gain;
#X obj 119 233 r \$1-mixer_\$2_pan;
#N canvas 787 231 297 415 panner 0;
#X obj 168 198 /;
#X obj 168 173 f 1;
#X obj 195 173 f 64;
#X obj 168 126 loadbang;
#X obj 168 147 t b b;
#X obj 153 222 *;
#X obj 192 266 - 1;
#X obj 153 101 int;
#X obj 153 243 moses 1;
#X obj 192 289 expr 1-$f1;
#X obj 43 337 *~ 1;
#X obj 98 337 *~ 1;
#X obj 43 76 inlet~;
#X obj 98 76 inlet~;
#X obj 153 76 inlet;
#X obj 43 363 outlet~;
#X obj 98 363 outlet~;
#X connect 0 0 5 1;
#X connect 1 0 0 0;
#X connect 2 0 0 1;
#X connect 3 0 4 0;
#X connect 4 0 1 0;
#X connect 4 1 2 0;
#X connect 5 0 8 0;
#X connect 6 0 9 0;
#X connect 7 0 5 0;
#X connect 8 0 11 1;
#X connect 8 1 6 0;
#X connect 9 0 10 1;
#X connect 10 0 15 0;
#X connect 11 0 16 0;
#X connect 12 0 10 0;
#X connect 13 0 11 0;
#X connect 14 0 7 0;
#X restore 68 263 pd panner;
#X obj 42 428 r \$1-mixer_\$2_reset;
#X obj 76 511 f \$2;
#X obj 42 511 f \$1;
#X obj 42 480 t b b;
#X obj 42 540 pack;
#X obj 58 451 loadbang;
#X obj 263 476 f;
#X obj 292 443 moses 1;
#X obj 223 417 sel 1 0;
#X msg 223 477 0;
#X obj 223 391 r \$1-mixer_\$2_mute;
#X obj 292 418 r \$1-mixer_\$2_gain;
#X obj 251 545 f \$2;
#X obj 223 571 pack f f f;
#X obj 223 506 t f b b;
#X obj 280 545 f \$1;
#X msg 223 596 \; \$3-mixer_\$2_gain_set \$1 \;;
#X msg 42 562 \; \$1-mixer_\$2_gain_set 100 \; \$1-mixer_\$2_pan_set
65 \;;
#X obj 67 293 hip~ 5;
#X obj 120 294 hip~ 5;
#X connect 0 0 2 0;
#X connect 1 0 3 0;
#X connect 2 0 12 0;
#X connect 3 0 12 1;
#X connect 7 0 3 1;
#X connect 7 0 2 1;
#X connect 10 0 7 0;
#X connect 11 0 12 2;
#X connect 12 0 31 0;
#X connect 12 1 32 0;
#X connect 13 0 16 0;
#X connect 14 0 17 1;
#X connect 15 0 17 0;
#X connect 16 0 15 0;
#X connect 16 1 14 0;
#X connect 17 0 30 0;
#X connect 18 0 16 0;
#X connect 19 0 27 0;
#X connect 20 1 19 1;
#X connect 21 0 22 0;
#X connect 21 1 19 0;
#X connect 22 0 27 0;
#X connect 23 0 21 0;
#X connect 24 0 20 0;
#X connect 25 0 26 1;
#X connect 26 0 29 0;
#X connect 27 0 26 0;
#X connect 27 1 25 0;
#X connect 27 2 28 0;
#X connect 28 0 26 2;
#X connect 31 0 8 0;
#X connect 32 0 9 0;
