#N canvas 188 506 382 155 10;
#N canvas 460 196 426 509 dsp 0;
#X obj 20 65 inlet;
#X obj 20 406 outlet;
#X obj 20 199 cputime;
#X obj 20 178 t b b;
#X text 59 65 1/0 = ON/OFF;
#X text 97 313 CPU-load;
#X obj 20 126 sel 1;
#X obj 20 240 t f f;
#X obj 51 263 once;
#X obj 211 405 outlet;
#X text 65 408 average;
#X text 177 405 peak;
#X obj 211 154 f;
#X obj 146 179 > -1;
#X obj 169 155 f -1;
#X obj 179 91 t f b f;
#X obj 146 204 sel 1;
#X obj 192 132 f -1;
#X obj 20 154 metro 500;
#X obj 20 220 * 0.2;
#X obj 20 292 1p1z 0.1 0 0.9;
#X obj 20 315 * 100;
#X obj 20 360 int;
#X obj 20 338 + 0.499;
#X obj 20 383 * 0.01;
#X obj 146 227 del 3990;
#X text 176 455 IEM KUG;
#X text 160 443 musil;
#X text 190 443 @;
#X text 196 443 iem.at;
#X text 111 432 (c) Thomas Musil 2000 - 2005;
#X text 159 465 Graz \, Austria;
#X connect 0 0 6 0;
#X connect 2 0 19 0;
#X connect 3 0 2 0;
#X connect 3 1 2 1;
#X connect 6 0 18 0;
#X connect 7 0 20 0;
#X connect 7 1 8 0;
#X connect 8 0 20 5;
#X connect 8 0 20 4;
#X connect 12 0 14 1;
#X connect 12 0 9 0;
#X connect 13 0 16 0;
#X connect 14 0 13 1;
#X connect 15 0 13 0;
#X connect 15 1 14 0;
#X connect 15 2 12 1;
#X connect 16 0 12 0;
#X connect 16 0 25 0;
#X connect 17 0 14 1;
#X connect 18 0 3 0;
#X connect 19 0 7 0;
#X connect 19 0 15 0;
#X connect 20 0 21 0;
#X connect 21 0 23 0;
#X connect 22 0 24 0;
#X connect 23 0 22 0;
#X connect 24 0 1 0;
#X connect 25 0 17 0;
#X restore 27 54 pd dsp;
#X obj 27 102 s \$0-out_cpup;
#X obj 60 78 s \$0-out_cpum;
#X obj 190 48 nbx 5 14 -1e+37 1e+37 0 0 empty \$0-out_cpup empty 0
-8 0 10 -262144 -1 -1 1.37 256;
#X obj 263 48 nbx 5 14 -1e+37 1e+37 0 0 empty \$0-out_cpum empty 0
-8 0 10 -262144 -1 -1 4 256;
#X text 248 46 %;
#X text 321 46 max;
#X obj 27 26 traninfo;
#X connect 0 0 1 0;
#X connect 0 1 2 0;
#X connect 7 0 0 0;
#X coords 0 -1 1 1 188 23 1 160 44;
