#N canvas 691 22 477 242 10;
#X obj 381 72 knob 32 32 0 127 0 0 \$0-fm8_op1op2 \$0-fm8_op1op2_set
empty 0 -8 192 8 -262144 -1 -1 0 1;
#X obj 344 108 knob 32 32 0 127 0 0 \$0-fm8_op2op1 \$0-fm8_op2op1_set
empty 0 -8 192 8 -262144 -1 -1 0 1;
#X obj 344 144 knob 32 32 0 127 0 0 \$0-fm8_op1master \$0-fm8_op1master_set
out 8 9 192 8 -262144 -1 -1 2441 1;
#X obj 381 144 knob 32 32 0 127 0 0 \$0-fm8_op2master \$0-fm8_op2master_set
out 8 9 192 8 -262144 -1 -1 0 1;
#X text 392 54 2;
#X text 355 54 1;
#X obj 182 72 knob 32 32 0 127 0 0 \$0-fm8_op1_attack \$0-fm8_op1_attack_set
attack 2 -8 192 8 -262144 -1 -1 49 1;
#X obj 219 72 knob 32 32 0 127 0 0 \$0-fm8_op1_decay \$0-fm8_op1_decay_set
decay 3 -8 192 8 -262144 -1 -1 1562 1;
#X obj 256 72 knob 32 32 0 127 0 0 \$0-fm8_op1_ratio \$0-fm8_op1_ratio_set
ratio 2 -8 192 8 -262144 -1 -1 0 1;
#X text 331 79 1;
#X text 331 117 2;
#X obj 182 144 knob 32 32 0 127 0 0 \$0-fm8_attack \$0-fm8_attack_set
empty 0 -8 192 8 -262144 -1 -1 49 1;
#X obj 219 144 knob 32 32 0 127 0 0 \$0-fm8_decay \$0-fm8_decay_set
empty 0 -8 192 8 -262144 -1 -1 0 1;
#X obj 182 108 knob 32 32 0 127 0 0 \$0-fm8_op2_attack \$0-fm8_op2_attack_set
empty 0 -8 192 8 -262144 -1 -1 49 1;
#X obj 219 108 knob 32 32 0 127 0 0 \$0-fm8_op2_decay \$0-fm8_op2_decay_set
empty 0 -8 192 8 -262144 -1 -1 1562 1;
#X obj 256 108 knob 32 32 0 127 0 0 \$0-fm8_op2_ratio \$0-fm8_op2_ratio_set
empty 0 -8 192 8 -262144 -1 -1 0 1;
#X obj 396 44 bng 10 250 50 0 \$0-fm8_random \$0-fm8_random_set empty
3 6 0 10 -260097 -1 -1;
#X obj 405 44 bng 10 250 50 0 \$0-fm8_save \$0-fm8_save_set empty 3
6 0 10 -258113 -1 -1;
#X obj 262 44 hsl 128 10 0 127 0 0 \$0-fm8_recall \$0-fm8_recall_set
empty 10 5 0 10 -262144 -1 -1 0 1;
#X obj 8 50 inlet;
#X obj 8 124 outlet~;
#X obj 344 72 knob 32 32 0 127 0 0 \$0-fm8_op1_fb \$0-fm8_op1_fb_set
empty 0 -8 192 8 -262144 -1 -1 0 1;
#X obj 381 108 knob 32 32 0 127 0 0 \$0-fm8_op2_fb \$0-fm8_op2_fb_set
empty 0 -8 192 8 -262144 -1 -1 0 1;
#N canvas 165 176 605 410 fm2.1~ 0;
#X obj 207 302 *~ 0;
#X obj 261 302 *~ 0;
#X obj 397 302 *~ 0;
#X obj 451 302 *~ 0;
#X obj 228 275 mid2dec;
#X obj 282 275 mid2dec;
#X obj 418 275 mid2dec;
#X obj 472 275 mid2dec;
#X obj 207 156 r~ \$0-fm8_op2_to_op1;
#X obj 207 357 s~ \$0-fm8_op1_to_master;
#X obj 261 330 s~ \$0-fm8_op1_to_op2;
#X obj 397 156 r~ \$0-fm8_op1_to_op2;
#X obj 397 357 s~ \$0-fm8_op2_to_master;
#X obj 451 330 s~ \$0-fm8_op2_to_op1;
#X obj 228 221 r \$0-fm8_op1master;
#X obj 282 248 r \$0-fm8_op1op2;
#X obj 418 221 r \$0-fm8_op2master;
#X obj 472 248 r \$0-fm8_op2op1;
#X obj 16 18 inlet;
#X obj 16 42 unpack;
#X obj 49 135 s \$0-fm8_trigger;
#X obj 76 113 s \$0-fm8_velocity;
#X obj 16 158 mtof;
#X obj 49 65 t f f;
#X obj 76 90 mid2dec;
#X obj 49 90 > 0;
#X obj 16 239 r~ \$0-fm8_op1_to_master;
#X obj 16 256 r~ \$0-fm8_op2_to_master;
#X obj 16 182 s \$0-fm8_fundamental;
#X obj 16 357 outlet~;
#X obj 16 320 hip~ 5;
#N canvas 197 62 332 336 envelope 0;
#X obj 53 245 *~;
#X obj 68 70 r \$0-fm8_trigger;
#N canvas 0 22 450 300 t 0;
#X obj 49 40 inlet;
#X obj 49 82 mid2dec;
#X obj 49 117 *;
#X obj 124 81 t b f;
#X obj 94 58 traninfo;
#X obj 49 148 outlet;
#X connect 0 0 1 0;
#X connect 1 0 2 0;
#X connect 2 0 5 0;
#X connect 3 0 2 0;
#X connect 3 1 2 1;
#X connect 4 2 3 0;
#X restore 149 197 pd t;
#N canvas 0 22 450 300 t 0;
#X obj 49 40 inlet;
#X obj 49 82 mid2dec;
#X obj 49 117 *;
#X obj 124 81 t b f;
#X obj 94 58 traninfo;
#X obj 49 170 outlet;
#X obj 49 140 max 1;
#X connect 0 0 1 0;
#X connect 1 0 2 0;
#X connect 2 0 6 0;
#X connect 3 0 2 0;
#X connect 3 1 2 1;
#X connect 4 2 3 0;
#X connect 6 0 5 0;
#X restore 103 175 pd t;
#X obj 53 45 inlet~;
#X obj 53 272 outlet~;
#X obj 122 112 r \$0-fm8_attack;
#X obj 149 133 r \$0-fm8_decay;
#X obj 68 220 ead~ 2 300;
#X obj 83 100 sel 1;
#X connect 0 0 5 0;
#X connect 1 0 9 0;
#X connect 2 0 8 2;
#X connect 3 0 8 1;
#X connect 4 0 0 0;
#X connect 6 0 3 0;
#X connect 7 0 2 0;
#X connect 8 0 0 1;
#X connect 9 0 8 0;
#X restore 16 293 pd envelope;
#X obj 207 33 r \$0-fm8_random;
#X obj 305 33 r \$0-fm8_save;
#X obj 362 60 r \$0-fm8_recall;
#N canvas 858 401 212 288 parameters 0;
#X obj 21 16 inlet;
#X msg 22 38 \; \$1-fm8_op1_attack_set \$2 \; \$1-fm8_op1_decay_set
\$3 \; \$1-fm8_op1_ratio_set \$4 \; \$1-fm8_op1_index_set \$5 \; \$1-fm8_op2_attack_set
\$6 \; \$1-fm8_op2_decay_set \$7 \; \$1-fm8_op2_ratio_set \$8 \; \$1-fm8_op2_index_set
\$9 \; \$1-fm8_attack_set \$10 \; \$1-fm8_decay_set \$11 \; \$1-fm8_op1_fb
\$12 \; \$1-fm8_op1op2_set \$13 \; \$1-fm8_op2op1_set \$14 \; \$1-fm8_op2_fb
\$15 \; \$1-fm8_op1master_set \$16 \; \$1-fm8_op2master_set \$17 \;
;
#X text 60 15 16 Parameters;
#X connect 0 0 1 0;
#X restore 255 124 pd parameters;
#N canvas 678 51 483 581 presets 0;
#X obj 131 103 prepend;
#X obj 170 471 prepend \$0;
#X obj 48 220 t b b b;
#X obj 42 267 1-0;
#X obj 42 293 + 1;
#X obj 125 500 + 1;
#X obj 170 183 pack;
#X obj 170 156 f 0;
#X obj 131 130 t b b l;
#X obj 125 376 gate 2 2;
#X obj 48 193 inlet;
#X obj 67 293 f 0;
#X text 219 79 add 1 to it;
#X text 221 60 get the amount of presets stored;
#X text 220 98 prepend this to new preset;
#X text 216 119 store preset;
#X text 217 139 update the amount of presets;
#X msg 265 269 0 0;
#X msg 285 291 clear;
#X obj 246 227 bng 15 250 50 0 empty empty empty 17 7 0 10 -262144
-1 -1;
#X text 264 226 master reset (DONT TOUCH);
#X text 27 170 bang to save;
#X obj 170 500 outlet;
#X obj 246 247 t b b b;
#X obj 170 399 iter;
#X obj 170 423 int;
#X obj 152 48 t b f f;
#X obj 110 198 inlet;
#X obj 152 25 r \$0-fm7_preset_count;
#X obj 125 523 s \$0-fm7_preset_count;
#X obj 110 222 int;
#N canvas 631 31 397 471 param 0;
#X obj 43 59 r \$0-fm8_op1_attack;
#X obj 62 79 r \$0-fm8_op1_decay;
#X obj 76 101 r \$0-fm8_op1_ratio;
#X obj 175 247 r \$0-fm8_decay;
#X obj 161 227 r \$0-fm8_attack;
#X obj 204 287 r \$0-fm8_op1op2;
#X obj 218 307 r \$0-fm8_op2op1;
#X obj 246 348 r \$0-fm8_op1master;
#X obj 261 369 r \$0-fm8_op2master;
#X obj 48 429 outlet;
#X obj 28 27 inlet;
#X obj 90 123 r \$0-fm8_op1_index;
#X obj 104 144 r \$0-fm8_op2_attack;
#X obj 119 164 r \$0-fm8_op2_decay;
#X obj 133 185 r \$0-fm8_op2_ratio;
#X obj 147 206 r \$0-fm8_op2_index;
#X obj 190 267 r \$0-fm8_op1_fb;
#X obj 232 327 r \$0-fm8_op2_fb;
#X obj 48 394 pack f f f f f f f f f f f f f f f f;
#X obj 28 363 f;
#X connect 0 0 19 1;
#X connect 1 0 18 1;
#X connect 2 0 18 2;
#X connect 3 0 18 9;
#X connect 4 0 18 8;
#X connect 5 0 18 11;
#X connect 6 0 18 12;
#X connect 7 0 18 14;
#X connect 8 0 18 15;
#X connect 10 0 19 0;
#X connect 11 0 18 3;
#X connect 12 0 18 4;
#X connect 13 0 18 5;
#X connect 14 0 18 6;
#X connect 15 0 18 7;
#X connect 16 0 18 10;
#X connect 17 0 18 13;
#X connect 18 0 9 0;
#X connect 19 0 18 0;
#X restore 131 77 pd param;
#X text 108 173 recall;
#X msg 246 316 write fm2.1_presets.txt;
#X obj 170 353 coll fm2.1_presets.txt;
#C restore;
#X obj 170 447 zl group 16;
#X connect 0 0 8 0;
#X connect 1 0 22 0;
#X connect 2 0 3 0;
#X connect 2 1 11 0;
#X connect 2 2 3 1;
#X connect 3 0 4 0;
#X connect 4 0 9 0;
#X connect 5 0 29 0;
#X connect 6 0 34 0;
#X connect 7 0 6 0;
#X connect 8 0 33 0;
#X connect 8 1 7 0;
#X connect 8 2 34 0;
#X connect 9 0 5 0;
#X connect 9 1 24 0;
#X connect 10 0 2 0;
#X connect 11 0 34 0;
#X connect 17 0 34 0;
#X connect 18 0 34 0;
#X connect 19 0 23 0;
#X connect 23 0 33 0;
#X connect 23 1 17 0;
#X connect 23 2 18 0;
#X connect 24 0 25 0;
#X connect 25 0 35 0;
#X connect 26 0 31 0;
#X connect 26 1 0 1;
#X connect 26 2 6 1;
#X connect 27 0 30 0;
#X connect 28 0 26 0;
#X connect 30 0 34 0;
#X connect 31 0 0 0;
#X connect 33 0 34 0;
#X connect 34 0 9 1;
#X connect 35 0 1 0;
#X restore 305 87 pd presets;
#N canvas 470 165 450 300 random 0;
#X obj 158 167 f \$0;
#X obj 119 105 random 128;
#X obj 119 190 prepend;
#X obj 119 150 t l b;
#X obj 119 83 until;
#X obj 119 39 inlet;
#X obj 119 216 outlet;
#X text 147 61 number of parameters;
#X text 158 82 keep banging;
#X text 189 104 random;
#X text 194 127 create list;
#X text 190 167 patch ID;
#X msg 119 61 16;
#X obj 119 127 zl group 16;
#X connect 0 0 2 1;
#X connect 1 0 13 0;
#X connect 2 0 6 0;
#X connect 3 0 2 0;
#X connect 3 1 0 0;
#X connect 4 0 1 0;
#X connect 5 0 12 0;
#X connect 12 0 4 0;
#X connect 13 0 3 0;
#X restore 207 87 pd random;
#X obj 207 184 operator2~ 1 \$0;
#X msg 352 122 2 64 0 64 2 64 0 64 2 100 0 0 0 0 100 0;
#X obj 337 153 prepend \$0;
#X obj 456 85 loadbang;
#X obj 397 184 operator2~ 2 \$0;
#X connect 0 0 9 0;
#X connect 1 0 10 0;
#X connect 2 0 12 0;
#X connect 3 0 13 0;
#X connect 4 0 0 1;
#X connect 5 0 1 1;
#X connect 6 0 2 1;
#X connect 7 0 3 1;
#X connect 8 0 38 0;
#X connect 11 0 42 0;
#X connect 14 0 4 0;
#X connect 15 0 5 0;
#X connect 16 0 6 0;
#X connect 17 0 7 0;
#X connect 18 0 19 0;
#X connect 19 0 22 0;
#X connect 19 1 23 0;
#X connect 22 0 28 0;
#X connect 23 0 25 0;
#X connect 23 1 24 0;
#X connect 24 0 21 0;
#X connect 25 0 20 0;
#X connect 26 0 31 0;
#X connect 27 0 31 0;
#X connect 30 0 29 0;
#X connect 31 0 30 0;
#X connect 32 0 37 0;
#X connect 33 0 36 0;
#X connect 34 0 36 1;
#X connect 36 0 35 0;
#X connect 37 0 35 0;
#X connect 38 0 0 0;
#X connect 38 0 1 0;
#X connect 39 0 40 0;
#X connect 40 0 35 0;
#X connect 41 0 39 0;
#X connect 42 0 2 0;
#X connect 42 0 3 0;
#X restore 8 87 pd fm2.1~;
#X obj 293 72 knob 32 32 0 127 0 0 \$0-fm8_op1_index \$0-fm8_op1_index_set
index 2 -8 192 8 -262144 -1 -1 1562 1;
#X obj 293 108 knob 32 32 0 127 0 0 \$0-fm8_op2_index \$0-fm8_op2_index_set
empty 0 -8 192 8 -262144 -1 -1 1562 1;
#X obj 78 50 inlet;
#X obj 44 163 s \$0-fm8_decay_set;
#X obj 77 88 route decay;
#X connect 19 0 23 0;
#X connect 23 0 20 0;
#X connect 26 0 28 0;
#X connect 28 0 27 0;
#X coords 0 -1 1 1 246 145 1 175 38;
