#N canvas 143 100 971 177 10;
#X obj 650 9 inlet~;
#X obj 650 76 outlet~;
#X obj 7 28 knob 32 32 0 127 0 0 \$0-biscuit_rate \$0-biscuit_rate_set
rate 5 -8 192 8 -262144 -1 -1 3100 1;
#X obj 47 28 knob 32 32 0 127 0 0 \$0-biscuit_boost \$0-biscuit_boost_set
boost 5 -8 192 8 -262144 -1 -1 0 1;
#X obj 87 28 knob 32 32 0 127 0 0 \$0-biscuit_dry \$0-biscuit_dry_set
dry 6 -8 192 8 -262144 -1 -1 3100 1;
#X obj 127 28 knob 32 32 0 127 0 0 \$0-biscuit_wet \$0-biscuit_wet_set
wet 6 -8 192 8 -262144 -1 -1 0 1;
#X obj 167 28 knob 32 32 0 127 0 0 \$0-biscuit_q \$0-biscuit_q_set
Q 10 -8 192 8 -262144 -1 -1 3100 1;
#X obj 207 28 knob 32 32 0 127 0 0 \$0-biscuit_fil \$0-biscuit_fil_set
fil 6 -8 192 8 -262144 -1 -1 3100 1;
#X obj 250 26 tgl 15 0 \$0-biscuit_8 \$0-biscuit_8_set 8 5 7 0 10 -262144
-1 -1 0 1;
#X obj 265 26 tgl 15 0 \$0-biscuit_7 \$0-biscuit_7_set 7 5 7 0 10 -262144
-1 -1 0 1;
#X obj 280 26 tgl 15 0 \$0-biscuit_6 \$0-biscuit_6_set 6 5 7 0 10 -262144
-1 -1 0 1;
#X obj 295 26 tgl 15 0 \$0-biscuit_5 \$0-biscuit_5_set 5 5 7 0 10 -262144
-1 -1 0 1;
#X obj 310 26 tgl 15 0 \$0-biscuit_4 \$0-biscuit_4_set 4 5 7 0 10 -262144
-1 -1 0 1;
#X obj 325 26 tgl 15 0 \$0-biscuit_3 \$0-biscuit_3_set 3 5 7 0 10 -262144
-1 -1 0 1;
#X obj 340 26 tgl 15 0 \$0-biscuit_2 \$0-biscuit_2_set 2 5 7 0 10 -262144
-1 -1 0 1;
#X obj 355 26 tgl 15 0 \$0-biscuit_1 \$0-biscuit_1_set 1 5 7 0 10 -262144
-1 -1 0 1;
#N canvas 518 22 428 663 workings 0;
#N canvas 183 22 752 676 8biter 0;
#X obj 59 98 expr~ $v1 ^ $f2;
#X obj 59 182 expr~ $v1 & (~$f2);
#X obj 59 225 expr~ $v1/255*2-1;
#X obj 59 65 expr~ int(($v1*.5+.5)*255);
#X obj 59 13 inlet~;
#X obj 59 295 outlet~;
#X obj 258 33 r \$0-biscuit_8;
#X obj 282 53 r \$0-biscuit_7;
#X obj 333 73 r \$0-biscuit_6;
#X obj 384 93 r \$0-biscuit_5;
#X obj 435 113 r \$0-biscuit_4;
#X obj 486 133 r \$0-biscuit_3;
#X obj 537 153 r \$0-biscuit_2;
#X obj 588 173 r \$0-biscuit_1;
#X obj 258 227 expr $f1*pow(2 \, 7) + $f2*pow(2 \, 6) + $f3*pow(2 \,
5) +$f4*pow(2 \, 4) + $f5*pow(2 \, 3) + $f6*pow(2 \, 2) + $f7*2 + $f8
;
#X obj 588 194 t b f;
#X obj 537 194 t b f;
#X obj 486 194 t b f;
#X obj 435 194 t b f;
#X obj 384 194 t b f;
#X obj 333 194 t b f;
#X obj 282 194 t b f;
#X obj 688 227 expr $f1*pow(2 \, 7) + $f2*pow(2 \, 6) + $f3*pow(2 \,
5) +$f4*pow(2 \, 4) + $f5*pow(2 \, 3) + $f6*pow(2 \, 2) + $f7*2 + $f8
;
#X obj 1018 194 t b f;
#X obj 967 194 t b f;
#X obj 916 194 t b f;
#X obj 865 194 t b f;
#X obj 814 194 t b f;
#X obj 763 194 t b f;
#X obj 712 194 t b f;
#X obj 688 33 r \$0-biscuit_mute8;
#X obj 712 53 r \$0-biscuit_mute7;
#X obj 763 73 r \$0-biscuit_mute6;
#X obj 814 93 r \$0-biscuit_mute5;
#X obj 865 113 r \$0-biscuit_mute4;
#X obj 916 133 r \$0-biscuit_mute3;
#X obj 967 153 r \$0-biscuit_mute2;
#X obj 1018 173 r \$0-biscuit_mute1;
#X connect 0 0 1 0;
#X connect 1 0 2 0;
#X connect 2 0 5 0;
#X connect 3 0 0 0;
#X connect 4 0 3 0;
#X connect 6 0 14 0;
#X connect 7 0 21 0;
#X connect 8 0 20 0;
#X connect 9 0 19 0;
#X connect 10 0 18 0;
#X connect 11 0 17 0;
#X connect 12 0 16 0;
#X connect 13 0 15 0;
#X connect 14 0 0 1;
#X connect 15 0 14 0;
#X connect 15 1 14 7;
#X connect 16 0 14 0;
#X connect 16 1 14 6;
#X connect 17 0 14 0;
#X connect 17 1 14 5;
#X connect 18 0 14 0;
#X connect 18 1 14 4;
#X connect 19 0 14 0;
#X connect 19 1 14 3;
#X connect 20 0 14 0;
#X connect 20 1 14 2;
#X connect 21 0 14 0;
#X connect 21 1 14 1;
#X connect 22 0 1 1;
#X connect 23 0 22 0;
#X connect 23 1 22 7;
#X connect 24 0 22 0;
#X connect 24 1 22 6;
#X connect 25 0 22 0;
#X connect 25 1 22 5;
#X connect 26 0 22 0;
#X connect 26 1 22 4;
#X connect 27 0 22 0;
#X connect 27 1 22 3;
#X connect 28 0 22 0;
#X connect 28 1 22 2;
#X connect 29 0 22 0;
#X connect 29 1 22 1;
#X connect 30 0 22 0;
#X connect 31 0 29 0;
#X connect 32 0 28 0;
#X connect 33 0 27 0;
#X connect 34 0 26 0;
#X connect 35 0 25 0;
#X connect 36 0 24 0;
#X connect 37 0 23 0;
#X restore 167 132 pd 8biter;
#X obj 184 415 mtof;
#X obj 184 437 sig~;
#X obj 25 90 inlet~;
#X obj 167 276 samphold~;
#X obj 218 252 phasor~;
#X obj 218 160 r \$0-biscuit_rate;
#X obj 218 183 mid2dec;
#X obj 218 207 * 29750;
#X obj 218 231 + 250;
#X obj 46 123 r \$0-biscuit_dry;
#X obj 188 303 r \$0-biscuit_wet;
#X obj 46 146 mid2dec;
#X obj 188 326 mid2dec;
#X obj 25 179 *~ 1;
#X obj 167 359 *~ 1;
#X obj 215 415 r \$0-biscuit_q;
#X obj 184 393 r \$0-biscuit_fil;
#X obj 188 38 mid2dec;
#X obj 167 107 *~ 1;
#X obj 188 15 r \$0-biscuit_boost;
#X obj 188 59 * 9;
#X obj 188 79 + 1;
#X obj 215 461 * 2.95;
#X obj 215 440 mid2dec;
#X obj 215 483 + 0.05;
#N canvas 428 188 450 300 filter 0;
#X obj 54 41 inlet~;
#X obj 86 193 outlet~;
#X obj 86 160 mux~ 1 2 3;
#X obj 54 122 vcf_lp4~;
#X obj 172 122 vcf_bp4~;
#X obj 114 122 vcf_hp4~;
#X obj 136 41 inlet~;
#X obj 217 41 inlet~;
#X obj 277 41 inlet;
#X connect 0 0 3 0;
#X connect 0 0 5 0;
#X connect 0 0 4 0;
#X connect 2 0 1 0;
#X connect 3 0 2 0;
#X connect 4 0 2 2;
#X connect 5 0 2 1;
#X connect 6 0 3 1;
#X connect 6 0 5 1;
#X connect 6 0 4 1;
#X connect 7 0 3 2;
#X connect 7 0 5 2;
#X connect 7 0 4 2;
#X connect 8 0 2 0;
#X restore 167 539 pd filter;
#X obj 215 506 sig~;
#X obj 251 508 r \$0-biscuit_filter;
#X obj 25 626 outlet~;
#X obj 25 556 clip~ -1 1;
#X obj 25 585 hip~ 5;
#X connect 0 0 4 0;
#X connect 1 0 2 0;
#X connect 2 0 26 1;
#X connect 3 0 14 0;
#X connect 3 0 19 0;
#X connect 4 0 15 0;
#X connect 5 0 4 1;
#X connect 6 0 7 0;
#X connect 7 0 8 0;
#X connect 8 0 9 0;
#X connect 9 0 5 0;
#X connect 10 0 12 0;
#X connect 11 0 13 0;
#X connect 12 0 14 1;
#X connect 13 0 15 1;
#X connect 14 0 30 0;
#X connect 15 0 26 0;
#X connect 16 0 24 0;
#X connect 17 0 1 0;
#X connect 18 0 21 0;
#X connect 19 0 0 0;
#X connect 20 0 18 0;
#X connect 21 0 22 0;
#X connect 22 0 19 1;
#X connect 23 0 25 0;
#X connect 24 0 23 0;
#X connect 25 0 27 0;
#X connect 26 0 30 0;
#X connect 27 0 26 2;
#X connect 28 0 26 3;
#X connect 30 0 31 0;
#X connect 31 0 29 0;
#X coords 0 0 1 1 320 120 0;
#X restore 650 42 pd workings;
#X obj 250 46 tgl 15 0 \$0-biscuit_mute8 \$0-biscuit_mute8_set 8 5
7 0 10 -262144 -1 -1 0 1;
#X obj 265 46 tgl 15 0 \$0-biscuit_mute7 \$0-biscuit_mute7_set 7 5
7 0 10 -262144 -1 -1 0 1;
#X obj 280 46 tgl 15 0 \$0-biscuit_mute6 \$0-biscuit_mute6_set 6 5
7 0 10 -262144 -1 -1 0 1;
#X obj 295 46 tgl 15 0 \$0-biscuit_mute5 \$0-biscuit_mute5_set 5 5
7 0 10 -262144 -1 -1 0 1;
#X obj 310 46 tgl 15 0 \$0-biscuit_mute4 \$0-biscuit_mute4_set 4 5
7 0 10 -262144 -1 -1 0 1;
#X obj 325 46 tgl 15 0 \$0-biscuit_mute3 \$0-biscuit_mute3_set 3 5
7 0 10 -262144 -1 -1 0 1;
#X obj 340 46 tgl 15 0 \$0-biscuit_mute2 \$0-biscuit_mute2_set 2 5
7 0 10 -262144 -1 -1 0 1;
#X obj 355 46 tgl 15 0 \$0-biscuit_mute1 \$0-biscuit_mute1_set 1 5
7 0 10 -262144 -1 -1 0 1;
#X obj 375 9 tgl 10 0 \$0-biscuit_cruise \$0-biscuit_cruise_set empty
15 5 0 8 -260097 -1 -1 0 1;
#N canvas 352 181 564 412 cruise_control 0;
#X obj 31 205 unpack f f f f f f f f;
#X obj 31 372 s \$0-biscuit_8_set;
#X obj 49 352 s \$0-biscuit_7_set;
#X obj 67 332 s \$0-biscuit_6_set;
#X obj 86 312 s \$0-biscuit_5_set;
#X obj 104 292 s \$0-biscuit_4_set;
#X obj 123 272 s \$0-biscuit_3_set;
#X obj 141 252 s \$0-biscuit_2_set;
#X obj 160 232 s \$0-biscuit_1_set;
#X obj 281 205 unpack f f f f f f f f;
#X obj 410 232 s \$0-biscuit_mute1_set;
#X obj 391 252 s \$0-biscuit_mute2_set;
#X obj 373 272 s \$0-biscuit_mute3_set;
#X obj 354 292 s \$0-biscuit_mute4_set;
#X obj 336 312 s \$0-biscuit_mute5_set;
#X obj 317 332 s \$0-biscuit_mute6_set;
#X obj 299 352 s \$0-biscuit_mute7_set;
#X obj 281 372 s \$0-biscuit_mute8_set;
#X obj 281 158 pdj int2bin;
#N canvas 578 144 421 416 length 0;
#X obj 93 199 f 0;
#X obj 163 87 length;
#X obj 190 175 sel 1 0;
#X obj 190 224 list;
#X obj 229 224 list;
#X text 265 224 fine;
#X obj 211 70 t l l l;
#X obj 130 256 zl join;
#X obj 93 224 zl group;
#X obj 93 175 until;
#X obj 93 150 t f f;
#X obj 163 108 t f f;
#X obj 229 273 outlet;
#X obj 211 42 inlet;
#X text 153 223 short;
#X obj 93 125 expr 8-$f1;
#X obj 190 150 < 8;
#X connect 0 0 8 0;
#X connect 1 0 11 0;
#X connect 2 0 3 0;
#X connect 2 1 4 0;
#X connect 3 0 7 1;
#X connect 4 0 12 0;
#X connect 6 0 1 0;
#X connect 6 1 3 1;
#X connect 6 2 4 1;
#X connect 7 0 12 0;
#X connect 8 0 7 0;
#X connect 9 0 0 0;
#X connect 10 0 9 0;
#X connect 10 1 8 1;
#X connect 11 0 15 0;
#X connect 11 1 16 0;
#X connect 13 0 6 0;
#X connect 15 0 10 0;
#X connect 16 0 2 0;
#X restore 281 181 pd length;
#X obj 281 135 random 256;
#X obj 157 25 tranlength;
#X obj 31 158 pdj int2bin;
#N canvas 578 144 421 416 length 0;
#X obj 93 199 f 0;
#X obj 163 87 length;
#X obj 190 175 sel 1 0;
#X obj 190 224 list;
#X obj 229 224 list;
#X text 265 224 fine;
#X obj 211 70 t l l l;
#X obj 130 256 zl join;
#X obj 93 224 zl group;
#X obj 93 175 until;
#X obj 93 150 t f f;
#X obj 163 108 t f f;
#X obj 229 273 outlet;
#X obj 211 42 inlet;
#X text 153 223 short;
#X obj 93 125 expr 8-$f1;
#X obj 190 150 < 8;
#X connect 0 0 8 0;
#X connect 1 0 11 0;
#X connect 2 0 3 0;
#X connect 2 1 4 0;
#X connect 3 0 7 1;
#X connect 4 0 12 0;
#X connect 6 0 1 0;
#X connect 6 1 3 1;
#X connect 6 2 4 1;
#X connect 7 0 12 0;
#X connect 8 0 7 0;
#X connect 9 0 0 0;
#X connect 10 0 9 0;
#X connect 10 1 8 1;
#X connect 11 0 15 0;
#X connect 11 1 16 0;
#X connect 13 0 6 0;
#X connect 15 0 10 0;
#X connect 16 0 2 0;
#X restore 31 181 pd length;
#X obj 31 135 random 256;
#X obj 170 56 gate;
#X obj 33 39 r \$0-biscuit_cruise;
#X obj 170 118 sel 1;
#X obj 170 77 sel 0;
#X obj 170 97 decide;
#X connect 0 0 1 0;
#X connect 0 1 2 0;
#X connect 0 2 3 0;
#X connect 0 3 4 0;
#X connect 0 4 5 0;
#X connect 0 5 6 0;
#X connect 0 6 7 0;
#X connect 0 7 8 0;
#X connect 9 0 17 0;
#X connect 9 1 16 0;
#X connect 9 2 15 0;
#X connect 9 3 14 0;
#X connect 9 4 13 0;
#X connect 9 5 12 0;
#X connect 9 6 11 0;
#X connect 9 7 10 0;
#X connect 18 0 19 0;
#X connect 19 0 9 0;
#X connect 20 0 18 0;
#X connect 21 3 25 1;
#X connect 22 0 23 0;
#X connect 23 0 0 0;
#X connect 24 0 22 0;
#X connect 25 0 28 0;
#X connect 26 0 25 0;
#X connect 27 0 20 0;
#X connect 27 0 24 0;
#X connect 28 0 29 0;
#X connect 29 0 27 0;
#X restore 811 69 pd cruise_control;
#X obj 375 26 vradio 12 1 0 3 \$0-biscuit_filter \$0-biscuit_filter_set
empty 0 -8 0 10 -262144 -1 -1 0;
#X text 391 35 high;
#X text 391 23 low;
#X text 391 48 band;
#X obj 730 9 inlet~;
#X obj 730 76 outlet~;
#N canvas 518 22 428 663 workings 0;
#N canvas 183 22 752 676 8biter 0;
#X obj 59 98 expr~ $v1 ^ $f2;
#X obj 59 182 expr~ $v1 & (~$f2);
#X obj 59 225 expr~ $v1/255*2-1;
#X obj 59 65 expr~ int(($v1*.5+.5)*255);
#X obj 59 13 inlet~;
#X obj 59 295 outlet~;
#X obj 258 33 r \$0-biscuit_8;
#X obj 282 53 r \$0-biscuit_7;
#X obj 333 73 r \$0-biscuit_6;
#X obj 384 93 r \$0-biscuit_5;
#X obj 435 113 r \$0-biscuit_4;
#X obj 486 133 r \$0-biscuit_3;
#X obj 537 153 r \$0-biscuit_2;
#X obj 588 173 r \$0-biscuit_1;
#X obj 258 227 expr $f1*pow(2 \, 7) + $f2*pow(2 \, 6) + $f3*pow(2 \,
5) +$f4*pow(2 \, 4) + $f5*pow(2 \, 3) + $f6*pow(2 \, 2) + $f7*2 + $f8
;
#X obj 588 194 t b f;
#X obj 537 194 t b f;
#X obj 486 194 t b f;
#X obj 435 194 t b f;
#X obj 384 194 t b f;
#X obj 333 194 t b f;
#X obj 282 194 t b f;
#X obj 688 227 expr $f1*pow(2 \, 7) + $f2*pow(2 \, 6) + $f3*pow(2 \,
5) +$f4*pow(2 \, 4) + $f5*pow(2 \, 3) + $f6*pow(2 \, 2) + $f7*2 + $f8
;
#X obj 1018 194 t b f;
#X obj 967 194 t b f;
#X obj 916 194 t b f;
#X obj 865 194 t b f;
#X obj 814 194 t b f;
#X obj 763 194 t b f;
#X obj 712 194 t b f;
#X obj 688 33 r \$0-biscuit_mute8;
#X obj 712 53 r \$0-biscuit_mute7;
#X obj 763 73 r \$0-biscuit_mute6;
#X obj 814 93 r \$0-biscuit_mute5;
#X obj 865 113 r \$0-biscuit_mute4;
#X obj 916 133 r \$0-biscuit_mute3;
#X obj 967 153 r \$0-biscuit_mute2;
#X obj 1018 173 r \$0-biscuit_mute1;
#X connect 0 0 1 0;
#X connect 1 0 2 0;
#X connect 2 0 5 0;
#X connect 3 0 0 0;
#X connect 4 0 3 0;
#X connect 6 0 14 0;
#X connect 7 0 21 0;
#X connect 8 0 20 0;
#X connect 9 0 19 0;
#X connect 10 0 18 0;
#X connect 11 0 17 0;
#X connect 12 0 16 0;
#X connect 13 0 15 0;
#X connect 14 0 0 1;
#X connect 15 0 14 0;
#X connect 15 1 14 7;
#X connect 16 0 14 0;
#X connect 16 1 14 6;
#X connect 17 0 14 0;
#X connect 17 1 14 5;
#X connect 18 0 14 0;
#X connect 18 1 14 4;
#X connect 19 0 14 0;
#X connect 19 1 14 3;
#X connect 20 0 14 0;
#X connect 20 1 14 2;
#X connect 21 0 14 0;
#X connect 21 1 14 1;
#X connect 22 0 1 1;
#X connect 23 0 22 0;
#X connect 23 1 22 7;
#X connect 24 0 22 0;
#X connect 24 1 22 6;
#X connect 25 0 22 0;
#X connect 25 1 22 5;
#X connect 26 0 22 0;
#X connect 26 1 22 4;
#X connect 27 0 22 0;
#X connect 27 1 22 3;
#X connect 28 0 22 0;
#X connect 28 1 22 2;
#X connect 29 0 22 0;
#X connect 29 1 22 1;
#X connect 30 0 22 0;
#X connect 31 0 29 0;
#X connect 32 0 28 0;
#X connect 33 0 27 0;
#X connect 34 0 26 0;
#X connect 35 0 25 0;
#X connect 36 0 24 0;
#X connect 37 0 23 0;
#X restore 167 132 pd 8biter;
#X obj 184 415 mtof;
#X obj 184 437 sig~;
#X obj 25 90 inlet~;
#X obj 167 276 samphold~;
#X obj 218 252 phasor~;
#X obj 218 160 r \$0-biscuit_rate;
#X obj 218 183 mid2dec;
#X obj 218 207 * 29750;
#X obj 218 231 + 250;
#X obj 46 123 r \$0-biscuit_dry;
#X obj 188 303 r \$0-biscuit_wet;
#X obj 46 146 mid2dec;
#X obj 188 326 mid2dec;
#X obj 25 179 *~ 1;
#X obj 167 359 *~ 1;
#X obj 215 415 r \$0-biscuit_q;
#X obj 184 393 r \$0-biscuit_fil;
#X obj 188 38 mid2dec;
#X obj 167 107 *~ 1;
#X obj 188 15 r \$0-biscuit_boost;
#X obj 188 59 * 9;
#X obj 188 79 + 1;
#X obj 215 461 * 2.95;
#X obj 215 440 mid2dec;
#X obj 215 483 + 0.05;
#N canvas 428 188 450 300 filter 0;
#X obj 54 41 inlet~;
#X obj 86 193 outlet~;
#X obj 86 160 mux~ 1 2 3;
#X obj 54 122 vcf_lp4~;
#X obj 172 122 vcf_bp4~;
#X obj 114 122 vcf_hp4~;
#X obj 136 41 inlet~;
#X obj 217 41 inlet~;
#X obj 277 41 inlet;
#X connect 0 0 3 0;
#X connect 0 0 5 0;
#X connect 0 0 4 0;
#X connect 2 0 1 0;
#X connect 3 0 2 0;
#X connect 4 0 2 2;
#X connect 5 0 2 1;
#X connect 6 0 3 1;
#X connect 6 0 5 1;
#X connect 6 0 4 1;
#X connect 7 0 3 2;
#X connect 7 0 5 2;
#X connect 7 0 4 2;
#X connect 8 0 2 0;
#X restore 167 539 pd filter;
#X obj 215 506 sig~;
#X obj 251 508 r \$0-biscuit_filter;
#X obj 25 616 outlet~;
#X obj 25 556 clip~ -1 1;
#X obj 25 586 hip~ 5;
#X connect 0 0 4 0;
#X connect 1 0 2 0;
#X connect 2 0 26 1;
#X connect 3 0 14 0;
#X connect 3 0 19 0;
#X connect 4 0 15 0;
#X connect 5 0 4 1;
#X connect 6 0 7 0;
#X connect 7 0 8 0;
#X connect 8 0 9 0;
#X connect 9 0 5 0;
#X connect 10 0 12 0;
#X connect 11 0 13 0;
#X connect 12 0 14 1;
#X connect 13 0 15 1;
#X connect 14 0 30 0;
#X connect 15 0 26 0;
#X connect 16 0 24 0;
#X connect 17 0 1 0;
#X connect 18 0 21 0;
#X connect 19 0 0 0;
#X connect 20 0 18 0;
#X connect 21 0 22 0;
#X connect 22 0 19 1;
#X connect 23 0 25 0;
#X connect 24 0 23 0;
#X connect 25 0 27 0;
#X connect 26 0 30 0;
#X connect 27 0 26 2;
#X connect 28 0 26 3;
#X connect 30 0 31 0;
#X connect 31 0 29 0;
#X coords 0 0 1 1 320 120 0;
#X restore 730 42 pd workings;
#X obj 810 9 inlet;
#N canvas 625 22 597 498 parameters 0;
#X obj 25 30 inlet;
#X obj 25 58 route rate boost dry wet q fil filter cruise invert mute
;
#X obj 324 99 route 8 7 6 5 4 3 2 1;
#X obj 291 119 route 8 7 6 5 4 3 2 1;
#X obj 25 300 s \$0-biscuit_rate_set;
#X obj 45 280 s \$0-biscuit_boost_set;
#X obj 75 260 s \$0-biscuit_dry_set;
#X obj 105 240 s \$0-biscuit_wet_set;
#X obj 135 220 s \$0-biscuit_q_set;
#X obj 165 200 s \$0-biscuit_fil_set;
#X obj 195 180 s \$0-biscuit_filter_set;
#X obj 225 160 s \$0-biscuit_cruise_set;
#N canvas 475 39 483 581 presets 0;
#X obj 131 103 prepend;
#X obj 170 471 prepend \$0;
#X obj 48 220 t b b b;
#X obj 42 267 1-0;
#X obj 42 293 + 1;
#X obj 125 500 + 1;
#X obj 170 183 pack;
#X obj 170 156 f 0;
#X obj 131 130 t b b l;
#X obj 125 376 gate 2 2;
#X obj 48 193 inlet;
#X obj 67 293 f 0;
#X text 219 79 add 1 to it;
#X text 221 60 get the amount of presets stored;
#X text 220 98 prepend this to new preset;
#X text 216 119 store preset;
#X text 217 139 update the amount of presets;
#X msg 265 269 0 0;
#X msg 285 291 clear;
#X obj 246 227 bng 15 250 50 0 empty empty empty 17 7 0 10 -262144
-1 -1;
#X text 264 226 master reset (DONT TOUCH);
#X text 27 170 bang to save;
#X obj 170 500 outlet;
#X obj 246 247 t b b b;
#X obj 170 399 iter;
#X obj 170 423 int;
#X obj 152 48 t b f f;
#X obj 110 198 inlet;
#X obj 152 25 r \$0-fm7_preset_count;
#X obj 125 523 s \$0-fm7_preset_count;
#X obj 110 222 int;
#N canvas 290 138 899 372 param 0;
#X obj 373 324 outlet;
#X obj 334 -3 inlet;
#X obj 347 71 r \$0-biscuit_8;
#X obj 365 91 r \$0-biscuit_7;
#X obj 382 111 r \$0-biscuit_6;
#X obj 399 131 r \$0-biscuit_5;
#X obj 415 151 r \$0-biscuit_4;
#X obj 432 171 r \$0-biscuit_3;
#X obj 449 191 r \$0-biscuit_2;
#X obj 466 211 r \$0-biscuit_1;
#X obj 349 235 pack f f f f f f f f;
#X obj 589 235 pack f f f f f f f f;
#X obj 589 71 r \$0-biscuit_mute8;
#X obj 605 90 r \$0-biscuit_mute7;
#X obj 622 111 r \$0-biscuit_mute6;
#X obj 639 131 r \$0-biscuit_mute5;
#X obj 655 151 r \$0-biscuit_mute4;
#X obj 672 171 r \$0-biscuit_mute3;
#X obj 689 191 r \$0-biscuit_mute2;
#X obj 706 211 r \$0-biscuit_mute1;
#X obj 75 58 r \$0-biscuit_rate;
#X obj 97 78 r \$0-biscuit_boost;
#X obj 114 98 r \$0-biscuit_dry;
#X obj 131 118 r \$0-biscuit_wet;
#X obj 147 138 r \$0-biscuit_q;
#X obj 164 158 r \$0-biscuit_fil;
#X obj 181 178 r \$0-biscuit_filter;
#X obj 198 198 r \$0-biscuit_cruise;
#X obj 81 221 pack f f f f f f f f;
#X obj 60 178 f;
#X obj 332 197 f;
#X obj 566 190 f;
#X obj 331 19 t b b b;
#X obj 442 271 zl join;
#X obj 373 297 zl join;
#X connect 1 0 32 0;
#X connect 2 0 30 1;
#X connect 3 0 10 1;
#X connect 4 0 10 2;
#X connect 5 0 10 3;
#X connect 6 0 10 4;
#X connect 7 0 10 5;
#X connect 8 0 10 6;
#X connect 9 0 10 7;
#X connect 10 0 33 0;
#X connect 11 0 33 1;
#X connect 12 0 31 1;
#X connect 13 0 11 1;
#X connect 14 0 11 2;
#X connect 15 0 11 3;
#X connect 16 0 11 4;
#X connect 17 0 11 5;
#X connect 18 0 11 6;
#X connect 19 0 11 7;
#X connect 20 0 29 1;
#X connect 21 0 28 1;
#X connect 22 0 28 2;
#X connect 23 0 28 3;
#X connect 24 0 28 4;
#X connect 25 0 28 5;
#X connect 26 0 28 6;
#X connect 27 0 28 7;
#X connect 28 0 34 0;
#X connect 29 0 28 0;
#X connect 30 0 10 0;
#X connect 31 0 11 0;
#X connect 32 0 29 0;
#X connect 32 1 30 0;
#X connect 32 2 31 0;
#X connect 33 0 34 1;
#X connect 34 0 0 0;
#X restore 131 77 pd param;
#X text 108 173 recall;
#X msg 246 316 write kai.biscuit_presets.txt;
#X obj 170 353 coll kai.biscuit_presets.txt;
#C restore;
#X obj 170 447 zl group 24;
#X connect 0 0 8 0;
#X connect 1 0 22 0;
#X connect 2 0 3 0;
#X connect 2 1 11 0;
#X connect 2 2 3 1;
#X connect 3 0 4 0;
#X connect 4 0 9 0;
#X connect 5 0 29 0;
#X connect 6 0 34 0;
#X connect 7 0 6 0;
#X connect 8 0 33 0;
#X connect 8 1 7 0;
#X connect 8 2 34 0;
#X connect 9 0 5 0;
#X connect 9 1 24 0;
#X connect 10 0 2 0;
#X connect 11 0 34 0;
#X connect 17 0 34 0;
#X connect 18 0 34 0;
#X connect 19 0 23 0;
#X connect 23 0 33 0;
#X connect 23 1 17 0;
#X connect 23 2 18 0;
#X connect 24 0 25 0;
#X connect 25 0 35 0;
#X connect 26 0 31 0;
#X connect 26 1 0 1;
#X connect 26 2 6 1;
#X connect 27 0 30 0;
#X connect 28 0 26 0;
#X connect 30 0 34 0;
#X connect 31 0 0 0;
#X connect 33 0 34 0;
#X connect 34 0 9 1;
#X connect 35 0 1 0;
#X restore 736 115 pd presets;
#X msg 736 136 \; \$1-biscuit_rate_set \$2 \; \$1-biscuit_boost_set
\$3 \; \$1-biscuit_dry_set \$4 \; \$1-biscuit_wet_set \$5 \; \$1-biscuit_q_set
\$6 \; \$1-biscuit_fil_set \$7 \; \$1-biscuit_filter_set \$8 \; \$1-biscuit_cruise_set
\$9 \; \$1-biscuit_8_set \$10 \; \$1-biscuit_7_set \$11 \; \$1-biscuit_6_set
\$12 \; \$1-biscuit_5_set \$13 \; \$1-biscuit_4_set \$14 \; \$1-biscuit_3_set
\$15 \; \$1-biscuit_2_set \$16 \; \$1-biscuit_1_set \$17 \; \$1-biscuit_mute8_set
\$18 \; \$1-biscuit_mute7_set \$19 \; \$1-biscuit_mute6_set \$20 \;
\$1-biscuit_mute5_set \$21 \; \$1-biscuit_mute4_set \$22 \; \$1-biscuit_mute3_set
\$23 \; \$1-biscuit_mute2_set \$24 \; \$1-biscuit_mute1_set \$25 \;
;
#X obj 736 73 r \$0-biscuit_save;
#X obj 793 93 r \$0-biscuit_recall;
#X msg 566 136 \; \$1-biscuit_rate_set 127 \; \$1-biscuit_boost_set
0 \; \$1-biscuit_dry_set 127 \; \$1-biscuit_wet_set 0 \; \$1-biscuit_q_set
127 \; \$1-biscuit_fil_set 127 \; \$1-biscuit_filter_set 0 \; \$1-biscuit_cruise_set
0 \; \$1-biscuit_8_set 0 \; \$1-biscuit_7_set 0 \; \$1-biscuit_6_set
0 \; \$1-biscuit_5_set 0 \; \$1-biscuit_4_set 0 \; \$1-biscuit_3_set
0 \; \$1-biscuit_2_set 0 \; \$1-biscuit_1_set 0 \; \$1-biscuit_mute8_set
0 \; \$1-biscuit_mute7_set 0 \; \$1-biscuit_mute6_set 0 \; \$1-biscuit_mute5_set
0 \; \$1-biscuit_mute4_set 0 \; \$1-biscuit_mute3_set 0 \; \$1-biscuit_mute2_set
0 \; \$1-biscuit_mute1_set 0 \;;
#X obj 566 112 f \$0;
#X obj 566 90 loadbang;
#X connect 0 0 1 0;
#X connect 1 0 4 0;
#X connect 1 1 5 0;
#X connect 1 2 6 0;
#X connect 1 3 7 0;
#X connect 1 4 8 0;
#X connect 1 5 9 0;
#X connect 1 6 10 0;
#X connect 1 7 11 0;
#X connect 1 8 3 0;
#X connect 1 9 2 0;
#X connect 12 0 13 0;
#X connect 14 0 12 0;
#X connect 15 0 12 1;
#X connect 17 0 16 0;
#X connect 18 0 17 0;
#X coords 0 0 1 1 320 120 0;
#X restore 810 42 pd parameters;
#X obj 385 9 bng 10 250 50 0 \$0-biscuit_save \$0-biscuit_save_set
empty 17 7 0 10 -258113 -1 -1;
#X obj 304 9 hsl 64 10 0 127 0 0 \$0-biscuit_recall \$0-biscuit_recall_set
empty -2 -8 0 10 -262144 -1 -1 0 1;
#X connect 0 0 16 0;
#X connect 16 0 1 0;
#X connect 31 0 33 0;
#X connect 33 0 32 0;
#X connect 34 0 35 0;
#X coords 0 -1 1 1 425 68 1 0 0;
