#N canvas 15 22 1265 695 10;
#X obj 654 105 cpu;
#X obj 106 110 looper4;
#X obj 521 105 transport;
#X obj 366 285 bass~;
#X obj 106 242 chords;
#X obj 841 138 markovtrigger;
#X obj 266 517 fverb2~;
#X obj 106 517 fildelay~;
#X obj 814 517 flan~;
#X obj 620 208 pitch2scale;
#X obj 842 105 recorder;
#X obj 727 406 multimixer3~;
#X obj 620 260 fm2.1;
#X obj 106 585 multimixer4~;
#X obj 106 405 fxmixer~;
#X obj 99 707 outlet~;
#X obj 1090 706 outlet~;
#X obj 106 278 pitch2scale;
#X obj 366 233 pitch2scale;
#X obj 981 138 markovcc2;
#X obj 106 330 polyfm~;
#X obj 521 128 mdrum10;
#X obj 106 10 inlet;
#X obj 476 623 kai.biscuit2;
#X obj 389 517 kai.biscuit2;
#X obj 811 68 midirouting ------------------------------------------------
;
#X obj 180 69 pack f f f;
#X obj 180 47 unpack;
#X obj 106 30 midiparse;
#X obj 106 69 midiformat;
#X obj 811 40 midirouting ------------------------------------------------
;
#X obj 875 307 adrum2~;
#X obj 875 237 adrum2~;
#X obj 875 377 adrum2~;
#X obj 875 447 adrum2~;
#X connect 1 0 5 0;
#X connect 1 1 19 0;
#X connect 1 2 5 1;
#X connect 1 3 19 1;
#X connect 1 4 5 2;
#X connect 1 5 19 2;
#X connect 1 6 21 0;
#X connect 3 0 14 2;
#X connect 3 0 14 3;
#X connect 4 0 17 0;
#X connect 5 0 4 0;
#X connect 5 1 18 0;
#X connect 5 2 9 0;
#X connect 5 3 32 0;
#X connect 5 4 31 0;
#X connect 5 5 33 0;
#X connect 5 6 34 0;
#X connect 6 0 13 2;
#X connect 6 1 13 3;
#X connect 7 0 13 0;
#X connect 7 1 13 1;
#X connect 8 0 13 6;
#X connect 8 1 13 7;
#X connect 9 0 12 0;
#X connect 11 0 14 6;
#X connect 11 1 14 7;
#X connect 12 0 14 4;
#X connect 12 0 14 5;
#X connect 13 0 23 0;
#X connect 13 1 23 1;
#X connect 14 0 23 0;
#X connect 14 1 23 1;
#X connect 14 2 7 0;
#X connect 14 3 7 1;
#X connect 14 4 6 0;
#X connect 14 5 6 1;
#X connect 14 6 24 0;
#X connect 14 7 24 1;
#X connect 14 8 8 0;
#X connect 14 9 8 1;
#X connect 17 0 20 0;
#X connect 18 0 3 0;
#X connect 19 0 30 0;
#X connect 19 1 30 1;
#X connect 19 2 30 2;
#X connect 20 0 14 1;
#X connect 20 0 14 0;
#X connect 21 0 5 3;
#X connect 21 1 5 4;
#X connect 21 2 5 5;
#X connect 21 3 5 6;
#X connect 22 0 28 0;
#X connect 23 0 15 0;
#X connect 23 0 10 0;
#X connect 23 1 16 0;
#X connect 23 1 10 1;
#X connect 24 0 13 4;
#X connect 24 1 13 5;
#X connect 25 0 5 7;
#X connect 25 1 20 1;
#X connect 25 2 3 1;
#X connect 25 3 12 1;
#X connect 25 4 21 1;
#X connect 25 5 14 8;
#X connect 25 6 11 4;
#X connect 25 7 13 8;
#X connect 25 8 7 2;
#X connect 25 9 6 2;
#X connect 25 10 24 2;
#X connect 25 11 8 2;
#X connect 25 12 23 2;
#X connect 25 13 1 1;
#X connect 26 0 25 0;
#X connect 27 0 26 0;
#X connect 27 1 26 1;
#X connect 28 0 29 0;
#X connect 28 1 29 1;
#X connect 28 2 27 0;
#X connect 28 2 29 2;
#X connect 28 3 29 3;
#X connect 28 4 29 4;
#X connect 28 5 29 5;
#X connect 28 6 26 2;
#X connect 28 6 29 6;
#X connect 29 0 1 0;
#X connect 30 0 5 7;
#X connect 30 0 19 7;
#X connect 30 1 20 1;
#X connect 30 2 3 1;
#X connect 30 3 12 1;
#X connect 30 4 21 1;
#X connect 30 5 14 8;
#X connect 30 6 11 4;
#X connect 30 7 13 8;
#X connect 30 8 7 2;
#X connect 30 9 6 2;
#X connect 30 10 24 2;
#X connect 30 11 8 2;
#X connect 30 12 23 2;
#X connect 30 13 1 1;
#X connect 31 0 11 1;
#X connect 32 0 11 0;
#X connect 33 0 11 2;
#X connect 34 0 11 3;
#X coords 0 -1 1 1 1035 600 2 100 100;
