#N canvas 65 22 1205 550 10;
#X obj 527 57 knob 32 32 0 127 0 0 \$0-trig_length \$0-trig_length_set
length 0 -8 192 8 -262144 -1 -1 0 1;
#X obj 573 57 knob 32 32 0 127 0 0 \$0-trig_prob \$0-trig_prob_set
prbblty 0 -8 192 8 -262144 -1 -1 0 1;
#X obj 620 56 tgl 32 0 empty \$0-trig_switch_set state 3 -8 0 8 -262144
-1 -1 0 1;
#X obj 292 123 inlet;
#X obj 362 123 inlet;
#X obj 432 123 inlet;
#X obj 502 123 inlet;
#X obj 572 123 inlet;
#X obj 642 123 inlet;
#X obj 712 123 inlet;
#X obj 292 223 outlet;
#X obj 362 223 outlet;
#X obj 432 223 outlet;
#X obj 502 223 outlet;
#X obj 572 223 outlet;
#X obj 642 223 outlet;
#X obj 712 223 outlet;
#X obj 78 266 pdj bin2int;
#X obj 9 313 pdj int2bin;
#X obj 78 234 pack f f f f f f f;
#X obj 9 360 unpack f f f f f f f;
#X obj 97 290 r \$0-trig_rec;
#X obj 78 93 r \$0-trig_in_1;
#X obj 95 113 r \$0-trig_in_2;
#X obj 113 133 r \$0-trig_in_3;
#X obj 130 153 r \$0-trig_in_4;
#X obj 148 173 r \$0-trig_in_5;
#X obj 165 193 r \$0-trig_in_6;
#X obj 183 213 r \$0-trig_in_7;
#X obj 9 502 s \$0-trig_out_1;
#X obj 28 482 s \$0-trig_out_2;
#X obj 48 462 s \$0-trig_out_3;
#X obj 67 442 s \$0-trig_out_4;
#X obj 87 422 s \$0-trig_out_5;
#X obj 106 402 s \$0-trig_out_6;
#X obj 126 382 s \$0-trig_out_7;
#X obj 980 409 s \$0-trig_rec;
#X obj 953 280 sel 0;
#X obj 926 175 + 1;
#X obj 812 379 + 1;
#X obj 926 105 mid2dec;
#X obj 926 150 int;
#X obj 926 127 * 5;
#X obj 935 199 tranlength;
#X obj 812 323 decide3;
#X obj 926 223 switch 6 6;
#X obj 926 82 r \$0-trig_length;
#X obj 851 299 r \$0-trig_prob;
#X obj 812 404 s \$0-trig_switch;
#X obj 812 352 s \$0-trig_switch_set;
#X obj 9 264 gate;
#X obj 9 70 r \$0-trig_switch;
#X obj 9 235 - 1;
#X obj 926 247 t b f;
#X obj 293 47 f \$0;
#X obj 293 25 loadbang;
#X text 716 435 7 places with 2 possible values = 2 to the power 7
= 128;
#N canvas 578 144 421 416 length 0;
#X obj 93 199 f 0;
#X obj 163 87 length;
#X obj 190 175 sel 1 0;
#X obj 190 150 < 7;
#X obj 190 224 list;
#X obj 229 224 list;
#X text 265 224 fine;
#X obj 211 70 t l l l;
#X obj 130 256 zl join;
#X obj 93 224 zl group;
#X obj 93 125 expr 7-$f1;
#X obj 93 175 until;
#X obj 93 150 t f f;
#X obj 163 108 t f f;
#X obj 229 273 outlet;
#X obj 211 42 inlet;
#X text 153 223 short;
#X connect 0 0 9 0;
#X connect 1 0 13 0;
#X connect 2 0 4 0;
#X connect 2 1 5 0;
#X connect 3 0 2 0;
#X connect 4 0 8 1;
#X connect 5 0 14 0;
#X connect 7 0 1 0;
#X connect 7 1 4 1;
#X connect 7 2 5 1;
#X connect 8 0 14 0;
#X connect 9 0 8 0;
#X connect 10 0 12 0;
#X connect 11 0 0 0;
#X connect 12 0 11 0;
#X connect 12 1 9 1;
#X connect 13 0 10 0;
#X connect 13 1 3 0;
#X connect 15 0 7 0;
#X restore 9 336 pd length;
#X obj 980 338 t b b;
#X obj 980 363 1-0;
#X msg 980 386 record \$1;
#X obj 63 192 f;
#X obj 756 153 tranlength;
#X obj 9 290 d.markov 128;
#X obj 801 175 t b b b b b b b b;
#X obj 502 192 trig \$0 4;
#X obj 953 306 t b b;
#X msg 293 69 \; \$1-trig_length_set 96 \; \$1-trig_prob_set 0 \;;
#X obj 1016 123 inlet;
#X obj 1016 221 s \$0-trig_prob_set;
#X obj 1016 175 route prob length;
#X obj 1065 198 s \$0-trig_length_set;
#X obj 432 192 trig \$0 3;
#X obj 362 192 trig \$0 2;
#X obj 292 192 trig \$0 1;
#X obj 572 192 trig \$0 5;
#X obj 642 192 trig \$0 6;
#X obj 712 192 trig \$0 7;
#X connect 3 0 74 0;
#X connect 4 0 73 0;
#X connect 5 0 72 0;
#X connect 6 0 65 0;
#X connect 7 0 75 0;
#X connect 8 0 76 0;
#X connect 9 0 77 0;
#X connect 17 0 63 1;
#X connect 18 0 57 0;
#X connect 19 0 17 0;
#X connect 20 0 29 0;
#X connect 20 1 30 0;
#X connect 20 2 31 0;
#X connect 20 3 32 0;
#X connect 20 4 33 0;
#X connect 20 5 34 0;
#X connect 20 6 35 0;
#X connect 21 0 63 1;
#X connect 22 0 61 1;
#X connect 23 0 19 1;
#X connect 24 0 19 2;
#X connect 25 0 19 3;
#X connect 26 0 19 4;
#X connect 27 0 19 5;
#X connect 28 0 19 6;
#X connect 37 0 66 0;
#X connect 38 0 45 0;
#X connect 39 0 48 0;
#X connect 40 0 42 0;
#X connect 41 0 38 0;
#X connect 42 0 41 0;
#X connect 43 0 45 1;
#X connect 43 1 45 2;
#X connect 43 2 45 3;
#X connect 43 3 45 4;
#X connect 43 4 45 5;
#X connect 43 5 45 6;
#X connect 44 0 39 0;
#X connect 44 0 49 0;
#X connect 45 0 53 0;
#X connect 46 0 40 0;
#X connect 47 0 44 1;
#X connect 50 0 63 0;
#X connect 51 0 52 0;
#X connect 52 0 50 0;
#X connect 53 0 50 1;
#X connect 53 1 37 0;
#X connect 54 0 67 0;
#X connect 55 0 54 0;
#X connect 57 0 20 0;
#X connect 58 0 59 0;
#X connect 58 1 59 1;
#X connect 59 0 60 0;
#X connect 60 0 36 0;
#X connect 61 0 19 0;
#X connect 62 4 64 0;
#X connect 63 0 18 0;
#X connect 64 0 61 0;
#X connect 64 1 74 1;
#X connect 64 2 73 1;
#X connect 64 3 72 1;
#X connect 64 4 65 1;
#X connect 64 5 75 1;
#X connect 64 6 76 1;
#X connect 64 7 77 1;
#X connect 65 0 13 0;
#X connect 66 0 44 0;
#X connect 66 1 58 0;
#X connect 68 0 70 0;
#X connect 70 0 69 0;
#X connect 70 1 71 0;
#X connect 72 0 12 0;
#X connect 73 0 11 0;
#X connect 74 0 10 0;
#X connect 75 0 14 0;
#X connect 76 0 15 0;
#X connect 77 0 16 0;
#X coords 0 -1 1 1 140 70 1 520 25;
