#N canvas 45 59 1235 741 10;
#X obj 82 515 seq;
#X obj 25 646 outlet;
#X text 27 666 notein;
#X msg 502 454 record;
#X msg 595 478 stop record;
#X obj 973 192 tranlength;
#N canvas 128 22 450 300 getlength 0;
#X obj 266 38 traninfo;
#X obj 288 162 * 0.25;
#X obj 248 162 * 0.5;
#X obj 168 162 * 2;
#X obj 128 162 * 3;
#X obj 88 162 * 4;
#X obj 73 192 f;
#X obj 113 192 f;
#X obj 153 192 f;
#X obj 193 192 f;
#X obj 233 192 f;
#X obj 273 192 f;
#X obj 73 110 sel 0 1 2 3 4 5;
#X obj 73 244 outlet;
#X obj 73 48 inlet;
#X obj 73 84 f;
#X obj 296 64 t b f;
#X connect 0 2 16 0;
#X connect 1 0 11 1;
#X connect 2 0 10 1;
#X connect 3 0 8 1;
#X connect 4 0 7 1;
#X connect 5 0 6 1;
#X connect 6 0 13 0;
#X connect 7 0 13 0;
#X connect 8 0 13 0;
#X connect 9 0 13 0;
#X connect 10 0 13 0;
#X connect 11 0 13 0;
#X connect 12 0 6 0;
#X connect 12 1 7 0;
#X connect 12 2 8 0;
#X connect 12 3 9 0;
#X connect 12 4 10 0;
#X connect 12 5 11 0;
#X connect 14 0 15 0;
#X connect 15 0 12 0;
#X connect 16 0 15 0;
#X connect 16 1 5 0;
#X connect 16 1 4 0;
#X connect 16 1 3 0;
#X connect 16 1 9 1;
#X connect 16 1 2 0;
#X connect 16 1 1 0;
#X restore 966 72 pd getlength;
#X text 1050 71 0==4 && 5==1/4;
#X obj 556 427 delay 100;
#X obj 966 244 sel 0;
#X text 1038 383 128 x 13;
#N canvas 66 22 707 749 countdown 0;
#X obj 354 102 tranlength;
#X obj 347 130 switch 6;
#X obj 347 75 + 1;
#X obj 331 450 outlet;
#X obj 331 293 switch;
#X obj 356 321 traninfo;
#X obj 386 344 * 0.0625;
#X obj 347 155 + 1;
#X obj 175 130 f 2;
#X obj 331 361 pack;
#X obj 331 390 line;
#X obj 331 418 * 128;
#N canvas 128 22 450 300 getlength 0;
#X obj 73 172 f;
#X obj 113 172 f;
#X obj 153 172 f;
#X obj 193 172 f;
#X obj 233 172 f;
#X obj 273 172 f;
#X obj 73 90 sel 0 1 2 3 4 5;
#X obj 73 224 outlet;
#X obj 73 48 inlet;
#X obj 258 90 f 1;
#X obj 253 58 loadbang;
#X obj 288 142 / 4;
#X obj 248 142 / 8;
#X obj 208 142 / 16;
#X obj 168 142 / 32;
#X obj 128 142 / 48;
#X obj 88 142 / 64;
#X connect 0 0 7 0;
#X connect 1 0 7 0;
#X connect 2 0 7 0;
#X connect 3 0 7 0;
#X connect 4 0 7 0;
#X connect 5 0 7 0;
#X connect 6 0 0 0;
#X connect 6 1 1 0;
#X connect 6 2 2 0;
#X connect 6 3 3 0;
#X connect 6 4 4 0;
#X connect 6 5 5 0;
#X connect 8 0 6 0;
#X connect 9 0 13 0;
#X connect 9 0 12 0;
#X connect 9 0 11 0;
#X connect 9 0 14 0;
#X connect 9 0 15 0;
#X connect 9 0 16 0;
#X connect 10 0 9 0;
#X connect 11 0 5 1;
#X connect 12 0 4 1;
#X connect 13 0 3 1;
#X connect 14 0 2 1;
#X connect 15 0 1 1;
#X connect 16 0 0 1;
#X restore 445 105 pd getlength;
#X obj 347 190 *;
#X obj 366 250 expr 1-$f1;
#X obj 347 222 t f f b;
#X obj 301 270 f;
#X obj 430 41 r \$1-midilooper\$2_gui_length;
#X obj 175 106 r \$1-midilooper\$2_gui_rec;
#X obj 112 162 r \$1-midilooper\$2_gui_rec_status;
#X connect 0 0 1 1;
#X connect 0 1 1 2;
#X connect 0 2 1 3;
#X connect 0 3 1 4;
#X connect 0 4 1 5;
#X connect 0 5 1 6;
#X connect 1 0 7 0;
#X connect 2 0 1 0;
#X connect 4 0 9 0;
#X connect 5 2 6 0;
#X connect 6 0 9 1;
#X connect 7 0 13 0;
#X connect 8 0 16 1;
#X connect 9 0 10 0;
#X connect 10 0 11 0;
#X connect 11 0 3 0;
#X connect 12 0 13 1;
#X connect 13 0 15 0;
#X connect 14 0 4 2;
#X connect 15 0 4 1;
#X connect 15 1 14 0;
#X connect 15 2 16 0;
#X connect 16 0 4 0;
#X connect 17 0 2 0;
#X connect 17 0 12 0;
#X connect 18 0 8 0;
#X connect 19 0 16 1;
#X restore 967 307 pd countdown;
#X obj 966 220 switch 6;
#X obj 582 139 onebang;
#X obj 582 162 f 1;
#X obj 502 410 sel 1;
#X obj 575 510 f 0;
#X obj 316 236 onebang;
#X obj 236 466 gate;
#X obj 966 169 + 1;
#X obj 25 548 switch 2 1;
#X obj 556 453 t b b b;
#X obj 355 183 gate;
#X obj 355 137 < 1;
#X obj 316 261 counter 1;
#X obj 25 101 + 1;
#X obj 25 52 < 1;
#X obj 192 466 sel 1;
#X obj 236 408 t f f;
#X obj 316 90 r \$1-midilooper\$2_startbar;
#X obj 355 114 r \$1-midilooper\$2_gui_run_status;
#X obj 376 160 r \$1-midilooper\$2_run;
#X obj 355 209 r \$1-midilooper\$2_gui_run;
#X obj 582 90 r \$1-midilooper\$2_startbar;
#X obj 621 112 r \$1-midilooper\$2_gui_rec;
#X obj 582 185 s \$1-midilooper\$2_gui_rec_status_set;
#X obj 316 288 s \$1-midilooper\$2_gui_run_status_set;
#X obj 236 380 r \$1-midilooper\$2_gui_run_status;
#X obj 502 380 r \$1-midilooper\$2_gui_rec_status;
#X obj 607 402 r \$1-midilooper\$2_length_ms;
#X obj 257 438 r \$1-midilooper\$2_startbar;
#X obj 575 533 s \$1-midilooper\$2_gui_rec_status_set;
#X obj 556 557 s \$1-midilooper\$2_run;
#X obj 25 24 r \$1-midilooper\$2_gui_rec_status;
#X obj 25 77 r \$1-midilooper\$2_gui_run_status;
#X msg 967 409 \; \$1-midilooper\$2_status_bar_set vis_size \$3 13
;
#X obj 967 355 f \$1;
#X obj 997 355 f \$2;
#X obj 967 382 pack f f f;
#X obj 967 330 t b b f;
#X obj 966 270 s \$1-midilooper\$2_startbar;
#X obj 966 145 r \$1-midilooper\$2_gui_length;
#X obj 966 99 s \$1-midilooper\$2_length_ms;
#X obj 966 46 r \$1-midilooper\$2_gui_length;
#X obj 25 573 midiparse;
#X obj 76 328 inlet;
#X obj 1024 511 f 2;
#X obj 975 461 loadbang;
#X msg 964 562 \; \$1-midilooper\$2_gui_length_set \$3 \; \$1-midilooper\$2_gui_rec_status_set
0 \; \$1-midilooper\$2_gui_run_status_set 0 \;;
#X obj 994 511 f \$2;
#X obj 975 486 t b b b;
#X obj 964 537 pack f f f;
#X obj 964 511 f \$1;
#X obj 97 653 outlet;
#X obj 97 625 pack f f f;
#X obj 42 599 unpack;
#X text 151 652 value \, number \, channel;
#X connect 0 0 20 2;
#X connect 3 0 0 0;
#X connect 4 0 0 0;
#X connect 5 0 12 1;
#X connect 5 1 12 2;
#X connect 5 2 12 3;
#X connect 5 3 12 4;
#X connect 5 4 12 5;
#X connect 5 5 12 6;
#X connect 6 0 52 0;
#X connect 8 0 21 0;
#X connect 9 0 50 0;
#X connect 11 0 49 0;
#X connect 12 0 9 0;
#X connect 13 0 14 0;
#X connect 14 0 35 0;
#X connect 15 0 3 0;
#X connect 15 0 8 0;
#X connect 16 0 41 0;
#X connect 17 0 24 0;
#X connect 18 0 0 0;
#X connect 19 0 12 0;
#X connect 20 0 54 0;
#X connect 21 0 42 0;
#X connect 21 1 16 0;
#X connect 21 2 4 0;
#X connect 22 0 17 1;
#X connect 23 0 22 0;
#X connect 24 0 36 0;
#X connect 25 0 20 0;
#X connect 26 0 25 0;
#X connect 27 0 0 0;
#X connect 28 0 18 0;
#X connect 28 1 27 0;
#X connect 29 0 17 0;
#X connect 30 0 23 0;
#X connect 31 0 22 1;
#X connect 32 0 17 1;
#X connect 33 0 13 0;
#X connect 34 0 13 1;
#X connect 37 0 28 0;
#X connect 38 0 15 0;
#X connect 39 0 8 1;
#X connect 40 0 18 1;
#X connect 43 0 26 0;
#X connect 44 0 25 0;
#X connect 46 0 48 0;
#X connect 47 0 48 1;
#X connect 48 0 45 0;
#X connect 49 0 46 0;
#X connect 49 1 47 0;
#X connect 49 2 48 2;
#X connect 51 0 19 0;
#X connect 53 0 6 0;
#X connect 54 0 1 0;
#X connect 54 2 65 0;
#X connect 54 6 64 2;
#X connect 55 0 0 0;
#X connect 55 0 20 1;
#X connect 56 0 61 2;
#X connect 57 0 60 0;
#X connect 59 0 61 1;
#X connect 60 0 62 0;
#X connect 60 1 59 0;
#X connect 60 2 56 0;
#X connect 61 0 58 0;
#X connect 62 0 61 0;
#X connect 64 0 63 0;
#X connect 65 0 64 0;
#X connect 65 1 64 1;
#X coords 0 0 1 1 140 102 0;
