#N canvas 0 22 1169 364 10;
#X obj 279 74 inlet;
#X obj 1080 286 outlet;
#X obj 50 286 outlet;
#X obj 360 286 outlet;
#X obj 120 286 outlet;
#X obj 200 286 outlet;
#X obj 280 286 outlet;
#X obj 440 286 outlet;
#X obj 520 286 outlet;
#X obj 600 286 outlet;
#X obj 680 286 outlet;
#X obj 760 286 outlet;
#X obj 840 286 outlet;
#X obj 920 286 outlet;
#X obj 1000 286 outlet;
#X text 1080 312 looper;
#X text 360 312 mdrum;
#X text 120 312 polyfm~;
#X text 200 312 bass~;
#X text 280 312 fm2.1;
#X text 440 312 fxmixer;
#X text 600 312 multim2;
#X text 520 312 multim1;
#X text 680 312 fildel;
#X text 760 312 fverb;
#X text 840 312 bisc1;
#X text 920 312 flan;
#X text 1000 312 bisc2;
#X text 278 54 ctlin;
#X text 50 312 markov;
#X text 222 32 [value \, number \, channel];
#N canvas 0 22 1280 696 midirouterforthemainpatch 0;
#X obj 419 124 inlet;
#X obj 1060 596 outlet;
#X obj 30 596 outlet;
#X obj 340 596 outlet;
#X obj 100 596 outlet;
#X obj 180 596 outlet;
#X obj 260 596 outlet;
#X obj 420 596 outlet;
#X obj 500 596 outlet;
#X obj 580 596 outlet;
#X obj 660 596 outlet;
#X obj 740 596 outlet;
#X obj 820 596 outlet;
#X obj 900 596 outlet;
#X obj 980 596 outlet;
#X text 1060 622 looper;
#X text 340 622 mdrum;
#X text 100 622 polyfm~;
#X text 180 622 bass~;
#X text 260 622 fm2.1;
#X text 420 622 fxmixer;
#X text 580 622 multim2;
#X text 500 622 multim1;
#X text 660 622 fildel;
#X text 740 622 fverb;
#X text 820 622 bisc1;
#X text 900 622 flan;
#X text 980 622 bisc2;
#X text 418 104 ctlin;
#X obj 419 168 zl rot 2;
#X obj 419 197 route 7 28 10 12 13;
#X text 132 195 Faders;
#X text 34 195 Master;
#X text 770 197 Knobs 3;
#X text 591 196 Knobs 2;
#X text 293 197 Knobs 1;
#X obj 921 214 zl rot 2;
#X obj 921 240 route 1;
#X obj 921 262 zl rev;
#X obj 96 214 route 1 2 3 4 5 6 7 8;
#X obj 30 214 route 1;
#X obj 739 214 route 1 2 3 4 5 6 7 8;
#X obj 558 214 route 1 2 3 4 5 6 7 8;
#X obj 270 214 route 1 2 3 4 5 6 7 8;
#X obj 921 284 route 14 15 16 17;
#X obj 1020 307 route 18 19 20 21 22 23 24 25 26 27;
#X msg 96 389 gain1 \$1;
#X msg 111 369 gain2 \$1;
#X msg 126 349 gain3 \$1;
#X msg 142 329 gain4 \$1;
#X msg 157 309 gain1 \$1;
#X msg 172 289 gain2 \$1;
#X msg 188 269 gain3 \$1;
#X msg 203 249 gain4 \$1;
#X text 30 622 markov;
#X msg 30 255 prob \$1;
#X msg 331 302 gain1 \$1;
#X msg 346 282 gain2 \$1;
#X msg 362 262 gain3 \$1;
#X msg 377 242 gain4 \$1;
#X msg 558 382 fil1 \$1;
#X msg 573 362 fil2 \$1;
#X msg 588 342 fil3 \$1;
#X msg 604 322 fil4 \$1;
#X msg 619 302 fxsend1 \$1;
#X msg 634 282 fxsend2 \$1;
#X msg 650 262 fxsend3 \$1;
#X msg 665 242 fxsend4 \$1;
#X msg 316 322 pitch \$1;
#X msg 270 385 center \$1;
#X msg 285 364 amount \$1;
#X msg 300 343 decay \$1;
#X msg 739 466 fbl \$1;
#X msg 739 486 fbr \$1;
#X msg 754 445 size \$1;
#X msg 785 404 freq \$1;
#X msg 800 383 rate \$1;
#X msg 815 363 q \$1;
#X msg 831 343 fil \$1;
#X msg 846 323 filter \$1;
#X msg 1040 514 rec1 bang;
#X msg 1061 494 rec2 bang;
#X msg 1082 474 rec3 bang;
#X msg 959 404 gate \$1;
#X text 965 263 bottom 4;
#X text 1115 283 top 9;
#X obj 921 333 t b;
#X obj 945 333 t b;
#X obj 970 333 t b;
#X obj 995 333 t b;
#X obj 921 363 f 0;
#X obj 945 363 f 1;
#X obj 970 363 f 2;
#X obj 995 363 f 3;
#X obj 1040 333 t b;
#X obj 1061 333 t b;
#X obj 1082 333 t b;
#X obj 1102 333 t b;
#X obj 1123 333 t b;
#X obj 1144 333 t b;
#X msg 1144 414 run3 bang;
#X msg 1123 434 run2 bang;
#X msg 1102 454 run1 bang;
#X obj 1164 333 t b;
#X obj 1185 333 t b;
#X obj 1206 333 t b;
#X obj 1020 333 t b;
#X msg 1164 397 mute1 bang;
#X msg 1185 377 mute2 bang;
#X msg 1206 357 mute3 bang;
#X msg 1020 534 mute4 bang;
#X text 924 195 Buttons;
#X text 699 122 Identify where the message came from;
#X text 699 143 add argument;
#X text 699 163 send to correct outlet;
#X text 482 122 [value \, number \, channel];
#X text 699 75 routing midi control change messages to different parts
of a bigger patch \, done for UC-33e;
#X text 482 167 [number \, channel \, value];
#X msg 769 425 fil \$1;
#X obj 846 250 mid2dec;
#X obj 846 298 int;
#X obj 846 274 * 2;
#X connect 0 0 29 0;
#X connect 29 0 30 0;
#X connect 30 0 39 0;
#X connect 30 1 40 0;
#X connect 30 2 41 0;
#X connect 30 3 42 0;
#X connect 30 4 43 0;
#X connect 30 5 36 0;
#X connect 36 0 37 0;
#X connect 37 0 38 0;
#X connect 38 0 44 0;
#X connect 39 0 46 0;
#X connect 39 1 47 0;
#X connect 39 2 48 0;
#X connect 39 3 49 0;
#X connect 39 4 50 0;
#X connect 39 5 51 0;
#X connect 39 6 52 0;
#X connect 39 7 53 0;
#X connect 40 0 55 0;
#X connect 41 0 72 0;
#X connect 41 0 73 0;
#X connect 41 1 74 0;
#X connect 41 2 118 0;
#X connect 41 3 75 0;
#X connect 41 4 76 0;
#X connect 41 5 77 0;
#X connect 41 6 78 0;
#X connect 41 7 119 0;
#X connect 42 0 60 0;
#X connect 42 1 61 0;
#X connect 42 2 62 0;
#X connect 42 3 63 0;
#X connect 42 4 64 0;
#X connect 42 5 65 0;
#X connect 42 6 66 0;
#X connect 42 7 67 0;
#X connect 43 0 69 0;
#X connect 43 1 70 0;
#X connect 43 2 71 0;
#X connect 43 3 68 0;
#X connect 43 4 56 0;
#X connect 43 5 57 0;
#X connect 43 6 58 0;
#X connect 43 7 59 0;
#X connect 44 0 86 0;
#X connect 44 1 87 0;
#X connect 44 2 88 0;
#X connect 44 3 89 0;
#X connect 44 4 45 0;
#X connect 45 0 106 0;
#X connect 45 1 94 0;
#X connect 45 2 95 0;
#X connect 45 3 96 0;
#X connect 45 4 97 0;
#X connect 45 5 98 0;
#X connect 45 6 99 0;
#X connect 45 7 103 0;
#X connect 45 8 104 0;
#X connect 45 9 105 0;
#X connect 46 0 7 0;
#X connect 47 0 7 0;
#X connect 48 0 7 0;
#X connect 49 0 7 0;
#X connect 50 0 9 0;
#X connect 51 0 9 0;
#X connect 52 0 9 0;
#X connect 53 0 9 0;
#X connect 55 0 2 0;
#X connect 56 0 8 0;
#X connect 57 0 8 0;
#X connect 58 0 8 0;
#X connect 59 0 8 0;
#X connect 60 0 7 0;
#X connect 61 0 7 0;
#X connect 62 0 7 0;
#X connect 63 0 7 0;
#X connect 64 0 7 0;
#X connect 65 0 7 0;
#X connect 66 0 7 0;
#X connect 67 0 7 0;
#X connect 68 0 3 0;
#X connect 69 0 4 0;
#X connect 70 0 5 0;
#X connect 71 0 6 0;
#X connect 72 0 10 0;
#X connect 73 0 10 0;
#X connect 74 0 11 0;
#X connect 75 0 13 0;
#X connect 76 0 14 0;
#X connect 77 0 14 0;
#X connect 78 0 14 0;
#X connect 79 0 14 0;
#X connect 80 0 1 0;
#X connect 81 0 1 0;
#X connect 82 0 1 0;
#X connect 83 0 1 0;
#X connect 86 0 90 0;
#X connect 87 0 91 0;
#X connect 88 0 92 0;
#X connect 89 0 93 0;
#X connect 90 0 83 0;
#X connect 91 0 83 0;
#X connect 92 0 83 0;
#X connect 93 0 83 0;
#X connect 94 0 80 0;
#X connect 95 0 81 0;
#X connect 96 0 82 0;
#X connect 97 0 102 0;
#X connect 98 0 101 0;
#X connect 99 0 100 0;
#X connect 100 0 1 0;
#X connect 101 0 1 0;
#X connect 102 0 1 0;
#X connect 103 0 107 0;
#X connect 104 0 108 0;
#X connect 105 0 109 0;
#X connect 106 0 110 0;
#X connect 107 0 1 0;
#X connect 108 0 1 0;
#X connect 109 0 1 0;
#X connect 110 0 1 0;
#X connect 118 0 12 0;
#X connect 119 0 121 0;
#X connect 120 0 79 0;
#X connect 121 0 120 0;
#X restore 279 119 pd midirouterforthemainpatch;
#X obj 489 74 inlet;
#X text 488 54 ctlin;
#X text 432 32 [value \, number \, channel];
#N canvas 47 51 1212 623 midirouterforthemainpatch 0;
#X obj 419 124 inlet;
#X obj 1060 596 outlet;
#X obj 30 596 outlet;
#X obj 340 596 outlet;
#X obj 100 596 outlet;
#X obj 180 596 outlet;
#X obj 260 596 outlet;
#X obj 420 596 outlet;
#X obj 500 596 outlet;
#X obj 580 596 outlet;
#X obj 660 596 outlet;
#X obj 740 596 outlet;
#X obj 820 596 outlet;
#X obj 900 596 outlet;
#X obj 980 596 outlet;
#X text 1060 622 looper;
#X text 340 622 mdrum;
#X text 100 622 polyfm~;
#X text 180 622 bass~;
#X text 260 622 fm2.1;
#X text 420 622 fxmixer;
#X text 580 622 multim2;
#X text 500 622 multim1;
#X text 660 622 fildel;
#X text 740 622 fverb;
#X text 820 622 bisc1;
#X text 900 622 flan;
#X text 980 622 bisc2;
#X text 418 104 ctlin;
#X obj 419 158 zl rot 2;
#X obj 419 197 route 7 28 10 12 13;
#X text 132 195 Faders;
#X text 34 195 Master;
#X text 770 197 Knobs 3;
#X text 591 196 Knobs 2;
#X text 293 197 Knobs 1;
#X obj 921 214 zl rot 2;
#X obj 921 240 route 1;
#X obj 921 262 zl rev;
#X obj 96 214 route 1 2 3 4 5 6 7 8;
#X obj 30 214 route 1;
#X obj 739 214 route 1 2 3 4 5 6 7 8;
#X obj 558 214 route 1 2 3 4 5 6 7 8;
#X obj 270 214 route 1 2 3 4 5 6 7 8;
#X obj 921 284 route 14 15 16 17;
#X obj 1020 307 route 18 19 20 21 22 23 24 25 26 27;
#X msg 96 389 gain1 \$1;
#X msg 111 369 gain2 \$1;
#X msg 126 349 gain3 \$1;
#X msg 142 329 gain4 \$1;
#X msg 157 309 gain1 \$1;
#X msg 172 289 gain2 \$1;
#X msg 188 269 gain3 \$1;
#X msg 203 249 gain4 \$1;
#X text 30 622 markov;
#X msg 30 255 prob \$1;
#X msg 331 302 gain1 \$1;
#X msg 346 282 gain2 \$1;
#X msg 362 262 gain3 \$1;
#X msg 377 242 gain4 \$1;
#X msg 558 382 fil1 \$1;
#X msg 573 362 fil2 \$1;
#X msg 588 342 fil3 \$1;
#X msg 604 322 fil4 \$1;
#X msg 619 302 fxsend1 \$1;
#X msg 634 282 fxsend2 \$1;
#X msg 650 262 fxsend3 \$1;
#X msg 665 242 fxsend4 \$1;
#X msg 316 322 pitch \$1;
#X msg 270 385 center \$1;
#X msg 285 364 amount \$1;
#X msg 300 343 decay \$1;
#X msg 739 466 fbl \$1;
#X msg 739 486 fbr \$1;
#X msg 754 445 size \$1;
#X msg 785 404 freq \$1;
#X msg 800 383 rate \$1;
#X msg 815 363 q \$1;
#X msg 831 343 fil \$1;
#X msg 846 323 filter \$1;
#X msg 1040 514 rec1 bang;
#X msg 1061 494 rec2 bang;
#X msg 1082 474 rec3 bang;
#X msg 959 404 gate \$1;
#X text 965 263 bottom 4;
#X text 1115 283 top 9;
#X obj 921 333 t b;
#X obj 945 333 t b;
#X obj 970 333 t b;
#X obj 995 333 t b;
#X obj 921 363 f 0;
#X obj 945 363 f 1;
#X obj 970 363 f 2;
#X obj 995 363 f 3;
#X obj 1040 333 t b;
#X obj 1061 333 t b;
#X obj 1082 333 t b;
#X obj 1102 333 t b;
#X obj 1123 333 t b;
#X obj 1144 333 t b;
#X msg 1144 414 run3 bang;
#X msg 1123 434 run2 bang;
#X msg 1102 454 run1 bang;
#X obj 1164 333 t b;
#X obj 1185 333 t b;
#X obj 1206 333 t b;
#X obj 1020 333 t b;
#X msg 1164 397 mute1 bang;
#X msg 1185 377 mute2 bang;
#X msg 1206 357 mute3 bang;
#X msg 1020 534 mute4 bang;
#X text 924 195 Buttons;
#X text 589 92 Identify where the message came from;
#X text 589 113 add argument;
#X text 589 133 send to correct outlet;
#X text 362 82 [value \, number \, channel];
#X text 589 45 routing midi control change messages to different parts
of a bigger patch \, done for UC-33e;
#X msg 769 425 fil \$1;
#X obj 846 244 mid2dec;
#X obj 846 268 * 3;
#X obj 846 292 int;
#X connect 0 0 29 0;
#X connect 29 0 30 0;
#X connect 30 0 39 0;
#X connect 30 1 40 0;
#X connect 30 2 41 0;
#X connect 30 3 42 0;
#X connect 30 4 43 0;
#X connect 30 5 36 0;
#X connect 36 0 37 0;
#X connect 37 0 38 0;
#X connect 38 0 44 0;
#X connect 39 0 46 0;
#X connect 39 1 47 0;
#X connect 39 2 48 0;
#X connect 39 3 49 0;
#X connect 39 4 50 0;
#X connect 39 5 51 0;
#X connect 39 6 52 0;
#X connect 39 7 53 0;
#X connect 40 0 55 0;
#X connect 41 0 72 0;
#X connect 41 0 73 0;
#X connect 41 1 74 0;
#X connect 41 2 117 0;
#X connect 41 3 75 0;
#X connect 41 4 76 0;
#X connect 41 5 77 0;
#X connect 41 6 78 0;
#X connect 41 7 118 0;
#X connect 42 0 60 0;
#X connect 42 1 61 0;
#X connect 42 2 62 0;
#X connect 42 3 63 0;
#X connect 42 4 64 0;
#X connect 42 5 65 0;
#X connect 42 6 66 0;
#X connect 42 7 67 0;
#X connect 43 0 69 0;
#X connect 43 1 70 0;
#X connect 43 2 71 0;
#X connect 43 3 68 0;
#X connect 43 4 56 0;
#X connect 43 5 57 0;
#X connect 43 6 58 0;
#X connect 43 7 59 0;
#X connect 44 0 86 0;
#X connect 44 1 87 0;
#X connect 44 2 88 0;
#X connect 44 3 89 0;
#X connect 44 4 45 0;
#X connect 45 0 106 0;
#X connect 45 1 94 0;
#X connect 45 2 95 0;
#X connect 45 3 96 0;
#X connect 45 4 97 0;
#X connect 45 5 98 0;
#X connect 45 6 99 0;
#X connect 45 7 103 0;
#X connect 45 8 104 0;
#X connect 45 9 105 0;
#X connect 46 0 7 0;
#X connect 47 0 7 0;
#X connect 48 0 7 0;
#X connect 49 0 7 0;
#X connect 50 0 9 0;
#X connect 51 0 9 0;
#X connect 52 0 9 0;
#X connect 53 0 9 0;
#X connect 55 0 2 0;
#X connect 56 0 8 0;
#X connect 57 0 8 0;
#X connect 58 0 8 0;
#X connect 59 0 8 0;
#X connect 60 0 7 0;
#X connect 61 0 7 0;
#X connect 62 0 7 0;
#X connect 63 0 7 0;
#X connect 64 0 7 0;
#X connect 65 0 7 0;
#X connect 66 0 7 0;
#X connect 67 0 7 0;
#X connect 68 0 3 0;
#X connect 69 0 4 0;
#X connect 70 0 5 0;
#X connect 71 0 6 0;
#X connect 72 0 10 0;
#X connect 73 0 10 0;
#X connect 74 0 11 0;
#X connect 75 0 13 0;
#X connect 76 0 14 0;
#X connect 77 0 14 0;
#X connect 78 0 14 0;
#X connect 79 0 14 0;
#X connect 80 0 1 0;
#X connect 81 0 1 0;
#X connect 82 0 1 0;
#X connect 83 0 1 0;
#X connect 86 0 90 0;
#X connect 87 0 91 0;
#X connect 88 0 92 0;
#X connect 89 0 93 0;
#X connect 90 0 83 0;
#X connect 91 0 83 0;
#X connect 92 0 83 0;
#X connect 93 0 83 0;
#X connect 94 0 80 0;
#X connect 95 0 81 0;
#X connect 96 0 82 0;
#X connect 97 0 102 0;
#X connect 98 0 101 0;
#X connect 99 0 100 0;
#X connect 100 0 1 0;
#X connect 101 0 1 0;
#X connect 102 0 1 0;
#X connect 103 0 107 0;
#X connect 104 0 108 0;
#X connect 105 0 109 0;
#X connect 106 0 110 0;
#X connect 107 0 1 0;
#X connect 108 0 1 0;
#X connect 109 0 1 0;
#X connect 110 0 1 0;
#X connect 117 0 12 0;
#X connect 118 0 119 0;
#X connect 119 0 120 0;
#X connect 120 0 79 0;
#X restore 489 119 pd midirouterforthemainpatch;
#X obj 699 74 inlet;
#X text 698 54 ctlin;
#X text 642 32 [value \, number \, channel];
#N canvas 47 51 1233 644 midirouterforthemainpatch 0;
#X obj 419 124 inlet;
#X obj 1060 596 outlet;
#X obj 30 596 outlet;
#X obj 340 596 outlet;
#X obj 100 596 outlet;
#X obj 180 596 outlet;
#X obj 260 596 outlet;
#X obj 420 596 outlet;
#X obj 500 596 outlet;
#X obj 580 596 outlet;
#X obj 660 596 outlet;
#X obj 740 596 outlet;
#X obj 820 596 outlet;
#X obj 900 596 outlet;
#X obj 980 596 outlet;
#X text 1060 622 looper;
#X text 340 622 mdrum;
#X text 100 622 polyfm~;
#X text 180 622 bass~;
#X text 260 622 fm2.1;
#X text 420 622 fxmixer;
#X text 580 622 multim2;
#X text 500 622 multim1;
#X text 660 622 fildel;
#X text 740 622 fverb;
#X text 820 622 bisc1;
#X text 900 622 flan;
#X text 980 622 bisc2;
#X text 418 104 ctlin;
#X obj 419 158 zl rot 2;
#X obj 419 197 route 7 28 10 12 13;
#X text 132 195 Faders;
#X text 34 195 Master;
#X text 770 197 Knobs 3;
#X text 591 196 Knobs 2;
#X text 293 197 Knobs 1;
#X obj 921 214 zl rot 2;
#X obj 921 240 route 1;
#X obj 921 262 zl rev;
#X obj 96 214 route 1 2 3 4 5 6 7 8;
#X obj 30 214 route 1;
#X obj 739 214 route 1 2 3 4 5 6 7 8;
#X obj 558 214 route 1 2 3 4 5 6 7 8;
#X obj 270 214 route 1 2 3 4 5 6 7 8;
#X obj 921 284 route 14 15 16 17;
#X obj 1020 307 route 18 19 20 21 22 23 24 25 26 27;
#X msg 96 389 gain1 \$1;
#X msg 111 369 gain2 \$1;
#X msg 126 349 gain3 \$1;
#X msg 142 329 gain4 \$1;
#X msg 157 309 gain1 \$1;
#X msg 172 289 gain2 \$1;
#X msg 188 269 gain3 \$1;
#X msg 203 249 gain4 \$1;
#X text 30 622 markov;
#X msg 30 255 prob \$1;
#X msg 331 302 gain1 \$1;
#X msg 346 282 gain2 \$1;
#X msg 362 262 gain3 \$1;
#X msg 377 242 gain4 \$1;
#X msg 558 382 fil1 \$1;
#X msg 573 362 fil2 \$1;
#X msg 588 342 fil3 \$1;
#X msg 604 322 fil4 \$1;
#X msg 619 302 fxsend1 \$1;
#X msg 634 282 fxsend2 \$1;
#X msg 650 262 fxsend3 \$1;
#X msg 665 242 fxsend4 \$1;
#X msg 316 322 pitch \$1;
#X msg 270 385 center \$1;
#X msg 285 364 amount \$1;
#X msg 300 343 decay \$1;
#X msg 739 466 fbl \$1;
#X msg 739 486 fbr \$1;
#X msg 754 445 size \$1;
#X msg 785 404 freq \$1;
#X msg 800 383 rate \$1;
#X msg 815 363 q \$1;
#X msg 831 343 fil \$1;
#X msg 846 323 filter \$1;
#X msg 1040 514 rec1 bang;
#X msg 1061 494 rec2 bang;
#X msg 1082 474 rec3 bang;
#X msg 959 404 gate \$1;
#X text 965 263 bottom 4;
#X text 1115 283 top 9;
#X obj 921 333 t b;
#X obj 945 333 t b;
#X obj 970 333 t b;
#X obj 995 333 t b;
#X obj 921 363 f 0;
#X obj 945 363 f 1;
#X obj 970 363 f 2;
#X obj 995 363 f 3;
#X obj 1040 333 t b;
#X obj 1061 333 t b;
#X obj 1082 333 t b;
#X obj 1102 333 t b;
#X obj 1123 333 t b;
#X obj 1144 333 t b;
#X msg 1144 414 run3 bang;
#X msg 1123 434 run2 bang;
#X msg 1102 454 run1 bang;
#X obj 1164 333 t b;
#X obj 1185 333 t b;
#X obj 1206 333 t b;
#X obj 1020 333 t b;
#X msg 1164 397 mute1 bang;
#X msg 1185 377 mute2 bang;
#X msg 1206 357 mute3 bang;
#X msg 1020 534 mute4 bang;
#X text 924 195 Buttons;
#X text 589 92 Identify where the message came from;
#X text 589 113 add argument;
#X text 589 133 send to correct outlet;
#X text 362 82 [value \, number \, channel];
#X text 589 45 routing midi control change messages to different parts
of a bigger patch \, done for UC-33e;
#X msg 769 425 fil \$1;
#X obj 846 248 mid2dec;
#X obj 846 272 * 3;
#X obj 846 296 int;
#X connect 0 0 29 0;
#X connect 29 0 30 0;
#X connect 30 0 39 0;
#X connect 30 1 40 0;
#X connect 30 2 41 0;
#X connect 30 3 42 0;
#X connect 30 4 43 0;
#X connect 30 5 36 0;
#X connect 36 0 37 0;
#X connect 37 0 38 0;
#X connect 38 0 44 0;
#X connect 39 0 46 0;
#X connect 39 1 47 0;
#X connect 39 2 48 0;
#X connect 39 3 49 0;
#X connect 39 4 50 0;
#X connect 39 5 51 0;
#X connect 39 6 52 0;
#X connect 39 7 53 0;
#X connect 40 0 55 0;
#X connect 41 0 72 0;
#X connect 41 0 73 0;
#X connect 41 1 74 0;
#X connect 41 2 117 0;
#X connect 41 3 75 0;
#X connect 41 4 76 0;
#X connect 41 5 77 0;
#X connect 41 6 78 0;
#X connect 41 7 118 0;
#X connect 42 0 60 0;
#X connect 42 1 61 0;
#X connect 42 2 62 0;
#X connect 42 3 63 0;
#X connect 42 4 64 0;
#X connect 42 5 65 0;
#X connect 42 6 66 0;
#X connect 42 7 67 0;
#X connect 43 0 69 0;
#X connect 43 1 70 0;
#X connect 43 2 71 0;
#X connect 43 3 68 0;
#X connect 43 4 56 0;
#X connect 43 5 57 0;
#X connect 43 6 58 0;
#X connect 43 7 59 0;
#X connect 44 0 86 0;
#X connect 44 1 87 0;
#X connect 44 2 88 0;
#X connect 44 3 89 0;
#X connect 44 4 45 0;
#X connect 45 0 106 0;
#X connect 45 1 94 0;
#X connect 45 2 95 0;
#X connect 45 3 96 0;
#X connect 45 4 97 0;
#X connect 45 5 98 0;
#X connect 45 6 99 0;
#X connect 45 7 103 0;
#X connect 45 8 104 0;
#X connect 45 9 105 0;
#X connect 46 0 7 0;
#X connect 47 0 7 0;
#X connect 48 0 7 0;
#X connect 49 0 7 0;
#X connect 50 0 9 0;
#X connect 51 0 9 0;
#X connect 52 0 9 0;
#X connect 53 0 9 0;
#X connect 55 0 2 0;
#X connect 56 0 8 0;
#X connect 57 0 8 0;
#X connect 58 0 8 0;
#X connect 59 0 8 0;
#X connect 60 0 7 0;
#X connect 61 0 7 0;
#X connect 62 0 7 0;
#X connect 63 0 7 0;
#X connect 64 0 7 0;
#X connect 65 0 7 0;
#X connect 66 0 7 0;
#X connect 67 0 7 0;
#X connect 68 0 3 0;
#X connect 69 0 4 0;
#X connect 70 0 5 0;
#X connect 71 0 6 0;
#X connect 72 0 10 0;
#X connect 73 0 10 0;
#X connect 74 0 11 0;
#X connect 75 0 13 0;
#X connect 76 0 14 0;
#X connect 77 0 14 0;
#X connect 78 0 14 0;
#X connect 79 0 14 0;
#X connect 80 0 1 0;
#X connect 81 0 1 0;
#X connect 82 0 1 0;
#X connect 83 0 1 0;
#X connect 86 0 90 0;
#X connect 87 0 91 0;
#X connect 88 0 92 0;
#X connect 89 0 93 0;
#X connect 90 0 83 0;
#X connect 91 0 83 0;
#X connect 92 0 83 0;
#X connect 93 0 83 0;
#X connect 94 0 80 0;
#X connect 95 0 81 0;
#X connect 96 0 82 0;
#X connect 97 0 102 0;
#X connect 98 0 101 0;
#X connect 99 0 100 0;
#X connect 100 0 1 0;
#X connect 101 0 1 0;
#X connect 102 0 1 0;
#X connect 103 0 107 0;
#X connect 104 0 108 0;
#X connect 105 0 109 0;
#X connect 106 0 110 0;
#X connect 107 0 1 0;
#X connect 108 0 1 0;
#X connect 109 0 1 0;
#X connect 110 0 1 0;
#X connect 117 0 12 0;
#X connect 118 0 119 0;
#X connect 119 0 120 0;
#X connect 120 0 79 0;
#X restore 699 119 pd midirouterforthemainpatch;
#X connect 0 0 31 0;
#X connect 31 0 2 0;
#X connect 31 1 4 0;
#X connect 31 2 5 0;
#X connect 31 3 6 0;
#X connect 31 4 3 0;
#X connect 31 5 7 0;
#X connect 31 6 8 0;
#X connect 31 7 9 0;
#X connect 31 8 10 0;
#X connect 31 9 11 0;
#X connect 31 10 12 0;
#X connect 31 11 13 0;
#X connect 31 12 14 0;
#X connect 31 13 1 0;
#X connect 32 0 35 0;
#X connect 35 0 2 0;
#X connect 35 1 4 0;
#X connect 35 2 5 0;
#X connect 35 3 6 0;
#X connect 35 4 3 0;
#X connect 35 5 7 0;
#X connect 35 6 8 0;
#X connect 35 7 9 0;
#X connect 35 8 10 0;
#X connect 35 9 11 0;
#X connect 35 10 12 0;
#X connect 35 11 13 0;
#X connect 35 12 14 0;
#X connect 35 13 1 0;
#X connect 36 0 39 0;
#X connect 39 0 2 0;
#X connect 39 1 4 0;
#X connect 39 2 5 0;
#X connect 39 3 6 0;
#X connect 39 4 3 0;
#X connect 39 5 7 0;
#X connect 39 6 8 0;
#X connect 39 7 9 0;
#X connect 39 8 10 0;
#X connect 39 9 11 0;
#X connect 39 10 12 0;
#X connect 39 11 13 0;
#X connect 39 12 14 0;
#X connect 39 13 1 0;
