#N canvas 518 39 545 332 10;
#X obj 150 78 max 2;
#X obj 150 100 mid2dec;
#X obj 150 175 *;
#X obj 165 128 traninfo;
#X obj 195 158 t b f;
#X obj 240 78 max 2;
#X obj 240 100 mid2dec;
#X obj 240 175 *;
#X obj 255 128 traninfo;
#X obj 285 158 t b f;
#X obj 390 78 max 2;
#X obj 390 100 mid2dec;
#X obj 390 175 *;
#X obj 405 128 traninfo;
#X obj 435 158 t b f;
#X obj 330 100 mid2dec;
#X obj 330 175 * 100;
#X obj 150 48 inlet;
#X obj 240 48 inlet;
#X obj 330 48 inlet;
#X obj 390 48 inlet;
#X obj 70 48 inlet;
#X obj 110 48 inlet;
#X obj 70 242 adsr~ \$1 \$2 \$3 \$4 \$5;
#X obj 70 273 outlet~;
#X obj 93 100 mid2dec;
#X connect 0 0 1 0;
#X connect 1 0 2 0;
#X connect 2 0 23 2;
#X connect 3 2 4 0;
#X connect 4 0 2 0;
#X connect 4 1 2 1;
#X connect 5 0 6 0;
#X connect 6 0 7 0;
#X connect 7 0 23 3;
#X connect 8 2 9 0;
#X connect 9 0 7 0;
#X connect 9 1 7 1;
#X connect 10 0 11 0;
#X connect 11 0 12 0;
#X connect 12 0 23 5;
#X connect 13 2 14 0;
#X connect 14 0 12 0;
#X connect 14 1 12 1;
#X connect 15 0 16 0;
#X connect 16 0 23 4;
#X connect 17 0 0 0;
#X connect 18 0 5 0;
#X connect 19 0 15 0;
#X connect 20 0 10 0;
#X connect 21 0 23 0;
#X connect 22 0 25 0;
#X connect 23 0 24 0;
#X connect 25 0 23 1;
