#N canvas 809 22 449 616 10;
#X obj 173 35 inlet~;
#X obj 98 512 outlet~;
#X obj 28 331 *~;
#X obj 98 443 osc~;
#X obj 43 309 sig~;
#X obj 98 418 +~;
#X obj 173 401 *~;
#X obj 173 120 *~;
#X text 171 18 Modulator;
#X text 186 56 Index;
#X obj 28 166 mid2dec;
#X obj 28 189 * 23;
#X obj 28 213 + 1;
#X obj 28 236 int;
#X obj 28 260 sig~;
#X obj 216 239 mid2dec;
#X obj 216 304 *;
#X obj 254 287 t b f;
#X obj 224 262 traninfo;
#X obj 291 263 mid2dec;
#X obj 291 310 *;
#X obj 188 327 ead~ 2 400;
#X obj 188 378 *~ 1;
#X obj 188 97 mtof~;
#X obj 188 74 r \$2-fm8_op\$1_index;
#X obj 28 144 r \$2-fm8_op\$1_ratio;
#X obj 43 285 r \$2-fm8_fundamental;
#X obj 209 351 r \$2-fm8_velocity;
#X obj 216 192 r \$2-fm8_op\$1_attack;
#X obj 291 214 r \$2-fm8_op\$1_decay;
#X obj 188 143 r \$2-fm8_trigger;
#X obj 188 165 sel 1;
#X obj 238 411 mid2dec;
#X obj 28 401 +~;
#X obj 238 389 r \$2-fm8_op\$1_fb;
#X obj 202 485 s~ \$0-fm8_op_fb~;
#X obj 43 378 r~ \$0-fm8_op_fb~;
#X obj 202 460 *~;
#X obj 217 434 *~ 0;
#X obj 216 214 max 2;
#X obj 291 237 max 2;
#X obj 98 482 hip~ 5;
#X connect 0 0 7 0;
#X connect 2 0 33 0;
#X connect 2 0 38 0;
#X connect 3 0 37 0;
#X connect 3 0 41 0;
#X connect 4 0 2 1;
#X connect 5 0 3 0;
#X connect 6 0 5 1;
#X connect 7 0 6 0;
#X connect 10 0 11 0;
#X connect 11 0 12 0;
#X connect 12 0 13 0;
#X connect 13 0 14 0;
#X connect 14 0 2 0;
#X connect 15 0 16 0;
#X connect 16 0 21 1;
#X connect 17 0 16 0;
#X connect 17 0 20 0;
#X connect 17 1 16 1;
#X connect 17 1 20 1;
#X connect 18 2 17 0;
#X connect 19 0 20 0;
#X connect 20 0 21 2;
#X connect 21 0 22 0;
#X connect 22 0 6 1;
#X connect 23 0 7 1;
#X connect 24 0 23 0;
#X connect 25 0 10 0;
#X connect 26 0 4 0;
#X connect 27 0 22 1;
#X connect 28 0 39 0;
#X connect 29 0 40 0;
#X connect 30 0 31 0;
#X connect 31 0 21 0;
#X connect 32 0 38 1;
#X connect 33 0 5 0;
#X connect 34 0 32 0;
#X connect 36 0 33 1;
#X connect 37 0 35 0;
#X connect 38 0 37 1;
#X connect 39 0 15 0;
#X connect 40 0 19 0;
#X connect 41 0 1 0;
