#N canvas 241 22 684 539 10;
#X obj 100 169 pack f f f;
#X obj 100 53 inlet;
#X text 99 34 MidiIn;
#X obj 43 392 outlet~;
#X obj 428 64 knob 32 32 0 127 0 0 \$0-fmpoly_attack \$0-fmpoly_attack_set
att 7 -8 192 8 -262144 -1 -1 1172 1;
#X obj 468 64 knob 32 32 0 127 0 0 \$0-fmpoly_decay \$0-fmpoly_decay_set
dcy 7 -8 192 8 -262144 -1 -1 1562 1;
#X obj 508 64 knob 32 32 0 127 0 0 \$0-fmpoly_sustain \$0-fmpoly_sustain_set
sus 7 -8 192 8 -262144 -1 -1 1562 1;
#X obj 548 64 knob 32 32 0 127 0 0 \$0-fmpoly_release \$0-fmpoly_release_set
rel 7 -8 192 8 -262144 -1 -1 1172 1;
#X obj 338 64 knob 32 32 0 127 0 0 \$0-fmpoly_center \$0-fmpoly_center_set
center 2 -8 192 8 -262144 -1 -1 781 1;
#X obj 378 64 knob 32 32 0 127 0 0 \$0-fmpoly_index \$0-fmpoly_index_set
index 3 -8 192 8 -262144 -1 -1 1562 1;
#X obj 270 83 inlet;
#X obj 270 119 route center index attack decay sustain release;
#X obj 270 248 s \$0-fmpoly_center_set;
#X obj 316 228 s \$0-fmpoly_index_set;
#X obj 363 208 s \$0-fmpoly_attack_set;
#X obj 409 187 s \$0-fmpoly_decay_set;
#X obj 456 165 s \$0-fmpoly_sustain_set;
#X obj 502 144 s \$0-fmpoly_release_set;
#N canvas 475 39 483 581 presets 0;
#X obj 131 103 prepend;
#X obj 170 471 prepend \$0;
#X obj 48 220 t b b b;
#X obj 42 267 1-0;
#X obj 42 293 + 1;
#X obj 125 500 + 1;
#X obj 170 183 pack;
#X obj 170 156 f 0;
#X obj 131 130 t b b l;
#X obj 125 376 gate 2 2;
#X obj 48 193 inlet;
#X obj 67 293 f 0;
#X text 219 79 add 1 to it;
#X text 221 60 get the amount of presets stored;
#X text 220 98 prepend this to new preset;
#X text 216 119 store preset;
#X text 217 139 update the amount of presets;
#X msg 265 269 0 0;
#X msg 285 291 clear;
#X obj 246 227 bng 15 250 50 0 empty empty empty 17 7 0 10 -262144
-1 -1;
#X text 264 226 master reset (DONT TOUCH);
#X text 27 170 bang to save;
#X obj 170 500 outlet;
#X obj 246 247 t b b b;
#X obj 170 399 iter;
#X obj 170 423 int;
#X obj 152 48 t b f f;
#X obj 110 198 inlet;
#X obj 110 222 int;
#N canvas 465 229 315 294 param 0;
#X obj 33 173 f;
#X obj 61 240 outlet;
#X obj 33 35 inlet;
#X obj 48 78 r \$0-fmpoly_center;
#X obj 79 98 r \$0-fmpoly_index;
#X obj 98 118 r \$0-fmpoly_attack;
#X obj 116 137 r \$0-fmpoly_decay;
#X obj 135 158 r \$0-fmpoly_sustain;
#X obj 154 178 r \$0-fmpoly_release;
#X obj 61 205 pack f f f f f f;
#X connect 0 0 9 0;
#X connect 2 0 0 0;
#X connect 3 0 0 1;
#X connect 4 0 9 1;
#X connect 5 0 9 2;
#X connect 6 0 9 3;
#X connect 7 0 9 4;
#X connect 8 0 9 5;
#X connect 9 0 1 0;
#X restore 131 77 pd param;
#X text 108 173 recall;
#X msg 246 316 write polyfm~_presets.txt;
#X obj 170 353 coll polyfm~_presets.txt;
#C restore;
#X obj 152 25 r \$0-polyfm_preset_count;
#X obj 125 523 s \$0-polyfm_preset_count;
#X obj 170 447 zl group 6;
#X connect 0 0 8 0;
#X connect 1 0 22 0;
#X connect 2 0 3 0;
#X connect 2 1 11 0;
#X connect 2 2 3 1;
#X connect 3 0 4 0;
#X connect 4 0 9 0;
#X connect 5 0 34 0;
#X connect 6 0 32 0;
#X connect 7 0 6 0;
#X connect 8 0 31 0;
#X connect 8 1 7 0;
#X connect 8 2 32 0;
#X connect 9 0 5 0;
#X connect 9 1 24 0;
#X connect 10 0 2 0;
#X connect 11 0 32 0;
#X connect 17 0 32 0;
#X connect 18 0 32 0;
#X connect 19 0 23 0;
#X connect 23 0 31 0;
#X connect 23 1 17 0;
#X connect 23 2 18 0;
#X connect 24 0 25 0;
#X connect 25 0 35 0;
#X connect 26 0 29 0;
#X connect 26 1 0 1;
#X connect 26 2 6 1;
#X connect 27 0 28 0;
#X connect 28 0 32 0;
#X connect 29 0 0 0;
#X connect 31 0 32 0;
#X connect 32 0 9 1;
#X connect 33 0 26 0;
#X connect 35 0 1 0;
#X restore 450 373 pd presets;
#X obj 574 37 bng 10 250 50 0 \$0-fmpoly_save \$0-fmpoly_save_set empty
17 7 0 10 -258113 -1 -1;
#X obj 427 37 hsl 128 10 0 127 0 0 \$0-fmpoly_recall \$0-fmpoly_recall_set
empty -2 -8 0 10 -262144 -1 -1 0 1;
#X obj 450 327 r \$0-fmpoly_save;
#X msg 270 408 \; \$1-fmpoly_center_set \$2 \; \$1-fmpoly_index_set
\$3 \; \$1-fmpoly_attack_set \$4 \; \$1-fmpoly_decay_set \$5 \; \$1-fmpoly_sustain_set
\$6 \; \$1-fmpoly_release_set \$7 \;;
#N canvas 635 350 450 300 random 0;
#X obj 158 167 f \$0;
#X obj 119 105 random 128;
#X obj 119 190 prepend;
#X obj 119 150 t l b;
#X obj 119 83 until;
#X obj 119 39 inlet;
#X obj 119 216 outlet;
#X text 147 61 number of parameters;
#X text 158 82 keep banging;
#X text 189 104 random;
#X text 194 127 create list;
#X text 190 167 patch ID;
#X msg 119 61 6;
#X obj 119 127 zl group 6;
#X connect 0 0 2 1;
#X connect 1 0 13 0;
#X connect 2 0 6 0;
#X connect 3 0 2 0;
#X connect 3 1 0 0;
#X connect 4 0 1 0;
#X connect 5 0 12 0;
#X connect 12 0 4 0;
#X connect 13 0 3 0;
#X restore 386 374 pd random;
#X obj 561 37 bng 10 250 50 0 \$0-fmpoly_random \$0-fmpoly_random_set
empty 17 7 0 10 -260097 -1 -1;
#X obj 386 304 r \$0-fmpoly_random;
#X text 259 64 Parameters;
#X msg 270 327 32 64 48 64 64 48;
#X obj 270 374 prepend \$0;
#X obj 270 304 loadbang;
#X obj 100 79 unpack;
#X obj 100 196 route 1 2 3 4 5 6;
#X obj 43 229 fmpoly~ \$0;
#X obj 43 309 fmpoly~ \$0;
#X obj 43 249 fmpoly~ \$0;
#X obj 43 329 fmpoly~ \$0;
#X obj 43 269 fmpoly~ \$0;
#X obj 43 289 fmpoly~ \$0;
#X obj 100 143 poly 6;
#X obj 100 104 flush;
#X obj 404 35 bng 15 250 50 0 empty empty empty 17 7 0 10 -262144 -1
-1;
#X connect 0 0 31 0;
#X connect 1 0 30 0;
#X connect 10 0 11 0;
#X connect 11 0 12 0;
#X connect 11 1 13 0;
#X connect 11 2 14 0;
#X connect 11 3 15 0;
#X connect 11 4 16 0;
#X connect 11 5 17 0;
#X connect 18 0 22 0;
#X connect 21 0 18 0;
#X connect 23 0 22 0;
#X connect 25 0 23 0;
#X connect 27 0 28 0;
#X connect 28 0 22 0;
#X connect 29 0 27 0;
#X connect 30 0 39 0;
#X connect 30 1 39 1;
#X connect 31 0 32 1;
#X connect 31 1 34 1;
#X connect 31 2 36 1;
#X connect 31 3 37 1;
#X connect 31 4 33 1;
#X connect 31 5 35 1;
#X connect 32 0 34 0;
#X connect 33 0 35 0;
#X connect 34 0 36 0;
#X connect 35 0 3 0;
#X connect 36 0 37 0;
#X connect 37 0 33 0;
#X connect 38 0 0 0;
#X connect 38 1 0 1;
#X connect 38 2 0 2;
#X connect 39 0 38 0;
#X connect 39 1 38 1;
#X connect 40 0 39 0;
#X coords 0 -1 1 1 260 75 1 330 30;
