#N canvas 350 22 499 487 10;
#X obj 204 142 + \$2;
#X obj 44 186 tabread \$1-step_sequencer;
#X obj 44 216 sel 1;
#X obj 44 278 f;
#X obj 204 53 inlet;
#X obj 44 358 pack f f f;
#X obj 59 246 r \$1-step_pit;
#X obj 72 306 r \$1-step_vel;
#X obj 101 326 r \$1-step_dur;
#X obj 267 281 until;
#X obj 267 303 f;
#X obj 306 303 + 1;
#X obj 352 305 sel 0;
#X obj 306 325 mod 16;
#X obj 267 325 + \$2;
#X obj 267 355 t b f;
#X obj 44 398 outlet;
#X obj 265 53 inlet;
#X msg 265 208 \; \$1-stepseq_step\$2_set 1 \;;
#X obj 265 186 pack;
#X obj 265 156 f \$1;
#X obj 204 169 t f f;
#X text 202 37 read;
#X text 262 37 set;
#X obj 265 108 > 0;
#X obj 265 132 sel 1;
#X obj 265 84 route \$4;
#X text 176 15 [ID \, Offset \, Track \, Midiin];
#X obj 267 254 r \$1-track_\$3_clear;
#X msg 267 428 \; \$1-stepseq_step\$2_set 0 \;;
#X obj 267 380 f \$1;
#X obj 267 404 pack;
#X connect 0 0 21 0;
#X connect 1 0 2 0;
#X connect 2 0 3 0;
#X connect 3 0 5 0;
#X connect 4 0 0 0;
#X connect 5 0 16 0;
#X connect 6 0 3 1;
#X connect 7 0 5 1;
#X connect 8 0 5 2;
#X connect 9 0 10 0;
#X connect 10 0 11 0;
#X connect 10 0 14 0;
#X connect 11 0 13 0;
#X connect 12 0 9 1;
#X connect 13 0 10 1;
#X connect 13 0 12 0;
#X connect 14 0 15 0;
#X connect 15 0 30 0;
#X connect 15 1 31 1;
#X connect 17 0 26 0;
#X connect 19 0 18 0;
#X connect 20 0 19 0;
#X connect 21 0 1 0;
#X connect 21 1 19 1;
#X connect 24 0 25 0;
#X connect 25 0 20 0;
#X connect 26 0 24 0;
#X connect 28 0 9 0;
#X connect 30 0 31 0;
#X connect 31 0 29 0;
