#N canvas 476 129 352 160 10;
#X obj 107 45 unpack f f f f f f;
#X obj 41 101 outlet;
#X obj 88 101 outlet;
#X obj 135 101 outlet;
#X obj 182 101 outlet;
#X obj 229 101 outlet;
#X obj 276 101 outlet;
#X obj 107 24 r [dp]_pos;
#X obj 276 78 change;
#X obj 229 78 change;
#X obj 182 78 change;
#X obj 135 78 change;
#X obj 88 78 change;
#X obj 41 78 change;
#X connect 0 0 13 0;
#X connect 0 1 12 0;
#X connect 0 2 11 0;
#X connect 0 3 10 0;
#X connect 0 4 9 0;
#X connect 0 5 8 0;
#X connect 7 0 0 0;
#X connect 8 0 6 0;
#X connect 9 0 5 0;
#X connect 10 0 4 0;
#X connect 11 0 3 0;
#X connect 12 0 2 0;
#X connect 13 0 1 0;
