#N canvas 451 22 426 513 10;
#X obj 73 72 inlet;
#X obj 73 286 random;
#X obj 191 70 inlet;
#X obj 313 70 inlet;
#X obj 191 117 * 0.01;
#X obj 191 216 * 0.5;
#X obj 106 253 * 2;
#X obj 176 347 -;
#X obj 298 393 +;
#X obj 328 98 t b;
#X floatatom 313 124 5 0 0 0 - - -;
#X floatatom 191 180 5 0 0 0 - - -;
#X obj 202 155 t b;
#X floatatom 73 312 5 0 0 0 - - -;
#X obj 298 422 outlet;
#X text 146 44 added or subtracted;
#X text 146 32 Percent (0-100) to be;
#X text 299 31 Value to be;
#X text 300 43 randomized;
#X text 65 34 Bang out;
#X text 65 46 new value;
#X text 295 443 Output;
#X text 41 407 Taken from Composing Interactive Music;
#X text 41 422 by Todd Winkler;
#X text 41 437 Page 213;
#X text 41 479 Randomize a stream of numbers by a percentage;
#X connect 0 0 1 0;
#X connect 1 0 13 0;
#X connect 2 0 4 0;
#X connect 2 0 9 0;
#X connect 3 0 10 0;
#X connect 4 0 11 0;
#X connect 5 0 6 0;
#X connect 5 0 7 1;
#X connect 6 0 1 1;
#X connect 7 0 8 0;
#X connect 8 0 14 0;
#X connect 9 0 10 0;
#X connect 10 0 12 0;
#X connect 10 0 5 1;
#X connect 10 0 8 1;
#X connect 11 0 5 0;
#X connect 12 0 11 0;
#X connect 13 0 7 0;
