#N canvas 404 218 245 260 10;
#X obj 41 34 inlet;
#X obj 126 34 inlet;
#X obj 41 208 outlet;
#X obj 126 167 int;
#X obj 41 184 < \$1;
#X obj 141 101 / 127;
#X obj 141 80 int 1;
#X obj 141 59 loadbang;
#X obj 126 123 * 1;
#X obj 41 143 random 1000;
#X obj 126 143 * 1000;
#X connect 0 0 9 0;
#X connect 1 0 8 0;
#X connect 3 0 4 1;
#X connect 4 0 2 0;
#X connect 5 0 8 1;
#X connect 6 0 5 0;
#X connect 7 0 6 0;
#X connect 8 0 10 0;
#X connect 9 0 4 0;
#X connect 10 0 3 0;
