{
	"patcher" : 	{
		"fileversion" : 1,
		"rect" : [ 87.0, 90.0, 804.0, 635.0 ],
		"bglocked" : 0,
		"defrect" : [ 87.0, 90.0, 804.0, 635.0 ],
		"openrect" : [ 0.0, 0.0, 0.0, 0.0 ],
		"openinpresentation" : 0,
		"default_fontsize" : 10.0,
		"default_fontface" : 0,
		"default_fontname" : "Arial",
		"gridonopen" : 0,
		"gridsize" : [ 15.0, 15.0 ],
		"gridsnaponopen" : 0,
		"toolbarvisible" : 1,
		"boxanimatetime" : 200,
		"imprint" : 0,
		"metadata" : [  ],
		"boxes" : [ 			{
				"box" : 				{
					"maxclass" : "ezdac~",
					"id" : "obj-5",
					"numinlets" : 2,
					"numoutlets" : 0,
					"patching_rect" : [ 135.0, 240.0, 45.0, 45.0 ]
				}

			}
, 			{
				"box" : 				{
					"maxclass" : "message",
					"text" : "open",
					"id" : "obj-4",
					"fontname" : "Arial",
					"numinlets" : 2,
					"numoutlets" : 1,
					"fontsize" : 10.0,
					"patching_rect" : [ 165.0, 180.0, 33.0, 16.0 ],
					"outlettype" : [ "" ]
				}

			}
, 			{
				"box" : 				{
					"maxclass" : "newobj",
					"text" : "p drums",
					"id" : "obj-2",
					"fontname" : "Arial",
					"numinlets" : 2,
					"numoutlets" : 1,
					"fontsize" : 10.0,
					"patching_rect" : [ 135.0, 210.0, 49.0, 18.0 ],
					"outlettype" : [ "signal" ],
					"patcher" : 					{
						"fileversion" : 1,
						"rect" : [ 49.0, 44.0, 1231.0, 730.0 ],
						"bglocked" : 0,
						"defrect" : [ 49.0, 44.0, 1231.0, 730.0 ],
						"openrect" : [ 0.0, 0.0, 0.0, 0.0 ],
						"openinpresentation" : 0,
						"default_fontsize" : 12.0,
						"default_fontface" : 0,
						"default_fontname" : "Arial",
						"gridonopen" : 0,
						"gridsize" : [ 15.0, 15.0 ],
						"gridsnaponopen" : 0,
						"toolbarvisible" : 1,
						"boxanimatetime" : 200,
						"imprint" : 0,
						"metadata" : [  ],
						"boxes" : [ 							{
								"box" : 								{
									"maxclass" : "message",
									"text" : "1",
									"id" : "obj-2",
									"fontname" : "Arial",
									"numinlets" : 2,
									"numoutlets" : 1,
									"fontsize" : 12.0,
									"patching_rect" : [ 492.0, 602.0, 32.5, 18.0 ],
									"outlettype" : [ "" ]
								}

							}
, 							{
								"box" : 								{
									"maxclass" : "outlet",
									"id" : "obj-143",
									"numinlets" : 1,
									"numoutlets" : 0,
									"patching_rect" : [ 315.0, 675.0, 25.0, 25.0 ],
									"comment" : "signal"
								}

							}
, 							{
								"box" : 								{
									"maxclass" : "inlet",
									"id" : "obj-141",
									"numinlets" : 0,
									"numoutlets" : 1,
									"patching_rect" : [ 30.0, 375.0, 25.0, 25.0 ],
									"outlettype" : [ "bang" ],
									"comment" : "on/off(toggle)"
								}

							}
, 							{
								"box" : 								{
									"maxclass" : "inlet",
									"id" : "obj-140",
									"numinlets" : 0,
									"numoutlets" : 1,
									"patching_rect" : [ 435.0, 15.0, 25.0, 25.0 ],
									"outlettype" : [ "" ],
									"comment" : "open(mes)"
								}

							}
, 							{
								"box" : 								{
									"maxclass" : "comment",
									"text" : "Best on one bar loops at 1/4 Tempo",
									"linecount" : 2,
									"id" : "obj-137",
									"fontname" : "Arial",
									"numinlets" : 1,
									"numoutlets" : 0,
									"fontsize" : 12.0,
									"patching_rect" : [ 30.0, 60.0, 119.0, 34.0 ]
								}

							}
, 							{
								"box" : 								{
									"maxclass" : "comment",
									"text" : "Find an 1/8 of loop",
									"id" : "obj-133",
									"fontname" : "Arial",
									"numinlets" : 1,
									"numoutlets" : 0,
									"fontsize" : 12.0,
									"patching_rect" : [ 210.0, 135.0, 113.0, 20.0 ]
								}

							}
, 							{
								"box" : 								{
									"maxclass" : "message",
									"text" : "2",
									"id" : "obj-125",
									"fontname" : "Arial",
									"numinlets" : 2,
									"numoutlets" : 1,
									"fontsize" : 12.0,
									"patching_rect" : [ 30.0, 585.0, 50.0, 18.0 ],
									"outlettype" : [ "" ]
								}

							}
, 							{
								"box" : 								{
									"maxclass" : "button",
									"id" : "obj-126",
									"numinlets" : 1,
									"numoutlets" : 1,
									"patching_rect" : [ 30.0, 465.0, 20.0, 20.0 ],
									"outlettype" : [ "bang" ]
								}

							}
, 							{
								"box" : 								{
									"maxclass" : "number",
									"id" : "obj-127",
									"fontname" : "Arial",
									"numinlets" : 1,
									"numoutlets" : 2,
									"fontsize" : 12.0,
									"patching_rect" : [ 30.0, 555.0, 50.0, 20.0 ],
									"outlettype" : [ "int", "bang" ]
								}

							}
, 							{
								"box" : 								{
									"maxclass" : "newobj",
									"text" : "+ 1",
									"id" : "obj-128",
									"fontname" : "Arial",
									"numinlets" : 2,
									"numoutlets" : 1,
									"fontsize" : 12.0,
									"patching_rect" : [ 30.0, 525.0, 32.5, 20.0 ],
									"outlettype" : [ "int" ]
								}

							}
, 							{
								"box" : 								{
									"maxclass" : "newobj",
									"text" : "random 7",
									"id" : "obj-129",
									"fontname" : "Arial",
									"numinlets" : 2,
									"numoutlets" : 1,
									"fontsize" : 12.0,
									"patching_rect" : [ 30.0, 495.0, 61.0, 20.0 ],
									"outlettype" : [ "int" ]
								}

							}
, 							{
								"box" : 								{
									"maxclass" : "newobj",
									"text" : "sfplay~",
									"id" : "obj-120",
									"fontname" : "Arial",
									"numinlets" : 2,
									"numoutlets" : 2,
									"fontsize" : 12.0,
									"patching_rect" : [ 294.0, 636.0, 49.0, 20.0 ],
									"outlettype" : [ "signal", "bang" ],
									"save" : [ "#N", "sfplay~", "", 1, 120960, 0, "", ";" ]
								}

							}
, 							{
								"box" : 								{
									"maxclass" : "button",
									"id" : "obj-119",
									"numinlets" : 1,
									"numoutlets" : 1,
									"patching_rect" : [ 150.0, 195.0, 20.0, 20.0 ],
									"outlettype" : [ "bang" ]
								}

							}
, 							{
								"box" : 								{
									"maxclass" : "newobj",
									"text" : "prepend preload 8",
									"id" : "obj-116",
									"fontname" : "Arial",
									"numinlets" : 1,
									"numoutlets" : 1,
									"fontsize" : 12.0,
									"patching_rect" : [ 180.0, 555.0, 108.0, 20.0 ],
									"outlettype" : [ "" ]
								}

							}
, 							{
								"box" : 								{
									"maxclass" : "message",
									"text" : "preload 8 3281.25",
									"id" : "obj-117",
									"fontname" : "Arial",
									"numinlets" : 2,
									"numoutlets" : 1,
									"fontsize" : 12.0,
									"patching_rect" : [ 150.0, 585.0, 132.0, 18.0 ],
									"outlettype" : [ "" ]
								}

							}
, 							{
								"box" : 								{
									"maxclass" : "newobj",
									"text" : "prepend preload 7",
									"id" : "obj-114",
									"fontname" : "Arial",
									"numinlets" : 1,
									"numoutlets" : 1,
									"fontsize" : 12.0,
									"patching_rect" : [ 180.0, 495.0, 108.0, 20.0 ],
									"outlettype" : [ "" ]
								}

							}
, 							{
								"box" : 								{
									"maxclass" : "message",
									"text" : "preload 7 2812.5",
									"id" : "obj-115",
									"fontname" : "Arial",
									"numinlets" : 2,
									"numoutlets" : 1,
									"fontsize" : 12.0,
									"patching_rect" : [ 150.0, 525.0, 132.0, 18.0 ],
									"outlettype" : [ "" ]
								}

							}
, 							{
								"box" : 								{
									"maxclass" : "newobj",
									"text" : "prepend preload 6",
									"id" : "obj-112",
									"fontname" : "Arial",
									"numinlets" : 1,
									"numoutlets" : 1,
									"fontsize" : 12.0,
									"patching_rect" : [ 180.0, 435.0, 108.0, 20.0 ],
									"outlettype" : [ "" ]
								}

							}
, 							{
								"box" : 								{
									"maxclass" : "message",
									"text" : "preload 6 2343.75",
									"id" : "obj-113",
									"fontname" : "Arial",
									"numinlets" : 2,
									"numoutlets" : 1,
									"fontsize" : 12.0,
									"patching_rect" : [ 150.0, 465.0, 132.0, 18.0 ],
									"outlettype" : [ "" ]
								}

							}
, 							{
								"box" : 								{
									"maxclass" : "newobj",
									"text" : "prepend preload 5",
									"id" : "obj-110",
									"fontname" : "Arial",
									"numinlets" : 1,
									"numoutlets" : 1,
									"fontsize" : 12.0,
									"patching_rect" : [ 180.0, 375.0, 108.0, 20.0 ],
									"outlettype" : [ "" ]
								}

							}
, 							{
								"box" : 								{
									"maxclass" : "message",
									"text" : "preload 5 1875.",
									"id" : "obj-111",
									"fontname" : "Arial",
									"numinlets" : 2,
									"numoutlets" : 1,
									"fontsize" : 12.0,
									"patching_rect" : [ 150.0, 405.0, 132.0, 18.0 ],
									"outlettype" : [ "" ]
								}

							}
, 							{
								"box" : 								{
									"maxclass" : "newobj",
									"text" : "prepend preload 4",
									"id" : "obj-108",
									"fontname" : "Arial",
									"numinlets" : 1,
									"numoutlets" : 1,
									"fontsize" : 12.0,
									"patching_rect" : [ 180.0, 315.0, 108.0, 20.0 ],
									"outlettype" : [ "" ]
								}

							}
, 							{
								"box" : 								{
									"maxclass" : "message",
									"text" : "preload 4 1406.25",
									"id" : "obj-109",
									"fontname" : "Arial",
									"numinlets" : 2,
									"numoutlets" : 1,
									"fontsize" : 12.0,
									"patching_rect" : [ 150.0, 345.0, 132.0, 18.0 ],
									"outlettype" : [ "" ]
								}

							}
, 							{
								"box" : 								{
									"maxclass" : "newobj",
									"text" : "prepend preload 3",
									"id" : "obj-106",
									"fontname" : "Arial",
									"numinlets" : 1,
									"numoutlets" : 1,
									"fontsize" : 12.0,
									"patching_rect" : [ 180.0, 255.0, 108.0, 20.0 ],
									"outlettype" : [ "" ]
								}

							}
, 							{
								"box" : 								{
									"maxclass" : "message",
									"text" : "preload 3 937.5",
									"id" : "obj-107",
									"fontname" : "Arial",
									"numinlets" : 2,
									"numoutlets" : 1,
									"fontsize" : 12.0,
									"patching_rect" : [ 150.0, 285.0, 132.0, 18.0 ],
									"outlettype" : [ "" ]
								}

							}
, 							{
								"box" : 								{
									"maxclass" : "newobj",
									"text" : "prepend preload 2",
									"id" : "obj-105",
									"fontname" : "Arial",
									"numinlets" : 1,
									"numoutlets" : 1,
									"fontsize" : 12.0,
									"patching_rect" : [ 180.0, 195.0, 108.0, 20.0 ],
									"outlettype" : [ "" ]
								}

							}
, 							{
								"box" : 								{
									"maxclass" : "message",
									"text" : "preload 2 468.75",
									"id" : "obj-104",
									"fontname" : "Arial",
									"numinlets" : 2,
									"numoutlets" : 1,
									"fontsize" : 12.0,
									"patching_rect" : [ 150.0, 225.0, 132.0, 18.0 ],
									"outlettype" : [ "" ]
								}

							}
, 							{
								"box" : 								{
									"maxclass" : "flonum",
									"id" : "obj-102",
									"fontname" : "Arial",
									"numinlets" : 1,
									"numoutlets" : 2,
									"fontsize" : 12.0,
									"patching_rect" : [ 330.0, 525.0, 94.0, 20.0 ],
									"outlettype" : [ "float", "bang" ]
								}

							}
, 							{
								"box" : 								{
									"maxclass" : "flonum",
									"id" : "obj-100",
									"fontname" : "Arial",
									"numinlets" : 1,
									"numoutlets" : 2,
									"fontsize" : 12.0,
									"patching_rect" : [ 330.0, 465.0, 93.0, 20.0 ],
									"outlettype" : [ "float", "bang" ]
								}

							}
, 							{
								"box" : 								{
									"maxclass" : "flonum",
									"id" : "obj-98",
									"fontname" : "Arial",
									"numinlets" : 1,
									"numoutlets" : 2,
									"fontsize" : 12.0,
									"patching_rect" : [ 330.0, 405.0, 92.0, 20.0 ],
									"outlettype" : [ "float", "bang" ]
								}

							}
, 							{
								"box" : 								{
									"maxclass" : "flonum",
									"id" : "obj-96",
									"fontname" : "Arial",
									"numinlets" : 1,
									"numoutlets" : 2,
									"fontsize" : 12.0,
									"patching_rect" : [ 330.0, 345.0, 93.0, 20.0 ],
									"outlettype" : [ "float", "bang" ]
								}

							}
, 							{
								"box" : 								{
									"maxclass" : "newobj",
									"text" : "expr $f1+$f2",
									"id" : "obj-91",
									"fontname" : "Arial",
									"numinlets" : 2,
									"numoutlets" : 1,
									"fontsize" : 12.0,
									"patching_rect" : [ 330.0, 495.0, 78.0, 20.0 ],
									"outlettype" : [ "" ]
								}

							}
, 							{
								"box" : 								{
									"maxclass" : "newobj",
									"text" : "expr $f1+$f2",
									"id" : "obj-90",
									"fontname" : "Arial",
									"numinlets" : 2,
									"numoutlets" : 1,
									"fontsize" : 12.0,
									"patching_rect" : [ 330.0, 435.0, 78.0, 20.0 ],
									"outlettype" : [ "" ]
								}

							}
, 							{
								"box" : 								{
									"maxclass" : "newobj",
									"text" : "expr $f1+$f2",
									"id" : "obj-89",
									"fontname" : "Arial",
									"numinlets" : 2,
									"numoutlets" : 1,
									"fontsize" : 12.0,
									"patching_rect" : [ 330.0, 375.0, 78.0, 20.0 ],
									"outlettype" : [ "" ]
								}

							}
, 							{
								"box" : 								{
									"maxclass" : "flonum",
									"id" : "obj-88",
									"fontname" : "Arial",
									"numinlets" : 1,
									"numoutlets" : 2,
									"fontsize" : 12.0,
									"patching_rect" : [ 330.0, 285.0, 93.0, 20.0 ],
									"outlettype" : [ "float", "bang" ]
								}

							}
, 							{
								"box" : 								{
									"maxclass" : "newobj",
									"text" : "expr $f1+$f2",
									"id" : "obj-86",
									"fontname" : "Arial",
									"numinlets" : 2,
									"numoutlets" : 1,
									"fontsize" : 12.0,
									"patching_rect" : [ 330.0, 315.0, 78.0, 20.0 ],
									"outlettype" : [ "" ]
								}

							}
, 							{
								"box" : 								{
									"maxclass" : "newobj",
									"text" : "expr $f1+$f2",
									"id" : "obj-85",
									"fontname" : "Arial",
									"numinlets" : 2,
									"numoutlets" : 1,
									"fontsize" : 12.0,
									"patching_rect" : [ 330.0, 255.0, 78.0, 20.0 ],
									"outlettype" : [ "" ]
								}

							}
, 							{
								"box" : 								{
									"maxclass" : "flonum",
									"id" : "obj-84",
									"fontname" : "Arial",
									"numinlets" : 1,
									"numoutlets" : 2,
									"fontsize" : 12.0,
									"patching_rect" : [ 330.0, 225.0, 96.0, 20.0 ],
									"outlettype" : [ "float", "bang" ]
								}

							}
, 							{
								"box" : 								{
									"maxclass" : "newobj",
									"text" : "expr $f1+$f1",
									"id" : "obj-82",
									"fontname" : "Arial",
									"numinlets" : 1,
									"numoutlets" : 1,
									"fontsize" : 12.0,
									"patching_rect" : [ 330.0, 195.0, 78.0, 20.0 ],
									"outlettype" : [ "" ]
								}

							}
, 							{
								"box" : 								{
									"maxclass" : "flonum",
									"id" : "obj-69",
									"fontname" : "Arial",
									"numinlets" : 1,
									"numoutlets" : 2,
									"fontsize" : 12.0,
									"patching_rect" : [ 330.0, 165.0, 95.0, 20.0 ],
									"outlettype" : [ "float", "bang" ]
								}

							}
, 							{
								"box" : 								{
									"maxclass" : "newobj",
									"text" : "* 0.125",
									"id" : "obj-67",
									"fontname" : "Arial",
									"numinlets" : 2,
									"numoutlets" : 1,
									"fontsize" : 12.0,
									"patching_rect" : [ 330.0, 135.0, 49.0, 20.0 ],
									"outlettype" : [ "float" ]
								}

							}
, 							{
								"box" : 								{
									"maxclass" : "flonum",
									"id" : "obj-66",
									"fontname" : "Arial",
									"numinlets" : 1,
									"numoutlets" : 2,
									"fontsize" : 12.0,
									"patching_rect" : [ 330.0, 105.0, 95.0, 20.0 ],
									"outlettype" : [ "float", "bang" ]
								}

							}
, 							{
								"box" : 								{
									"maxclass" : "newobj",
									"text" : "sfinfo~",
									"id" : "obj-64",
									"fontname" : "Arial",
									"numinlets" : 1,
									"numoutlets" : 6,
									"fontsize" : 12.0,
									"patching_rect" : [ 465.0, 75.0, 112.5, 20.0 ],
									"outlettype" : [ "int", "int", "float", "float", "", "" ]
								}

							}
, 							{
								"box" : 								{
									"maxclass" : "message",
									"text" : "open",
									"id" : "obj-32",
									"fontname" : "Arial",
									"numinlets" : 2,
									"numoutlets" : 1,
									"fontsize" : 12.0,
									"patching_rect" : [ 435.0, 45.0, 37.0, 18.0 ],
									"outlettype" : [ "" ]
								}

							}
 ],
						"lines" : [ 							{
								"patchline" : 								{
									"source" : [ "obj-64", 3 ],
									"destination" : [ "obj-66", 0 ],
									"hidden" : 0,
									"midpoints" : [ 530.599976, 105.0, 435.0, 105.0, 435.0, 90.0, 339.5, 90.0 ]
								}

							}
, 							{
								"patchline" : 								{
									"source" : [ "obj-66", 0 ],
									"destination" : [ "obj-67", 0 ],
									"hidden" : 0,
									"midpoints" : [  ]
								}

							}
, 							{
								"patchline" : 								{
									"source" : [ "obj-67", 0 ],
									"destination" : [ "obj-69", 0 ],
									"hidden" : 0,
									"midpoints" : [  ]
								}

							}
, 							{
								"patchline" : 								{
									"source" : [ "obj-69", 0 ],
									"destination" : [ "obj-82", 0 ],
									"hidden" : 0,
									"midpoints" : [  ]
								}

							}
, 							{
								"patchline" : 								{
									"source" : [ "obj-82", 0 ],
									"destination" : [ "obj-84", 0 ],
									"hidden" : 0,
									"midpoints" : [  ]
								}

							}
, 							{
								"patchline" : 								{
									"source" : [ "obj-84", 0 ],
									"destination" : [ "obj-85", 0 ],
									"hidden" : 0,
									"midpoints" : [  ]
								}

							}
, 							{
								"patchline" : 								{
									"source" : [ "obj-69", 0 ],
									"destination" : [ "obj-85", 1 ],
									"hidden" : 0,
									"midpoints" : [ 339.5, 186.0, 315.0, 186.0, 315.0, 252.0, 398.5, 252.0 ]
								}

							}
, 							{
								"patchline" : 								{
									"source" : [ "obj-85", 0 ],
									"destination" : [ "obj-88", 0 ],
									"hidden" : 0,
									"midpoints" : [  ]
								}

							}
, 							{
								"patchline" : 								{
									"source" : [ "obj-88", 0 ],
									"destination" : [ "obj-86", 0 ],
									"hidden" : 0,
									"midpoints" : [  ]
								}

							}
, 							{
								"patchline" : 								{
									"source" : [ "obj-69", 0 ],
									"destination" : [ "obj-86", 1 ],
									"hidden" : 0,
									"midpoints" : [ 339.5, 186.0, 315.0, 186.0, 315.0, 312.0, 398.5, 312.0 ]
								}

							}
, 							{
								"patchline" : 								{
									"source" : [ "obj-86", 0 ],
									"destination" : [ "obj-96", 0 ],
									"hidden" : 0,
									"midpoints" : [  ]
								}

							}
, 							{
								"patchline" : 								{
									"source" : [ "obj-96", 0 ],
									"destination" : [ "obj-89", 0 ],
									"hidden" : 0,
									"midpoints" : [  ]
								}

							}
, 							{
								"patchline" : 								{
									"source" : [ "obj-89", 0 ],
									"destination" : [ "obj-98", 0 ],
									"hidden" : 0,
									"midpoints" : [  ]
								}

							}
, 							{
								"patchline" : 								{
									"source" : [ "obj-69", 0 ],
									"destination" : [ "obj-89", 1 ],
									"hidden" : 0,
									"midpoints" : [ 339.5, 186.0, 315.0, 186.0, 315.0, 372.0, 398.5, 372.0 ]
								}

							}
, 							{
								"patchline" : 								{
									"source" : [ "obj-98", 0 ],
									"destination" : [ "obj-90", 0 ],
									"hidden" : 0,
									"midpoints" : [  ]
								}

							}
, 							{
								"patchline" : 								{
									"source" : [ "obj-69", 0 ],
									"destination" : [ "obj-90", 1 ],
									"hidden" : 0,
									"midpoints" : [ 339.5, 186.0, 315.0, 186.0, 315.0, 432.0, 398.5, 432.0 ]
								}

							}
, 							{
								"patchline" : 								{
									"source" : [ "obj-90", 0 ],
									"destination" : [ "obj-100", 0 ],
									"hidden" : 0,
									"midpoints" : [  ]
								}

							}
, 							{
								"patchline" : 								{
									"source" : [ "obj-100", 0 ],
									"destination" : [ "obj-91", 0 ],
									"hidden" : 0,
									"midpoints" : [  ]
								}

							}
, 							{
								"patchline" : 								{
									"source" : [ "obj-91", 0 ],
									"destination" : [ "obj-102", 0 ],
									"hidden" : 0,
									"midpoints" : [  ]
								}

							}
, 							{
								"patchline" : 								{
									"source" : [ "obj-69", 0 ],
									"destination" : [ "obj-91", 1 ],
									"hidden" : 0,
									"midpoints" : [ 339.5, 186.0, 315.0, 186.0, 315.0, 492.0, 398.5, 492.0 ]
								}

							}
, 							{
								"patchline" : 								{
									"source" : [ "obj-69", 0 ],
									"destination" : [ "obj-105", 0 ],
									"hidden" : 0,
									"midpoints" : [ 339.5, 186.0, 300.0, 186.0, 300.0, 180.0, 189.5, 180.0 ]
								}

							}
, 							{
								"patchline" : 								{
									"source" : [ "obj-105", 0 ],
									"destination" : [ "obj-104", 1 ],
									"hidden" : 0,
									"midpoints" : [ 189.5, 222.0, 272.5, 222.0 ]
								}

							}
, 							{
								"patchline" : 								{
									"source" : [ "obj-106", 0 ],
									"destination" : [ "obj-107", 1 ],
									"hidden" : 0,
									"midpoints" : [ 189.5, 282.0, 272.5, 282.0 ]
								}

							}
, 							{
								"patchline" : 								{
									"source" : [ "obj-84", 0 ],
									"destination" : [ "obj-106", 0 ],
									"hidden" : 0,
									"midpoints" : [ 339.5, 246.0, 300.0, 246.0, 300.0, 252.0, 189.5, 252.0 ]
								}

							}
, 							{
								"patchline" : 								{
									"source" : [ "obj-88", 0 ],
									"destination" : [ "obj-108", 0 ],
									"hidden" : 0,
									"midpoints" : [ 339.5, 306.0, 300.0, 306.0, 300.0, 312.0, 189.5, 312.0 ]
								}

							}
, 							{
								"patchline" : 								{
									"source" : [ "obj-108", 0 ],
									"destination" : [ "obj-109", 1 ],
									"hidden" : 0,
									"midpoints" : [ 189.5, 342.0, 272.5, 342.0 ]
								}

							}
, 							{
								"patchline" : 								{
									"source" : [ "obj-110", 0 ],
									"destination" : [ "obj-111", 1 ],
									"hidden" : 0,
									"midpoints" : [ 189.5, 402.0, 272.5, 402.0 ]
								}

							}
, 							{
								"patchline" : 								{
									"source" : [ "obj-96", 0 ],
									"destination" : [ "obj-110", 0 ],
									"hidden" : 0,
									"midpoints" : [ 339.5, 366.0, 300.0, 366.0, 300.0, 372.0, 189.5, 372.0 ]
								}

							}
, 							{
								"patchline" : 								{
									"source" : [ "obj-98", 0 ],
									"destination" : [ "obj-112", 0 ],
									"hidden" : 0,
									"midpoints" : [ 339.5, 426.0, 300.0, 426.0, 300.0, 432.0, 189.5, 432.0 ]
								}

							}
, 							{
								"patchline" : 								{
									"source" : [ "obj-112", 0 ],
									"destination" : [ "obj-113", 1 ],
									"hidden" : 0,
									"midpoints" : [ 189.5, 462.0, 272.5, 462.0 ]
								}

							}
, 							{
								"patchline" : 								{
									"source" : [ "obj-100", 0 ],
									"destination" : [ "obj-114", 0 ],
									"hidden" : 0,
									"midpoints" : [ 339.5, 486.0, 300.0, 486.0, 300.0, 492.0, 189.5, 492.0 ]
								}

							}
, 							{
								"patchline" : 								{
									"source" : [ "obj-114", 0 ],
									"destination" : [ "obj-115", 1 ],
									"hidden" : 0,
									"midpoints" : [ 189.5, 522.0, 272.5, 522.0 ]
								}

							}
, 							{
								"patchline" : 								{
									"source" : [ "obj-119", 0 ],
									"destination" : [ "obj-104", 0 ],
									"hidden" : 0,
									"midpoints" : [ 159.5, 216.0, 159.5, 216.0 ]
								}

							}
, 							{
								"patchline" : 								{
									"source" : [ "obj-119", 0 ],
									"destination" : [ "obj-107", 0 ],
									"hidden" : 0,
									"midpoints" : [ 159.5, 216.0, 135.0, 216.0, 135.0, 270.0, 159.5, 270.0 ]
								}

							}
, 							{
								"patchline" : 								{
									"source" : [ "obj-119", 0 ],
									"destination" : [ "obj-109", 0 ],
									"hidden" : 0,
									"midpoints" : [ 159.5, 216.0, 135.0, 216.0, 135.0, 330.0, 159.5, 330.0 ]
								}

							}
, 							{
								"patchline" : 								{
									"source" : [ "obj-119", 0 ],
									"destination" : [ "obj-111", 0 ],
									"hidden" : 0,
									"midpoints" : [ 159.5, 216.0, 135.0, 216.0, 135.0, 390.0, 159.5, 390.0 ]
								}

							}
, 							{
								"patchline" : 								{
									"source" : [ "obj-119", 0 ],
									"destination" : [ "obj-113", 0 ],
									"hidden" : 0,
									"midpoints" : [ 159.5, 216.0, 135.0, 216.0, 135.0, 450.0, 159.5, 450.0 ]
								}

							}
, 							{
								"patchline" : 								{
									"source" : [ "obj-119", 0 ],
									"destination" : [ "obj-115", 0 ],
									"hidden" : 0,
									"midpoints" : [ 159.5, 216.0, 135.0, 216.0, 135.0, 510.0, 159.5, 510.0 ]
								}

							}
, 							{
								"patchline" : 								{
									"source" : [ "obj-119", 0 ],
									"destination" : [ "obj-117", 0 ],
									"hidden" : 0,
									"midpoints" : [ 159.5, 216.0, 135.0, 216.0, 135.0, 570.0, 159.5, 570.0 ]
								}

							}
, 							{
								"patchline" : 								{
									"source" : [ "obj-102", 0 ],
									"destination" : [ "obj-116", 0 ],
									"hidden" : 0,
									"midpoints" : [ 339.5, 555.0, 288.0, 555.0, 288.0, 552.0, 189.5, 552.0 ]
								}

							}
, 							{
								"patchline" : 								{
									"source" : [ "obj-116", 0 ],
									"destination" : [ "obj-117", 1 ],
									"hidden" : 0,
									"midpoints" : [ 189.5, 582.0, 272.5, 582.0 ]
								}

							}
, 							{
								"patchline" : 								{
									"source" : [ "obj-104", 0 ],
									"destination" : [ "obj-120", 0 ],
									"hidden" : 0,
									"midpoints" : [ 159.5, 270.0, 135.0, 270.0, 135.0, 630.0, 303.5, 630.0 ]
								}

							}
, 							{
								"patchline" : 								{
									"source" : [ "obj-107", 0 ],
									"destination" : [ "obj-120", 0 ],
									"hidden" : 0,
									"midpoints" : [ 159.5, 330.0, 135.0, 330.0, 135.0, 630.0, 303.5, 630.0 ]
								}

							}
, 							{
								"patchline" : 								{
									"source" : [ "obj-109", 0 ],
									"destination" : [ "obj-120", 0 ],
									"hidden" : 0,
									"midpoints" : [ 159.5, 390.0, 135.0, 390.0, 135.0, 630.0, 303.5, 630.0 ]
								}

							}
, 							{
								"patchline" : 								{
									"source" : [ "obj-111", 0 ],
									"destination" : [ "obj-120", 0 ],
									"hidden" : 0,
									"midpoints" : [ 159.5, 450.0, 135.0, 450.0, 135.0, 630.0, 303.5, 630.0 ]
								}

							}
, 							{
								"patchline" : 								{
									"source" : [ "obj-113", 0 ],
									"destination" : [ "obj-120", 0 ],
									"hidden" : 0,
									"midpoints" : [ 159.5, 510.0, 135.0, 510.0, 135.0, 630.0, 303.5, 630.0 ]
								}

							}
, 							{
								"patchline" : 								{
									"source" : [ "obj-115", 0 ],
									"destination" : [ "obj-120", 0 ],
									"hidden" : 0,
									"midpoints" : [ 159.5, 570.0, 135.0, 570.0, 135.0, 630.0, 303.5, 630.0 ]
								}

							}
, 							{
								"patchline" : 								{
									"source" : [ "obj-117", 0 ],
									"destination" : [ "obj-120", 0 ],
									"hidden" : 0,
									"midpoints" : [ 159.5, 630.0, 303.5, 630.0 ]
								}

							}
, 							{
								"patchline" : 								{
									"source" : [ "obj-129", 0 ],
									"destination" : [ "obj-128", 0 ],
									"hidden" : 0,
									"midpoints" : [  ]
								}

							}
, 							{
								"patchline" : 								{
									"source" : [ "obj-126", 0 ],
									"destination" : [ "obj-129", 0 ],
									"hidden" : 0,
									"midpoints" : [  ]
								}

							}
, 							{
								"patchline" : 								{
									"source" : [ "obj-128", 0 ],
									"destination" : [ "obj-127", 0 ],
									"hidden" : 0,
									"midpoints" : [  ]
								}

							}
, 							{
								"patchline" : 								{
									"source" : [ "obj-127", 0 ],
									"destination" : [ "obj-125", 1 ],
									"hidden" : 0,
									"midpoints" : [  ]
								}

							}
, 							{
								"patchline" : 								{
									"source" : [ "obj-127", 0 ],
									"destination" : [ "obj-125", 0 ],
									"hidden" : 0,
									"midpoints" : [  ]
								}

							}
, 							{
								"patchline" : 								{
									"source" : [ "obj-125", 0 ],
									"destination" : [ "obj-120", 0 ],
									"hidden" : 0,
									"midpoints" : [ 39.5, 630.0, 303.5, 630.0 ]
								}

							}
, 							{
								"patchline" : 								{
									"source" : [ "obj-32", 0 ],
									"destination" : [ "obj-119", 0 ],
									"hidden" : 0,
									"midpoints" : [ 444.5, 90.0, 159.5, 90.0 ]
								}

							}
, 							{
								"patchline" : 								{
									"source" : [ "obj-32", 0 ],
									"destination" : [ "obj-120", 0 ],
									"hidden" : 0,
									"midpoints" : [ 444.5, 630.0, 303.5, 630.0 ]
								}

							}
, 							{
								"patchline" : 								{
									"source" : [ "obj-32", 0 ],
									"destination" : [ "obj-64", 0 ],
									"hidden" : 0,
									"midpoints" : [ 444.5, 69.0, 474.5, 69.0 ]
								}

							}
, 							{
								"patchline" : 								{
									"source" : [ "obj-140", 0 ],
									"destination" : [ "obj-32", 0 ],
									"hidden" : 0,
									"midpoints" : [  ]
								}

							}
, 							{
								"patchline" : 								{
									"source" : [ "obj-120", 0 ],
									"destination" : [ "obj-143", 0 ],
									"hidden" : 0,
									"midpoints" : [  ]
								}

							}
, 							{
								"patchline" : 								{
									"source" : [ "obj-141", 0 ],
									"destination" : [ "obj-126", 0 ],
									"hidden" : 0,
									"midpoints" : [  ]
								}

							}
, 							{
								"patchline" : 								{
									"source" : [ "obj-120", 1 ],
									"destination" : [ "obj-2", 0 ],
									"hidden" : 0,
									"midpoints" : [  ]
								}

							}
, 							{
								"patchline" : 								{
									"source" : [ "obj-2", 0 ],
									"destination" : [ "obj-120", 0 ],
									"hidden" : 0,
									"midpoints" : [  ]
								}

							}
 ]
					}
,
					"saved_object_attributes" : 					{
						"default_fontname" : "Arial",
						"fontname" : "Arial",
						"default_fontsize" : 12.0,
						"globalpatchername" : "",
						"fontface" : 0,
						"fontsize" : 12.0,
						"default_fontface" : 0
					}

				}

			}
, 			{
				"box" : 				{
					"maxclass" : "newobj",
					"text" : "p delayTime",
					"id" : "obj-31",
					"fontname" : "Arial",
					"numinlets" : 2,
					"numoutlets" : 1,
					"fontsize" : 10.0,
					"patching_rect" : [ 135.0, 150.0, 65.0, 18.0 ],
					"outlettype" : [ "bang" ],
					"patcher" : 					{
						"fileversion" : 1,
						"rect" : [ 910.0, 110.0, 236.0, 370.0 ],
						"bglocked" : 0,
						"defrect" : [ 910.0, 110.0, 236.0, 370.0 ],
						"openrect" : [ 0.0, 0.0, 0.0, 0.0 ],
						"openinpresentation" : 0,
						"default_fontsize" : 12.0,
						"default_fontface" : 0,
						"default_fontname" : "Arial",
						"gridonopen" : 0,
						"gridsize" : [ 15.0, 15.0 ],
						"gridsnaponopen" : 0,
						"toolbarvisible" : 1,
						"boxanimatetime" : 200,
						"imprint" : 0,
						"metadata" : [  ],
						"boxes" : [ 							{
								"box" : 								{
									"maxclass" : "inlet",
									"id" : "obj-5",
									"numinlets" : 0,
									"numoutlets" : 1,
									"patching_rect" : [ 135.0, 45.0, 25.0, 25.0 ],
									"outlettype" : [ "int" ],
									"comment" : ""
								}

							}
, 							{
								"box" : 								{
									"maxclass" : "newobj",
									"text" : "* 1000",
									"id" : "obj-4",
									"fontname" : "Arial",
									"numinlets" : 2,
									"numoutlets" : 1,
									"fontsize" : 10.0,
									"patching_rect" : [ 90.0, 225.0, 39.0, 18.0 ],
									"outlettype" : [ "int" ]
								}

							}
, 							{
								"box" : 								{
									"maxclass" : "outlet",
									"id" : "obj-3",
									"numinlets" : 1,
									"numoutlets" : 0,
									"patching_rect" : [ 60.0, 315.0, 25.0, 25.0 ],
									"comment" : ""
								}

							}
, 							{
								"box" : 								{
									"maxclass" : "inlet",
									"id" : "obj-2",
									"numinlets" : 0,
									"numoutlets" : 1,
									"patching_rect" : [ 60.0, 120.0, 25.0, 25.0 ],
									"outlettype" : [ "" ],
									"comment" : ""
								}

							}
, 							{
								"box" : 								{
									"maxclass" : "button",
									"id" : "obj-29",
									"numinlets" : 1,
									"numoutlets" : 1,
									"patching_rect" : [ 60.0, 225.0, 20.0, 20.0 ],
									"outlettype" : [ "bang" ]
								}

							}
, 							{
								"box" : 								{
									"maxclass" : "button",
									"id" : "obj-26",
									"numinlets" : 1,
									"numoutlets" : 1,
									"patching_rect" : [ 60.0, 285.0, 20.0, 20.0 ],
									"outlettype" : [ "bang" ]
								}

							}
, 							{
								"box" : 								{
									"maxclass" : "newobj",
									"text" : "delay",
									"id" : "obj-23",
									"fontname" : "Arial",
									"numinlets" : 2,
									"numoutlets" : 1,
									"fontsize" : 10.0,
									"patching_rect" : [ 60.0, 255.0, 49.0, 18.0 ],
									"outlettype" : [ "bang" ]
								}

							}
, 							{
								"box" : 								{
									"maxclass" : "button",
									"id" : "obj-22",
									"numinlets" : 1,
									"numoutlets" : 1,
									"patching_rect" : [ 90.0, 45.0, 20.0, 20.0 ],
									"outlettype" : [ "bang" ]
								}

							}
, 							{
								"box" : 								{
									"maxclass" : "newobj",
									"text" : "+ 1",
									"id" : "obj-20",
									"fontname" : "Arial",
									"numinlets" : 2,
									"numoutlets" : 1,
									"fontsize" : 10.0,
									"patching_rect" : [ 90.0, 105.0, 32.5, 18.0 ],
									"outlettype" : [ "int" ]
								}

							}
, 							{
								"box" : 								{
									"maxclass" : "newobj",
									"text" : "random 16",
									"id" : "obj-19",
									"fontname" : "Arial",
									"numinlets" : 2,
									"numoutlets" : 1,
									"fontsize" : 10.0,
									"patching_rect" : [ 90.0, 75.0, 64.0, 18.0 ],
									"outlettype" : [ "int" ]
								}

							}
, 							{
								"box" : 								{
									"maxclass" : "flonum",
									"id" : "obj-17",
									"fontname" : "Arial",
									"numinlets" : 1,
									"numoutlets" : 2,
									"fontsize" : 10.0,
									"patching_rect" : [ 60.0, 195.0, 50.0, 18.0 ],
									"outlettype" : [ "float", "bang" ]
								}

							}
, 							{
								"box" : 								{
									"maxclass" : "message",
									"text" : "nth 1 $1",
									"id" : "obj-7",
									"fontname" : "Arial",
									"numinlets" : 2,
									"numoutlets" : 1,
									"fontsize" : 10.0,
									"patching_rect" : [ 90.0, 135.0, 47.0, 16.0 ],
									"outlettype" : [ "" ]
								}

							}
, 							{
								"box" : 								{
									"maxclass" : "newobj",
									"text" : "coll",
									"id" : "obj-1",
									"fontname" : "Arial",
									"numinlets" : 1,
									"numoutlets" : 4,
									"fontsize" : 10.0,
									"patching_rect" : [ 60.0, 165.0, 59.5, 18.0 ],
									"outlettype" : [ "", "", "", "" ],
									"save" : [ "#N", "coll", ";" ],
									"saved_object_attributes" : 									{
										"embed" : 0
									}

								}

							}
 ],
						"lines" : [ 							{
								"patchline" : 								{
									"source" : [ "obj-17", 0 ],
									"destination" : [ "obj-4", 0 ],
									"hidden" : 0,
									"midpoints" : [ 69.5, 219.0, 99.5, 219.0 ]
								}

							}
, 							{
								"patchline" : 								{
									"source" : [ "obj-4", 0 ],
									"destination" : [ "obj-23", 1 ],
									"hidden" : 0,
									"midpoints" : [  ]
								}

							}
, 							{
								"patchline" : 								{
									"source" : [ "obj-26", 0 ],
									"destination" : [ "obj-3", 0 ],
									"hidden" : 0,
									"midpoints" : [  ]
								}

							}
, 							{
								"patchline" : 								{
									"source" : [ "obj-2", 0 ],
									"destination" : [ "obj-1", 0 ],
									"hidden" : 0,
									"midpoints" : [  ]
								}

							}
, 							{
								"patchline" : 								{
									"source" : [ "obj-7", 0 ],
									"destination" : [ "obj-1", 0 ],
									"hidden" : 0,
									"midpoints" : [ 99.5, 153.0, 69.5, 153.0 ]
								}

							}
, 							{
								"patchline" : 								{
									"source" : [ "obj-1", 0 ],
									"destination" : [ "obj-17", 0 ],
									"hidden" : 0,
									"midpoints" : [  ]
								}

							}
, 							{
								"patchline" : 								{
									"source" : [ "obj-20", 0 ],
									"destination" : [ "obj-7", 0 ],
									"hidden" : 0,
									"midpoints" : [  ]
								}

							}
, 							{
								"patchline" : 								{
									"source" : [ "obj-23", 0 ],
									"destination" : [ "obj-26", 0 ],
									"hidden" : 0,
									"midpoints" : [  ]
								}

							}
, 							{
								"patchline" : 								{
									"source" : [ "obj-29", 0 ],
									"destination" : [ "obj-23", 0 ],
									"hidden" : 0,
									"midpoints" : [  ]
								}

							}
, 							{
								"patchline" : 								{
									"source" : [ "obj-17", 0 ],
									"destination" : [ "obj-29", 0 ],
									"hidden" : 0,
									"midpoints" : [  ]
								}

							}
, 							{
								"patchline" : 								{
									"source" : [ "obj-26", 0 ],
									"destination" : [ "obj-22", 0 ],
									"hidden" : 0,
									"midpoints" : [ 69.5, 306.0, 45.0, 306.0, 45.0, 42.0, 99.5, 42.0 ]
								}

							}
, 							{
								"patchline" : 								{
									"source" : [ "obj-1", 2 ],
									"destination" : [ "obj-22", 0 ],
									"hidden" : 0,
									"midpoints" : [ 96.5, 189.0, 170.0, 189.0, 170.0, 42.0, 99.5, 42.0 ]
								}

							}
, 							{
								"patchline" : 								{
									"source" : [ "obj-19", 0 ],
									"destination" : [ "obj-20", 0 ],
									"hidden" : 0,
									"midpoints" : [  ]
								}

							}
, 							{
								"patchline" : 								{
									"source" : [ "obj-22", 0 ],
									"destination" : [ "obj-19", 0 ],
									"hidden" : 0,
									"midpoints" : [  ]
								}

							}
, 							{
								"patchline" : 								{
									"source" : [ "obj-5", 0 ],
									"destination" : [ "obj-19", 1 ],
									"hidden" : 0,
									"midpoints" : [  ]
								}

							}
 ]
					}
,
					"saved_object_attributes" : 					{
						"default_fontname" : "Arial",
						"fontname" : "Arial",
						"default_fontsize" : 12.0,
						"globalpatchername" : "",
						"fontface" : 0,
						"fontsize" : 12.0,
						"default_fontface" : 0
					}

				}

			}
, 			{
				"box" : 				{
					"maxclass" : "comment",
					"text" : "Length",
					"id" : "obj-10",
					"fontname" : "Arial",
					"numinlets" : 1,
					"numoutlets" : 0,
					"fontsize" : 10.0,
					"patching_rect" : [ 300.0, 45.0, 46.0, 18.0 ]
				}

			}
, 			{
				"box" : 				{
					"maxclass" : "number",
					"id" : "obj-8",
					"fontname" : "Arial",
					"numinlets" : 1,
					"numoutlets" : 2,
					"fontsize" : 10.0,
					"patching_rect" : [ 300.0, 75.0, 50.0, 18.0 ],
					"outlettype" : [ "int", "bang" ]
				}

			}
, 			{
				"box" : 				{
					"maxclass" : "comment",
					"text" : "Pieces",
					"id" : "obj-157",
					"fontname" : "Arial",
					"numinlets" : 1,
					"numoutlets" : 0,
					"fontsize" : 10.0,
					"patching_rect" : [ 240.0, 45.0, 43.0, 18.0 ]
				}

			}
, 			{
				"box" : 				{
					"maxclass" : "comment",
					"text" : "Beats",
					"id" : "obj-155",
					"fontname" : "Arial",
					"numinlets" : 1,
					"numoutlets" : 0,
					"fontsize" : 10.0,
					"patching_rect" : [ 180.0, 45.0, 39.0, 18.0 ]
				}

			}
, 			{
				"box" : 				{
					"maxclass" : "comment",
					"text" : "Tempo",
					"id" : "obj-152",
					"fontname" : "Arial",
					"numinlets" : 1,
					"numoutlets" : 0,
					"fontsize" : 10.0,
					"patching_rect" : [ 75.0, 45.0, 46.0, 18.0 ]
				}

			}
, 			{
				"box" : 				{
					"maxclass" : "number",
					"id" : "obj-150",
					"fontname" : "Arial",
					"numinlets" : 1,
					"numoutlets" : 2,
					"fontsize" : 10.0,
					"patching_rect" : [ 240.0, 75.0, 50.0, 18.0 ],
					"outlettype" : [ "int", "bang" ]
				}

			}
, 			{
				"box" : 				{
					"maxclass" : "number",
					"id" : "obj-148",
					"fontname" : "Arial",
					"numinlets" : 1,
					"numoutlets" : 2,
					"fontsize" : 10.0,
					"patching_rect" : [ 180.0, 75.0, 50.0, 18.0 ],
					"outlettype" : [ "int", "bang" ]
				}

			}
, 			{
				"box" : 				{
					"maxclass" : "button",
					"id" : "obj-146",
					"numinlets" : 1,
					"numoutlets" : 1,
					"patching_rect" : [ 135.0, 75.0, 20.0, 20.0 ],
					"outlettype" : [ "bang" ]
				}

			}
, 			{
				"box" : 				{
					"maxclass" : "newobj",
					"text" : "p bpmMs",
					"id" : "obj-144",
					"fontname" : "Arial",
					"numinlets" : 5,
					"numoutlets" : 1,
					"fontsize" : 10.0,
					"patching_rect" : [ 135.0, 120.0, 108.5, 18.0 ],
					"outlettype" : [ "" ],
					"patcher" : 					{
						"fileversion" : 1,
						"rect" : [ 132.0, 181.0, 735.0, 590.0 ],
						"bglocked" : 0,
						"defrect" : [ 132.0, 181.0, 735.0, 590.0 ],
						"openrect" : [ 0.0, 0.0, 0.0, 0.0 ],
						"openinpresentation" : 0,
						"default_fontsize" : 12.0,
						"default_fontface" : 0,
						"default_fontname" : "Arial",
						"gridonopen" : 0,
						"gridsize" : [ 15.0, 15.0 ],
						"gridsnaponopen" : 0,
						"toolbarvisible" : 1,
						"boxanimatetime" : 200,
						"imprint" : 0,
						"metadata" : [  ],
						"boxes" : [ 							{
								"box" : 								{
									"maxclass" : "comment",
									"text" : "Length",
									"id" : "obj-9",
									"fontname" : "Arial",
									"numinlets" : 1,
									"numoutlets" : 0,
									"fontsize" : 10.0,
									"patching_rect" : [ 510.0, 45.0, 46.0, 18.0 ]
								}

							}
, 							{
								"box" : 								{
									"maxclass" : "inlet",
									"id" : "obj-7",
									"numinlets" : 0,
									"numoutlets" : 1,
									"patching_rect" : [ 510.0, 75.0, 25.0, 25.0 ],
									"outlettype" : [ "int" ],
									"comment" : ""
								}

							}
, 							{
								"box" : 								{
									"maxclass" : "newobj",
									"text" : "prepend store 1",
									"id" : "obj-5",
									"fontname" : "Arial",
									"numinlets" : 1,
									"numoutlets" : 1,
									"fontsize" : 10.0,
									"patching_rect" : [ 195.0, 480.0, 81.0, 18.0 ],
									"outlettype" : [ "" ]
								}

							}
, 							{
								"box" : 								{
									"maxclass" : "newobj",
									"text" : "zl group",
									"id" : "obj-3",
									"fontname" : "Arial",
									"numinlets" : 2,
									"numoutlets" : 2,
									"fontsize" : 10.0,
									"patching_rect" : [ 195.0, 450.0, 46.0, 18.0 ],
									"outlettype" : [ "", "" ]
								}

							}
, 							{
								"box" : 								{
									"maxclass" : "outlet",
									"id" : "obj-21",
									"numinlets" : 1,
									"numoutlets" : 0,
									"patching_rect" : [ 195.0, 510.0, 25.0, 25.0 ],
									"comment" : ""
								}

							}
, 							{
								"box" : 								{
									"maxclass" : "comment",
									"text" : "BPM to MS Calculator",
									"id" : "obj-20",
									"fontname" : "Arial",
									"numinlets" : 1,
									"numoutlets" : 0,
									"fontface" : 1,
									"fontsize" : 12.0,
									"patching_rect" : [ 15.0, 45.0, 155.0, 20.0 ]
								}

							}
, 							{
								"box" : 								{
									"maxclass" : "comment",
									"text" : "Once all the infomation has been given to the patch bang it just the once.\n\nThis will evenly divide a sample in ms for how ever many pieces you want, if you know the tempo and how many bars long it is.\n\nThe output is a list.",
									"linecount" : 11,
									"id" : "obj-18",
									"fontname" : "Arial",
									"numinlets" : 1,
									"numoutlets" : 0,
									"fontsize" : 12.0,
									"patching_rect" : [ 15.0, 75.0, 157.0, 158.0 ]
								}

							}
, 							{
								"box" : 								{
									"maxclass" : "comment",
									"text" : "Bang",
									"id" : "obj-16",
									"fontname" : "Arial",
									"numinlets" : 1,
									"numoutlets" : 0,
									"fontface" : 1,
									"fontsize" : 10.0,
									"patching_rect" : [ 195.0, 45.0, 36.0, 18.0 ]
								}

							}
, 							{
								"box" : 								{
									"maxclass" : "inlet",
									"id" : "obj-14",
									"numinlets" : 0,
									"numoutlets" : 1,
									"patching_rect" : [ 195.0, 75.0, 25.0, 25.0 ],
									"outlettype" : [ "bang" ],
									"comment" : ""
								}

							}
, 							{
								"box" : 								{
									"maxclass" : "inlet",
									"id" : "obj-13",
									"numinlets" : 0,
									"numoutlets" : 1,
									"patching_rect" : [ 435.0, 75.0, 25.0, 25.0 ],
									"outlettype" : [ "int" ],
									"comment" : ""
								}

							}
, 							{
								"box" : 								{
									"maxclass" : "inlet",
									"id" : "obj-12",
									"numinlets" : 0,
									"numoutlets" : 1,
									"patching_rect" : [ 345.0, 75.0, 25.0, 25.0 ],
									"outlettype" : [ "int" ],
									"comment" : ""
								}

							}
, 							{
								"box" : 								{
									"maxclass" : "inlet",
									"id" : "obj-11",
									"numinlets" : 0,
									"numoutlets" : 1,
									"patching_rect" : [ 285.0, 75.0, 25.0, 25.0 ],
									"outlettype" : [ "int" ],
									"comment" : ""
								}

							}
, 							{
								"box" : 								{
									"maxclass" : "comment",
									"text" : "Tempo",
									"id" : "obj-10",
									"fontname" : "Arial",
									"numinlets" : 1,
									"numoutlets" : 0,
									"fontsize" : 10.0,
									"patching_rect" : [ 285.0, 45.0, 48.0, 18.0 ]
								}

							}
, 							{
								"box" : 								{
									"maxclass" : "comment",
									"text" : "Beats Long (8)",
									"id" : "obj-8",
									"fontname" : "Arial",
									"numinlets" : 1,
									"numoutlets" : 0,
									"fontsize" : 10.0,
									"patching_rect" : [ 345.0, 45.0, 79.0, 18.0 ]
								}

							}
, 							{
								"box" : 								{
									"maxclass" : "comment",
									"text" : "Pieces (16)",
									"id" : "obj-6",
									"fontname" : "Arial",
									"numinlets" : 1,
									"numoutlets" : 0,
									"fontsize" : 10.0,
									"patching_rect" : [ 435.0, 45.0, 60.0, 18.0 ]
								}

							}
, 							{
								"box" : 								{
									"maxclass" : "newobj",
									"text" : "expr 60/$f1",
									"id" : "obj-63",
									"fontname" : "Arial",
									"numinlets" : 1,
									"numoutlets" : 1,
									"fontsize" : 10.0,
									"patching_rect" : [ 285.0, 180.0, 61.0, 18.0 ],
									"outlettype" : [ "" ]
								}

							}
, 							{
								"box" : 								{
									"maxclass" : "flonum",
									"id" : "obj-62",
									"fontname" : "Arial",
									"numinlets" : 1,
									"numoutlets" : 2,
									"fontsize" : 10.0,
									"patching_rect" : [ 285.0, 150.0, 50.0, 18.0 ],
									"outlettype" : [ "float", "bang" ]
								}

							}
, 							{
								"box" : 								{
									"maxclass" : "newobj",
									"text" : "/",
									"id" : "obj-51",
									"fontname" : "Arial",
									"numinlets" : 2,
									"numoutlets" : 1,
									"fontsize" : 10.0,
									"patching_rect" : [ 285.0, 120.0, 32.5, 18.0 ],
									"outlettype" : [ "int" ]
								}

							}
, 							{
								"box" : 								{
									"maxclass" : "newobj",
									"text" : "counter 1 128",
									"id" : "obj-143",
									"fontname" : "Arial",
									"numinlets" : 5,
									"numoutlets" : 4,
									"fontsize" : 10.0,
									"patching_rect" : [ 195.0, 345.0, 73.0, 18.0 ],
									"outlettype" : [ "int", "", "", "int" ]
								}

							}
, 							{
								"box" : 								{
									"maxclass" : "newobj",
									"text" : "uzi",
									"id" : "obj-140",
									"fontname" : "Arial",
									"numinlets" : 2,
									"numoutlets" : 3,
									"fontsize" : 10.0,
									"patching_rect" : [ 195.0, 300.0, 46.0, 18.0 ],
									"outlettype" : [ "bang", "bang", "int" ]
								}

							}
, 							{
								"box" : 								{
									"maxclass" : "number",
									"id" : "obj-137",
									"fontname" : "Arial",
									"numinlets" : 1,
									"numoutlets" : 2,
									"fontsize" : 10.0,
									"patching_rect" : [ 195.0, 375.0, 50.0, 18.0 ],
									"outlettype" : [ "int", "bang" ]
								}

							}
, 							{
								"box" : 								{
									"maxclass" : "newobj",
									"text" : "expr $i1*$f2",
									"id" : "obj-131",
									"fontname" : "Arial",
									"numinlets" : 2,
									"numoutlets" : 1,
									"fontsize" : 10.0,
									"patching_rect" : [ 195.0, 420.0, 64.0, 18.0 ],
									"outlettype" : [ "" ]
								}

							}
, 							{
								"box" : 								{
									"maxclass" : "newobj",
									"text" : "expr $f1/$f2",
									"id" : "obj-71",
									"fontname" : "Arial",
									"numinlets" : 2,
									"numoutlets" : 1,
									"fontsize" : 10.0,
									"patching_rect" : [ 285.0, 255.0, 63.0, 18.0 ],
									"outlettype" : [ "" ]
								}

							}
, 							{
								"box" : 								{
									"maxclass" : "flonum",
									"id" : "obj-70",
									"fontname" : "Arial",
									"numinlets" : 1,
									"numoutlets" : 2,
									"fontsize" : 10.0,
									"patching_rect" : [ 285.0, 285.0, 50.0, 18.0 ],
									"outlettype" : [ "float", "bang" ]
								}

							}
, 							{
								"box" : 								{
									"maxclass" : "flonum",
									"id" : "obj-65",
									"fontname" : "Arial",
									"numinlets" : 1,
									"numoutlets" : 2,
									"fontsize" : 10.0,
									"patching_rect" : [ 285.0, 210.0, 50.0, 18.0 ],
									"outlettype" : [ "float", "bang" ]
								}

							}
 ],
						"lines" : [ 							{
								"patchline" : 								{
									"source" : [ "obj-70", 0 ],
									"destination" : [ "obj-131", 1 ],
									"hidden" : 0,
									"midpoints" : [ 294.5, 405.0, 249.5, 405.0 ]
								}

							}
, 							{
								"patchline" : 								{
									"source" : [ "obj-137", 0 ],
									"destination" : [ "obj-131", 0 ],
									"hidden" : 0,
									"midpoints" : [  ]
								}

							}
, 							{
								"patchline" : 								{
									"source" : [ "obj-71", 0 ],
									"destination" : [ "obj-70", 0 ],
									"hidden" : 0,
									"midpoints" : [  ]
								}

							}
, 							{
								"patchline" : 								{
									"source" : [ "obj-65", 0 ],
									"destination" : [ "obj-71", 0 ],
									"hidden" : 0,
									"midpoints" : [  ]
								}

							}
, 							{
								"patchline" : 								{
									"source" : [ "obj-51", 0 ],
									"destination" : [ "obj-62", 0 ],
									"hidden" : 0,
									"midpoints" : [  ]
								}

							}
, 							{
								"patchline" : 								{
									"source" : [ "obj-62", 0 ],
									"destination" : [ "obj-63", 0 ],
									"hidden" : 0,
									"midpoints" : [  ]
								}

							}
, 							{
								"patchline" : 								{
									"source" : [ "obj-63", 0 ],
									"destination" : [ "obj-65", 0 ],
									"hidden" : 0,
									"midpoints" : [  ]
								}

							}
, 							{
								"patchline" : 								{
									"source" : [ "obj-11", 0 ],
									"destination" : [ "obj-51", 0 ],
									"hidden" : 0,
									"midpoints" : [  ]
								}

							}
, 							{
								"patchline" : 								{
									"source" : [ "obj-12", 0 ],
									"destination" : [ "obj-51", 1 ],
									"hidden" : 0,
									"midpoints" : [ 354.5, 117.0, 308.0, 117.0 ]
								}

							}
, 							{
								"patchline" : 								{
									"source" : [ "obj-13", 0 ],
									"destination" : [ "obj-71", 1 ],
									"hidden" : 0,
									"midpoints" : [ 444.5, 240.0, 338.5, 240.0 ]
								}

							}
, 							{
								"patchline" : 								{
									"source" : [ "obj-5", 0 ],
									"destination" : [ "obj-21", 0 ],
									"hidden" : 0,
									"midpoints" : [  ]
								}

							}
, 							{
								"patchline" : 								{
									"source" : [ "obj-14", 0 ],
									"destination" : [ "obj-140", 0 ],
									"hidden" : 0,
									"midpoints" : [  ]
								}

							}
, 							{
								"patchline" : 								{
									"source" : [ "obj-131", 0 ],
									"destination" : [ "obj-3", 0 ],
									"hidden" : 0,
									"midpoints" : [  ]
								}

							}
, 							{
								"patchline" : 								{
									"source" : [ "obj-3", 0 ],
									"destination" : [ "obj-5", 0 ],
									"hidden" : 0,
									"midpoints" : [  ]
								}

							}
, 							{
								"patchline" : 								{
									"source" : [ "obj-143", 0 ],
									"destination" : [ "obj-137", 0 ],
									"hidden" : 0,
									"midpoints" : [  ]
								}

							}
, 							{
								"patchline" : 								{
									"source" : [ "obj-140", 0 ],
									"destination" : [ "obj-143", 0 ],
									"hidden" : 0,
									"midpoints" : [  ]
								}

							}
, 							{
								"patchline" : 								{
									"source" : [ "obj-7", 0 ],
									"destination" : [ "obj-140", 1 ],
									"hidden" : 0,
									"midpoints" : [ 519.5, 240.0, 231.5, 240.0 ]
								}

							}
, 							{
								"patchline" : 								{
									"source" : [ "obj-7", 0 ],
									"destination" : [ "obj-143", 4 ],
									"hidden" : 0,
									"midpoints" : [ 519.5, 330.0, 258.5, 330.0 ]
								}

							}
, 							{
								"patchline" : 								{
									"source" : [ "obj-7", 0 ],
									"destination" : [ "obj-3", 1 ],
									"hidden" : 0,
									"midpoints" : [ 519.5, 444.0, 231.5, 444.0 ]
								}

							}
 ]
					}
,
					"saved_object_attributes" : 					{
						"default_fontname" : "Arial",
						"fontname" : "Arial",
						"default_fontsize" : 12.0,
						"globalpatchername" : "",
						"fontface" : 0,
						"fontsize" : 12.0,
						"default_fontface" : 0
					}

				}

			}
, 			{
				"box" : 				{
					"maxclass" : "toggle",
					"id" : "obj-18",
					"numinlets" : 1,
					"numoutlets" : 1,
					"patching_rect" : [ 45.0, 75.0, 20.0, 20.0 ],
					"outlettype" : [ "int" ]
				}

			}
, 			{
				"box" : 				{
					"maxclass" : "number",
					"id" : "obj-16",
					"fontname" : "Arial",
					"numinlets" : 1,
					"numoutlets" : 2,
					"fontsize" : 10.0,
					"patching_rect" : [ 75.0, 75.0, 50.0, 18.0 ],
					"outlettype" : [ "int", "bang" ]
				}

			}
, 			{
				"box" : 				{
					"maxclass" : "newobj",
					"text" : "tempo",
					"id" : "obj-14",
					"fontname" : "Arial",
					"numinlets" : 4,
					"numoutlets" : 1,
					"fontsize" : 10.0,
					"patching_rect" : [ 45.0, 120.0, 59.5, 18.0 ],
					"outlettype" : [ "int" ]
				}

			}
 ],
		"lines" : [ 			{
				"patchline" : 				{
					"source" : [ "obj-144", 0 ],
					"destination" : [ "obj-31", 0 ],
					"hidden" : 0,
					"midpoints" : [  ]
				}

			}
, 			{
				"patchline" : 				{
					"source" : [ "obj-16", 0 ],
					"destination" : [ "obj-14", 1 ],
					"hidden" : 0,
					"midpoints" : [ 84.5, 105.0, 68.0, 105.0 ]
				}

			}
, 			{
				"patchline" : 				{
					"source" : [ "obj-18", 0 ],
					"destination" : [ "obj-14", 0 ],
					"hidden" : 0,
					"midpoints" : [  ]
				}

			}
, 			{
				"patchline" : 				{
					"source" : [ "obj-146", 0 ],
					"destination" : [ "obj-144", 0 ],
					"hidden" : 0,
					"midpoints" : [  ]
				}

			}
, 			{
				"patchline" : 				{
					"source" : [ "obj-16", 0 ],
					"destination" : [ "obj-144", 1 ],
					"hidden" : 0,
					"midpoints" : [ 84.5, 105.0, 166.875, 105.0 ]
				}

			}
, 			{
				"patchline" : 				{
					"source" : [ "obj-148", 0 ],
					"destination" : [ "obj-144", 2 ],
					"hidden" : 0,
					"midpoints" : [  ]
				}

			}
, 			{
				"patchline" : 				{
					"source" : [ "obj-150", 0 ],
					"destination" : [ "obj-144", 3 ],
					"hidden" : 0,
					"midpoints" : [ 249.5, 105.0, 211.625, 105.0 ]
				}

			}
, 			{
				"patchline" : 				{
					"source" : [ "obj-8", 0 ],
					"destination" : [ "obj-144", 4 ],
					"hidden" : 0,
					"midpoints" : [ 309.5, 105.0, 234.0, 105.0 ]
				}

			}
, 			{
				"patchline" : 				{
					"source" : [ "obj-4", 0 ],
					"destination" : [ "obj-2", 1 ],
					"hidden" : 0,
					"midpoints" : [  ]
				}

			}
, 			{
				"patchline" : 				{
					"source" : [ "obj-2", 0 ],
					"destination" : [ "obj-5", 0 ],
					"hidden" : 0,
					"midpoints" : [  ]
				}

			}
, 			{
				"patchline" : 				{
					"source" : [ "obj-2", 0 ],
					"destination" : [ "obj-5", 1 ],
					"hidden" : 0,
					"midpoints" : [  ]
				}

			}
, 			{
				"patchline" : 				{
					"source" : [ "obj-31", 0 ],
					"destination" : [ "obj-2", 0 ],
					"hidden" : 0,
					"midpoints" : [  ]
				}

			}
, 			{
				"patchline" : 				{
					"source" : [ "obj-8", 0 ],
					"destination" : [ "obj-31", 1 ],
					"hidden" : 0,
					"midpoints" : [ 309.5, 147.0, 201.0, 147.0, 201.0, 147.0, 190.5, 147.0 ]
				}

			}
 ]
	}

}
