#N canvas 285 28 392 346 10;
#X obj 60 237 strip_note;
#X obj 60 197 makenote;
#X obj 60 299 PRINT;
#X obj 60 267 pack;
#X obj 60 67 metro 750;
#X obj 60 37 loadbang;
#X msg 60 164 \$1 100 500;
#X obj 60 97 random 126;
#X obj 60 127 + 1;
#X text 176 107 Strip note off messages;
#X connect 0 0 3 0;
#X connect 0 1 3 1;
#X connect 1 0 0 0;
#X connect 1 1 0 1;
#X connect 3 0 2 0;
#X connect 4 0 7 0;
#X connect 5 0 4 0;
#X connect 6 0 1 0;
#X connect 7 0 8 0;
#X connect 8 0 6 0;
