#N canvas 268 141 450 300 10;
#X obj 112 169 list_index;
#X msg 253 152 5 9 3 2 5 6 8 8;
#X obj 253 122 loadbang;
#X obj 112 139 hradio 15 1 0 7 empty empty empty 0 -8 0 10 -262144
-1 -1 2;
#X floatatom 112 199 5 0 0 0 - - -;
#X text 110 117 Index;
#X text 252 97 List;
#X text 110 224 Element;
#X text 108 58 Element at index;
#X connect 0 0 4 0;
#X connect 1 0 0 1;
#X connect 2 0 1 0;
#X connect 3 0 0 0;
