#N canvas 851 60 210 384 10;
#X obj 75 107 list length;
#X obj 44 263 list append;
#X obj 44 283 list split 1;
#X obj 44 233 until;
#X obj 80 233 list;
#X obj 27 303 f;
#X obj 75 87 list;
#X obj 27 167 spigot;
#X obj 27 54 t f f b;
#X obj 60 137 <;
#X obj 27 341 outlet;
#X obj 147 23 inlet;
#X obj 147 54 t l l;
#X obj 27 24 inlet;
#X obj 27 193 t b f b b;
#X connect 0 0 9 1;
#X connect 1 0 2 0;
#X connect 2 0 5 1;
#X connect 2 1 1 1;
#X connect 3 0 1 0;
#X connect 4 0 1 0;
#X connect 5 0 10 0;
#X connect 6 0 0 0;
#X connect 7 0 14 0;
#X connect 8 0 7 0;
#X connect 8 1 9 0;
#X connect 8 2 6 0;
#X connect 9 0 7 1;
#X connect 11 0 12 0;
#X connect 12 0 6 1;
#X connect 12 1 4 1;
#X connect 13 0 8 0;
#X connect 14 0 5 0;
#X connect 14 1 3 0;
#X connect 14 2 4 0;
#X connect 14 3 1 1;
