#N canvas 433 131 877 394 10;
#X obj 424 12 inlet;
#X obj 310 272 table \$0-arp_pitch;
#X obj 310 292 table \$0-arp_vel;
#X obj 574 304 counter;
#X obj 451 325 tabwrite \$0-arp_pitch;
#X obj 451 287 t f b;
#X obj 619 254 counter;
#X obj 508 275 tabwrite \$0-arp_vel;
#X obj 451 105 gate 1;
#X obj 451 159 unpack f f;
#X obj 578 88 sel 1;
#X obj 424 71 t f f;
#X obj 170 22 inlet;
#X obj 54 204 counter;
#X obj 189 204 counter;
#X obj 54 235 tabread \$0-arp_pitch;
#X obj 189 235 tabread \$0-arp_vel;
#X obj 451 130 t a b;
#X obj 272 147 counter;
#X obj 161 299 outlet;
#X obj 424 46 route record list;
#X obj 310 312 table \$0-arp_dur;
#X obj 161 270 pack f f f;
#X obj 309 204 counter;
#X obj 309 235 tabread \$0-arp_dur;
#X obj 189 147 t b b b;
#X obj 170 110 t b b b;
#X obj 508 187 t f b f;
#N canvas 696 226 320 305 duration 0;
#X obj 72 88 route 0;
#X obj 100 121 t b;
#X obj 73 121 t b;
#X obj 73 146 timer;
#X obj 72 63 inlet;
#X obj 73 171 outlet;
#X text 130 87 Route note on/off;
#X text 131 119 Bang!;
#X text 130 147 Duration;
#X text 69 199 Get duration of note;
#X text 71 38 Midi message;
#X connect 0 0 1 0;
#X connect 0 1 2 0;
#X connect 1 0 3 1;
#X connect 2 0 3 0;
#X connect 3 0 5 0;
#X connect 4 0 0 0;
#X restore 674 204 pd duration;
#X obj 785 243 counter;
#X obj 674 226 t f b;
#X obj 674 264 tabwrite \$0-arp_dur;
#X obj 578 130 t b b b b b;
#X connect 0 0 20 0;
#X connect 3 0 4 1;
#X connect 5 0 4 0;
#X connect 5 1 3 0;
#X connect 6 0 7 1;
#X connect 8 0 17 0;
#X connect 9 0 5 0;
#X connect 9 1 27 0;
#X connect 10 0 32 0;
#X connect 11 0 10 0;
#X connect 11 1 8 0;
#X connect 12 0 26 0;
#X connect 13 0 15 0;
#X connect 14 0 16 0;
#X connect 15 0 22 0;
#X connect 16 0 22 1;
#X connect 17 0 9 0;
#X connect 17 1 18 0;
#X connect 18 0 14 4;
#X connect 18 0 13 4;
#X connect 18 0 23 4;
#X connect 20 0 11 0;
#X connect 20 1 8 1;
#X connect 22 0 19 0;
#X connect 23 0 24 0;
#X connect 24 0 22 2;
#X connect 25 0 13 2;
#X connect 25 1 14 2;
#X connect 25 2 23 2;
#X connect 26 0 13 0;
#X connect 26 1 14 0;
#X connect 26 2 23 0;
#X connect 27 0 7 0;
#X connect 27 1 6 0;
#X connect 27 2 28 0;
#X connect 28 0 30 0;
#X connect 29 0 31 1;
#X connect 30 0 31 0;
#X connect 30 1 29 0;
#X connect 32 0 18 2;
#X connect 32 1 3 2;
#X connect 32 2 6 2;
#X connect 32 3 29 2;
#X connect 32 4 25 0;
