#N canvas 551 157 531 414 10;
#X text 304 82 0 Chromatic;
#X text 304 97 1 Ionian;
#X text 304 112 2 Dorian;
#X text 304 127 3 Phrygian;
#X text 304 142 4 Lydian;
#X text 304 157 5 Mixolydian;
#X text 304 172 6 Aeolian;
#X text 304 187 7 Locrian;
#X text 304 202 8 Wholetone;
#X text 304 217 9 m7 9 11 13;
#X text 304 232 10 dim7;
#X text 304 247 11 Octatonic 2-1;
#X text 304 262 12 Octatonic 1-2;
#X text 304 277 13 Major Pentatonic;
#X text 304 292 14 Minor Pentatonic;
#X text 304 307 15 Octaves;
#N canvas 0 22 239 382 list_idx 0;
#X obj 85 117 list length;
#X obj 54 273 list append;
#X obj 54 293 list split 1;
#X obj 54 243 until;
#X obj 90 243 list;
#X obj 37 313 f;
#X obj 85 97 list;
#X obj 37 177 spigot;
#X obj 37 64 t f f b;
#X obj 70 147 <;
#X obj 157 64 t l l;
#X obj 37 203 t b f b b;
#X obj 37 343 outlet;
#X obj 37 34 inlet;
#X obj 157 34 inlet;
#X connect 0 0 9 1;
#X connect 1 0 2 0;
#X connect 2 0 5 1;
#X connect 2 1 1 1;
#X connect 3 0 1 0;
#X connect 4 0 1 0;
#X connect 5 0 12 0;
#X connect 6 0 0 0;
#X connect 7 0 11 0;
#X connect 8 0 7 0;
#X connect 8 1 9 0;
#X connect 8 2 6 0;
#X connect 9 0 7 1;
#X connect 10 0 6 1;
#X connect 10 1 4 1;
#X connect 11 0 5 0;
#X connect 11 1 3 0;
#X connect 11 2 4 0;
#X connect 11 3 1 1;
#X connect 13 0 8 0;
#X connect 14 0 10 0;
#X restore 55 202 pd list_idx;
#X obj 55 81 inlet;
#X obj 118 81 inlet;
#X obj 55 312 +;
#X text 115 57 Scale;
#X text 205 57 Root;
#X obj 55 342 outlet;
#X obj 55 142 mod 12;
#X obj 55 112 t f f;
#X obj 208 81 inlet;
#X text 115 37 0 - 15;
#X text 205 37 0 - 11;
#X obj 75 257 -;
#X obj 75 227 f;
#X obj 75 282 +;
#X obj 55 172 t f b f;
#X text 103 283 Octave + root;
#X obj 118 172 coll;
#C restore;
#N canvas 366 22 595 681 harmony 0;
#X msg 52 78 0 0 1 2 3 4 5 6 7 8 9 10 11 12 13 14 15 16 17 18 19 20
21 22 23 24 25 26 27 28 29 30 31 32 33 34 35 36 37 38 39 40 41 42 43
44 45 46 47 48 49 50 \;;
#X msg 52 126 1 0 2 4 5 7 9 11 12 14 16 17 19 21 23 24 26 28 29 31
33 35 36 38 40 41 43 45 47 48 50 52 53 55 57 59 60 \;;
#X msg 52 160 2 0 2 3 5 7 9 10 12 14 15 17 19 21 22 24 26 27 29 31
33 34 36 38 39 41 43 45 46 48 50 51 53 55 57 58 60 62 \;;
#X msg 53 193 3 0 1 3 5 7 8 10 12 13 15 17 19 20 22 24 25 27 29 31
32 34 36 37 39 41 43 44 46 48 49 51 53 55 56 58 60 61 63 \;;
#X msg 53 226 4 0 2 4 6 7 9 11 12 14 16 18 19 21 23 24 26 28 30 31
33 35 36 38 40 42 43 45 47 48 50 52 54 55 57 59 60 62 64 \;;
#X msg 53 260 5 0 2 4 5 7 9 10 12 14 16 17 19 21 22 24 26 28 29 31
33 34 36 38 40 41 43 45 46 48 50 52 53 55 57 58 60 62 64 \;;
#X msg 53 293 6 0 2 3 5 7 8 10 12 14 15 17 19 20 22 24 26 27 29 31
32 34 36 38 39 41 43 44 46 48 50 51 53 55 56 58 60 62 63 \;;
#X msg 53 327 7 0 1 3 5 6 8 10 12 13 15 17 18 20 22 24 25 27 29 30
32 34 36 37 39 41 42 44 46 48 49 51 53 54 56 58 60 61 63 \;;
#X msg 53 360 8 0 2 4 6 8 10 12 14 16 18 20 22 24 26 28 30 32 34 36
38 40 42 44 46 48 50 52 54 56 58 60 62 64 66 68 70 72 74 \;;
#X msg 52 395 9 0 3 7 10 14 17 21 24 27 31 34 38 41 45 48 51 55 58
62 \;;
#X msg 52 415 10 0 3 6 9 12 15 18 21 24 27 30 33 36 39 42 45 48 51
54 57 60 63 66 69 72 75 78 81 84 87 90 \;;
#X msg 51 448 11 0 2 3 5 6 8 9 11 12 14 15 17 18 20 21 23 24 26 27
29 30 32 33 35 36 38 39 41 42 44 45 47 48 50 51 53 54 56 57 59 60 62
63 65 66 68 69 71 72 \;;
#X msg 50 494 12 0 1 3 4 6 7 9 10 12 13 15 16 18 19 21 22 24 25 27
28 30 31 33 34 36 37 39 40 42 43 45 46 48 49 51 52 54 55 57 58 60 61
63 64 \;;
#X msg 48 541 13 0 2 4 7 9 12 14 16 19 21 24 26 28 31 33 36 38 40 43
45 48 50 52 55 57 60 \;;
#X msg 48 575 14 0 3 5 7 10 12 15 17 19 22 24 27 29 31 34 36 39 41
43 46 48 51 53 55 58 60 \;;
#X msg 47 608 15 0 12 24 36 48 \;;
#X obj -143 50 t b b b b b b b b b b b b b b b b;
#X obj -117 625 outlet;
#X obj -143 23 t b b;
#X msg -116 599 clear;
#X obj -143 1 loadbang;
#X connect 0 0 17 0;
#X connect 1 0 17 0;
#X connect 2 0 17 0;
#X connect 3 0 17 0;
#X connect 4 0 17 0;
#X connect 5 0 17 0;
#X connect 6 0 17 0;
#X connect 7 0 17 0;
#X connect 8 0 17 0;
#X connect 9 0 17 0;
#X connect 10 0 17 0;
#X connect 11 0 17 0;
#X connect 12 0 17 0;
#X connect 13 0 17 0;
#X connect 14 0 17 0;
#X connect 15 0 17 0;
#X connect 16 0 15 0;
#X connect 16 1 14 0;
#X connect 16 2 13 0;
#X connect 16 3 12 0;
#X connect 16 4 11 0;
#X connect 16 5 10 0;
#X connect 16 6 9 0;
#X connect 16 7 8 0;
#X connect 16 8 7 0;
#X connect 16 9 6 0;
#X connect 16 10 5 0;
#X connect 16 11 4 0;
#X connect 16 12 3 0;
#X connect 16 13 2 0;
#X connect 16 14 1 0;
#X connect 16 15 0 0;
#X connect 18 0 16 0;
#X connect 18 1 19 0;
#X connect 19 0 17 0;
#X connect 20 0 18 0;
#X restore 130 147 pd harmony;
#X text 52 57 Pitch;
#X text 49 37 0 - 127;
#X text 37 367 Quantised Pitch;
#X obj 118 112 int;
#X obj 208 265 int;
#X connect 16 0 19 0;
#X connect 17 0 24 0;
#X connect 18 0 38 0;
#X connect 19 0 22 0;
#X connect 23 0 31 0;
#X connect 24 0 23 0;
#X connect 24 1 29 1;
#X connect 25 0 39 0;
#X connect 28 0 30 0;
#X connect 29 0 28 0;
#X connect 30 0 19 1;
#X connect 31 0 16 0;
#X connect 31 1 29 0;
#X connect 31 2 28 1;
#X connect 33 0 16 1;
#X connect 34 0 33 0;
#X connect 38 0 33 0;
#X connect 39 0 30 1;
