#N canvas 126 22 730 641 10;
#X obj 31 273 f 0;
#X obj 61 273 + 1;
#X obj 31 333 tabread \$0-pitch;
#X obj 31 303 % 12;
#X obj 51 243 f 0;
#X obj 31 163 inlet;
#X obj 31 533 outlet;
#X obj 51 213 r \$0-reset;
#X obj 286 493 random 6;
#X obj 346 493 random 6;
#X obj 286 523 +;
#X obj 286 463 t b b;
#X obj 286 443 until;
#X obj 364 433 * 2;
#X obj 364 373 mid2dec;
#X obj 364 413 int;
#X obj 286 693 list prepend;
#X obj 286 713 t l l;
#X obj 265 743 list;
#X obj 364 463 t f f;
#X obj 364 393 * 64;
#X obj 265 183 mid2dec;
#X obj 265 203 * 32;
#X obj 265 413 t b f b;
#X obj 265 163 r \$0-no_of_notes;
#X obj 364 333 r \$0-upper_range;
#X obj 265 763 list-enumerate;
#X obj 265 833 tabwrite \$0-pitch;
#X obj 265 803 unpack;
#X obj 265 783 list-rev;
#X obj 435 299 table \$0-pitch 7;
#X msg 284 293 \; \$1-pitch resize \$2;
#X obj 284 273 list prepend \$0;
#X obj 6 19 bng 15 250 50 0 \$0-reset \$0-reset_set RESET 20 8 0 10
-262144 -1 -1;
#X obj 9 39 hsl 128 15 0 127 0 0 \$0-upper_range \$0-upper_range_set
UPPER 20 8 0 10 -262144 -1 -1 1300 1;
#X obj 9 79 hsl 128 15 0 127 0 0 \$0-no_of_notes \$0-no_of_notes_set
NO:OF:NOTES 20 8 0 10 -262144 -1 -1 0 1;
#X obj 9 59 hsl 128 15 0 127 0 0 \$0-bottom_range \$0-bottom_range_set
BOTTOM 20 8 0 10 -262144 -1 -1 6700 1;
#X obj 144 59 nbx 5 15 -1e+37 1e+37 0 0 \$0-bottom_range_gui \$0-bottom_range_gui_set
empty 0 -8 0 10 -262144 -1 -1 67 256;
#X obj 144 39 nbx 5 15 -1e+37 1e+37 0 0 \$0-upper_range_gui \$0-upper_range_gui_set
empty 0 -8 0 10 -262144 -1 -1 12 256;
#X obj 144 79 nbx 5 15 -1e+37 1e+37 0 0 \$0-no_of_notes_gui \$0-no_of_notes_gui_set
empty 0 -8 0 10 -262144 -1 -1 0 256;
#X obj 512 340 s \$0-no_of_notes_gui_set;
#X obj 265 223 int;
#X obj 411 463 s \$0-upper_range_gui_set;
#X obj 63 19 bng 15 250 50 0 \$0-new \$0-new_set GENERATE 20 8 0 10
-262144 -1 -1;
#X obj 265 383 f;
#X obj 282 353 r \$0-new;
#X obj 286 659 + 76;
#X obj 307 559 r \$0-bottom_range;
#X obj 326 659 s \$0-bottom_range_gui_set;
#X obj 307 589 mid2dec;
#X obj 307 629 int;
#X obj 307 609 * 128;
#X obj 265 243 t f f f b;
#X obj 431 188 f \$0;
#X obj 431 168 loadbang;
#X msg 431 208 \; \$1-upper_range_set 12 \; \$1-bottom_range_set 72
\; \$1-no_of_notes_set 12 \; \$1-new_set bang \;;
#X connect 0 0 1 0;
#X connect 0 0 3 0;
#X connect 1 0 0 1;
#X connect 2 0 6 0;
#X connect 3 0 2 0;
#X connect 4 0 0 1;
#X connect 5 0 0 0;
#X connect 7 0 4 0;
#X connect 8 0 10 0;
#X connect 9 0 10 1;
#X connect 10 0 46 0;
#X connect 11 0 8 0;
#X connect 11 1 9 0;
#X connect 12 0 11 0;
#X connect 13 0 19 0;
#X connect 13 0 42 0;
#X connect 14 0 20 0;
#X connect 15 0 13 0;
#X connect 16 0 17 0;
#X connect 17 0 18 1;
#X connect 17 1 16 1;
#X connect 18 0 26 0;
#X connect 19 0 8 1;
#X connect 19 1 9 1;
#X connect 20 0 15 0;
#X connect 21 0 22 0;
#X connect 22 0 41 0;
#X connect 23 0 18 0;
#X connect 23 1 12 0;
#X connect 23 2 16 1;
#X connect 24 0 21 0;
#X connect 25 0 14 0;
#X connect 26 0 29 0;
#X connect 28 0 27 0;
#X connect 28 1 27 1;
#X connect 29 0 28 0;
#X connect 32 0 31 0;
#X connect 41 0 40 0;
#X connect 41 0 52 0;
#X connect 44 0 23 0;
#X connect 45 0 44 0;
#X connect 46 0 16 0;
#X connect 47 0 49 0;
#X connect 49 0 51 0;
#X connect 50 0 46 1;
#X connect 50 0 48 0;
#X connect 51 0 50 0;
#X connect 52 0 44 0;
#X connect 52 1 32 0;
#X connect 52 2 3 1;
#X connect 52 3 4 0;
#X connect 53 0 55 0;
#X connect 54 0 53 0;
#X coords 0 -1 1 1 204 100 1 0 0;
