#N canvas 394 284 249 302 10;
#X obj 71 39 inlet;
#X obj 113 39 inlet;
#X obj 113 79 t f f;
#X obj 125 199 f;
#X obj 104 109 != 0;
#X obj 71 139 spigot;
#X obj 71 169 t f b;
#X obj 125 239 outlet;
#X obj 71 239 outlet;
#X connect 0 0 5 0;
#X connect 1 0 2 0;
#X connect 2 0 4 0;
#X connect 2 1 3 1;
#X connect 3 0 7 0;
#X connect 4 0 5 1;
#X connect 5 0 6 0;
#X connect 6 0 8 0;
#X connect 6 1 3 0;
