#N canvas 494 22 393 393 10;
#X obj 105 190 f;
#X obj 105 52 r \$2-midiout\$1_trigger;
#X obj 151 241 r \$2-midiout\$1_velocity;
#X obj 174 261 r \$2-midiout\$1_length;
#X obj 128 220 r \$2-midiout\$1_octave;
#X obj 120 157 r \$2-midiout\$1_pitch;
#X obj 105 339 s \$2-midiout_values;
#X obj 150 77 r \$2-midiout_pos;
#X obj 150 104 sel \$1;
#X obj 105 311 pack f f f f;
#X obj 105 127 gate 1 0;
#X connect 0 0 9 0;
#X connect 1 0 10 0;
#X connect 2 0 9 2;
#X connect 3 0 9 3;
#X connect 4 0 9 1;
#X connect 5 0 0 1;
#X connect 7 0 8 0;
#X connect 8 0 10 1;
#X connect 9 0 6 0;
#X connect 10 0 0 0;
