#N canvas 291 254 903 532 10;
#N canvas 254 102 422 293 guts 0;
#X obj 126 144 metro 500;
#X obj 126 98 inlet;
#X obj 177 97 inlet;
#X obj 126 170 outlet;
#X obj 177 120 * 0.03125;
#X text 123 204 1/32 notes;
#X text 242 120 divide by 32;
#X connect 0 0 3 0;
#X connect 1 0 0 0;
#X connect 2 0 4 0;
#X connect 4 0 0 1;
#X restore 283 238 pd guts;
#N canvas 855 160 316 291 staticInfo 0;
#X obj 62 158 pack f f f f;
#X obj 62 133 f;
#X obj 103 104 t b f;
#X obj 144 104 t b f;
#X obj 184 104 t b f;
#X obj 62 104 t b f;
#X text 110 206 bpm;
#X text 58 204 run;
#X text 169 205 ms;
#X text 228 205 hz;
#X obj 62 63 inlet;
#X obj 103 63 inlet;
#X obj 144 63 inlet;
#X obj 62 183 outlet;
#X text 60 41 run;
#X text 103 41 bpm;
#X text 148 41 ms;
#X text 167 224 1 Bar;
#X text 225 225 1 Bar;
#X text 59 225 1=on;
#X text 59 239 0=off;
#X text 108 225 speed;
#X obj 107 183 s [dp]_info;
#X obj 184 80 expr 1000 / $f1;
#X connect 0 0 13 0;
#X connect 0 0 22 0;
#X connect 1 0 0 0;
#X connect 2 0 1 0;
#X connect 2 1 0 1;
#X connect 3 0 1 0;
#X connect 3 1 0 2;
#X connect 4 0 1 0;
#X connect 4 1 0 3;
#X connect 5 0 1 0;
#X connect 5 1 1 1;
#X connect 10 0 5 0;
#X connect 11 0 2 0;
#X connect 12 0 3 0;
#X connect 12 0 23 0;
#X connect 23 0 4 0;
#X restore 326 281 pd staticInfo;
#N canvas 349 89 746 653 engine 0;
#X obj 622 103 counter 0 31;
#X obj 428 191 counter 0 7;
#X obj 350 233 counter 3;
#X obj 280 277 counter 1;
#N canvas 332 119 450 300 16th 0;
#X obj 69 78 sel 0 2 4 6 8 10 12 14 16 18 20 22 24 26 28 30;
#X obj 224 135 outlet;
#X obj 67 39 inlet;
#X connect 0 0 1 0;
#X connect 0 1 1 0;
#X connect 0 2 1 0;
#X connect 0 3 1 0;
#X connect 0 4 1 0;
#X connect 0 5 1 0;
#X connect 0 6 1 0;
#X connect 0 7 1 0;
#X connect 0 8 1 0;
#X connect 0 9 1 0;
#X connect 0 10 1 0;
#X connect 0 11 1 0;
#X connect 0 12 1 0;
#X connect 0 13 1 0;
#X connect 0 14 1 0;
#X connect 0 15 1 0;
#X connect 2 0 0 0;
#X restore 515 120 pd 16th;
#N canvas 459 107 450 300 8th 0;
#X obj 119 93 sel 0 2 4 6 8 10 12 14;
#X obj 128 55 inlet;
#X obj 124 145 outlet;
#X connect 0 0 2 0;
#X connect 0 1 2 0;
#X connect 0 2 2 0;
#X connect 0 3 2 0;
#X connect 0 4 2 0;
#X connect 0 5 2 0;
#X connect 0 6 2 0;
#X connect 0 7 2 0;
#X connect 1 0 0 0;
#X restore 428 164 pd 8th;
#N canvas 195 88 450 300 4th 0;
#X obj 122 79 sel 0 2 4 6;
#X obj 127 34 inlet;
#X obj 139 123 outlet;
#X connect 0 0 2 0;
#X connect 0 1 2 0;
#X connect 0 2 2 0;
#X connect 0 3 2 0;
#X connect 1 0 0 0;
#X restore 350 208 pd 4th;
#N canvas 288 170 450 300 2nd 0;
#X obj 87 85 sel 0 2;
#X obj 98 59 inlet;
#X obj 93 132 outlet;
#X connect 0 0 2 0;
#X connect 0 1 2 0;
#X connect 1 0 0 0;
#X restore 280 250 pd 2nd;
#X obj 225 294 sel 0;
#X obj 225 322 counter 3;
#X obj 210 388 pack f f f f f f;
#X obj 622 130 t b f;
#X obj 210 350 f;
#X obj 210 431 outlet;
#X obj 246 410 s [dp]_pos;
#X obj 622 58 inlet;
#X obj 388 22 inlet;
#X obj 388 45 sel 0;
#X obj 97 325 outlet;
#X obj 515 147 counter 0 63;
#X obj 514 173 % 16;
#X obj 94 254 counter;
#X obj 114 217 t b;
#X obj 270 123 t b b b b b b b;
#X connect 0 0 4 0;
#X connect 0 0 11 0;
#X connect 1 0 6 0;
#X connect 1 0 10 3;
#X connect 2 0 7 0;
#X connect 2 0 10 2;
#X connect 3 0 8 0;
#X connect 3 0 10 1;
#X connect 4 0 19 0;
#X connect 5 0 1 0;
#X connect 6 0 2 0;
#X connect 7 0 3 0;
#X connect 8 0 9 0;
#X connect 9 0 12 1;
#X connect 10 0 13 0;
#X connect 10 0 14 0;
#X connect 11 0 12 0;
#X connect 11 1 10 5;
#X connect 12 0 10 0;
#X connect 15 0 0 0;
#X connect 16 0 17 0;
#X connect 17 0 23 0;
#X connect 19 0 5 0;
#X connect 19 0 20 0;
#X connect 19 0 22 0;
#X connect 20 0 10 4;
#X connect 21 0 18 0;
#X connect 22 0 21 0;
#X connect 23 0 21 2;
#X connect 23 1 9 2;
#X connect 23 2 3 2;
#X connect 23 3 2 2;
#X connect 23 4 1 2;
#X connect 23 5 19 2;
#X connect 23 6 0 2;
#X restore 219 269 pd engine;
#X text 224 365 position;
#X text 322 367 information;
#X obj 401 221 expr (60000*4)/$f1;
#X text 413 239 calculates (ms) for 1 bar;
#X text 163 403 The transport bar. This object acts as the global clock
\, its inputs are a toggle and a float. Alot of the abstractions wont
work without this object on.;
#X text 306 6 TRANSPORT;
#X obj 342 55 nbx 5 14 -1e+37 1e+37 0 0 empty empty empty 0 -8 0 10
-262144 -1 -1 140 256;
#X obj 296 54 tgl 15 0 empty empty empty 17 7 0 10 -262144 -1 -1 1
1;
#X text 314 52 run;
#X text 400 53 bpm;
#N canvas 129 278 759 431 varylength 0;
#X obj 116 200 outlet;
#X obj 116 173 pack f f f f f f;
#X obj 168 202 s [dp]_len;
#X obj 282 114 % 4;
#X obj 252 114 % 8;
#X obj 216 115 % 16;
#X obj 181 115 % 32;
#X obj 144 115 % 48;
#X obj 119 80 t f f f f f f;
#X obj 119 41 inlet;
#X obj 111 116 % 64;
#X obj 236 243 s \$0-transport_indicator_set;
#X connect 1 0 0 0;
#X connect 1 0 2 0;
#X connect 3 0 1 5;
#X connect 4 0 1 4;
#X connect 5 0 1 3;
#X connect 5 0 11 0;
#X connect 6 0 1 2;
#X connect 7 0 1 1;
#X connect 8 0 10 0;
#X connect 8 1 7 0;
#X connect 8 2 6 0;
#X connect 8 3 5 0;
#X connect 8 4 4 0;
#X connect 8 5 3 0;
#X connect 9 0 8 0;
#X connect 10 0 1 0;
#X restore 118 295 pd varylength;
#X obj 232 104 t f f f f;
#X obj 147 20 loadbang;
#X msg 143 50 140;
#X obj 363 104 max 50;
#X msg 669 314 248;
#X msg 769 314 250;
#X msg 719 314 252;
#X obj 719 345 midiout;
#X obj 613 262 metro;
#X obj 640 222 expr 60000/($f1*24);
#X obj 586 222 t f f;
#X obj 663 262 sel 0 1;
#X obj 586 314 counter 0 23;
#X obj 586 340 sel 0;
#X msg 586 367 1;
#X msg 169 132 \; pd dsp 1;
#X msg 188 172 \; pd dsp 0;
#X obj 169 105 sel 1 0;
#X obj 430 54 hradio 15 1 0 16 \$0-transport_indicator \$0-transport_indicator_set
empty 0 -8 0 10 -262144 -1 -1 10;
#X connect 0 0 2 1;
#X connect 2 0 13 0;
#X connect 5 0 0 1;
#X connect 5 0 1 2;
#X connect 9 0 17 0;
#X connect 10 0 14 0;
#X connect 10 0 31 0;
#X connect 14 0 1 0;
#X connect 14 1 24 0;
#X connect 14 2 2 0;
#X connect 14 3 0 0;
#X connect 15 0 16 0;
#X connect 16 0 9 0;
#X connect 17 0 5 0;
#X connect 17 0 1 1;
#X connect 17 0 23 0;
#X connect 18 0 21 0;
#X connect 19 0 21 0;
#X connect 20 0 21 0;
#X connect 22 0 18 0;
#X connect 22 0 26 0;
#X connect 23 0 22 1;
#X connect 24 0 25 0;
#X connect 24 1 22 0;
#X connect 25 0 20 0;
#X connect 25 1 19 0;
#X connect 25 1 26 2;
#X connect 26 0 27 0;
#X connect 27 0 28 0;
#X connect 31 0 29 0;
#X connect 31 1 30 0;
#X coords 0 -1 1 1 383 23 2 292 50;
