{
	"patcher" : 	{
		"fileversion" : 1,
		"rect" : [ 418.0, 44.0, 862.0, 709.0 ],
		"bglocked" : 0,
		"defrect" : [ 418.0, 44.0, 862.0, 709.0 ],
		"openrect" : [ 0.0, 0.0, 0.0, 0.0 ],
		"openinpresentation" : 1,
		"default_fontsize" : 9.0,
		"default_fontface" : 0,
		"default_fontname" : "Arial",
		"gridonopen" : 0,
		"gridsize" : [ 15.0, 15.0 ],
		"gridsnaponopen" : 0,
		"toolbarvisible" : 1,
		"boxanimatetime" : 200,
		"imprint" : 0,
		"metadata" : [  ],
		"boxes" : [ 			{
				"box" : 				{
					"maxclass" : "dial",
					"patching_rect" : [ 188.0, 288.0, 40.0, 40.0 ],
					"presentation" : 1,
					"id" : "obj-5",
					"numinlets" : 1,
					"numoutlets" : 1,
					"presentation_rect" : [ 64.0, 58.0, 30.0, 30.0 ],
					"outlettype" : [ "float" ]
				}

			}
, 			{
				"box" : 				{
					"maxclass" : "comment",
					"text" : "L/R",
					"patching_rect" : [ 105.0, 450.0, 41.0, 17.0 ],
					"presentation" : 1,
					"fontname" : "Arial",
					"id" : "obj-54",
					"numinlets" : 1,
					"numoutlets" : 0,
					"fontsize" : 9.0,
					"presentation_rect" : [ 30.0, 135.0, 26.0, 17.0 ]
				}

			}
, 			{
				"box" : 				{
					"maxclass" : "comment",
					"text" : "Dis",
					"patching_rect" : [ 150.0, 270.0, 41.0, 17.0 ],
					"presentation" : 1,
					"fontname" : "Arial",
					"id" : "obj-53",
					"numinlets" : 1,
					"numoutlets" : 0,
					"fontsize" : 9.0,
					"presentation_rect" : [ 30.0, 45.0, 21.0, 17.0 ]
				}

			}
, 			{
				"box" : 				{
					"maxclass" : "comment",
					"text" : "Res",
					"patching_rect" : [ 255.0, 75.0, 27.0, 17.0 ],
					"presentation" : 1,
					"fontname" : "Arial",
					"id" : "obj-51",
					"numinlets" : 1,
					"numoutlets" : 0,
					"fontsize" : 9.0,
					"presentation_rect" : [ 60.0, 0.0, 27.0, 17.0 ]
				}

			}
, 			{
				"box" : 				{
					"maxclass" : "comment",
					"text" : "Cut",
					"patching_rect" : [ 195.0, 75.0, 37.0, 17.0 ],
					"presentation" : 1,
					"fontname" : "Arial",
					"id" : "obj-49",
					"numinlets" : 1,
					"numoutlets" : 0,
					"fontsize" : 9.0,
					"presentation_rect" : [ 30.0, 0.0, 25.0, 17.0 ]
				}

			}
, 			{
				"box" : 				{
					"maxclass" : "comment",
					"text" : "Filter",
					"patching_rect" : [ 30.0, 105.0, 34.0, 17.0 ],
					"presentation" : 1,
					"fontname" : "Arial",
					"id" : "obj-46",
					"numinlets" : 1,
					"numoutlets" : 0,
					"fontsize" : 9.0,
					"presentation_rect" : [ 0.0, 0.0, 34.0, 17.0 ]
				}

			}
, 			{
				"box" : 				{
					"maxclass" : "comment",
					"text" : "Dis",
					"patching_rect" : [ 30.0, 270.0, 54.0, 17.0 ],
					"presentation" : 1,
					"fontname" : "Arial",
					"id" : "obj-44",
					"numinlets" : 1,
					"numoutlets" : 0,
					"fontsize" : 9.0,
					"presentation_rect" : [ 0.0, 45.0, 24.0, 17.0 ]
				}

			}
, 			{
				"box" : 				{
					"maxclass" : "comment",
					"text" : "Delay",
					"patching_rect" : [ 30.0, 360.0, 37.0, 17.0 ],
					"presentation" : 1,
					"fontname" : "Arial",
					"id" : "obj-42",
					"numinlets" : 1,
					"numoutlets" : 0,
					"fontsize" : 9.0,
					"presentation_rect" : [ 0.0, 90.0, 37.0, 17.0 ]
				}

			}
, 			{
				"box" : 				{
					"maxclass" : "comment",
					"text" : "Pan",
					"patching_rect" : [ 30.0, 450.0, 34.0, 17.0 ],
					"presentation" : 1,
					"fontname" : "Arial",
					"id" : "obj-40",
					"numinlets" : 1,
					"numoutlets" : 0,
					"fontsize" : 9.0,
					"presentation_rect" : [ 0.0, 135.0, 34.0, 17.0 ]
				}

			}
, 			{
				"box" : 				{
					"maxclass" : "dial",
					"patching_rect" : [ 135.0, 285.0, 40.0, 40.0 ],
					"presentation" : 1,
					"id" : "obj-38",
					"numinlets" : 1,
					"numoutlets" : 1,
					"presentation_rect" : [ 30.0, 60.0, 30.0, 30.0 ],
					"outlettype" : [ "float" ]
				}

			}
, 			{
				"box" : 				{
					"maxclass" : "comment",
					"text" : "Del",
					"patching_rect" : [ 135.0, 360.0, 38.0, 17.0 ],
					"presentation" : 1,
					"fontname" : "Arial",
					"id" : "obj-35",
					"numinlets" : 1,
					"numoutlets" : 0,
					"fontsize" : 9.0,
					"presentation_rect" : [ 30.0, 90.0, 24.0, 17.0 ]
				}

			}
, 			{
				"box" : 				{
					"maxclass" : "dial",
					"patching_rect" : [ 135.0, 375.0, 40.0, 40.0 ],
					"presentation" : 1,
					"id" : "obj-36",
					"numinlets" : 1,
					"numoutlets" : 1,
					"presentation_rect" : [ 30.0, 105.0, 30.0, 30.0 ],
					"outlettype" : [ "float" ]
				}

			}
, 			{
				"box" : 				{
					"maxclass" : "comment",
					"text" : "HP",
					"patching_rect" : [ 255.0, 360.0, 50.0, 17.0 ],
					"presentation" : 1,
					"fontname" : "Arial",
					"id" : "obj-34",
					"numinlets" : 1,
					"numoutlets" : 0,
					"fontsize" : 9.0,
					"presentation_rect" : [ 90.0, 90.0, 21.0, 17.0 ]
				}

			}
, 			{
				"box" : 				{
					"maxclass" : "comment",
					"text" : "FB",
					"patching_rect" : [ 195.0, 360.0, 50.0, 17.0 ],
					"presentation" : 1,
					"fontname" : "Arial",
					"id" : "obj-33",
					"numinlets" : 1,
					"numoutlets" : 0,
					"fontsize" : 9.0,
					"presentation_rect" : [ 60.0, 90.0, 20.0, 17.0 ]
				}

			}
, 			{
				"box" : 				{
					"maxclass" : "dial",
					"patching_rect" : [ 195.0, 375.0, 40.0, 40.0 ],
					"presentation" : 1,
					"id" : "obj-31",
					"numinlets" : 1,
					"numoutlets" : 1,
					"presentation_rect" : [ 60.0, 105.0, 30.0, 30.0 ],
					"outlettype" : [ "float" ]
				}

			}
, 			{
				"box" : 				{
					"maxclass" : "dial",
					"patching_rect" : [ 255.0, 375.0, 40.0, 40.0 ],
					"presentation" : 1,
					"id" : "obj-30",
					"numinlets" : 1,
					"numoutlets" : 1,
					"presentation_rect" : [ 90.0, 105.0, 30.0, 30.0 ],
					"outlettype" : [ "float" ]
				}

			}
, 			{
				"box" : 				{
					"maxclass" : "toggle",
					"patching_rect" : [ 75.0, 390.0, 20.0, 20.0 ],
					"presentation" : 1,
					"id" : "obj-29",
					"numinlets" : 1,
					"numoutlets" : 1,
					"presentation_rect" : [ 0.0, 105.0, 27.0, 27.0 ],
					"outlettype" : [ "int" ]
				}

			}
, 			{
				"box" : 				{
					"maxclass" : "newobj",
					"text" : "p delay",
					"patching_rect" : [ 15.0, 420.0, 259.0, 17.0 ],
					"fontname" : "Arial",
					"id" : "obj-27",
					"numinlets" : 5,
					"numoutlets" : 1,
					"fontsize" : 9.0,
					"outlettype" : [ "signal" ],
					"patcher" : 					{
						"fileversion" : 1,
						"rect" : [ 458.0, 75.0, 640.0, 480.0 ],
						"bglocked" : 0,
						"defrect" : [ 458.0, 75.0, 640.0, 480.0 ],
						"openrect" : [ 0.0, 0.0, 0.0, 0.0 ],
						"openinpresentation" : 0,
						"default_fontsize" : 9.0,
						"default_fontface" : 0,
						"default_fontname" : "Arial",
						"gridonopen" : 0,
						"gridsize" : [ 15.0, 15.0 ],
						"gridsnaponopen" : 0,
						"toolbarvisible" : 1,
						"boxanimatetime" : 200,
						"imprint" : 0,
						"metadata" : [  ],
						"boxes" : [ 							{
								"box" : 								{
									"maxclass" : "comment",
									"text" : "FB",
									"patching_rect" : [ 360.0, 105.0, 20.0, 17.0 ],
									"fontname" : "Arial",
									"id" : "obj-29",
									"numinlets" : 1,
									"numoutlets" : 0,
									"fontsize" : 9.0
								}

							}
, 							{
								"box" : 								{
									"maxclass" : "comment",
									"text" : "Delay",
									"patching_rect" : [ 255.0, 105.0, 32.0, 17.0 ],
									"fontname" : "Arial",
									"id" : "obj-27",
									"numinlets" : 1,
									"numoutlets" : 0,
									"fontsize" : 9.0
								}

							}
, 							{
								"box" : 								{
									"maxclass" : "dial",
									"patching_rect" : [ 240.0, 120.0, 40.0, 40.0 ],
									"id" : "obj-24",
									"numinlets" : 1,
									"numoutlets" : 1,
									"outlettype" : [ "float" ]
								}

							}
, 							{
								"box" : 								{
									"maxclass" : "inlet",
									"patching_rect" : [ 240.0, 75.0, 25.0, 25.0 ],
									"id" : "obj-23",
									"numinlets" : 0,
									"numoutlets" : 1,
									"outlettype" : [ "float" ],
									"comment" : ""
								}

							}
, 							{
								"box" : 								{
									"maxclass" : "inlet",
									"patching_rect" : [ 420.0, 75.0, 25.0, 25.0 ],
									"id" : "obj-18",
									"numinlets" : 0,
									"numoutlets" : 1,
									"outlettype" : [ "float" ],
									"comment" : ""
								}

							}
, 							{
								"box" : 								{
									"maxclass" : "inlet",
									"patching_rect" : [ 330.0, 75.0, 25.0, 25.0 ],
									"id" : "obj-19",
									"numinlets" : 0,
									"numoutlets" : 1,
									"outlettype" : [ "float" ],
									"comment" : ""
								}

							}
, 							{
								"box" : 								{
									"maxclass" : "inlet",
									"patching_rect" : [ 180.0, 75.0, 25.0, 25.0 ],
									"id" : "obj-16",
									"numinlets" : 0,
									"numoutlets" : 1,
									"outlettype" : [ "int" ],
									"comment" : ""
								}

							}
, 							{
								"box" : 								{
									"maxclass" : "toggle",
									"patching_rect" : [ 75.0, 195.0, 20.0, 20.0 ],
									"id" : "obj-25",
									"numinlets" : 1,
									"numoutlets" : 1,
									"outlettype" : [ "int" ]
								}

							}
, 							{
								"box" : 								{
									"maxclass" : "newobj",
									"text" : "+ 1",
									"patching_rect" : [ 75.0, 225.0, 32.5, 17.0 ],
									"fontname" : "Arial",
									"id" : "obj-20",
									"numinlets" : 2,
									"numoutlets" : 1,
									"fontsize" : 9.0,
									"outlettype" : [ "int" ]
								}

							}
, 							{
								"box" : 								{
									"maxclass" : "newobj",
									"text" : "loadmess 1",
									"patching_rect" : [ 15.0, 225.0, 57.0, 17.0 ],
									"fontname" : "Arial",
									"id" : "obj-21",
									"numinlets" : 1,
									"numoutlets" : 1,
									"fontsize" : 9.0,
									"outlettype" : [ "" ]
								}

							}
, 							{
								"box" : 								{
									"maxclass" : "newobj",
									"text" : "selector~ 2",
									"patching_rect" : [ 75.0, 255.0, 94.0, 17.0 ],
									"fontname" : "Arial",
									"id" : "obj-22",
									"numinlets" : 3,
									"numoutlets" : 1,
									"fontsize" : 9.0,
									"outlettype" : [ "signal" ]
								}

							}
, 							{
								"box" : 								{
									"maxclass" : "outlet",
									"patching_rect" : [ 75.0, 285.0, 25.0, 25.0 ],
									"id" : "obj-17",
									"numinlets" : 1,
									"numoutlets" : 0,
									"comment" : ""
								}

							}
, 							{
								"box" : 								{
									"maxclass" : "inlet",
									"patching_rect" : [ 150.0, 75.0, 25.0, 25.0 ],
									"id" : "obj-9",
									"numinlets" : 0,
									"numoutlets" : 1,
									"outlettype" : [ "signal" ],
									"comment" : ""
								}

							}
, 							{
								"box" : 								{
									"maxclass" : "comment",
									"text" : "HighPass",
									"patching_rect" : [ 435.0, 105.0, 48.0, 17.0 ],
									"fontname" : "Arial",
									"id" : "obj-8",
									"numinlets" : 1,
									"numoutlets" : 0,
									"fontsize" : 9.0
								}

							}
, 							{
								"box" : 								{
									"maxclass" : "dial",
									"patching_rect" : [ 420.0, 120.0, 40.0, 40.0 ],
									"id" : "obj-6",
									"numinlets" : 1,
									"numoutlets" : 1,
									"outlettype" : [ "float" ]
								}

							}
, 							{
								"box" : 								{
									"maxclass" : "dial",
									"patching_rect" : [ 330.0, 120.0, 40.0, 40.0 ],
									"id" : "obj-5",
									"numinlets" : 1,
									"numoutlets" : 1,
									"outlettype" : [ "float" ]
								}

							}
, 							{
								"box" : 								{
									"maxclass" : "newobj",
									"text" : "p delay",
									"patching_rect" : [ 150.0, 165.0, 288.5, 17.0 ],
									"fontname" : "Arial",
									"id" : "obj-101",
									"numinlets" : 4,
									"numoutlets" : 1,
									"fontsize" : 9.0,
									"outlettype" : [ "signal" ],
									"patcher" : 									{
										"fileversion" : 1,
										"rect" : [ 50.0, 94.0, 640.0, 480.0 ],
										"bglocked" : 0,
										"defrect" : [ 50.0, 94.0, 640.0, 480.0 ],
										"openrect" : [ 0.0, 0.0, 0.0, 0.0 ],
										"openinpresentation" : 0,
										"default_fontsize" : 9.0,
										"default_fontface" : 0,
										"default_fontname" : "Arial",
										"gridonopen" : 0,
										"gridsize" : [ 15.0, 15.0 ],
										"gridsnaponopen" : 0,
										"toolbarvisible" : 1,
										"boxanimatetime" : 200,
										"imprint" : 0,
										"metadata" : [  ],
										"boxes" : [ 											{
												"box" : 												{
													"maxclass" : "newobj",
													"text" : "zmap 0 127 0. 1.",
													"patching_rect" : [ 327.0, 283.0, 78.0, 17.0 ],
													"fontname" : "Arial",
													"id" : "obj-6",
													"numinlets" : 5,
													"numoutlets" : 1,
													"fontsize" : 9.0,
													"outlettype" : [ "float" ]
												}

											}
, 											{
												"box" : 												{
													"maxclass" : "newobj",
													"text" : "mtof",
													"patching_rect" : [ 472.0, 166.0, 28.0, 17.0 ],
													"fontname" : "Arial",
													"id" : "obj-5",
													"numinlets" : 1,
													"numoutlets" : 1,
													"fontsize" : 9.0,
													"outlettype" : [ "" ]
												}

											}
, 											{
												"box" : 												{
													"maxclass" : "newobj",
													"text" : "loadmess 1",
													"patching_rect" : [ 453.0, 331.0, 57.0, 17.0 ],
													"fontname" : "Arial",
													"id" : "obj-10",
													"numinlets" : 1,
													"numoutlets" : 1,
													"fontsize" : 9.0,
													"outlettype" : [ "" ]
												}

											}
, 											{
												"box" : 												{
													"maxclass" : "inlet",
													"patching_rect" : [ 505.0, 81.0, 25.0, 25.0 ],
													"id" : "obj-7",
													"numinlets" : 0,
													"numoutlets" : 1,
													"outlettype" : [ "float" ],
													"comment" : ""
												}

											}
, 											{
												"box" : 												{
													"maxclass" : "newobj",
													"text" : "p highpass",
													"patching_rect" : [ 270.0, 390.0, 54.0, 17.0 ],
													"fontname" : "Arial",
													"id" : "obj-2",
													"numinlets" : 3,
													"numoutlets" : 1,
													"fontsize" : 9.0,
													"outlettype" : [ "signal" ],
													"patcher" : 													{
														"fileversion" : 1,
														"rect" : [ 25.0, 69.0, 320.0, 287.0 ],
														"bglocked" : 0,
														"defrect" : [ 25.0, 69.0, 320.0, 287.0 ],
														"openrect" : [ 0.0, 0.0, 0.0, 0.0 ],
														"openinpresentation" : 0,
														"default_fontsize" : 9.0,
														"default_fontface" : 0,
														"default_fontname" : "Arial",
														"gridonopen" : 0,
														"gridsize" : [ 15.0, 15.0 ],
														"gridsnaponopen" : 0,
														"toolbarvisible" : 1,
														"boxanimatetime" : 200,
														"imprint" : 0,
														"metadata" : [  ],
														"boxes" : [ 															{
																"box" : 																{
																	"maxclass" : "message",
																	"text" : "clear",
																	"patching_rect" : [ 236.0, 215.0, 32.5, 15.0 ],
																	"fontname" : "Arial",
																	"id" : "obj-5",
																	"numinlets" : 2,
																	"numoutlets" : 1,
																	"fontsize" : 9.0,
																	"outlettype" : [ "" ]
																}

															}
, 															{
																"box" : 																{
																	"maxclass" : "outlet",
																	"patching_rect" : [ 15.0, 240.0, 25.0, 25.0 ],
																	"id" : "obj-13",
																	"numinlets" : 1,
																	"numoutlets" : 0,
																	"comment" : "Signal"
																}

															}
, 															{
																"box" : 																{
																	"maxclass" : "inlet",
																	"patching_rect" : [ 255.0, 15.0, 25.0, 25.0 ],
																	"id" : "obj-12",
																	"numinlets" : 0,
																	"numoutlets" : 1,
																	"outlettype" : [ "" ],
																	"comment" : "Res"
																}

															}
, 															{
																"box" : 																{
																	"maxclass" : "inlet",
																	"patching_rect" : [ 195.0, 15.0, 25.0, 25.0 ],
																	"id" : "obj-11",
																	"numinlets" : 0,
																	"numoutlets" : 1,
																	"outlettype" : [ "" ],
																	"comment" : "Cutoff"
																}

															}
, 															{
																"box" : 																{
																	"maxclass" : "inlet",
																	"patching_rect" : [ 15.0, 15.0, 25.0, 25.0 ],
																	"id" : "obj-10",
																	"numinlets" : 0,
																	"numoutlets" : 1,
																	"outlettype" : [ "signal" ],
																	"comment" : "Signal"
																}

															}
, 															{
																"box" : 																{
																	"maxclass" : "newobj",
																	"text" : "biquad~",
																	"patching_rect" : [ 15.0, 210.0, 168.5, 17.0 ],
																	"fontname" : "Arial",
																	"id" : "obj-9",
																	"numinlets" : 6,
																	"numoutlets" : 1,
																	"fontsize" : 9.0,
																	"outlettype" : [ "signal" ]
																}

															}
, 															{
																"box" : 																{
																	"maxclass" : "flonum",
																	"patching_rect" : [ 255.0, 45.0, 50.0, 17.0 ],
																	"fontname" : "Arial",
																	"id" : "obj-8",
																	"numinlets" : 1,
																	"numoutlets" : 2,
																	"fontsize" : 9.0,
																	"minimum" : 0.0,
																	"outlettype" : [ "float", "bang" ],
																	"maximum" : 5.0
																}

															}
, 															{
																"box" : 																{
																	"maxclass" : "flonum",
																	"patching_rect" : [ 195.0, 45.0, 50.0, 17.0 ],
																	"fontname" : "Arial",
																	"id" : "obj-6",
																	"numinlets" : 1,
																	"numoutlets" : 2,
																	"fontsize" : 9.0,
																	"outlettype" : [ "float", "bang" ]
																}

															}
, 															{
																"box" : 																{
																	"maxclass" : "message",
																	"text" : "highpass",
																	"patching_rect" : [ 45.0, 45.0, 47.0, 15.0 ],
																	"fontname" : "Arial",
																	"id" : "obj-4",
																	"numinlets" : 2,
																	"numoutlets" : 1,
																	"fontsize" : 9.0,
																	"outlettype" : [ "" ]
																}

															}
, 															{
																"box" : 																{
																	"maxclass" : "newobj",
																	"text" : "loadbang",
																	"patching_rect" : [ 45.0, 15.0, 48.0, 17.0 ],
																	"fontname" : "Arial",
																	"id" : "obj-2",
																	"numinlets" : 1,
																	"numoutlets" : 1,
																	"fontsize" : 9.0,
																	"outlettype" : [ "bang" ]
																}

															}
, 															{
																"box" : 																{
																	"maxclass" : "filtergraph~",
																	"patching_rect" : [ 45.0, 75.0, 229.0, 123.0 ],
																	"id" : "obj-1",
																	"numinlets" : 8,
																	"numoutlets" : 7,
																	"outlettype" : [ "list", "float", "float", "float", "float", "list", "int" ],
																	"nfilters" : 1,
																	"setfilter" : [ 0, 2, 1, 0, 0, 8.175799, 1.0, 1.0, 0.0, 0.0, 0.0, 0.0, 0.0, 0.0 ]
																}

															}
 ],
														"lines" : [ 															{
																"patchline" : 																{
																	"source" : [ "obj-9", 0 ],
																	"destination" : [ "obj-13", 0 ],
																	"hidden" : 0,
																	"midpoints" : [  ]
																}

															}
, 															{
																"patchline" : 																{
																	"source" : [ "obj-12", 0 ],
																	"destination" : [ "obj-8", 0 ],
																	"hidden" : 0,
																	"midpoints" : [  ]
																}

															}
, 															{
																"patchline" : 																{
																	"source" : [ "obj-11", 0 ],
																	"destination" : [ "obj-6", 0 ],
																	"hidden" : 0,
																	"midpoints" : [  ]
																}

															}
, 															{
																"patchline" : 																{
																	"source" : [ "obj-10", 0 ],
																	"destination" : [ "obj-9", 0 ],
																	"hidden" : 0,
																	"midpoints" : [  ]
																}

															}
, 															{
																"patchline" : 																{
																	"source" : [ "obj-1", 0 ],
																	"destination" : [ "obj-9", 1 ],
																	"hidden" : 0,
																	"midpoints" : [  ]
																}

															}
, 															{
																"patchline" : 																{
																	"source" : [ "obj-8", 0 ],
																	"destination" : [ "obj-1", 7 ],
																	"hidden" : 0,
																	"midpoints" : [  ]
																}

															}
, 															{
																"patchline" : 																{
																	"source" : [ "obj-6", 0 ],
																	"destination" : [ "obj-1", 5 ],
																	"hidden" : 0,
																	"midpoints" : [  ]
																}

															}
, 															{
																"patchline" : 																{
																	"source" : [ "obj-4", 0 ],
																	"destination" : [ "obj-1", 0 ],
																	"hidden" : 0,
																	"midpoints" : [  ]
																}

															}
, 															{
																"patchline" : 																{
																	"source" : [ "obj-2", 0 ],
																	"destination" : [ "obj-4", 0 ],
																	"hidden" : 0,
																	"midpoints" : [  ]
																}

															}
, 															{
																"patchline" : 																{
																	"source" : [ "obj-5", 0 ],
																	"destination" : [ "obj-9", 0 ],
																	"hidden" : 0,
																	"midpoints" : [  ]
																}

															}
 ]
													}
,
													"saved_object_attributes" : 													{
														"fontname" : "Arial",
														"default_fontface" : 0,
														"globalpatchername" : "",
														"fontface" : 0,
														"fontsize" : 9.0,
														"default_fontname" : "Arial",
														"default_fontsize" : 9.0
													}

												}

											}
, 											{
												"box" : 												{
													"maxclass" : "inlet",
													"patching_rect" : [ 330.0, 240.0, 25.0, 25.0 ],
													"id" : "obj-16",
													"numinlets" : 0,
													"numoutlets" : 1,
													"outlettype" : [ "float" ],
													"comment" : ""
												}

											}
, 											{
												"box" : 												{
													"maxclass" : "newobj",
													"text" : "*~ 0.5",
													"patching_rect" : [ 265.0, 318.0, 79.0, 17.0 ],
													"fontname" : "Arial",
													"id" : "obj-15",
													"numinlets" : 2,
													"numoutlets" : 1,
													"fontsize" : 9.0,
													"outlettype" : [ "signal" ]
												}

											}
, 											{
												"box" : 												{
													"maxclass" : "inlet",
													"patching_rect" : [ 240.0, 60.0, 25.0, 25.0 ],
													"id" : "obj-14",
													"numinlets" : 0,
													"numoutlets" : 1,
													"outlettype" : [ "signal" ],
													"comment" : ""
												}

											}
, 											{
												"box" : 												{
													"maxclass" : "outlet",
													"patching_rect" : [ 220.0, 432.0, 25.0, 25.0 ],
													"id" : "obj-13",
													"numinlets" : 1,
													"numoutlets" : 0,
													"comment" : ""
												}

											}
, 											{
												"box" : 												{
													"maxclass" : "inlet",
													"patching_rect" : [ 285.0, 150.0, 25.0, 25.0 ],
													"id" : "obj-12",
													"numinlets" : 0,
													"numoutlets" : 1,
													"outlettype" : [ "float" ],
													"comment" : ""
												}

											}
, 											{
												"box" : 												{
													"maxclass" : "newobj",
													"text" : "tapout~ 1.",
													"patching_rect" : [ 270.0, 240.0, 51.0, 17.0 ],
													"fontname" : "Arial",
													"id" : "obj-9",
													"numinlets" : 1,
													"numoutlets" : 1,
													"fontsize" : 9.0,
													"outlettype" : [ "signal" ]
												}

											}
, 											{
												"box" : 												{
													"maxclass" : "flonum",
													"patching_rect" : [ 285.0, 210.0, 50.0, 17.0 ],
													"fontname" : "Arial",
													"id" : "obj-8",
													"numinlets" : 1,
													"numoutlets" : 2,
													"fontsize" : 9.0,
													"outlettype" : [ "float", "bang" ]
												}

											}
, 											{
												"box" : 												{
													"maxclass" : "newobj",
													"text" : "!/ 0.",
													"patching_rect" : [ 285.0, 180.0, 48.5, 17.0 ],
													"fontname" : "Arial",
													"id" : "obj-3",
													"numinlets" : 2,
													"numoutlets" : 1,
													"fontsize" : 9.0,
													"outlettype" : [ "float" ]
												}

											}
, 											{
												"box" : 												{
													"maxclass" : "newobj",
													"text" : "r onebar",
													"patching_rect" : [ 315.0, 75.0, 44.0, 17.0 ],
													"fontname" : "Arial",
													"id" : "obj-19",
													"numinlets" : 0,
													"numoutlets" : 1,
													"fontsize" : 9.0,
													"outlettype" : [ "" ]
												}

											}
, 											{
												"box" : 												{
													"maxclass" : "newobj",
													"text" : "tapin~ 0.",
													"patching_rect" : [ 270.0, 120.0, 45.0, 17.0 ],
													"fontname" : "Arial",
													"id" : "obj-1",
													"numinlets" : 1,
													"numoutlets" : 1,
													"fontsize" : 9.0,
													"outlettype" : [ "tapconnect" ]
												}

											}
 ],
										"lines" : [ 											{
												"patchline" : 												{
													"source" : [ "obj-6", 0 ],
													"destination" : [ "obj-15", 1 ],
													"hidden" : 0,
													"midpoints" : [  ]
												}

											}
, 											{
												"patchline" : 												{
													"source" : [ "obj-16", 0 ],
													"destination" : [ "obj-6", 0 ],
													"hidden" : 0,
													"midpoints" : [  ]
												}

											}
, 											{
												"patchline" : 												{
													"source" : [ "obj-5", 0 ],
													"destination" : [ "obj-2", 1 ],
													"hidden" : 0,
													"midpoints" : [  ]
												}

											}
, 											{
												"patchline" : 												{
													"source" : [ "obj-7", 0 ],
													"destination" : [ "obj-5", 0 ],
													"hidden" : 0,
													"midpoints" : [  ]
												}

											}
, 											{
												"patchline" : 												{
													"source" : [ "obj-15", 0 ],
													"destination" : [ "obj-2", 0 ],
													"hidden" : 0,
													"midpoints" : [  ]
												}

											}
, 											{
												"patchline" : 												{
													"source" : [ "obj-15", 0 ],
													"destination" : [ "obj-1", 0 ],
													"hidden" : 0,
													"midpoints" : [  ]
												}

											}
, 											{
												"patchline" : 												{
													"source" : [ "obj-9", 0 ],
													"destination" : [ "obj-15", 0 ],
													"hidden" : 0,
													"midpoints" : [  ]
												}

											}
, 											{
												"patchline" : 												{
													"source" : [ "obj-14", 0 ],
													"destination" : [ "obj-1", 0 ],
													"hidden" : 0,
													"midpoints" : [  ]
												}

											}
, 											{
												"patchline" : 												{
													"source" : [ "obj-14", 0 ],
													"destination" : [ "obj-13", 0 ],
													"hidden" : 0,
													"midpoints" : [  ]
												}

											}
, 											{
												"patchline" : 												{
													"source" : [ "obj-12", 0 ],
													"destination" : [ "obj-3", 0 ],
													"hidden" : 0,
													"midpoints" : [  ]
												}

											}
, 											{
												"patchline" : 												{
													"source" : [ "obj-8", 0 ],
													"destination" : [ "obj-9", 0 ],
													"hidden" : 0,
													"midpoints" : [  ]
												}

											}
, 											{
												"patchline" : 												{
													"source" : [ "obj-1", 0 ],
													"destination" : [ "obj-9", 0 ],
													"hidden" : 0,
													"midpoints" : [  ]
												}

											}
, 											{
												"patchline" : 												{
													"source" : [ "obj-19", 0 ],
													"destination" : [ "obj-1", 0 ],
													"hidden" : 0,
													"midpoints" : [  ]
												}

											}
, 											{
												"patchline" : 												{
													"source" : [ "obj-3", 0 ],
													"destination" : [ "obj-8", 0 ],
													"hidden" : 0,
													"midpoints" : [  ]
												}

											}
, 											{
												"patchline" : 												{
													"source" : [ "obj-19", 0 ],
													"destination" : [ "obj-3", 1 ],
													"hidden" : 0,
													"midpoints" : [  ]
												}

											}
, 											{
												"patchline" : 												{
													"source" : [ "obj-10", 0 ],
													"destination" : [ "obj-2", 2 ],
													"hidden" : 0,
													"midpoints" : [  ]
												}

											}
, 											{
												"patchline" : 												{
													"source" : [ "obj-2", 0 ],
													"destination" : [ "obj-13", 0 ],
													"hidden" : 0,
													"midpoints" : [  ]
												}

											}
 ]
									}
,
									"saved_object_attributes" : 									{
										"fontname" : "Arial",
										"default_fontface" : 0,
										"globalpatchername" : "",
										"fontface" : 0,
										"fontsize" : 9.0,
										"default_fontname" : "Arial",
										"default_fontsize" : 9.0
									}

								}

							}
 ],
						"lines" : [ 							{
								"patchline" : 								{
									"source" : [ "obj-23", 0 ],
									"destination" : [ "obj-24", 0 ],
									"hidden" : 0,
									"midpoints" : [  ]
								}

							}
, 							{
								"patchline" : 								{
									"source" : [ "obj-24", 0 ],
									"destination" : [ "obj-101", 1 ],
									"hidden" : 0,
									"midpoints" : [  ]
								}

							}
, 							{
								"patchline" : 								{
									"source" : [ "obj-18", 0 ],
									"destination" : [ "obj-6", 0 ],
									"hidden" : 0,
									"midpoints" : [  ]
								}

							}
, 							{
								"patchline" : 								{
									"source" : [ "obj-19", 0 ],
									"destination" : [ "obj-5", 0 ],
									"hidden" : 0,
									"midpoints" : [  ]
								}

							}
, 							{
								"patchline" : 								{
									"source" : [ "obj-16", 0 ],
									"destination" : [ "obj-25", 0 ],
									"hidden" : 0,
									"midpoints" : [ 189.5, 150.0, 84.5, 150.0 ]
								}

							}
, 							{
								"patchline" : 								{
									"source" : [ "obj-101", 0 ],
									"destination" : [ "obj-22", 2 ],
									"hidden" : 0,
									"midpoints" : [  ]
								}

							}
, 							{
								"patchline" : 								{
									"source" : [ "obj-9", 0 ],
									"destination" : [ "obj-22", 1 ],
									"hidden" : 0,
									"midpoints" : [ 159.5, 150.0, 122.0, 150.0 ]
								}

							}
, 							{
								"patchline" : 								{
									"source" : [ "obj-25", 0 ],
									"destination" : [ "obj-20", 0 ],
									"hidden" : 0,
									"midpoints" : [  ]
								}

							}
, 							{
								"patchline" : 								{
									"source" : [ "obj-22", 0 ],
									"destination" : [ "obj-17", 0 ],
									"hidden" : 0,
									"midpoints" : [  ]
								}

							}
, 							{
								"patchline" : 								{
									"source" : [ "obj-20", 0 ],
									"destination" : [ "obj-22", 0 ],
									"hidden" : 0,
									"midpoints" : [  ]
								}

							}
, 							{
								"patchline" : 								{
									"source" : [ "obj-21", 0 ],
									"destination" : [ "obj-22", 0 ],
									"hidden" : 0,
									"midpoints" : [ 24.5, 248.0, 84.5, 248.0 ]
								}

							}
, 							{
								"patchline" : 								{
									"source" : [ "obj-9", 0 ],
									"destination" : [ "obj-101", 0 ],
									"hidden" : 0,
									"midpoints" : [  ]
								}

							}
, 							{
								"patchline" : 								{
									"source" : [ "obj-6", 0 ],
									"destination" : [ "obj-101", 3 ],
									"hidden" : 0,
									"midpoints" : [  ]
								}

							}
, 							{
								"patchline" : 								{
									"source" : [ "obj-5", 0 ],
									"destination" : [ "obj-101", 2 ],
									"hidden" : 0,
									"midpoints" : [  ]
								}

							}
 ]
					}
,
					"saved_object_attributes" : 					{
						"fontname" : "Arial",
						"default_fontface" : 0,
						"globalpatchername" : "",
						"fontface" : 0,
						"fontsize" : 9.0,
						"default_fontname" : "Arial",
						"default_fontsize" : 9.0
					}

				}

			}
, 			{
				"box" : 				{
					"maxclass" : "toggle",
					"patching_rect" : [ 75.0, 300.0, 20.0, 20.0 ],
					"presentation" : 1,
					"id" : "obj-26",
					"numinlets" : 1,
					"numoutlets" : 1,
					"presentation_rect" : [ 0.0, 60.0, 27.0, 27.0 ],
					"outlettype" : [ "int" ]
				}

			}
, 			{
				"box" : 				{
					"maxclass" : "newobj",
					"text" : "p distortion",
					"patching_rect" : [ 15.0, 330.0, 139.0, 17.0 ],
					"fontname" : "Arial",
					"id" : "obj-24",
					"numinlets" : 4,
					"numoutlets" : 1,
					"fontsize" : 9.0,
					"outlettype" : [ "signal" ],
					"patcher" : 					{
						"fileversion" : 1,
						"rect" : [ 74.0, 69.0, 640.0, 480.0 ],
						"bglocked" : 0,
						"defrect" : [ 74.0, 69.0, 640.0, 480.0 ],
						"openrect" : [ 0.0, 0.0, 0.0, 0.0 ],
						"openinpresentation" : 0,
						"default_fontsize" : 9.0,
						"default_fontface" : 0,
						"default_fontname" : "Arial",
						"gridonopen" : 0,
						"gridsize" : [ 15.0, 15.0 ],
						"gridsnaponopen" : 0,
						"toolbarvisible" : 1,
						"boxanimatetime" : 200,
						"imprint" : 0,
						"metadata" : [  ],
						"boxes" : [ 							{
								"box" : 								{
									"maxclass" : "newobj",
									"text" : "zmap 0 127 1 24",
									"patching_rect" : [ 378.0, 136.0, 78.0, 17.0 ],
									"fontname" : "Arial",
									"id" : "obj-11",
									"numinlets" : 5,
									"numoutlets" : 1,
									"fontsize" : 9.0,
									"outlettype" : [ "float" ]
								}

							}
, 							{
								"box" : 								{
									"maxclass" : "newobj",
									"text" : "/ 100.",
									"patching_rect" : [ 272.0, 162.0, 33.0, 17.0 ],
									"fontname" : "Arial",
									"id" : "obj-10",
									"numinlets" : 2,
									"numoutlets" : 1,
									"fontsize" : 9.0,
									"outlettype" : [ "float" ]
								}

							}
, 							{
								"box" : 								{
									"maxclass" : "newobj",
									"text" : "zmap 0 127 0 100",
									"patching_rect" : [ 272.0, 126.0, 83.0, 17.0 ],
									"fontname" : "Arial",
									"id" : "obj-9",
									"numinlets" : 5,
									"numoutlets" : 1,
									"fontsize" : 9.0,
									"outlettype" : [ "float" ]
								}

							}
, 							{
								"box" : 								{
									"maxclass" : "inlet",
									"patching_rect" : [ 309.0, 62.0, 25.0, 25.0 ],
									"id" : "obj-2",
									"numinlets" : 0,
									"numoutlets" : 1,
									"outlettype" : [ "float" ],
									"comment" : ""
								}

							}
, 							{
								"box" : 								{
									"maxclass" : "newobj",
									"text" : "degrade~",
									"patching_rect" : [ 179.0, 135.0, 49.0, 17.0 ],
									"fontname" : "Arial",
									"id" : "obj-19",
									"numinlets" : 3,
									"numoutlets" : 1,
									"fontsize" : 9.0,
									"outlettype" : [ "signal" ]
								}

							}
, 							{
								"box" : 								{
									"maxclass" : "comment",
									"text" : "Amount",
									"patching_rect" : [ 270.0, 30.0, 43.0, 17.0 ],
									"fontname" : "Arial",
									"id" : "obj-6",
									"numinlets" : 1,
									"numoutlets" : 0,
									"fontsize" : 9.0
								}

							}
, 							{
								"box" : 								{
									"maxclass" : "inlet",
									"patching_rect" : [ 270.0, 60.0, 25.0, 25.0 ],
									"id" : "obj-7",
									"numinlets" : 0,
									"numoutlets" : 1,
									"outlettype" : [ "float" ],
									"comment" : ""
								}

							}
, 							{
								"box" : 								{
									"maxclass" : "comment",
									"text" : "Toggle",
									"patching_rect" : [ 225.0, 30.0, 36.0, 17.0 ],
									"fontname" : "Arial",
									"id" : "obj-29",
									"numinlets" : 1,
									"numoutlets" : 0,
									"fontsize" : 9.0
								}

							}
, 							{
								"box" : 								{
									"maxclass" : "comment",
									"text" : "Signal",
									"patching_rect" : [ 165.0, 30.0, 36.0, 17.0 ],
									"fontname" : "Arial",
									"id" : "obj-27",
									"numinlets" : 1,
									"numoutlets" : 0,
									"fontsize" : 9.0
								}

							}
, 							{
								"box" : 								{
									"maxclass" : "toggle",
									"patching_rect" : [ 90.0, 120.0, 20.0, 20.0 ],
									"id" : "obj-25",
									"numinlets" : 1,
									"numoutlets" : 1,
									"outlettype" : [ "int" ]
								}

							}
, 							{
								"box" : 								{
									"maxclass" : "inlet",
									"patching_rect" : [ 225.0, 60.0, 25.0, 25.0 ],
									"id" : "obj-23",
									"numinlets" : 0,
									"numoutlets" : 1,
									"outlettype" : [ "int" ],
									"comment" : ""
								}

							}
, 							{
								"box" : 								{
									"maxclass" : "newobj",
									"text" : "+ 1",
									"patching_rect" : [ 90.0, 150.0, 32.5, 17.0 ],
									"fontname" : "Arial",
									"id" : "obj-20",
									"numinlets" : 2,
									"numoutlets" : 1,
									"fontsize" : 9.0,
									"outlettype" : [ "int" ]
								}

							}
, 							{
								"box" : 								{
									"maxclass" : "newobj",
									"text" : "loadmess 1",
									"patching_rect" : [ 30.0, 150.0, 57.0, 17.0 ],
									"fontname" : "Arial",
									"id" : "obj-21",
									"numinlets" : 1,
									"numoutlets" : 1,
									"fontsize" : 9.0,
									"outlettype" : [ "" ]
								}

							}
, 							{
								"box" : 								{
									"maxclass" : "newobj",
									"text" : "selector~ 2",
									"patching_rect" : [ 90.0, 180.0, 94.0, 17.0 ],
									"fontname" : "Arial",
									"id" : "obj-22",
									"numinlets" : 3,
									"numoutlets" : 1,
									"fontsize" : 9.0,
									"outlettype" : [ "signal" ]
								}

							}
, 							{
								"box" : 								{
									"maxclass" : "outlet",
									"patching_rect" : [ 90.0, 210.0, 25.0, 25.0 ],
									"id" : "obj-17",
									"numinlets" : 1,
									"numoutlets" : 0,
									"comment" : ""
								}

							}
, 							{
								"box" : 								{
									"maxclass" : "inlet",
									"patching_rect" : [ 165.0, 60.0, 25.0, 25.0 ],
									"id" : "obj-1",
									"numinlets" : 0,
									"numoutlets" : 1,
									"outlettype" : [ "signal" ],
									"comment" : ""
								}

							}
 ],
						"lines" : [ 							{
								"patchline" : 								{
									"source" : [ "obj-11", 0 ],
									"destination" : [ "obj-19", 2 ],
									"hidden" : 0,
									"midpoints" : [  ]
								}

							}
, 							{
								"patchline" : 								{
									"source" : [ "obj-2", 0 ],
									"destination" : [ "obj-11", 0 ],
									"hidden" : 0,
									"midpoints" : [  ]
								}

							}
, 							{
								"patchline" : 								{
									"source" : [ "obj-10", 0 ],
									"destination" : [ "obj-19", 1 ],
									"hidden" : 0,
									"midpoints" : [  ]
								}

							}
, 							{
								"patchline" : 								{
									"source" : [ "obj-9", 0 ],
									"destination" : [ "obj-10", 0 ],
									"hidden" : 0,
									"midpoints" : [  ]
								}

							}
, 							{
								"patchline" : 								{
									"source" : [ "obj-7", 0 ],
									"destination" : [ "obj-9", 0 ],
									"hidden" : 0,
									"midpoints" : [  ]
								}

							}
, 							{
								"patchline" : 								{
									"source" : [ "obj-23", 0 ],
									"destination" : [ "obj-25", 0 ],
									"hidden" : 0,
									"midpoints" : [ 234.5, 105.0, 99.5, 105.0 ]
								}

							}
, 							{
								"patchline" : 								{
									"source" : [ "obj-25", 0 ],
									"destination" : [ "obj-20", 0 ],
									"hidden" : 0,
									"midpoints" : [  ]
								}

							}
, 							{
								"patchline" : 								{
									"source" : [ "obj-22", 0 ],
									"destination" : [ "obj-17", 0 ],
									"hidden" : 0,
									"midpoints" : [  ]
								}

							}
, 							{
								"patchline" : 								{
									"source" : [ "obj-20", 0 ],
									"destination" : [ "obj-22", 0 ],
									"hidden" : 0,
									"midpoints" : [  ]
								}

							}
, 							{
								"patchline" : 								{
									"source" : [ "obj-21", 0 ],
									"destination" : [ "obj-22", 0 ],
									"hidden" : 0,
									"midpoints" : [ 39.5, 173.0, 99.5, 173.0 ]
								}

							}
, 							{
								"patchline" : 								{
									"source" : [ "obj-1", 0 ],
									"destination" : [ "obj-22", 1 ],
									"hidden" : 0,
									"midpoints" : [ 174.5, 135.0, 137.0, 135.0 ]
								}

							}
, 							{
								"patchline" : 								{
									"source" : [ "obj-1", 0 ],
									"destination" : [ "obj-19", 0 ],
									"hidden" : 0,
									"midpoints" : [  ]
								}

							}
, 							{
								"patchline" : 								{
									"source" : [ "obj-19", 0 ],
									"destination" : [ "obj-22", 2 ],
									"hidden" : 0,
									"midpoints" : [  ]
								}

							}
 ]
					}
,
					"saved_object_attributes" : 					{
						"fontname" : "Arial",
						"default_fontface" : 0,
						"globalpatchername" : "",
						"fontface" : 0,
						"fontsize" : 9.0,
						"default_fontname" : "Arial",
						"default_fontsize" : 9.0
					}

				}

			}
, 			{
				"box" : 				{
					"maxclass" : "outlet",
					"patching_rect" : [ 105.0, 540.0, 25.0, 25.0 ],
					"id" : "obj-23",
					"numinlets" : 1,
					"numoutlets" : 0,
					"comment" : ""
				}

			}
, 			{
				"box" : 				{
					"maxclass" : "dial",
					"patching_rect" : [ 105.0, 465.0, 40.0, 40.0 ],
					"presentation" : 1,
					"id" : "obj-22",
					"numinlets" : 1,
					"numoutlets" : 1,
					"presentation_rect" : [ 30.0, 150.0, 30.0, 30.0 ],
					"outlettype" : [ "float" ]
				}

			}
, 			{
				"box" : 				{
					"maxclass" : "toggle",
					"patching_rect" : [ 60.0, 480.0, 20.0, 20.0 ],
					"presentation" : 1,
					"id" : "obj-21",
					"numinlets" : 1,
					"numoutlets" : 1,
					"presentation_rect" : [ 0.0, 150.0, 27.0, 27.0 ],
					"outlettype" : [ "int" ]
				}

			}
, 			{
				"box" : 				{
					"maxclass" : "newobj",
					"text" : "p pan",
					"patching_rect" : [ 15.0, 510.0, 109.0, 17.0 ],
					"fontname" : "Arial",
					"id" : "obj-20",
					"numinlets" : 3,
					"numoutlets" : 2,
					"fontsize" : 9.0,
					"outlettype" : [ "signal", "signal" ],
					"patcher" : 					{
						"fileversion" : 1,
						"rect" : [ 494.0, 103.0, 383.0, 257.0 ],
						"bglocked" : 0,
						"defrect" : [ 494.0, 103.0, 383.0, 257.0 ],
						"openrect" : [ 0.0, 0.0, 0.0, 0.0 ],
						"openinpresentation" : 0,
						"default_fontsize" : 9.0,
						"default_fontface" : 0,
						"default_fontname" : "Arial",
						"gridonopen" : 0,
						"gridsize" : [ 15.0, 15.0 ],
						"gridsnaponopen" : 0,
						"toolbarvisible" : 1,
						"boxanimatetime" : 200,
						"imprint" : 0,
						"visible" : 1,
						"metadata" : [  ],
						"boxes" : [ 							{
								"box" : 								{
									"maxclass" : "newobj",
									"text" : "selector~ 2",
									"patching_rect" : [ 240.0, 165.0, 87.0, 17.0 ],
									"fontname" : "Arial",
									"id" : "obj-8",
									"numinlets" : 3,
									"numoutlets" : 1,
									"fontsize" : 9.0,
									"outlettype" : [ "signal" ]
								}

							}
, 							{
								"box" : 								{
									"maxclass" : "outlet",
									"patching_rect" : [ 240.0, 195.0, 25.0, 25.0 ],
									"id" : "obj-9",
									"numinlets" : 1,
									"numoutlets" : 0,
									"comment" : ""
								}

							}
, 							{
								"box" : 								{
									"maxclass" : "comment",
									"text" : "Amount",
									"patching_rect" : [ 255.0, 15.0, 43.0, 17.0 ],
									"fontname" : "Arial",
									"id" : "obj-6",
									"numinlets" : 1,
									"numoutlets" : 0,
									"fontsize" : 9.0
								}

							}
, 							{
								"box" : 								{
									"maxclass" : "inlet",
									"patching_rect" : [ 255.0, 45.0, 25.0, 25.0 ],
									"id" : "obj-7",
									"numinlets" : 0,
									"numoutlets" : 1,
									"outlettype" : [ "float" ],
									"comment" : ""
								}

							}
, 							{
								"box" : 								{
									"maxclass" : "newobj",
									"text" : "pan2",
									"patching_rect" : [ 150.0, 135.0, 176.5, 17.0 ],
									"fontname" : "Arial",
									"id" : "obj-4",
									"numinlets" : 4,
									"numoutlets" : 2,
									"fontsize" : 9.0,
									"outlettype" : [ "signal", "signal" ]
								}

							}
, 							{
								"box" : 								{
									"maxclass" : "comment",
									"text" : "Toggle",
									"patching_rect" : [ 210.0, 15.0, 36.0, 17.0 ],
									"fontname" : "Arial",
									"id" : "obj-29",
									"numinlets" : 1,
									"numoutlets" : 0,
									"fontsize" : 9.0
								}

							}
, 							{
								"box" : 								{
									"maxclass" : "comment",
									"text" : "Signal",
									"patching_rect" : [ 150.0, 15.0, 36.0, 17.0 ],
									"fontname" : "Arial",
									"id" : "obj-27",
									"numinlets" : 1,
									"numoutlets" : 0,
									"fontsize" : 9.0
								}

							}
, 							{
								"box" : 								{
									"maxclass" : "toggle",
									"patching_rect" : [ 75.0, 105.0, 20.0, 20.0 ],
									"id" : "obj-25",
									"numinlets" : 1,
									"numoutlets" : 1,
									"outlettype" : [ "int" ]
								}

							}
, 							{
								"box" : 								{
									"maxclass" : "inlet",
									"patching_rect" : [ 210.0, 45.0, 25.0, 25.0 ],
									"id" : "obj-23",
									"numinlets" : 0,
									"numoutlets" : 1,
									"outlettype" : [ "int" ],
									"comment" : ""
								}

							}
, 							{
								"box" : 								{
									"maxclass" : "newobj",
									"text" : "+ 1",
									"patching_rect" : [ 75.0, 135.0, 32.5, 17.0 ],
									"fontname" : "Arial",
									"id" : "obj-20",
									"numinlets" : 2,
									"numoutlets" : 1,
									"fontsize" : 9.0,
									"outlettype" : [ "int" ]
								}

							}
, 							{
								"box" : 								{
									"maxclass" : "newobj",
									"text" : "loadmess 1",
									"patching_rect" : [ 15.0, 135.0, 57.0, 17.0 ],
									"fontname" : "Arial",
									"id" : "obj-21",
									"numinlets" : 1,
									"numoutlets" : 1,
									"fontsize" : 9.0,
									"outlettype" : [ "" ]
								}

							}
, 							{
								"box" : 								{
									"maxclass" : "newobj",
									"text" : "selector~ 2",
									"patching_rect" : [ 75.0, 165.0, 94.0, 17.0 ],
									"fontname" : "Arial",
									"id" : "obj-22",
									"numinlets" : 3,
									"numoutlets" : 1,
									"fontsize" : 9.0,
									"outlettype" : [ "signal" ]
								}

							}
, 							{
								"box" : 								{
									"maxclass" : "outlet",
									"patching_rect" : [ 75.0, 195.0, 25.0, 25.0 ],
									"id" : "obj-17",
									"numinlets" : 1,
									"numoutlets" : 0,
									"comment" : ""
								}

							}
, 							{
								"box" : 								{
									"maxclass" : "inlet",
									"patching_rect" : [ 150.0, 45.0, 25.0, 25.0 ],
									"id" : "obj-1",
									"numinlets" : 0,
									"numoutlets" : 1,
									"outlettype" : [ "signal" ],
									"comment" : ""
								}

							}
 ],
						"lines" : [ 							{
								"patchline" : 								{
									"source" : [ "obj-1", 0 ],
									"destination" : [ "obj-4", 0 ],
									"hidden" : 0,
									"midpoints" : [  ]
								}

							}
, 							{
								"patchline" : 								{
									"source" : [ "obj-1", 0 ],
									"destination" : [ "obj-8", 1 ],
									"hidden" : 0,
									"midpoints" : [ 159.5, 120.0, 122.0, 120.0, 122.0, 158.0, 283.5, 158.0 ]
								}

							}
, 							{
								"patchline" : 								{
									"source" : [ "obj-1", 0 ],
									"destination" : [ "obj-22", 1 ],
									"hidden" : 0,
									"midpoints" : [ 159.5, 120.0, 122.0, 120.0 ]
								}

							}
, 							{
								"patchline" : 								{
									"source" : [ "obj-7", 0 ],
									"destination" : [ "obj-4", 2 ],
									"hidden" : 0,
									"midpoints" : [  ]
								}

							}
, 							{
								"patchline" : 								{
									"source" : [ "obj-4", 1 ],
									"destination" : [ "obj-8", 2 ],
									"hidden" : 0,
									"midpoints" : [  ]
								}

							}
, 							{
								"patchline" : 								{
									"source" : [ "obj-4", 0 ],
									"destination" : [ "obj-22", 2 ],
									"hidden" : 0,
									"midpoints" : [  ]
								}

							}
, 							{
								"patchline" : 								{
									"source" : [ "obj-21", 0 ],
									"destination" : [ "obj-8", 0 ],
									"hidden" : 0,
									"midpoints" : [ 24.5, 158.0, 195.0, 158.0, 195.0, 158.0, 249.5, 158.0 ]
								}

							}
, 							{
								"patchline" : 								{
									"source" : [ "obj-20", 0 ],
									"destination" : [ "obj-8", 0 ],
									"hidden" : 0,
									"midpoints" : [ 84.5, 158.0, 225.0, 158.0, 225.0, 158.0, 249.5, 158.0 ]
								}

							}
, 							{
								"patchline" : 								{
									"source" : [ "obj-8", 0 ],
									"destination" : [ "obj-9", 0 ],
									"hidden" : 0,
									"midpoints" : [  ]
								}

							}
, 							{
								"patchline" : 								{
									"source" : [ "obj-21", 0 ],
									"destination" : [ "obj-22", 0 ],
									"hidden" : 0,
									"midpoints" : [ 24.5, 158.0, 84.5, 158.0 ]
								}

							}
, 							{
								"patchline" : 								{
									"source" : [ "obj-20", 0 ],
									"destination" : [ "obj-22", 0 ],
									"hidden" : 0,
									"midpoints" : [  ]
								}

							}
, 							{
								"patchline" : 								{
									"source" : [ "obj-22", 0 ],
									"destination" : [ "obj-17", 0 ],
									"hidden" : 0,
									"midpoints" : [  ]
								}

							}
, 							{
								"patchline" : 								{
									"source" : [ "obj-25", 0 ],
									"destination" : [ "obj-20", 0 ],
									"hidden" : 0,
									"midpoints" : [  ]
								}

							}
, 							{
								"patchline" : 								{
									"source" : [ "obj-23", 0 ],
									"destination" : [ "obj-25", 0 ],
									"hidden" : 0,
									"midpoints" : [ 219.5, 90.0, 84.5, 90.0 ]
								}

							}
 ]
					}
,
					"saved_object_attributes" : 					{
						"fontname" : "Arial",
						"default_fontface" : 0,
						"globalpatchername" : "",
						"fontface" : 0,
						"fontsize" : 9.0,
						"default_fontname" : "Arial",
						"default_fontsize" : 9.0
					}

				}

			}
, 			{
				"box" : 				{
					"maxclass" : "filtergraph~",
					"patching_rect" : [ 255.0, 165.0, 133.0, 80.0 ],
					"presentation" : 1,
					"id" : "obj-19",
					"numinlets" : 8,
					"numoutlets" : 7,
					"presentation_rect" : [ 90.0, 15.0, 78.0, 32.0 ],
					"outlettype" : [ "list", "float", "float", "float", "float", "list", "int" ],
					"nfilters" : 1,
					"setfilter" : [ 0, 0, 1, 0, 0, 40.0, 1.0, 2.5, 0.0, 0.0, 0.0, 0.0, 0.0, 0.0 ]
				}

			}
, 			{
				"box" : 				{
					"maxclass" : "dial",
					"patching_rect" : [ 255.0, 90.0, 40.0, 40.0 ],
					"presentation" : 1,
					"id" : "obj-18",
					"numinlets" : 1,
					"numoutlets" : 1,
					"presentation_rect" : [ 60.0, 15.0, 30.0, 30.0 ],
					"outlettype" : [ "float" ]
				}

			}
, 			{
				"box" : 				{
					"maxclass" : "dial",
					"patching_rect" : [ 195.0, 90.0, 40.0, 40.0 ],
					"presentation" : 1,
					"id" : "obj-17",
					"numinlets" : 1,
					"numoutlets" : 1,
					"presentation_rect" : [ 30.0, 15.0, 30.0, 30.0 ],
					"outlettype" : [ "float" ]
				}

			}
, 			{
				"box" : 				{
					"maxclass" : "toggle",
					"patching_rect" : [ 75.0, 105.0, 20.0, 20.0 ],
					"presentation" : 1,
					"id" : "obj-16",
					"numinlets" : 1,
					"numoutlets" : 1,
					"presentation_rect" : [ 0.0, 15.0, 27.0, 27.0 ],
					"outlettype" : [ "int" ]
				}

			}
, 			{
				"box" : 				{
					"maxclass" : "umenu",
					"rounded" : 0,
					"patching_rect" : [ 105.0, 105.0, 70.0, 17.0 ],
					"presentation" : 1,
					"fontname" : "Arial",
					"id" : "obj-47",
					"numinlets" : 1,
					"numoutlets" : 3,
					"fontsize" : 9.0,
					"presentation_rect" : [ 90.0, 0.0, 78.0, 17.0 ],
					"outlettype" : [ "int", "", "" ],
					"types" : [  ],
					"items" : [ "display", ",", "lowpass", ",", "highpass", ",", "bandpass", ",", "bandstop", ",", "peaknotch", ",", "lowshelf", ",", "highshelf", ",", "resonant", ",", "allpass" ]
				}

			}
, 			{
				"box" : 				{
					"maxclass" : "newobj",
					"text" : "p filter",
					"patching_rect" : [ 15.0, 135.0, 259.0, 17.0 ],
					"fontname" : "Arial",
					"id" : "obj-14",
					"numinlets" : 5,
					"numoutlets" : 2,
					"fontsize" : 9.0,
					"outlettype" : [ "signal", "list" ],
					"patcher" : 					{
						"fileversion" : 1,
						"rect" : [ 548.0, 271.0, 531.0, 342.0 ],
						"bglocked" : 0,
						"defrect" : [ 548.0, 271.0, 531.0, 342.0 ],
						"openrect" : [ 0.0, 0.0, 0.0, 0.0 ],
						"openinpresentation" : 0,
						"default_fontsize" : 9.0,
						"default_fontface" : 0,
						"default_fontname" : "Arial",
						"gridonopen" : 0,
						"gridsize" : [ 15.0, 15.0 ],
						"gridsnaponopen" : 0,
						"toolbarvisible" : 1,
						"boxanimatetime" : 200,
						"imprint" : 0,
						"metadata" : [  ],
						"boxes" : [ 							{
								"box" : 								{
									"maxclass" : "newobj",
									"text" : "p res",
									"patching_rect" : [ 465.0, 75.0, 31.0, 17.0 ],
									"fontname" : "Arial",
									"id" : "obj-77",
									"numinlets" : 1,
									"numoutlets" : 1,
									"fontsize" : 9.0,
									"outlettype" : [ "float" ],
									"patcher" : 									{
										"fileversion" : 1,
										"rect" : [ 25.0, 69.0, 640.0, 480.0 ],
										"bglocked" : 0,
										"defrect" : [ 25.0, 69.0, 640.0, 480.0 ],
										"openrect" : [ 0.0, 0.0, 0.0, 0.0 ],
										"openinpresentation" : 0,
										"default_fontsize" : 9.0,
										"default_fontface" : 0,
										"default_fontname" : "Arial",
										"gridonopen" : 0,
										"gridsize" : [ 15.0, 15.0 ],
										"gridsnaponopen" : 0,
										"toolbarvisible" : 1,
										"boxanimatetime" : 200,
										"imprint" : 0,
										"metadata" : [  ],
										"boxes" : [ 											{
												"box" : 												{
													"maxclass" : "newobj",
													"text" : "scale 0 127 -32 32",
													"patching_rect" : [ 94.0, 89.0, 86.5, 17.0 ],
													"fontname" : "Arial",
													"id" : "obj-20",
													"numinlets" : 6,
													"numoutlets" : 1,
													"fontsize" : 9.0,
													"outlettype" : [ "int" ]
												}

											}
, 											{
												"box" : 												{
													"maxclass" : "outlet",
													"patching_rect" : [ 92.0, 272.0, 25.0, 25.0 ],
													"id" : "obj-2",
													"numinlets" : 1,
													"numoutlets" : 0,
													"comment" : ""
												}

											}
, 											{
												"box" : 												{
													"maxclass" : "inlet",
													"patching_rect" : [ 93.0, 45.0, 25.0, 25.0 ],
													"id" : "obj-1",
													"numinlets" : 0,
													"numoutlets" : 1,
													"outlettype" : [ "float" ],
													"comment" : ""
												}

											}
, 											{
												"box" : 												{
													"maxclass" : "number",
													"patching_rect" : [ 92.0, 125.0, 50.0, 18.0 ],
													"fontname" : "Arial",
													"id" : "obj-33",
													"numinlets" : 1,
													"numoutlets" : 2,
													"fontsize" : 10.0,
													"outlettype" : [ "int", "bang" ]
												}

											}
, 											{
												"box" : 												{
													"maxclass" : "newobj",
													"text" : "/ 8.1758",
													"patching_rect" : [ 92.0, 215.0, 47.0, 18.0 ],
													"fontname" : "Arial",
													"id" : "obj-34",
													"numinlets" : 2,
													"numoutlets" : 1,
													"fontsize" : 10.0,
													"outlettype" : [ "float" ]
												}

											}
, 											{
												"box" : 												{
													"maxclass" : "flonum",
													"patching_rect" : [ 92.0, 185.0, 50.0, 18.0 ],
													"fontname" : "Arial",
													"id" : "obj-35",
													"numinlets" : 1,
													"numoutlets" : 2,
													"fontsize" : 10.0,
													"outlettype" : [ "float", "bang" ]
												}

											}
, 											{
												"box" : 												{
													"maxclass" : "newobj",
													"text" : "mtof",
													"patching_rect" : [ 92.0, 155.0, 30.0, 18.0 ],
													"fontname" : "Arial",
													"id" : "obj-36",
													"numinlets" : 1,
													"numoutlets" : 1,
													"fontsize" : 10.0,
													"outlettype" : [ "" ]
												}

											}
, 											{
												"box" : 												{
													"maxclass" : "flonum",
													"patching_rect" : [ 92.0, 245.0, 50.0, 18.0 ],
													"fontname" : "Arial",
													"id" : "obj-37",
													"numinlets" : 1,
													"numoutlets" : 2,
													"fontsize" : 10.0,
													"outlettype" : [ "float", "bang" ]
												}

											}
 ],
										"lines" : [ 											{
												"patchline" : 												{
													"source" : [ "obj-1", 0 ],
													"destination" : [ "obj-20", 0 ],
													"hidden" : 0,
													"midpoints" : [  ]
												}

											}
, 											{
												"patchline" : 												{
													"source" : [ "obj-20", 0 ],
													"destination" : [ "obj-33", 0 ],
													"hidden" : 0,
													"midpoints" : [  ]
												}

											}
, 											{
												"patchline" : 												{
													"source" : [ "obj-37", 0 ],
													"destination" : [ "obj-2", 0 ],
													"hidden" : 0,
													"midpoints" : [  ]
												}

											}
, 											{
												"patchline" : 												{
													"source" : [ "obj-33", 0 ],
													"destination" : [ "obj-36", 0 ],
													"hidden" : 0,
													"midpoints" : [  ]
												}

											}
, 											{
												"patchline" : 												{
													"source" : [ "obj-36", 0 ],
													"destination" : [ "obj-35", 0 ],
													"hidden" : 0,
													"midpoints" : [  ]
												}

											}
, 											{
												"patchline" : 												{
													"source" : [ "obj-35", 0 ],
													"destination" : [ "obj-34", 0 ],
													"hidden" : 0,
													"midpoints" : [  ]
												}

											}
, 											{
												"patchline" : 												{
													"source" : [ "obj-34", 0 ],
													"destination" : [ "obj-37", 0 ],
													"hidden" : 0,
													"midpoints" : [  ]
												}

											}
 ]
									}
,
									"saved_object_attributes" : 									{
										"fontname" : "Arial",
										"default_fontface" : 0,
										"globalpatchername" : "",
										"fontface" : 0,
										"fontsize" : 9.0,
										"default_fontname" : "Arial",
										"default_fontsize" : 9.0
									}

								}

							}
, 							{
								"box" : 								{
									"maxclass" : "comment",
									"text" : "Res",
									"patching_rect" : [ 465.0, 15.0, 28.0, 17.0 ],
									"fontname" : "Arial",
									"id" : "obj-35",
									"numinlets" : 1,
									"numoutlets" : 0,
									"fontsize" : 9.0
								}

							}
, 							{
								"box" : 								{
									"maxclass" : "comment",
									"text" : "Cutoff",
									"patching_rect" : [ 405.0, 15.0, 37.0, 17.0 ],
									"fontname" : "Arial",
									"id" : "obj-33",
									"numinlets" : 1,
									"numoutlets" : 0,
									"fontsize" : 9.0
								}

							}
, 							{
								"box" : 								{
									"maxclass" : "comment",
									"text" : "Type",
									"patching_rect" : [ 255.0, 15.0, 32.0, 17.0 ],
									"fontname" : "Arial",
									"id" : "obj-31",
									"numinlets" : 1,
									"numoutlets" : 0,
									"fontsize" : 9.0
								}

							}
, 							{
								"box" : 								{
									"maxclass" : "comment",
									"text" : "Toggle",
									"patching_rect" : [ 210.0, 15.0, 36.0, 17.0 ],
									"fontname" : "Arial",
									"id" : "obj-29",
									"numinlets" : 1,
									"numoutlets" : 0,
									"fontsize" : 9.0
								}

							}
, 							{
								"box" : 								{
									"maxclass" : "comment",
									"text" : "Signal",
									"patching_rect" : [ 150.0, 15.0, 36.0, 17.0 ],
									"fontname" : "Arial",
									"id" : "obj-27",
									"numinlets" : 1,
									"numoutlets" : 0,
									"fontsize" : 9.0
								}

							}
, 							{
								"box" : 								{
									"maxclass" : "toggle",
									"patching_rect" : [ 75.0, 210.0, 20.0, 20.0 ],
									"id" : "obj-25",
									"numinlets" : 1,
									"numoutlets" : 1,
									"outlettype" : [ "int" ]
								}

							}
, 							{
								"box" : 								{
									"maxclass" : "inlet",
									"patching_rect" : [ 210.0, 45.0, 25.0, 25.0 ],
									"id" : "obj-23",
									"numinlets" : 0,
									"numoutlets" : 1,
									"outlettype" : [ "int" ],
									"comment" : ""
								}

							}
, 							{
								"box" : 								{
									"maxclass" : "newobj",
									"text" : "+ 1",
									"patching_rect" : [ 75.0, 240.0, 32.5, 17.0 ],
									"fontname" : "Arial",
									"id" : "obj-20",
									"numinlets" : 2,
									"numoutlets" : 1,
									"fontsize" : 9.0,
									"outlettype" : [ "int" ]
								}

							}
, 							{
								"box" : 								{
									"maxclass" : "newobj",
									"text" : "loadmess 1",
									"patching_rect" : [ 15.0, 240.0, 57.0, 17.0 ],
									"fontname" : "Arial",
									"id" : "obj-21",
									"numinlets" : 1,
									"numoutlets" : 1,
									"fontsize" : 9.0,
									"outlettype" : [ "" ]
								}

							}
, 							{
								"box" : 								{
									"maxclass" : "newobj",
									"text" : "selector~ 2",
									"patching_rect" : [ 75.0, 270.0, 94.0, 17.0 ],
									"fontname" : "Arial",
									"id" : "obj-22",
									"numinlets" : 3,
									"numoutlets" : 1,
									"fontsize" : 9.0,
									"outlettype" : [ "signal" ]
								}

							}
, 							{
								"box" : 								{
									"maxclass" : "inlet",
									"patching_rect" : [ 255.0, 45.0, 25.0, 25.0 ],
									"id" : "obj-18",
									"numinlets" : 0,
									"numoutlets" : 1,
									"outlettype" : [ "" ],
									"comment" : ""
								}

							}
, 							{
								"box" : 								{
									"maxclass" : "outlet",
									"patching_rect" : [ 75.0, 300.0, 25.0, 25.0 ],
									"id" : "obj-17",
									"numinlets" : 1,
									"numoutlets" : 0,
									"comment" : ""
								}

							}
, 							{
								"box" : 								{
									"maxclass" : "outlet",
									"patching_rect" : [ 255.0, 300.0, 25.0, 25.0 ],
									"id" : "obj-15",
									"numinlets" : 1,
									"numoutlets" : 0,
									"comment" : ""
								}

							}
, 							{
								"box" : 								{
									"maxclass" : "inlet",
									"patching_rect" : [ 405.0, 45.0, 25.0, 25.0 ],
									"id" : "obj-14",
									"numinlets" : 0,
									"numoutlets" : 1,
									"outlettype" : [ "float" ],
									"comment" : ""
								}

							}
, 							{
								"box" : 								{
									"maxclass" : "inlet",
									"patching_rect" : [ 465.0, 45.0, 25.0, 25.0 ],
									"id" : "obj-13",
									"numinlets" : 0,
									"numoutlets" : 1,
									"outlettype" : [ "float" ],
									"comment" : ""
								}

							}
, 							{
								"box" : 								{
									"maxclass" : "flonum",
									"patching_rect" : [ 465.0, 105.0, 50.0, 17.0 ],
									"fontname" : "Arial",
									"id" : "obj-12",
									"numinlets" : 1,
									"numoutlets" : 2,
									"fontsize" : 9.0,
									"outlettype" : [ "float", "bang" ]
								}

							}
, 							{
								"box" : 								{
									"maxclass" : "newobj",
									"text" : "mtof",
									"patching_rect" : [ 405.0, 75.0, 30.0, 17.0 ],
									"fontname" : "Arial",
									"id" : "obj-10",
									"numinlets" : 1,
									"numoutlets" : 1,
									"fontsize" : 9.0,
									"outlettype" : [ "" ]
								}

							}
, 							{
								"box" : 								{
									"maxclass" : "flonum",
									"patching_rect" : [ 405.0, 105.0, 50.0, 17.0 ],
									"fontname" : "Arial",
									"id" : "obj-9",
									"numinlets" : 1,
									"numoutlets" : 2,
									"fontsize" : 9.0,
									"outlettype" : [ "float", "bang" ]
								}

							}
, 							{
								"box" : 								{
									"maxclass" : "newobj",
									"text" : "loadbang",
									"patching_rect" : [ 285.0, 45.0, 48.0, 17.0 ],
									"fontname" : "Arial",
									"id" : "obj-6",
									"numinlets" : 1,
									"numoutlets" : 1,
									"fontsize" : 9.0,
									"outlettype" : [ "bang" ]
								}

							}
, 							{
								"box" : 								{
									"maxclass" : "message",
									"text" : "lowpass",
									"patching_rect" : [ 285.0, 75.0, 43.0, 15.0 ],
									"fontname" : "Arial",
									"id" : "obj-5",
									"numinlets" : 2,
									"numoutlets" : 1,
									"fontsize" : 9.0,
									"outlettype" : [ "" ]
								}

							}
, 							{
								"box" : 								{
									"maxclass" : "filtergraph~",
									"patching_rect" : [ 255.0, 135.0, 229.0, 88.0 ],
									"id" : "obj-3",
									"numinlets" : 8,
									"numoutlets" : 7,
									"outlettype" : [ "list", "float", "float", "float", "float", "list", "int" ],
									"nfilters" : 1,
									"setfilter" : [ 0, 1, 1, 0, 0, 554.365234, 1.0, 2.118926, 0.0, 0.0, 0.0, 0.0, 0.0, 0.0 ]
								}

							}
, 							{
								"box" : 								{
									"maxclass" : "newobj",
									"text" : "biquad~",
									"patching_rect" : [ 150.0, 240.0, 86.5, 17.0 ],
									"fontname" : "Arial",
									"id" : "obj-2",
									"numinlets" : 6,
									"numoutlets" : 1,
									"fontsize" : 9.0,
									"outlettype" : [ "signal" ]
								}

							}
, 							{
								"box" : 								{
									"maxclass" : "inlet",
									"patching_rect" : [ 150.0, 45.0, 25.0, 25.0 ],
									"id" : "obj-1",
									"numinlets" : 0,
									"numoutlets" : 1,
									"outlettype" : [ "" ],
									"comment" : ""
								}

							}
 ],
						"lines" : [ 							{
								"patchline" : 								{
									"source" : [ "obj-13", 0 ],
									"destination" : [ "obj-77", 0 ],
									"hidden" : 0,
									"midpoints" : [  ]
								}

							}
, 							{
								"patchline" : 								{
									"source" : [ "obj-77", 0 ],
									"destination" : [ "obj-12", 0 ],
									"hidden" : 0,
									"midpoints" : [  ]
								}

							}
, 							{
								"patchline" : 								{
									"source" : [ "obj-23", 0 ],
									"destination" : [ "obj-25", 0 ],
									"hidden" : 0,
									"midpoints" : [ 219.5, 195.0, 84.5, 195.0 ]
								}

							}
, 							{
								"patchline" : 								{
									"source" : [ "obj-25", 0 ],
									"destination" : [ "obj-20", 0 ],
									"hidden" : 0,
									"midpoints" : [  ]
								}

							}
, 							{
								"patchline" : 								{
									"source" : [ "obj-1", 0 ],
									"destination" : [ "obj-22", 1 ],
									"hidden" : 0,
									"midpoints" : [ 159.5, 225.0, 122.0, 225.0 ]
								}

							}
, 							{
								"patchline" : 								{
									"source" : [ "obj-22", 0 ],
									"destination" : [ "obj-17", 0 ],
									"hidden" : 0,
									"midpoints" : [  ]
								}

							}
, 							{
								"patchline" : 								{
									"source" : [ "obj-2", 0 ],
									"destination" : [ "obj-22", 2 ],
									"hidden" : 0,
									"midpoints" : [  ]
								}

							}
, 							{
								"patchline" : 								{
									"source" : [ "obj-20", 0 ],
									"destination" : [ "obj-22", 0 ],
									"hidden" : 0,
									"midpoints" : [  ]
								}

							}
, 							{
								"patchline" : 								{
									"source" : [ "obj-21", 0 ],
									"destination" : [ "obj-22", 0 ],
									"hidden" : 0,
									"midpoints" : [ 24.5, 263.0, 84.5, 263.0 ]
								}

							}
, 							{
								"patchline" : 								{
									"source" : [ "obj-18", 0 ],
									"destination" : [ "obj-3", 0 ],
									"hidden" : 0,
									"midpoints" : [  ]
								}

							}
, 							{
								"patchline" : 								{
									"source" : [ "obj-1", 0 ],
									"destination" : [ "obj-2", 0 ],
									"hidden" : 0,
									"midpoints" : [  ]
								}

							}
, 							{
								"patchline" : 								{
									"source" : [ "obj-3", 0 ],
									"destination" : [ "obj-15", 0 ],
									"hidden" : 0,
									"midpoints" : [  ]
								}

							}
, 							{
								"patchline" : 								{
									"source" : [ "obj-3", 0 ],
									"destination" : [ "obj-2", 1 ],
									"hidden" : 0,
									"midpoints" : [ 264.5, 230.0, 173.0, 230.0 ]
								}

							}
, 							{
								"patchline" : 								{
									"source" : [ "obj-14", 0 ],
									"destination" : [ "obj-10", 0 ],
									"hidden" : 0,
									"midpoints" : [  ]
								}

							}
, 							{
								"patchline" : 								{
									"source" : [ "obj-12", 0 ],
									"destination" : [ "obj-3", 7 ],
									"hidden" : 0,
									"midpoints" : [  ]
								}

							}
, 							{
								"patchline" : 								{
									"source" : [ "obj-10", 0 ],
									"destination" : [ "obj-9", 0 ],
									"hidden" : 0,
									"midpoints" : [  ]
								}

							}
, 							{
								"patchline" : 								{
									"source" : [ "obj-9", 0 ],
									"destination" : [ "obj-3", 5 ],
									"hidden" : 0,
									"midpoints" : [  ]
								}

							}
, 							{
								"patchline" : 								{
									"source" : [ "obj-6", 0 ],
									"destination" : [ "obj-5", 0 ],
									"hidden" : 0,
									"midpoints" : [  ]
								}

							}
, 							{
								"patchline" : 								{
									"source" : [ "obj-5", 0 ],
									"destination" : [ "obj-3", 0 ],
									"hidden" : 0,
									"midpoints" : [ 294.5, 120.0, 264.5, 120.0 ]
								}

							}
 ]
					}
,
					"saved_object_attributes" : 					{
						"fontname" : "Arial",
						"default_fontface" : 0,
						"globalpatchername" : "",
						"fontface" : 0,
						"fontsize" : 9.0,
						"default_fontname" : "Arial",
						"default_fontsize" : 9.0
					}

				}

			}
, 			{
				"box" : 				{
					"maxclass" : "outlet",
					"patching_rect" : [ 15.0, 540.0, 25.0, 25.0 ],
					"id" : "obj-13",
					"numinlets" : 1,
					"numoutlets" : 0,
					"comment" : ""
				}

			}
, 			{
				"box" : 				{
					"maxclass" : "comment",
					"text" : "Signal",
					"patching_rect" : [ 15.0, 15.0, 35.0, 17.0 ],
					"fontname" : "Arial",
					"id" : "obj-12",
					"numinlets" : 1,
					"numoutlets" : 0,
					"fontsize" : 9.0
				}

			}
, 			{
				"box" : 				{
					"maxclass" : "inlet",
					"patching_rect" : [ 15.0, 45.0, 25.0, 25.0 ],
					"id" : "obj-10",
					"numinlets" : 0,
					"numoutlets" : 1,
					"outlettype" : [ "" ],
					"comment" : ""
				}

			}
, 			{
				"box" : 				{
					"maxclass" : "comment",
					"text" : "Pan Amount",
					"patching_rect" : [ 540.0, 15.0, 61.0, 17.0 ],
					"fontname" : "Arial",
					"id" : "obj-8",
					"numinlets" : 1,
					"numoutlets" : 0,
					"fontsize" : 9.0
				}

			}
, 			{
				"box" : 				{
					"maxclass" : "comment",
					"text" : "Delay FB",
					"patching_rect" : [ 465.0, 15.0, 58.0, 17.0 ],
					"fontname" : "Arial",
					"id" : "obj-9",
					"numinlets" : 1,
					"numoutlets" : 0,
					"fontsize" : 9.0
				}

			}
, 			{
				"box" : 				{
					"maxclass" : "comment",
					"text" : "Dist. Amount",
					"patching_rect" : [ 390.0, 15.0, 61.0, 17.0 ],
					"fontname" : "Arial",
					"id" : "obj-7",
					"numinlets" : 1,
					"numoutlets" : 0,
					"fontsize" : 9.0
				}

			}
, 			{
				"box" : 				{
					"maxclass" : "comment",
					"text" : "Filter Cutoff",
					"patching_rect" : [ 180.0, 15.0, 58.0, 17.0 ],
					"fontname" : "Arial",
					"id" : "obj-6",
					"numinlets" : 1,
					"numoutlets" : 0,
					"fontsize" : 9.0
				}

			}
, 			{
				"box" : 				{
					"maxclass" : "inlet",
					"patching_rect" : [ 555.0, 45.0, 25.0, 25.0 ],
					"id" : "obj-3",
					"numinlets" : 0,
					"numoutlets" : 1,
					"outlettype" : [ "" ],
					"comment" : ""
				}

			}
, 			{
				"box" : 				{
					"maxclass" : "inlet",
					"patching_rect" : [ 480.0, 45.0, 25.0, 25.0 ],
					"id" : "obj-4",
					"numinlets" : 0,
					"numoutlets" : 1,
					"outlettype" : [ "" ],
					"comment" : ""
				}

			}
, 			{
				"box" : 				{
					"maxclass" : "inlet",
					"patching_rect" : [ 390.0, 45.0, 25.0, 25.0 ],
					"id" : "obj-2",
					"numinlets" : 0,
					"numoutlets" : 1,
					"outlettype" : [ "" ],
					"comment" : ""
				}

			}
, 			{
				"box" : 				{
					"maxclass" : "inlet",
					"patching_rect" : [ 195.0, 45.0, 25.0, 25.0 ],
					"id" : "obj-1",
					"numinlets" : 0,
					"numoutlets" : 1,
					"outlettype" : [ "" ],
					"comment" : ""
				}

			}
 ],
		"lines" : [ 			{
				"patchline" : 				{
					"source" : [ "obj-2", 0 ],
					"destination" : [ "obj-38", 0 ],
					"hidden" : 0,
					"midpoints" : [ 399.5, 270.0, 144.5, 270.0 ]
				}

			}
, 			{
				"patchline" : 				{
					"source" : [ "obj-38", 0 ],
					"destination" : [ "obj-24", 2 ],
					"hidden" : 0,
					"midpoints" : [  ]
				}

			}
, 			{
				"patchline" : 				{
					"source" : [ "obj-36", 0 ],
					"destination" : [ "obj-27", 2 ],
					"hidden" : 0,
					"midpoints" : [  ]
				}

			}
, 			{
				"patchline" : 				{
					"source" : [ "obj-4", 0 ],
					"destination" : [ "obj-31", 0 ],
					"hidden" : 0,
					"midpoints" : [ 489.5, 353.0, 204.5, 353.0 ]
				}

			}
, 			{
				"patchline" : 				{
					"source" : [ "obj-31", 0 ],
					"destination" : [ "obj-27", 3 ],
					"hidden" : 0,
					"midpoints" : [  ]
				}

			}
, 			{
				"patchline" : 				{
					"source" : [ "obj-30", 0 ],
					"destination" : [ "obj-27", 4 ],
					"hidden" : 0,
					"midpoints" : [  ]
				}

			}
, 			{
				"patchline" : 				{
					"source" : [ "obj-29", 0 ],
					"destination" : [ "obj-27", 1 ],
					"hidden" : 0,
					"midpoints" : [  ]
				}

			}
, 			{
				"patchline" : 				{
					"source" : [ "obj-27", 0 ],
					"destination" : [ "obj-20", 0 ],
					"hidden" : 0,
					"midpoints" : [  ]
				}

			}
, 			{
				"patchline" : 				{
					"source" : [ "obj-24", 0 ],
					"destination" : [ "obj-27", 0 ],
					"hidden" : 0,
					"midpoints" : [  ]
				}

			}
, 			{
				"patchline" : 				{
					"source" : [ "obj-26", 0 ],
					"destination" : [ "obj-24", 1 ],
					"hidden" : 0,
					"midpoints" : [  ]
				}

			}
, 			{
				"patchline" : 				{
					"source" : [ "obj-14", 0 ],
					"destination" : [ "obj-24", 0 ],
					"hidden" : 0,
					"midpoints" : [  ]
				}

			}
, 			{
				"patchline" : 				{
					"source" : [ "obj-3", 0 ],
					"destination" : [ "obj-22", 0 ],
					"hidden" : 0,
					"midpoints" : [ 564.5, 451.0, 114.5, 451.0 ]
				}

			}
, 			{
				"patchline" : 				{
					"source" : [ "obj-20", 1 ],
					"destination" : [ "obj-23", 0 ],
					"hidden" : 0,
					"midpoints" : [  ]
				}

			}
, 			{
				"patchline" : 				{
					"source" : [ "obj-1", 0 ],
					"destination" : [ "obj-17", 0 ],
					"hidden" : 0,
					"midpoints" : [  ]
				}

			}
, 			{
				"patchline" : 				{
					"source" : [ "obj-22", 0 ],
					"destination" : [ "obj-20", 2 ],
					"hidden" : 0,
					"midpoints" : [  ]
				}

			}
, 			{
				"patchline" : 				{
					"source" : [ "obj-21", 0 ],
					"destination" : [ "obj-20", 1 ],
					"hidden" : 0,
					"midpoints" : [  ]
				}

			}
, 			{
				"patchline" : 				{
					"source" : [ "obj-20", 0 ],
					"destination" : [ "obj-13", 0 ],
					"hidden" : 0,
					"midpoints" : [  ]
				}

			}
, 			{
				"patchline" : 				{
					"source" : [ "obj-14", 1 ],
					"destination" : [ "obj-19", 0 ],
					"hidden" : 0,
					"midpoints" : [  ]
				}

			}
, 			{
				"patchline" : 				{
					"source" : [ "obj-10", 0 ],
					"destination" : [ "obj-14", 0 ],
					"hidden" : 0,
					"midpoints" : [  ]
				}

			}
, 			{
				"patchline" : 				{
					"source" : [ "obj-18", 0 ],
					"destination" : [ "obj-14", 4 ],
					"hidden" : 0,
					"midpoints" : [  ]
				}

			}
, 			{
				"patchline" : 				{
					"source" : [ "obj-17", 0 ],
					"destination" : [ "obj-14", 3 ],
					"hidden" : 0,
					"midpoints" : [  ]
				}

			}
, 			{
				"patchline" : 				{
					"source" : [ "obj-16", 0 ],
					"destination" : [ "obj-14", 1 ],
					"hidden" : 0,
					"midpoints" : [  ]
				}

			}
, 			{
				"patchline" : 				{
					"source" : [ "obj-47", 1 ],
					"destination" : [ "obj-14", 2 ],
					"hidden" : 0,
					"midpoints" : [ 140.0, 129.0, 144.5, 129.0 ]
				}

			}
, 			{
				"patchline" : 				{
					"source" : [ "obj-5", 0 ],
					"destination" : [ "obj-24", 3 ],
					"hidden" : 0,
					"midpoints" : [  ]
				}

			}
 ]
	}

}
