{
	"patcher" : 	{
		"fileversion" : 1,
		"rect" : [ 49.0, 44.0, 603.0, 695.0 ],
		"bglocked" : 0,
		"defrect" : [ 49.0, 44.0, 603.0, 695.0 ],
		"openrect" : [ 0.0, 0.0, 0.0, 0.0 ],
		"openinpresentation" : 1,
		"default_fontsize" : 9.0,
		"default_fontface" : 0,
		"default_fontname" : "Arial",
		"gridonopen" : 0,
		"gridsize" : [ 15.0, 15.0 ],
		"gridsnaponopen" : 0,
		"toolbarvisible" : 1,
		"boxanimatetime" : 200,
		"imprint" : 0,
		"metadata" : [  ],
		"boxes" : [ 			{
				"box" : 				{
					"maxclass" : "newobj",
					"text" : "loadmess 100",
					"patching_rect" : [ 315.0, 30.0, 67.0, 17.0 ],
					"fontname" : "Arial",
					"id" : "obj-12",
					"numinlets" : 1,
					"numoutlets" : 1,
					"fontsize" : 9.0,
					"outlettype" : [ "" ]
				}

			}
, 			{
				"box" : 				{
					"maxclass" : "newobj",
					"text" : "loadmess 127",
					"patching_rect" : [ 195.0, 30.0, 67.0, 17.0 ],
					"fontname" : "Arial",
					"id" : "obj-7",
					"numinlets" : 1,
					"numoutlets" : 1,
					"fontsize" : 9.0,
					"outlettype" : [ "" ]
				}

			}
, 			{
				"box" : 				{
					"maxclass" : "newobj",
					"text" : "t 0. i",
					"patching_rect" : [ 315.0, 90.0, 48.5, 17.0 ],
					"fontname" : "Arial",
					"id" : "obj-4",
					"numinlets" : 1,
					"numoutlets" : 2,
					"fontsize" : 9.0,
					"outlettype" : [ "float", "int" ]
				}

			}
, 			{
				"box" : 				{
					"maxclass" : "comment",
					"text" : "Rate",
					"patching_rect" : [ 315.0, 45.0, 33.0, 17.0 ],
					"presentation" : 1,
					"fontname" : "Arial",
					"id" : "obj-20",
					"numinlets" : 1,
					"numoutlets" : 0,
					"fontsize" : 9.0,
					"presentation_rect" : [ 0.0, 15.0, 33.0, 17.0 ]
				}

			}
, 			{
				"box" : 				{
					"maxclass" : "comment",
					"text" : "Amp",
					"patching_rect" : [ 195.0, 315.0, 31.0, 17.0 ],
					"presentation" : 1,
					"fontname" : "Arial",
					"id" : "obj-9",
					"numinlets" : 1,
					"numoutlets" : 0,
					"fontsize" : 9.0,
					"presentation_rect" : [ 0.0, 30.0, 31.0, 17.0 ]
				}

			}
, 			{
				"box" : 				{
					"maxclass" : "comment",
					"text" : "Ofset",
					"patching_rect" : [ 195.0, 450.0, 37.0, 17.0 ],
					"presentation" : 1,
					"fontname" : "Arial",
					"id" : "obj-8",
					"numinlets" : 1,
					"numoutlets" : 0,
					"fontsize" : 9.0,
					"presentation_rect" : [ 0.0, 45.0, 37.0, 17.0 ]
				}

			}
, 			{
				"box" : 				{
					"maxclass" : "newobj",
					"text" : "p wait",
					"patching_rect" : [ 195.0, 495.0, 34.0, 17.0 ],
					"fontname" : "Arial",
					"id" : "obj-27",
					"numinlets" : 1,
					"numoutlets" : 1,
					"fontsize" : 9.0,
					"outlettype" : [ "int" ],
					"patcher" : 					{
						"fileversion" : 1,
						"rect" : [ 74.0, 69.0, 640.0, 480.0 ],
						"bglocked" : 0,
						"defrect" : [ 74.0, 69.0, 640.0, 480.0 ],
						"openrect" : [ 0.0, 0.0, 0.0, 0.0 ],
						"openinpresentation" : 0,
						"default_fontsize" : 9.0,
						"default_fontface" : 0,
						"default_fontname" : "Arial",
						"gridonopen" : 0,
						"gridsize" : [ 15.0, 15.0 ],
						"gridsnaponopen" : 0,
						"toolbarvisible" : 1,
						"boxanimatetime" : 200,
						"imprint" : 0,
						"metadata" : [  ],
						"boxes" : [ 							{
								"box" : 								{
									"maxclass" : "outlet",
									"patching_rect" : [ 166.0, 204.0, 25.0, 25.0 ],
									"id" : "obj-2",
									"numinlets" : 1,
									"numoutlets" : 0,
									"comment" : ""
								}

							}
, 							{
								"box" : 								{
									"maxclass" : "inlet",
									"patching_rect" : [ 163.0, 89.0, 25.0, 25.0 ],
									"id" : "obj-1",
									"numinlets" : 0,
									"numoutlets" : 1,
									"outlettype" : [ "" ],
									"comment" : ""
								}

							}
, 							{
								"box" : 								{
									"maxclass" : "newobj",
									"text" : "onebang",
									"patching_rect" : [ 120.0, 150.0, 64.0, 17.0 ],
									"fontname" : "Arial",
									"id" : "obj-58",
									"numinlets" : 2,
									"numoutlets" : 2,
									"fontsize" : 9.0,
									"outlettype" : [ "bang", "bang" ]
								}

							}
, 							{
								"box" : 								{
									"maxclass" : "newobj",
									"text" : "int",
									"patching_rect" : [ 165.0, 180.0, 32.5, 17.0 ],
									"fontname" : "Arial",
									"id" : "obj-59",
									"numinlets" : 2,
									"numoutlets" : 1,
									"fontsize" : 9.0,
									"outlettype" : [ "int" ]
								}

							}
, 							{
								"box" : 								{
									"maxclass" : "newobj",
									"text" : "t b i",
									"patching_rect" : [ 165.0, 120.0, 32.5, 17.0 ],
									"fontname" : "Arial",
									"id" : "obj-60",
									"numinlets" : 1,
									"numoutlets" : 2,
									"fontsize" : 9.0,
									"outlettype" : [ "bang", "int" ]
								}

							}
, 							{
								"box" : 								{
									"maxclass" : "newobj",
									"text" : "r clock",
									"patching_rect" : [ 120.0, 120.0, 37.0, 17.0 ],
									"fontname" : "Arial",
									"id" : "obj-142",
									"numinlets" : 0,
									"numoutlets" : 1,
									"fontsize" : 9.0,
									"outlettype" : [ "" ]
								}

							}
 ],
						"lines" : [ 							{
								"patchline" : 								{
									"source" : [ "obj-60", 1 ],
									"destination" : [ "obj-59", 1 ],
									"hidden" : 0,
									"midpoints" : [  ]
								}

							}
, 							{
								"patchline" : 								{
									"source" : [ "obj-142", 0 ],
									"destination" : [ "obj-58", 0 ],
									"hidden" : 0,
									"midpoints" : [  ]
								}

							}
, 							{
								"patchline" : 								{
									"source" : [ "obj-60", 0 ],
									"destination" : [ "obj-58", 1 ],
									"hidden" : 0,
									"midpoints" : [  ]
								}

							}
, 							{
								"patchline" : 								{
									"source" : [ "obj-58", 0 ],
									"destination" : [ "obj-59", 0 ],
									"hidden" : 0,
									"midpoints" : [ 129.5, 174.0, 174.5, 174.0 ]
								}

							}
, 							{
								"patchline" : 								{
									"source" : [ "obj-1", 0 ],
									"destination" : [ "obj-60", 0 ],
									"hidden" : 0,
									"midpoints" : [  ]
								}

							}
, 							{
								"patchline" : 								{
									"source" : [ "obj-59", 0 ],
									"destination" : [ "obj-2", 0 ],
									"hidden" : 0,
									"midpoints" : [  ]
								}

							}
 ]
					}
,
					"saved_object_attributes" : 					{
						"fontname" : "Arial",
						"default_fontface" : 0,
						"globalpatchername" : "",
						"fontface" : 0,
						"fontsize" : 9.0,
						"default_fontname" : "Arial",
						"default_fontsize" : 9.0
					}

				}

			}
, 			{
				"box" : 				{
					"maxclass" : "newobj",
					"text" : "p wait",
					"patching_rect" : [ 195.0, 360.0, 34.0, 17.0 ],
					"fontname" : "Arial",
					"id" : "obj-26",
					"numinlets" : 1,
					"numoutlets" : 1,
					"fontsize" : 9.0,
					"outlettype" : [ "int" ],
					"patcher" : 					{
						"fileversion" : 1,
						"rect" : [ 74.0, 69.0, 640.0, 480.0 ],
						"bglocked" : 0,
						"defrect" : [ 74.0, 69.0, 640.0, 480.0 ],
						"openrect" : [ 0.0, 0.0, 0.0, 0.0 ],
						"openinpresentation" : 0,
						"default_fontsize" : 9.0,
						"default_fontface" : 0,
						"default_fontname" : "Arial",
						"gridonopen" : 0,
						"gridsize" : [ 15.0, 15.0 ],
						"gridsnaponopen" : 0,
						"toolbarvisible" : 1,
						"boxanimatetime" : 200,
						"imprint" : 0,
						"metadata" : [  ],
						"boxes" : [ 							{
								"box" : 								{
									"maxclass" : "outlet",
									"patching_rect" : [ 166.0, 204.0, 25.0, 25.0 ],
									"id" : "obj-2",
									"numinlets" : 1,
									"numoutlets" : 0,
									"comment" : ""
								}

							}
, 							{
								"box" : 								{
									"maxclass" : "inlet",
									"patching_rect" : [ 163.0, 89.0, 25.0, 25.0 ],
									"id" : "obj-1",
									"numinlets" : 0,
									"numoutlets" : 1,
									"outlettype" : [ "" ],
									"comment" : ""
								}

							}
, 							{
								"box" : 								{
									"maxclass" : "newobj",
									"text" : "onebang",
									"patching_rect" : [ 120.0, 150.0, 64.0, 17.0 ],
									"fontname" : "Arial",
									"id" : "obj-58",
									"numinlets" : 2,
									"numoutlets" : 2,
									"fontsize" : 9.0,
									"outlettype" : [ "bang", "bang" ]
								}

							}
, 							{
								"box" : 								{
									"maxclass" : "newobj",
									"text" : "int",
									"patching_rect" : [ 165.0, 180.0, 32.5, 17.0 ],
									"fontname" : "Arial",
									"id" : "obj-59",
									"numinlets" : 2,
									"numoutlets" : 1,
									"fontsize" : 9.0,
									"outlettype" : [ "int" ]
								}

							}
, 							{
								"box" : 								{
									"maxclass" : "newobj",
									"text" : "t b i",
									"patching_rect" : [ 165.0, 120.0, 32.5, 17.0 ],
									"fontname" : "Arial",
									"id" : "obj-60",
									"numinlets" : 1,
									"numoutlets" : 2,
									"fontsize" : 9.0,
									"outlettype" : [ "bang", "int" ]
								}

							}
, 							{
								"box" : 								{
									"maxclass" : "newobj",
									"text" : "r clock",
									"patching_rect" : [ 120.0, 120.0, 37.0, 17.0 ],
									"fontname" : "Arial",
									"id" : "obj-142",
									"numinlets" : 0,
									"numoutlets" : 1,
									"fontsize" : 9.0,
									"outlettype" : [ "" ]
								}

							}
 ],
						"lines" : [ 							{
								"patchline" : 								{
									"source" : [ "obj-60", 1 ],
									"destination" : [ "obj-59", 1 ],
									"hidden" : 0,
									"midpoints" : [  ]
								}

							}
, 							{
								"patchline" : 								{
									"source" : [ "obj-142", 0 ],
									"destination" : [ "obj-58", 0 ],
									"hidden" : 0,
									"midpoints" : [  ]
								}

							}
, 							{
								"patchline" : 								{
									"source" : [ "obj-60", 0 ],
									"destination" : [ "obj-58", 1 ],
									"hidden" : 0,
									"midpoints" : [  ]
								}

							}
, 							{
								"patchline" : 								{
									"source" : [ "obj-58", 0 ],
									"destination" : [ "obj-59", 0 ],
									"hidden" : 0,
									"midpoints" : [ 129.5, 174.0, 174.5, 174.0 ]
								}

							}
, 							{
								"patchline" : 								{
									"source" : [ "obj-1", 0 ],
									"destination" : [ "obj-60", 0 ],
									"hidden" : 0,
									"midpoints" : [  ]
								}

							}
, 							{
								"patchline" : 								{
									"source" : [ "obj-59", 0 ],
									"destination" : [ "obj-2", 0 ],
									"hidden" : 0,
									"midpoints" : [  ]
								}

							}
 ]
					}
,
					"saved_object_attributes" : 					{
						"fontname" : "Arial",
						"default_fontface" : 0,
						"globalpatchername" : "",
						"fontface" : 0,
						"fontsize" : 9.0,
						"default_fontname" : "Arial",
						"default_fontsize" : 9.0
					}

				}

			}
, 			{
				"box" : 				{
					"maxclass" : "newobj",
					"text" : "p wait",
					"patching_rect" : [ 165.0, 225.0, 34.0, 17.0 ],
					"fontname" : "Arial",
					"id" : "obj-25",
					"numinlets" : 1,
					"numoutlets" : 1,
					"fontsize" : 9.0,
					"outlettype" : [ "int" ],
					"patcher" : 					{
						"fileversion" : 1,
						"rect" : [ 74.0, 69.0, 640.0, 480.0 ],
						"bglocked" : 0,
						"defrect" : [ 74.0, 69.0, 640.0, 480.0 ],
						"openrect" : [ 0.0, 0.0, 0.0, 0.0 ],
						"openinpresentation" : 0,
						"default_fontsize" : 9.0,
						"default_fontface" : 0,
						"default_fontname" : "Arial",
						"gridonopen" : 0,
						"gridsize" : [ 15.0, 15.0 ],
						"gridsnaponopen" : 0,
						"toolbarvisible" : 1,
						"boxanimatetime" : 200,
						"imprint" : 0,
						"metadata" : [  ],
						"boxes" : [ 							{
								"box" : 								{
									"maxclass" : "outlet",
									"patching_rect" : [ 166.0, 204.0, 25.0, 25.0 ],
									"id" : "obj-2",
									"numinlets" : 1,
									"numoutlets" : 0,
									"comment" : ""
								}

							}
, 							{
								"box" : 								{
									"maxclass" : "inlet",
									"patching_rect" : [ 163.0, 89.0, 25.0, 25.0 ],
									"id" : "obj-1",
									"numinlets" : 0,
									"numoutlets" : 1,
									"outlettype" : [ "int" ],
									"comment" : ""
								}

							}
, 							{
								"box" : 								{
									"maxclass" : "newobj",
									"text" : "onebang",
									"patching_rect" : [ 120.0, 150.0, 64.0, 17.0 ],
									"fontname" : "Arial",
									"id" : "obj-58",
									"numinlets" : 2,
									"numoutlets" : 2,
									"fontsize" : 9.0,
									"outlettype" : [ "bang", "bang" ]
								}

							}
, 							{
								"box" : 								{
									"maxclass" : "newobj",
									"text" : "int",
									"patching_rect" : [ 165.0, 180.0, 32.5, 17.0 ],
									"fontname" : "Arial",
									"id" : "obj-59",
									"numinlets" : 2,
									"numoutlets" : 1,
									"fontsize" : 9.0,
									"outlettype" : [ "int" ]
								}

							}
, 							{
								"box" : 								{
									"maxclass" : "newobj",
									"text" : "t b i",
									"patching_rect" : [ 165.0, 120.0, 32.5, 17.0 ],
									"fontname" : "Arial",
									"id" : "obj-60",
									"numinlets" : 1,
									"numoutlets" : 2,
									"fontsize" : 9.0,
									"outlettype" : [ "bang", "int" ]
								}

							}
, 							{
								"box" : 								{
									"maxclass" : "newobj",
									"text" : "r clock",
									"patching_rect" : [ 120.0, 120.0, 37.0, 17.0 ],
									"fontname" : "Arial",
									"id" : "obj-142",
									"numinlets" : 0,
									"numoutlets" : 1,
									"fontsize" : 9.0,
									"outlettype" : [ "" ]
								}

							}
 ],
						"lines" : [ 							{
								"patchline" : 								{
									"source" : [ "obj-59", 0 ],
									"destination" : [ "obj-2", 0 ],
									"hidden" : 0,
									"midpoints" : [  ]
								}

							}
, 							{
								"patchline" : 								{
									"source" : [ "obj-1", 0 ],
									"destination" : [ "obj-60", 0 ],
									"hidden" : 0,
									"midpoints" : [  ]
								}

							}
, 							{
								"patchline" : 								{
									"source" : [ "obj-58", 0 ],
									"destination" : [ "obj-59", 0 ],
									"hidden" : 0,
									"midpoints" : [ 129.5, 174.0, 174.5, 174.0 ]
								}

							}
, 							{
								"patchline" : 								{
									"source" : [ "obj-60", 0 ],
									"destination" : [ "obj-58", 1 ],
									"hidden" : 0,
									"midpoints" : [  ]
								}

							}
, 							{
								"patchline" : 								{
									"source" : [ "obj-142", 0 ],
									"destination" : [ "obj-58", 0 ],
									"hidden" : 0,
									"midpoints" : [  ]
								}

							}
, 							{
								"patchline" : 								{
									"source" : [ "obj-60", 1 ],
									"destination" : [ "obj-59", 1 ],
									"hidden" : 0,
									"midpoints" : [  ]
								}

							}
 ]
					}
,
					"saved_object_attributes" : 					{
						"fontname" : "Arial",
						"default_fontface" : 0,
						"globalpatchername" : "",
						"fontface" : 0,
						"fontsize" : 9.0,
						"default_fontname" : "Arial",
						"default_fontsize" : 9.0
					}

				}

			}
, 			{
				"box" : 				{
					"maxclass" : "multislider",
					"patching_rect" : [ 30.0, 555.0, 128.0, 82.0 ],
					"setstyle" : 3,
					"presentation" : 1,
					"id" : "obj-18",
					"numinlets" : 1,
					"numoutlets" : 2,
					"setminmax" : [ 0.0, 127.0 ],
					"presentation_rect" : [ 0.0, 60.0, 120.0, 83.0 ],
					"outlettype" : [ "", "" ]
				}

			}
, 			{
				"box" : 				{
					"maxclass" : "newobj",
					"text" : "/ 127.",
					"patching_rect" : [ 195.0, 390.0, 33.0, 17.0 ],
					"fontname" : "Arial",
					"id" : "obj-15",
					"numinlets" : 2,
					"numoutlets" : 1,
					"fontsize" : 9.0,
					"outlettype" : [ "float" ]
				}

			}
, 			{
				"box" : 				{
					"maxclass" : "slider",
					"patching_rect" : [ 195.0, 330.0, 195.0, 17.0 ],
					"presentation" : 1,
					"id" : "obj-14",
					"numinlets" : 1,
					"numoutlets" : 1,
					"presentation_rect" : [ 0.0, 30.0, 136.0, 17.0 ],
					"outlettype" : [ "" ]
				}

			}
, 			{
				"box" : 				{
					"maxclass" : "slider",
					"patching_rect" : [ 195.0, 465.0, 195.0, 17.0 ],
					"presentation" : 1,
					"id" : "obj-11",
					"numinlets" : 1,
					"numoutlets" : 1,
					"presentation_rect" : [ 0.0, 45.0, 136.0, 17.0 ],
					"outlettype" : [ "" ]
				}

			}
, 			{
				"box" : 				{
					"maxclass" : "newobj",
					"text" : "*~ 1.",
					"patching_rect" : [ 165.0, 420.0, 48.5, 17.0 ],
					"fontname" : "Arial",
					"id" : "obj-10",
					"numinlets" : 2,
					"numoutlets" : 1,
					"fontsize" : 9.0,
					"outlettype" : [ "signal" ]
				}

			}
, 			{
				"box" : 				{
					"maxclass" : "comment",
					"text" : "Invert",
					"patching_rect" : [ 255.0, 195.0, 31.0, 17.0 ],
					"presentation" : 1,
					"fontname" : "Arial",
					"id" : "obj-57",
					"numinlets" : 1,
					"numoutlets" : 0,
					"fontsize" : 9.0,
					"presentation_rect" : [ 60.0, 0.0, 31.0, 17.0 ]
				}

			}
, 			{
				"box" : 				{
					"maxclass" : "outlet",
					"patching_rect" : [ 165.0, 645.0, 25.0, 25.0 ],
					"id" : "obj-55",
					"numinlets" : 1,
					"numoutlets" : 0,
					"comment" : ""
				}

			}
, 			{
				"box" : 				{
					"maxclass" : "button",
					"patching_rect" : [ 195.0, 555.0, 20.0, 20.0 ],
					"presentation" : 1,
					"id" : "obj-54",
					"numinlets" : 1,
					"numoutlets" : 1,
					"presentation_rect" : [ 90.0, 0.0, 15.0, 15.0 ],
					"outlettype" : [ "bang" ]
				}

			}
, 			{
				"box" : 				{
					"maxclass" : "slider",
					"patching_rect" : [ 165.0, 555.0, 17.0, 84.0 ],
					"presentation" : 1,
					"id" : "obj-50",
					"numinlets" : 1,
					"numoutlets" : 1,
					"presentation_rect" : [ 120.0, 60.0, 16.0, 84.0 ],
					"outlettype" : [ "" ]
				}

			}
, 			{
				"box" : 				{
					"maxclass" : "newobj",
					"text" : "p detect",
					"patching_rect" : [ 165.0, 525.0, 49.0, 18.0 ],
					"fontname" : "Arial",
					"id" : "obj-34",
					"numinlets" : 2,
					"numoutlets" : 2,
					"fontsize" : 10.0,
					"outlettype" : [ "float", "bang" ],
					"patcher" : 					{
						"fileversion" : 1,
						"rect" : [ 167.0, 274.0, 640.0, 480.0 ],
						"bglocked" : 0,
						"defrect" : [ 167.0, 274.0, 640.0, 480.0 ],
						"openrect" : [ 0.0, 0.0, 0.0, 0.0 ],
						"openinpresentation" : 0,
						"default_fontsize" : 12.0,
						"default_fontface" : 0,
						"default_fontname" : "Arial",
						"gridonopen" : 0,
						"gridsize" : [ 15.0, 15.0 ],
						"gridsnaponopen" : 0,
						"toolbarvisible" : 1,
						"boxanimatetime" : 200,
						"imprint" : 0,
						"metadata" : [  ],
						"boxes" : [ 							{
								"box" : 								{
									"maxclass" : "inlet",
									"patching_rect" : [ 226.0, 50.0, 25.0, 25.0 ],
									"id" : "obj-8",
									"numinlets" : 0,
									"numoutlets" : 1,
									"outlettype" : [ "int" ],
									"comment" : ""
								}

							}
, 							{
								"box" : 								{
									"maxclass" : "newobj",
									"text" : "scale -1. 1. 0 127",
									"patching_rect" : [ 63.0, 148.0, 103.0, 20.0 ],
									"fontname" : "Arial",
									"id" : "obj-9",
									"numinlets" : 6,
									"numoutlets" : 1,
									"fontsize" : 12.0,
									"outlettype" : [ "float" ]
								}

							}
, 							{
								"box" : 								{
									"maxclass" : "newobj",
									"text" : "snapshot~ 10",
									"patching_rect" : [ 58.0, 106.0, 83.0, 20.0 ],
									"fontname" : "Arial",
									"id" : "obj-6",
									"numinlets" : 2,
									"numoutlets" : 1,
									"fontsize" : 12.0,
									"outlettype" : [ "float" ]
								}

							}
, 							{
								"box" : 								{
									"maxclass" : "outlet",
									"patching_rect" : [ 103.0, 214.0, 25.0, 25.0 ],
									"id" : "obj-5",
									"numinlets" : 1,
									"numoutlets" : 0,
									"comment" : ""
								}

							}
, 							{
								"box" : 								{
									"maxclass" : "outlet",
									"patching_rect" : [ 223.0, 189.0, 25.0, 25.0 ],
									"id" : "obj-4",
									"numinlets" : 1,
									"numoutlets" : 0,
									"comment" : ""
								}

							}
, 							{
								"box" : 								{
									"maxclass" : "newobj",
									"text" : "edge~",
									"patching_rect" : [ 221.0, 153.0, 44.0, 20.0 ],
									"fontname" : "Arial",
									"id" : "obj-3",
									"numinlets" : 1,
									"numoutlets" : 2,
									"fontsize" : 12.0,
									"outlettype" : [ "bang", "bang" ]
								}

							}
, 							{
								"box" : 								{
									"maxclass" : "inlet",
									"patching_rect" : [ 187.0, 45.0, 25.0, 25.0 ],
									"id" : "obj-2",
									"numinlets" : 0,
									"numoutlets" : 1,
									"outlettype" : [ "signal" ],
									"comment" : ""
								}

							}
, 							{
								"box" : 								{
									"maxclass" : "newobj",
									"text" : ">=~ 0.",
									"patching_rect" : [ 218.0, 109.0, 45.0, 20.0 ],
									"fontname" : "Arial",
									"id" : "obj-1",
									"numinlets" : 2,
									"numoutlets" : 1,
									"fontsize" : 12.0,
									"outlettype" : [ "signal" ]
								}

							}
 ],
						"lines" : [ 							{
								"patchline" : 								{
									"source" : [ "obj-8", 0 ],
									"destination" : [ "obj-9", 3 ],
									"hidden" : 0,
									"midpoints" : [  ]
								}

							}
, 							{
								"patchline" : 								{
									"source" : [ "obj-1", 0 ],
									"destination" : [ "obj-3", 0 ],
									"hidden" : 0,
									"midpoints" : [  ]
								}

							}
, 							{
								"patchline" : 								{
									"source" : [ "obj-2", 0 ],
									"destination" : [ "obj-1", 0 ],
									"hidden" : 0,
									"midpoints" : [  ]
								}

							}
, 							{
								"patchline" : 								{
									"source" : [ "obj-6", 0 ],
									"destination" : [ "obj-9", 0 ],
									"hidden" : 0,
									"midpoints" : [  ]
								}

							}
, 							{
								"patchline" : 								{
									"source" : [ "obj-9", 0 ],
									"destination" : [ "obj-5", 0 ],
									"hidden" : 0,
									"midpoints" : [  ]
								}

							}
, 							{
								"patchline" : 								{
									"source" : [ "obj-2", 0 ],
									"destination" : [ "obj-6", 0 ],
									"hidden" : 0,
									"midpoints" : [  ]
								}

							}
, 							{
								"patchline" : 								{
									"source" : [ "obj-3", 0 ],
									"destination" : [ "obj-4", 0 ],
									"hidden" : 0,
									"midpoints" : [  ]
								}

							}
 ]
					}
,
					"saved_object_attributes" : 					{
						"fontname" : "Arial",
						"default_fontface" : 0,
						"globalpatchername" : "",
						"fontface" : 0,
						"fontsize" : 12.0,
						"default_fontname" : "Arial",
						"default_fontsize" : 12.0
					}

				}

			}
, 			{
				"box" : 				{
					"maxclass" : "toggle",
					"patching_rect" : [ 255.0, 210.0, 20.0, 20.0 ],
					"presentation" : 1,
					"id" : "obj-47",
					"numinlets" : 1,
					"numoutlets" : 1,
					"presentation_rect" : [ 45.0, 0.0, 17.0, 17.0 ],
					"outlettype" : [ "int" ]
				}

			}
, 			{
				"box" : 				{
					"maxclass" : "newobj",
					"text" : "p inv",
					"patching_rect" : [ 345.0, 255.0, 49.0, 18.0 ],
					"fontname" : "Arial",
					"id" : "obj-45",
					"numinlets" : 3,
					"numoutlets" : 1,
					"fontsize" : 10.0,
					"outlettype" : [ "signal" ],
					"patcher" : 					{
						"fileversion" : 1,
						"rect" : [ 76.0, 69.0, 640.0, 480.0 ],
						"bglocked" : 0,
						"defrect" : [ 76.0, 69.0, 640.0, 480.0 ],
						"openrect" : [ 0.0, 0.0, 0.0, 0.0 ],
						"openinpresentation" : 0,
						"default_fontsize" : 12.0,
						"default_fontface" : 0,
						"default_fontname" : "Arial",
						"gridonopen" : 0,
						"gridsize" : [ 15.0, 15.0 ],
						"gridsnaponopen" : 0,
						"toolbarvisible" : 1,
						"boxanimatetime" : 200,
						"imprint" : 0,
						"metadata" : [  ],
						"boxes" : [ 							{
								"box" : 								{
									"maxclass" : "newobj",
									"text" : "loadmess 1",
									"patching_rect" : [ 117.0, 256.0, 72.0, 20.0 ],
									"fontname" : "Arial",
									"id" : "obj-11",
									"numinlets" : 1,
									"numoutlets" : 1,
									"fontsize" : 12.0,
									"outlettype" : [ "" ]
								}

							}
, 							{
								"box" : 								{
									"maxclass" : "outlet",
									"patching_rect" : [ 195.0, 330.0, 25.0, 25.0 ],
									"id" : "obj-10",
									"numinlets" : 1,
									"numoutlets" : 0,
									"comment" : ""
								}

							}
, 							{
								"box" : 								{
									"maxclass" : "inlet",
									"patching_rect" : [ 315.0, 195.0, 25.0, 25.0 ],
									"id" : "obj-8",
									"numinlets" : 0,
									"numoutlets" : 1,
									"outlettype" : [ "signal" ],
									"comment" : "Inverse"
								}

							}
, 							{
								"box" : 								{
									"maxclass" : "inlet",
									"patching_rect" : [ 255.0, 195.0, 25.0, 25.0 ],
									"id" : "obj-7",
									"numinlets" : 0,
									"numoutlets" : 1,
									"outlettype" : [ "signal" ],
									"comment" : "Dry"
								}

							}
, 							{
								"box" : 								{
									"maxclass" : "inlet",
									"patching_rect" : [ 195.0, 195.0, 25.0, 25.0 ],
									"id" : "obj-5",
									"numinlets" : 0,
									"numoutlets" : 1,
									"outlettype" : [ "int" ],
									"comment" : "On/Off"
								}

							}
, 							{
								"box" : 								{
									"maxclass" : "newobj",
									"text" : "*~ -1.",
									"patching_rect" : [ 315.0, 255.0, 40.0, 20.0 ],
									"fontname" : "Arial",
									"id" : "obj-9",
									"numinlets" : 2,
									"numoutlets" : 1,
									"fontsize" : 12.0,
									"outlettype" : [ "signal" ]
								}

							}
, 							{
								"box" : 								{
									"maxclass" : "newobj",
									"text" : "+ 1",
									"patching_rect" : [ 195.0, 255.0, 32.5, 20.0 ],
									"fontname" : "Arial",
									"id" : "obj-2",
									"numinlets" : 2,
									"numoutlets" : 1,
									"fontsize" : 12.0,
									"outlettype" : [ "int" ]
								}

							}
, 							{
								"box" : 								{
									"maxclass" : "newobj",
									"text" : "selector~ 2",
									"patching_rect" : [ 195.0, 285.0, 139.0, 20.0 ],
									"fontname" : "Arial",
									"id" : "obj-1",
									"numinlets" : 3,
									"numoutlets" : 1,
									"fontsize" : 12.0,
									"outlettype" : [ "signal" ]
								}

							}
 ],
						"lines" : [ 							{
								"patchline" : 								{
									"source" : [ "obj-9", 0 ],
									"destination" : [ "obj-1", 2 ],
									"hidden" : 0,
									"midpoints" : [  ]
								}

							}
, 							{
								"patchline" : 								{
									"source" : [ "obj-2", 0 ],
									"destination" : [ "obj-1", 0 ],
									"hidden" : 0,
									"midpoints" : [  ]
								}

							}
, 							{
								"patchline" : 								{
									"source" : [ "obj-1", 0 ],
									"destination" : [ "obj-10", 0 ],
									"hidden" : 0,
									"midpoints" : [  ]
								}

							}
, 							{
								"patchline" : 								{
									"source" : [ "obj-5", 0 ],
									"destination" : [ "obj-2", 0 ],
									"hidden" : 0,
									"midpoints" : [  ]
								}

							}
, 							{
								"patchline" : 								{
									"source" : [ "obj-7", 0 ],
									"destination" : [ "obj-1", 1 ],
									"hidden" : 0,
									"midpoints" : [  ]
								}

							}
, 							{
								"patchline" : 								{
									"source" : [ "obj-8", 0 ],
									"destination" : [ "obj-9", 0 ],
									"hidden" : 0,
									"midpoints" : [  ]
								}

							}
, 							{
								"patchline" : 								{
									"source" : [ "obj-11", 0 ],
									"destination" : [ "obj-1", 0 ],
									"hidden" : 0,
									"midpoints" : [  ]
								}

							}
 ]
					}
,
					"saved_object_attributes" : 					{
						"fontname" : "Arial",
						"default_fontface" : 0,
						"globalpatchername" : "",
						"fontface" : 0,
						"fontsize" : 12.0,
						"default_fontname" : "Arial",
						"default_fontsize" : 12.0
					}

				}

			}
, 			{
				"box" : 				{
					"maxclass" : "newobj",
					"text" : "p inv",
					"patching_rect" : [ 255.0, 255.0, 49.0, 18.0 ],
					"fontname" : "Arial",
					"id" : "obj-28",
					"numinlets" : 3,
					"numoutlets" : 1,
					"fontsize" : 10.0,
					"outlettype" : [ "signal" ],
					"patcher" : 					{
						"fileversion" : 1,
						"rect" : [ 76.0, 69.0, 640.0, 480.0 ],
						"bglocked" : 0,
						"defrect" : [ 76.0, 69.0, 640.0, 480.0 ],
						"openrect" : [ 0.0, 0.0, 0.0, 0.0 ],
						"openinpresentation" : 0,
						"default_fontsize" : 12.0,
						"default_fontface" : 0,
						"default_fontname" : "Arial",
						"gridonopen" : 0,
						"gridsize" : [ 15.0, 15.0 ],
						"gridsnaponopen" : 0,
						"toolbarvisible" : 1,
						"boxanimatetime" : 200,
						"imprint" : 0,
						"metadata" : [  ],
						"boxes" : [ 							{
								"box" : 								{
									"maxclass" : "newobj",
									"text" : "loadmess 1",
									"patching_rect" : [ 104.0, 269.0, 72.0, 20.0 ],
									"fontname" : "Arial",
									"id" : "obj-11",
									"numinlets" : 1,
									"numoutlets" : 1,
									"fontsize" : 12.0,
									"outlettype" : [ "" ]
								}

							}
, 							{
								"box" : 								{
									"maxclass" : "newobj",
									"text" : "onebang",
									"patching_rect" : [ 96.0, 192.0, 46.0, 17.0 ],
									"fontname" : "Arial",
									"id" : "obj-3",
									"numinlets" : 2,
									"numoutlets" : 2,
									"fontsize" : 9.0,
									"outlettype" : [ "bang", "bang" ]
								}

							}
, 							{
								"box" : 								{
									"maxclass" : "newobj",
									"text" : "int",
									"patching_rect" : [ 139.0, 225.0, 32.5, 17.0 ],
									"fontname" : "Arial",
									"id" : "obj-6",
									"numinlets" : 2,
									"numoutlets" : 1,
									"fontsize" : 9.0,
									"outlettype" : [ "int" ]
								}

							}
, 							{
								"box" : 								{
									"maxclass" : "newobj",
									"text" : "t b i",
									"patching_rect" : [ 140.0, 167.0, 32.5, 17.0 ],
									"fontname" : "Arial",
									"id" : "obj-4",
									"numinlets" : 1,
									"numoutlets" : 2,
									"fontsize" : 9.0,
									"outlettype" : [ "bang", "int" ]
								}

							}
, 							{
								"box" : 								{
									"maxclass" : "newobj",
									"text" : "r clock",
									"patching_rect" : [ 96.0, 167.0, 37.0, 17.0 ],
									"fontname" : "Arial",
									"id" : "obj-142",
									"numinlets" : 0,
									"numoutlets" : 1,
									"fontsize" : 9.0,
									"outlettype" : [ "" ]
								}

							}
, 							{
								"box" : 								{
									"maxclass" : "outlet",
									"patching_rect" : [ 195.0, 330.0, 25.0, 25.0 ],
									"id" : "obj-10",
									"numinlets" : 1,
									"numoutlets" : 0,
									"comment" : ""
								}

							}
, 							{
								"box" : 								{
									"maxclass" : "inlet",
									"patching_rect" : [ 315.0, 195.0, 25.0, 25.0 ],
									"id" : "obj-8",
									"numinlets" : 0,
									"numoutlets" : 1,
									"outlettype" : [ "signal" ],
									"comment" : "Inverse"
								}

							}
, 							{
								"box" : 								{
									"maxclass" : "inlet",
									"patching_rect" : [ 255.0, 195.0, 25.0, 25.0 ],
									"id" : "obj-7",
									"numinlets" : 0,
									"numoutlets" : 1,
									"outlettype" : [ "signal" ],
									"comment" : "Dry"
								}

							}
, 							{
								"box" : 								{
									"maxclass" : "inlet",
									"patching_rect" : [ 199.0, 137.0, 25.0, 25.0 ],
									"id" : "obj-5",
									"numinlets" : 0,
									"numoutlets" : 1,
									"outlettype" : [ "int" ],
									"comment" : "On/Off"
								}

							}
, 							{
								"box" : 								{
									"maxclass" : "newobj",
									"text" : "*~ -1.",
									"patching_rect" : [ 315.0, 255.0, 40.0, 20.0 ],
									"fontname" : "Arial",
									"id" : "obj-9",
									"numinlets" : 2,
									"numoutlets" : 1,
									"fontsize" : 12.0,
									"outlettype" : [ "signal" ]
								}

							}
, 							{
								"box" : 								{
									"maxclass" : "newobj",
									"text" : "+ 1",
									"patching_rect" : [ 195.0, 255.0, 32.5, 20.0 ],
									"fontname" : "Arial",
									"id" : "obj-2",
									"numinlets" : 2,
									"numoutlets" : 1,
									"fontsize" : 12.0,
									"outlettype" : [ "int" ]
								}

							}
, 							{
								"box" : 								{
									"maxclass" : "newobj",
									"text" : "selector~ 2",
									"patching_rect" : [ 195.0, 285.0, 139.0, 20.0 ],
									"fontname" : "Arial",
									"id" : "obj-1",
									"numinlets" : 3,
									"numoutlets" : 1,
									"fontsize" : 12.0,
									"outlettype" : [ "signal" ]
								}

							}
 ],
						"lines" : [ 							{
								"patchline" : 								{
									"source" : [ "obj-6", 0 ],
									"destination" : [ "obj-2", 0 ],
									"hidden" : 0,
									"midpoints" : [  ]
								}

							}
, 							{
								"patchline" : 								{
									"source" : [ "obj-5", 0 ],
									"destination" : [ "obj-4", 0 ],
									"hidden" : 0,
									"midpoints" : [  ]
								}

							}
, 							{
								"patchline" : 								{
									"source" : [ "obj-4", 1 ],
									"destination" : [ "obj-6", 1 ],
									"hidden" : 0,
									"midpoints" : [  ]
								}

							}
, 							{
								"patchline" : 								{
									"source" : [ "obj-142", 0 ],
									"destination" : [ "obj-3", 0 ],
									"hidden" : 0,
									"midpoints" : [  ]
								}

							}
, 							{
								"patchline" : 								{
									"source" : [ "obj-4", 0 ],
									"destination" : [ "obj-3", 1 ],
									"hidden" : 0,
									"midpoints" : [  ]
								}

							}
, 							{
								"patchline" : 								{
									"source" : [ "obj-3", 0 ],
									"destination" : [ "obj-6", 0 ],
									"hidden" : 0,
									"midpoints" : [  ]
								}

							}
, 							{
								"patchline" : 								{
									"source" : [ "obj-9", 0 ],
									"destination" : [ "obj-1", 2 ],
									"hidden" : 0,
									"midpoints" : [  ]
								}

							}
, 							{
								"patchline" : 								{
									"source" : [ "obj-2", 0 ],
									"destination" : [ "obj-1", 0 ],
									"hidden" : 0,
									"midpoints" : [  ]
								}

							}
, 							{
								"patchline" : 								{
									"source" : [ "obj-1", 0 ],
									"destination" : [ "obj-10", 0 ],
									"hidden" : 0,
									"midpoints" : [  ]
								}

							}
, 							{
								"patchline" : 								{
									"source" : [ "obj-7", 0 ],
									"destination" : [ "obj-1", 1 ],
									"hidden" : 0,
									"midpoints" : [  ]
								}

							}
, 							{
								"patchline" : 								{
									"source" : [ "obj-8", 0 ],
									"destination" : [ "obj-9", 0 ],
									"hidden" : 0,
									"midpoints" : [  ]
								}

							}
, 							{
								"patchline" : 								{
									"source" : [ "obj-11", 0 ],
									"destination" : [ "obj-1", 0 ],
									"hidden" : 0,
									"midpoints" : [  ]
								}

							}
 ]
					}
,
					"saved_object_attributes" : 					{
						"fontname" : "Arial",
						"default_fontface" : 0,
						"globalpatchername" : "",
						"fontface" : 0,
						"fontsize" : 12.0,
						"default_fontname" : "Arial",
						"default_fontsize" : 12.0
					}

				}

			}
, 			{
				"box" : 				{
					"maxclass" : "umenu",
					"patching_rect" : [ 165.0, 195.0, 48.0, 17.0 ],
					"presentation" : 1,
					"fontname" : "Arial",
					"id" : "obj-44",
					"numinlets" : 1,
					"numoutlets" : 3,
					"fontsize" : 9.0,
					"presentation_rect" : [ 0.0, 0.0, 48.0, 17.0 ],
					"outlettype" : [ "int", "", "" ],
					"types" : [  ],
					"items" : [ "sine", ",", "saw" ]
				}

			}
, 			{
				"box" : 				{
					"maxclass" : "newobj",
					"text" : "loadmess 1",
					"patching_rect" : [ 105.0, 255.0, 57.0, 17.0 ],
					"fontname" : "Arial",
					"id" : "obj-43",
					"numinlets" : 1,
					"numoutlets" : 1,
					"fontsize" : 9.0,
					"outlettype" : [ "" ]
				}

			}
, 			{
				"box" : 				{
					"maxclass" : "newobj",
					"text" : "+ 1",
					"patching_rect" : [ 165.0, 255.0, 32.5, 17.0 ],
					"fontname" : "Arial",
					"id" : "obj-42",
					"numinlets" : 2,
					"numoutlets" : 1,
					"fontsize" : 9.0,
					"outlettype" : [ "int" ]
				}

			}
, 			{
				"box" : 				{
					"maxclass" : "newobj",
					"text" : "selector~ 2",
					"patching_rect" : [ 165.0, 285.0, 199.0, 17.0 ],
					"fontname" : "Arial",
					"id" : "obj-41",
					"numinlets" : 3,
					"numoutlets" : 1,
					"fontsize" : 9.0,
					"outlettype" : [ "signal" ]
				}

			}
, 			{
				"box" : 				{
					"maxclass" : "slider",
					"patching_rect" : [ 315.0, 60.0, 195.0, 17.0 ],
					"presentation" : 1,
					"id" : "obj-40",
					"numinlets" : 1,
					"numoutlets" : 1,
					"presentation_rect" : [ 0.0, 15.0, 136.0, 17.0 ],
					"outlettype" : [ "" ]
				}

			}
, 			{
				"box" : 				{
					"maxclass" : "newobj",
					"text" : "p frac",
					"patching_rect" : [ 345.0, 120.0, 33.0, 17.0 ],
					"fontname" : "Arial",
					"id" : "obj-39",
					"numinlets" : 1,
					"numoutlets" : 1,
					"fontsize" : 9.0,
					"outlettype" : [ "" ],
					"patcher" : 					{
						"fileversion" : 1,
						"rect" : [ 74.0, 69.0, 581.0, 251.0 ],
						"bglocked" : 0,
						"defrect" : [ 74.0, 69.0, 581.0, 251.0 ],
						"openrect" : [ 0.0, 0.0, 0.0, 0.0 ],
						"openinpresentation" : 0,
						"default_fontsize" : 9.0,
						"default_fontface" : 0,
						"default_fontname" : "Arial",
						"gridonopen" : 0,
						"gridsize" : [ 10.0, 10.0 ],
						"gridsnaponopen" : 0,
						"toolbarvisible" : 1,
						"boxanimatetime" : 200,
						"imprint" : 0,
						"metadata" : [  ],
						"boxes" : [ 							{
								"box" : 								{
									"maxclass" : "message",
									"text" : "64.",
									"patching_rect" : [ 40.0, 170.0, 32.5, 15.0 ],
									"fontname" : "Arial",
									"id" : "obj-22",
									"numinlets" : 2,
									"numoutlets" : 1,
									"fontsize" : 9.0,
									"outlettype" : [ "" ]
								}

							}
, 							{
								"box" : 								{
									"maxclass" : "message",
									"text" : "32.",
									"patching_rect" : [ 70.0, 170.0, 32.5, 15.0 ],
									"fontname" : "Arial",
									"id" : "obj-18",
									"numinlets" : 2,
									"numoutlets" : 1,
									"fontsize" : 9.0,
									"outlettype" : [ "" ]
								}

							}
, 							{
								"box" : 								{
									"maxclass" : "message",
									"text" : "24.",
									"patching_rect" : [ 100.0, 170.0, 32.5, 15.0 ],
									"fontname" : "Arial",
									"id" : "obj-15",
									"numinlets" : 2,
									"numoutlets" : 1,
									"fontsize" : 9.0,
									"outlettype" : [ "" ]
								}

							}
, 							{
								"box" : 								{
									"maxclass" : "message",
									"text" : "16.",
									"patching_rect" : [ 130.0, 170.0, 32.5, 15.0 ],
									"fontname" : "Arial",
									"id" : "obj-12",
									"numinlets" : 2,
									"numoutlets" : 1,
									"fontsize" : 9.0,
									"outlettype" : [ "" ]
								}

							}
, 							{
								"box" : 								{
									"maxclass" : "message",
									"text" : "0.03125",
									"patching_rect" : [ 520.0, 170.0, 43.0, 15.0 ],
									"fontname" : "Arial",
									"id" : "obj-9",
									"numinlets" : 2,
									"numoutlets" : 1,
									"fontsize" : 9.0,
									"outlettype" : [ "" ]
								}

							}
, 							{
								"box" : 								{
									"maxclass" : "newobj",
									"text" : "onebang",
									"patching_rect" : [ 10.0, 70.0, 49.0, 17.0 ],
									"fontname" : "Arial",
									"id" : "obj-7",
									"numinlets" : 2,
									"numoutlets" : 2,
									"fontsize" : 9.0,
									"outlettype" : [ "bang", "bang" ]
								}

							}
, 							{
								"box" : 								{
									"maxclass" : "newobj",
									"text" : "int",
									"patching_rect" : [ 40.0, 100.0, 32.5, 17.0 ],
									"fontname" : "Arial",
									"id" : "obj-6",
									"numinlets" : 2,
									"numoutlets" : 1,
									"fontsize" : 9.0,
									"outlettype" : [ "int" ]
								}

							}
, 							{
								"box" : 								{
									"maxclass" : "newobj",
									"text" : "t b i",
									"patching_rect" : [ 40.0, 40.0, 32.5, 17.0 ],
									"fontname" : "Arial",
									"id" : "obj-5",
									"numinlets" : 1,
									"numoutlets" : 2,
									"fontsize" : 9.0,
									"outlettype" : [ "bang", "int" ]
								}

							}
, 							{
								"box" : 								{
									"maxclass" : "newobj",
									"text" : "r clock",
									"patching_rect" : [ 10.0, 40.0, 37.0, 17.0 ],
									"fontname" : "Arial",
									"id" : "obj-142",
									"numinlets" : 0,
									"numoutlets" : 1,
									"fontsize" : 9.0,
									"outlettype" : [ "" ]
								}

							}
, 							{
								"box" : 								{
									"maxclass" : "outlet",
									"patching_rect" : [ 40.0, 210.0, 25.0, 25.0 ],
									"id" : "obj-4",
									"numinlets" : 1,
									"numoutlets" : 0,
									"comment" : ""
								}

							}
, 							{
								"box" : 								{
									"maxclass" : "newobj",
									"text" : "sel 0 1 2 3 4 5 6 7 8 9 10 11 12 13 14 15 16",
									"patching_rect" : [ 40.0, 140.0, 528.5, 17.0 ],
									"fontname" : "Arial",
									"id" : "obj-3",
									"numinlets" : 1,
									"numoutlets" : 18,
									"fontsize" : 9.0,
									"outlettype" : [ "bang", "bang", "bang", "bang", "bang", "bang", "bang", "bang", "bang", "bang", "bang", "bang", "bang", "bang", "bang", "bang", "bang", "" ]
								}

							}
, 							{
								"box" : 								{
									"maxclass" : "newobj",
									"text" : "scale 0 127 0 16",
									"patching_rect" : [ 40.0, 120.0, 86.5, 17.0 ],
									"fontname" : "Arial",
									"id" : "obj-2",
									"numinlets" : 6,
									"numoutlets" : 1,
									"fontsize" : 9.0,
									"outlettype" : [ "int" ]
								}

							}
, 							{
								"box" : 								{
									"maxclass" : "inlet",
									"patching_rect" : [ 40.0, 10.0, 25.0, 25.0 ],
									"id" : "obj-1",
									"numinlets" : 0,
									"numoutlets" : 1,
									"outlettype" : [ "int" ],
									"comment" : ""
								}

							}
, 							{
								"box" : 								{
									"maxclass" : "message",
									"text" : "8.",
									"patching_rect" : [ 160.0, 170.0, 32.5, 15.0 ],
									"fontname" : "Arial",
									"id" : "obj-35",
									"numinlets" : 2,
									"numoutlets" : 1,
									"fontsize" : 9.0,
									"outlettype" : [ "" ]
								}

							}
, 							{
								"box" : 								{
									"maxclass" : "message",
									"text" : "0.0625",
									"patching_rect" : [ 490.0, 170.0, 38.0, 15.0 ],
									"fontname" : "Arial",
									"id" : "obj-33",
									"numinlets" : 2,
									"numoutlets" : 1,
									"fontsize" : 9.0,
									"outlettype" : [ "" ]
								}

							}
, 							{
								"box" : 								{
									"maxclass" : "message",
									"text" : "6.",
									"patching_rect" : [ 220.0, 170.0, 32.5, 15.0 ],
									"fontname" : "Arial",
									"id" : "obj-31",
									"numinlets" : 2,
									"numoutlets" : 1,
									"fontsize" : 9.0,
									"outlettype" : [ "" ]
								}

							}
, 							{
								"box" : 								{
									"maxclass" : "message",
									"text" : "7.",
									"patching_rect" : [ 190.0, 170.0, 32.5, 15.0 ],
									"fontname" : "Arial",
									"id" : "obj-29",
									"numinlets" : 2,
									"numoutlets" : 1,
									"fontsize" : 9.0,
									"outlettype" : [ "" ]
								}

							}
, 							{
								"box" : 								{
									"maxclass" : "message",
									"text" : "5.",
									"patching_rect" : [ 250.0, 170.0, 32.5, 15.0 ],
									"fontname" : "Arial",
									"id" : "obj-27",
									"numinlets" : 2,
									"numoutlets" : 1,
									"fontsize" : 9.0,
									"outlettype" : [ "" ]
								}

							}
, 							{
								"box" : 								{
									"maxclass" : "message",
									"text" : "4.",
									"patching_rect" : [ 280.0, 170.0, 32.5, 15.0 ],
									"fontname" : "Arial",
									"id" : "obj-25",
									"numinlets" : 2,
									"numoutlets" : 1,
									"fontsize" : 9.0,
									"outlettype" : [ "" ]
								}

							}
, 							{
								"box" : 								{
									"maxclass" : "message",
									"text" : "3.",
									"patching_rect" : [ 310.0, 170.0, 32.5, 15.0 ],
									"fontname" : "Arial",
									"id" : "obj-23",
									"numinlets" : 2,
									"numoutlets" : 1,
									"fontsize" : 9.0,
									"outlettype" : [ "" ]
								}

							}
, 							{
								"box" : 								{
									"maxclass" : "message",
									"text" : "2.",
									"patching_rect" : [ 340.0, 170.0, 32.5, 15.0 ],
									"fontname" : "Arial",
									"id" : "obj-21",
									"numinlets" : 2,
									"numoutlets" : 1,
									"fontsize" : 9.0,
									"outlettype" : [ "" ]
								}

							}
, 							{
								"box" : 								{
									"maxclass" : "message",
									"text" : "1.",
									"patching_rect" : [ 370.0, 170.0, 32.5, 15.0 ],
									"fontname" : "Arial",
									"id" : "obj-19",
									"numinlets" : 2,
									"numoutlets" : 1,
									"fontsize" : 9.0,
									"outlettype" : [ "" ]
								}

							}
, 							{
								"box" : 								{
									"maxclass" : "message",
									"text" : "0.5",
									"patching_rect" : [ 400.0, 170.0, 32.5, 15.0 ],
									"fontname" : "Arial",
									"id" : "obj-17",
									"numinlets" : 2,
									"numoutlets" : 1,
									"fontsize" : 9.0,
									"outlettype" : [ "" ]
								}

							}
, 							{
								"box" : 								{
									"maxclass" : "message",
									"text" : "0.125",
									"patching_rect" : [ 460.0, 170.0, 33.0, 15.0 ],
									"fontname" : "Arial",
									"id" : "obj-13",
									"numinlets" : 2,
									"numoutlets" : 1,
									"fontsize" : 9.0,
									"outlettype" : [ "" ]
								}

							}
, 							{
								"box" : 								{
									"maxclass" : "message",
									"text" : "0.25",
									"patching_rect" : [ 430.0, 170.0, 32.5, 15.0 ],
									"fontname" : "Arial",
									"id" : "obj-11",
									"numinlets" : 2,
									"numoutlets" : 1,
									"fontsize" : 9.0,
									"outlettype" : [ "" ]
								}

							}
 ],
						"lines" : [ 							{
								"patchline" : 								{
									"source" : [ "obj-9", 0 ],
									"destination" : [ "obj-4", 0 ],
									"hidden" : 0,
									"midpoints" : [ 529.5, 197.0, 49.5, 197.0 ]
								}

							}
, 							{
								"patchline" : 								{
									"source" : [ "obj-12", 0 ],
									"destination" : [ "obj-4", 0 ],
									"hidden" : 0,
									"midpoints" : [ 139.5, 197.0, 49.5, 197.0 ]
								}

							}
, 							{
								"patchline" : 								{
									"source" : [ "obj-18", 0 ],
									"destination" : [ "obj-4", 0 ],
									"hidden" : 0,
									"midpoints" : [ 79.5, 197.0, 49.5, 197.0 ]
								}

							}
, 							{
								"patchline" : 								{
									"source" : [ "obj-22", 0 ],
									"destination" : [ "obj-4", 0 ],
									"hidden" : 0,
									"midpoints" : [  ]
								}

							}
, 							{
								"patchline" : 								{
									"source" : [ "obj-6", 0 ],
									"destination" : [ "obj-2", 0 ],
									"hidden" : 0,
									"midpoints" : [  ]
								}

							}
, 							{
								"patchline" : 								{
									"source" : [ "obj-2", 0 ],
									"destination" : [ "obj-3", 0 ],
									"hidden" : 0,
									"midpoints" : [  ]
								}

							}
, 							{
								"patchline" : 								{
									"source" : [ "obj-3", 16 ],
									"destination" : [ "obj-9", 0 ],
									"hidden" : 0,
									"midpoints" : [  ]
								}

							}
, 							{
								"patchline" : 								{
									"source" : [ "obj-3", 0 ],
									"destination" : [ "obj-22", 0 ],
									"hidden" : 0,
									"midpoints" : [  ]
								}

							}
, 							{
								"patchline" : 								{
									"source" : [ "obj-3", 1 ],
									"destination" : [ "obj-18", 0 ],
									"hidden" : 0,
									"midpoints" : [  ]
								}

							}
, 							{
								"patchline" : 								{
									"source" : [ "obj-3", 2 ],
									"destination" : [ "obj-15", 0 ],
									"hidden" : 0,
									"midpoints" : [  ]
								}

							}
, 							{
								"patchline" : 								{
									"source" : [ "obj-3", 3 ],
									"destination" : [ "obj-12", 0 ],
									"hidden" : 0,
									"midpoints" : [  ]
								}

							}
, 							{
								"patchline" : 								{
									"source" : [ "obj-3", 4 ],
									"destination" : [ "obj-35", 0 ],
									"hidden" : 0,
									"midpoints" : [  ]
								}

							}
, 							{
								"patchline" : 								{
									"source" : [ "obj-3", 5 ],
									"destination" : [ "obj-29", 0 ],
									"hidden" : 0,
									"midpoints" : [  ]
								}

							}
, 							{
								"patchline" : 								{
									"source" : [ "obj-3", 6 ],
									"destination" : [ "obj-31", 0 ],
									"hidden" : 0,
									"midpoints" : [  ]
								}

							}
, 							{
								"patchline" : 								{
									"source" : [ "obj-3", 7 ],
									"destination" : [ "obj-27", 0 ],
									"hidden" : 0,
									"midpoints" : [  ]
								}

							}
, 							{
								"patchline" : 								{
									"source" : [ "obj-3", 8 ],
									"destination" : [ "obj-25", 0 ],
									"hidden" : 0,
									"midpoints" : [  ]
								}

							}
, 							{
								"patchline" : 								{
									"source" : [ "obj-3", 9 ],
									"destination" : [ "obj-23", 0 ],
									"hidden" : 0,
									"midpoints" : [  ]
								}

							}
, 							{
								"patchline" : 								{
									"source" : [ "obj-3", 10 ],
									"destination" : [ "obj-21", 0 ],
									"hidden" : 0,
									"midpoints" : [  ]
								}

							}
, 							{
								"patchline" : 								{
									"source" : [ "obj-3", 11 ],
									"destination" : [ "obj-19", 0 ],
									"hidden" : 0,
									"midpoints" : [  ]
								}

							}
, 							{
								"patchline" : 								{
									"source" : [ "obj-3", 12 ],
									"destination" : [ "obj-17", 0 ],
									"hidden" : 0,
									"midpoints" : [  ]
								}

							}
, 							{
								"patchline" : 								{
									"source" : [ "obj-3", 13 ],
									"destination" : [ "obj-11", 0 ],
									"hidden" : 0,
									"midpoints" : [  ]
								}

							}
, 							{
								"patchline" : 								{
									"source" : [ "obj-3", 14 ],
									"destination" : [ "obj-13", 0 ],
									"hidden" : 0,
									"midpoints" : [  ]
								}

							}
, 							{
								"patchline" : 								{
									"source" : [ "obj-3", 15 ],
									"destination" : [ "obj-33", 0 ],
									"hidden" : 0,
									"midpoints" : [  ]
								}

							}
, 							{
								"patchline" : 								{
									"source" : [ "obj-7", 0 ],
									"destination" : [ "obj-6", 0 ],
									"hidden" : 0,
									"midpoints" : [ 19.5, 95.0, 49.5, 95.0 ]
								}

							}
, 							{
								"patchline" : 								{
									"source" : [ "obj-5", 0 ],
									"destination" : [ "obj-7", 1 ],
									"hidden" : 0,
									"midpoints" : [  ]
								}

							}
, 							{
								"patchline" : 								{
									"source" : [ "obj-142", 0 ],
									"destination" : [ "obj-7", 0 ],
									"hidden" : 0,
									"midpoints" : [  ]
								}

							}
, 							{
								"patchline" : 								{
									"source" : [ "obj-5", 1 ],
									"destination" : [ "obj-6", 1 ],
									"hidden" : 0,
									"midpoints" : [  ]
								}

							}
, 							{
								"patchline" : 								{
									"source" : [ "obj-1", 0 ],
									"destination" : [ "obj-5", 0 ],
									"hidden" : 0,
									"midpoints" : [  ]
								}

							}
, 							{
								"patchline" : 								{
									"source" : [ "obj-33", 0 ],
									"destination" : [ "obj-4", 0 ],
									"hidden" : 0,
									"midpoints" : [ 499.5, 197.0, 49.5, 197.0 ]
								}

							}
, 							{
								"patchline" : 								{
									"source" : [ "obj-13", 0 ],
									"destination" : [ "obj-4", 0 ],
									"hidden" : 0,
									"midpoints" : [ 469.5, 197.0, 49.5, 197.0 ]
								}

							}
, 							{
								"patchline" : 								{
									"source" : [ "obj-11", 0 ],
									"destination" : [ "obj-4", 0 ],
									"hidden" : 0,
									"midpoints" : [ 439.5, 197.0, 49.5, 197.0 ]
								}

							}
, 							{
								"patchline" : 								{
									"source" : [ "obj-17", 0 ],
									"destination" : [ "obj-4", 0 ],
									"hidden" : 0,
									"midpoints" : [ 409.5, 197.0, 49.5, 197.0 ]
								}

							}
, 							{
								"patchline" : 								{
									"source" : [ "obj-19", 0 ],
									"destination" : [ "obj-4", 0 ],
									"hidden" : 0,
									"midpoints" : [ 379.5, 197.0, 49.5, 197.0 ]
								}

							}
, 							{
								"patchline" : 								{
									"source" : [ "obj-21", 0 ],
									"destination" : [ "obj-4", 0 ],
									"hidden" : 0,
									"midpoints" : [ 349.5, 197.0, 49.5, 197.0 ]
								}

							}
, 							{
								"patchline" : 								{
									"source" : [ "obj-23", 0 ],
									"destination" : [ "obj-4", 0 ],
									"hidden" : 0,
									"midpoints" : [ 319.5, 197.0, 49.5, 197.0 ]
								}

							}
, 							{
								"patchline" : 								{
									"source" : [ "obj-25", 0 ],
									"destination" : [ "obj-4", 0 ],
									"hidden" : 0,
									"midpoints" : [ 289.5, 197.0, 49.5, 197.0 ]
								}

							}
, 							{
								"patchline" : 								{
									"source" : [ "obj-27", 0 ],
									"destination" : [ "obj-4", 0 ],
									"hidden" : 0,
									"midpoints" : [ 259.5, 197.0, 49.5, 197.0 ]
								}

							}
, 							{
								"patchline" : 								{
									"source" : [ "obj-31", 0 ],
									"destination" : [ "obj-4", 0 ],
									"hidden" : 0,
									"midpoints" : [ 229.5, 197.0, 49.5, 197.0 ]
								}

							}
, 							{
								"patchline" : 								{
									"source" : [ "obj-29", 0 ],
									"destination" : [ "obj-4", 0 ],
									"hidden" : 0,
									"midpoints" : [ 199.5, 197.0, 49.5, 197.0 ]
								}

							}
, 							{
								"patchline" : 								{
									"source" : [ "obj-35", 0 ],
									"destination" : [ "obj-4", 0 ],
									"hidden" : 0,
									"midpoints" : [ 169.5, 197.0, 49.5, 197.0 ]
								}

							}
 ]
					}
,
					"saved_object_attributes" : 					{
						"fontname" : "Arial",
						"default_fontface" : 0,
						"globalpatchername" : "",
						"fontface" : 0,
						"fontsize" : 9.0,
						"default_fontname" : "Arial",
						"default_fontsize" : 9.0
					}

				}

			}
, 			{
				"box" : 				{
					"maxclass" : "newobj",
					"text" : "*~ 2.",
					"patching_rect" : [ 375.0, 210.0, 31.0, 17.0 ],
					"fontname" : "Arial",
					"id" : "obj-6",
					"numinlets" : 2,
					"numoutlets" : 1,
					"fontsize" : 9.0,
					"outlettype" : [ "signal" ]
				}

			}
, 			{
				"box" : 				{
					"maxclass" : "newobj",
					"text" : "-~ 0.5",
					"patching_rect" : [ 375.0, 180.0, 34.0, 17.0 ],
					"fontname" : "Arial",
					"id" : "obj-37",
					"numinlets" : 2,
					"numoutlets" : 1,
					"fontsize" : 9.0,
					"outlettype" : [ "signal" ]
				}

			}
, 			{
				"box" : 				{
					"maxclass" : "newobj",
					"text" : "phasor~",
					"patching_rect" : [ 285.0, 120.0, 49.0, 17.0 ],
					"fontname" : "Arial",
					"id" : "obj-5",
					"numinlets" : 2,
					"numoutlets" : 1,
					"fontsize" : 9.0,
					"outlettype" : [ "signal" ]
				}

			}
, 			{
				"box" : 				{
					"maxclass" : "newobj",
					"text" : "cos~",
					"patching_rect" : [ 285.0, 210.0, 30.0, 17.0 ],
					"fontname" : "Arial",
					"id" : "obj-3",
					"numinlets" : 1,
					"numoutlets" : 1,
					"fontsize" : 9.0,
					"outlettype" : [ "signal" ]
				}

			}
, 			{
				"box" : 				{
					"maxclass" : "newobj",
					"text" : "rate~",
					"patching_rect" : [ 285.0, 150.0, 78.5, 17.0 ],
					"fontname" : "Arial",
					"id" : "obj-2",
					"numinlets" : 2,
					"numoutlets" : 1,
					"fontsize" : 9.0,
					"outlettype" : [ "signal" ]
				}

			}
, 			{
				"box" : 				{
					"maxclass" : "newobj",
					"text" : "r hz",
					"patching_rect" : [ 285.0, 90.0, 26.0, 17.0 ],
					"fontname" : "Arial",
					"id" : "obj-1",
					"numinlets" : 0,
					"numoutlets" : 1,
					"fontsize" : 9.0,
					"outlettype" : [ "" ]
				}

			}
 ],
		"lines" : [ 			{
				"patchline" : 				{
					"source" : [ "obj-4", 0 ],
					"destination" : [ "obj-5", 1 ],
					"hidden" : 0,
					"midpoints" : [  ]
				}

			}
, 			{
				"patchline" : 				{
					"source" : [ "obj-4", 1 ],
					"destination" : [ "obj-39", 0 ],
					"hidden" : 0,
					"midpoints" : [  ]
				}

			}
, 			{
				"patchline" : 				{
					"source" : [ "obj-40", 0 ],
					"destination" : [ "obj-4", 0 ],
					"hidden" : 0,
					"midpoints" : [  ]
				}

			}
, 			{
				"patchline" : 				{
					"source" : [ "obj-27", 0 ],
					"destination" : [ "obj-34", 1 ],
					"hidden" : 0,
					"midpoints" : [  ]
				}

			}
, 			{
				"patchline" : 				{
					"source" : [ "obj-11", 0 ],
					"destination" : [ "obj-27", 0 ],
					"hidden" : 0,
					"midpoints" : [  ]
				}

			}
, 			{
				"patchline" : 				{
					"source" : [ "obj-26", 0 ],
					"destination" : [ "obj-15", 0 ],
					"hidden" : 0,
					"midpoints" : [  ]
				}

			}
, 			{
				"patchline" : 				{
					"source" : [ "obj-14", 0 ],
					"destination" : [ "obj-26", 0 ],
					"hidden" : 0,
					"midpoints" : [  ]
				}

			}
, 			{
				"patchline" : 				{
					"source" : [ "obj-44", 0 ],
					"destination" : [ "obj-25", 0 ],
					"hidden" : 0,
					"midpoints" : [  ]
				}

			}
, 			{
				"patchline" : 				{
					"source" : [ "obj-25", 0 ],
					"destination" : [ "obj-42", 0 ],
					"hidden" : 0,
					"midpoints" : [  ]
				}

			}
, 			{
				"patchline" : 				{
					"source" : [ "obj-34", 0 ],
					"destination" : [ "obj-18", 0 ],
					"hidden" : 0,
					"midpoints" : [ 174.5, 548.0, 39.5, 548.0 ]
				}

			}
, 			{
				"patchline" : 				{
					"source" : [ "obj-15", 0 ],
					"destination" : [ "obj-10", 1 ],
					"hidden" : 0,
					"midpoints" : [  ]
				}

			}
, 			{
				"patchline" : 				{
					"source" : [ "obj-10", 0 ],
					"destination" : [ "obj-34", 0 ],
					"hidden" : 0,
					"midpoints" : [  ]
				}

			}
, 			{
				"patchline" : 				{
					"source" : [ "obj-41", 0 ],
					"destination" : [ "obj-10", 0 ],
					"hidden" : 0,
					"midpoints" : [  ]
				}

			}
, 			{
				"patchline" : 				{
					"source" : [ "obj-50", 0 ],
					"destination" : [ "obj-55", 0 ],
					"hidden" : 0,
					"midpoints" : [  ]
				}

			}
, 			{
				"patchline" : 				{
					"source" : [ "obj-34", 1 ],
					"destination" : [ "obj-54", 0 ],
					"hidden" : 0,
					"midpoints" : [  ]
				}

			}
, 			{
				"patchline" : 				{
					"source" : [ "obj-34", 0 ],
					"destination" : [ "obj-50", 0 ],
					"hidden" : 0,
					"midpoints" : [  ]
				}

			}
, 			{
				"patchline" : 				{
					"source" : [ "obj-47", 0 ],
					"destination" : [ "obj-28", 0 ],
					"hidden" : 0,
					"midpoints" : [  ]
				}

			}
, 			{
				"patchline" : 				{
					"source" : [ "obj-47", 0 ],
					"destination" : [ "obj-45", 0 ],
					"hidden" : 0,
					"midpoints" : [ 264.5, 240.0, 354.5, 240.0 ]
				}

			}
, 			{
				"patchline" : 				{
					"source" : [ "obj-45", 0 ],
					"destination" : [ "obj-41", 2 ],
					"hidden" : 0,
					"midpoints" : [  ]
				}

			}
, 			{
				"patchline" : 				{
					"source" : [ "obj-6", 0 ],
					"destination" : [ "obj-45", 2 ],
					"hidden" : 0,
					"midpoints" : [  ]
				}

			}
, 			{
				"patchline" : 				{
					"source" : [ "obj-6", 0 ],
					"destination" : [ "obj-45", 1 ],
					"hidden" : 0,
					"midpoints" : [ 384.5, 240.0, 369.5, 240.0 ]
				}

			}
, 			{
				"patchline" : 				{
					"source" : [ "obj-28", 0 ],
					"destination" : [ "obj-41", 1 ],
					"hidden" : 0,
					"midpoints" : [  ]
				}

			}
, 			{
				"patchline" : 				{
					"source" : [ "obj-3", 0 ],
					"destination" : [ "obj-28", 2 ],
					"hidden" : 0,
					"midpoints" : [  ]
				}

			}
, 			{
				"patchline" : 				{
					"source" : [ "obj-3", 0 ],
					"destination" : [ "obj-28", 1 ],
					"hidden" : 0,
					"midpoints" : [ 294.5, 240.0, 279.5, 240.0 ]
				}

			}
, 			{
				"patchline" : 				{
					"source" : [ "obj-43", 0 ],
					"destination" : [ "obj-41", 0 ],
					"hidden" : 0,
					"midpoints" : [ 114.5, 279.0, 174.5, 279.0 ]
				}

			}
, 			{
				"patchline" : 				{
					"source" : [ "obj-42", 0 ],
					"destination" : [ "obj-41", 0 ],
					"hidden" : 0,
					"midpoints" : [  ]
				}

			}
, 			{
				"patchline" : 				{
					"source" : [ "obj-39", 0 ],
					"destination" : [ "obj-2", 1 ],
					"hidden" : 0,
					"midpoints" : [  ]
				}

			}
, 			{
				"patchline" : 				{
					"source" : [ "obj-2", 0 ],
					"destination" : [ "obj-37", 0 ],
					"hidden" : 0,
					"midpoints" : [ 294.5, 177.0, 384.5, 177.0 ]
				}

			}
, 			{
				"patchline" : 				{
					"source" : [ "obj-37", 0 ],
					"destination" : [ "obj-6", 0 ],
					"hidden" : 0,
					"midpoints" : [  ]
				}

			}
, 			{
				"patchline" : 				{
					"source" : [ "obj-5", 0 ],
					"destination" : [ "obj-2", 0 ],
					"hidden" : 0,
					"midpoints" : [  ]
				}

			}
, 			{
				"patchline" : 				{
					"source" : [ "obj-1", 0 ],
					"destination" : [ "obj-5", 0 ],
					"hidden" : 0,
					"midpoints" : [  ]
				}

			}
, 			{
				"patchline" : 				{
					"source" : [ "obj-2", 0 ],
					"destination" : [ "obj-3", 0 ],
					"hidden" : 0,
					"midpoints" : [  ]
				}

			}
, 			{
				"patchline" : 				{
					"source" : [ "obj-7", 0 ],
					"destination" : [ "obj-14", 0 ],
					"hidden" : 0,
					"midpoints" : [  ]
				}

			}
, 			{
				"patchline" : 				{
					"source" : [ "obj-12", 0 ],
					"destination" : [ "obj-40", 0 ],
					"hidden" : 0,
					"midpoints" : [  ]
				}

			}
 ]
	}

}
