#N canvas 416 28 715 695 10;
#X obj 65 94 inlet;
#X obj 65 624 adsr~ 100 100 100 100 100;
#X obj 123 314 r \$0-amp_attack;
#X obj 153 398 r \$0-amp_decay;
#X obj 182 478 r \$0-amp_sustain;
#X obj 212 538 r \$0-amp_release;
#X obj 94 274 r \$0-amp_level;
#X obj 123 334 mid2dec;
#X obj 153 418 mid2dec;
#X obj 182 498 mid2dec;
#X obj 212 558 mid2dec;
#X obj 94 294 mid2dec;
#X obj 123 374 - 9;
#X obj 156 374 s \$0-amp_gui_attack_set;
#X obj 123 354 * 1000;
#X obj 153 458 - 9;
#X obj 153 438 * 1000;
#X obj 186 458 s \$0-amp_gui_decay_set;
#X obj 226 518 s \$0-amp_gui_sustain_set;
#X obj 182 518 * 100;
#X obj 226 624 s \$0-amp_gui_release_set;
#X obj 5 664 outlet~;
#X obj 212 578 * 2000;
#X obj 212 598 - 19;
#X obj 528 100 f \$0;
#X obj 528 40 loadbang;
#X obj 5 7 cnv 15 100 60 empty \$0-label AMPLITUDE 0 0 0 9 -262144
-1 0;
#X obj 8 30 hsl 128 15 1.27 127 1 0 \$0-amp_decay \$0-amp_decay_set
DECAY 20 7 0 9 -262144 -1 -1 12700 1;
#X obj 8 45 hsl 128 15 0 127 0 0 \$0-amp_sustain \$0-amp_sustain_set
SUSTAIN 20 7 0 9 -262144 -1 -1 11800 1;
#X obj 8 60 hsl 128 15 1.27 127 1 0 \$0-amp_release \$0-amp_release_set
RELEASE 20 7 0 9 -262144 -1 -1 10810 1;
#X obj 163 15 nbx 4 15 -1e+37 1e+37 0 0 \$0-amp_gui_attack \$0-amp_gui_attack_set
empty 0 -8 0 10 -262144 -1 -1 2.78097 256;
#X obj 163 30 nbx 4 15 -1e+37 1e+37 0 0 \$0-amp_gui_decay \$0-amp_gui_decay_set
empty 0 -8 0 10 -262144 -1 -1 991 256;
#X obj 163 45 nbx 4 15 -1e+37 1e+37 0 0 \$0-amp_gui_sustain \$0-amp_gui_sustain_set
empty 0 -8 0 10 -262144 -1 -1 92.9134 256;
#X obj 163 60 nbx 4 15 -1e+37 1e+37 0 0 \$0-amp_gui_release \$0-amp_gui_release_set
empty 0 -8 0 10 -262144 -1 -1 988.841 256;
#X obj 143 17 vsl 15 55 0 127 0 0 \$0-amp_level \$0-amp_level_set empty
0 -9 0 10 -262144 -1 -1 5400 1;
#X obj 8 15 hsl 128 15 1.27 127 1 0 \$0-amp_attack \$0-amp_attack_set
ATTACK 20 7 0 9 -262144 -1 -1 452 1;
#X obj 528 70 t b b;
#X obj 528 130 pack f s;
#X obj 573 100 symbol \$1;
#X obj 5 634 *~;
#X obj 5 94 inlet~;
#X msg 528 160 \; \$1-amp_attack_set 2 \; \$1-amp_decay_set 100 \;
\$1-amp_sustain_set 50 \; \$1-amp_release_set 64 \; \$1-amp_level_set
127 \; \$1-label label \$2 \;;
#X obj 65 664 outlet~;
#X obj 281 164 s \$0-amp_level_set;
#X obj 108 244 s \$0-amp_attack_set;
#X obj 151 224 s \$0-amp_decay_set;
#X obj 194 204 s \$0-amp_sustain_set;
#X obj 238 184 s \$0-amp_release_set;
#N canvas 316 38 290 466 parameters 0;
#X obj 148 74 r \$0-amp_attack;
#X obj 148 114 r \$0-amp_decay;
#X obj 148 154 r \$0-amp_sustain;
#X obj 148 194 r \$0-amp_release;
#X obj 148 34 r \$0-amp_level;
#X obj 34 354 pack s f s f s f s f s f;
#X obj 34 87 loadbang;
#X obj 34 324 symbol level;
#X obj 65 304 symbol attack;
#X obj 96 284 symbol decay;
#X obj 128 264 symbol sustain;
#X obj 159 244 symbol release;
#X obj 34 117 t b b b b b;
#X obj 148 54 t b f;
#X obj 148 94 t b f;
#X obj 148 134 t b f;
#X obj 148 174 t b f;
#X obj 148 214 t b f;
#X obj 34 414 outlet;
#X obj 34 384 list prepend \$1;
#X connect 0 0 14 0;
#X connect 1 0 15 0;
#X connect 2 0 16 0;
#X connect 3 0 17 0;
#X connect 4 0 13 0;
#X connect 5 0 19 0;
#X connect 6 0 12 0;
#X connect 7 0 5 0;
#X connect 8 0 5 2;
#X connect 9 0 5 4;
#X connect 10 0 5 6;
#X connect 11 0 5 8;
#X connect 12 0 7 0;
#X connect 12 1 8 0;
#X connect 12 2 9 0;
#X connect 12 3 10 0;
#X connect 12 4 11 0;
#X connect 13 0 7 0;
#X connect 13 1 5 1;
#X connect 14 0 7 0;
#X connect 14 1 5 3;
#X connect 15 0 7 0;
#X connect 15 1 5 5;
#X connect 16 0 7 0;
#X connect 16 1 5 7;
#X connect 17 0 7 0;
#X connect 17 1 5 9;
#X connect 19 0 18 0;
#X restore 395 634 pd parameters;
#X obj 395 664 outlet;
#N canvas 243 118 380 510 dump 0;
#X obj 36 165 route attack decay sustain release level;
#X obj 36 435 list split 1;
#X obj 83 375 list split 1;
#X obj 130 315 list split 1;
#X obj 178 255 list split 1;
#X obj 225 195 list split 1;
#X obj 225 225 s \$0-amp_level_set;
#X obj 36 465 s \$0-amp_attack_set;
#X obj 83 405 s \$0-amp_decay_set;
#X obj 130 345 s \$0-amp_sustain_set;
#X obj 178 285 s \$0-amp_release_set;
#X obj 123 108 list;
#X obj 36 15 inlet;
#X obj 40 75 route dump;
#X obj 50 125 route list;
#X connect 0 0 1 0;
#X connect 0 1 2 0;
#X connect 0 2 3 0;
#X connect 0 3 4 0;
#X connect 0 4 5 0;
#X connect 1 0 7 0;
#X connect 1 1 11 0;
#X connect 2 0 8 0;
#X connect 2 1 11 0;
#X connect 3 0 9 0;
#X connect 3 1 11 0;
#X connect 4 0 10 0;
#X connect 4 1 11 0;
#X connect 5 0 6 0;
#X connect 5 1 11 0;
#X connect 11 0 14 0;
#X connect 12 0 13 0;
#X connect 13 0 0 0;
#X connect 14 0 0 0;
#X restore 324 144 pd dump;
#X obj 65 124 route float attack decay sustain release level list;
#X connect 0 0 51 0;
#X connect 1 0 39 1;
#X connect 1 0 42 0;
#X connect 2 0 7 0;
#X connect 3 0 8 0;
#X connect 4 0 9 0;
#X connect 5 0 10 0;
#X connect 6 0 11 0;
#X connect 7 0 14 0;
#X connect 8 0 16 0;
#X connect 9 0 19 0;
#X connect 10 0 22 0;
#X connect 11 0 1 1;
#X connect 12 0 13 0;
#X connect 12 0 1 2;
#X connect 14 0 12 0;
#X connect 15 0 17 0;
#X connect 15 0 1 3;
#X connect 16 0 15 0;
#X connect 19 0 18 0;
#X connect 19 0 1 4;
#X connect 22 0 23 0;
#X connect 23 0 20 0;
#X connect 23 0 1 5;
#X connect 24 0 37 0;
#X connect 25 0 36 0;
#X connect 36 0 24 0;
#X connect 36 1 38 0;
#X connect 37 0 41 0;
#X connect 38 0 37 1;
#X connect 39 0 21 0;
#X connect 40 0 39 0;
#X connect 48 0 49 0;
#X connect 51 0 1 0;
#X connect 51 1 44 0;
#X connect 51 2 45 0;
#X connect 51 3 46 0;
#X connect 51 4 47 0;
#X connect 51 5 43 0;
#X connect 51 6 50 0;
#X coords 0 -1 1 1 213 80 2 0 0;
