#N canvas 314 63 510 633 10;
#X obj 47 584 outlet~;
#X obj 62 424 r \$0-gain;
#N canvas 0 22 466 316 rh_scalelog 0;
#X obj 20 155 exp;
#X obj 20 107 *;
#X obj 20 130 +;
#X obj 98 87 log;
#X obj 194 84 log;
#X obj 123 123 t b f;
#X obj 123 145 -;
#X obj 20 183 outlet;
#X obj 20 19 inlet;
#X obj 98 23 inlet;
#X obj 194 24 inlet;
#X connect 0 0 7 0;
#X connect 1 0 2 0;
#X connect 2 0 0 0;
#X connect 3 0 2 1;
#X connect 3 0 5 0;
#X connect 4 0 6 0;
#X connect 5 0 6 0;
#X connect 5 1 6 1;
#X connect 6 0 1 1;
#X connect 8 0 1 0;
#X connect 9 0 3 0;
#X connect 10 0 4 0;
#X restore 62 504 pd rh_scalelog;
#X msg 102 474 0.1;
#X obj 47 37 inlet~;
#X obj 62 174 wrap~;
#X obj 47 204 -~;
#X obj 47 144 *~ 65536;
#X obj 47 224 /~ 65536;
#N canvas 312 230 466 316 rh_scalelog 0;
#X obj 20 155 exp;
#X obj 20 107 *;
#X obj 20 130 +;
#X obj 98 87 log;
#X obj 194 84 log;
#X obj 123 123 t b f;
#X obj 123 145 -;
#X obj 20 183 outlet;
#X obj 20 19 inlet;
#X obj 98 23 inlet;
#X obj 194 24 inlet;
#X connect 0 0 7 0;
#X connect 1 0 2 0;
#X connect 2 0 0 0;
#X connect 3 0 2 1;
#X connect 3 0 5 0;
#X connect 4 0 6 0;
#X connect 5 0 6 0;
#X connect 5 1 6 1;
#X connect 6 0 1 1;
#X connect 8 0 1 0;
#X connect 9 0 3 0;
#X connect 10 0 4 0;
#X restore 110 174 pd rh_scalelog;
#X msg 191 144 65536;
#X msg 150 144 1;
#X obj 47 384 samphold~;
#X obj 98 364 phasor~ 4400;
#N canvas 0 22 466 316 rh_scalelog 0;
#X obj 20 155 exp;
#X obj 20 107 *;
#X obj 20 130 +;
#X obj 98 87 log;
#X obj 194 84 log;
#X obj 123 123 t b f;
#X obj 123 145 -;
#X obj 20 183 outlet;
#X obj 20 19 inlet;
#X obj 98 23 inlet;
#X obj 194 24 inlet;
#X connect 0 0 7 0;
#X connect 1 0 2 0;
#X connect 2 0 0 0;
#X connect 3 0 2 1;
#X connect 3 0 5 0;
#X connect 4 0 6 0;
#X connect 5 0 6 0;
#X connect 5 1 6 1;
#X connect 6 0 1 1;
#X connect 8 0 1 0;
#X connect 9 0 3 0;
#X connect 10 0 4 0;
#X restore 98 344 pd rh_scalelog;
#X msg 179 314 44009;
#X msg 138 314 512;
#X obj 47 534 *~;
#X obj 110 74 r \$0-bitdepth;
#X obj 98 264 r \$0-samplerate;
#X obj 110 94 expr pow($f1 \, 4);
#X obj 266 37 inlet;
#X obj 266 77 list trim;
#X obj 266 97 route bitdepth samplerate gain;
#X obj 384 127 s \$0-gain;
#X obj 325 147 s \$0-samplerate;
#X obj 266 167 s \$0-bitdepth;
#X text 236 377 Hardoffs bitcrusher taken from DIY2;
#X obj 150 116 loadbang;
#X obj 138 284 loadbang;
#X obj 102 444 loadbang;
#X obj 47 564 hip~ 5;
#X msg 143 474 2;
#X connect 1 0 2 0;
#X connect 2 0 17 1;
#X connect 3 0 2 1;
#X connect 4 0 7 0;
#X connect 5 0 6 1;
#X connect 6 0 8 0;
#X connect 7 0 5 0;
#X connect 7 0 6 0;
#X connect 8 0 12 0;
#X connect 9 0 7 1;
#X connect 9 0 8 1;
#X connect 10 0 9 2;
#X connect 11 0 9 1;
#X connect 12 0 17 0;
#X connect 13 0 12 1;
#X connect 14 0 13 0;
#X connect 15 0 14 2;
#X connect 16 0 14 1;
#X connect 17 0 31 0;
#X connect 18 0 20 0;
#X connect 19 0 14 0;
#X connect 20 0 9 0;
#X connect 21 0 22 0;
#X connect 22 0 23 0;
#X connect 23 0 26 0;
#X connect 23 1 25 0;
#X connect 23 2 24 0;
#X connect 28 0 11 0;
#X connect 28 0 10 0;
#X connect 29 0 16 0;
#X connect 29 0 15 0;
#X connect 30 0 3 0;
#X connect 30 0 32 0;
#X connect 31 0 0 0;
#X connect 32 0 2 2;
