#N canvas 747 111 386 364 10;
#X obj 35 178 inlet;
#X obj 8 13 cnv 15 100 60 empty \$0-label empty 0 0 0 9 -262144 -1
0;
#X obj 9 26 hsl 128 15 0 127 0 0 \$0-frequency \$0-frequency_set FREQUENCY
20 7 0 9 -262144 -1 -1 3200 1;
#X obj 9 41 hsl 128 15 0 127 0 0 \$0-amount \$0-amount_set AMOUNT 20
7 0 9 -262144 -1 -1 6400 1;
#X obj 9 56 hsl 128 15 0 127 0 0 \$0-rate \$0-rate_set RATE 20 7 0
9 -262144 -1 -1 400 1;
#X obj 9 71 hsl 128 15 0 127 0 0 \$0-noise \$0-noise_set NOISE 20 7
0 9 -262144 -1 -1 0 1;
#X obj 143 26 nbx 5 15 -1e+37 1e+37 0 0 \$0-freq_gui \$0-freq_gui_set
empty 0 -8 0 10 -262144 -1 -1 51.9131 256;
#X obj 143 41 nbx 5 15 -1e+37 1e+37 0 0 \$0-amount_gui \$0-amount_gui_set
empty 0 -8 0 10 -262144 -1 -1 848.942 256;
#X obj 143 56 nbx 5 15 -1e+37 1e+37 0 0 \$0-rate_gui \$0-rate_gui_set
empty 0 -8 0 10 -262144 -1 -1 15.748 256;
#X obj 143 71 nbx 5 15 -1e+37 1e+37 0 0 \$0-noise_gui \$0-noise_gui_set
empty 0 -8 0 10 -262144 -1 -1 0 256;
#X obj 242 26 tgl 15 0 \$0-power \$0-power_set OSC 20 7 0 9 -191407
-1 -1 0 1;
#X obj 9 101 hsl 128 15 0 127 0 0 \$0-decay \$0-decay_set DECAY 20
7 0 9 -262144 -1 -1 6400 1;
#X obj 143 101 nbx 5 15 -1e+37 1e+37 0 0 \$0-decay_gui \$0-decay_gui_set
empty 0 -8 0 10 -262144 -1 -1 503.937 256;
#X obj 242 41 tgl 15 0 \$0-env \$0-env_set ENV 20 7 0 9 -191407 -1
-1 0 1;
#X obj 294 6 vradio 15 1 0 4 \$0-waveform_1 \$0-waveform_1_set empty
0 -8 0 10 -262144 -1 -1 0;
#X obj 314 11 cnv 10 10 5 empty empty SINE 0 3 0 9 -262144 -1 0;
#X obj 314 26 cnv 10 10 5 empty empty TRIANGLE 0 3 0 9 -262144 -1 0
;
#X obj 314 41 cnv 10 10 5 empty empty SQUARE 0 3 0 9 -262144 -1 0;
#X obj 314 56 cnv 10 10 5 empty empty SAW 0 3 0 9 -262144 -1 0;
#X obj 35 278 outlet~;
#X obj 222 28 vsl 15 85 0 127 0 0 \$0-vol \$0-vol_set OUT 2 10 0 6
-262144 -1 -1 8400 1;
#X obj 135 178 inlet;
#X obj 202 28 vsl 15 85 0 127 0 0 \$0-wave_vol \$0-wave_vol_set WAV
2 10 0 6 -262144 -1 -1 8400 1;
#N canvas 498 344 451 335 param 0;
#X obj 30 268 s \$0-frequency_set;
#X obj 63 248 s \$0-amount_set;
#X obj 97 228 s \$0-rate_set;
#X obj 131 208 s \$0-noise_set;
#X obj 165 188 s \$0-decay_set;
#X obj 199 168 s \$0-waveform_1_set;
#X obj 233 148 s \$0-power_set;
#X obj 267 128 s \$0-env_set;
#X obj 301 108 s \$0-vol_set;
#X obj 335 88 s \$0-realdecay;
#X obj 30 45 route frequency amount rate noise decay waveform wave
env volume realdecay;
#X obj 30 13 inlet;
#X connect 10 0 0 0;
#X connect 10 1 1 0;
#X connect 10 2 2 0;
#X connect 10 3 3 0;
#X connect 10 4 4 0;
#X connect 10 5 5 0;
#X connect 10 6 6 0;
#X connect 10 7 7 0;
#X connect 10 8 8 0;
#X connect 10 9 9 0;
#X connect 11 0 10 0;
#X restore 135 228 pd param;
#X obj 9 86 hsl 128 15 0 127 0 0 \$0-feedback \$0-feedback_set FEEDBACK
20 7 0 9 -262144 -1 -1 0 1;
#N canvas 414 109 285 409 synthesis 0;
#X obj 78 294 outlet~;
#X obj 78 54 inlet;
#X obj 78 94 s \$0-si_trig;
#N canvas 506 192 760 488 pitch_envelope 0;
#X obj 433 164 t b f;
#X obj 320 316 sig~;
#X obj 320 251 mtof;
#X obj 460 345 sig~;
#X obj 460 225 mtof;
#X obj 320 211 +;
#X obj 34 362 +~;
#X obj 34 333 *~;
#X obj 433 145 r \$0-frequency;
#X obj 319 66 r \$0-amount;
#X obj 470 245 s \$0-freq_gui_set;
#X obj 330 271 s \$0-amount_gui_set;
#X obj 320 231 min 127;
#X obj 320 180 * 96;
#X obj 34 402 outlet~;
#X obj 169 129 * 500;
#X obj 67 94 r \$0-si_trig;
#X obj 170 17 r \$0-rate;
#X obj 187 169 s \$0-rate_gui_set;
#X obj 34 229 ead~ 1 20;
#X obj 154 229 vline~;
#X msg 154 199 0 \, 1 2 0 \, 0 \$1 2;
#X obj 154 169 f;
#X obj 34 124 gate 2;
#X obj 34 64 r \$0-pitch_env_type;
#X obj 34 94 + 1;
#X obj 185 82 / 127;
#X obj 185 61 int 1;
#X obj 185 40 loadbang;
#X obj 170 104 * 1;
#X obj 333 133 / 127;
#X obj 333 112 int 1;
#X obj 333 91 loadbang;
#X obj 318 155 * 1;
#X connect 0 0 5 0;
#X connect 0 1 4 0;
#X connect 0 1 5 1;
#X connect 1 0 7 1;
#X connect 2 0 1 0;
#X connect 2 0 11 0;
#X connect 3 0 6 1;
#X connect 4 0 3 0;
#X connect 4 0 10 0;
#X connect 5 0 12 0;
#X connect 6 0 14 0;
#X connect 7 0 6 0;
#X connect 8 0 0 0;
#X connect 9 0 33 0;
#X connect 12 0 2 0;
#X connect 13 0 5 0;
#X connect 15 0 18 0;
#X connect 15 0 19 2;
#X connect 15 0 22 1;
#X connect 16 0 23 1;
#X connect 17 0 29 0;
#X connect 19 0 7 0;
#X connect 20 0 7 0;
#X connect 21 0 20 0;
#X connect 22 0 21 0;
#X connect 23 0 19 0;
#X connect 23 1 22 0;
#X connect 24 0 25 0;
#X connect 25 0 23 0;
#X connect 26 0 29 1;
#X connect 27 0 26 0;
#X connect 28 0 27 0;
#X connect 29 0 15 0;
#X connect 30 0 33 1;
#X connect 31 0 30 0;
#X connect 32 0 31 0;
#X connect 33 0 13 0;
#X restore 78 134 pd pitch_envelope;
#N canvas 0 22 489 528 feedback 0;
#X obj 124 278 *~ 0;
#X obj 99 113 +~;
#X obj 145 113 r \$0-feedback;
#X obj 124 302 s~ \$0-feedback_signal;
#X obj 114 83 r~ \$0-feedback_signal;
#X obj 100 41 inlet~;
#X obj 99 348 outlet~;
#X obj 163 257 s \$0-feedback_gui_set;
#X obj 157 230 * 16;
#X obj 171 183 / 127;
#X obj 171 162 int 1;
#X obj 171 141 loadbang;
#X obj 156 205 * 1;
#X connect 0 0 3 0;
#X connect 1 0 0 0;
#X connect 1 0 6 0;
#X connect 2 0 12 0;
#X connect 4 0 1 1;
#X connect 5 0 1 0;
#X connect 8 0 7 0;
#X connect 8 0 0 1;
#X connect 9 0 12 1;
#X connect 10 0 9 0;
#X connect 11 0 10 0;
#X connect 12 0 8 0;
#X restore 78 154 pd feedback;
#N canvas 0 22 448 401 oscillator 0;
#X obj 121 85 phasor~ 10;
#N canvas 0 22 450 300 tri 0;
#X obj 162 95 *~ -1;
#X obj 162 115 +~ 1;
#X obj 141 135 min~;
#X obj 141 155 *~ 4;
#X obj 141 175 -~ 1;
#X obj 141 65 inlet~;
#X obj 141 205 outlet~;
#X obj 216 75 r \$0-waveform_1;
#X obj 216 135 switch~;
#X obj 216 105 == 1;
#X connect 0 0 1 0;
#X connect 1 0 2 1;
#X connect 2 0 3 0;
#X connect 3 0 4 0;
#X connect 4 0 6 0;
#X connect 5 0 0 0;
#X connect 5 0 2 0;
#X connect 7 0 9 0;
#X connect 9 0 8 0;
#X restore 172 125 pd tri;
#N canvas 0 22 450 300 sqr 0;
#X obj 141 65 inlet~;
#X obj 141 215 outlet~;
#X obj 156 125 wrap~;
#X obj 141 95 -~ 0.5;
#X obj 156 145 -~ 0.5;
#X obj 141 165 -~;
#X obj 141 185 *~ 2;
#X obj 226 85 r \$0-waveform_1;
#X obj 226 145 switch~;
#X obj 226 115 == 2;
#X connect 0 0 3 0;
#X connect 2 0 4 0;
#X connect 3 0 2 0;
#X connect 3 0 5 0;
#X connect 4 0 5 1;
#X connect 5 0 6 0;
#X connect 6 0 1 0;
#X connect 7 0 9 0;
#X connect 9 0 8 0;
#X restore 223 125 pd sqr;
#N canvas 0 22 450 300 osc 0;
#X obj 141 65 inlet~;
#X obj 141 135 outlet~;
#X obj 141 105 cos~;
#X obj 206 65 r \$0-waveform_1;
#X obj 206 125 switch~;
#X obj 206 95 == 0;
#X connect 0 0 2 0;
#X connect 2 0 1 0;
#X connect 3 0 5 0;
#X connect 5 0 4 0;
#X restore 121 125 pd osc;
#N canvas 0 22 450 300 saw 0;
#X obj 141 65 inlet~;
#X obj 141 145 outlet~;
#X obj 141 95 -~ 0.5;
#X obj 141 115 *~ 2;
#X obj 236 95 r \$0-waveform_1;
#X obj 236 155 switch~;
#X obj 236 125 == 3;
#X connect 0 0 2 0;
#X connect 2 0 3 0;
#X connect 3 0 1 0;
#X connect 4 0 6 0;
#X connect 6 0 5 0;
#X restore 274 125 pd saw;
#X obj 21 85 r \$0-waveform_1;
#X obj 121 55 inlet~;
#X obj 121 195 outlet~;
#X obj 121 155 multiplex~ osc tri sqr saw;
#X connect 0 0 3 0;
#X connect 0 0 1 0;
#X connect 0 0 2 0;
#X connect 0 0 4 0;
#X connect 1 0 8 1;
#X connect 2 0 8 2;
#X connect 3 0 8 0;
#X connect 4 0 8 3;
#X connect 5 0 8 0;
#X connect 6 0 0 0;
#X connect 8 0 7 0;
#X restore 78 174 pd oscillator;
#N canvas 0 22 340 370 gain_stage 0;
#X obj 137 111 < 1;
#X obj 76 128 *~;
#X obj 137 86 r \$0-power;
#X obj 76 259 *~;
#X obj 114 140 r \$0-wave_vol;
#X obj 71 59 inlet~;
#X obj 75 306 outlet~;
#X obj 129 211 / 127;
#X obj 129 190 int 1;
#X obj 129 169 loadbang;
#X obj 114 233 * 1;
#X connect 0 0 1 1;
#X connect 1 0 3 0;
#X connect 2 0 0 0;
#X connect 3 0 6 0;
#X connect 4 0 10 0;
#X connect 5 0 1 0;
#X connect 7 0 10 1;
#X connect 8 0 7 0;
#X connect 9 0 8 0;
#X connect 10 0 3 1;
#X restore 78 194 pd gain_stage;
#N canvas 0 22 868 637 amp_envelope 0;
#X obj 47 427 *~;
#X obj 124 133 r \$0-decay;
#X obj 233 246 s \$0-decay_gui_set;
#X obj 125 248 * 1000;
#X obj 472 95 r \$0-env;
#X obj 439 124 spigot;
#X obj 439 76 r \$0-si_trig;
#X obj 469 154 delay;
#X obj 469 174 f 0;
#X obj 439 174 f 1;
#X obj 187 406 mux~ 1 2;
#X obj 200 376 r \$0-env;
#X obj 439 206 pack 0 5;
#X obj 439 236 line~;
#X obj 47 31 inlet~;
#X obj 47 462 outlet~;
#X obj 85 311 ead~ 2 20;
#X obj 148 46 r \$0-si_trig;
#X obj 189 350 vline~;
#X msg 189 320 0 \, 1 2 0 \, 0 \$1 2;
#X obj 189 290 f;
#X obj 115 76 gate 2;
#X obj 115 46 + 1;
#X obj 115 16 r \$0-amp_env_type;
#X obj 138 200 / 127;
#X obj 138 179 int 1;
#X obj 138 158 loadbang;
#X obj 123 222 * 1;
#X connect 0 0 15 0;
#X connect 1 0 27 0;
#X connect 3 0 2 0;
#X connect 3 0 7 1;
#X connect 3 0 16 2;
#X connect 3 0 20 1;
#X connect 4 0 5 1;
#X connect 5 0 7 0;
#X connect 5 0 9 0;
#X connect 6 0 5 0;
#X connect 7 0 8 0;
#X connect 8 0 12 0;
#X connect 9 0 12 0;
#X connect 10 0 0 1;
#X connect 11 0 10 0;
#X connect 12 0 13 0;
#X connect 13 0 10 1;
#X connect 14 0 0 0;
#X connect 16 0 10 0;
#X connect 17 0 21 1;
#X connect 18 0 10 0;
#X connect 19 0 18 0;
#X connect 20 0 19 0;
#X connect 21 0 16 0;
#X connect 21 1 20 0;
#X connect 22 0 21 0;
#X connect 23 0 22 0;
#X connect 24 0 27 1;
#X connect 25 0 24 0;
#X connect 26 0 25 0;
#X connect 27 0 3 0;
#X restore 78 234 pd amp_envelope;
#N canvas 0 22 450 300 noise 0;
#X obj 217 87 noise~;
#X obj 83 174 +~;
#X obj 217 157 *~ 0;
#X obj 265 38 r \$0-noise;
#X obj 274 160 s \$0-noise_gui_set;
#X obj 96 69 inlet~;
#X obj 86 221 outlet~;
#X obj 280 105 / 127;
#X obj 280 84 int 1;
#X obj 280 63 loadbang;
#X obj 265 127 * 1;
#X connect 0 0 2 0;
#X connect 1 0 6 0;
#X connect 2 0 1 1;
#X connect 3 0 10 0;
#X connect 5 0 1 0;
#X connect 7 0 10 1;
#X connect 8 0 7 0;
#X connect 9 0 8 0;
#X connect 10 0 2 1;
#X connect 10 0 4 0;
#X restore 78 214 pd noise;
#N canvas 0 22 450 300 volume 0;
#X obj 202 60 r \$0-vol;
#X obj 128 142 *~ 1;
#X obj 124 62 inlet~;
#X obj 130 191 outlet~;
#X obj 217 130 / 127;
#X obj 217 109 int 1;
#X obj 217 88 loadbang;
#X obj 202 152 * 1;
#X connect 0 0 7 0;
#X connect 1 0 3 0;
#X connect 2 0 1 0;
#X connect 4 0 7 1;
#X connect 5 0 4 0;
#X connect 6 0 5 0;
#X connect 7 0 1 1;
#X restore 78 254 pd volume;
#X connect 1 0 2 0;
#X connect 3 0 4 0;
#X connect 4 0 5 0;
#X connect 5 0 6 0;
#X connect 6 0 8 0;
#X connect 7 0 9 0;
#X connect 8 0 7 0;
#X connect 9 0 0 0;
#X restore 35 228 pd synthesis;
#X obj 143 86 nbx 5 15 -1e+37 1e+37 0 0 \$0-feedback_gui \$0-feedback_gui_set
empty 0 -8 0 10 -262144 -1 -1 0 256;
#N canvas 334 231 247 367 init 0;
#X obj 35 23 loadbang;
#X obj 35 83 f \$0;
#X obj 80 83 symbol \$1;
#X obj 35 53 t b b;
#X obj 35 113 pack f s;
#X msg 35 143 \; \$1-frequency_set 32 \; \$1-amount_set 64 \; \$1-rate_set
4 \; \$1-noise_set 0 \; \$1-decay_set 64 \; \$1-waveform_1_set 0 \;
\$1-power_set 0 \; \$1-env_set 0 \; \$1-vol_set 127 \; \$1-wave_vol_set
127 \; \$1-feedback_set 0 \; \$1-label label \$2 \; \$1-pitch_env_type_set
0 \; \$1-amp_env_type_set 0 \;;
#X connect 0 0 3 0;
#X connect 1 0 4 0;
#X connect 2 0 4 1;
#X connect 3 0 1 0;
#X connect 3 1 2 0;
#X connect 4 0 5 0;
#X restore 215 208 pd init;
#X obj 242 86 hradio 15 1 0 2 \$0-pitch_env_type \$0-pitch_env_type_set
Pitch 36 7 0 9 -262144 -1 -1 0;
#X obj 242 101 hradio 15 1 0 2 \$0-amp_env_type \$0-amp_env_type_set
Amp 36 7 0 9 -262144 -1 -1 0;
#X connect 0 0 25 0;
#X connect 21 0 23 0;
#X connect 25 0 19 0;
#X coords 0 -1 1 1 380 125 2 0 0;
