#N canvas 216 127 773 576 10;
#X obj 127 409 hsl 128 15 0 127 0 0 empty empty empty -2 -8 0 10 -262144
-1 -1 11900 1;
#X obj 124 429 / 127;
#X obj 107 473 *~;
#X obj 124 450 lop~ 10;
#X obj 107 497 dac~;
#X obj 107 117 openpanel;
#X msg 107 95 bang;
#X obj 279 171 hsl 128 15 0 127 0 0 empty empty lop 20 7 1 10 -262144
-1 -1 4900 1;
#X obj 108 352 apdist~;
#X obj 278 243 hsl 128 15 0 500 0 0 empty empty drive 20 7 1 10 -262144
-1 -1 7400 1;
#X obj 278 322 hsl 128 15 0 127 0 0 empty empty dry 20 7 1 10 -262144
-1 -1 0 1;
#X obj 275 344 / 127;
#X msg 275 282 drive \$1;
#X msg 275 369 dry \$1;
#X text 427 242 0 ... inf;
#X text 427 322 0 ... 1 \, default: dry = 0 i.e. full wet;
#X text 428 170 low pass frequency;
#X msg 276 214 lop \$1;
#X obj 276 193 mtof;
#N canvas 0 0 450 300 playsamp 0;
#X obj 109 170 readsf~;
#X obj 155 194 spigot 1;
#X obj 109 113 symbol;
#X msg 109 137 open \$1 \, 1;
#X obj 156 216 b;
#X obj 217 80 inlet;
#X obj 109 66 inlet;
#X obj 109 251 outlet~;
#X connect 0 0 7 0;
#X connect 0 1 1 0;
#X connect 1 0 4 0;
#X connect 2 0 3 0;
#X connect 3 0 0 0;
#X connect 4 0 2 0;
#X connect 5 0 1 1;
#X connect 6 0 2 0;
#X restore 107 197 pd playsamp;
#X obj 181 164 tgl 15 0 empty empty loop 17 7 1 10 -262144 -1 -1 1
1;
#X msg 123 140 bang;
#X text 153 93 open wav;
#X text 166 140 play again;
#X floatatom 275 263 5 0 0 0 - - -;
#X text 107 23 apdist~;
#X text 192 24 "Coefficient Modulated Allpass Filter as Distortion
Effect";
#X text 197 43 as in the DAFx 2008 paper by Jussi Pekonen;
#X text 198 68 See: http://www.acoustics.hut.fi/~jpekonen/Papers/dafx08/
;
#X text 362 497 As free as Pd.;
#X text 361 474 Frank Barknecht \, 2008;
#X connect 0 0 1 0;
#X connect 1 0 3 0;
#X connect 2 0 4 0;
#X connect 2 0 4 1;
#X connect 3 0 2 1;
#X connect 5 0 19 0;
#X connect 6 0 5 0;
#X connect 7 0 18 0;
#X connect 8 0 2 0;
#X connect 9 0 24 0;
#X connect 10 0 11 0;
#X connect 11 0 13 0;
#X connect 12 0 8 1;
#X connect 13 0 8 1;
#X connect 17 0 8 1;
#X connect 18 0 17 0;
#X connect 19 0 8 0;
#X connect 20 0 19 1;
#X connect 21 0 19 0;
#X connect 24 0 12 0;
