#N canvas 543 110 455 475 10;
#N canvas 0 22 448 401 wave_generator_1 0;
#X obj 166 195 *~ -1;
#X obj 121 215 mux~ 1 2;
#X obj 121 85 phasor~ 10;
#N canvas 0 22 450 300 tri 0;
#X obj 162 95 *~ -1;
#X obj 162 115 +~ 1;
#X obj 141 135 min~;
#X obj 141 155 *~ 4;
#X obj 141 175 -~ 1;
#X obj 141 65 inlet~;
#X obj 141 205 outlet~;
#X obj 216 75 r \$0-waveform_1;
#X obj 216 135 switch~;
#X obj 216 105 == 1;
#X connect 0 0 1 0;
#X connect 1 0 2 1;
#X connect 2 0 3 0;
#X connect 3 0 4 0;
#X connect 4 0 6 0;
#X connect 5 0 0 0;
#X connect 5 0 2 0;
#X connect 7 0 9 0;
#X connect 9 0 8 0;
#X restore 165 125 pd tri;
#N canvas 0 22 450 300 sqr 0;
#X obj 141 65 inlet~;
#X obj 141 215 outlet~;
#X obj 156 125 wrap~;
#X obj 141 95 -~ 0.5;
#X obj 156 145 -~ 0.5;
#X obj 141 165 -~;
#X obj 141 185 *~ 2;
#X obj 226 85 r \$0-waveform_1;
#X obj 226 145 switch~;
#X obj 226 115 == 2;
#X connect 0 0 3 0;
#X connect 2 0 4 0;
#X connect 3 0 2 0;
#X connect 3 0 5 0;
#X connect 4 0 5 1;
#X connect 5 0 6 0;
#X connect 6 0 1 0;
#X connect 7 0 9 0;
#X connect 9 0 8 0;
#X restore 209 125 pd sqr;
#N canvas 0 22 450 300 osc 0;
#X obj 141 65 inlet~;
#X obj 141 135 outlet~;
#X obj 141 105 cos~;
#X obj 206 65 r \$0-waveform_1;
#X obj 206 125 switch~;
#X obj 206 95 == 0;
#X connect 0 0 2 0;
#X connect 2 0 1 0;
#X connect 3 0 5 0;
#X connect 5 0 4 0;
#X restore 121 125 pd osc;
#N canvas 0 22 450 300 saw 0;
#X obj 141 65 inlet~;
#X obj 141 145 outlet~;
#X obj 141 95 -~ 0.5;
#X obj 141 115 *~ 2;
#X obj 236 95 r \$0-waveform_1;
#X obj 236 155 switch~;
#X obj 236 125 == 3;
#X connect 0 0 2 0;
#X connect 2 0 3 0;
#X connect 3 0 1 0;
#X connect 4 0 6 0;
#X connect 6 0 5 0;
#X restore 253 125 pd saw;
#N canvas 0 22 450 300 nos 0;
#X obj 141 145 outlet~;
#X obj 141 115 noise~;
#X obj 246 105 r \$0-waveform_1;
#X obj 246 165 switch~;
#X obj 246 135 == 4;
#X connect 1 0 0 0;
#X connect 2 0 4 0;
#X connect 4 0 3 0;
#X restore 298 125 pd nos;
#X obj 121 155 multiplex~ osc tri sqr saw nos;
#X obj 21 85 r \$0-waveform_1;
#X obj 21 155 r \$0-invert_1;
#X obj 121 295 *~ 1;
#X obj 142 245 r \$0-gain_1;
#X obj 142 265 mid2dec;
#X obj 121 55 inlet~;
#X obj 121 325 outlet~;
#X connect 0 0 1 1;
#X connect 1 0 11 0;
#X connect 2 0 5 0;
#X connect 2 0 3 0;
#X connect 2 0 4 0;
#X connect 2 0 6 0;
#X connect 3 0 8 1;
#X connect 4 0 8 2;
#X connect 5 0 8 0;
#X connect 6 0 8 3;
#X connect 7 0 8 4;
#X connect 8 0 0 0;
#X connect 8 0 1 0;
#X connect 9 0 8 0;
#X connect 10 0 1 0;
#X connect 11 0 15 0;
#X connect 12 0 13 0;
#X connect 13 0 11 1;
#X connect 14 0 2 0;
#X restore 33 251 pd wave_generator_1;
#X obj 33 220 sig~;
#X obj 103 311 *~ 0.5;
#X obj 103 291 +~ 1;
#X obj 163 361 snapshot~;
#X obj 163 321 metro;
#X obj 190 301 r \$0-update;
#X obj 163 281 loadbang;
#X obj 163 301 f 1;
#X obj 163 391 outlet;
#X text 161 410 (0-1);
#X text 101 410 (0-1);
#X obj 103 391 outlet~;
#X obj 33 130 r \$0-freq;
#X obj 33 150 mid2dec;
#X obj 33 170 * 10;
#X obj 33 190 + 0.0001;
#X obj 33 391 outlet~;
#X text 31 410 (-1 - 1);
#X obj 292 175 loadbang;
#X obj 292 235 f \$0;
#X obj 5 7 cnv 15 100 60 empty \$0-label empty 0 0 0 9 -262144 -1 0
;
#X obj 337 235 symbol \$1;
#X obj 292 205 t b b;
#X obj 292 265 pack f s;
#X msg 292 295 \; \$1-update_set 5 \; \$1-waveform_1_set 0 \; \$1-invert_1_set
0 \; \$1-gain_1_set 127 \; \$1-freq_set 32 \; \$1-label label \$2 \;
;
#X obj 135 18 vradio 15 1 0 5 \$0-waveform_1 \$0-waveform_1_set empty
0 -8 0 10 -262144 -1 -1 0;
#X text 153 16 SINE;
#X text 153 32 TRIANGLE;
#X text 153 47 SQUARE;
#X text 153 63 SAW;
#X text 153 78 NOISE;
#X obj 45 38 tgl 15 0 \$0-invert_1 \$0-invert_1_set INVERT -40 7 0
9 -262144 -1 -1 0 1;
#X obj 115 20 vsl 15 70 0 127 0 0 \$0-gain_1 \$0-gain_1_set empty 0
-9 0 10 -262144 -1 -1 0 1;
#X obj 75 58 nbx 3 15 -1e+37 1e+37 0 0 \$0-update \$0-update_set REFRESH(ms)
-70 7 0 9 -262144 -1 -1 0 256;
#X obj 8 78 hsl 100 15 0 127 0 0 \$0-freq \$0-freq_set FREQUENCY 20
7 0 9 -262144 -1 -1 0 1;
#X obj 8 17 bng 15 250 50 0 \$0-save \$0-save_set SAVE 20 7 0 9 -262144
-1 -1;
#X connect 0 0 3 0;
#X connect 0 0 17 0;
#X connect 1 0 0 0;
#X connect 2 0 4 0;
#X connect 2 0 12 0;
#X connect 3 0 2 0;
#X connect 4 0 9 0;
#X connect 5 0 4 0;
#X connect 6 0 5 1;
#X connect 7 0 8 0;
#X connect 8 0 5 0;
#X connect 13 0 14 0;
#X connect 14 0 15 0;
#X connect 15 0 16 0;
#X connect 16 0 1 0;
#X connect 19 0 23 0;
#X connect 20 0 24 0;
#X connect 22 0 24 1;
#X connect 23 0 20 0;
#X connect 23 1 22 0;
#X connect 24 0 25 0;
#X coords 0 -1 1 1 210 100 2 0 0;
