#N canvas 0 42 1280 695 10;
#N canvas 704 395 450 300 complexFM 0;
#X obj 109 152 *~;
#X obj 49 199 cos~;
#X obj 49 169 +~;
#X obj 49 129 phasor~;
#X obj 109 129 osc~;
#X obj 169 152 *~;
#X obj 169 129 osc~;
#X obj 169 99 *~;
#X obj 109 99 *~;
#X obj 49 99 *~;
#X obj 289 59 inlet~;
#X obj 349 59 inlet~;
#X obj 49 59 inlet~;
#X obj 109 59 inlet~;
#X obj 169 59 inlet~;
#X obj 229 59 inlet~;
#X obj 49 239 outlet~;
#X text 48 38 CARRIER;
#X text 108 38 MOD 1;
#X text 168 38 MOD 2;
#X text 218 38 FUNDAMENTAL;
#X text 298 38 IDX 1;
#X text 355 38 IDX 2;
#X connect 0 0 2 1;
#X connect 1 0 16 0;
#X connect 2 0 1 0;
#X connect 3 0 2 0;
#X connect 4 0 0 0;
#X connect 5 0 2 1;
#X connect 6 0 5 0;
#X connect 7 0 6 0;
#X connect 8 0 4 0;
#X connect 9 0 3 0;
#X connect 10 0 0 1;
#X connect 11 0 5 1;
#X connect 12 0 9 0;
#X connect 13 0 8 0;
#X connect 14 0 7 0;
#X connect 15 0 7 1;
#X connect 15 0 8 1;
#X connect 15 0 9 1;
#X restore 132 315 pd complexFM;
#X obj 387 128 hsl 128 15 0 127 0 0 empty empty FUNDAMENTAL 20 7 0
9 -262144 -1 -1 6400 1;
#X obj 193 215 mtof;
#X obj 193 285 sig~;
#X obj 387 113 hsl 128 15 0 127 0 0 empty empty MODULATION:2 20 7 0
9 -262144 -1 -1 3700 1;
#X obj 133 285 sig~;
#X obj 387 98 hsl 128 15 0 127 0 0 empty empty MODULATION:1 20 7 0
9 -262144 -1 -1 7200 1;
#X obj 73 285 sig~;
#X obj 387 83 hsl 128 15 0 127 0 0 empty empty CARRIER 20 7 0 9 -262144
-1 -1 4600 1;
#X obj 13 285 sig~;
#X obj 379 182 adsr~_gui INDEX:1;
#X obj 13 215 mid2dec;
#X obj 13 235 * 15;
#X obj 13 255 int;
#X obj 73 215 mid2dec;
#X obj 73 235 * 15;
#X obj 73 255 int;
#X obj 133 215 mid2dec;
#X obj 133 235 * 15;
#X obj 133 255 int;
#X obj 387 158 hsl 128 15 0 127 0 0 empty empty INDEX:2 20 7 0 9 -262144
-1 -1 6900 1;
#X obj 387 143 hsl 128 15 0 127 0 0 empty empty INDEX:1 20 7 0 9 -262144
-1 -1 5300 1;
#X obj 238 285 *~;
#X obj 253 265 sig~;
#X obj 298 285 *~;
#X obj 313 265 sig~;
#X obj 311 218 mid2dec;
#X obj 253 215 mid2dec;
#X obj 381 485 outlet~;
#X obj 588 29 inlet;
#X obj 529 83 bng 15 250 50 0 empty empty save 20 7 0 9 -262144 -1
-1;
#X obj 531 515 pack f f f f f f;
#X obj 531 485 f;
#X obj 531 545 list append;
#X obj 531 575 list append;
#X obj 531 605 list append;
#X obj 531 635 print;
#X obj 253 235 * 100;
#X obj 313 235 * 100;
#X obj 36 379 list split 6;
#X msg 36 339 2 2 2 2 2 2 7;
#X obj 46 605 unpack f f f f f f;
#X obj 70 529 list split 10;
#X obj 70 499 route INDEX:1 INDEX:2 AMPLITUDE;
#X obj 210 529 list split 10;
#X obj 350 529 list split 10;
#X obj 70 469 route list;
#X obj 87 439 t l;
#X obj 70 559 list prepend dump;
#X obj 210 560 list prepend dump;
#X obj 350 559 list prepend dump;
#X obj 379 362 adsr~_gui AMPLITUDE;
#X obj 379 272 adsr~_gui INDEX:2;
#X obj 647 23 inlet;
#X connect 0 0 51 0;
#X connect 1 0 2 0;
#X connect 1 0 31 3;
#X connect 2 0 3 0;
#X connect 3 0 0 3;
#X connect 4 0 17 0;
#X connect 4 0 31 2;
#X connect 5 0 0 2;
#X connect 6 0 14 0;
#X connect 6 0 31 1;
#X connect 7 0 0 1;
#X connect 8 0 11 0;
#X connect 8 0 32 1;
#X connect 9 0 0 0;
#X connect 10 1 22 0;
#X connect 10 2 33 1;
#X connect 11 0 12 0;
#X connect 12 0 13 0;
#X connect 13 0 9 0;
#X connect 14 0 15 0;
#X connect 15 0 16 0;
#X connect 16 0 7 0;
#X connect 17 0 18 0;
#X connect 18 0 19 0;
#X connect 19 0 5 0;
#X connect 20 0 26 0;
#X connect 20 0 31 5;
#X connect 21 0 27 0;
#X connect 21 0 31 4;
#X connect 22 0 0 4;
#X connect 23 0 22 1;
#X connect 24 0 0 5;
#X connect 25 0 24 1;
#X connect 26 0 38 0;
#X connect 27 0 37 0;
#X connect 29 0 10 1;
#X connect 29 0 51 1;
#X connect 29 0 52 1;
#X connect 30 0 32 0;
#X connect 31 0 33 0;
#X connect 32 0 31 0;
#X connect 33 0 34 0;
#X connect 34 0 35 0;
#X connect 35 0 36 0;
#X connect 37 0 23 0;
#X connect 38 0 25 0;
#X connect 39 0 41 0;
#X connect 39 1 46 0;
#X connect 40 0 39 0;
#X connect 42 0 48 0;
#X connect 42 1 47 0;
#X connect 43 0 42 0;
#X connect 43 1 44 0;
#X connect 43 2 45 0;
#X connect 44 0 49 0;
#X connect 44 1 47 0;
#X connect 45 0 50 0;
#X connect 45 1 47 0;
#X connect 46 0 43 0;
#X connect 47 0 46 0;
#X connect 48 0 10 1;
#X connect 49 0 52 1;
#X connect 50 0 51 1;
#X connect 51 0 28 0;
#X connect 51 2 35 1;
#X connect 52 1 24 0;
#X connect 52 2 34 1;
#X connect 53 0 1 0;
#X coords 0 -1 1 1 230 380 2 370 70;
