#N canvas 43 34 726 601 10;
#X obj 49 176 inlet~;
#X obj 129 398 writesf~ 2;
#X obj 106 177 inlet~;
#X obj 185 27 tgl 15 0 \$0-save \$0-save_set SAVE 20 7 0 9 -262144
-1 -1 0 1;
#X obj 185 6 tgl 15 0 \$0-quick \$0-quick_set QUICK 20 7 0 9 -262144
-1 -1 0 1;
#X obj 124 6 nbx 2 36 -1e+37 1e+37 0 0 \$0-secs \$0-secs_set empty
0 -8 0 20 -262144 -1 -1 7 256;
#X obj 296 6 vradio 18 1 0 2 \$0-channel \$0-channel_set empty 0 -8
0 10 -262144 -1 -1 1;
#X obj 318 8 cnv 15 10 10 empty empty MONO 0 7 0 9 -262144 -1 0;
#X obj 318 27 cnv 15 10 10 empty empty STEREO 0 7 0 9 -262144 -1 0
;
#X obj 64 6 nbx 2 36 -1e+37 1e+37 0 0 \$0-mins \$0-mins_set empty 0
-8 0 20 -262144 -1 -1 0 256;
#X obj 4 6 nbx 2 36 -1e+37 1e+37 0 0 \$0-hours \$0-hours_set empty
0 -8 0 20 -262144 -1 -1 0 256;
#X obj 49 274 r \$0-channel;
#X obj 139 214 r \$0-quick;
#X obj 209 214 r \$0-save;
#X obj 269 342 s \$0-hours_set;
#X obj 288 322 s \$0-mins_set;
#X obj 308 302 s \$0-secs_set;
#X obj 49 334 gate 2;
#X obj 49 294 + 1;
#X obj 49 398 writesf~ 1;
#N canvas 186 53 421 436 time 0;
#X obj 103 89 metro 1000;
#X text 119 336 Hours;
#X text 165 336 Minutes;
#X text 215 336 Seconds;
#X obj 208 166 counter 0 59;
#X obj 162 198 sel 0;
#X obj 162 226 counter 0 59;
#X obj 115 285 counter;
#X obj 115 260 sel 0;
#X obj 183 97 t b b b;
#X obj 183 74 sel 0;
#X obj 129 45 inlet;
#X obj 115 312 outlet;
#X obj 162 314 outlet;
#X obj 209 314 outlet;
#X connect 0 0 4 0;
#X connect 4 0 14 0;
#X connect 4 0 5 0;
#X connect 5 0 6 0;
#X connect 6 0 13 0;
#X connect 6 0 8 0;
#X connect 7 0 12 0;
#X connect 8 0 7 0;
#X connect 9 0 7 2;
#X connect 9 1 6 2;
#X connect 9 2 4 2;
#X connect 10 0 9 0;
#X connect 11 0 0 0;
#X connect 11 0 10 0;
#X restore 269 274 pd time;
#N canvas 0 22 450 300 quick 0;
#N canvas 519 336 325 231 uniqueNumber 0;
#X obj 137 102 pack f f f f;
#X obj 137 78 time -------;
#X obj 27 102 pack f f f f f f;
#X obj 27 78 date -----------;
#X obj 27 132 list prepend;
#X obj 27 48 t b b;
#X obj 27 159 pdj DJBHash_string;
#X text 148 158 Unique number every 2 ms;
#X obj 27 24 inlet;
#X obj 27 184 outlet;
#X connect 0 0 4 1;
#X connect 1 0 0 0;
#X connect 1 1 0 1;
#X connect 1 2 0 2;
#X connect 1 3 0 3;
#X connect 2 0 4 0;
#X connect 3 0 2 0;
#X connect 3 1 2 1;
#X connect 3 2 2 2;
#X connect 3 3 2 3;
#X connect 3 4 2 4;
#X connect 3 5 2 5;
#X connect 4 0 6 0;
#X connect 5 0 3 0;
#X connect 5 1 1 0;
#X connect 6 0 9 0;
#X connect 8 0 5 0;
#X restore 112 141 pd uniqueNumber;
#X msg 34 171 stop;
#X msg 72 171 start;
#X msg 112 171 open -bytes 3 /Users/dapoulter/Desktop/record\$1.wav
;
#X obj 34 81 select 0 1;
#X obj 34 211 outlet;
#X obj 34 51 inlet;
#X obj 72 109 t b b;
#X connect 0 0 3 0;
#X connect 1 0 5 0;
#X connect 2 0 5 0;
#X connect 3 0 5 0;
#X connect 4 0 1 0;
#X connect 4 1 7 0;
#X connect 6 0 4 0;
#X connect 7 0 2 0;
#X connect 7 1 0 0;
#X restore 139 274 pd quick;
#N canvas 210 90 450 300 save 0;
#X msg 34 171 stop;
#X msg 72 171 start;
#X obj 34 81 select 0 1;
#X obj 34 211 outlet;
#X obj 34 51 inlet;
#X obj 72 111 savepanel;
#X obj 72 131 t b a;
#X msg 112 171 open -bytes 3 \$1;
#X connect 0 0 3 0;
#X connect 1 0 3 0;
#X connect 2 0 0 0;
#X connect 2 1 5 0;
#X connect 4 0 2 0;
#X connect 5 0 6 0;
#X connect 6 0 1 0;
#X connect 6 1 7 0;
#X connect 7 0 3 0;
#X restore 209 274 pd save;
#X msg 269 432 \; \$1-channel_set 1 \;;
#X obj 269 402 f \$0;
#X obj 269 382 loadbang;
#X obj 242 6 vradio 12 1 0 3 \$0-quality \$0-quality_set empty 0 -8
0 10 -262144 -1 -1 0;
#X obj 258 4 cnv 8 10 10 empty empty 16:BIT 0 7 0 8 -262144 -1 0;
#X obj 258 17 cnv 8 10 10 empty empty 24:BIT 0 7 0 8 -262144 -1 0;
#X obj 258 30 cnv 8 10 10 empty empty 32:BIT 0 7 0 8 -262144 -1 0;
#X connect 0 0 1 0;
#X connect 0 0 19 0;
#X connect 2 0 1 1;
#X connect 11 0 18 0;
#X connect 12 0 21 0;
#X connect 12 0 20 0;
#X connect 13 0 22 0;
#X connect 13 0 20 0;
#X connect 17 0 19 0;
#X connect 17 1 1 0;
#X connect 18 0 17 0;
#X connect 20 0 14 0;
#X connect 20 1 15 0;
#X connect 20 2 16 0;
#X connect 21 0 17 1;
#X connect 22 0 17 1;
#X connect 24 0 23 0;
#X connect 25 0 24 0;
#X coords 0 -1 1 1 360 48 1 0 0;
