#N canvas 740 265 410 246 10;
#X obj 45 37 inlet~;
#X obj 45 187 outlet~;
#X obj 230 37 inlet;
#X obj 295 157 *~;
#X obj 295 187 outlet~;
#X obj 60 127 < 1;
#X obj 135 37 inlet~;
#X obj 135 187 outlet~;
#X obj 215 157 *~;
#X obj 215 187 outlet~;
#X obj 45 157 *~;
#X obj 135 157 *~;
#X obj 150 127 < 1;
#X obj 310 37 loadbang;
#X obj 310 67 f \$1;
#X connect 0 0 10 0;
#X connect 0 0 8 0;
#X connect 2 0 5 0;
#X connect 2 0 12 0;
#X connect 2 0 8 1;
#X connect 2 0 3 1;
#X connect 3 0 4 0;
#X connect 5 0 10 1;
#X connect 6 0 11 0;
#X connect 6 0 3 0;
#X connect 8 0 9 0;
#X connect 10 0 1 0;
#X connect 11 0 7 0;
#X connect 12 0 11 1;
#X connect 13 0 14 0;
#X connect 14 0 3 1;
#X connect 14 0 8 1;
#X connect 14 0 12 0;
#X connect 14 0 5 0;
