#N canvas 287 155 307 233 10;
#X obj 37 64 clip~ -3 3;
#N canvas 232 261 614 329 ftanh 0;
#X obj 137 83 *~;
#X obj 122 35 inlet~;
#X obj 188 113 *~ 9;
#X obj 137 170 /~;
#X obj 137 136 +~ 27;
#X obj 122 228 outlet~;
#X obj 122 198 *~;
#X text 193 181 x * ( 27 + x * x ) / ( 27 + 9 * x * x );
#X obj 188 136 +~ 27;
#X connect 0 0 4 0;
#X connect 0 0 2 0;
#X connect 1 0 0 0;
#X connect 1 0 0 1;
#X connect 1 0 6 0;
#X connect 2 0 8 0;
#X connect 3 0 6 1;
#X connect 4 0 3 0;
#X connect 6 0 5 0;
#X connect 8 0 3 1;
#X restore 37 94 pd ftanh;
#X obj 37 34 inlet~;
#X obj 37 124 outlet~;
#X connect 0 0 1 0;
#X connect 1 0 3 0;
#X connect 2 0 0 0;
