#N canvas 0 22 450 300 10;
#X obj 150 58 mid2dec;
#X obj 150 88 * 10;
#X obj 150 108 int;
#X obj 150 128 * 0.1;
#X floatatom 150 223 5 0 0 0 - - -;
#X obj 150 248 outlet;
#X obj 150 28 r \$1-control_weight_\$2;
#X obj 150 168 s \$1-gui_weight_\$2_set;
#X obj 150 198 r \$1-gui_weight_\$2;
#X obj 220 58 loadbang;
#X obj 220 84 f 128;
#X obj 220 109 s \$1-control_weight_\$2_set;
#X connect 0 0 1 0;
#X connect 1 0 2 0;
#X connect 2 0 3 0;
#X connect 3 0 7 0;
#X connect 4 0 5 0;
#X connect 6 0 0 0;
#X connect 8 0 4 0;
#X connect 9 0 10 0;
#X connect 10 0 11 0;
