{
	"patcher" : 	{
		"fileversion" : 1,
		"rect" : [ 424.0, 107.0, 640.0, 480.0 ],
		"bglocked" : 0,
		"defrect" : [ 424.0, 107.0, 640.0, 480.0 ],
		"openrect" : [ 0.0, 0.0, 0.0, 0.0 ],
		"openinpresentation" : 0,
		"default_fontsize" : 10.0,
		"default_fontface" : 0,
		"default_fontname" : "Arial",
		"gridonopen" : 0,
		"gridsize" : [ 10.0, 10.0 ],
		"gridsnaponopen" : 0,
		"toolbarvisible" : 1,
		"boxanimatetime" : 200,
		"imprint" : 0,
		"enablehscroll" : 1,
		"enablevscroll" : 1,
		"devicewidth" : 0.0,
		"boxes" : [ 			{
				"box" : 				{
					"maxclass" : "newobj",
					"text" : "* 1.",
					"fontsize" : 10.0,
					"numinlets" : 2,
					"numoutlets" : 1,
					"outlettype" : [ "float" ],
					"patching_rect" : [ 49.0, 181.0, 32.5, 18.0 ],
					"id" : "obj-3",
					"fontname" : "Arial"
				}

			}
, 			{
				"box" : 				{
					"maxclass" : "newobj",
					"text" : "* 1.",
					"fontsize" : 10.0,
					"numinlets" : 2,
					"numoutlets" : 1,
					"outlettype" : [ "float" ],
					"patching_rect" : [ 84.0, 149.0, 32.5, 18.0 ],
					"id" : "obj-1",
					"fontname" : "Arial"
				}

			}
, 			{
				"box" : 				{
					"maxclass" : "newobj",
					"text" : "/ 127.",
					"fontsize" : 10.0,
					"numinlets" : 2,
					"numoutlets" : 1,
					"outlettype" : [ "float" ],
					"patching_rect" : [ 90.0, 110.0, 36.0, 18.0 ],
					"id" : "obj-6",
					"fontname" : "Arial"
				}

			}
, 			{
				"box" : 				{
					"maxclass" : "newobj",
					"text" : "r #2",
					"fontsize" : 10.0,
					"numinlets" : 0,
					"numoutlets" : 1,
					"outlettype" : [ "" ],
					"patching_rect" : [ 90.0, 70.0, 28.0, 18.0 ],
					"id" : "obj-5",
					"fontname" : "Arial"
				}

			}
, 			{
				"box" : 				{
					"maxclass" : "newobj",
					"text" : "r #1",
					"fontsize" : 10.0,
					"numinlets" : 0,
					"numoutlets" : 1,
					"outlettype" : [ "" ],
					"patching_rect" : [ 25.0, 64.0, 28.0, 18.0 ],
					"id" : "obj-4",
					"fontname" : "Arial"
				}

			}
, 			{
				"box" : 				{
					"maxclass" : "outlet",
					"numinlets" : 1,
					"numoutlets" : 0,
					"patching_rect" : [ 67.0, 232.0, 25.0, 25.0 ],
					"id" : "obj-2",
					"comment" : ""
				}

			}
 ],
		"lines" : [ 			{
				"patchline" : 				{
					"source" : [ "obj-1", 0 ],
					"destination" : [ "obj-2", 0 ],
					"hidden" : 0,
					"midpoints" : [  ]
				}

			}
, 			{
				"patchline" : 				{
					"source" : [ "obj-6", 0 ],
					"destination" : [ "obj-1", 0 ],
					"hidden" : 0,
					"midpoints" : [  ]
				}

			}
, 			{
				"patchline" : 				{
					"source" : [ "obj-1", 0 ],
					"destination" : [ "obj-3", 1 ],
					"hidden" : 0,
					"midpoints" : [  ]
				}

			}
, 			{
				"patchline" : 				{
					"source" : [ "obj-4", 0 ],
					"destination" : [ "obj-3", 0 ],
					"hidden" : 0,
					"midpoints" : [  ]
				}

			}
, 			{
				"patchline" : 				{
					"source" : [ "obj-3", 0 ],
					"destination" : [ "obj-2", 0 ],
					"hidden" : 0,
					"midpoints" : [  ]
				}

			}
, 			{
				"patchline" : 				{
					"source" : [ "obj-5", 0 ],
					"destination" : [ "obj-6", 0 ],
					"hidden" : 0,
					"midpoints" : [  ]
				}

			}
 ]
	}

}
