{
	"patcher" : 	{
		"fileversion" : 1,
		"rect" : [ 74.0, 69.0, 428.0, 313.0 ],
		"bglocked" : 0,
		"defrect" : [ 74.0, 69.0, 428.0, 313.0 ],
		"openrect" : [ 0.0, 0.0, 0.0, 0.0 ],
		"openinpresentation" : 0,
		"default_fontsize" : 10.0,
		"default_fontface" : 0,
		"default_fontname" : "Arial",
		"gridonopen" : 0,
		"gridsize" : [ 15.0, 15.0 ],
		"gridsnaponopen" : 0,
		"toolbarvisible" : 1,
		"boxanimatetime" : 200,
		"imprint" : 0,
		"metadata" : [  ],
		"boxes" : [ 			{
				"box" : 				{
					"maxclass" : "comment",
					"text" : "Fraction (Float)",
					"linecount" : 2,
					"id" : "obj-12",
					"fontname" : "Arial",
					"patching_rect" : [ 345.0, 15.0, 51.0, 29.0 ],
					"numinlets" : 1,
					"fontface" : 1,
					"fontsize" : 10.0,
					"numoutlets" : 0
				}

			}
, 			{
				"box" : 				{
					"maxclass" : "newobj",
					"text" : "* 1.",
					"outlettype" : [ "float" ],
					"id" : "obj-8",
					"fontname" : "Arial",
					"patching_rect" : [ 255.0, 120.0, 33.5, 18.0 ],
					"numinlets" : 2,
					"fontsize" : 10.0,
					"numoutlets" : 1
				}

			}
, 			{
				"box" : 				{
					"maxclass" : "inlet",
					"outlettype" : [ "" ],
					"id" : "obj-6",
					"patching_rect" : [ 345.0, 45.0, 25.0, 25.0 ],
					"numinlets" : 0,
					"numoutlets" : 1,
					"comment" : ""
				}

			}
, 			{
				"box" : 				{
					"maxclass" : "newobj",
					"text" : "rate~ 0.5",
					"outlettype" : [ "signal" ],
					"id" : "obj-4",
					"fontname" : "Arial",
					"patching_rect" : [ 75.0, 120.0, 50.0, 18.0 ],
					"numinlets" : 2,
					"fontsize" : 10.0,
					"numoutlets" : 1
				}

			}
, 			{
				"box" : 				{
					"maxclass" : "comment",
					"text" : "Phasor (Wave)",
					"linecount" : 2,
					"id" : "obj-3",
					"fontname" : "Arial",
					"patching_rect" : [ 15.0, 270.0, 47.0, 29.0 ],
					"numinlets" : 1,
					"fontface" : 1,
					"fontsize" : 10.0,
					"numoutlets" : 0
				}

			}
, 			{
				"box" : 				{
					"maxclass" : "outlet",
					"id" : "obj-2",
					"patching_rect" : [ 15.0, 240.0, 25.0, 25.0 ],
					"numinlets" : 1,
					"numoutlets" : 0,
					"comment" : ""
				}

			}
, 			{
				"box" : 				{
					"maxclass" : "comment",
					"text" : "Sample Length (ms)",
					"linecount" : 2,
					"id" : "obj-21",
					"fontname" : "Arial",
					"patching_rect" : [ 255.0, 15.0, 83.0, 29.0 ],
					"numinlets" : 1,
					"fontface" : 1,
					"fontsize" : 10.0,
					"numoutlets" : 0
				}

			}
, 			{
				"box" : 				{
					"maxclass" : "inlet",
					"outlettype" : [ "" ],
					"id" : "obj-19",
					"patching_rect" : [ 255.0, 45.0, 25.0, 25.0 ],
					"numinlets" : 0,
					"numoutlets" : 1,
					"comment" : ""
				}

			}
, 			{
				"box" : 				{
					"maxclass" : "outlet",
					"id" : "obj-16",
					"patching_rect" : [ 180.0, 240.0, 25.0, 25.0 ],
					"numinlets" : 1,
					"numoutlets" : 0,
					"comment" : ""
				}

			}
, 			{
				"box" : 				{
					"maxclass" : "outlet",
					"id" : "obj-15",
					"patching_rect" : [ 75.0, 240.0, 25.0, 25.0 ],
					"numinlets" : 1,
					"numoutlets" : 0,
					"comment" : ""
				}

			}
, 			{
				"box" : 				{
					"maxclass" : "comment",
					"text" : "Phasor (Wave)",
					"linecount" : 2,
					"id" : "obj-13",
					"fontname" : "Arial",
					"patching_rect" : [ 75.0, 15.0, 46.0, 29.0 ],
					"numinlets" : 1,
					"fontface" : 1,
					"fontsize" : 10.0,
					"numoutlets" : 0
				}

			}
, 			{
				"box" : 				{
					"maxclass" : "comment",
					"text" : "Convert to MAX",
					"id" : "obj-11",
					"fontname" : "Arial",
					"patching_rect" : [ 300.0, 150.0, 83.0, 18.0 ],
					"numinlets" : 1,
					"fontsize" : 10.0,
					"numoutlets" : 0
				}

			}
, 			{
				"box" : 				{
					"maxclass" : "comment",
					"text" : "Scale to sample length",
					"id" : "obj-9",
					"fontname" : "Arial",
					"patching_rect" : [ 300.0, 210.0, 116.0, 18.0 ],
					"numinlets" : 1,
					"fontsize" : 10.0,
					"numoutlets" : 0
				}

			}
, 			{
				"box" : 				{
					"maxclass" : "comment",
					"text" : "Current Position (Float)",
					"linecount" : 2,
					"id" : "obj-7",
					"fontname" : "Arial",
					"patching_rect" : [ 180.0, 270.0, 93.0, 29.0 ],
					"numinlets" : 1,
					"fontface" : 1,
					"fontsize" : 10.0,
					"numoutlets" : 0
				}

			}
, 			{
				"box" : 				{
					"maxclass" : "comment",
					"text" : "Bang Sample Start (Bang)",
					"linecount" : 2,
					"id" : "obj-5",
					"fontname" : "Arial",
					"patching_rect" : [ 75.0, 270.0, 102.0, 29.0 ],
					"numinlets" : 1,
					"fontface" : 1,
					"fontsize" : 10.0,
					"numoutlets" : 0
				}

			}
, 			{
				"box" : 				{
					"maxclass" : "inlet",
					"outlettype" : [ "" ],
					"id" : "obj-1",
					"patching_rect" : [ 75.0, 45.0, 25.0, 25.0 ],
					"numinlets" : 0,
					"numoutlets" : 1,
					"comment" : ""
				}

			}
, 			{
				"box" : 				{
					"maxclass" : "newobj",
					"text" : "scale 0. 1. 0. 0.",
					"outlettype" : [ "float" ],
					"id" : "obj-28",
					"fontname" : "Arial",
					"patching_rect" : [ 180.0, 210.0, 112.5, 18.0 ],
					"numinlets" : 6,
					"fontsize" : 10.0,
					"numoutlets" : 1
				}

			}
, 			{
				"box" : 				{
					"maxclass" : "flonum",
					"outlettype" : [ "float", "bang" ],
					"id" : "obj-27",
					"fontname" : "Arial",
					"patching_rect" : [ 180.0, 180.0, 50.0, 18.0 ],
					"numinlets" : 1,
					"fontsize" : 10.0,
					"numoutlets" : 2
				}

			}
, 			{
				"box" : 				{
					"maxclass" : "newobj",
					"text" : "snapshot~ 1.",
					"outlettype" : [ "float" ],
					"id" : "obj-25",
					"fontname" : "Arial",
					"patching_rect" : [ 180.0, 150.0, 68.0, 18.0 ],
					"numinlets" : 2,
					"fontsize" : 10.0,
					"numoutlets" : 1
				}

			}
, 			{
				"box" : 				{
					"maxclass" : "newobj",
					"text" : "edge~",
					"outlettype" : [ "bang", "bang" ],
					"id" : "obj-14",
					"fontname" : "Arial",
					"patching_rect" : [ 75.0, 210.0, 39.0, 18.0 ],
					"numinlets" : 1,
					"fontsize" : 10.0,
					"numoutlets" : 2
				}

			}
, 			{
				"box" : 				{
					"maxclass" : "newobj",
					"text" : "delta~",
					"outlettype" : [ "signal" ],
					"id" : "obj-17",
					"fontname" : "Arial",
					"patching_rect" : [ 75.0, 150.0, 38.0, 18.0 ],
					"numinlets" : 1,
					"fontsize" : 10.0,
					"numoutlets" : 1
				}

			}
, 			{
				"box" : 				{
					"maxclass" : "newobj",
					"text" : "<~ 0.",
					"outlettype" : [ "signal" ],
					"id" : "obj-18",
					"fontname" : "Arial",
					"patching_rect" : [ 75.0, 180.0, 33.0, 18.0 ],
					"numinlets" : 2,
					"fontsize" : 10.0,
					"numoutlets" : 1
				}

			}
 ],
		"lines" : [ 			{
				"patchline" : 				{
					"source" : [ "obj-28", 0 ],
					"destination" : [ "obj-16", 0 ],
					"hidden" : 0,
					"midpoints" : [  ]
				}

			}
, 			{
				"patchline" : 				{
					"source" : [ "obj-14", 0 ],
					"destination" : [ "obj-15", 0 ],
					"hidden" : 0,
					"midpoints" : [  ]
				}

			}
, 			{
				"patchline" : 				{
					"source" : [ "obj-25", 0 ],
					"destination" : [ "obj-27", 0 ],
					"hidden" : 0,
					"midpoints" : [  ]
				}

			}
, 			{
				"patchline" : 				{
					"source" : [ "obj-27", 0 ],
					"destination" : [ "obj-28", 0 ],
					"hidden" : 0,
					"midpoints" : [  ]
				}

			}
, 			{
				"patchline" : 				{
					"source" : [ "obj-17", 0 ],
					"destination" : [ "obj-18", 0 ],
					"hidden" : 0,
					"midpoints" : [  ]
				}

			}
, 			{
				"patchline" : 				{
					"source" : [ "obj-18", 0 ],
					"destination" : [ "obj-14", 0 ],
					"hidden" : 0,
					"midpoints" : [  ]
				}

			}
, 			{
				"patchline" : 				{
					"source" : [ "obj-8", 0 ],
					"destination" : [ "obj-28", 4 ],
					"hidden" : 0,
					"midpoints" : [  ]
				}

			}
, 			{
				"patchline" : 				{
					"source" : [ "obj-19", 0 ],
					"destination" : [ "obj-8", 0 ],
					"hidden" : 0,
					"midpoints" : [  ]
				}

			}
, 			{
				"patchline" : 				{
					"source" : [ "obj-6", 0 ],
					"destination" : [ "obj-8", 1 ],
					"hidden" : 0,
					"midpoints" : [ 354.5, 102.0, 279.0, 102.0 ]
				}

			}
, 			{
				"patchline" : 				{
					"source" : [ "obj-6", 0 ],
					"destination" : [ "obj-4", 1 ],
					"hidden" : 0,
					"midpoints" : [ 354.5, 102.0, 115.5, 102.0 ]
				}

			}
, 			{
				"patchline" : 				{
					"source" : [ "obj-4", 0 ],
					"destination" : [ "obj-17", 0 ],
					"hidden" : 0,
					"midpoints" : [  ]
				}

			}
, 			{
				"patchline" : 				{
					"source" : [ "obj-4", 0 ],
					"destination" : [ "obj-25", 0 ],
					"hidden" : 0,
					"midpoints" : [ 84.5, 143.0, 165.0, 143.0, 165.0, 143.0, 189.5, 143.0 ]
				}

			}
, 			{
				"patchline" : 				{
					"source" : [ "obj-4", 0 ],
					"destination" : [ "obj-2", 0 ],
					"hidden" : 0,
					"midpoints" : [ 84.5, 143.0, 24.5, 143.0 ]
				}

			}
, 			{
				"patchline" : 				{
					"source" : [ "obj-1", 0 ],
					"destination" : [ "obj-4", 0 ],
					"hidden" : 0,
					"midpoints" : [  ]
				}

			}
 ]
	}

}
