#N canvas 115 222 958 369 10;
#X obj 36 63 nbx 3 14 -1e+37 1e+37 0 0 \$0-n1 \$0-n1_set n 0 -8 0 10
-262144 -1 -1 4 256;
#X obj 76 63 nbx 3 14 -1e+37 1e+37 0 0 \$0-k1 \$0-k1_set k 0 -8 0 10
-262144 -1 -1 8 256;
#X obj 116 63 nbx 3 14 -1e+37 1e+37 0 0 \$0-o1 \$0-o1_set offset 0
-8 0 10 -262144 -1 -1 0 256;
#X obj 36 93 nbx 3 14 -1e+37 1e+37 0 0 \$0-p1 \$0-p1_set pitch 0 -8
0 10 -262144 -1 -1 48 256;
#X obj 76 93 nbx 3 14 -1e+37 1e+37 0 0 \$0-v1 \$0-v1_set veloc 0 -8
0 10 -262144 -1 -1 127 256;
#X obj 116 93 nbx 3 14 -1e+37 1e+37 0 0 \$0-d1 \$0-d1_set durat 0 -8
0 10 -262144 -1 -1 100 256;
#X obj 156 93 nbx 3 14 -1e+37 1e+37 0 0 \$0-c1 \$0-c1_set chan 0 -8
0 10 -262144 -1 -1 1 256;
#X obj 206 63 nbx 3 14 -1e+37 1e+37 0 0 \$0-n2 \$0-n2_set n 0 -8 0
10 -262144 -1 -1 4 256;
#X obj 246 63 nbx 3 14 -1e+37 1e+37 0 0 \$0-k2 \$0-k2_set k 0 -8 0
10 -262144 -1 -1 8 256;
#X obj 286 63 nbx 3 14 -1e+37 1e+37 0 0 \$0-o2 \$0-o2_set offset 0
-8 0 10 -262144 -1 -1 0 256;
#X obj 206 93 nbx 3 14 -1e+37 1e+37 0 0 \$0-p2 \$0-p2_set pitch 0 -8
0 10 -262144 -1 -1 49 256;
#X obj 246 93 nbx 3 14 -1e+37 1e+37 0 0 \$0-v2 \$0-v2_set veloc 0 -8
0 10 -262144 -1 -1 127 256;
#X obj 286 93 nbx 3 14 -1e+37 1e+37 0 0 \$0-d2 \$0-d2_set durat 0 -8
0 10 -262144 -1 -1 100 256;
#X obj 326 93 nbx 3 14 -1e+37 1e+37 0 0 \$0-c2 \$0-c2_set chan 0 -8
0 10 -262144 -1 -1 2 256;
#X obj 376 63 nbx 3 14 -1e+37 1e+37 0 0 \$0-n3 \$0-n3_set n 0 -8 0
10 -262144 -1 -1 4 256;
#X obj 416 63 nbx 3 14 -1e+37 1e+37 0 0 \$0-k3 \$0-k3_set k 0 -8 0
10 -262144 -1 -1 8 256;
#X obj 456 63 nbx 3 14 -1e+37 1e+37 0 0 \$0-o3 \$0-o3_set offset 0
-8 0 10 -262144 -1 -1 0 256;
#X obj 376 93 nbx 3 14 -1e+37 1e+37 0 0 \$0-p3 \$0-p3_set pitch 0 -8
0 10 -262144 -1 -1 50 256;
#X obj 416 93 nbx 3 14 -1e+37 1e+37 0 0 \$0-v3 \$0-v3_set veloc 0 -8
0 10 -262144 -1 -1 127 256;
#X obj 456 93 nbx 3 14 -1e+37 1e+37 0 0 \$0-d3 \$0-d3_set durat 0 -8
0 10 -262144 -1 -1 100 256;
#X obj 496 93 nbx 3 14 -1e+37 1e+37 0 0 \$0-c3 \$0-c3_set chan 0 -8
0 10 -262144 -1 -1 3 256;
#X obj 546 63 nbx 3 14 -1e+37 1e+37 0 0 \$0-n4 \$0-n4_set n 0 -8 0
10 -262144 -1 -1 4 256;
#X obj 586 63 nbx 3 14 -1e+37 1e+37 0 0 \$0-k4 \$0-k4_set k 0 -8 0
10 -262144 -1 -1 8 256;
#X obj 626 63 nbx 3 14 -1e+37 1e+37 0 0 \$0-o4 \$0-o4_set offset 0
-8 0 10 -262144 -1 -1 0 256;
#X obj 546 93 nbx 3 14 -1e+37 1e+37 0 0 \$0-p4 \$0-p4_set pitch 0 -8
0 10 -262144 -1 -1 51 256;
#X obj 586 93 nbx 3 14 -1e+37 1e+37 0 0 \$0-v4 \$0-v4_set veloc 0 -8
0 10 -262144 -1 -1 127 256;
#X obj 626 93 nbx 3 14 -1e+37 1e+37 0 0 \$0-d4 \$0-d4_set durat 0 -8
0 10 -262144 -1 -1 100 256;
#X obj 666 93 nbx 3 14 -1e+37 1e+37 0 0 \$0-c4 \$0-c4_set chan 0 -8
0 10 -262144 -1 -1 4 256;
#X obj 716 53 transport;
#X obj 71 287 noteout;
#X obj 63 231 unpack f f f;
#X obj 704 254 adc~;
#X obj 714 287 dac~;
#N canvas 102 92 478 365 record 0;
#X msg 53 226 stop;
#X msg 93 226 start;
#X obj 53 60 sel 0 1;
#X obj 167 105 date;
#X obj 143 132 pack f f f;
#X obj 93 88 t b b b b;
#X obj 211 105 time;
#X obj 143 155 zl join;
#X obj 143 202 symbol;
#X obj 53 34 inlet;
#X obj 143 261 outlet;
#X obj 253 105 traninfo;
#X obj 211 132 pack f f f;
#X msg 143 178 \$1_\$2_\$3-\$4_\$5-\$6BPM;
#X msg 143 226 open /Users/dapoulter/Desktop/polyloops\$1.wav;
#X connect 0 0 10 0;
#X connect 1 0 10 0;
#X connect 2 0 0 0;
#X connect 2 1 5 0;
#X connect 3 0 4 0;
#X connect 3 1 4 1;
#X connect 3 2 4 2;
#X connect 4 0 7 0;
#X connect 5 0 1 0;
#X connect 5 2 3 0;
#X connect 5 3 6 0;
#X connect 6 0 12 0;
#X connect 6 1 12 1;
#X connect 7 0 13 0;
#X connect 8 0 14 0;
#X connect 9 0 2 0;
#X connect 11 1 12 2;
#X connect 12 0 7 1;
#X connect 13 0 8 0;
#X connect 14 0 10 0;
#X restore 746 254 pd record;
#X obj 746 287 writesf~ 1;
#X obj 719 164 onebang;
#X obj 719 141 sel 0;
#X obj 716 76 bng 30 250 50 0 empty empty rec 6 14 0 10 -262144 -1
-1;
#X obj 719 187 counter 1;
#X obj 789 227 sel 1;
#X obj 685 118 tranlength;
#X obj 789 187 del 10;
#X obj 719 210 t f f;
#X obj 746 76 tgl 30 0 empty empty empty 17 7 0 10 -262144 -1 -1 0
1;
#X obj 63 259 flush;
#X obj 63 206 gate;
#X obj 36 180 t f f;
#X obj 156 62 tgl 15 0 empty empty empty 17 7 0 10 -262144 -1 -1 1
1;
#X obj 156 17 init 1;
#X obj 16 206 sel 0;
#X obj 241 287 noteout;
#X obj 233 231 unpack f f f;
#X obj 233 259 flush;
#X obj 233 206 gate;
#X obj 206 180 t f f;
#X obj 326 62 tgl 15 0 empty empty empty 17 7 0 10 -262144 -1 -1 1
1;
#X obj 326 17 init 1;
#X obj 186 206 sel 0;
#X obj 411 287 noteout;
#X obj 403 231 unpack f f f;
#X obj 403 259 flush;
#X obj 403 206 gate;
#X obj 376 180 t f f;
#X obj 496 62 tgl 15 0 empty empty empty 17 7 0 10 -262144 -1 -1 1
1;
#X obj 496 17 init 1;
#X obj 356 206 sel 0;
#X obj 581 287 noteout;
#X obj 573 231 unpack f f f;
#X obj 573 259 flush;
#X obj 573 206 gate;
#X obj 546 180 t f f;
#X obj 666 62 tgl 15 0 empty empty empty 17 7 0 10 -262144 -1 -1 1
1;
#X obj 666 17 init 1;
#X obj 526 206 sel 0;
#X obj 84 180 bjorklund_track \$0 1;
#X obj 254 180 bjorklund_track \$0 2;
#X obj 424 180 bjorklund_track \$0 3;
#X obj 594 180 bjorklund_track \$0 4;
#X connect 30 0 44 0;
#X connect 30 1 44 1;
#X connect 30 2 29 2;
#X connect 31 1 32 0;
#X connect 31 1 32 1;
#X connect 31 1 34 0;
#X connect 33 0 34 0;
#X connect 35 0 38 0;
#X connect 36 0 35 0;
#X connect 37 0 35 1;
#X connect 38 0 42 0;
#X connect 39 0 41 0;
#X connect 40 3 36 0;
#X connect 41 0 35 1;
#X connect 42 0 39 0;
#X connect 42 1 43 0;
#X connect 43 0 33 0;
#X connect 44 0 29 0;
#X connect 44 1 29 1;
#X connect 45 0 30 0;
#X connect 46 0 49 0;
#X connect 46 1 45 0;
#X connect 47 0 46 0;
#X connect 48 0 47 0;
#X connect 49 0 44 0;
#X connect 51 0 52 0;
#X connect 51 1 52 1;
#X connect 51 2 50 2;
#X connect 52 0 50 0;
#X connect 52 1 50 1;
#X connect 53 0 51 0;
#X connect 54 0 57 0;
#X connect 54 1 53 0;
#X connect 55 0 54 0;
#X connect 56 0 55 0;
#X connect 57 0 52 0;
#X connect 59 0 60 0;
#X connect 59 1 60 1;
#X connect 59 2 58 2;
#X connect 60 0 58 0;
#X connect 60 1 58 1;
#X connect 61 0 59 0;
#X connect 62 0 65 0;
#X connect 62 1 61 0;
#X connect 63 0 62 0;
#X connect 64 0 63 0;
#X connect 65 0 60 0;
#X connect 67 0 68 0;
#X connect 67 1 68 1;
#X connect 67 2 66 2;
#X connect 68 0 66 0;
#X connect 68 1 66 1;
#X connect 69 0 67 0;
#X connect 70 0 73 0;
#X connect 70 1 69 0;
#X connect 71 0 70 0;
#X connect 72 0 71 0;
#X connect 73 0 68 0;
#X connect 74 0 45 1;
#X connect 75 0 53 1;
#X connect 76 0 61 1;
#X connect 77 0 69 1;
#X coords 0 -1 1 1 825 70 2 30 44;
