#N canvas 0 22 629 470 10;
#X obj 125 104 t b b b;
#X obj 146 274 list prepend;
#X obj 226 274 t l;
#X obj 125 294 list;
#X obj 125 64 inlet;
#X obj 179 64 inlet;
#X obj 125 334 outlet;
#X obj 227 64 inlet;
#X obj 146 124 uzi 12;
#X obj 146 144 random 96;
#X obj 146 164 + 32;
#X obj 277 64 inlet;
#X connect 0 0 3 0;
#X connect 0 1 8 0;
#X connect 0 2 1 1;
#X connect 1 0 2 0;
#X connect 1 0 3 1;
#X connect 2 0 1 1;
#X connect 3 0 6 0;
#X connect 4 0 0 0;
#X connect 5 0 8 1;
#X connect 7 0 9 1;
#X connect 8 0 9 0;
#X connect 9 0 10 0;
#X connect 10 0 1 0;
#X connect 11 0 10 1;
