#N canvas 39 27 1345 672 10;
#X obj 143 137 r \$0-sequence-length;
#X obj 78 516 tabread \$1;
#X obj 78 356 metro 155;
#X obj 129 246 / 1;
#X obj 78 256 t f b;
#X obj 78 386 f 0;
#X obj 108 386 + 1;
#X msg 145 356 0;
#X obj 78 456 % 1;
#X obj 129 106 r \$2-transport-tempo;
#X obj 78 66 r \$2-transport-power;
#X obj 143 157 t b f;
#X obj 93 426 r \$0-sequence-length;
#X obj 459 427 list length;
#X obj 499 469 s \$0-sequence-length;
#X obj 373 447 tabwrite \$1;
#X obj 459 509 pack s 0;
#X msg 459 529 \; \$1 resize \$2;
#X obj 459 489 symbol \$1;
#X obj 459 469 t b f;
#X obj 78 566 s \$1-event;
#X obj 200 358 s \$1-duration;
#X obj 129 226 * \$3;
#X obj 163 196 r \$2-\$1-bars;
#X obj 583 357 dp_strong_rhythm;
#X obj 730 83 table \$0-strong;
#X obj 600 297 pack s 0;
#X obj 600 257 t b f;
#X obj 78 546 pack f f;
#X obj 583 397 tabwrite \$0-strong;
#X obj 148 516 tabread \$0-strong;
#X msg 600 317 \; \$1 resize \$2;
#X obj 600 277 symbol \$0-strong;
#X obj 778 203 symbol \$1;
#X obj 733 183 t b b;
#X obj 733 223 pack f s;
#X obj 733 163 loadbang;
#X obj 733 203 f \$2;
#X obj 78 486 t f f;
#X obj 473 257 dp_random_rhythm;
#X obj 373 257 dp_bjorklund;
#X obj 549 197 r \$2-\$1-pulses;
#X obj 373 167 r \$2-\$1-onsets;
#X obj 391 287 r \$2-\$1-rotate;
#X obj 473 227 f;
#X obj 373 357 list-rot;
#X obj 473 197 r \$2-\$1-new;
#X obj 583 377 foreach;
#X obj 373 427 foreach;
#X obj 549 227 t f f f f;
#X obj 373 377 t l l;
#X obj 459 447 t f f;
#X obj 130 196 f;
#X obj 129 276 t f f;
#X msg 733 243 \; \$1-\$2-bars_set 1 \; \$1-\$2-rotate_set 0 \; \$1-\$2-pulses_set
16 \; \$1-\$2-onsets_set 5 \;;
#X obj 373 337 l;
#X obj 391 307 t b f;
#X text 371 132 Rhythm;
#X connect 0 0 11 0;
#X connect 1 0 28 0;
#X connect 2 0 5 0;
#X connect 3 0 53 0;
#X connect 4 0 2 0;
#X connect 4 1 7 0;
#X connect 5 0 6 0;
#X connect 5 0 8 0;
#X connect 6 0 5 1;
#X connect 7 0 5 1;
#X connect 8 0 38 0;
#X connect 9 0 52 0;
#X connect 10 0 4 0;
#X connect 11 0 52 0;
#X connect 11 1 3 1;
#X connect 12 0 8 1;
#X connect 13 0 51 0;
#X connect 16 0 17 0;
#X connect 18 0 16 0;
#X connect 19 0 18 0;
#X connect 19 1 16 1;
#X connect 22 0 3 0;
#X connect 23 0 22 1;
#X connect 24 0 47 0;
#X connect 26 0 31 0;
#X connect 27 0 32 0;
#X connect 27 1 26 1;
#X connect 28 0 20 0;
#X connect 30 0 28 1;
#X connect 32 0 26 0;
#X connect 33 0 35 1;
#X connect 34 0 37 0;
#X connect 34 1 33 0;
#X connect 35 0 54 0;
#X connect 36 0 34 0;
#X connect 37 0 35 0;
#X connect 38 0 1 0;
#X connect 38 1 30 0;
#X connect 39 0 55 0;
#X connect 40 0 55 0;
#X connect 41 0 49 0;
#X connect 42 0 44 1;
#X connect 42 0 40 0;
#X connect 43 0 56 0;
#X connect 44 0 39 0;
#X connect 45 0 50 0;
#X connect 46 0 44 0;
#X connect 47 0 29 0;
#X connect 47 1 29 1;
#X connect 48 0 15 0;
#X connect 48 1 15 1;
#X connect 49 0 40 1;
#X connect 49 1 39 1;
#X connect 49 2 24 0;
#X connect 49 3 27 0;
#X connect 50 0 48 0;
#X connect 50 1 13 0;
#X connect 51 0 19 0;
#X connect 51 1 14 0;
#X connect 52 0 22 0;
#X connect 53 0 2 1;
#X connect 53 1 21 0;
#X connect 55 0 45 0;
#X connect 56 0 55 0;
#X connect 56 1 45 1;
