#N canvas 446 72 688 488 10;
#X obj 48 368 *~ 1;
#X obj 158 368 *~ 1;
#X obj 158 401 hip~ 5;
#X obj 48 388 hip~ 5;
#X obj 48 418 dac~;
#X obj 201 353 tgl 15 0 empty empty empty 17 7 0 10 -262144 -1 -1 0
1;
#X obj 48 51 tgl 15 0 empty empty empty 17 7 0 10 -262144 -1 -1 1 1
;
#X floatatom 73 51 5 0 0 0 - - -;
#X obj 117 51 bng 15 250 50 0 empty empty empty 17 7 0 10 -262144 -1
-1;
#X msg 48 108 \; track_\$2 \$1;
#X obj 48 157 clicker~ 9 50;
#X obj 48 187 clicker~ 10 60;
#X obj 48 218 clicker~ 6 100;
#X obj 48 248 clicker~ 4 50;
#X obj 48 278 clicker~ 1 220;
#X obj 48 308 clicker~ 0 230;
#X obj 158 308 clicker~ 2 235;
#X obj 158 278 clicker~ 3 225;
#X obj 158 248 clicker~ 5 50;
#X obj 158 218 clicker~ 7 215;
#X obj 158 188 clicker~ 8 105;
#X obj 158 159 clicker~ 12 65;
#X obj 158 129 clicker~ 11 55;
#X obj 48 78 sequencer;
#X text 140 51 Load text file;
#X text 70 27 Tick speed (ms);
#X connect 0 0 3 0;
#X connect 1 0 2 0;
#X connect 2 0 4 1;
#X connect 3 0 4 0;
#X connect 5 0 1 1;
#X connect 5 0 0 1;
#X connect 6 0 23 0;
#X connect 7 0 23 1;
#X connect 8 0 23 2;
#X connect 10 0 11 0;
#X connect 11 0 12 0;
#X connect 12 0 13 0;
#X connect 13 0 14 0;
#X connect 14 0 15 0;
#X connect 15 0 0 0;
#X connect 16 0 1 0;
#X connect 17 0 16 0;
#X connect 18 0 17 0;
#X connect 19 0 18 0;
#X connect 20 0 19 0;
#X connect 21 0 20 0;
#X connect 22 0 21 0;
#X connect 23 0 9 0;
