#N canvas 65 22 333 388 10;
#X obj 73 141 textfile;
#X msg 141 141 rewind;
#X obj 73 171 t a b;
#X obj 164 77 openpanel;
#X obj 164 107 prepend read;
#X obj 73 78 metro 90;
#X obj 73 201 list-drip;
#X obj 100 261 f 0;
#X obj 130 261 + 1;
#X msg 124 231 0;
#X obj 73 291 pack;
#X obj 73 35 inlet;
#X obj 118 35 inlet;
#X obj 164 35 inlet;
#X obj 73 231 t a b;
#X obj 73 321 outlet;
#X obj 220 298 outlet;
#X connect 0 0 2 0;
#X connect 0 1 1 0;
#X connect 0 1 16 0;
#X connect 1 0 0 0;
#X connect 2 0 6 0;
#X connect 3 0 4 0;
#X connect 4 0 0 0;
#X connect 5 0 0 0;
#X connect 6 0 14 0;
#X connect 6 1 9 0;
#X connect 7 0 8 0;
#X connect 7 0 10 1;
#X connect 8 0 7 1;
#X connect 9 0 7 1;
#X connect 10 0 15 0;
#X connect 11 0 5 0;
#X connect 12 0 5 1;
#X connect 13 0 3 0;
#X connect 14 0 10 0;
#X connect 14 1 7 0;
