#N canvas 338 333 675 479 10;
#X obj 20 30 nbx 5 20 -1e+37 1e+37 0 0 \$0-ticker-bars \$0-ticker-bars-gui
Bars 0 -8 0 10 -262144 -1 -1 1 256;
#X obj 87 30 nbx 5 20 -1e+37 1e+37 0 0 \$0-ticker-divisions \$0-ticker-divisions-gui
Divisions 0 -8 0 10 -262144 -1 -1 16 256;
#X obj 231 134 r \$0-ticker-bars;
#X obj 285 156 r \$0-ticker-divisions;
#X obj 444 10 loadbang;
#X obj 444 30 f \$0;
#X obj 184 10 inlet;
#X obj 254 10 inlet;
#X obj 184 60 s \$0-ticker-bars-gui;
#X obj 254 40 s \$0-ticker-divisions-gui;
#X obj 189 362 outlet;
#X obj 189 91 r transport-state;
#X obj 216 111 r transport-interval;
#X obj 189 322 metro;
#X obj 216 262 *;
#X obj 245 186 t b f;
#X obj 216 232 f;
#X obj 216 292 /;
#X obj 285 186 t b f;
#X obj 61 110 r transport-beat;
#X msg 444 50 \; \$1-ticker-bars-gui 1 \; \$1-ticker-divisions-gui
16 \;;
#X obj 61 130 cup;
#X obj 61 160 %;
#X obj 61 190 sel 0;
#X msg 101 258 0;
#X msg 61 258 1;
#X obj 61 220 t b b b b;
#X obj 349 362 outlet;
#X obj 249 362 outlet;
#X text 188 392 Ticks;
#X text 252 394 Interval (ms);
#X text 354 393 Reset;
#X connect 2 0 15 0;
#X connect 2 0 22 1;
#X connect 3 0 18 0;
#X connect 4 0 5 0;
#X connect 5 0 20 0;
#X connect 6 0 8 0;
#X connect 7 0 9 0;
#X connect 11 0 13 0;
#X connect 12 0 16 0;
#X connect 13 0 10 0;
#X connect 14 0 17 0;
#X connect 15 0 16 0;
#X connect 15 1 14 1;
#X connect 16 0 14 0;
#X connect 17 0 13 1;
#X connect 17 0 28 0;
#X connect 18 0 16 0;
#X connect 18 1 17 1;
#X connect 19 0 21 0;
#X connect 21 0 22 0;
#X connect 22 0 23 0;
#X connect 23 0 26 0;
#X connect 24 0 13 0;
#X connect 25 0 13 0;
#X connect 26 0 25 0;
#X connect 26 1 16 0;
#X connect 26 2 24 0;
#X connect 26 3 27 0;
#X coords 0 -1 1 1 144 50 2 10 10;
