#N canvas 797 37 450 300 10;
#X text 102 187 bpm;
#X text 53 186 run;
#X text 167 189 ms;
#X text 206 187 hz;
#X obj 88 104 unpack f f f f;
#X obj 46 135 change;
#X obj 46 159 outlet;
#X obj 95 136 change;
#X obj 95 160 outlet;
#X obj 145 136 change;
#X obj 145 160 outlet;
#X obj 194 137 change;
#X obj 194 161 outlet;
#X obj 88 81 r [dp]_info;
#X text 150 178 1 Bar;
#X obj 284 116 s [dp]_info_set;
#X obj 284 86 inlet;
#X connect 4 0 5 0;
#X connect 4 1 7 0;
#X connect 4 2 9 0;
#X connect 4 3 11 0;
#X connect 5 0 6 0;
#X connect 7 0 8 0;
#X connect 9 0 10 0;
#X connect 11 0 12 0;
#X connect 13 0 4 0;
#X connect 16 0 15 0;
