{
	"patcher" : 	{
		"fileversion" : 1,
		"rect" : [ 0.0, 63.0, 1280.0, 653.0 ],
		"bglocked" : 0,
		"defrect" : [ 0.0, 63.0, 1280.0, 653.0 ],
		"openrect" : [ 0.0, 0.0, 0.0, 0.0 ],
		"openinpresentation" : 1,
		"default_fontsize" : 9.0,
		"default_fontface" : 0,
		"default_fontname" : "Arial",
		"gridonopen" : 0,
		"gridsize" : [ 15.0, 15.0 ],
		"gridsnaponopen" : 0,
		"toolbarvisible" : 1,
		"boxanimatetime" : 200,
		"imprint" : 0,
		"metadata" : [  ],
		"boxes" : [ 			{
				"box" : 				{
					"maxclass" : "comment",
					"text" : "Sample",
					"patching_rect" : [ 135.0, 285.0, 44.0, 17.0 ],
					"numinlets" : 1,
					"fontname" : "Arial",
					"id" : "obj-16",
					"numoutlets" : 0,
					"fontsize" : 9.0
				}

			}
, 			{
				"box" : 				{
					"maxclass" : "outlet",
					"patching_rect" : [ 15.0, 360.0, 25.0, 25.0 ],
					"numinlets" : 1,
					"id" : "obj-14",
					"numoutlets" : 0,
					"comment" : ""
				}

			}
, 			{
				"box" : 				{
					"maxclass" : "inlet",
					"patching_rect" : [ 15.0, 15.0, 25.0, 25.0 ],
					"numinlets" : 0,
					"id" : "obj-13",
					"numoutlets" : 1,
					"outlettype" : [ "" ],
					"comment" : ""
				}

			}
, 			{
				"box" : 				{
					"maxclass" : "comment",
					"text" : "Window",
					"patching_rect" : [ 270.0, 120.0, 44.0, 17.0 ],
					"numinlets" : 1,
					"fontname" : "Arial",
					"id" : "obj-12",
					"numoutlets" : 0,
					"fontsize" : 9.0
				}

			}
, 			{
				"box" : 				{
					"maxclass" : "comment",
					"text" : "Pitch",
					"patching_rect" : [ 30.0, 195.0, 150.0, 17.0 ],
					"presentation" : 1,
					"numinlets" : 1,
					"fontname" : "Arial",
					"id" : "obj-9",
					"numoutlets" : 0,
					"fontsize" : 9.0,
					"presentation_rect" : [ 0.0, 195.0, 150.0, 17.0 ]
				}

			}
, 			{
				"box" : 				{
					"maxclass" : "comment",
					"text" : "Size",
					"patching_rect" : [ 30.0, 120.0, 150.0, 17.0 ],
					"presentation" : 1,
					"numinlets" : 1,
					"fontname" : "Arial",
					"id" : "obj-7",
					"numoutlets" : 0,
					"fontsize" : 9.0,
					"presentation_rect" : [ 0.0, 120.0, 150.0, 17.0 ]
				}

			}
, 			{
				"box" : 				{
					"maxclass" : "comment",
					"text" : "Position",
					"patching_rect" : [ 30.0, 45.0, 150.0, 17.0 ],
					"presentation" : 1,
					"numinlets" : 1,
					"fontname" : "Arial",
					"id" : "obj-5",
					"numoutlets" : 0,
					"fontsize" : 9.0,
					"presentation_rect" : [ 0.0, 45.0, 150.0, 17.0 ]
				}

			}
, 			{
				"box" : 				{
					"maxclass" : "message",
					"text" : "replace",
					"patching_rect" : [ 225.0, 120.0, 40.0, 15.0 ],
					"numinlets" : 2,
					"fontname" : "Arial",
					"id" : "obj-11",
					"numoutlets" : 1,
					"outlettype" : [ "" ],
					"fontsize" : 9.0
				}

			}
, 			{
				"box" : 				{
					"maxclass" : "message",
					"text" : "replace",
					"patching_rect" : [ 90.0, 285.0, 43.0, 16.0 ],
					"presentation" : 1,
					"numinlets" : 2,
					"fontname" : "Arial",
					"id" : "obj-24",
					"numoutlets" : 1,
					"outlettype" : [ "" ],
					"bgcolor" : [ 0.866667, 0.866667, 0.866667, 0.0 ],
					"fontsize" : 10.0,
					"presentation_rect" : [ 0.0, 0.0, 45.0, 16.0 ]
				}

			}
, 			{
				"box" : 				{
					"maxclass" : "comment",
					"text" : "Pitch",
					"patching_rect" : [ 195.0, 360.0, 36.0, 17.0 ],
					"presentation" : 1,
					"numinlets" : 1,
					"fontname" : "Arial",
					"id" : "obj-25",
					"numoutlets" : 0,
					"fontface" : 1,
					"fontsize" : 9.0,
					"presentation_rect" : [ 45.0, 195.0, 36.0, 17.0 ]
				}

			}
, 			{
				"box" : 				{
					"maxclass" : "comment",
					"text" : "Size",
					"patching_rect" : [ 135.0, 360.0, 31.0, 17.0 ],
					"presentation" : 1,
					"numinlets" : 1,
					"fontname" : "Arial",
					"id" : "obj-26",
					"numoutlets" : 0,
					"fontface" : 1,
					"fontsize" : 9.0,
					"presentation_rect" : [ 45.0, 120.0, 31.0, 17.0 ]
				}

			}
, 			{
				"box" : 				{
					"maxclass" : "comment",
					"text" : "Pos.",
					"patching_rect" : [ 75.0, 360.0, 31.0, 17.0 ],
					"presentation" : 1,
					"numinlets" : 1,
					"fontname" : "Arial",
					"id" : "obj-27",
					"numoutlets" : 0,
					"fontface" : 1,
					"fontsize" : 9.0,
					"presentation_rect" : [ 45.0, 45.0, 31.0, 17.0 ]
				}

			}
, 			{
				"box" : 				{
					"maxclass" : "flonum",
					"patching_rect" : [ 60.0, 375.0, 51.0, 17.0 ],
					"presentation" : 1,
					"numinlets" : 1,
					"fontname" : "Arial",
					"id" : "obj-28",
					"numoutlets" : 2,
					"outlettype" : [ "float", "bang" ],
					"bgcolor" : [ 1.0, 1.0, 1.0, 0.0 ],
					"fontface" : 1,
					"fontsize" : 9.0,
					"presentation_rect" : [ 75.0, 45.0, 40.0, 17.0 ],
					"bordercolor" : [ 0.501961, 0.501961, 0.501961, 0.0 ]
				}

			}
, 			{
				"box" : 				{
					"maxclass" : "flonum",
					"patching_rect" : [ 120.0, 375.0, 50.0, 17.0 ],
					"presentation" : 1,
					"numinlets" : 1,
					"fontname" : "Arial",
					"id" : "obj-29",
					"numoutlets" : 2,
					"outlettype" : [ "float", "bang" ],
					"bgcolor" : [ 1.0, 1.0, 1.0, 0.0 ],
					"fontface" : 1,
					"fontsize" : 9.0,
					"presentation_rect" : [ 75.0, 120.0, 42.0, 17.0 ],
					"bordercolor" : [ 0.501961, 0.501961, 0.501961, 0.0 ]
				}

			}
, 			{
				"box" : 				{
					"maxclass" : "flonum",
					"patching_rect" : [ 180.0, 375.0, 50.0, 17.0 ],
					"presentation" : 1,
					"numinlets" : 1,
					"fontname" : "Arial",
					"id" : "obj-30",
					"numoutlets" : 2,
					"outlettype" : [ "float", "bang" ],
					"bgcolor" : [ 1.0, 1.0, 1.0, 0.0 ],
					"fontface" : 1,
					"fontsize" : 9.0,
					"presentation_rect" : [ 75.0, 195.0, 50.0, 17.0 ],
					"bordercolor" : [ 0.501961, 0.501961, 0.501961, 0.0 ]
				}

			}
, 			{
				"box" : 				{
					"maxclass" : "waveform~",
					"patching_rect" : [ 240.0, 360.0, 256.0, 64.0 ],
					"textcolor" : [  ],
					"presentation" : 1,
					"norulerclick" : 1,
					"numinlets" : 5,
					"id" : "obj-33",
					"ruler" : 0,
					"attr_bpm" : 92.0,
					"numoutlets" : 6,
					"selectioncolor" : [ 0.0, 0.372549, 1.0, 0.0 ],
					"waveformcolor" : [ 0.0, 0.0, 0.0, 1.0 ],
					"outlettype" : [ "float", "float", "float", "float", "list", "" ],
					"bgcolor" : [ 0.827451, 0.827451, 0.827451, 1.0 ],
					"presentation_rect" : [ 0.0, 0.0, 186.0, 43.0 ],
					"vticks" : 0,
					"labels" : 0,
					"buffername" : "#1"
				}

			}
, 			{
				"box" : 				{
					"maxclass" : "newobj",
					"text" : "p grain",
					"patching_rect" : [ 15.0, 315.0, 93.5, 17.0 ],
					"numinlets" : 4,
					"fontname" : "Arial",
					"id" : "obj-35",
					"numoutlets" : 5,
					"outlettype" : [ "signal", "float", "float", "float", "" ],
					"fontsize" : 9.0,
					"patcher" : 					{
						"fileversion" : 1,
						"rect" : [ 107.0, 230.0, 576.0, 335.0 ],
						"bglocked" : 0,
						"defrect" : [ 107.0, 230.0, 576.0, 335.0 ],
						"openrect" : [ 0.0, 0.0, 0.0, 0.0 ],
						"openinpresentation" : 0,
						"default_fontsize" : 9.0,
						"default_fontface" : 0,
						"default_fontname" : "Arial",
						"gridonopen" : 0,
						"gridsize" : [ 15.0, 15.0 ],
						"gridsnaponopen" : 0,
						"toolbarvisible" : 1,
						"boxanimatetime" : 200,
						"imprint" : 0,
						"metadata" : [  ],
						"boxes" : [ 							{
								"box" : 								{
									"maxclass" : "newobj",
									"text" : "* 0.007874",
									"patching_rect" : [ 30.0, 94.0, 54.0, 17.0 ],
									"numinlets" : 2,
									"fontname" : "Arial",
									"id" : "obj-7",
									"numoutlets" : 1,
									"outlettype" : [ "float" ],
									"fontsize" : 9.0
								}

							}
, 							{
								"box" : 								{
									"maxclass" : "newobj",
									"text" : "s len",
									"patching_rect" : [ 225.0, 180.0, 30.0, 17.0 ],
									"numinlets" : 1,
									"fontname" : "Arial",
									"id" : "obj-9",
									"numoutlets" : 0,
									"fontsize" : 9.0
								}

							}
, 							{
								"box" : 								{
									"maxclass" : "outlet",
									"patching_rect" : [ 30.0, 255.0, 25.0, 25.0 ],
									"numinlets" : 1,
									"id" : "obj-178",
									"numoutlets" : 0,
									"comment" : ""
								}

							}
, 							{
								"box" : 								{
									"maxclass" : "outlet",
									"patching_rect" : [ 285.0, 255.0, 25.0, 25.0 ],
									"numinlets" : 1,
									"id" : "obj-156",
									"numoutlets" : 0,
									"comment" : ""
								}

							}
, 							{
								"box" : 								{
									"maxclass" : "outlet",
									"patching_rect" : [ 255.0, 255.0, 25.0, 25.0 ],
									"numinlets" : 1,
									"id" : "obj-157",
									"numoutlets" : 0,
									"comment" : ""
								}

							}
, 							{
								"box" : 								{
									"maxclass" : "outlet",
									"patching_rect" : [ 225.0, 255.0, 25.0, 25.0 ],
									"numinlets" : 1,
									"id" : "obj-154",
									"numoutlets" : 0,
									"comment" : ""
								}

							}
, 							{
								"box" : 								{
									"maxclass" : "comment",
									"text" : "Replace\nSound",
									"linecount" : 2,
									"patching_rect" : [ 165.0, 30.0, 45.0, 27.0 ],
									"numinlets" : 1,
									"fontname" : "Arial",
									"id" : "obj-15",
									"numoutlets" : 0,
									"fontsize" : 9.0
								}

							}
, 							{
								"box" : 								{
									"maxclass" : "newobj",
									"text" : "mtof",
									"patching_rect" : [ 90.0, 90.0, 28.0, 17.0 ],
									"numinlets" : 1,
									"fontname" : "Arial",
									"id" : "obj-34",
									"numoutlets" : 1,
									"outlettype" : [ "" ],
									"fontsize" : 9.0
								}

							}
, 							{
								"box" : 								{
									"maxclass" : "outlet",
									"patching_rect" : [ 315.0, 255.0, 25.0, 25.0 ],
									"numinlets" : 1,
									"id" : "obj-36",
									"numoutlets" : 0,
									"comment" : ""
								}

							}
, 							{
								"box" : 								{
									"maxclass" : "message",
									"text" : "set grainLive2",
									"patching_rect" : [ 315.0, 120.0, 68.0, 15.0 ],
									"numinlets" : 2,
									"fontname" : "Arial",
									"id" : "obj-42",
									"numoutlets" : 1,
									"outlettype" : [ "" ],
									"fontsize" : 9.0
								}

							}
, 							{
								"box" : 								{
									"maxclass" : "inlet",
									"patching_rect" : [ 170.0, 60.0, 25.0, 25.0 ],
									"numinlets" : 0,
									"id" : "obj-44",
									"numoutlets" : 1,
									"outlettype" : [ "" ],
									"comment" : ""
								}

							}
, 							{
								"box" : 								{
									"maxclass" : "comment",
									"text" : "Pitch",
									"patching_rect" : [ 120.0, 30.0, 33.0, 17.0 ],
									"numinlets" : 1,
									"fontname" : "Arial",
									"id" : "obj-47",
									"numoutlets" : 0,
									"fontsize" : 9.0
								}

							}
, 							{
								"box" : 								{
									"maxclass" : "comment",
									"text" : "Size\n(ms)",
									"linecount" : 2,
									"patching_rect" : [ 90.0, 30.0, 29.0, 27.0 ],
									"numinlets" : 1,
									"fontname" : "Arial",
									"id" : "obj-52",
									"numoutlets" : 0,
									"fontsize" : 9.0
								}

							}
, 							{
								"box" : 								{
									"maxclass" : "comment",
									"text" : "Pos. (ms)",
									"linecount" : 2,
									"patching_rect" : [ 30.0, 30.0, 29.0, 27.0 ],
									"numinlets" : 1,
									"fontname" : "Arial",
									"id" : "obj-60",
									"numoutlets" : 0,
									"fontsize" : 9.0
								}

							}
, 							{
								"box" : 								{
									"maxclass" : "inlet",
									"patching_rect" : [ 120.0, 60.0, 25.0, 25.0 ],
									"numinlets" : 0,
									"id" : "obj-62",
									"numoutlets" : 1,
									"outlettype" : [ "" ],
									"comment" : ""
								}

							}
, 							{
								"box" : 								{
									"maxclass" : "inlet",
									"patching_rect" : [ 90.0, 60.0, 25.0, 25.0 ],
									"numinlets" : 0,
									"id" : "obj-63",
									"numoutlets" : 1,
									"outlettype" : [ "" ],
									"comment" : ""
								}

							}
, 							{
								"box" : 								{
									"maxclass" : "inlet",
									"patching_rect" : [ 30.0, 60.0, 25.0, 25.0 ],
									"numinlets" : 0,
									"id" : "obj-69",
									"numoutlets" : 1,
									"outlettype" : [ "" ],
									"comment" : ""
								}

							}
, 							{
								"box" : 								{
									"maxclass" : "newobj",
									"text" : "p mtos",
									"patching_rect" : [ 120.0, 90.0, 38.0, 17.0 ],
									"numinlets" : 1,
									"fontname" : "Arial",
									"id" : "obj-70",
									"numoutlets" : 1,
									"outlettype" : [ "float" ],
									"fontsize" : 9.0,
									"patcher" : 									{
										"fileversion" : 1,
										"rect" : [ 330.0, 175.0, 354.0, 327.0 ],
										"bglocked" : 0,
										"defrect" : [ 330.0, 175.0, 354.0, 327.0 ],
										"openrect" : [ 0.0, 0.0, 0.0, 0.0 ],
										"openinpresentation" : 0,
										"default_fontsize" : 9.0,
										"default_fontface" : 0,
										"default_fontname" : "Arial",
										"gridonopen" : 0,
										"gridsize" : [ 15.0, 15.0 ],
										"gridsnaponopen" : 0,
										"toolbarvisible" : 1,
										"boxanimatetime" : 200,
										"imprint" : 0,
										"metadata" : [  ],
										"boxes" : [ 											{
												"box" : 												{
													"maxclass" : "outlet",
													"patching_rect" : [ 30.0, 150.0, 25.0, 25.0 ],
													"numinlets" : 1,
													"id" : "obj-2",
													"numoutlets" : 0,
													"comment" : ""
												}

											}
, 											{
												"box" : 												{
													"maxclass" : "inlet",
													"patching_rect" : [ 30.0, 30.0, 25.0, 25.0 ],
													"numinlets" : 0,
													"id" : "obj-1",
													"numoutlets" : 1,
													"outlettype" : [ "" ],
													"comment" : ""
												}

											}
, 											{
												"box" : 												{
													"maxclass" : "newobj",
													"text" : "/ 329.627563",
													"patching_rect" : [ 30.0, 120.0, 69.0, 18.0 ],
													"numinlets" : 2,
													"fontname" : "Arial",
													"id" : "obj-14",
													"numoutlets" : 1,
													"outlettype" : [ "float" ],
													"fontsize" : 10.0
												}

											}
, 											{
												"box" : 												{
													"maxclass" : "newobj",
													"text" : "mtof",
													"patching_rect" : [ 30.0, 90.0, 30.0, 18.0 ],
													"numinlets" : 1,
													"fontname" : "Arial",
													"id" : "obj-23",
													"numoutlets" : 1,
													"outlettype" : [ "" ],
													"fontsize" : 10.0
												}

											}
 ],
										"lines" : [ 											{
												"patchline" : 												{
													"source" : [ "obj-14", 0 ],
													"destination" : [ "obj-2", 0 ],
													"hidden" : 0,
													"midpoints" : [  ]
												}

											}
, 											{
												"patchline" : 												{
													"source" : [ "obj-23", 0 ],
													"destination" : [ "obj-14", 0 ],
													"hidden" : 0,
													"midpoints" : [  ]
												}

											}
, 											{
												"patchline" : 												{
													"source" : [ "obj-1", 0 ],
													"destination" : [ "obj-23", 0 ],
													"hidden" : 0,
													"midpoints" : [  ]
												}

											}
 ]
									}
,
									"saved_object_attributes" : 									{
										"fontname" : "Arial",
										"default_fontface" : 0,
										"globalpatchername" : "",
										"fontface" : 0,
										"fontsize" : 9.0,
										"default_fontname" : "Arial",
										"default_fontsize" : 9.0
									}

								}

							}
, 							{
								"box" : 								{
									"maxclass" : "newobj",
									"text" : "* 1.",
									"patching_rect" : [ 30.0, 150.0, 30.0, 17.0 ],
									"numinlets" : 2,
									"fontname" : "Arial",
									"id" : "obj-77",
									"numoutlets" : 1,
									"outlettype" : [ "float" ],
									"fontsize" : 9.0
								}

							}
, 							{
								"box" : 								{
									"maxclass" : "newobj",
									"text" : "info~ grainLive2",
									"patching_rect" : [ 225.0, 120.0, 113.5, 17.0 ],
									"numinlets" : 1,
									"fontname" : "Arial",
									"id" : "obj-78",
									"numoutlets" : 8,
									"outlettype" : [ "float", "list", "float", "float", "float", "float", "float", "" ],
									"fontsize" : 9.0
								}

							}
, 							{
								"box" : 								{
									"maxclass" : "newobj",
									"text" : "buffer~ grainLive2",
									"patching_rect" : [ 170.0, 89.0, 84.0, 17.0 ],
									"numinlets" : 1,
									"fontname" : "Arial",
									"id" : "obj-80",
									"numoutlets" : 2,
									"outlettype" : [ "float", "bang" ],
									"fontsize" : 9.0
								}

							}
, 							{
								"box" : 								{
									"maxclass" : "flonum",
									"patching_rect" : [ 30.0, 180.0, 38.0, 17.0 ],
									"numinlets" : 1,
									"fontname" : "Arial",
									"id" : "obj-87",
									"numoutlets" : 2,
									"outlettype" : [ "float", "bang" ],
									"fontsize" : 9.0
								}

							}
, 							{
								"box" : 								{
									"maxclass" : "flonum",
									"patching_rect" : [ 120.0, 180.0, 29.0, 17.0 ],
									"numinlets" : 1,
									"fontname" : "Arial",
									"id" : "obj-94",
									"numoutlets" : 2,
									"outlettype" : [ "float", "bang" ],
									"fontsize" : 9.0
								}

							}
, 							{
								"box" : 								{
									"maxclass" : "flonum",
									"patching_rect" : [ 90.0, 180.0, 29.0, 17.0 ],
									"numinlets" : 1,
									"fontname" : "Arial",
									"id" : "obj-95",
									"numoutlets" : 2,
									"outlettype" : [ "float", "bang" ],
									"fontsize" : 9.0
								}

							}
, 							{
								"box" : 								{
									"maxclass" : "newobj",
									"text" : "p engine",
									"patching_rect" : [ 30.0, 225.0, 108.5, 17.0 ],
									"numinlets" : 4,
									"fontname" : "Arial",
									"id" : "obj-2",
									"numoutlets" : 1,
									"outlettype" : [ "signal" ],
									"fontsize" : 9.0,
									"patcher" : 									{
										"fileversion" : 1,
										"rect" : [ 409.0, 55.0, 251.0, 444.0 ],
										"bglocked" : 0,
										"defrect" : [ 409.0, 55.0, 251.0, 444.0 ],
										"openrect" : [ 0.0, 0.0, 0.0, 0.0 ],
										"openinpresentation" : 0,
										"default_fontsize" : 9.0,
										"default_fontface" : 0,
										"default_fontname" : "Arial",
										"gridonopen" : 0,
										"gridsize" : [ 10.0, 10.0 ],
										"gridsnaponopen" : 0,
										"toolbarvisible" : 1,
										"boxanimatetime" : 200,
										"imprint" : 0,
										"metadata" : [  ],
										"boxes" : [ 											{
												"box" : 												{
													"maxclass" : "comment",
													"text" : "Pitch",
													"patching_rect" : [ 140.0, 20.0, 33.0, 17.0 ],
													"numinlets" : 1,
													"fontname" : "Arial",
													"id" : "obj-29",
													"numoutlets" : 0,
													"fontsize" : 9.0
												}

											}
, 											{
												"box" : 												{
													"maxclass" : "comment",
													"text" : "Grain Size",
													"linecount" : 2,
													"patching_rect" : [ 100.0, 20.0, 33.0, 27.0 ],
													"numinlets" : 1,
													"fontname" : "Arial",
													"id" : "obj-28",
													"numoutlets" : 0,
													"fontsize" : 9.0
												}

											}
, 											{
												"box" : 												{
													"maxclass" : "comment",
													"text" : "Pos. (ms)",
													"linecount" : 2,
													"patching_rect" : [ 20.0, 20.0, 29.0, 27.0 ],
													"numinlets" : 1,
													"fontname" : "Arial",
													"id" : "obj-15",
													"numoutlets" : 0,
													"fontsize" : 9.0
												}

											}
, 											{
												"box" : 												{
													"maxclass" : "comment",
													"text" : "Len. (ms)",
													"linecount" : 2,
													"patching_rect" : [ 60.0, 20.0, 29.0, 27.0 ],
													"numinlets" : 1,
													"fontname" : "Arial",
													"id" : "obj-14",
													"numoutlets" : 0,
													"fontsize" : 9.0
												}

											}
, 											{
												"box" : 												{
													"maxclass" : "inlet",
													"patching_rect" : [ 60.0, 50.0, 25.0, 25.0 ],
													"numinlets" : 0,
													"id" : "obj-7",
													"numoutlets" : 1,
													"outlettype" : [ "float" ],
													"comment" : ""
												}

											}
, 											{
												"box" : 												{
													"maxclass" : "inlet",
													"patching_rect" : [ 20.0, 50.0, 25.0, 25.0 ],
													"numinlets" : 0,
													"id" : "obj-4",
													"numoutlets" : 1,
													"outlettype" : [ "float" ],
													"comment" : ""
												}

											}
, 											{
												"box" : 												{
													"maxclass" : "inlet",
													"patching_rect" : [ 100.0, 50.0, 25.0, 25.0 ],
													"numinlets" : 0,
													"id" : "obj-3",
													"numoutlets" : 1,
													"outlettype" : [ "float" ],
													"comment" : ""
												}

											}
, 											{
												"box" : 												{
													"maxclass" : "inlet",
													"patching_rect" : [ 140.0, 50.0, 25.0, 25.0 ],
													"numinlets" : 0,
													"id" : "obj-2",
													"numoutlets" : 1,
													"outlettype" : [ "float" ],
													"comment" : ""
												}

											}
, 											{
												"box" : 												{
													"maxclass" : "newobj",
													"text" : "sig~",
													"patching_rect" : [ 120.0, 210.0, 25.0, 17.0 ],
													"numinlets" : 1,
													"fontname" : "Arial",
													"id" : "obj-74",
													"numoutlets" : 1,
													"outlettype" : [ "signal" ],
													"fontsize" : 9.0
												}

											}
, 											{
												"box" : 												{
													"maxclass" : "flonum",
													"patching_rect" : [ 100.0, 150.0, 48.0, 17.0 ],
													"numinlets" : 1,
													"fontname" : "Arial",
													"id" : "obj-73",
													"numoutlets" : 2,
													"outlettype" : [ "float", "bang" ],
													"fontsize" : 9.0
												}

											}
, 											{
												"box" : 												{
													"maxclass" : "newobj",
													"text" : "!/ 1.",
													"patching_rect" : [ 60.0, 300.0, 32.0, 17.0 ],
													"numinlets" : 2,
													"fontname" : "Arial",
													"id" : "obj-64",
													"numoutlets" : 1,
													"outlettype" : [ "float" ],
													"fontsize" : 9.0
												}

											}
, 											{
												"box" : 												{
													"maxclass" : "newobj",
													"text" : "sig~",
													"patching_rect" : [ 20.0, 90.0, 27.0, 17.0 ],
													"numinlets" : 1,
													"fontname" : "Arial",
													"id" : "obj-59",
													"numoutlets" : 1,
													"outlettype" : [ "signal" ],
													"fontsize" : 9.0
												}

											}
, 											{
												"box" : 												{
													"maxclass" : "newobj",
													"text" : "*~",
													"patching_rect" : [ 20.0, 320.0, 58.5, 17.0 ],
													"numinlets" : 2,
													"fontname" : "Arial",
													"id" : "obj-45",
													"numoutlets" : 1,
													"outlettype" : [ "signal" ],
													"fontsize" : 9.0
												}

											}
, 											{
												"box" : 												{
													"maxclass" : "comment",
													"text" : "Freq",
													"patching_rect" : [ 150.0, 150.0, 32.0, 17.0 ],
													"numinlets" : 1,
													"fontname" : "Arial",
													"id" : "obj-33",
													"numoutlets" : 0,
													"fontsize" : 9.0
												}

											}
, 											{
												"box" : 												{
													"maxclass" : "newobj",
													"text" : "t b f",
													"patching_rect" : [ 140.0, 90.0, 53.0, 17.0 ],
													"numinlets" : 1,
													"fontname" : "Arial",
													"id" : "obj-76",
													"numoutlets" : 2,
													"outlettype" : [ "bang", "float" ],
													"fontsize" : 9.0
												}

											}
, 											{
												"box" : 												{
													"maxclass" : "newobj",
													"text" : "expr 1000. / $f1 * $f2",
													"patching_rect" : [ 100.0, 120.0, 93.0, 17.0 ],
													"numinlets" : 2,
													"fontname" : "Arial",
													"id" : "obj-82",
													"numoutlets" : 1,
													"outlettype" : [ "" ],
													"fontsize" : 9.0
												}

											}
, 											{
												"box" : 												{
													"maxclass" : "outlet",
													"patching_rect" : [ 20.0, 390.0, 25.0, 25.0 ],
													"numinlets" : 1,
													"id" : "obj-1",
													"numoutlets" : 0,
													"comment" : ""
												}

											}
, 											{
												"box" : 												{
													"maxclass" : "newobj",
													"text" : "sah~ 0.",
													"patching_rect" : [ 120.0, 240.0, 40.0, 17.0 ],
													"numinlets" : 2,
													"fontname" : "Arial",
													"id" : "obj-9",
													"numoutlets" : 1,
													"outlettype" : [ "signal" ],
													"fontsize" : 9.0
												}

											}
, 											{
												"box" : 												{
													"maxclass" : "newobj",
													"text" : "wave~ grainLive2",
													"patching_rect" : [ 20.0, 340.0, 81.0, 17.0 ],
													"numinlets" : 3,
													"fontname" : "Arial",
													"id" : "obj-16",
													"numoutlets" : 1,
													"outlettype" : [ "signal" ],
													"fontsize" : 9.0
												}

											}
, 											{
												"box" : 												{
													"maxclass" : "newobj",
													"text" : "wave~ wndw2",
													"patching_rect" : [ 160.0, 210.0, 67.0, 17.0 ],
													"numinlets" : 3,
													"fontname" : "Arial",
													"id" : "obj-17",
													"numoutlets" : 1,
													"outlettype" : [ "signal" ],
													"fontsize" : 9.0
												}

											}
, 											{
												"box" : 												{
													"maxclass" : "newobj",
													"text" : "phasor~ 20",
													"patching_rect" : [ 100.0, 180.0, 59.0, 17.0 ],
													"numinlets" : 2,
													"fontname" : "Arial",
													"id" : "obj-18",
													"numoutlets" : 1,
													"outlettype" : [ "signal" ],
													"fontsize" : 9.0
												}

											}
, 											{
												"box" : 												{
													"maxclass" : "newobj",
													"text" : "*~ 50.",
													"patching_rect" : [ 100.0, 270.0, 39.245754, 17.0 ],
													"numinlets" : 2,
													"fontname" : "Arial",
													"id" : "obj-19",
													"numoutlets" : 1,
													"outlettype" : [ "signal" ],
													"fontsize" : 9.0
												}

											}
, 											{
												"box" : 												{
													"maxclass" : "newobj",
													"text" : "+~",
													"patching_rect" : [ 20.0, 300.0, 32.0, 17.0 ],
													"numinlets" : 2,
													"fontname" : "Arial",
													"id" : "obj-20",
													"numoutlets" : 1,
													"outlettype" : [ "signal" ],
													"fontsize" : 9.0
												}

											}
, 											{
												"box" : 												{
													"maxclass" : "newobj",
													"text" : "*~",
													"patching_rect" : [ 20.0, 370.0, 31.0, 17.0 ],
													"numinlets" : 2,
													"fontname" : "Arial",
													"id" : "obj-21",
													"numoutlets" : 1,
													"outlettype" : [ "signal" ],
													"fontsize" : 9.0
												}

											}
, 											{
												"box" : 												{
													"maxclass" : "newobj",
													"text" : "sah~ 0.",
													"patching_rect" : [ 20.0, 240.0, 46.0, 17.0 ],
													"numinlets" : 2,
													"fontname" : "Arial",
													"id" : "obj-22",
													"numoutlets" : 1,
													"outlettype" : [ "signal" ],
													"fontsize" : 9.0
												}

											}
 ],
										"lines" : [ 											{
												"patchline" : 												{
													"source" : [ "obj-16", 0 ],
													"destination" : [ "obj-21", 0 ],
													"hidden" : 0,
													"midpoints" : [  ]
												}

											}
, 											{
												"patchline" : 												{
													"source" : [ "obj-45", 0 ],
													"destination" : [ "obj-16", 0 ],
													"hidden" : 0,
													"midpoints" : [  ]
												}

											}
, 											{
												"patchline" : 												{
													"source" : [ "obj-17", 0 ],
													"destination" : [ "obj-21", 1 ],
													"hidden" : 0,
													"midpoints" : [ 169.5, 362.0, 41.5, 362.0 ]
												}

											}
, 											{
												"patchline" : 												{
													"source" : [ "obj-17", 0 ],
													"destination" : [ "obj-22", 1 ],
													"hidden" : 0,
													"midpoints" : [ 169.5, 233.700989, 56.5, 233.700989 ]
												}

											}
, 											{
												"patchline" : 												{
													"source" : [ "obj-18", 0 ],
													"destination" : [ "obj-17", 0 ],
													"hidden" : 0,
													"midpoints" : [ 109.5, 203.0, 169.5, 203.0 ]
												}

											}
, 											{
												"patchline" : 												{
													"source" : [ "obj-17", 0 ],
													"destination" : [ "obj-9", 1 ],
													"hidden" : 0,
													"midpoints" : [ 169.5, 233.0, 150.5, 233.0 ]
												}

											}
, 											{
												"patchline" : 												{
													"source" : [ "obj-9", 0 ],
													"destination" : [ "obj-19", 1 ],
													"hidden" : 0,
													"midpoints" : [  ]
												}

											}
, 											{
												"patchline" : 												{
													"source" : [ "obj-74", 0 ],
													"destination" : [ "obj-9", 0 ],
													"hidden" : 0,
													"midpoints" : [  ]
												}

											}
, 											{
												"patchline" : 												{
													"source" : [ "obj-19", 0 ],
													"destination" : [ "obj-20", 1 ],
													"hidden" : 0,
													"midpoints" : [ 109.5, 293.0, 42.5, 293.0 ]
												}

											}
, 											{
												"patchline" : 												{
													"source" : [ "obj-73", 0 ],
													"destination" : [ "obj-18", 0 ],
													"hidden" : 0,
													"midpoints" : [  ]
												}

											}
, 											{
												"patchline" : 												{
													"source" : [ "obj-76", 0 ],
													"destination" : [ "obj-82", 0 ],
													"hidden" : 0,
													"midpoints" : [ 149.5, 114.360374, 109.5, 114.360374 ]
												}

											}
, 											{
												"patchline" : 												{
													"source" : [ "obj-3", 0 ],
													"destination" : [ "obj-74", 0 ],
													"hidden" : 0,
													"midpoints" : [ 109.5, 115.633224, 88.453461, 115.633224, 88.453461, 203.392105, 116.0, 203.392105, 116.0, 203.196045, 129.5, 203.196045 ]
												}

											}
, 											{
												"patchline" : 												{
													"source" : [ "obj-7", 0 ],
													"destination" : [ "obj-64", 0 ],
													"hidden" : 0,
													"midpoints" : [  ]
												}

											}
, 											{
												"patchline" : 												{
													"source" : [ "obj-59", 0 ],
													"destination" : [ "obj-22", 0 ],
													"hidden" : 0,
													"midpoints" : [  ]
												}

											}
, 											{
												"patchline" : 												{
													"source" : [ "obj-4", 0 ],
													"destination" : [ "obj-59", 0 ],
													"hidden" : 0,
													"midpoints" : [  ]
												}

											}
, 											{
												"patchline" : 												{
													"source" : [ "obj-3", 0 ],
													"destination" : [ "obj-82", 0 ],
													"hidden" : 0,
													"midpoints" : [  ]
												}

											}
, 											{
												"patchline" : 												{
													"source" : [ "obj-2", 0 ],
													"destination" : [ "obj-76", 0 ],
													"hidden" : 0,
													"midpoints" : [  ]
												}

											}
, 											{
												"patchline" : 												{
													"source" : [ "obj-21", 0 ],
													"destination" : [ "obj-1", 0 ],
													"hidden" : 0,
													"midpoints" : [  ]
												}

											}
, 											{
												"patchline" : 												{
													"source" : [ "obj-82", 0 ],
													"destination" : [ "obj-73", 0 ],
													"hidden" : 0,
													"midpoints" : [  ]
												}

											}
, 											{
												"patchline" : 												{
													"source" : [ "obj-22", 0 ],
													"destination" : [ "obj-20", 0 ],
													"hidden" : 0,
													"midpoints" : [ 29.5, 301.0, 29.5, 301.0 ]
												}

											}
, 											{
												"patchline" : 												{
													"source" : [ "obj-76", 1 ],
													"destination" : [ "obj-82", 1 ],
													"hidden" : 0,
													"midpoints" : [  ]
												}

											}
, 											{
												"patchline" : 												{
													"source" : [ "obj-18", 0 ],
													"destination" : [ "obj-19", 0 ],
													"hidden" : 0,
													"midpoints" : [  ]
												}

											}
, 											{
												"patchline" : 												{
													"source" : [ "obj-20", 0 ],
													"destination" : [ "obj-45", 0 ],
													"hidden" : 0,
													"midpoints" : [  ]
												}

											}
, 											{
												"patchline" : 												{
													"source" : [ "obj-64", 0 ],
													"destination" : [ "obj-45", 1 ],
													"hidden" : 0,
													"midpoints" : [  ]
												}

											}
 ]
									}
,
									"saved_object_attributes" : 									{
										"fontname" : "Arial",
										"default_fontface" : 0,
										"globalpatchername" : "",
										"fontface" : 0,
										"fontsize" : 9.0,
										"default_fontname" : "Arial",
										"default_fontsize" : 9.0
									}

								}

							}
, 							{
								"box" : 								{
									"maxclass" : "comment",
									"text" : "The windowing function on the sound grains is read by the phasor~ in a wave object, this allows you to load in different windows to the 'wndw' buffer",
									"linecount" : 4,
									"patching_rect" : [ 360.0, 150.0, 197.0, 48.0 ],
									"numinlets" : 1,
									"fontname" : "Arial",
									"id" : "obj-66",
									"numoutlets" : 0,
									"fontsize" : 9.0
								}

							}
, 							{
								"box" : 								{
									"maxclass" : "comment",
									"text" : "dgrain~ v2",
									"patching_rect" : [ 360.0, 30.0, 105.0, 23.0 ],
									"numinlets" : 1,
									"fontname" : "Arial",
									"id" : "obj-65",
									"numoutlets" : 0,
									"fontface" : 3,
									"fontsize" : 14.0
								}

							}
, 							{
								"box" : 								{
									"maxclass" : "comment",
									"text" : "It works by assigning a grain position, random amount, a grain size and pitch all in \"ms\".\n\nOnce this has been calculated the positions are then mapped to between 0. and 1. to be read by the wave object by dividing by the sound length",
									"linecount" : 7,
									"patching_rect" : [ 360.0, 60.0, 196.0, 79.0 ],
									"numinlets" : 1,
									"fontname" : "Arial",
									"id" : "obj-61",
									"numoutlets" : 0,
									"fontsize" : 9.0
								}

							}
 ],
						"lines" : [ 							{
								"patchline" : 								{
									"source" : [ "obj-80", 1 ],
									"destination" : [ "obj-42", 0 ],
									"hidden" : 0,
									"midpoints" : [ 244.5, 114.0, 324.5, 114.0 ]
								}

							}
, 							{
								"patchline" : 								{
									"source" : [ "obj-44", 0 ],
									"destination" : [ "obj-80", 0 ],
									"hidden" : 0,
									"midpoints" : [  ]
								}

							}
, 							{
								"patchline" : 								{
									"source" : [ "obj-80", 1 ],
									"destination" : [ "obj-78", 0 ],
									"hidden" : 0,
									"midpoints" : [  ]
								}

							}
, 							{
								"patchline" : 								{
									"source" : [ "obj-78", 6 ],
									"destination" : [ "obj-77", 1 ],
									"hidden" : 0,
									"midpoints" : [ 315.5, 147.0, 50.5, 147.0 ]
								}

							}
, 							{
								"patchline" : 								{
									"source" : [ "obj-78", 6 ],
									"destination" : [ "obj-2", 1 ],
									"hidden" : 0,
									"midpoints" : [ 315.5, 210.0, 69.333336, 210.0 ]
								}

							}
, 							{
								"patchline" : 								{
									"source" : [ "obj-78", 6 ],
									"destination" : [ "obj-9", 0 ],
									"hidden" : 0,
									"midpoints" : [ 315.5, 175.0, 234.5, 175.0 ]
								}

							}
, 							{
								"patchline" : 								{
									"source" : [ "obj-63", 0 ],
									"destination" : [ "obj-34", 0 ],
									"hidden" : 0,
									"midpoints" : [  ]
								}

							}
, 							{
								"patchline" : 								{
									"source" : [ "obj-7", 0 ],
									"destination" : [ "obj-77", 0 ],
									"hidden" : 0,
									"midpoints" : [  ]
								}

							}
, 							{
								"patchline" : 								{
									"source" : [ "obj-69", 0 ],
									"destination" : [ "obj-7", 0 ],
									"hidden" : 0,
									"midpoints" : [  ]
								}

							}
, 							{
								"patchline" : 								{
									"source" : [ "obj-95", 0 ],
									"destination" : [ "obj-157", 0 ],
									"hidden" : 0,
									"midpoints" : [ 99.5, 210.0, 264.5, 210.0 ]
								}

							}
, 							{
								"patchline" : 								{
									"source" : [ "obj-94", 0 ],
									"destination" : [ "obj-156", 0 ],
									"hidden" : 0,
									"midpoints" : [ 129.5, 210.0, 294.5, 210.0 ]
								}

							}
, 							{
								"patchline" : 								{
									"source" : [ "obj-87", 0 ],
									"destination" : [ "obj-154", 0 ],
									"hidden" : 0,
									"midpoints" : [ 39.5, 210.0, 234.5, 210.0 ]
								}

							}
, 							{
								"patchline" : 								{
									"source" : [ "obj-94", 0 ],
									"destination" : [ "obj-2", 3 ],
									"hidden" : 0,
									"midpoints" : [  ]
								}

							}
, 							{
								"patchline" : 								{
									"source" : [ "obj-95", 0 ],
									"destination" : [ "obj-2", 2 ],
									"hidden" : 0,
									"midpoints" : [  ]
								}

							}
, 							{
								"patchline" : 								{
									"source" : [ "obj-87", 0 ],
									"destination" : [ "obj-2", 0 ],
									"hidden" : 0,
									"midpoints" : [  ]
								}

							}
, 							{
								"patchline" : 								{
									"source" : [ "obj-77", 0 ],
									"destination" : [ "obj-87", 0 ],
									"hidden" : 0,
									"midpoints" : [  ]
								}

							}
, 							{
								"patchline" : 								{
									"source" : [ "obj-70", 0 ],
									"destination" : [ "obj-94", 0 ],
									"hidden" : 0,
									"midpoints" : [  ]
								}

							}
, 							{
								"patchline" : 								{
									"source" : [ "obj-62", 0 ],
									"destination" : [ "obj-70", 0 ],
									"hidden" : 0,
									"midpoints" : [  ]
								}

							}
, 							{
								"patchline" : 								{
									"source" : [ "obj-42", 0 ],
									"destination" : [ "obj-36", 0 ],
									"hidden" : 0,
									"midpoints" : [  ]
								}

							}
, 							{
								"patchline" : 								{
									"source" : [ "obj-34", 0 ],
									"destination" : [ "obj-95", 0 ],
									"hidden" : 0,
									"midpoints" : [  ]
								}

							}
, 							{
								"patchline" : 								{
									"source" : [ "obj-2", 0 ],
									"destination" : [ "obj-178", 0 ],
									"hidden" : 0,
									"midpoints" : [  ]
								}

							}
 ]
					}
,
					"saved_object_attributes" : 					{
						"fontname" : "Arial",
						"default_fontface" : 0,
						"globalpatchername" : "",
						"fontface" : 0,
						"fontsize" : 9.0,
						"default_fontname" : "Arial",
						"default_fontsize" : 9.0
					}

				}

			}
, 			{
				"box" : 				{
					"maxclass" : "multislider",
					"patching_rect" : [ 15.0, 195.0, 185.0, 65.0 ],
					"presentation" : 1,
					"numinlets" : 1,
					"id" : "obj-3",
					"numoutlets" : 2,
					"outlettype" : [ "", "" ],
					"presentation_rect" : [ 0.0, 195.0, 185.0, 73.0 ],
					"setminmax" : [ 0.0, 127.0 ],
					"size" : 16,
					"setstyle" : 1
				}

			}
, 			{
				"box" : 				{
					"maxclass" : "multislider",
					"patching_rect" : [ 15.0, 120.0, 185.0, 65.0 ],
					"presentation" : 1,
					"numinlets" : 1,
					"id" : "obj-2",
					"numoutlets" : 2,
					"outlettype" : [ "", "" ],
					"presentation_rect" : [ 0.0, 120.0, 185.0, 73.0 ],
					"setminmax" : [ 0.0, 127.0 ],
					"size" : 16,
					"setstyle" : 1
				}

			}
, 			{
				"box" : 				{
					"maxclass" : "multislider",
					"patching_rect" : [ 15.0, 45.0, 185.0, 65.0 ],
					"presentation" : 1,
					"numinlets" : 1,
					"id" : "obj-1",
					"numoutlets" : 2,
					"outlettype" : [ "", "" ],
					"presentation_rect" : [ 0.0, 45.0, 185.0, 73.0 ],
					"setminmax" : [ 0.0, 127.0 ],
					"size" : 16,
					"setstyle" : 1
				}

			}
, 			{
				"box" : 				{
					"maxclass" : "waveform~",
					"patching_rect" : [ 225.0, 210.0, 256.0, 64.0 ],
					"textcolor" : [  ],
					"numinlets" : 5,
					"id" : "obj-106",
					"numoutlets" : 6,
					"outlettype" : [ "float", "float", "float", "float", "list", "" ],
					"buffername" : "wndw"
				}

			}
, 			{
				"box" : 				{
					"maxclass" : "message",
					"text" : "set wndw2",
					"patching_rect" : [ 225.0, 180.0, 53.0, 15.0 ],
					"numinlets" : 2,
					"fontname" : "Arial",
					"id" : "obj-105",
					"numoutlets" : 1,
					"outlettype" : [ "" ],
					"fontsize" : 9.0
				}

			}
, 			{
				"box" : 				{
					"maxclass" : "newobj",
					"text" : "buffer~ wndw2 sine.aif",
					"patching_rect" : [ 225.0, 150.0, 100.0, 17.0 ],
					"numinlets" : 1,
					"fontname" : "Arial",
					"id" : "obj-80",
					"numoutlets" : 2,
					"outlettype" : [ "float", "bang" ],
					"fontsize" : 9.0
				}

			}
 ],
		"lines" : [ 			{
				"patchline" : 				{
					"source" : [ "obj-80", 1 ],
					"destination" : [ "obj-105", 0 ],
					"hidden" : 0,
					"midpoints" : [ 315.5, 173.0, 234.5, 173.0 ]
				}

			}
, 			{
				"patchline" : 				{
					"source" : [ "obj-11", 0 ],
					"destination" : [ "obj-80", 0 ],
					"hidden" : 0,
					"midpoints" : [  ]
				}

			}
, 			{
				"patchline" : 				{
					"source" : [ "obj-105", 0 ],
					"destination" : [ "obj-106", 0 ],
					"hidden" : 0,
					"midpoints" : [  ]
				}

			}
, 			{
				"patchline" : 				{
					"source" : [ "obj-24", 0 ],
					"destination" : [ "obj-35", 3 ],
					"hidden" : 0,
					"midpoints" : [  ]
				}

			}
, 			{
				"patchline" : 				{
					"source" : [ "obj-1", 1 ],
					"destination" : [ "obj-35", 0 ],
					"hidden" : 0,
					"midpoints" : [ 190.5, 111.0, 210.0, 111.0, 210.0, 270.0, 24.5, 270.0 ]
				}

			}
, 			{
				"patchline" : 				{
					"source" : [ "obj-2", 1 ],
					"destination" : [ "obj-35", 1 ],
					"hidden" : 0,
					"midpoints" : [ 190.5, 186.0, 210.0, 186.0, 210.0, 270.0, 49.333332, 270.0 ]
				}

			}
, 			{
				"patchline" : 				{
					"source" : [ "obj-3", 1 ],
					"destination" : [ "obj-35", 2 ],
					"hidden" : 0,
					"midpoints" : [ 190.5, 270.0, 74.166664, 270.0 ]
				}

			}
, 			{
				"patchline" : 				{
					"source" : [ "obj-35", 1 ],
					"destination" : [ "obj-28", 0 ],
					"hidden" : 0,
					"midpoints" : [ 43.125, 345.0, 75.0, 345.0, 75.0, 372.0, 69.5, 372.0 ]
				}

			}
, 			{
				"patchline" : 				{
					"source" : [ "obj-35", 2 ],
					"destination" : [ "obj-29", 0 ],
					"hidden" : 0,
					"midpoints" : [ 61.75, 345.0, 135.0, 345.0, 135.0, 372.0, 129.5, 372.0 ]
				}

			}
, 			{
				"patchline" : 				{
					"source" : [ "obj-35", 3 ],
					"destination" : [ "obj-30", 0 ],
					"hidden" : 0,
					"midpoints" : [ 80.375, 345.0, 195.0, 345.0, 195.0, 372.0, 189.5, 372.0 ]
				}

			}
, 			{
				"patchline" : 				{
					"source" : [ "obj-35", 4 ],
					"destination" : [ "obj-33", 0 ],
					"hidden" : 0,
					"midpoints" : [ 99.0, 345.0, 249.5, 345.0 ]
				}

			}
, 			{
				"patchline" : 				{
					"source" : [ "obj-13", 0 ],
					"destination" : [ "obj-1", 0 ],
					"hidden" : 0,
					"midpoints" : [  ]
				}

			}
, 			{
				"patchline" : 				{
					"source" : [ "obj-13", 0 ],
					"destination" : [ "obj-2", 0 ],
					"hidden" : 0,
					"midpoints" : [  ]
				}

			}
, 			{
				"patchline" : 				{
					"source" : [ "obj-13", 0 ],
					"destination" : [ "obj-3", 0 ],
					"hidden" : 0,
					"midpoints" : [  ]
				}

			}
, 			{
				"patchline" : 				{
					"source" : [ "obj-35", 0 ],
					"destination" : [ "obj-14", 0 ],
					"hidden" : 0,
					"midpoints" : [  ]
				}

			}
 ]
	}

}
