{
	"patcher" : 	{
		"fileversion" : 1,
		"rect" : [ 49.0, 44.0, 1231.0, 730.0 ],
		"bgcolor" : [ 0.258824, 0.258824, 0.258824, 1.0 ],
		"bglocked" : 0,
		"defrect" : [ 49.0, 44.0, 1231.0, 730.0 ],
		"openrect" : [ 0.0, 0.0, 0.0, 0.0 ],
		"openinpresentation" : 1,
		"default_fontsize" : 9.0,
		"default_fontface" : 0,
		"default_fontname" : "Arial",
		"gridonopen" : 0,
		"gridsize" : [ 15.0, 15.0 ],
		"gridsnaponopen" : 0,
		"toolbarvisible" : 1,
		"boxanimatetime" : 200,
		"imprint" : 0,
		"metadata" : [  ],
		"boxes" : [ 			{
				"box" : 				{
					"maxclass" : "flonum",
					"id" : "obj-110",
					"fontname" : "Arial",
					"patching_rect" : [ 180.0, 390.0, 42.0, 17.0 ],
					"numinlets" : 1,
					"fontsize" : 9.0,
					"numoutlets" : 2,
					"outlettype" : [ "float", "bang" ]
				}

			}
, 			{
				"box" : 				{
					"maxclass" : "comment",
					"text" : "dB",
					"id" : "obj-109",
					"fontname" : "Arial",
					"patching_rect" : [ 225.0, 390.0, 20.0, 17.0 ],
					"numinlets" : 1,
					"fontsize" : 9.0,
					"numoutlets" : 0
				}

			}
, 			{
				"box" : 				{
					"maxclass" : "toggle",
					"id" : "obj-108",
					"patching_rect" : [ 90.0, 30.0, 20.0, 20.0 ],
					"numinlets" : 1,
					"numoutlets" : 1,
					"outlettype" : [ "int" ]
				}

			}
, 			{
				"box" : 				{
					"maxclass" : "comment",
					"text" : "Thresh",
					"id" : "obj-99",
					"fontname" : "Arial",
					"patching_rect" : [ 540.0, 315.0, 38.0, 17.0 ],
					"numinlets" : 1,
					"fontsize" : 9.0,
					"numoutlets" : 0
				}

			}
, 			{
				"box" : 				{
					"maxclass" : "comment",
					"text" : "Gain",
					"id" : "obj-100",
					"fontname" : "Arial",
					"patching_rect" : [ 495.0, 315.0, 30.0, 17.0 ],
					"numinlets" : 1,
					"fontsize" : 9.0,
					"numoutlets" : 0
				}

			}
, 			{
				"box" : 				{
					"maxclass" : "meter~",
					"id" : "obj-101",
					"patching_rect" : [ 495.0, 285.0, 80.0, 13.0 ],
					"numinlets" : 1,
					"numoutlets" : 1,
					"outlettype" : [ "float" ]
				}

			}
, 			{
				"box" : 				{
					"maxclass" : "flonum",
					"id" : "obj-102",
					"fontname" : "Arial",
					"maximum" : 0.0,
					"patching_rect" : [ 540.0, 330.0, 42.0, 17.0 ],
					"numinlets" : 1,
					"fontsize" : 9.0,
					"numoutlets" : 2,
					"outlettype" : [ "float", "bang" ]
				}

			}
, 			{
				"box" : 				{
					"maxclass" : "flonum",
					"id" : "obj-103",
					"fontname" : "Arial",
					"patching_rect" : [ 495.0, 330.0, 42.0, 17.0 ],
					"numinlets" : 1,
					"fontsize" : 9.0,
					"numoutlets" : 2,
					"outlettype" : [ "float", "bang" ]
				}

			}
, 			{
				"box" : 				{
					"maxclass" : "flonum",
					"id" : "obj-104",
					"fontname" : "Arial",
					"patching_rect" : [ 540.0, 390.0, 50.0, 17.0 ],
					"numinlets" : 1,
					"fontsize" : 9.0,
					"numoutlets" : 2,
					"outlettype" : [ "float", "bang" ]
				}

			}
, 			{
				"box" : 				{
					"maxclass" : "button",
					"id" : "obj-105",
					"patching_rect" : [ 450.0, 390.0, 20.0, 20.0 ],
					"numinlets" : 1,
					"numoutlets" : 1,
					"outlettype" : [ "bang" ]
				}

			}
, 			{
				"box" : 				{
					"maxclass" : "newobj",
					"text" : "p audioEvent",
					"id" : "obj-106",
					"fontname" : "Arial",
					"patching_rect" : [ 450.0, 360.0, 109.0, 18.0 ],
					"numinlets" : 3,
					"fontsize" : 10.0,
					"numoutlets" : 2,
					"outlettype" : [ "bang", "float" ],
					"patcher" : 					{
						"fileversion" : 1,
						"rect" : [ 640.0, 196.0, 640.0, 480.0 ],
						"bglocked" : 0,
						"defrect" : [ 640.0, 196.0, 640.0, 480.0 ],
						"openrect" : [ 0.0, 0.0, 0.0, 0.0 ],
						"openinpresentation" : 0,
						"default_fontsize" : 10.0,
						"default_fontface" : 0,
						"default_fontname" : "Arial",
						"gridonopen" : 0,
						"gridsize" : [ 15.0, 15.0 ],
						"gridsnaponopen" : 0,
						"toolbarvisible" : 1,
						"boxanimatetime" : 200,
						"imprint" : 0,
						"metadata" : [  ],
						"boxes" : [ 							{
								"box" : 								{
									"maxclass" : "newobj",
									"text" : "sel 1",
									"id" : "obj-15",
									"fontname" : "Arial",
									"patching_rect" : [ 90.0, 285.0, 32.5, 18.0 ],
									"numinlets" : 2,
									"fontsize" : 10.0,
									"numoutlets" : 2,
									"outlettype" : [ "bang", "" ]
								}

							}
, 							{
								"box" : 								{
									"maxclass" : "comment",
									"text" : "dB",
									"id" : "obj-13",
									"fontname" : "Arial",
									"patching_rect" : [ 135.0, 345.0, 25.0, 18.0 ],
									"numinlets" : 1,
									"fontsize" : 10.0,
									"numoutlets" : 0
								}

							}
, 							{
								"box" : 								{
									"maxclass" : "comment",
									"text" : "Bang",
									"id" : "obj-8",
									"fontname" : "Arial",
									"patching_rect" : [ 90.0, 345.0, 32.0, 18.0 ],
									"numinlets" : 1,
									"fontsize" : 10.0,
									"numoutlets" : 0
								}

							}
, 							{
								"box" : 								{
									"maxclass" : "inlet",
									"id" : "obj-6",
									"patching_rect" : [ 210.0, 15.0, 25.0, 25.0 ],
									"numinlets" : 0,
									"numoutlets" : 1,
									"outlettype" : [ "float" ],
									"comment" : ""
								}

							}
, 							{
								"box" : 								{
									"maxclass" : "inlet",
									"id" : "obj-5",
									"patching_rect" : [ 180.0, 15.0, 25.0, 25.0 ],
									"numinlets" : 0,
									"numoutlets" : 1,
									"outlettype" : [ "float" ],
									"comment" : ""
								}

							}
, 							{
								"box" : 								{
									"maxclass" : "outlet",
									"id" : "obj-4",
									"patching_rect" : [ 135.0, 315.0, 25.0, 25.0 ],
									"numinlets" : 1,
									"numoutlets" : 0,
									"comment" : ""
								}

							}
, 							{
								"box" : 								{
									"maxclass" : "outlet",
									"id" : "obj-3",
									"patching_rect" : [ 90.0, 315.0, 25.0, 25.0 ],
									"numinlets" : 1,
									"numoutlets" : 0,
									"comment" : ""
								}

							}
, 							{
								"box" : 								{
									"maxclass" : "inlet",
									"id" : "obj-2",
									"patching_rect" : [ 90.0, 15.0, 25.0, 25.0 ],
									"numinlets" : 0,
									"numoutlets" : 1,
									"outlettype" : [ "signal" ],
									"comment" : ""
								}

							}
, 							{
								"box" : 								{
									"maxclass" : "comment",
									"text" : "Amplitude",
									"id" : "obj-34",
									"fontname" : "Arial",
									"patching_rect" : [ 15.0, 180.0, 57.0, 17.0 ],
									"numinlets" : 1,
									"fontsize" : 9.0,
									"numoutlets" : 0
								}

							}
, 							{
								"box" : 								{
									"maxclass" : "comment",
									"text" : "Max Amplitude",
									"id" : "obj-32",
									"fontname" : "Arial",
									"patching_rect" : [ 15.0, 45.0, 68.0, 17.0 ],
									"numinlets" : 1,
									"fontsize" : 9.0,
									"numoutlets" : 0
								}

							}
, 							{
								"box" : 								{
									"maxclass" : "comment",
									"text" : "Convert to dB",
									"id" : "obj-30",
									"fontname" : "Arial",
									"patching_rect" : [ 15.0, 75.0, 67.0, 17.0 ],
									"numinlets" : 1,
									"fontsize" : 9.0,
									"numoutlets" : 0
								}

							}
, 							{
								"box" : 								{
									"maxclass" : "flonum",
									"id" : "obj-28",
									"fontname" : "Arial",
									"patching_rect" : [ 90.0, 180.0, 47.0, 17.0 ],
									"numinlets" : 1,
									"fontsize" : 9.0,
									"numoutlets" : 2,
									"outlettype" : [ "float", "bang" ]
								}

							}
, 							{
								"box" : 								{
									"maxclass" : "comment",
									"text" : "Threshold",
									"id" : "obj-22",
									"fontname" : "Arial",
									"patching_rect" : [ 165.0, 225.0, 52.0, 17.0 ],
									"numinlets" : 1,
									"fontsize" : 9.0,
									"numoutlets" : 0
								}

							}
, 							{
								"box" : 								{
									"maxclass" : "flonum",
									"id" : "obj-20",
									"fontname" : "Arial",
									"maximum" : 0.0,
									"patching_rect" : [ 105.0, 225.0, 48.0, 17.0 ],
									"numinlets" : 1,
									"fontsize" : 9.0,
									"numoutlets" : 2,
									"outlettype" : [ "float", "bang" ]
								}

							}
, 							{
								"box" : 								{
									"maxclass" : "newobj",
									"text" : ">=",
									"id" : "obj-18",
									"fontname" : "Arial",
									"patching_rect" : [ 90.0, 255.0, 34.0, 17.0 ],
									"numinlets" : 2,
									"fontsize" : 9.0,
									"numoutlets" : 1,
									"outlettype" : [ "int" ]
								}

							}
, 							{
								"box" : 								{
									"maxclass" : "comment",
									"text" : "Gain",
									"id" : "obj-14",
									"fontname" : "Arial",
									"patching_rect" : [ 165.0, 120.0, 32.0, 17.0 ],
									"numinlets" : 1,
									"fontsize" : 9.0,
									"numoutlets" : 0
								}

							}
, 							{
								"box" : 								{
									"maxclass" : "flonum",
									"id" : "obj-12",
									"fontname" : "Arial",
									"patching_rect" : [ 105.0, 120.0, 48.0, 17.0 ],
									"numinlets" : 1,
									"fontsize" : 9.0,
									"numoutlets" : 2,
									"outlettype" : [ "float", "bang" ]
								}

							}
, 							{
								"box" : 								{
									"maxclass" : "newobj",
									"text" : "+ 0.",
									"id" : "obj-10",
									"fontname" : "Arial",
									"patching_rect" : [ 90.0, 150.0, 34.0, 17.0 ],
									"numinlets" : 2,
									"fontsize" : 9.0,
									"numoutlets" : 1,
									"outlettype" : [ "float" ]
								}

							}
, 							{
								"box" : 								{
									"maxclass" : "newobj",
									"text" : "expr 20.*log10($f1)",
									"id" : "obj-9",
									"fontname" : "Arial",
									"patching_rect" : [ 90.0, 75.0, 87.0, 17.0 ],
									"numinlets" : 1,
									"fontsize" : 9.0,
									"numoutlets" : 1,
									"outlettype" : [ "" ]
								}

							}
, 							{
								"box" : 								{
									"maxclass" : "newobj",
									"text" : "peakamp~ 12",
									"id" : "obj-1",
									"fontname" : "Arial",
									"patching_rect" : [ 90.0, 45.0, 65.0, 17.0 ],
									"numinlets" : 2,
									"fontsize" : 9.0,
									"numoutlets" : 1,
									"outlettype" : [ "float" ]
								}

							}
 ],
						"lines" : [ 							{
								"patchline" : 								{
									"source" : [ "obj-28", 0 ],
									"destination" : [ "obj-18", 0 ],
									"hidden" : 0,
									"midpoints" : [  ]
								}

							}
, 							{
								"patchline" : 								{
									"source" : [ "obj-10", 0 ],
									"destination" : [ "obj-28", 0 ],
									"hidden" : 0,
									"midpoints" : [  ]
								}

							}
, 							{
								"patchline" : 								{
									"source" : [ "obj-20", 0 ],
									"destination" : [ "obj-18", 1 ],
									"hidden" : 0,
									"midpoints" : [  ]
								}

							}
, 							{
								"patchline" : 								{
									"source" : [ "obj-12", 0 ],
									"destination" : [ "obj-10", 1 ],
									"hidden" : 0,
									"midpoints" : [  ]
								}

							}
, 							{
								"patchline" : 								{
									"source" : [ "obj-9", 0 ],
									"destination" : [ "obj-10", 0 ],
									"hidden" : 0,
									"midpoints" : [  ]
								}

							}
, 							{
								"patchline" : 								{
									"source" : [ "obj-1", 0 ],
									"destination" : [ "obj-9", 0 ],
									"hidden" : 0,
									"midpoints" : [  ]
								}

							}
, 							{
								"patchline" : 								{
									"source" : [ "obj-28", 0 ],
									"destination" : [ "obj-4", 0 ],
									"hidden" : 0,
									"midpoints" : [ 99.5, 249.0, 144.5, 249.0 ]
								}

							}
, 							{
								"patchline" : 								{
									"source" : [ "obj-5", 0 ],
									"destination" : [ "obj-12", 0 ],
									"hidden" : 0,
									"midpoints" : [ 189.5, 60.0, 189.0, 60.0, 189.0, 105.0, 114.5, 105.0 ]
								}

							}
, 							{
								"patchline" : 								{
									"source" : [ "obj-6", 0 ],
									"destination" : [ "obj-20", 0 ],
									"hidden" : 0,
									"midpoints" : [ 219.5, 210.0, 114.5, 210.0 ]
								}

							}
, 							{
								"patchline" : 								{
									"source" : [ "obj-2", 0 ],
									"destination" : [ "obj-1", 0 ],
									"hidden" : 0,
									"midpoints" : [  ]
								}

							}
, 							{
								"patchline" : 								{
									"source" : [ "obj-18", 0 ],
									"destination" : [ "obj-15", 0 ],
									"hidden" : 0,
									"midpoints" : [  ]
								}

							}
, 							{
								"patchline" : 								{
									"source" : [ "obj-15", 0 ],
									"destination" : [ "obj-3", 0 ],
									"hidden" : 0,
									"midpoints" : [  ]
								}

							}
 ]
					}
,
					"saved_object_attributes" : 					{
						"fontname" : "Arial",
						"default_fontsize" : 10.0,
						"globalpatchername" : "",
						"fontface" : 0,
						"fontsize" : 10.0,
						"default_fontface" : 0,
						"default_fontname" : "Arial"
					}

				}

			}
, 			{
				"box" : 				{
					"maxclass" : "comment",
					"text" : "Thresh",
					"id" : "obj-91",
					"fontname" : "Arial",
					"patching_rect" : [ 360.0, 315.0, 38.0, 17.0 ],
					"numinlets" : 1,
					"fontsize" : 9.0,
					"numoutlets" : 0
				}

			}
, 			{
				"box" : 				{
					"maxclass" : "comment",
					"text" : "Gain",
					"id" : "obj-92",
					"fontname" : "Arial",
					"patching_rect" : [ 315.0, 315.0, 30.0, 17.0 ],
					"numinlets" : 1,
					"fontsize" : 9.0,
					"numoutlets" : 0
				}

			}
, 			{
				"box" : 				{
					"maxclass" : "meter~",
					"id" : "obj-93",
					"patching_rect" : [ 315.0, 285.0, 80.0, 13.0 ],
					"numinlets" : 1,
					"numoutlets" : 1,
					"outlettype" : [ "float" ]
				}

			}
, 			{
				"box" : 				{
					"maxclass" : "flonum",
					"id" : "obj-94",
					"fontname" : "Arial",
					"maximum" : 0.0,
					"patching_rect" : [ 360.0, 330.0, 42.0, 17.0 ],
					"numinlets" : 1,
					"fontsize" : 9.0,
					"numoutlets" : 2,
					"outlettype" : [ "float", "bang" ]
				}

			}
, 			{
				"box" : 				{
					"maxclass" : "flonum",
					"id" : "obj-95",
					"fontname" : "Arial",
					"patching_rect" : [ 315.0, 330.0, 42.0, 17.0 ],
					"numinlets" : 1,
					"fontsize" : 9.0,
					"numoutlets" : 2,
					"outlettype" : [ "float", "bang" ]
				}

			}
, 			{
				"box" : 				{
					"maxclass" : "flonum",
					"id" : "obj-96",
					"fontname" : "Arial",
					"patching_rect" : [ 360.0, 390.0, 50.0, 17.0 ],
					"numinlets" : 1,
					"fontsize" : 9.0,
					"numoutlets" : 2,
					"outlettype" : [ "float", "bang" ]
				}

			}
, 			{
				"box" : 				{
					"maxclass" : "button",
					"id" : "obj-97",
					"patching_rect" : [ 270.0, 390.0, 20.0, 20.0 ],
					"numinlets" : 1,
					"numoutlets" : 1,
					"outlettype" : [ "bang" ]
				}

			}
, 			{
				"box" : 				{
					"maxclass" : "newobj",
					"text" : "p audioEvent",
					"id" : "obj-98",
					"fontname" : "Arial",
					"patching_rect" : [ 270.0, 360.0, 109.0, 18.0 ],
					"numinlets" : 3,
					"fontsize" : 10.0,
					"numoutlets" : 2,
					"outlettype" : [ "bang", "float" ],
					"patcher" : 					{
						"fileversion" : 1,
						"rect" : [ 640.0, 196.0, 640.0, 480.0 ],
						"bglocked" : 0,
						"defrect" : [ 640.0, 196.0, 640.0, 480.0 ],
						"openrect" : [ 0.0, 0.0, 0.0, 0.0 ],
						"openinpresentation" : 0,
						"default_fontsize" : 10.0,
						"default_fontface" : 0,
						"default_fontname" : "Arial",
						"gridonopen" : 0,
						"gridsize" : [ 15.0, 15.0 ],
						"gridsnaponopen" : 0,
						"toolbarvisible" : 1,
						"boxanimatetime" : 200,
						"imprint" : 0,
						"metadata" : [  ],
						"boxes" : [ 							{
								"box" : 								{
									"maxclass" : "newobj",
									"text" : "sel 1",
									"id" : "obj-15",
									"fontname" : "Arial",
									"patching_rect" : [ 90.0, 285.0, 32.5, 18.0 ],
									"numinlets" : 2,
									"fontsize" : 10.0,
									"numoutlets" : 2,
									"outlettype" : [ "bang", "" ]
								}

							}
, 							{
								"box" : 								{
									"maxclass" : "comment",
									"text" : "dB",
									"id" : "obj-13",
									"fontname" : "Arial",
									"patching_rect" : [ 135.0, 345.0, 25.0, 18.0 ],
									"numinlets" : 1,
									"fontsize" : 10.0,
									"numoutlets" : 0
								}

							}
, 							{
								"box" : 								{
									"maxclass" : "comment",
									"text" : "Bang",
									"id" : "obj-8",
									"fontname" : "Arial",
									"patching_rect" : [ 90.0, 345.0, 32.0, 18.0 ],
									"numinlets" : 1,
									"fontsize" : 10.0,
									"numoutlets" : 0
								}

							}
, 							{
								"box" : 								{
									"maxclass" : "inlet",
									"id" : "obj-6",
									"patching_rect" : [ 210.0, 15.0, 25.0, 25.0 ],
									"numinlets" : 0,
									"numoutlets" : 1,
									"outlettype" : [ "float" ],
									"comment" : ""
								}

							}
, 							{
								"box" : 								{
									"maxclass" : "inlet",
									"id" : "obj-5",
									"patching_rect" : [ 180.0, 15.0, 25.0, 25.0 ],
									"numinlets" : 0,
									"numoutlets" : 1,
									"outlettype" : [ "float" ],
									"comment" : ""
								}

							}
, 							{
								"box" : 								{
									"maxclass" : "outlet",
									"id" : "obj-4",
									"patching_rect" : [ 135.0, 315.0, 25.0, 25.0 ],
									"numinlets" : 1,
									"numoutlets" : 0,
									"comment" : ""
								}

							}
, 							{
								"box" : 								{
									"maxclass" : "outlet",
									"id" : "obj-3",
									"patching_rect" : [ 90.0, 315.0, 25.0, 25.0 ],
									"numinlets" : 1,
									"numoutlets" : 0,
									"comment" : ""
								}

							}
, 							{
								"box" : 								{
									"maxclass" : "inlet",
									"id" : "obj-2",
									"patching_rect" : [ 90.0, 15.0, 25.0, 25.0 ],
									"numinlets" : 0,
									"numoutlets" : 1,
									"outlettype" : [ "signal" ],
									"comment" : ""
								}

							}
, 							{
								"box" : 								{
									"maxclass" : "comment",
									"text" : "Amplitude",
									"id" : "obj-34",
									"fontname" : "Arial",
									"patching_rect" : [ 15.0, 180.0, 57.0, 17.0 ],
									"numinlets" : 1,
									"fontsize" : 9.0,
									"numoutlets" : 0
								}

							}
, 							{
								"box" : 								{
									"maxclass" : "comment",
									"text" : "Max Amplitude",
									"id" : "obj-32",
									"fontname" : "Arial",
									"patching_rect" : [ 15.0, 45.0, 68.0, 17.0 ],
									"numinlets" : 1,
									"fontsize" : 9.0,
									"numoutlets" : 0
								}

							}
, 							{
								"box" : 								{
									"maxclass" : "comment",
									"text" : "Convert to dB",
									"id" : "obj-30",
									"fontname" : "Arial",
									"patching_rect" : [ 15.0, 75.0, 67.0, 17.0 ],
									"numinlets" : 1,
									"fontsize" : 9.0,
									"numoutlets" : 0
								}

							}
, 							{
								"box" : 								{
									"maxclass" : "flonum",
									"id" : "obj-28",
									"fontname" : "Arial",
									"patching_rect" : [ 90.0, 180.0, 47.0, 17.0 ],
									"numinlets" : 1,
									"fontsize" : 9.0,
									"numoutlets" : 2,
									"outlettype" : [ "float", "bang" ]
								}

							}
, 							{
								"box" : 								{
									"maxclass" : "comment",
									"text" : "Threshold",
									"id" : "obj-22",
									"fontname" : "Arial",
									"patching_rect" : [ 165.0, 225.0, 52.0, 17.0 ],
									"numinlets" : 1,
									"fontsize" : 9.0,
									"numoutlets" : 0
								}

							}
, 							{
								"box" : 								{
									"maxclass" : "flonum",
									"id" : "obj-20",
									"fontname" : "Arial",
									"maximum" : 0.0,
									"patching_rect" : [ 105.0, 225.0, 48.0, 17.0 ],
									"numinlets" : 1,
									"fontsize" : 9.0,
									"numoutlets" : 2,
									"outlettype" : [ "float", "bang" ]
								}

							}
, 							{
								"box" : 								{
									"maxclass" : "newobj",
									"text" : ">=",
									"id" : "obj-18",
									"fontname" : "Arial",
									"patching_rect" : [ 90.0, 255.0, 34.0, 17.0 ],
									"numinlets" : 2,
									"fontsize" : 9.0,
									"numoutlets" : 1,
									"outlettype" : [ "int" ]
								}

							}
, 							{
								"box" : 								{
									"maxclass" : "comment",
									"text" : "Gain",
									"id" : "obj-14",
									"fontname" : "Arial",
									"patching_rect" : [ 165.0, 120.0, 32.0, 17.0 ],
									"numinlets" : 1,
									"fontsize" : 9.0,
									"numoutlets" : 0
								}

							}
, 							{
								"box" : 								{
									"maxclass" : "flonum",
									"id" : "obj-12",
									"fontname" : "Arial",
									"patching_rect" : [ 105.0, 120.0, 48.0, 17.0 ],
									"numinlets" : 1,
									"fontsize" : 9.0,
									"numoutlets" : 2,
									"outlettype" : [ "float", "bang" ]
								}

							}
, 							{
								"box" : 								{
									"maxclass" : "newobj",
									"text" : "+ 0.",
									"id" : "obj-10",
									"fontname" : "Arial",
									"patching_rect" : [ 90.0, 150.0, 34.0, 17.0 ],
									"numinlets" : 2,
									"fontsize" : 9.0,
									"numoutlets" : 1,
									"outlettype" : [ "float" ]
								}

							}
, 							{
								"box" : 								{
									"maxclass" : "newobj",
									"text" : "expr 20.*log10($f1)",
									"id" : "obj-9",
									"fontname" : "Arial",
									"patching_rect" : [ 90.0, 75.0, 87.0, 17.0 ],
									"numinlets" : 1,
									"fontsize" : 9.0,
									"numoutlets" : 1,
									"outlettype" : [ "" ]
								}

							}
, 							{
								"box" : 								{
									"maxclass" : "newobj",
									"text" : "peakamp~ 12",
									"id" : "obj-1",
									"fontname" : "Arial",
									"patching_rect" : [ 90.0, 45.0, 65.0, 17.0 ],
									"numinlets" : 2,
									"fontsize" : 9.0,
									"numoutlets" : 1,
									"outlettype" : [ "float" ]
								}

							}
 ],
						"lines" : [ 							{
								"patchline" : 								{
									"source" : [ "obj-28", 0 ],
									"destination" : [ "obj-18", 0 ],
									"hidden" : 0,
									"midpoints" : [  ]
								}

							}
, 							{
								"patchline" : 								{
									"source" : [ "obj-10", 0 ],
									"destination" : [ "obj-28", 0 ],
									"hidden" : 0,
									"midpoints" : [  ]
								}

							}
, 							{
								"patchline" : 								{
									"source" : [ "obj-20", 0 ],
									"destination" : [ "obj-18", 1 ],
									"hidden" : 0,
									"midpoints" : [  ]
								}

							}
, 							{
								"patchline" : 								{
									"source" : [ "obj-12", 0 ],
									"destination" : [ "obj-10", 1 ],
									"hidden" : 0,
									"midpoints" : [  ]
								}

							}
, 							{
								"patchline" : 								{
									"source" : [ "obj-9", 0 ],
									"destination" : [ "obj-10", 0 ],
									"hidden" : 0,
									"midpoints" : [  ]
								}

							}
, 							{
								"patchline" : 								{
									"source" : [ "obj-1", 0 ],
									"destination" : [ "obj-9", 0 ],
									"hidden" : 0,
									"midpoints" : [  ]
								}

							}
, 							{
								"patchline" : 								{
									"source" : [ "obj-28", 0 ],
									"destination" : [ "obj-4", 0 ],
									"hidden" : 0,
									"midpoints" : [ 99.5, 249.0, 144.5, 249.0 ]
								}

							}
, 							{
								"patchline" : 								{
									"source" : [ "obj-5", 0 ],
									"destination" : [ "obj-12", 0 ],
									"hidden" : 0,
									"midpoints" : [ 189.5, 60.0, 189.0, 60.0, 189.0, 105.0, 114.5, 105.0 ]
								}

							}
, 							{
								"patchline" : 								{
									"source" : [ "obj-6", 0 ],
									"destination" : [ "obj-20", 0 ],
									"hidden" : 0,
									"midpoints" : [ 219.5, 210.0, 114.5, 210.0 ]
								}

							}
, 							{
								"patchline" : 								{
									"source" : [ "obj-2", 0 ],
									"destination" : [ "obj-1", 0 ],
									"hidden" : 0,
									"midpoints" : [  ]
								}

							}
, 							{
								"patchline" : 								{
									"source" : [ "obj-18", 0 ],
									"destination" : [ "obj-15", 0 ],
									"hidden" : 0,
									"midpoints" : [  ]
								}

							}
, 							{
								"patchline" : 								{
									"source" : [ "obj-15", 0 ],
									"destination" : [ "obj-3", 0 ],
									"hidden" : 0,
									"midpoints" : [  ]
								}

							}
 ]
					}
,
					"saved_object_attributes" : 					{
						"fontname" : "Arial",
						"default_fontsize" : 10.0,
						"globalpatchername" : "",
						"fontface" : 0,
						"fontsize" : 10.0,
						"default_fontface" : 0,
						"default_fontname" : "Arial"
					}

				}

			}
, 			{
				"box" : 				{
					"maxclass" : "comment",
					"text" : "Thresh",
					"id" : "obj-90",
					"fontname" : "Arial",
					"patching_rect" : [ 180.0, 315.0, 38.0, 17.0 ],
					"numinlets" : 1,
					"fontsize" : 9.0,
					"numoutlets" : 0
				}

			}
, 			{
				"box" : 				{
					"maxclass" : "comment",
					"text" : "Gain",
					"id" : "obj-88",
					"fontname" : "Arial",
					"patching_rect" : [ 135.0, 315.0, 30.0, 17.0 ],
					"numinlets" : 1,
					"fontsize" : 9.0,
					"numoutlets" : 0
				}

			}
, 			{
				"box" : 				{
					"maxclass" : "dial",
					"id" : "obj-86",
					"patching_rect" : [ 450.0, 135.0, 40.0, 40.0 ],
					"numinlets" : 1,
					"numoutlets" : 1,
					"outlettype" : [ "float" ]
				}

			}
, 			{
				"box" : 				{
					"maxclass" : "dial",
					"id" : "obj-85",
					"patching_rect" : [ 270.0, 135.0, 40.0, 40.0 ],
					"numinlets" : 1,
					"numoutlets" : 1,
					"outlettype" : [ "float" ]
				}

			}
, 			{
				"box" : 				{
					"maxclass" : "newobj",
					"text" : "mtof",
					"id" : "obj-81",
					"fontname" : "Arial",
					"patching_rect" : [ 450.0, 180.0, 28.0, 17.0 ],
					"numinlets" : 1,
					"fontsize" : 9.0,
					"numoutlets" : 1,
					"outlettype" : [ "" ]
				}

			}
, 			{
				"box" : 				{
					"maxclass" : "newobj",
					"text" : "mtof",
					"id" : "obj-80",
					"fontname" : "Arial",
					"patching_rect" : [ 270.0, 180.0, 28.0, 17.0 ],
					"numinlets" : 1,
					"fontsize" : 9.0,
					"numoutlets" : 1,
					"outlettype" : [ "" ]
				}

			}
, 			{
				"box" : 				{
					"maxclass" : "gain~",
					"id" : "obj-79",
					"patching_rect" : [ 90.0, 90.0, 20.0, 140.0 ],
					"numinlets" : 2,
					"numoutlets" : 2,
					"outlettype" : [ "signal", "int" ]
				}

			}
, 			{
				"box" : 				{
					"maxclass" : "meter~",
					"id" : "obj-78",
					"patching_rect" : [ 150.0, 195.0, 80.0, 13.0 ],
					"numinlets" : 1,
					"numoutlets" : 1,
					"outlettype" : [ "float" ]
				}

			}
, 			{
				"box" : 				{
					"maxclass" : "meter~",
					"id" : "obj-75",
					"patching_rect" : [ 135.0, 285.0, 80.0, 13.0 ],
					"numinlets" : 1,
					"numoutlets" : 1,
					"outlettype" : [ "float" ]
				}

			}
, 			{
				"box" : 				{
					"maxclass" : "flonum",
					"id" : "obj-74",
					"fontname" : "Arial",
					"patching_rect" : [ 450.0, 210.0, 50.0, 17.0 ],
					"numinlets" : 1,
					"fontsize" : 9.0,
					"numoutlets" : 2,
					"outlettype" : [ "float", "bang" ]
				}

			}
, 			{
				"box" : 				{
					"maxclass" : "flonum",
					"id" : "obj-72",
					"fontname" : "Arial",
					"patching_rect" : [ 270.0, 210.0, 50.0, 17.0 ],
					"numinlets" : 1,
					"fontsize" : 9.0,
					"numoutlets" : 2,
					"outlettype" : [ "float", "bang" ]
				}

			}
, 			{
				"box" : 				{
					"maxclass" : "flonum",
					"id" : "obj-70",
					"fontname" : "Arial",
					"maximum" : 0.0,
					"patching_rect" : [ 180.0, 330.0, 42.0, 17.0 ],
					"numinlets" : 1,
					"fontsize" : 9.0,
					"numoutlets" : 2,
					"outlettype" : [ "float", "bang" ]
				}

			}
, 			{
				"box" : 				{
					"maxclass" : "flonum",
					"id" : "obj-69",
					"fontname" : "Arial",
					"patching_rect" : [ 135.0, 330.0, 42.0, 17.0 ],
					"numinlets" : 1,
					"fontsize" : 9.0,
					"numoutlets" : 2,
					"outlettype" : [ "float", "bang" ]
				}

			}
, 			{
				"box" : 				{
					"maxclass" : "button",
					"id" : "obj-5",
					"patching_rect" : [ 90.0, 390.0, 20.0, 20.0 ],
					"numinlets" : 1,
					"numoutlets" : 1,
					"outlettype" : [ "bang" ]
				}

			}
, 			{
				"box" : 				{
					"maxclass" : "comment",
					"text" : "AUDIO TO BANG",
					"presentation_rect" : [ 15.0, 15.0, 119.0, 20.0 ],
					"id" : "obj-48",
					"fontname" : "Arial",
					"bgcolor" : [ 1.0, 1.0, 1.0, 1.0 ],
					"patching_rect" : [ 660.0, 60.0, 196.0, 20.0 ],
					"presentation" : 1,
					"numinlets" : 1,
					"fontface" : 1,
					"fontsize" : 12.0,
					"numoutlets" : 0
				}

			}
, 			{
				"box" : 				{
					"maxclass" : "newobj",
					"text" : "adc~",
					"id" : "obj-2",
					"fontname" : "Arial",
					"patching_rect" : [ 90.0, 60.0, 32.5, 17.0 ],
					"numinlets" : 1,
					"fontsize" : 9.0,
					"numoutlets" : 2,
					"outlettype" : [ "signal", "signal" ]
				}

			}
, 			{
				"box" : 				{
					"maxclass" : "newobj",
					"text" : "loadmess 100.",
					"id" : "obj-3",
					"fontname" : "Arial",
					"patching_rect" : [ 165.0, 60.0, 69.0, 17.0 ],
					"numinlets" : 1,
					"fontsize" : 9.0,
					"numoutlets" : 1,
					"outlettype" : [ "" ]
				}

			}
, 			{
				"box" : 				{
					"maxclass" : "newobj",
					"text" : "p audioEvent",
					"id" : "obj-60",
					"fontname" : "Arial",
					"patching_rect" : [ 90.0, 360.0, 109.0, 18.0 ],
					"numinlets" : 3,
					"fontsize" : 10.0,
					"numoutlets" : 2,
					"outlettype" : [ "bang", "float" ],
					"patcher" : 					{
						"fileversion" : 1,
						"rect" : [ 640.0, 196.0, 640.0, 480.0 ],
						"bglocked" : 0,
						"defrect" : [ 640.0, 196.0, 640.0, 480.0 ],
						"openrect" : [ 0.0, 0.0, 0.0, 0.0 ],
						"openinpresentation" : 0,
						"default_fontsize" : 10.0,
						"default_fontface" : 0,
						"default_fontname" : "Arial",
						"gridonopen" : 0,
						"gridsize" : [ 15.0, 15.0 ],
						"gridsnaponopen" : 0,
						"toolbarvisible" : 1,
						"boxanimatetime" : 200,
						"imprint" : 0,
						"visible" : 1,
						"metadata" : [  ],
						"boxes" : [ 							{
								"box" : 								{
									"maxclass" : "newobj",
									"text" : "sel 1",
									"id" : "obj-15",
									"fontname" : "Arial",
									"patching_rect" : [ 90.0, 285.0, 32.5, 18.0 ],
									"numinlets" : 2,
									"fontsize" : 10.0,
									"numoutlets" : 2,
									"outlettype" : [ "bang", "" ]
								}

							}
, 							{
								"box" : 								{
									"maxclass" : "comment",
									"text" : "dB",
									"id" : "obj-13",
									"fontname" : "Arial",
									"patching_rect" : [ 135.0, 345.0, 25.0, 18.0 ],
									"numinlets" : 1,
									"fontsize" : 10.0,
									"numoutlets" : 0
								}

							}
, 							{
								"box" : 								{
									"maxclass" : "comment",
									"text" : "Bang",
									"id" : "obj-8",
									"fontname" : "Arial",
									"patching_rect" : [ 90.0, 345.0, 32.0, 18.0 ],
									"numinlets" : 1,
									"fontsize" : 10.0,
									"numoutlets" : 0
								}

							}
, 							{
								"box" : 								{
									"maxclass" : "inlet",
									"id" : "obj-6",
									"patching_rect" : [ 210.0, 15.0, 25.0, 25.0 ],
									"numinlets" : 0,
									"numoutlets" : 1,
									"outlettype" : [ "float" ],
									"comment" : ""
								}

							}
, 							{
								"box" : 								{
									"maxclass" : "inlet",
									"id" : "obj-5",
									"patching_rect" : [ 180.0, 15.0, 25.0, 25.0 ],
									"numinlets" : 0,
									"numoutlets" : 1,
									"outlettype" : [ "float" ],
									"comment" : ""
								}

							}
, 							{
								"box" : 								{
									"maxclass" : "outlet",
									"id" : "obj-4",
									"patching_rect" : [ 135.0, 315.0, 25.0, 25.0 ],
									"numinlets" : 1,
									"numoutlets" : 0,
									"comment" : ""
								}

							}
, 							{
								"box" : 								{
									"maxclass" : "outlet",
									"id" : "obj-3",
									"patching_rect" : [ 90.0, 315.0, 25.0, 25.0 ],
									"numinlets" : 1,
									"numoutlets" : 0,
									"comment" : ""
								}

							}
, 							{
								"box" : 								{
									"maxclass" : "inlet",
									"id" : "obj-2",
									"patching_rect" : [ 90.0, 15.0, 25.0, 25.0 ],
									"numinlets" : 0,
									"numoutlets" : 1,
									"outlettype" : [ "signal" ],
									"comment" : ""
								}

							}
, 							{
								"box" : 								{
									"maxclass" : "comment",
									"text" : "Amplitude",
									"id" : "obj-34",
									"fontname" : "Arial",
									"patching_rect" : [ 15.0, 180.0, 57.0, 17.0 ],
									"numinlets" : 1,
									"fontsize" : 9.0,
									"numoutlets" : 0
								}

							}
, 							{
								"box" : 								{
									"maxclass" : "comment",
									"text" : "Max Amplitude",
									"id" : "obj-32",
									"fontname" : "Arial",
									"patching_rect" : [ 15.0, 45.0, 68.0, 17.0 ],
									"numinlets" : 1,
									"fontsize" : 9.0,
									"numoutlets" : 0
								}

							}
, 							{
								"box" : 								{
									"maxclass" : "comment",
									"text" : "Convert to dB",
									"id" : "obj-30",
									"fontname" : "Arial",
									"patching_rect" : [ 15.0, 75.0, 67.0, 17.0 ],
									"numinlets" : 1,
									"fontsize" : 9.0,
									"numoutlets" : 0
								}

							}
, 							{
								"box" : 								{
									"maxclass" : "flonum",
									"id" : "obj-28",
									"fontname" : "Arial",
									"patching_rect" : [ 90.0, 180.0, 47.0, 17.0 ],
									"numinlets" : 1,
									"fontsize" : 9.0,
									"numoutlets" : 2,
									"outlettype" : [ "float", "bang" ]
								}

							}
, 							{
								"box" : 								{
									"maxclass" : "comment",
									"text" : "Threshold",
									"id" : "obj-22",
									"fontname" : "Arial",
									"patching_rect" : [ 165.0, 225.0, 52.0, 17.0 ],
									"numinlets" : 1,
									"fontsize" : 9.0,
									"numoutlets" : 0
								}

							}
, 							{
								"box" : 								{
									"maxclass" : "flonum",
									"id" : "obj-20",
									"fontname" : "Arial",
									"maximum" : 0.0,
									"patching_rect" : [ 105.0, 225.0, 48.0, 17.0 ],
									"numinlets" : 1,
									"fontsize" : 9.0,
									"numoutlets" : 2,
									"outlettype" : [ "float", "bang" ]
								}

							}
, 							{
								"box" : 								{
									"maxclass" : "newobj",
									"text" : ">=",
									"id" : "obj-18",
									"fontname" : "Arial",
									"patching_rect" : [ 90.0, 255.0, 34.0, 17.0 ],
									"numinlets" : 2,
									"fontsize" : 9.0,
									"numoutlets" : 1,
									"outlettype" : [ "int" ]
								}

							}
, 							{
								"box" : 								{
									"maxclass" : "comment",
									"text" : "Gain",
									"id" : "obj-14",
									"fontname" : "Arial",
									"patching_rect" : [ 165.0, 120.0, 32.0, 17.0 ],
									"numinlets" : 1,
									"fontsize" : 9.0,
									"numoutlets" : 0
								}

							}
, 							{
								"box" : 								{
									"maxclass" : "flonum",
									"id" : "obj-12",
									"fontname" : "Arial",
									"patching_rect" : [ 105.0, 120.0, 48.0, 17.0 ],
									"numinlets" : 1,
									"fontsize" : 9.0,
									"numoutlets" : 2,
									"outlettype" : [ "float", "bang" ]
								}

							}
, 							{
								"box" : 								{
									"maxclass" : "newobj",
									"text" : "+ 0.",
									"id" : "obj-10",
									"fontname" : "Arial",
									"patching_rect" : [ 90.0, 150.0, 34.0, 17.0 ],
									"numinlets" : 2,
									"fontsize" : 9.0,
									"numoutlets" : 1,
									"outlettype" : [ "float" ]
								}

							}
, 							{
								"box" : 								{
									"maxclass" : "newobj",
									"text" : "expr 20.*log10($f1)",
									"id" : "obj-9",
									"fontname" : "Arial",
									"patching_rect" : [ 90.0, 75.0, 87.0, 17.0 ],
									"numinlets" : 1,
									"fontsize" : 9.0,
									"numoutlets" : 1,
									"outlettype" : [ "" ]
								}

							}
, 							{
								"box" : 								{
									"maxclass" : "newobj",
									"text" : "peakamp~ 12",
									"id" : "obj-1",
									"fontname" : "Arial",
									"patching_rect" : [ 90.0, 45.0, 65.0, 17.0 ],
									"numinlets" : 2,
									"fontsize" : 9.0,
									"numoutlets" : 1,
									"outlettype" : [ "float" ]
								}

							}
 ],
						"lines" : [ 							{
								"patchline" : 								{
									"source" : [ "obj-15", 0 ],
									"destination" : [ "obj-3", 0 ],
									"hidden" : 0,
									"midpoints" : [  ]
								}

							}
, 							{
								"patchline" : 								{
									"source" : [ "obj-18", 0 ],
									"destination" : [ "obj-15", 0 ],
									"hidden" : 0,
									"midpoints" : [  ]
								}

							}
, 							{
								"patchline" : 								{
									"source" : [ "obj-2", 0 ],
									"destination" : [ "obj-1", 0 ],
									"hidden" : 0,
									"midpoints" : [  ]
								}

							}
, 							{
								"patchline" : 								{
									"source" : [ "obj-6", 0 ],
									"destination" : [ "obj-20", 0 ],
									"hidden" : 0,
									"midpoints" : [ 219.5, 210.0, 114.5, 210.0 ]
								}

							}
, 							{
								"patchline" : 								{
									"source" : [ "obj-5", 0 ],
									"destination" : [ "obj-12", 0 ],
									"hidden" : 0,
									"midpoints" : [ 189.5, 60.0, 189.0, 60.0, 189.0, 105.0, 114.5, 105.0 ]
								}

							}
, 							{
								"patchline" : 								{
									"source" : [ "obj-28", 0 ],
									"destination" : [ "obj-4", 0 ],
									"hidden" : 0,
									"midpoints" : [ 99.5, 249.0, 144.5, 249.0 ]
								}

							}
, 							{
								"patchline" : 								{
									"source" : [ "obj-1", 0 ],
									"destination" : [ "obj-9", 0 ],
									"hidden" : 0,
									"midpoints" : [  ]
								}

							}
, 							{
								"patchline" : 								{
									"source" : [ "obj-9", 0 ],
									"destination" : [ "obj-10", 0 ],
									"hidden" : 0,
									"midpoints" : [  ]
								}

							}
, 							{
								"patchline" : 								{
									"source" : [ "obj-12", 0 ],
									"destination" : [ "obj-10", 1 ],
									"hidden" : 0,
									"midpoints" : [  ]
								}

							}
, 							{
								"patchline" : 								{
									"source" : [ "obj-20", 0 ],
									"destination" : [ "obj-18", 1 ],
									"hidden" : 0,
									"midpoints" : [  ]
								}

							}
, 							{
								"patchline" : 								{
									"source" : [ "obj-10", 0 ],
									"destination" : [ "obj-28", 0 ],
									"hidden" : 0,
									"midpoints" : [  ]
								}

							}
, 							{
								"patchline" : 								{
									"source" : [ "obj-28", 0 ],
									"destination" : [ "obj-18", 0 ],
									"hidden" : 0,
									"midpoints" : [  ]
								}

							}
 ]
					}
,
					"saved_object_attributes" : 					{
						"fontname" : "Arial",
						"default_fontsize" : 10.0,
						"globalpatchername" : "",
						"fontface" : 0,
						"fontsize" : 10.0,
						"default_fontface" : 0,
						"default_fontname" : "Arial"
					}

				}

			}
, 			{
				"box" : 				{
					"maxclass" : "newobj",
					"text" : "pfft~ analysis 1024",
					"id" : "obj-6",
					"fontname" : "Arial",
					"patching_rect" : [ 90.0, 240.0, 379.0, 17.0 ],
					"numinlets" : 3,
					"fontsize" : 9.0,
					"numoutlets" : 3,
					"outlettype" : [ "signal", "signal", "signal" ]
				}

			}
 ],
		"lines" : [ 			{
				"patchline" : 				{
					"source" : [ "obj-60", 1 ],
					"destination" : [ "obj-110", 0 ],
					"hidden" : 0,
					"midpoints" : [  ]
				}

			}
, 			{
				"patchline" : 				{
					"source" : [ "obj-108", 0 ],
					"destination" : [ "obj-2", 0 ],
					"hidden" : 0,
					"midpoints" : [  ]
				}

			}
, 			{
				"patchline" : 				{
					"source" : [ "obj-6", 2 ],
					"destination" : [ "obj-101", 0 ],
					"hidden" : 0,
					"midpoints" : [  ]
				}

			}
, 			{
				"patchline" : 				{
					"source" : [ "obj-6", 2 ],
					"destination" : [ "obj-106", 0 ],
					"hidden" : 0,
					"midpoints" : [  ]
				}

			}
, 			{
				"patchline" : 				{
					"source" : [ "obj-106", 1 ],
					"destination" : [ "obj-104", 0 ],
					"hidden" : 0,
					"midpoints" : [  ]
				}

			}
, 			{
				"patchline" : 				{
					"source" : [ "obj-103", 0 ],
					"destination" : [ "obj-106", 1 ],
					"hidden" : 0,
					"midpoints" : [  ]
				}

			}
, 			{
				"patchline" : 				{
					"source" : [ "obj-102", 0 ],
					"destination" : [ "obj-106", 2 ],
					"hidden" : 0,
					"midpoints" : [  ]
				}

			}
, 			{
				"patchline" : 				{
					"source" : [ "obj-106", 0 ],
					"destination" : [ "obj-105", 0 ],
					"hidden" : 0,
					"midpoints" : [  ]
				}

			}
, 			{
				"patchline" : 				{
					"source" : [ "obj-6", 1 ],
					"destination" : [ "obj-93", 0 ],
					"hidden" : 0,
					"midpoints" : [  ]
				}

			}
, 			{
				"patchline" : 				{
					"source" : [ "obj-6", 1 ],
					"destination" : [ "obj-98", 0 ],
					"hidden" : 0,
					"midpoints" : [  ]
				}

			}
, 			{
				"patchline" : 				{
					"source" : [ "obj-98", 1 ],
					"destination" : [ "obj-96", 0 ],
					"hidden" : 0,
					"midpoints" : [  ]
				}

			}
, 			{
				"patchline" : 				{
					"source" : [ "obj-95", 0 ],
					"destination" : [ "obj-98", 1 ],
					"hidden" : 0,
					"midpoints" : [  ]
				}

			}
, 			{
				"patchline" : 				{
					"source" : [ "obj-94", 0 ],
					"destination" : [ "obj-98", 2 ],
					"hidden" : 0,
					"midpoints" : [  ]
				}

			}
, 			{
				"patchline" : 				{
					"source" : [ "obj-98", 0 ],
					"destination" : [ "obj-97", 0 ],
					"hidden" : 0,
					"midpoints" : [  ]
				}

			}
, 			{
				"patchline" : 				{
					"source" : [ "obj-86", 0 ],
					"destination" : [ "obj-81", 0 ],
					"hidden" : 0,
					"midpoints" : [  ]
				}

			}
, 			{
				"patchline" : 				{
					"source" : [ "obj-85", 0 ],
					"destination" : [ "obj-80", 0 ],
					"hidden" : 0,
					"midpoints" : [  ]
				}

			}
, 			{
				"patchline" : 				{
					"source" : [ "obj-81", 0 ],
					"destination" : [ "obj-74", 0 ],
					"hidden" : 0,
					"midpoints" : [  ]
				}

			}
, 			{
				"patchline" : 				{
					"source" : [ "obj-80", 0 ],
					"destination" : [ "obj-72", 0 ],
					"hidden" : 0,
					"midpoints" : [  ]
				}

			}
, 			{
				"patchline" : 				{
					"source" : [ "obj-60", 0 ],
					"destination" : [ "obj-5", 0 ],
					"hidden" : 0,
					"midpoints" : [  ]
				}

			}
, 			{
				"patchline" : 				{
					"source" : [ "obj-3", 0 ],
					"destination" : [ "obj-79", 0 ],
					"hidden" : 0,
					"midpoints" : [  ]
				}

			}
, 			{
				"patchline" : 				{
					"source" : [ "obj-79", 0 ],
					"destination" : [ "obj-78", 0 ],
					"hidden" : 0,
					"midpoints" : [  ]
				}

			}
, 			{
				"patchline" : 				{
					"source" : [ "obj-79", 0 ],
					"destination" : [ "obj-6", 0 ],
					"hidden" : 0,
					"midpoints" : [  ]
				}

			}
, 			{
				"patchline" : 				{
					"source" : [ "obj-2", 1 ],
					"destination" : [ "obj-79", 0 ],
					"hidden" : 0,
					"midpoints" : [  ]
				}

			}
, 			{
				"patchline" : 				{
					"source" : [ "obj-2", 0 ],
					"destination" : [ "obj-79", 0 ],
					"hidden" : 0,
					"midpoints" : [  ]
				}

			}
, 			{
				"patchline" : 				{
					"source" : [ "obj-6", 0 ],
					"destination" : [ "obj-75", 0 ],
					"hidden" : 0,
					"midpoints" : [  ]
				}

			}
, 			{
				"patchline" : 				{
					"source" : [ "obj-74", 0 ],
					"destination" : [ "obj-6", 2 ],
					"hidden" : 0,
					"midpoints" : [  ]
				}

			}
, 			{
				"patchline" : 				{
					"source" : [ "obj-72", 0 ],
					"destination" : [ "obj-6", 1 ],
					"hidden" : 0,
					"midpoints" : [  ]
				}

			}
, 			{
				"patchline" : 				{
					"source" : [ "obj-70", 0 ],
					"destination" : [ "obj-60", 2 ],
					"hidden" : 0,
					"midpoints" : [  ]
				}

			}
, 			{
				"patchline" : 				{
					"source" : [ "obj-69", 0 ],
					"destination" : [ "obj-60", 1 ],
					"hidden" : 0,
					"midpoints" : [  ]
				}

			}
, 			{
				"patchline" : 				{
					"source" : [ "obj-6", 0 ],
					"destination" : [ "obj-60", 0 ],
					"hidden" : 0,
					"midpoints" : [  ]
				}

			}
 ]
	}

}
