#N canvas 285 28 542 237 10;
#X text 159 47 Group numbers together into lists the length of the
creation argument;
#X text 159 87 Creation argument sets the number of elements to group
;
#X text 159 27 list_group <float>;
#X text 159 107 works the same way as [zl group];
#X obj 33 146 list_group 4;
#X obj 33 88 random 100;
#X obj 33 58 metro 100;
#X obj 33 28 loadbang;
#X floatatom 33 117 5 0 0 0 - - -;
#X obj 33 176 PRINT;
#X text 159 177 see also ->;
#X obj 233 176 zl group;
#X connect 4 0 9 0;
#X connect 5 0 8 0;
#X connect 6 0 5 0;
#X connect 7 0 6 0;
#X connect 8 0 4 0;
