#N canvas 656 54 285 552 10;
#X obj 49 165 list split 1;
#X obj 49 116 until;
#X obj 49 140 list append;
#X obj 139 165 b;
#X obj 75 300 + 1;
#X obj 49 244 t b f f;
#X obj 139 88 list length;
#X obj 85 60 t a a;
#X obj 85 87 t b a;
#X obj 49 397 t b f;
#X obj 49 421 f 0;
#X obj 139 111 - 1;
#X obj 49 300 f;
#X obj 49 373 f;
#X obj 49 349 sel;
#X obj 49 219 +;
#X obj 85 30 inlet;
#X obj 76 477 outlet;
#X obj 49 444 s \$0-s_r;
#X obj 64 191 r \$0-s_r;
#X obj 64 273 r \$0-s_r;
#X obj 139 135 s \$0-s_l;
#X obj 64 325 r \$0-s_l;
#X connect 0 0 15 0;
#X connect 0 1 2 1;
#X connect 0 2 3 0;
#X connect 1 0 2 0;
#X connect 2 0 0 0;
#X connect 3 0 1 1;
#X connect 4 0 12 1;
#X connect 5 0 12 0;
#X connect 5 1 13 1;
#X connect 5 2 15 1;
#X connect 6 0 11 0;
#X connect 7 0 8 0;
#X connect 7 1 6 0;
#X connect 8 0 1 0;
#X connect 8 1 2 1;
#X connect 9 0 10 0;
#X connect 9 1 17 0;
#X connect 10 0 18 0;
#X connect 11 0 21 0;
#X connect 12 0 4 0;
#X connect 12 0 14 0;
#X connect 13 0 9 0;
#X connect 14 0 13 0;
#X connect 15 0 5 0;
#X connect 16 0 7 0;
#X connect 19 0 15 1;
#X connect 20 0 12 1;
#X connect 22 0 14 1;
