#N canvas 754 108 243 491 10;
#X obj 42 317 spigot;
#X obj 115 317 spigot;
#X obj 42 117 list prepend;
#X obj 42 39 inlet;
#X obj 42 357 t a b;
#X obj 42 157 t a a a;
#X obj 88 187 list length;
#X obj 140 39 inlet;
#X obj 154 277 < 1;
#X obj 42 437 outlet;
#X obj 83 79 r \$0-x;
#X obj 115 397 s \$0-x;
#X obj 154 237 == \$1;
#X obj 140 117 t f b f;
#X obj 140 157 s \$0-x;
#X connect 0 0 4 0;
#X connect 1 0 11 0;
#X connect 2 0 5 0;
#X connect 3 0 2 0;
#X connect 4 0 9 0;
#X connect 4 1 11 0;
#X connect 5 0 0 0;
#X connect 5 1 1 0;
#X connect 5 2 6 0;
#X connect 6 0 12 0;
#X connect 7 0 13 0;
#X connect 8 0 1 1;
#X connect 10 0 2 1;
#X connect 12 0 8 0;
#X connect 12 0 0 1;
#X connect 13 0 14 0;
#X connect 13 1 14 0;
#X connect 13 2 12 1;
