#N canvas 381 22 253 423 10;
#X obj 44 35 inlet;
#X obj 44 364 outlet;
#X obj 44 183 list split 1;
#X obj 44 118 until;
#X obj 44 148 list append;
#X obj 44 254 +;
#X obj 44 334 f;
#X obj 125 213 t b b b;
#X obj 79 254 f 0;
#X obj 44 289 t f f;
#X obj 44 67 t b l;
#X connect 0 0 10 0;
#X connect 2 0 5 0;
#X connect 2 1 4 1;
#X connect 2 2 7 0;
#X connect 3 0 4 0;
#X connect 4 0 2 0;
#X connect 5 0 9 0;
#X connect 6 0 1 0;
#X connect 7 0 8 0;
#X connect 7 1 6 0;
#X connect 7 2 3 1;
#X connect 8 0 5 1;
#X connect 9 0 6 1;
#X connect 9 1 5 1;
#X connect 10 0 3 0;
#X connect 10 1 4 1;
