{
	"patcher" : 	{
		"fileversion" : 1,
		"rect" : [ 66.0, 44.0, 520.0, 325.0 ],
		"bglocked" : 0,
		"defrect" : [ 66.0, 44.0, 520.0, 325.0 ],
		"openrect" : [ 0.0, 0.0, 0.0, 0.0 ],
		"openinpresentation" : 1,
		"default_fontsize" : 10.0,
		"default_fontface" : 0,
		"default_fontname" : "Arial",
		"gridonopen" : 0,
		"gridsize" : [ 15.0, 15.0 ],
		"gridsnaponopen" : 0,
		"toolbarvisible" : 1,
		"boxanimatetime" : 200,
		"imprint" : 0,
		"metadata" : [  ],
		"boxes" : [ 			{
				"box" : 				{
					"maxclass" : "ezdac~",
					"numoutlets" : 0,
					"patching_rect" : [ 90.0, 330.0, 45.0, 45.0 ],
					"id" : "obj-31",
					"presentation" : 1,
					"numinlets" : 2,
					"presentation_rect" : [ 30.0, 30.0, 41.0, 41.0 ]
				}

			}
, 			{
				"box" : 				{
					"maxclass" : "newobj",
					"text" : "loadbang",
					"numoutlets" : 1,
					"patching_rect" : [ 30.0, 225.0, 52.0, 18.0 ],
					"outlettype" : [ "bang" ],
					"id" : "obj-32",
					"fontname" : "Arial",
					"numinlets" : 1,
					"fontsize" : 10.0
				}

			}
, 			{
				"box" : 				{
					"maxclass" : "message",
					"text" : "loop 1",
					"numoutlets" : 1,
					"patching_rect" : [ 30.0, 255.0, 38.0, 16.0 ],
					"outlettype" : [ "" ],
					"id" : "obj-33",
					"fontname" : "Arial",
					"numinlets" : 2,
					"fontsize" : 10.0
				}

			}
, 			{
				"box" : 				{
					"maxclass" : "toggle",
					"numoutlets" : 1,
					"patching_rect" : [ 90.0, 225.0, 20.0, 20.0 ],
					"outlettype" : [ "int" ],
					"id" : "obj-34",
					"presentation" : 1,
					"numinlets" : 1,
					"presentation_rect" : [ 75.0, 30.0, 42.0, 42.0 ]
				}

			}
, 			{
				"box" : 				{
					"maxclass" : "newobj",
					"text" : "sig~",
					"numoutlets" : 1,
					"patching_rect" : [ 90.0, 255.0, 29.0, 18.0 ],
					"outlettype" : [ "signal" ],
					"id" : "obj-35",
					"fontname" : "Arial",
					"numinlets" : 1,
					"fontsize" : 10.0
				}

			}
, 			{
				"box" : 				{
					"maxclass" : "newobj",
					"text" : "groove~ sample",
					"numoutlets" : 2,
					"patching_rect" : [ 90.0, 300.0, 82.0, 18.0 ],
					"outlettype" : [ "signal", "signal" ],
					"id" : "obj-36",
					"fontname" : "Arial",
					"numinlets" : 3,
					"fontsize" : 10.0
				}

			}
, 			{
				"box" : 				{
					"maxclass" : "comment",
					"text" : "Time",
					"numoutlets" : 0,
					"patching_rect" : [ 390.0, 60.0, 34.0, 18.0 ],
					"id" : "obj-18",
					"presentation" : 1,
					"fontname" : "Arial",
					"numinlets" : 1,
					"presentation_rect" : [ 240.0, 30.0, 34.0, 18.0 ],
					"fontsize" : 10.0
				}

			}
, 			{
				"box" : 				{
					"maxclass" : "flonum",
					"numoutlets" : 2,
					"patching_rect" : [ 390.0, 75.0, 50.0, 18.0 ],
					"outlettype" : [ "float", "bang" ],
					"id" : "obj-19",
					"presentation" : 1,
					"fontname" : "Arial",
					"numinlets" : 1,
					"presentation_rect" : [ 240.0, 45.0, 50.0, 18.0 ],
					"fontsize" : 10.0
				}

			}
, 			{
				"box" : 				{
					"maxclass" : "comment",
					"text" : "Length",
					"numoutlets" : 0,
					"patching_rect" : [ 330.0, 60.0, 41.0, 18.0 ],
					"id" : "obj-20",
					"presentation" : 1,
					"fontname" : "Arial",
					"numinlets" : 1,
					"presentation_rect" : [ 180.0, 30.0, 41.0, 18.0 ],
					"fontsize" : 10.0
				}

			}
, 			{
				"box" : 				{
					"maxclass" : "flonum",
					"numoutlets" : 2,
					"patching_rect" : [ 330.0, 75.0, 50.0, 18.0 ],
					"outlettype" : [ "float", "bang" ],
					"id" : "obj-21",
					"presentation" : 1,
					"fontname" : "Arial",
					"numinlets" : 1,
					"presentation_rect" : [ 180.0, 45.0, 50.0, 18.0 ],
					"fontsize" : 10.0
				}

			}
, 			{
				"box" : 				{
					"maxclass" : "comment",
					"text" : "Pieces",
					"numoutlets" : 0,
					"patching_rect" : [ 270.0, 60.0, 39.0, 18.0 ],
					"id" : "obj-22",
					"presentation" : 1,
					"fontname" : "Arial",
					"numinlets" : 1,
					"presentation_rect" : [ 120.0, 30.0, 39.0, 18.0 ],
					"fontsize" : 10.0
				}

			}
, 			{
				"box" : 				{
					"maxclass" : "flonum",
					"numoutlets" : 2,
					"patching_rect" : [ 270.0, 75.0, 50.0, 18.0 ],
					"outlettype" : [ "float", "bang" ],
					"id" : "obj-23",
					"presentation" : 1,
					"fontname" : "Arial",
					"numinlets" : 1,
					"presentation_rect" : [ 120.0, 45.0, 50.0, 18.0 ],
					"fontsize" : 10.0
				}

			}
, 			{
				"box" : 				{
					"maxclass" : "newobj",
					"text" : "p stretch",
					"numoutlets" : 2,
					"patching_rect" : [ 210.0, 105.0, 199.0, 18.0 ],
					"outlettype" : [ "float", "" ],
					"id" : "obj-24",
					"fontname" : "Arial",
					"numinlets" : 4,
					"fontsize" : 10.0,
					"patcher" : 					{
						"fileversion" : 1,
						"rect" : [ 601.0, 44.0, 679.0, 730.0 ],
						"bglocked" : 0,
						"defrect" : [ 601.0, 44.0, 679.0, 730.0 ],
						"openrect" : [ 0.0, 0.0, 0.0, 0.0 ],
						"openinpresentation" : 0,
						"default_fontsize" : 10.0,
						"default_fontface" : 0,
						"default_fontname" : "Arial",
						"gridonopen" : 0,
						"gridsize" : [ 15.0, 15.0 ],
						"gridsnaponopen" : 0,
						"toolbarvisible" : 1,
						"boxanimatetime" : 200,
						"imprint" : 0,
						"metadata" : [  ],
						"boxes" : [ 							{
								"box" : 								{
									"maxclass" : "comment",
									"text" : "Loop End",
									"numoutlets" : 0,
									"patching_rect" : [ 285.0, 765.0, 62.0, 18.0 ],
									"id" : "obj-15",
									"fontname" : "Arial",
									"numinlets" : 1,
									"fontsize" : 10.0
								}

							}
, 							{
								"box" : 								{
									"maxclass" : "comment",
									"text" : "Loop Start",
									"numoutlets" : 0,
									"patching_rect" : [ 90.0, 765.0, 59.0, 18.0 ],
									"id" : "obj-11",
									"fontname" : "Arial",
									"numinlets" : 1,
									"fontsize" : 10.0
								}

							}
, 							{
								"box" : 								{
									"maxclass" : "comment",
									"text" : "Connected To Buffer",
									"numoutlets" : 0,
									"patching_rect" : [ 105.0, 15.0, 102.0, 18.0 ],
									"id" : "obj-8",
									"fontname" : "Arial",
									"numinlets" : 1,
									"fontsize" : 10.0
								}

							}
, 							{
								"box" : 								{
									"maxclass" : "comment",
									"text" : "How Many Pieces",
									"numoutlets" : 0,
									"patching_rect" : [ 345.0, 15.0, 94.0, 18.0 ],
									"id" : "obj-5",
									"fontname" : "Arial",
									"numinlets" : 1,
									"fontsize" : 10.0
								}

							}
, 							{
								"box" : 								{
									"maxclass" : "newobj",
									"text" : "t b i",
									"numoutlets" : 2,
									"patching_rect" : [ 345.0, 345.0, 32.5, 18.0 ],
									"outlettype" : [ "bang", "int" ],
									"id" : "obj-54",
									"fontname" : "Arial",
									"numinlets" : 1,
									"fontsize" : 10.0
								}

							}
, 							{
								"box" : 								{
									"maxclass" : "inlet",
									"numoutlets" : 1,
									"patching_rect" : [ 210.0, 15.0, 25.0, 25.0 ],
									"outlettype" : [ "bang" ],
									"id" : "obj-52",
									"numinlets" : 0,
									"comment" : ""
								}

							}
, 							{
								"box" : 								{
									"maxclass" : "outlet",
									"numoutlets" : 0,
									"patching_rect" : [ 210.0, 765.0, 25.0, 25.0 ],
									"id" : "obj-51",
									"numinlets" : 1,
									"comment" : ""
								}

							}
, 							{
								"box" : 								{
									"maxclass" : "outlet",
									"numoutlets" : 0,
									"patching_rect" : [ 165.0, 765.0, 25.0, 25.0 ],
									"id" : "obj-47",
									"numinlets" : 1,
									"comment" : ""
								}

							}
, 							{
								"box" : 								{
									"maxclass" : "inlet",
									"numoutlets" : 1,
									"patching_rect" : [ 390.0, 660.0, 25.0, 25.0 ],
									"outlettype" : [ "float" ],
									"id" : "obj-45",
									"numinlets" : 0,
									"comment" : ""
								}

							}
, 							{
								"box" : 								{
									"maxclass" : "comment",
									"text" : "Time of stretch",
									"numoutlets" : 0,
									"patching_rect" : [ 420.0, 660.0, 80.0, 18.0 ],
									"id" : "obj-42",
									"fontname" : "Arial",
									"numinlets" : 1,
									"fontsize" : 10.0
								}

							}
, 							{
								"box" : 								{
									"maxclass" : "newobj",
									"text" : "t b b i",
									"numoutlets" : 3,
									"patching_rect" : [ 315.0, 45.0, 46.0, 18.0 ],
									"outlettype" : [ "bang", "bang", "int" ],
									"id" : "obj-38",
									"fontname" : "Arial",
									"numinlets" : 1,
									"fontsize" : 10.0
								}

							}
, 							{
								"box" : 								{
									"maxclass" : "inlet",
									"numoutlets" : 1,
									"patching_rect" : [ 315.0, 15.0, 25.0, 25.0 ],
									"outlettype" : [ "float" ],
									"id" : "obj-36",
									"numinlets" : 0,
									"comment" : ""
								}

							}
, 							{
								"box" : 								{
									"maxclass" : "comment",
									"text" : "Length of stretch",
									"numoutlets" : 0,
									"patching_rect" : [ 375.0, 570.0, 87.0, 18.0 ],
									"id" : "obj-34",
									"fontname" : "Arial",
									"numinlets" : 1,
									"fontsize" : 10.0
								}

							}
, 							{
								"box" : 								{
									"maxclass" : "newobj",
									"text" : "t b i",
									"numoutlets" : 2,
									"patching_rect" : [ 345.0, 600.0, 32.5, 18.0 ],
									"outlettype" : [ "bang", "int" ],
									"id" : "obj-31",
									"fontname" : "Arial",
									"numinlets" : 1,
									"fontsize" : 10.0
								}

							}
, 							{
								"box" : 								{
									"maxclass" : "inlet",
									"numoutlets" : 1,
									"patching_rect" : [ 345.0, 570.0, 25.0, 25.0 ],
									"outlettype" : [ "float" ],
									"id" : "obj-30",
									"numinlets" : 0,
									"comment" : ""
								}

							}
, 							{
								"box" : 								{
									"maxclass" : "newobj",
									"text" : "* 1.",
									"numoutlets" : 1,
									"patching_rect" : [ 315.0, 285.0, 32.5, 18.0 ],
									"outlettype" : [ "float" ],
									"id" : "obj-23",
									"fontname" : "Arial",
									"numinlets" : 2,
									"fontsize" : 10.0
								}

							}
, 							{
								"box" : 								{
									"maxclass" : "newobj",
									"text" : "* 32.",
									"numoutlets" : 1,
									"patching_rect" : [ 300.0, 645.0, 77.5, 18.0 ],
									"outlettype" : [ "float" ],
									"id" : "obj-22",
									"fontname" : "Arial",
									"numinlets" : 2,
									"fontsize" : 10.0
								}

							}
, 							{
								"box" : 								{
									"maxclass" : "newobj",
									"text" : "r delay",
									"numoutlets" : 1,
									"patching_rect" : [ 300.0, 600.0, 41.0, 18.0 ],
									"outlettype" : [ "" ],
									"id" : "obj-21",
									"fontname" : "Arial",
									"numinlets" : 0,
									"fontsize" : 10.0
								}

							}
, 							{
								"box" : 								{
									"maxclass" : "newobj",
									"text" : "s length",
									"numoutlets" : 0,
									"patching_rect" : [ 240.0, 150.0, 46.0, 18.0 ],
									"id" : "obj-20",
									"fontname" : "Arial",
									"numinlets" : 1,
									"fontsize" : 10.0
								}

							}
, 							{
								"box" : 								{
									"maxclass" : "newobj",
									"text" : "t b f",
									"numoutlets" : 2,
									"patching_rect" : [ 270.0, 450.0, 93.5, 18.0 ],
									"outlettype" : [ "bang", "float" ],
									"id" : "obj-28",
									"fontname" : "Arial",
									"numinlets" : 1,
									"fontsize" : 10.0
								}

							}
, 							{
								"box" : 								{
									"maxclass" : "newobj",
									"text" : "r delay",
									"numoutlets" : 1,
									"patching_rect" : [ 300.0, 480.0, 41.0, 18.0 ],
									"outlettype" : [ "" ],
									"id" : "obj-27",
									"fontname" : "Arial",
									"numinlets" : 0,
									"fontsize" : 10.0
								}

							}
, 							{
								"box" : 								{
									"maxclass" : "newobj",
									"text" : "s delay",
									"numoutlets" : 0,
									"patching_rect" : [ 345.0, 240.0, 42.0, 18.0 ],
									"id" : "obj-26",
									"fontname" : "Arial",
									"numinlets" : 1,
									"fontsize" : 10.0
								}

							}
, 							{
								"box" : 								{
									"maxclass" : "newobj",
									"text" : "float",
									"numoutlets" : 1,
									"patching_rect" : [ 270.0, 540.0, 93.5, 18.0 ],
									"outlettype" : [ "float" ],
									"id" : "obj-25",
									"fontname" : "Arial",
									"numinlets" : 2,
									"fontsize" : 10.0
								}

							}
, 							{
								"box" : 								{
									"maxclass" : "newobj",
									"text" : "delay",
									"numoutlets" : 1,
									"patching_rect" : [ 270.0, 510.0, 49.0, 18.0 ],
									"outlettype" : [ "bang" ],
									"id" : "obj-24",
									"fontname" : "Arial",
									"numinlets" : 2,
									"fontsize" : 10.0
								}

							}
, 							{
								"box" : 								{
									"maxclass" : "newobj",
									"text" : "t b",
									"numoutlets" : 1,
									"patching_rect" : [ 270.0, 600.0, 22.0, 18.0 ],
									"outlettype" : [ "bang" ],
									"id" : "obj-19",
									"fontname" : "Arial",
									"numinlets" : 1,
									"fontsize" : 10.0
								}

							}
, 							{
								"box" : 								{
									"maxclass" : "flonum",
									"numoutlets" : 2,
									"patching_rect" : [ 390.0, 690.0, 50.0, 18.0 ],
									"outlettype" : [ "float", "bang" ],
									"id" : "obj-18",
									"fontname" : "Arial",
									"numinlets" : 1,
									"fontsize" : 10.0
								}

							}
, 							{
								"box" : 								{
									"maxclass" : "flonum",
									"numoutlets" : 2,
									"patching_rect" : [ 270.0, 690.0, 50.0, 18.0 ],
									"outlettype" : [ "float", "bang" ],
									"id" : "obj-2",
									"fontname" : "Arial",
									"numinlets" : 1,
									"fontsize" : 10.0
								}

							}
, 							{
								"box" : 								{
									"maxclass" : "newobj",
									"text" : "line",
									"numoutlets" : 3,
									"patching_rect" : [ 210.0, 735.0, 138.0, 18.0 ],
									"outlettype" : [ "", "", "" ],
									"id" : "obj-12",
									"fontname" : "Arial",
									"numinlets" : 3,
									"fontsize" : 10.0
								}

							}
, 							{
								"box" : 								{
									"maxclass" : "comment",
									"text" : "End",
									"numoutlets" : 0,
									"patching_rect" : [ 330.0, 420.0, 32.0, 18.0 ],
									"id" : "obj-3",
									"fontname" : "Arial",
									"numinlets" : 1,
									"fontsize" : 10.0
								}

							}
, 							{
								"box" : 								{
									"maxclass" : "comment",
									"text" : "Start",
									"numoutlets" : 0,
									"patching_rect" : [ 165.0, 420.0, 31.0, 18.0 ],
									"id" : "obj-9",
									"fontname" : "Arial",
									"numinlets" : 1,
									"fontsize" : 10.0
								}

							}
, 							{
								"box" : 								{
									"maxclass" : "flonum",
									"numoutlets" : 2,
									"patching_rect" : [ 210.0, 420.0, 50.0, 18.0 ],
									"outlettype" : [ "float", "bang" ],
									"id" : "obj-7",
									"fontname" : "Arial",
									"numinlets" : 1,
									"fontsize" : 10.0
								}

							}
, 							{
								"box" : 								{
									"maxclass" : "flonum",
									"numoutlets" : 2,
									"patching_rect" : [ 270.0, 420.0, 50.0, 18.0 ],
									"outlettype" : [ "float", "bang" ],
									"id" : "obj-4",
									"fontname" : "Arial",
									"numinlets" : 1,
									"fontsize" : 10.0
								}

							}
, 							{
								"box" : 								{
									"maxclass" : "newobj",
									"text" : "t f b f",
									"numoutlets" : 3,
									"patching_rect" : [ 210.0, 345.0, 79.0, 18.0 ],
									"outlettype" : [ "float", "bang", "float" ],
									"id" : "obj-78",
									"fontname" : "Arial",
									"numinlets" : 1,
									"fontsize" : 10.0
								}

							}
, 							{
								"box" : 								{
									"maxclass" : "newobj",
									"text" : "t f f",
									"numoutlets" : 2,
									"patching_rect" : [ 300.0, 240.0, 33.5, 18.0 ],
									"outlettype" : [ "float", "float" ],
									"id" : "obj-76",
									"fontname" : "Arial",
									"numinlets" : 1,
									"fontsize" : 10.0
								}

							}
, 							{
								"box" : 								{
									"maxclass" : "newobj",
									"text" : "+ 1.",
									"numoutlets" : 1,
									"patching_rect" : [ 270.0, 390.0, 63.5, 18.0 ],
									"outlettype" : [ "float" ],
									"id" : "obj-74",
									"fontname" : "Arial",
									"numinlets" : 2,
									"fontsize" : 10.0
								}

							}
, 							{
								"box" : 								{
									"maxclass" : "button",
									"numoutlets" : 1,
									"patching_rect" : [ 210.0, 150.0, 20.0, 20.0 ],
									"outlettype" : [ "bang" ],
									"id" : "obj-68",
									"numinlets" : 1
								}

							}
, 							{
								"box" : 								{
									"maxclass" : "flonum",
									"numoutlets" : 2,
									"patching_rect" : [ 210.0, 315.0, 50.0, 18.0 ],
									"outlettype" : [ "float", "bang" ],
									"id" : "obj-53",
									"fontname" : "Arial",
									"numinlets" : 1,
									"fontsize" : 10.0
								}

							}
, 							{
								"box" : 								{
									"maxclass" : "newobj",
									"text" : "+ 1.",
									"numoutlets" : 1,
									"patching_rect" : [ 210.0, 240.0, 32.5, 18.0 ],
									"outlettype" : [ "float" ],
									"id" : "obj-50",
									"fontname" : "Arial",
									"numinlets" : 2,
									"fontsize" : 10.0
								}

							}
, 							{
								"box" : 								{
									"maxclass" : "newobj",
									"text" : "random 15",
									"numoutlets" : 1,
									"patching_rect" : [ 210.0, 195.0, 58.0, 18.0 ],
									"outlettype" : [ "int" ],
									"id" : "obj-49",
									"fontname" : "Arial",
									"numinlets" : 2,
									"fontsize" : 10.0
								}

							}
, 							{
								"box" : 								{
									"maxclass" : "newobj",
									"text" : "* 1.",
									"numoutlets" : 1,
									"patching_rect" : [ 210.0, 285.0, 32.5, 18.0 ],
									"outlettype" : [ "float" ],
									"id" : "obj-48",
									"fontname" : "Arial",
									"numinlets" : 2,
									"fontsize" : 10.0
								}

							}
, 							{
								"box" : 								{
									"maxclass" : "flonum",
									"numoutlets" : 2,
									"patching_rect" : [ 300.0, 195.0, 50.0, 18.0 ],
									"outlettype" : [ "float", "bang" ],
									"id" : "obj-41",
									"fontname" : "Arial",
									"numinlets" : 1,
									"fontsize" : 10.0
								}

							}
, 							{
								"box" : 								{
									"maxclass" : "comment",
									"text" : "Length of one piece",
									"numoutlets" : 0,
									"patching_rect" : [ 405.0, 195.0, 150.0, 18.0 ],
									"id" : "obj-39",
									"fontname" : "Arial",
									"numinlets" : 1,
									"fontsize" : 10.0
								}

							}
, 							{
								"box" : 								{
									"maxclass" : "comment",
									"text" : "cuts the sample into 16 pieces",
									"numoutlets" : 0,
									"patching_rect" : [ 405.0, 150.0, 150.0, 18.0 ],
									"id" : "obj-37",
									"fontname" : "Arial",
									"numinlets" : 1,
									"fontsize" : 10.0
								}

							}
, 							{
								"box" : 								{
									"maxclass" : "newobj",
									"text" : "/ 16.",
									"numoutlets" : 1,
									"patching_rect" : [ 300.0, 150.0, 60.5, 18.0 ],
									"outlettype" : [ "float" ],
									"id" : "obj-35",
									"fontname" : "Arial",
									"numinlets" : 2,
									"fontsize" : 10.0
								}

							}
, 							{
								"box" : 								{
									"maxclass" : "newobj",
									"text" : "info~ sample",
									"numoutlets" : 8,
									"patching_rect" : [ 210.0, 90.0, 123.5, 18.0 ],
									"outlettype" : [ "float", "list", "float", "float", "float", "float", "float", "" ],
									"id" : "obj-13",
									"fontname" : "Arial",
									"numinlets" : 1,
									"fontsize" : 10.0
								}

							}
 ],
						"lines" : [ 							{
								"patchline" : 								{
									"source" : [ "obj-54", 0 ],
									"destination" : [ "obj-68", 0 ],
									"hidden" : 0,
									"midpoints" : [ 354.5, 363.0, 300.0, 363.0, 300.0, 270.0, 279.0, 270.0, 279.0, 180.0, 231.0, 180.0, 231.0, 147.0, 219.5, 147.0 ]
								}

							}
, 							{
								"patchline" : 								{
									"source" : [ "obj-54", 1 ],
									"destination" : [ "obj-74", 1 ],
									"hidden" : 0,
									"midpoints" : [ 368.0, 375.0, 324.0, 375.0 ]
								}

							}
, 							{
								"patchline" : 								{
									"source" : [ "obj-23", 0 ],
									"destination" : [ "obj-54", 0 ],
									"hidden" : 0,
									"midpoints" : [ 324.5, 330.0, 354.5, 330.0 ]
								}

							}
, 							{
								"patchline" : 								{
									"source" : [ "obj-52", 0 ],
									"destination" : [ "obj-13", 0 ],
									"hidden" : 0,
									"midpoints" : [  ]
								}

							}
, 							{
								"patchline" : 								{
									"source" : [ "obj-7", 0 ],
									"destination" : [ "obj-47", 0 ],
									"hidden" : 0,
									"midpoints" : [ 219.5, 720.0, 174.5, 720.0 ]
								}

							}
, 							{
								"patchline" : 								{
									"source" : [ "obj-45", 0 ],
									"destination" : [ "obj-18", 0 ],
									"hidden" : 0,
									"midpoints" : [  ]
								}

							}
, 							{
								"patchline" : 								{
									"source" : [ "obj-38", 2 ],
									"destination" : [ "obj-35", 1 ],
									"hidden" : 0,
									"midpoints" : [  ]
								}

							}
, 							{
								"patchline" : 								{
									"source" : [ "obj-38", 1 ],
									"destination" : [ "obj-35", 0 ],
									"hidden" : 0,
									"midpoints" : [ 338.0, 75.0, 338.0, 75.0, 338.0, 135.0, 309.5, 135.0 ]
								}

							}
, 							{
								"patchline" : 								{
									"source" : [ "obj-38", 0 ],
									"destination" : [ "obj-13", 0 ],
									"hidden" : 0,
									"midpoints" : [ 324.5, 75.0, 219.5, 75.0 ]
								}

							}
, 							{
								"patchline" : 								{
									"source" : [ "obj-36", 0 ],
									"destination" : [ "obj-38", 0 ],
									"hidden" : 0,
									"midpoints" : [  ]
								}

							}
, 							{
								"patchline" : 								{
									"source" : [ "obj-31", 1 ],
									"destination" : [ "obj-22", 1 ],
									"hidden" : 0,
									"midpoints" : [  ]
								}

							}
, 							{
								"patchline" : 								{
									"source" : [ "obj-30", 0 ],
									"destination" : [ "obj-31", 0 ],
									"hidden" : 0,
									"midpoints" : [  ]
								}

							}
, 							{
								"patchline" : 								{
									"source" : [ "obj-31", 0 ],
									"destination" : [ "obj-22", 0 ],
									"hidden" : 0,
									"midpoints" : [ 354.5, 630.0, 309.5, 630.0 ]
								}

							}
, 							{
								"patchline" : 								{
									"source" : [ "obj-25", 0 ],
									"destination" : [ "obj-19", 0 ],
									"hidden" : 0,
									"midpoints" : [  ]
								}

							}
, 							{
								"patchline" : 								{
									"source" : [ "obj-24", 0 ],
									"destination" : [ "obj-25", 0 ],
									"hidden" : 0,
									"midpoints" : [  ]
								}

							}
, 							{
								"patchline" : 								{
									"source" : [ "obj-28", 0 ],
									"destination" : [ "obj-24", 0 ],
									"hidden" : 0,
									"midpoints" : [  ]
								}

							}
, 							{
								"patchline" : 								{
									"source" : [ "obj-4", 0 ],
									"destination" : [ "obj-28", 0 ],
									"hidden" : 0,
									"midpoints" : [  ]
								}

							}
, 							{
								"patchline" : 								{
									"source" : [ "obj-27", 0 ],
									"destination" : [ "obj-24", 1 ],
									"hidden" : 0,
									"midpoints" : [  ]
								}

							}
, 							{
								"patchline" : 								{
									"source" : [ "obj-41", 0 ],
									"destination" : [ "obj-26", 0 ],
									"hidden" : 0,
									"midpoints" : [ 309.5, 225.0, 354.5, 225.0 ]
								}

							}
, 							{
								"patchline" : 								{
									"source" : [ "obj-19", 0 ],
									"destination" : [ "obj-2", 0 ],
									"hidden" : 0,
									"midpoints" : [  ]
								}

							}
, 							{
								"patchline" : 								{
									"source" : [ "obj-78", 0 ],
									"destination" : [ "obj-7", 0 ],
									"hidden" : 0,
									"midpoints" : [  ]
								}

							}
, 							{
								"patchline" : 								{
									"source" : [ "obj-74", 0 ],
									"destination" : [ "obj-4", 0 ],
									"hidden" : 0,
									"midpoints" : [  ]
								}

							}
, 							{
								"patchline" : 								{
									"source" : [ "obj-78", 1 ],
									"destination" : [ "obj-74", 0 ],
									"hidden" : 0,
									"midpoints" : [ 249.5, 375.0, 279.5, 375.0 ]
								}

							}
, 							{
								"patchline" : 								{
									"source" : [ "obj-78", 2 ],
									"destination" : [ "obj-74", 0 ],
									"hidden" : 0,
									"midpoints" : [  ]
								}

							}
, 							{
								"patchline" : 								{
									"source" : [ "obj-53", 0 ],
									"destination" : [ "obj-78", 0 ],
									"hidden" : 0,
									"midpoints" : [  ]
								}

							}
, 							{
								"patchline" : 								{
									"source" : [ "obj-13", 6 ],
									"destination" : [ "obj-35", 0 ],
									"hidden" : 0,
									"midpoints" : [  ]
								}

							}
, 							{
								"patchline" : 								{
									"source" : [ "obj-35", 0 ],
									"destination" : [ "obj-41", 0 ],
									"hidden" : 0,
									"midpoints" : [  ]
								}

							}
, 							{
								"patchline" : 								{
									"source" : [ "obj-50", 0 ],
									"destination" : [ "obj-48", 0 ],
									"hidden" : 0,
									"midpoints" : [  ]
								}

							}
, 							{
								"patchline" : 								{
									"source" : [ "obj-48", 0 ],
									"destination" : [ "obj-53", 0 ],
									"hidden" : 0,
									"midpoints" : [  ]
								}

							}
, 							{
								"patchline" : 								{
									"source" : [ "obj-41", 0 ],
									"destination" : [ "obj-76", 0 ],
									"hidden" : 0,
									"midpoints" : [  ]
								}

							}
, 							{
								"patchline" : 								{
									"source" : [ "obj-76", 0 ],
									"destination" : [ "obj-48", 1 ],
									"hidden" : 0,
									"midpoints" : [ 309.5, 270.0, 233.0, 270.0 ]
								}

							}
, 							{
								"patchline" : 								{
									"source" : [ "obj-49", 0 ],
									"destination" : [ "obj-50", 0 ],
									"hidden" : 0,
									"midpoints" : [  ]
								}

							}
, 							{
								"patchline" : 								{
									"source" : [ "obj-68", 0 ],
									"destination" : [ "obj-49", 0 ],
									"hidden" : 0,
									"midpoints" : [  ]
								}

							}
, 							{
								"patchline" : 								{
									"source" : [ "obj-13", 6 ],
									"destination" : [ "obj-20", 0 ],
									"hidden" : 0,
									"midpoints" : [ 309.071442, 135.0, 249.5, 135.0 ]
								}

							}
, 							{
								"patchline" : 								{
									"source" : [ "obj-23", 0 ],
									"destination" : [ "obj-74", 1 ],
									"hidden" : 0,
									"midpoints" : [  ]
								}

							}
, 							{
								"patchline" : 								{
									"source" : [ "obj-76", 1 ],
									"destination" : [ "obj-23", 0 ],
									"hidden" : 0,
									"midpoints" : [  ]
								}

							}
, 							{
								"patchline" : 								{
									"source" : [ "obj-22", 0 ],
									"destination" : [ "obj-2", 0 ],
									"hidden" : 0,
									"midpoints" : [ 309.5, 675.0, 279.5, 675.0 ]
								}

							}
, 							{
								"patchline" : 								{
									"source" : [ "obj-21", 0 ],
									"destination" : [ "obj-22", 0 ],
									"hidden" : 0,
									"midpoints" : [  ]
								}

							}
, 							{
								"patchline" : 								{
									"source" : [ "obj-28", 1 ],
									"destination" : [ "obj-25", 1 ],
									"hidden" : 0,
									"midpoints" : [  ]
								}

							}
, 							{
								"patchline" : 								{
									"source" : [ "obj-12", 1 ],
									"destination" : [ "obj-68", 0 ],
									"hidden" : 0,
									"midpoints" : [ 279.0, 794.0, 150.0, 794.0, 150.0, 435.0, 150.0, 435.0, 150.0, 147.0, 219.5, 147.0 ]
								}

							}
, 							{
								"patchline" : 								{
									"source" : [ "obj-2", 0 ],
									"destination" : [ "obj-12", 1 ],
									"hidden" : 0,
									"midpoints" : [  ]
								}

							}
, 							{
								"patchline" : 								{
									"source" : [ "obj-18", 0 ],
									"destination" : [ "obj-12", 2 ],
									"hidden" : 0,
									"midpoints" : [ 399.5, 720.0, 338.5, 720.0 ]
								}

							}
, 							{
								"patchline" : 								{
									"source" : [ "obj-25", 0 ],
									"destination" : [ "obj-12", 0 ],
									"hidden" : 0,
									"midpoints" : [ 279.5, 585.0, 219.5, 585.0 ]
								}

							}
, 							{
								"patchline" : 								{
									"source" : [ "obj-7", 0 ],
									"destination" : [ "obj-12", 0 ],
									"hidden" : 0,
									"midpoints" : [  ]
								}

							}
, 							{
								"patchline" : 								{
									"source" : [ "obj-12", 0 ],
									"destination" : [ "obj-51", 0 ],
									"hidden" : 0,
									"midpoints" : [  ]
								}

							}
, 							{
								"patchline" : 								{
									"source" : [ "obj-38", 2 ],
									"destination" : [ "obj-49", 1 ],
									"hidden" : 0,
									"midpoints" : [ 351.5, 135.0, 288.0, 135.0, 288.0, 180.0, 258.5, 180.0 ]
								}

							}
 ]
					}
,
					"saved_object_attributes" : 					{
						"default_fontsize" : 10.0,
						"globalpatchername" : "",
						"fontname" : "Arial",
						"default_fontface" : 0,
						"default_fontname" : "Arial",
						"fontface" : 0,
						"fontsize" : 10.0
					}

				}

			}
, 			{
				"box" : 				{
					"maxclass" : "message",
					"text" : "read",
					"numoutlets" : 1,
					"patching_rect" : [ 150.0, 30.0, 32.5, 16.0 ],
					"outlettype" : [ "" ],
					"id" : "obj-25",
					"presentation" : 1,
					"fontname" : "Arial",
					"numinlets" : 2,
					"presentation_rect" : [ 30.0, 165.0, 32.5, 16.0 ],
					"fontsize" : 10.0
				}

			}
, 			{
				"box" : 				{
					"maxclass" : "newobj",
					"text" : "buffer~ sample",
					"numoutlets" : 2,
					"patching_rect" : [ 150.0, 60.0, 79.0, 18.0 ],
					"outlettype" : [ "float", "bang" ],
					"id" : "obj-26",
					"fontname" : "Arial",
					"numinlets" : 1,
					"fontsize" : 10.0
				}

			}
, 			{
				"box" : 				{
					"maxclass" : "comment",
					"text" : "End(ms)",
					"numoutlets" : 0,
					"patching_rect" : [ 330.0, 135.0, 48.0, 18.0 ],
					"id" : "obj-27",
					"fontname" : "Arial",
					"numinlets" : 1,
					"fontsize" : 10.0
				}

			}
, 			{
				"box" : 				{
					"maxclass" : "comment",
					"text" : "Start(ms)",
					"numoutlets" : 0,
					"patching_rect" : [ 270.0, 135.0, 53.0, 18.0 ],
					"id" : "obj-28",
					"fontname" : "Arial",
					"numinlets" : 1,
					"fontsize" : 10.0
				}

			}
, 			{
				"box" : 				{
					"maxclass" : "flonum",
					"numoutlets" : 2,
					"patching_rect" : [ 390.0, 135.0, 50.0, 18.0 ],
					"outlettype" : [ "float", "bang" ],
					"id" : "obj-29",
					"fontname" : "Arial",
					"numinlets" : 1,
					"fontsize" : 10.0
				}

			}
, 			{
				"box" : 				{
					"maxclass" : "flonum",
					"numoutlets" : 2,
					"patching_rect" : [ 210.0, 135.0, 50.0, 18.0 ],
					"outlettype" : [ "float", "bang" ],
					"id" : "obj-30",
					"fontname" : "Arial",
					"numinlets" : 1,
					"fontsize" : 10.0
				}

			}
, 			{
				"box" : 				{
					"maxclass" : "message",
					"text" : "set sample",
					"numoutlets" : 1,
					"patching_rect" : [ 150.0, 105.0, 59.0, 16.0 ],
					"outlettype" : [ "" ],
					"id" : "obj-13",
					"fontname" : "Arial",
					"numinlets" : 2,
					"fontsize" : 10.0
				}

			}
, 			{
				"box" : 				{
					"maxclass" : "pictslider",
					"numoutlets" : 2,
					"topvalue" : 0,
					"movehorizontal" : 0,
					"patching_rect" : [ 135.0, 180.0, 14.0, 64.0 ],
					"outlettype" : [ "int", "int" ],
					"id" : "obj-9",
					"presentation" : 1,
					"rightvalue" : 0,
					"imagemask" : 1,
					"inactiveimage" : 0,
					"bottomvalue" : 3,
					"bkgndpict" : "wfmodes.pct",
					"numinlets" : 2,
					"presentation_rect" : [ 30.0, 75.0, 14.0, 75.0 ],
					"knobpict" : "wfknob.pct"
				}

			}
, 			{
				"box" : 				{
					"maxclass" : "newobj",
					"text" : "p wfkeys",
					"numoutlets" : 1,
					"patching_rect" : [ 75.0, 195.0, 54.0, 20.0 ],
					"outlettype" : [ "" ],
					"id" : "obj-7",
					"fontname" : "Arial",
					"numinlets" : 1,
					"fontsize" : 11.595187,
					"patcher" : 					{
						"fileversion" : 1,
						"rect" : [ 40.0, 55.0, 194.0, 323.0 ],
						"bglocked" : 0,
						"defrect" : [ 40.0, 55.0, 194.0, 323.0 ],
						"openrect" : [ 0.0, 0.0, 0.0, 0.0 ],
						"openinpresentation" : 0,
						"default_fontsize" : 10.0,
						"default_fontface" : 0,
						"default_fontname" : "Arial",
						"gridonopen" : 0,
						"gridsize" : [ 15.0, 15.0 ],
						"gridsnaponopen" : 0,
						"toolbarvisible" : 1,
						"boxanimatetime" : 200,
						"imprint" : 0,
						"metadata" : [  ],
						"boxes" : [ 							{
								"box" : 								{
									"maxclass" : "newobj",
									"text" : "|",
									"numoutlets" : 1,
									"patching_rect" : [ 81.0, 110.571426, 32.0, 20.0 ],
									"outlettype" : [ "int" ],
									"id" : "obj-3",
									"fontname" : "Arial",
									"numinlets" : 2,
									"fontsize" : 11.595187
								}

							}
, 							{
								"box" : 								{
									"maxclass" : "newobj",
									"text" : "int",
									"numoutlets" : 1,
									"patching_rect" : [ 81.0, 191.571426, 32.0, 20.0 ],
									"outlettype" : [ "int" ],
									"id" : "obj-1",
									"fontname" : "Arial",
									"numinlets" : 2,
									"fontsize" : 11.595187
								}

							}
, 							{
								"box" : 								{
									"maxclass" : "newobj",
									"text" : "coll",
									"numoutlets" : 4,
									"patching_rect" : [ 112.0, 231.571426, 59.0, 20.0 ],
									"outlettype" : [ "", "", "", "" ],
									"id" : "obj-2",
									"fontname" : "Arial",
									"numinlets" : 1,
									"fontsize" : 11.595187,
									"save" : [ "#N", "coll", ";", "#T", "flags", 1, 0, ";", "#T", 0, "mode", "select", ";", "#T", 1, "mode", "loop", ";", "#T", 2, "mode", "move", ";", "#T", 3, "mode", "draw", ";" ],
									"saved_object_attributes" : 									{
										"embed" : 1
									}

								}

							}
, 							{
								"box" : 								{
									"maxclass" : "inlet",
									"numoutlets" : 1,
									"patching_rect" : [ 18.0, 142.0, 25.0, 25.0 ],
									"outlettype" : [ "int" ],
									"id" : "obj-4",
									"numinlets" : 0,
									"comment" : "waveform~ mode messages"
								}

							}
, 							{
								"box" : 								{
									"maxclass" : "newobj",
									"text" : "<< 1",
									"numoutlets" : 1,
									"patching_rect" : [ 96.0, 56.571426, 34.0, 20.0 ],
									"outlettype" : [ "int" ],
									"id" : "obj-5",
									"fontname" : "Arial",
									"numinlets" : 2,
									"fontsize" : 11.595187
								}

							}
, 							{
								"box" : 								{
									"maxclass" : "newobj",
									"text" : "change",
									"numoutlets" : 3,
									"patching_rect" : [ 81.0, 137.571426, 49.0, 20.0 ],
									"outlettype" : [ "", "int", "int" ],
									"id" : "obj-6",
									"fontname" : "Arial",
									"numinlets" : 1,
									"fontsize" : 11.595187
								}

							}
, 							{
								"box" : 								{
									"maxclass" : "newobj",
									"text" : "select 0",
									"numoutlets" : 2,
									"patching_rect" : [ 81.0, 164.571426, 50.0, 20.0 ],
									"outlettype" : [ "bang", "" ],
									"id" : "obj-7",
									"fontname" : "Arial",
									"numinlets" : 2,
									"fontsize" : 11.595187
								}

							}
, 							{
								"box" : 								{
									"maxclass" : "newobj",
									"text" : "pak",
									"numoutlets" : 1,
									"patching_rect" : [ 81.0, 83.571426, 34.0, 20.0 ],
									"outlettype" : [ "" ],
									"id" : "obj-8",
									"fontname" : "Arial",
									"numinlets" : 2,
									"fontsize" : 11.595187
								}

							}
, 							{
								"box" : 								{
									"maxclass" : "outlet",
									"numoutlets" : 0,
									"patching_rect" : [ 112.0, 264.0, 25.0, 25.0 ],
									"id" : "obj-9",
									"numinlets" : 1,
									"comment" : ""
								}

							}
, 							{
								"box" : 								{
									"maxclass" : "newobj",
									"text" : "modifiers 100",
									"numoutlets" : 5,
									"patching_rect" : [ 35.0, 29.0, 80.0, 20.0 ],
									"outlettype" : [ "int", "int", "int", "int", "int" ],
									"id" : "obj-10",
									"fontname" : "Arial",
									"numinlets" : 1,
									"fontsize" : 11.595187
								}

							}
 ],
						"lines" : [ 							{
								"patchline" : 								{
									"source" : [ "obj-6", 0 ],
									"destination" : [ "obj-7", 0 ],
									"hidden" : 0,
									"midpoints" : [  ]
								}

							}
, 							{
								"patchline" : 								{
									"source" : [ "obj-4", 0 ],
									"destination" : [ "obj-1", 0 ],
									"hidden" : 0,
									"midpoints" : [  ]
								}

							}
, 							{
								"patchline" : 								{
									"source" : [ "obj-7", 0 ],
									"destination" : [ "obj-1", 0 ],
									"hidden" : 0,
									"midpoints" : [  ]
								}

							}
, 							{
								"patchline" : 								{
									"source" : [ "obj-10", 4 ],
									"destination" : [ "obj-5", 0 ],
									"hidden" : 0,
									"midpoints" : [  ]
								}

							}
, 							{
								"patchline" : 								{
									"source" : [ "obj-7", 1 ],
									"destination" : [ "obj-2", 0 ],
									"hidden" : 0,
									"midpoints" : [  ]
								}

							}
, 							{
								"patchline" : 								{
									"source" : [ "obj-1", 0 ],
									"destination" : [ "obj-2", 0 ],
									"hidden" : 0,
									"midpoints" : [  ]
								}

							}
, 							{
								"patchline" : 								{
									"source" : [ "obj-2", 0 ],
									"destination" : [ "obj-9", 0 ],
									"hidden" : 0,
									"midpoints" : [  ]
								}

							}
, 							{
								"patchline" : 								{
									"source" : [ "obj-5", 0 ],
									"destination" : [ "obj-8", 1 ],
									"hidden" : 0,
									"midpoints" : [  ]
								}

							}
, 							{
								"patchline" : 								{
									"source" : [ "obj-10", 3 ],
									"destination" : [ "obj-8", 0 ],
									"hidden" : 0,
									"midpoints" : [  ]
								}

							}
, 							{
								"patchline" : 								{
									"source" : [ "obj-8", 0 ],
									"destination" : [ "obj-3", 0 ],
									"hidden" : 0,
									"midpoints" : [  ]
								}

							}
, 							{
								"patchline" : 								{
									"source" : [ "obj-3", 0 ],
									"destination" : [ "obj-6", 0 ],
									"hidden" : 0,
									"midpoints" : [  ]
								}

							}
 ]
					}
,
					"saved_object_attributes" : 					{
						"default_fontsize" : 10.0,
						"globalpatchername" : "",
						"fontname" : "Arial",
						"default_fontface" : 0,
						"default_fontname" : "Arial",
						"fontface" : 0,
						"fontsize" : 10.0
					}

				}

			}
, 			{
				"box" : 				{
					"maxclass" : "waveform~",
					"numoutlets" : 6,
					"patching_rect" : [ 150.0, 180.0, 256.0, 64.0 ],
					"outlettype" : [ "float", "float", "float", "float", "list", "" ],
					"id" : "obj-4",
					"presentation" : 1,
					"setmode" : 1,
					"numinlets" : 5,
					"presentation_rect" : [ 45.0, 75.0, 266.0, 75.0 ],
					"buffername" : "sample",
					"textcolor" : [  ]
				}

			}
 ],
		"lines" : [ 			{
				"patchline" : 				{
					"source" : [ "obj-13", 0 ],
					"destination" : [ "obj-4", 0 ],
					"hidden" : 0,
					"midpoints" : [  ]
				}

			}
, 			{
				"patchline" : 				{
					"source" : [ "obj-7", 0 ],
					"destination" : [ "obj-4", 0 ],
					"hidden" : 0,
					"midpoints" : [  ]
				}

			}
, 			{
				"patchline" : 				{
					"source" : [ "obj-9", 0 ],
					"destination" : [ "obj-7", 0 ],
					"hidden" : 0,
					"midpoints" : [  ]
				}

			}
, 			{
				"patchline" : 				{
					"source" : [ "obj-25", 0 ],
					"destination" : [ "obj-26", 0 ],
					"hidden" : 0,
					"midpoints" : [  ]
				}

			}
, 			{
				"patchline" : 				{
					"source" : [ "obj-26", 1 ],
					"destination" : [ "obj-24", 0 ],
					"hidden" : 0,
					"midpoints" : [  ]
				}

			}
, 			{
				"patchline" : 				{
					"source" : [ "obj-24", 0 ],
					"destination" : [ "obj-30", 0 ],
					"hidden" : 0,
					"midpoints" : [  ]
				}

			}
, 			{
				"patchline" : 				{
					"source" : [ "obj-24", 1 ],
					"destination" : [ "obj-29", 0 ],
					"hidden" : 0,
					"midpoints" : [  ]
				}

			}
, 			{
				"patchline" : 				{
					"source" : [ "obj-23", 0 ],
					"destination" : [ "obj-24", 1 ],
					"hidden" : 0,
					"midpoints" : [  ]
				}

			}
, 			{
				"patchline" : 				{
					"source" : [ "obj-21", 0 ],
					"destination" : [ "obj-24", 2 ],
					"hidden" : 0,
					"midpoints" : [  ]
				}

			}
, 			{
				"patchline" : 				{
					"source" : [ "obj-19", 0 ],
					"destination" : [ "obj-24", 3 ],
					"hidden" : 0,
					"midpoints" : [  ]
				}

			}
, 			{
				"patchline" : 				{
					"source" : [ "obj-35", 0 ],
					"destination" : [ "obj-36", 0 ],
					"hidden" : 0,
					"midpoints" : [  ]
				}

			}
, 			{
				"patchline" : 				{
					"source" : [ "obj-34", 0 ],
					"destination" : [ "obj-35", 0 ],
					"hidden" : 0,
					"midpoints" : [  ]
				}

			}
, 			{
				"patchline" : 				{
					"source" : [ "obj-32", 0 ],
					"destination" : [ "obj-33", 0 ],
					"hidden" : 0,
					"midpoints" : [  ]
				}

			}
, 			{
				"patchline" : 				{
					"source" : [ "obj-36", 0 ],
					"destination" : [ "obj-31", 0 ],
					"hidden" : 0,
					"midpoints" : [  ]
				}

			}
, 			{
				"patchline" : 				{
					"source" : [ "obj-36", 0 ],
					"destination" : [ "obj-31", 1 ],
					"hidden" : 0,
					"midpoints" : [  ]
				}

			}
, 			{
				"patchline" : 				{
					"source" : [ "obj-33", 0 ],
					"destination" : [ "obj-36", 0 ],
					"hidden" : 0,
					"midpoints" : [  ]
				}

			}
, 			{
				"patchline" : 				{
					"source" : [ "obj-4", 2 ],
					"destination" : [ "obj-36", 1 ],
					"hidden" : 0,
					"midpoints" : [  ]
				}

			}
, 			{
				"patchline" : 				{
					"source" : [ "obj-4", 3 ],
					"destination" : [ "obj-36", 2 ],
					"hidden" : 0,
					"midpoints" : [  ]
				}

			}
, 			{
				"patchline" : 				{
					"source" : [ "obj-29", 0 ],
					"destination" : [ "obj-4", 3 ],
					"hidden" : 0,
					"midpoints" : [ 399.5, 165.0, 337.25, 165.0 ]
				}

			}
, 			{
				"patchline" : 				{
					"source" : [ "obj-30", 0 ],
					"destination" : [ "obj-4", 2 ],
					"hidden" : 0,
					"midpoints" : [ 219.5, 165.0, 278.0, 165.0 ]
				}

			}
 ]
	}

}
