{
	"patcher" : 	{
		"fileversion" : 1,
		"rect" : [ 53.0, 44.0, 1227.0, 730.0 ],
		"bglocked" : 0,
		"defrect" : [ 53.0, 44.0, 1227.0, 730.0 ],
		"openrect" : [ 0.0, 0.0, 0.0, 0.0 ],
		"openinpresentation" : 0,
		"default_fontsize" : 10.0,
		"default_fontface" : 0,
		"default_fontname" : "Arial",
		"gridonopen" : 0,
		"gridsize" : [ 15.0, 15.0 ],
		"gridsnaponopen" : 0,
		"toolbarvisible" : 1,
		"boxanimatetime" : 200,
		"imprint" : 0,
		"metadata" : [  ],
		"boxes" : [ 			{
				"box" : 				{
					"maxclass" : "message",
					"text" : "startloop",
					"numoutlets" : 1,
					"patching_rect" : [ 170.0, 501.0, 49.0, 16.0 ],
					"outlettype" : [ "" ],
					"id" : "obj-29",
					"fontname" : "Arial",
					"numinlets" : 2,
					"fontsize" : 10.0
				}

			}
, 			{
				"box" : 				{
					"maxclass" : "newobj",
					"text" : "t b f",
					"numoutlets" : 2,
					"patching_rect" : [ 457.0, 326.0, 32.5, 18.0 ],
					"outlettype" : [ "bang", "float" ],
					"id" : "obj-27",
					"fontname" : "Arial",
					"numinlets" : 1,
					"fontsize" : 10.0
				}

			}
, 			{
				"box" : 				{
					"maxclass" : "flonum",
					"numoutlets" : 2,
					"patching_rect" : [ 528.0, 331.0, 50.0, 18.0 ],
					"outlettype" : [ "float", "bang" ],
					"id" : "obj-25",
					"fontname" : "Arial",
					"numinlets" : 1,
					"fontsize" : 10.0
				}

			}
, 			{
				"box" : 				{
					"maxclass" : "button",
					"numoutlets" : 1,
					"patching_rect" : [ 600.0, 320.0, 20.0, 20.0 ],
					"outlettype" : [ "bang" ],
					"id" : "obj-23",
					"numinlets" : 1
				}

			}
, 			{
				"box" : 				{
					"maxclass" : "flonum",
					"numoutlets" : 2,
					"patching_rect" : [ 625.0, 241.0, 50.0, 18.0 ],
					"outlettype" : [ "float", "bang" ],
					"id" : "obj-21",
					"fontname" : "Arial",
					"numinlets" : 1,
					"fontsize" : 10.0
				}

			}
, 			{
				"box" : 				{
					"maxclass" : "flonum",
					"numoutlets" : 2,
					"patching_rect" : [ 564.0, 242.0, 50.0, 18.0 ],
					"outlettype" : [ "float", "bang" ],
					"id" : "obj-19",
					"fontname" : "Arial",
					"numinlets" : 1,
					"fontsize" : 10.0
				}

			}
, 			{
				"box" : 				{
					"maxclass" : "newobj",
					"text" : "line",
					"numoutlets" : 3,
					"patching_rect" : [ 553.0, 280.0, 46.0, 18.0 ],
					"outlettype" : [ "", "", "" ],
					"id" : "obj-17",
					"fontname" : "Arial",
					"numinlets" : 3,
					"fontsize" : 10.0
				}

			}
, 			{
				"box" : 				{
					"maxclass" : "newobj",
					"text" : "t b f f",
					"numoutlets" : 3,
					"patching_rect" : [ 353.0, 304.0, 46.0, 18.0 ],
					"outlettype" : [ "bang", "float", "float" ],
					"id" : "obj-78",
					"fontname" : "Arial",
					"numinlets" : 1,
					"fontsize" : 10.0
				}

			}
, 			{
				"box" : 				{
					"maxclass" : "newobj",
					"text" : "t f f",
					"numoutlets" : 2,
					"patching_rect" : [ 390.0, 218.0, 32.5, 18.0 ],
					"outlettype" : [ "float", "float" ],
					"id" : "obj-76",
					"fontname" : "Arial",
					"numinlets" : 1,
					"fontsize" : 10.0
				}

			}
, 			{
				"box" : 				{
					"maxclass" : "newobj",
					"text" : "+ 1.",
					"numoutlets" : 1,
					"patching_rect" : [ 380.0, 338.0, 32.5, 18.0 ],
					"outlettype" : [ "float" ],
					"id" : "obj-74",
					"fontname" : "Arial",
					"numinlets" : 2,
					"fontsize" : 10.0
				}

			}
, 			{
				"box" : 				{
					"maxclass" : "button",
					"numoutlets" : 1,
					"patching_rect" : [ 319.0, 137.0, 20.0, 20.0 ],
					"outlettype" : [ "bang" ],
					"id" : "obj-68",
					"numinlets" : 1
				}

			}
, 			{
				"box" : 				{
					"maxclass" : "flonum",
					"numoutlets" : 2,
					"patching_rect" : [ 347.0, 273.0, 50.0, 18.0 ],
					"outlettype" : [ "float", "bang" ],
					"id" : "obj-53",
					"fontname" : "Arial",
					"numinlets" : 1,
					"fontsize" : 10.0
				}

			}
, 			{
				"box" : 				{
					"maxclass" : "newobj",
					"text" : "+ 1.",
					"numoutlets" : 1,
					"patching_rect" : [ 324.0, 189.0, 32.5, 18.0 ],
					"outlettype" : [ "float" ],
					"id" : "obj-50",
					"fontname" : "Arial",
					"numinlets" : 2,
					"fontsize" : 10.0
				}

			}
, 			{
				"box" : 				{
					"maxclass" : "newobj",
					"text" : "random 15",
					"numoutlets" : 1,
					"patching_rect" : [ 320.0, 161.0, 58.0, 18.0 ],
					"outlettype" : [ "int" ],
					"id" : "obj-49",
					"fontname" : "Arial",
					"numinlets" : 2,
					"fontsize" : 10.0
				}

			}
, 			{
				"box" : 				{
					"maxclass" : "newobj",
					"text" : "* 1.",
					"numoutlets" : 1,
					"patching_rect" : [ 349.0, 248.0, 32.5, 18.0 ],
					"outlettype" : [ "float" ],
					"id" : "obj-48",
					"fontname" : "Arial",
					"numinlets" : 2,
					"fontsize" : 10.0
				}

			}
, 			{
				"box" : 				{
					"maxclass" : "flonum",
					"numoutlets" : 2,
					"patching_rect" : [ 389.0, 189.0, 50.0, 18.0 ],
					"outlettype" : [ "float", "bang" ],
					"id" : "obj-41",
					"fontname" : "Arial",
					"numinlets" : 1,
					"fontsize" : 10.0
				}

			}
, 			{
				"box" : 				{
					"maxclass" : "comment",
					"text" : "Length of one piece",
					"numoutlets" : 0,
					"patching_rect" : [ 450.0, 190.0, 150.0, 18.0 ],
					"id" : "obj-39",
					"fontname" : "Arial",
					"numinlets" : 1,
					"fontsize" : 10.0
				}

			}
, 			{
				"box" : 				{
					"maxclass" : "comment",
					"text" : "cuts the sample into 16 pieces",
					"numoutlets" : 0,
					"patching_rect" : [ 450.0, 160.0, 150.0, 18.0 ],
					"id" : "obj-37",
					"fontname" : "Arial",
					"numinlets" : 1,
					"fontsize" : 10.0
				}

			}
, 			{
				"box" : 				{
					"maxclass" : "newobj",
					"text" : "/ 16.",
					"numoutlets" : 1,
					"patching_rect" : [ 388.0, 159.0, 32.5, 18.0 ],
					"outlettype" : [ "float" ],
					"id" : "obj-35",
					"fontname" : "Arial",
					"numinlets" : 2,
					"fontsize" : 10.0
				}

			}
, 			{
				"box" : 				{
					"maxclass" : "ezdac~",
					"numoutlets" : 0,
					"patching_rect" : [ 126.0, 584.0, 45.0, 45.0 ],
					"id" : "obj-16",
					"numinlets" : 2
				}

			}
, 			{
				"box" : 				{
					"maxclass" : "pictslider",
					"numoutlets" : 2,
					"topvalue" : 0,
					"bkgndpict" : "wfmodes.pct",
					"patching_rect" : [ 196.0, 408.0, 14.0, 74.0 ],
					"outlettype" : [ "int", "int" ],
					"id" : "obj-111",
					"bottomvalue" : 3,
					"knobpict" : "wfknob.pct",
					"imagemask" : 1,
					"inactiveimage" : 0,
					"numinlets" : 2,
					"movehorizontal" : 0,
					"rightvalue" : 0
				}

			}
, 			{
				"box" : 				{
					"maxclass" : "comment",
					"text" : "End(ms)",
					"numoutlets" : 0,
					"patching_rect" : [ 439.0, 384.0, 48.0, 18.0 ],
					"id" : "obj-110",
					"fontname" : "Arial",
					"numinlets" : 1,
					"fontsize" : 10.0
				}

			}
, 			{
				"box" : 				{
					"maxclass" : "comment",
					"text" : "Start(ms)",
					"numoutlets" : 0,
					"patching_rect" : [ 276.0, 382.0, 53.0, 18.0 ],
					"id" : "obj-106",
					"fontname" : "Arial",
					"numinlets" : 1,
					"fontsize" : 10.0
				}

			}
, 			{
				"box" : 				{
					"maxclass" : "flonum",
					"numoutlets" : 2,
					"patching_rect" : [ 388.0, 383.0, 50.0, 18.0 ],
					"outlettype" : [ "float", "bang" ],
					"id" : "obj-100",
					"fontname" : "Arial",
					"numinlets" : 1,
					"fontsize" : 10.0
				}

			}
, 			{
				"box" : 				{
					"maxclass" : "flonum",
					"numoutlets" : 2,
					"patching_rect" : [ 328.0, 383.0, 50.0, 18.0 ],
					"outlettype" : [ "float", "bang" ],
					"id" : "obj-98",
					"fontname" : "Arial",
					"numinlets" : 1,
					"fontsize" : 10.0
				}

			}
, 			{
				"box" : 				{
					"maxclass" : "waveform~",
					"numoutlets" : 6,
					"patching_rect" : [ 212.0, 408.0, 253.0, 74.0 ],
					"outlettype" : [ "float", "float", "float", "float", "list", "" ],
					"id" : "obj-86",
					"presentation" : 1,
					"setmode" : 1,
					"buffername" : "sample",
					"numinlets" : 5,
					"presentation_rect" : [ 45.0, 120.0, 253.0, 74.0 ],
					"textcolor" : [  ]
				}

			}
, 			{
				"box" : 				{
					"maxclass" : "newobj",
					"text" : "p wfkeys",
					"numoutlets" : 1,
					"patching_rect" : [ 211.0, 453.0, 54.0, 20.0 ],
					"outlettype" : [ "" ],
					"id" : "obj-15",
					"hidden" : 1,
					"fontname" : "Arial",
					"numinlets" : 1,
					"fontsize" : 11.595187,
					"patcher" : 					{
						"fileversion" : 1,
						"rect" : [ 40.0, 55.0, 194.0, 323.0 ],
						"bglocked" : 0,
						"defrect" : [ 40.0, 55.0, 194.0, 323.0 ],
						"openrect" : [ 0.0, 0.0, 0.0, 0.0 ],
						"openinpresentation" : 0,
						"default_fontsize" : 10.0,
						"default_fontface" : 0,
						"default_fontname" : "Arial",
						"gridonopen" : 0,
						"gridsize" : [ 15.0, 15.0 ],
						"gridsnaponopen" : 0,
						"toolbarvisible" : 1,
						"boxanimatetime" : 200,
						"imprint" : 0,
						"metadata" : [  ],
						"boxes" : [ 							{
								"box" : 								{
									"maxclass" : "newobj",
									"text" : "|",
									"numoutlets" : 1,
									"patching_rect" : [ 81.0, 110.571426, 32.0, 20.0 ],
									"outlettype" : [ "int" ],
									"id" : "obj-3",
									"fontname" : "Arial",
									"numinlets" : 2,
									"fontsize" : 11.595187
								}

							}
, 							{
								"box" : 								{
									"maxclass" : "newobj",
									"text" : "int",
									"numoutlets" : 1,
									"patching_rect" : [ 81.0, 191.571426, 32.0, 20.0 ],
									"outlettype" : [ "int" ],
									"id" : "obj-1",
									"fontname" : "Arial",
									"numinlets" : 2,
									"fontsize" : 11.595187
								}

							}
, 							{
								"box" : 								{
									"maxclass" : "newobj",
									"text" : "coll",
									"numoutlets" : 4,
									"patching_rect" : [ 112.0, 231.571426, 59.0, 20.0 ],
									"outlettype" : [ "", "", "", "" ],
									"id" : "obj-2",
									"fontname" : "Arial",
									"numinlets" : 1,
									"fontsize" : 11.595187,
									"save" : [ "#N", "coll", ";", "#T", "flags", 1, 0, ";", "#T", 0, "mode", "select", ";", "#T", 1, "mode", "loop", ";", "#T", 2, "mode", "move", ";", "#T", 3, "mode", "draw", ";" ],
									"saved_object_attributes" : 									{
										"embed" : 1
									}

								}

							}
, 							{
								"box" : 								{
									"maxclass" : "inlet",
									"numoutlets" : 1,
									"patching_rect" : [ 18.0, 142.0, 25.0, 25.0 ],
									"outlettype" : [ "int" ],
									"id" : "obj-4",
									"numinlets" : 0,
									"comment" : "waveform~ mode messages"
								}

							}
, 							{
								"box" : 								{
									"maxclass" : "newobj",
									"text" : "<< 1",
									"numoutlets" : 1,
									"patching_rect" : [ 96.0, 56.571426, 34.0, 20.0 ],
									"outlettype" : [ "int" ],
									"id" : "obj-5",
									"fontname" : "Arial",
									"numinlets" : 2,
									"fontsize" : 11.595187
								}

							}
, 							{
								"box" : 								{
									"maxclass" : "newobj",
									"text" : "change",
									"numoutlets" : 3,
									"patching_rect" : [ 81.0, 137.571426, 49.0, 20.0 ],
									"outlettype" : [ "", "int", "int" ],
									"id" : "obj-6",
									"fontname" : "Arial",
									"numinlets" : 1,
									"fontsize" : 11.595187
								}

							}
, 							{
								"box" : 								{
									"maxclass" : "newobj",
									"text" : "select 0",
									"numoutlets" : 2,
									"patching_rect" : [ 81.0, 164.571426, 50.0, 20.0 ],
									"outlettype" : [ "bang", "" ],
									"id" : "obj-7",
									"fontname" : "Arial",
									"numinlets" : 2,
									"fontsize" : 11.595187
								}

							}
, 							{
								"box" : 								{
									"maxclass" : "newobj",
									"text" : "pak",
									"numoutlets" : 1,
									"patching_rect" : [ 81.0, 83.571426, 34.0, 20.0 ],
									"outlettype" : [ "" ],
									"id" : "obj-8",
									"fontname" : "Arial",
									"numinlets" : 2,
									"fontsize" : 11.595187
								}

							}
, 							{
								"box" : 								{
									"maxclass" : "outlet",
									"numoutlets" : 0,
									"patching_rect" : [ 112.0, 264.0, 25.0, 25.0 ],
									"id" : "obj-9",
									"numinlets" : 1,
									"comment" : ""
								}

							}
, 							{
								"box" : 								{
									"maxclass" : "newobj",
									"text" : "modifiers 100",
									"numoutlets" : 5,
									"patching_rect" : [ 35.0, 29.0, 80.0, 20.0 ],
									"outlettype" : [ "int", "int", "int", "int", "int" ],
									"id" : "obj-10",
									"fontname" : "Arial",
									"numinlets" : 1,
									"fontsize" : 11.595187
								}

							}
 ],
						"lines" : [ 							{
								"patchline" : 								{
									"source" : [ "obj-3", 0 ],
									"destination" : [ "obj-6", 0 ],
									"hidden" : 0,
									"midpoints" : [  ]
								}

							}
, 							{
								"patchline" : 								{
									"source" : [ "obj-8", 0 ],
									"destination" : [ "obj-3", 0 ],
									"hidden" : 0,
									"midpoints" : [  ]
								}

							}
, 							{
								"patchline" : 								{
									"source" : [ "obj-10", 3 ],
									"destination" : [ "obj-8", 0 ],
									"hidden" : 0,
									"midpoints" : [  ]
								}

							}
, 							{
								"patchline" : 								{
									"source" : [ "obj-5", 0 ],
									"destination" : [ "obj-8", 1 ],
									"hidden" : 0,
									"midpoints" : [  ]
								}

							}
, 							{
								"patchline" : 								{
									"source" : [ "obj-2", 0 ],
									"destination" : [ "obj-9", 0 ],
									"hidden" : 0,
									"midpoints" : [  ]
								}

							}
, 							{
								"patchline" : 								{
									"source" : [ "obj-1", 0 ],
									"destination" : [ "obj-2", 0 ],
									"hidden" : 0,
									"midpoints" : [  ]
								}

							}
, 							{
								"patchline" : 								{
									"source" : [ "obj-7", 1 ],
									"destination" : [ "obj-2", 0 ],
									"hidden" : 0,
									"midpoints" : [  ]
								}

							}
, 							{
								"patchline" : 								{
									"source" : [ "obj-10", 4 ],
									"destination" : [ "obj-5", 0 ],
									"hidden" : 0,
									"midpoints" : [  ]
								}

							}
, 							{
								"patchline" : 								{
									"source" : [ "obj-7", 0 ],
									"destination" : [ "obj-1", 0 ],
									"hidden" : 0,
									"midpoints" : [  ]
								}

							}
, 							{
								"patchline" : 								{
									"source" : [ "obj-4", 0 ],
									"destination" : [ "obj-1", 0 ],
									"hidden" : 0,
									"midpoints" : [  ]
								}

							}
, 							{
								"patchline" : 								{
									"source" : [ "obj-6", 0 ],
									"destination" : [ "obj-7", 0 ],
									"hidden" : 0,
									"midpoints" : [  ]
								}

							}
 ]
					}
,
					"saved_object_attributes" : 					{
						"default_fontsize" : 10.0,
						"globalpatchername" : "",
						"fontname" : "Arial",
						"default_fontface" : 0,
						"default_fontname" : "Arial",
						"fontface" : 0,
						"fontsize" : 10.0
					}

				}

			}
, 			{
				"box" : 				{
					"maxclass" : "message",
					"text" : "set sample",
					"numoutlets" : 1,
					"patching_rect" : [ 212.0, 380.0, 59.0, 16.0 ],
					"outlettype" : [ "" ],
					"id" : "obj-14",
					"fontname" : "Arial",
					"numinlets" : 2,
					"fontsize" : 10.0
				}

			}
, 			{
				"box" : 				{
					"maxclass" : "newobj",
					"text" : "loadbang",
					"numoutlets" : 1,
					"patching_rect" : [ 63.0, 464.0, 52.0, 18.0 ],
					"outlettype" : [ "bang" ],
					"id" : "obj-11",
					"fontname" : "Arial",
					"numinlets" : 1,
					"fontsize" : 10.0
				}

			}
, 			{
				"box" : 				{
					"maxclass" : "message",
					"text" : "loop 1",
					"numoutlets" : 1,
					"patching_rect" : [ 64.0, 487.0, 38.0, 16.0 ],
					"outlettype" : [ "" ],
					"id" : "obj-10",
					"fontname" : "Arial",
					"numinlets" : 2,
					"fontsize" : 10.0
				}

			}
, 			{
				"box" : 				{
					"maxclass" : "toggle",
					"numoutlets" : 1,
					"patching_rect" : [ 132.0, 462.0, 20.0, 20.0 ],
					"outlettype" : [ "int" ],
					"id" : "obj-8",
					"numinlets" : 1
				}

			}
, 			{
				"box" : 				{
					"maxclass" : "newobj",
					"text" : "sig~",
					"numoutlets" : 1,
					"patching_rect" : [ 136.0, 491.0, 29.0, 18.0 ],
					"outlettype" : [ "signal" ],
					"id" : "obj-6",
					"fontname" : "Arial",
					"numinlets" : 1,
					"fontsize" : 10.0
				}

			}
, 			{
				"box" : 				{
					"maxclass" : "message",
					"text" : "read",
					"numoutlets" : 1,
					"patching_rect" : [ 249.0, 44.0, 32.5, 16.0 ],
					"outlettype" : [ "" ],
					"id" : "obj-5",
					"fontname" : "Arial",
					"numinlets" : 2,
					"fontsize" : 10.0
				}

			}
, 			{
				"box" : 				{
					"maxclass" : "newobj",
					"text" : "info~ sample",
					"numoutlets" : 8,
					"patching_rect" : [ 300.0, 110.0, 113.5, 18.0 ],
					"outlettype" : [ "float", "list", "float", "float", "float", "float", "float", "" ],
					"id" : "obj-3",
					"fontname" : "Arial",
					"numinlets" : 1,
					"fontsize" : 10.0
				}

			}
, 			{
				"box" : 				{
					"maxclass" : "newobj",
					"text" : "buffer~ sample",
					"numoutlets" : 2,
					"patching_rect" : [ 242.0, 79.0, 77.0, 18.0 ],
					"outlettype" : [ "float", "bang" ],
					"id" : "obj-2",
					"fontname" : "Arial",
					"numinlets" : 1,
					"fontsize" : 10.0
				}

			}
, 			{
				"box" : 				{
					"maxclass" : "newobj",
					"text" : "groove~ sample",
					"numoutlets" : 2,
					"patching_rect" : [ 137.0, 553.0, 82.0, 18.0 ],
					"outlettype" : [ "signal", "signal" ],
					"id" : "obj-1",
					"fontname" : "Arial",
					"numinlets" : 3,
					"fontsize" : 10.0
				}

			}
 ],
		"lines" : [ 			{
				"patchline" : 				{
					"source" : [ "obj-29", 0 ],
					"destination" : [ "obj-1", 0 ],
					"hidden" : 0,
					"midpoints" : [  ]
				}

			}
, 			{
				"patchline" : 				{
					"source" : [ "obj-27", 0 ],
					"destination" : [ "obj-19", 0 ],
					"hidden" : 0,
					"midpoints" : [  ]
				}

			}
, 			{
				"patchline" : 				{
					"source" : [ "obj-27", 1 ],
					"destination" : [ "obj-17", 0 ],
					"hidden" : 0,
					"midpoints" : [  ]
				}

			}
, 			{
				"patchline" : 				{
					"source" : [ "obj-74", 0 ],
					"destination" : [ "obj-27", 0 ],
					"hidden" : 0,
					"midpoints" : [  ]
				}

			}
, 			{
				"patchline" : 				{
					"source" : [ "obj-25", 0 ],
					"destination" : [ "obj-100", 0 ],
					"hidden" : 0,
					"midpoints" : [  ]
				}

			}
, 			{
				"patchline" : 				{
					"source" : [ "obj-17", 0 ],
					"destination" : [ "obj-25", 0 ],
					"hidden" : 0,
					"midpoints" : [  ]
				}

			}
, 			{
				"patchline" : 				{
					"source" : [ "obj-17", 1 ],
					"destination" : [ "obj-23", 0 ],
					"hidden" : 0,
					"midpoints" : [  ]
				}

			}
, 			{
				"patchline" : 				{
					"source" : [ "obj-21", 0 ],
					"destination" : [ "obj-17", 2 ],
					"hidden" : 0,
					"midpoints" : [  ]
				}

			}
, 			{
				"patchline" : 				{
					"source" : [ "obj-19", 0 ],
					"destination" : [ "obj-17", 1 ],
					"hidden" : 0,
					"midpoints" : [  ]
				}

			}
, 			{
				"patchline" : 				{
					"source" : [ "obj-78", 1 ],
					"destination" : [ "obj-98", 0 ],
					"hidden" : 0,
					"midpoints" : [  ]
				}

			}
, 			{
				"patchline" : 				{
					"source" : [ "obj-3", 6 ],
					"destination" : [ "obj-35", 0 ],
					"hidden" : 0,
					"midpoints" : [  ]
				}

			}
, 			{
				"patchline" : 				{
					"source" : [ "obj-35", 0 ],
					"destination" : [ "obj-41", 0 ],
					"hidden" : 0,
					"midpoints" : [  ]
				}

			}
, 			{
				"patchline" : 				{
					"source" : [ "obj-50", 0 ],
					"destination" : [ "obj-48", 0 ],
					"hidden" : 0,
					"midpoints" : [  ]
				}

			}
, 			{
				"patchline" : 				{
					"source" : [ "obj-48", 0 ],
					"destination" : [ "obj-53", 0 ],
					"hidden" : 0,
					"midpoints" : [  ]
				}

			}
, 			{
				"patchline" : 				{
					"source" : [ "obj-41", 0 ],
					"destination" : [ "obj-76", 0 ],
					"hidden" : 0,
					"midpoints" : [  ]
				}

			}
, 			{
				"patchline" : 				{
					"source" : [ "obj-76", 0 ],
					"destination" : [ "obj-48", 1 ],
					"hidden" : 0,
					"midpoints" : [  ]
				}

			}
, 			{
				"patchline" : 				{
					"source" : [ "obj-76", 1 ],
					"destination" : [ "obj-74", 1 ],
					"hidden" : 0,
					"midpoints" : [  ]
				}

			}
, 			{
				"patchline" : 				{
					"source" : [ "obj-53", 0 ],
					"destination" : [ "obj-78", 0 ],
					"hidden" : 0,
					"midpoints" : [  ]
				}

			}
, 			{
				"patchline" : 				{
					"source" : [ "obj-78", 2 ],
					"destination" : [ "obj-74", 0 ],
					"hidden" : 0,
					"midpoints" : [  ]
				}

			}
, 			{
				"patchline" : 				{
					"source" : [ "obj-78", 0 ],
					"destination" : [ "obj-74", 0 ],
					"hidden" : 0,
					"midpoints" : [  ]
				}

			}
, 			{
				"patchline" : 				{
					"source" : [ "obj-49", 0 ],
					"destination" : [ "obj-50", 0 ],
					"hidden" : 0,
					"midpoints" : [  ]
				}

			}
, 			{
				"patchline" : 				{
					"source" : [ "obj-68", 0 ],
					"destination" : [ "obj-49", 0 ],
					"hidden" : 0,
					"midpoints" : [  ]
				}

			}
, 			{
				"patchline" : 				{
					"source" : [ "obj-1", 0 ],
					"destination" : [ "obj-16", 1 ],
					"hidden" : 0,
					"midpoints" : [  ]
				}

			}
, 			{
				"patchline" : 				{
					"source" : [ "obj-1", 0 ],
					"destination" : [ "obj-16", 0 ],
					"hidden" : 0,
					"midpoints" : [  ]
				}

			}
, 			{
				"patchline" : 				{
					"source" : [ "obj-86", 3 ],
					"destination" : [ "obj-1", 2 ],
					"hidden" : 0,
					"midpoints" : [  ]
				}

			}
, 			{
				"patchline" : 				{
					"source" : [ "obj-86", 2 ],
					"destination" : [ "obj-1", 1 ],
					"hidden" : 0,
					"midpoints" : [  ]
				}

			}
, 			{
				"patchline" : 				{
					"source" : [ "obj-14", 0 ],
					"destination" : [ "obj-86", 0 ],
					"hidden" : 0,
					"midpoints" : [  ]
				}

			}
, 			{
				"patchline" : 				{
					"source" : [ "obj-15", 0 ],
					"destination" : [ "obj-86", 0 ],
					"hidden" : 0,
					"midpoints" : [  ]
				}

			}
, 			{
				"patchline" : 				{
					"source" : [ "obj-111", 1 ],
					"destination" : [ "obj-15", 0 ],
					"hidden" : 1,
					"midpoints" : [  ]
				}

			}
, 			{
				"patchline" : 				{
					"source" : [ "obj-100", 0 ],
					"destination" : [ "obj-86", 3 ],
					"hidden" : 0,
					"midpoints" : [  ]
				}

			}
, 			{
				"patchline" : 				{
					"source" : [ "obj-98", 0 ],
					"destination" : [ "obj-86", 2 ],
					"hidden" : 0,
					"midpoints" : [  ]
				}

			}
, 			{
				"patchline" : 				{
					"source" : [ "obj-11", 0 ],
					"destination" : [ "obj-10", 0 ],
					"hidden" : 0,
					"midpoints" : [  ]
				}

			}
, 			{
				"patchline" : 				{
					"source" : [ "obj-10", 0 ],
					"destination" : [ "obj-1", 0 ],
					"hidden" : 0,
					"midpoints" : [  ]
				}

			}
, 			{
				"patchline" : 				{
					"source" : [ "obj-8", 0 ],
					"destination" : [ "obj-6", 0 ],
					"hidden" : 0,
					"midpoints" : [  ]
				}

			}
, 			{
				"patchline" : 				{
					"source" : [ "obj-6", 0 ],
					"destination" : [ "obj-1", 0 ],
					"hidden" : 0,
					"midpoints" : [  ]
				}

			}
, 			{
				"patchline" : 				{
					"source" : [ "obj-5", 0 ],
					"destination" : [ "obj-2", 0 ],
					"hidden" : 0,
					"midpoints" : [  ]
				}

			}
, 			{
				"patchline" : 				{
					"source" : [ "obj-2", 1 ],
					"destination" : [ "obj-3", 0 ],
					"hidden" : 0,
					"midpoints" : [  ]
				}

			}
 ]
	}

}
