{
	"patcher" : 	{
		"fileversion" : 1,
		"rect" : [ 78.0, 69.0, 640.0, 506.0 ],
		"bglocked" : 0,
		"defrect" : [ 78.0, 69.0, 640.0, 506.0 ],
		"openrect" : [ 0.0, 0.0, 0.0, 0.0 ],
		"openinpresentation" : 0,
		"default_fontsize" : 10.0,
		"default_fontface" : 0,
		"default_fontname" : "Arial",
		"gridonopen" : 0,
		"gridsize" : [ 15.0, 15.0 ],
		"gridsnaponopen" : 0,
		"toolbarvisible" : 1,
		"boxanimatetime" : 200,
		"imprint" : 0,
		"metadata" : [  ],
		"boxes" : [ 			{
				"box" : 				{
					"maxclass" : "newobj",
					"text" : "select 1",
					"numoutlets" : 2,
					"outlettype" : [ "bang", "" ],
					"id" : "obj-32",
					"fontname" : "Arial",
					"patching_rect" : [ 165.0, 165.0, 45.0, 18.0 ],
					"fontsize" : 10.0,
					"numinlets" : 2
				}

			}
, 			{
				"box" : 				{
					"maxclass" : "button",
					"numoutlets" : 1,
					"outlettype" : [ "bang" ],
					"id" : "obj-31",
					"patching_rect" : [ 105.0, 90.0, 20.0, 20.0 ],
					"numinlets" : 1
				}

			}
, 			{
				"box" : 				{
					"maxclass" : "newobj",
					"text" : "p Synth",
					"numoutlets" : 1,
					"outlettype" : [ "signal" ],
					"id" : "obj-29",
					"fontname" : "Arial",
					"patching_rect" : [ 75.0, 255.0, 109.0, 18.0 ],
					"fontsize" : 10.0,
					"numinlets" : 3,
					"patcher" : 					{
						"fileversion" : 1,
						"rect" : [ 652.0, 90.0, 478.0, 479.0 ],
						"bglocked" : 0,
						"defrect" : [ 652.0, 90.0, 478.0, 479.0 ],
						"openrect" : [ 0.0, 0.0, 0.0, 0.0 ],
						"openinpresentation" : 0,
						"default_fontsize" : 10.0,
						"default_fontface" : 0,
						"default_fontname" : "Arial",
						"gridonopen" : 0,
						"gridsize" : [ 15.0, 15.0 ],
						"gridsnaponopen" : 0,
						"toolbarvisible" : 1,
						"boxanimatetime" : 200,
						"imprint" : 0,
						"metadata" : [  ],
						"boxes" : [ 							{
								"box" : 								{
									"maxclass" : "message",
									"text" : "clear",
									"numoutlets" : 1,
									"outlettype" : [ "" ],
									"id" : "obj-9",
									"fontname" : "Arial",
									"patching_rect" : [ 416.0, 129.0, 32.5, 16.0 ],
									"fontsize" : 10.0,
									"numinlets" : 2
								}

							}
, 							{
								"box" : 								{
									"maxclass" : "number",
									"numoutlets" : 2,
									"outlettype" : [ "int", "bang" ],
									"id" : "obj-7",
									"fontname" : "Arial",
									"patching_rect" : [ 342.0, 57.0, 50.0, 18.0 ],
									"fontsize" : 10.0,
									"numinlets" : 1
								}

							}
, 							{
								"box" : 								{
									"maxclass" : "inlet",
									"numoutlets" : 1,
									"outlettype" : [ "bang" ],
									"id" : "obj-5",
									"patching_rect" : [ 270.0, 90.0, 25.0, 25.0 ],
									"numinlets" : 0,
									"comment" : ""
								}

							}
, 							{
								"box" : 								{
									"maxclass" : "inlet",
									"numoutlets" : 1,
									"outlettype" : [ "" ],
									"id" : "obj-4",
									"patching_rect" : [ 150.0, 180.0, 25.0, 25.0 ],
									"numinlets" : 0,
									"comment" : ""
								}

							}
, 							{
								"box" : 								{
									"maxclass" : "inlet",
									"numoutlets" : 1,
									"outlettype" : [ "" ],
									"id" : "obj-2",
									"patching_rect" : [ 75.0, 180.0, 25.0, 25.0 ],
									"numinlets" : 0,
									"comment" : ""
								}

							}
, 							{
								"box" : 								{
									"maxclass" : "newobj",
									"text" : "*~ 0.1",
									"numoutlets" : 1,
									"outlettype" : [ "signal" ],
									"id" : "obj-3",
									"fontname" : "Arial",
									"patching_rect" : [ 75.0, 405.0, 37.0, 18.0 ],
									"fontsize" : 10.0,
									"numinlets" : 2
								}

							}
, 							{
								"box" : 								{
									"maxclass" : "newobj",
									"text" : "p simpleFM",
									"numoutlets" : 1,
									"outlettype" : [ "signal" ],
									"id" : "obj-27",
									"fontname" : "Arial",
									"patching_rect" : [ 75.0, 345.0, 169.0, 18.0 ],
									"fontsize" : 10.0,
									"numinlets" : 3,
									"patcher" : 									{
										"fileversion" : 1,
										"rect" : [ 503.0, 140.0, 311.0, 322.0 ],
										"bglocked" : 0,
										"defrect" : [ 503.0, 140.0, 311.0, 322.0 ],
										"openrect" : [ 0.0, 0.0, 0.0, 0.0 ],
										"openinpresentation" : 0,
										"default_fontsize" : 10.0,
										"default_fontface" : 0,
										"default_fontname" : "Arial",
										"gridonopen" : 0,
										"gridsize" : [ 15.0, 15.0 ],
										"gridsnaponopen" : 0,
										"toolbarvisible" : 1,
										"boxanimatetime" : 200,
										"imprint" : 0,
										"metadata" : [  ],
										"boxes" : [ 											{
												"box" : 												{
													"maxclass" : "outlet",
													"numoutlets" : 0,
													"id" : "obj-10",
													"patching_rect" : [ 90.0, 255.0, 25.0, 25.0 ],
													"numinlets" : 1,
													"comment" : ""
												}

											}
, 											{
												"box" : 												{
													"maxclass" : "newobj",
													"text" : "cycle~",
													"numoutlets" : 1,
													"outlettype" : [ "signal" ],
													"id" : "obj-9",
													"fontname" : "Arial",
													"patching_rect" : [ 90.0, 225.0, 39.0, 18.0 ],
													"fontsize" : 10.0,
													"numinlets" : 2
												}

											}
, 											{
												"box" : 												{
													"maxclass" : "newobj",
													"text" : "*~",
													"numoutlets" : 1,
													"outlettype" : [ "signal" ],
													"id" : "obj-8",
													"fontname" : "Arial",
													"patching_rect" : [ 120.0, 165.0, 63.5, 18.0 ],
													"fontsize" : 10.0,
													"numinlets" : 2
												}

											}
, 											{
												"box" : 												{
													"maxclass" : "newobj",
													"text" : "cycle~",
													"numoutlets" : 1,
													"outlettype" : [ "signal" ],
													"id" : "obj-7",
													"fontname" : "Arial",
													"patching_rect" : [ 120.0, 135.0, 39.0, 18.0 ],
													"fontsize" : 10.0,
													"numinlets" : 2
												}

											}
, 											{
												"box" : 												{
													"maxclass" : "newobj",
													"text" : "*~ 0.",
													"numoutlets" : 1,
													"outlettype" : [ "signal" ],
													"id" : "obj-6",
													"fontname" : "Arial",
													"patching_rect" : [ 165.0, 135.0, 33.5, 18.0 ],
													"fontsize" : 10.0,
													"numinlets" : 2
												}

											}
, 											{
												"box" : 												{
													"maxclass" : "newobj",
													"text" : "+~",
													"numoutlets" : 1,
													"outlettype" : [ "signal" ],
													"id" : "obj-5",
													"fontname" : "Arial",
													"patching_rect" : [ 90.0, 195.0, 48.5, 18.0 ],
													"fontsize" : 10.0,
													"numinlets" : 2
												}

											}
, 											{
												"box" : 												{
													"maxclass" : "newobj",
													"text" : "*~ 0.",
													"numoutlets" : 1,
													"outlettype" : [ "signal" ],
													"id" : "obj-4",
													"fontname" : "Arial",
													"patching_rect" : [ 120.0, 105.0, 33.5, 18.0 ],
													"fontsize" : 10.0,
													"numinlets" : 2
												}

											}
, 											{
												"box" : 												{
													"maxclass" : "inlet",
													"numoutlets" : 1,
													"outlettype" : [ "signal" ],
													"id" : "obj-3",
													"patching_rect" : [ 180.0, 60.0, 25.0, 25.0 ],
													"numinlets" : 0,
													"comment" : ""
												}

											}
, 											{
												"box" : 												{
													"maxclass" : "inlet",
													"numoutlets" : 1,
													"outlettype" : [ "signal" ],
													"id" : "obj-2",
													"patching_rect" : [ 135.0, 60.0, 25.0, 25.0 ],
													"numinlets" : 0,
													"comment" : ""
												}

											}
, 											{
												"box" : 												{
													"maxclass" : "inlet",
													"numoutlets" : 1,
													"outlettype" : [ "signal" ],
													"id" : "obj-1",
													"patching_rect" : [ 90.0, 60.0, 25.0, 25.0 ],
													"numinlets" : 0,
													"comment" : ""
												}

											}
 ],
										"lines" : [ 											{
												"patchline" : 												{
													"source" : [ "obj-9", 0 ],
													"destination" : [ "obj-10", 0 ],
													"hidden" : 0,
													"midpoints" : [  ]
												}

											}
, 											{
												"patchline" : 												{
													"source" : [ "obj-5", 0 ],
													"destination" : [ "obj-9", 0 ],
													"hidden" : 0,
													"midpoints" : [  ]
												}

											}
, 											{
												"patchline" : 												{
													"source" : [ "obj-1", 0 ],
													"destination" : [ "obj-5", 0 ],
													"hidden" : 0,
													"midpoints" : [  ]
												}

											}
, 											{
												"patchline" : 												{
													"source" : [ "obj-8", 0 ],
													"destination" : [ "obj-5", 1 ],
													"hidden" : 0,
													"midpoints" : [  ]
												}

											}
, 											{
												"patchline" : 												{
													"source" : [ "obj-6", 0 ],
													"destination" : [ "obj-8", 1 ],
													"hidden" : 0,
													"midpoints" : [  ]
												}

											}
, 											{
												"patchline" : 												{
													"source" : [ "obj-7", 0 ],
													"destination" : [ "obj-8", 0 ],
													"hidden" : 0,
													"midpoints" : [  ]
												}

											}
, 											{
												"patchline" : 												{
													"source" : [ "obj-4", 0 ],
													"destination" : [ "obj-7", 0 ],
													"hidden" : 0,
													"midpoints" : [  ]
												}

											}
, 											{
												"patchline" : 												{
													"source" : [ "obj-3", 0 ],
													"destination" : [ "obj-6", 1 ],
													"hidden" : 0,
													"midpoints" : [  ]
												}

											}
, 											{
												"patchline" : 												{
													"source" : [ "obj-4", 0 ],
													"destination" : [ "obj-6", 0 ],
													"hidden" : 0,
													"midpoints" : [ 129.5, 132.0, 174.5, 132.0 ]
												}

											}
, 											{
												"patchline" : 												{
													"source" : [ "obj-1", 0 ],
													"destination" : [ "obj-4", 0 ],
													"hidden" : 0,
													"midpoints" : [ 99.5, 102.0, 129.5, 102.0 ]
												}

											}
, 											{
												"patchline" : 												{
													"source" : [ "obj-2", 0 ],
													"destination" : [ "obj-4", 1 ],
													"hidden" : 0,
													"midpoints" : [  ]
												}

											}
 ]
									}
,
									"saved_object_attributes" : 									{
										"default_fontsize" : 10.0,
										"fontname" : "Arial",
										"globalpatchername" : "",
										"default_fontface" : 0,
										"fontface" : 0,
										"fontsize" : 10.0,
										"default_fontname" : "Arial"
									}

								}

							}
, 							{
								"box" : 								{
									"maxclass" : "newobj",
									"text" : "r length",
									"numoutlets" : 1,
									"outlettype" : [ "" ],
									"id" : "obj-13",
									"fontname" : "Arial",
									"patching_rect" : [ 330.0, 90.0, 44.0, 18.0 ],
									"fontsize" : 10.0,
									"numinlets" : 0
								}

							}
, 							{
								"box" : 								{
									"maxclass" : "button",
									"numoutlets" : 1,
									"outlettype" : [ "bang" ],
									"id" : "obj-58",
									"patching_rect" : [ 270.0, 120.0, 20.0, 20.0 ],
									"numinlets" : 1
								}

							}
, 							{
								"box" : 								{
									"maxclass" : "message",
									"text" : "setdomain $1",
									"numoutlets" : 1,
									"outlettype" : [ "" ],
									"id" : "obj-54",
									"fontname" : "Arial",
									"patching_rect" : [ 330.0, 120.0, 71.0, 16.0 ],
									"fontsize" : 10.0,
									"numinlets" : 2
								}

							}
, 							{
								"box" : 								{
									"maxclass" : "flonum",
									"numoutlets" : 2,
									"outlettype" : [ "float", "bang" ],
									"id" : "obj-52",
									"fontname" : "Arial",
									"patching_rect" : [ 150.0, 225.0, 50.0, 18.0 ],
									"fontsize" : 10.0,
									"numinlets" : 1
								}

							}
, 							{
								"box" : 								{
									"maxclass" : "comment",
									"text" : "Amp",
									"numoutlets" : 0,
									"id" : "obj-50",
									"fontname" : "Arial",
									"patching_rect" : [ 285.0, 435.0, 40.0, 18.0 ],
									"fontsize" : 10.0,
									"numinlets" : 1
								}

							}
, 							{
								"box" : 								{
									"maxclass" : "comment",
									"text" : "Modulation",
									"numoutlets" : 0,
									"id" : "obj-48",
									"fontname" : "Arial",
									"patching_rect" : [ 210.0, 435.0, 62.0, 18.0 ],
									"fontsize" : 10.0,
									"numinlets" : 1
								}

							}
, 							{
								"box" : 								{
									"maxclass" : "comment",
									"text" : "Harmonicity",
									"numoutlets" : 0,
									"id" : "obj-46",
									"fontname" : "Arial",
									"patching_rect" : [ 135.0, 435.0, 66.0, 18.0 ],
									"fontsize" : 10.0,
									"numinlets" : 1
								}

							}
, 							{
								"box" : 								{
									"maxclass" : "comment",
									"text" : "Carrier",
									"numoutlets" : 0,
									"id" : "obj-42",
									"fontname" : "Arial",
									"patching_rect" : [ 30.0, 435.0, 43.0, 18.0 ],
									"fontsize" : 10.0,
									"numinlets" : 1
								}

							}
, 							{
								"box" : 								{
									"maxclass" : "message",
									"text" : "clear",
									"numoutlets" : 1,
									"outlettype" : [ "" ],
									"id" : "obj-40",
									"fontname" : "Arial",
									"patching_rect" : [ 210.0, 120.0, 32.5, 16.0 ],
									"fontsize" : 10.0,
									"numinlets" : 2
								}

							}
, 							{
								"box" : 								{
									"maxclass" : "function",
									"range" : [ 0.0, 24.0 ],
									"numoutlets" : 4,
									"pointcolor" : [ 0.321569, 0.321569, 0.321569, 1.0 ],
									"outlettype" : [ "float", "", "", "bang" ],
									"linecolor" : [ 0.333333, 0.333333, 0.333333, 1.0 ],
									"id" : "obj-38",
									"domain" : 111.0,
									"bordercolor" : [ 0.0, 0.0, 0.0, 1.0 ],
									"patching_rect" : [ 330.0, 180.0, 108.0, 90.0 ],
									"numinlets" : 1,
									"addpoints" : [ 0.0, 17.353846, 0, 85.562447, 0.0, 0, 85.562447, 0.0, 0, 111.0, 0.0, 0 ]
								}

							}
, 							{
								"box" : 								{
									"maxclass" : "newobj",
									"text" : "line~",
									"numoutlets" : 2,
									"outlettype" : [ "signal", "bang" ],
									"id" : "obj-37",
									"fontname" : "Arial",
									"patching_rect" : [ 360.0, 345.0, 32.5, 18.0 ],
									"fontsize" : 10.0,
									"numinlets" : 2
								}

							}
, 							{
								"box" : 								{
									"maxclass" : "outlet",
									"numoutlets" : 0,
									"id" : "obj-1",
									"patching_rect" : [ 75.0, 435.0, 25.0, 25.0 ],
									"numinlets" : 1,
									"comment" : ""
								}

							}
, 							{
								"box" : 								{
									"maxclass" : "flonum",
									"numoutlets" : 2,
									"triscale" : 0.9,
									"htextcolor" : [ 0.870588, 0.870588, 0.870588, 1.0 ],
									"outlettype" : [ "float", "bang" ],
									"id" : "obj-21",
									"fontname" : "Arial",
									"patching_rect" : [ 75.0, 225.0, 60.0, 17.0 ],
									"minimum" : 0.0,
									"bgcolor" : [ 0.866667, 0.866667, 0.866667, 1.0 ],
									"fontsize" : 9.0,
									"numinlets" : 1
								}

							}
, 							{
								"box" : 								{
									"maxclass" : "newobj",
									"text" : "*~",
									"numoutlets" : 1,
									"outlettype" : [ "signal" ],
									"id" : "obj-23",
									"fontname" : "Arial",
									"patching_rect" : [ 75.0, 375.0, 305.0, 17.0 ],
									"fontsize" : 9.0,
									"numinlets" : 2
								}

							}
, 							{
								"box" : 								{
									"maxclass" : "newobj",
									"text" : "line~",
									"numoutlets" : 2,
									"outlettype" : [ "signal", "bang" ],
									"id" : "obj-25",
									"fontname" : "Arial",
									"patching_rect" : [ 225.0, 285.0, 38.0, 17.0 ],
									"fontsize" : 9.0,
									"numinlets" : 2
								}

							}
, 							{
								"box" : 								{
									"maxclass" : "function",
									"range" : [ 0.0, 24.0 ],
									"numoutlets" : 4,
									"pointcolor" : [ 0.321569, 0.321569, 0.321569, 1.0 ],
									"outlettype" : [ "float", "", "", "bang" ],
									"linecolor" : [ 0.333333, 0.333333, 0.333333, 1.0 ],
									"id" : "obj-26",
									"domain" : 111.0,
									"bordercolor" : [ 0.0, 0.0, 0.0, 1.0 ],
									"patching_rect" : [ 210.0, 180.0, 108.0, 90.0 ],
									"numinlets" : 1,
									"addpoints" : [ 0.0, 15.138461, 0, 4.625002, 0.0, 0, 57.812508, 0.0, 0, 111.0, 0.0, 0, 111.0, 0.0, 0 ]
								}

							}
, 							{
								"box" : 								{
									"maxclass" : "newobj",
									"text" : "sig~",
									"numoutlets" : 1,
									"outlettype" : [ "signal" ],
									"id" : "obj-34",
									"fontname" : "Arial",
									"patching_rect" : [ 75.0, 315.0, 32.0, 17.0 ],
									"fontsize" : 9.0,
									"numinlets" : 1
								}

							}
, 							{
								"box" : 								{
									"maxclass" : "newobj",
									"text" : "sig~",
									"numoutlets" : 1,
									"outlettype" : [ "signal" ],
									"id" : "obj-35",
									"fontname" : "Arial",
									"patching_rect" : [ 150.0, 285.0, 32.0, 17.0 ],
									"fontsize" : 9.0,
									"numinlets" : 1
								}

							}
 ],
						"lines" : [ 							{
								"patchline" : 								{
									"source" : [ "obj-3", 0 ],
									"destination" : [ "obj-1", 0 ],
									"hidden" : 0,
									"midpoints" : [  ]
								}

							}
, 							{
								"patchline" : 								{
									"source" : [ "obj-23", 0 ],
									"destination" : [ "obj-3", 0 ],
									"hidden" : 0,
									"midpoints" : [  ]
								}

							}
, 							{
								"patchline" : 								{
									"source" : [ "obj-58", 0 ],
									"destination" : [ "obj-38", 0 ],
									"hidden" : 0,
									"midpoints" : [ 279.5, 165.0, 339.5, 165.0 ]
								}

							}
, 							{
								"patchline" : 								{
									"source" : [ "obj-58", 0 ],
									"destination" : [ "obj-26", 0 ],
									"hidden" : 0,
									"midpoints" : [ 279.5, 165.0, 219.5, 165.0 ]
								}

							}
, 							{
								"patchline" : 								{
									"source" : [ "obj-54", 0 ],
									"destination" : [ "obj-38", 0 ],
									"hidden" : 0,
									"midpoints" : [  ]
								}

							}
, 							{
								"patchline" : 								{
									"source" : [ "obj-54", 0 ],
									"destination" : [ "obj-26", 0 ],
									"hidden" : 0,
									"midpoints" : [ 339.5, 165.0, 219.5, 165.0 ]
								}

							}
, 							{
								"patchline" : 								{
									"source" : [ "obj-40", 0 ],
									"destination" : [ "obj-26", 0 ],
									"hidden" : 0,
									"midpoints" : [  ]
								}

							}
, 							{
								"patchline" : 								{
									"source" : [ "obj-40", 0 ],
									"destination" : [ "obj-38", 0 ],
									"hidden" : 0,
									"midpoints" : [ 219.5, 165.0, 339.5, 165.0 ]
								}

							}
, 							{
								"patchline" : 								{
									"source" : [ "obj-38", 1 ],
									"destination" : [ "obj-37", 0 ],
									"hidden" : 0,
									"midpoints" : [ 369.166656, 330.0, 369.5, 330.0 ]
								}

							}
, 							{
								"patchline" : 								{
									"source" : [ "obj-26", 1 ],
									"destination" : [ "obj-25", 0 ],
									"hidden" : 0,
									"midpoints" : [  ]
								}

							}
, 							{
								"patchline" : 								{
									"source" : [ "obj-37", 0 ],
									"destination" : [ "obj-23", 1 ],
									"hidden" : 0,
									"midpoints" : [  ]
								}

							}
, 							{
								"patchline" : 								{
									"source" : [ "obj-21", 0 ],
									"destination" : [ "obj-34", 0 ],
									"hidden" : 0,
									"midpoints" : [  ]
								}

							}
, 							{
								"patchline" : 								{
									"source" : [ "obj-52", 0 ],
									"destination" : [ "obj-35", 0 ],
									"hidden" : 0,
									"midpoints" : [  ]
								}

							}
, 							{
								"patchline" : 								{
									"source" : [ "obj-13", 0 ],
									"destination" : [ "obj-54", 0 ],
									"hidden" : 0,
									"midpoints" : [  ]
								}

							}
, 							{
								"patchline" : 								{
									"source" : [ "obj-25", 0 ],
									"destination" : [ "obj-27", 2 ],
									"hidden" : 0,
									"midpoints" : [  ]
								}

							}
, 							{
								"patchline" : 								{
									"source" : [ "obj-35", 0 ],
									"destination" : [ "obj-27", 1 ],
									"hidden" : 0,
									"midpoints" : [  ]
								}

							}
, 							{
								"patchline" : 								{
									"source" : [ "obj-34", 0 ],
									"destination" : [ "obj-27", 0 ],
									"hidden" : 0,
									"midpoints" : [  ]
								}

							}
, 							{
								"patchline" : 								{
									"source" : [ "obj-27", 0 ],
									"destination" : [ "obj-23", 0 ],
									"hidden" : 0,
									"midpoints" : [  ]
								}

							}
, 							{
								"patchline" : 								{
									"source" : [ "obj-4", 0 ],
									"destination" : [ "obj-52", 0 ],
									"hidden" : 0,
									"midpoints" : [  ]
								}

							}
, 							{
								"patchline" : 								{
									"source" : [ "obj-2", 0 ],
									"destination" : [ "obj-21", 0 ],
									"hidden" : 0,
									"midpoints" : [  ]
								}

							}
, 							{
								"patchline" : 								{
									"source" : [ "obj-5", 0 ],
									"destination" : [ "obj-58", 0 ],
									"hidden" : 0,
									"midpoints" : [  ]
								}

							}
, 							{
								"patchline" : 								{
									"source" : [ "obj-7", 0 ],
									"destination" : [ "obj-54", 0 ],
									"hidden" : 0,
									"midpoints" : [  ]
								}

							}
, 							{
								"patchline" : 								{
									"source" : [ "obj-9", 0 ],
									"destination" : [ "obj-38", 0 ],
									"hidden" : 0,
									"midpoints" : [  ]
								}

							}
 ]
					}
,
					"saved_object_attributes" : 					{
						"default_fontsize" : 10.0,
						"fontname" : "Arial",
						"globalpatchername" : "",
						"default_fontface" : 0,
						"fontface" : 0,
						"fontsize" : 10.0,
						"default_fontname" : "Arial"
					}

				}

			}
, 			{
				"box" : 				{
					"maxclass" : "newobj",
					"text" : "select 0 4 8 12",
					"numoutlets" : 5,
					"outlettype" : [ "bang", "bang", "bang", "bang", "" ],
					"id" : "obj-27",
					"fontname" : "Arial",
					"patching_rect" : [ 75.0, 195.0, 76.0, 18.0 ],
					"fontsize" : 10.0,
					"numinlets" : 1
				}

			}
, 			{
				"box" : 				{
					"maxclass" : "newobj",
					"text" : "counter 15",
					"numoutlets" : 4,
					"outlettype" : [ "int", "", "", "int" ],
					"id" : "obj-28",
					"fontname" : "Arial",
					"patching_rect" : [ 75.0, 165.0, 73.0, 18.0 ],
					"fontsize" : 10.0,
					"numinlets" : 5
				}

			}
, 			{
				"box" : 				{
					"maxclass" : "newobj",
					"text" : "select 0 8",
					"numoutlets" : 3,
					"outlettype" : [ "bang", "bang", "" ],
					"id" : "obj-26",
					"fontname" : "Arial",
					"patching_rect" : [ 165.0, 225.0, 53.0, 18.0 ],
					"fontsize" : 10.0,
					"numinlets" : 1
				}

			}
, 			{
				"box" : 				{
					"maxclass" : "newobj",
					"text" : "counter 15",
					"numoutlets" : 4,
					"outlettype" : [ "int", "", "", "int" ],
					"id" : "obj-25",
					"fontname" : "Arial",
					"patching_rect" : [ 165.0, 195.0, 73.0, 18.0 ],
					"fontsize" : 10.0,
					"numinlets" : 5
				}

			}
, 			{
				"box" : 				{
					"maxclass" : "number",
					"numoutlets" : 2,
					"outlettype" : [ "int", "bang" ],
					"id" : "obj-24",
					"fontname" : "Arial",
					"patching_rect" : [ 195.0, 45.0, 50.0, 18.0 ],
					"fontsize" : 10.0,
					"numinlets" : 1
				}

			}
, 			{
				"box" : 				{
					"maxclass" : "toggle",
					"numoutlets" : 1,
					"outlettype" : [ "int" ],
					"id" : "obj-22",
					"patching_rect" : [ 165.0, 45.0, 20.0, 20.0 ],
					"numinlets" : 1
				}

			}
, 			{
				"box" : 				{
					"maxclass" : "newobj",
					"text" : "tempo 120",
					"numoutlets" : 1,
					"outlettype" : [ "int" ],
					"id" : "obj-20",
					"fontname" : "Arial",
					"patching_rect" : [ 165.0, 75.0, 59.5, 18.0 ],
					"fontsize" : 10.0,
					"numinlets" : 4
				}

			}
, 			{
				"box" : 				{
					"maxclass" : "number",
					"numoutlets" : 2,
					"outlettype" : [ "int", "bang" ],
					"id" : "obj-18",
					"fontname" : "Arial",
					"patching_rect" : [ 195.0, 105.0, 50.0, 18.0 ],
					"fontsize" : 10.0,
					"numinlets" : 1
				}

			}
, 			{
				"box" : 				{
					"maxclass" : "newobj",
					"text" : "decide",
					"numoutlets" : 1,
					"outlettype" : [ "int" ],
					"id" : "obj-15",
					"fontname" : "Arial",
					"patching_rect" : [ 165.0, 135.0, 40.0, 18.0 ],
					"fontsize" : 10.0,
					"numinlets" : 2
				}

			}
, 			{
				"box" : 				{
					"maxclass" : "ezdac~",
					"numoutlets" : 0,
					"id" : "obj-14",
					"patching_rect" : [ 300.0, 360.0, 45.0, 45.0 ],
					"numinlets" : 2
				}

			}
, 			{
				"box" : 				{
					"maxclass" : "newobj",
					"text" : "s synth1",
					"numoutlets" : 0,
					"id" : "obj-12",
					"fontname" : "Arial",
					"patching_rect" : [ 330.0, 120.0, 48.0, 18.0 ],
					"fontsize" : 10.0,
					"numinlets" : 1
				}

			}
, 			{
				"box" : 				{
					"maxclass" : "button",
					"numoutlets" : 1,
					"outlettype" : [ "bang" ],
					"id" : "obj-9",
					"patching_rect" : [ 300.0, 90.0, 20.0, 20.0 ],
					"numinlets" : 1
				}

			}
, 			{
				"box" : 				{
					"maxclass" : "newobj",
					"text" : "r synth1",
					"numoutlets" : 1,
					"outlettype" : [ "" ],
					"id" : "obj-5",
					"fontname" : "Arial",
					"patching_rect" : [ 390.0, 270.0, 46.0, 18.0 ],
					"fontsize" : 10.0,
					"numinlets" : 0
				}

			}
, 			{
				"box" : 				{
					"maxclass" : "newobj",
					"prototypename" : "note",
					"text" : "p note",
					"numoutlets" : 2,
					"outlettype" : [ "", "int" ],
					"id" : "obj-4",
					"fontname" : "Arial",
					"patching_rect" : [ 300.0, 240.0, 78.0, 18.0 ],
					"fontsize" : 10.0,
					"numinlets" : 3,
					"patcher" : 					{
						"fileversion" : 1,
						"rect" : [ 103.0, 94.0, 640.0, 480.0 ],
						"bglocked" : 0,
						"defrect" : [ 103.0, 94.0, 640.0, 480.0 ],
						"openrect" : [ 0.0, 0.0, 0.0, 0.0 ],
						"openinpresentation" : 0,
						"default_fontsize" : 10.0,
						"default_fontface" : 0,
						"default_fontname" : "Arial",
						"gridonopen" : 0,
						"gridsize" : [ 15.0, 15.0 ],
						"gridsnaponopen" : 0,
						"toolbarvisible" : 1,
						"boxanimatetime" : 200,
						"imprint" : 0,
						"metadata" : [  ],
						"boxes" : [ 							{
								"box" : 								{
									"maxclass" : "comment",
									"text" : "Midi",
									"numoutlets" : 0,
									"id" : "obj-28",
									"fontname" : "Arial",
									"patching_rect" : [ 75.0, 360.0, 34.0, 18.0 ],
									"fontsize" : 10.0,
									"numinlets" : 1
								}

							}
, 							{
								"box" : 								{
									"maxclass" : "comment",
									"text" : "Freq",
									"numoutlets" : 0,
									"id" : "obj-25",
									"fontname" : "Arial",
									"patching_rect" : [ 30.0, 360.0, 32.0, 18.0 ],
									"fontsize" : 10.0,
									"numinlets" : 1
								}

							}
, 							{
								"box" : 								{
									"maxclass" : "comment",
									"text" : "Root",
									"numoutlets" : 0,
									"id" : "obj-23",
									"fontname" : "Arial",
									"patching_rect" : [ 195.0, 30.0, 35.0, 18.0 ],
									"fontsize" : 10.0,
									"numinlets" : 1
								}

							}
, 							{
								"box" : 								{
									"maxclass" : "comment",
									"text" : "Scale",
									"numoutlets" : 0,
									"id" : "obj-21",
									"fontname" : "Arial",
									"patching_rect" : [ 75.0, 30.0, 39.0, 18.0 ],
									"fontsize" : 10.0,
									"numinlets" : 1
								}

							}
, 							{
								"box" : 								{
									"maxclass" : "inlet",
									"numoutlets" : 1,
									"outlettype" : [ "int" ],
									"id" : "obj-18",
									"patching_rect" : [ 195.0, 60.0, 25.0, 25.0 ],
									"numinlets" : 0,
									"comment" : "Root"
								}

							}
, 							{
								"box" : 								{
									"maxclass" : "inlet",
									"numoutlets" : 1,
									"outlettype" : [ "int" ],
									"id" : "obj-17",
									"patching_rect" : [ 75.0, 60.0, 25.0, 25.0 ],
									"numinlets" : 0,
									"comment" : "Scale"
								}

							}
, 							{
								"box" : 								{
									"maxclass" : "outlet",
									"numoutlets" : 0,
									"id" : "obj-16",
									"patching_rect" : [ 75.0, 330.0, 25.0, 25.0 ],
									"numinlets" : 1,
									"comment" : ""
								}

							}
, 							{
								"box" : 								{
									"maxclass" : "outlet",
									"numoutlets" : 0,
									"id" : "obj-15",
									"patching_rect" : [ 30.0, 330.0, 25.0, 25.0 ],
									"numinlets" : 1,
									"comment" : ""
								}

							}
, 							{
								"box" : 								{
									"maxclass" : "inlet",
									"numoutlets" : 1,
									"outlettype" : [ "int" ],
									"id" : "obj-14",
									"patching_rect" : [ 30.0, 60.0, 25.0, 25.0 ],
									"numinlets" : 0,
									"comment" : "Pick Note (1-12)"
								}

							}
, 							{
								"box" : 								{
									"maxclass" : "number",
									"numoutlets" : 2,
									"outlettype" : [ "int", "bang" ],
									"id" : "obj-13",
									"fontname" : "Arial",
									"patching_rect" : [ 75.0, 300.0, 50.0, 18.0 ],
									"fontsize" : 10.0,
									"numinlets" : 1
								}

							}
, 							{
								"box" : 								{
									"maxclass" : "newobj",
									"text" : "mtof",
									"numoutlets" : 1,
									"outlettype" : [ "" ],
									"id" : "obj-10",
									"fontname" : "Arial",
									"patching_rect" : [ 30.0, 300.0, 30.0, 18.0 ],
									"fontsize" : 10.0,
									"numinlets" : 1
								}

							}
, 							{
								"box" : 								{
									"maxclass" : "newobj",
									"text" : "loadmess 13",
									"numoutlets" : 1,
									"outlettype" : [ "" ],
									"id" : "obj-9",
									"fontname" : "Arial",
									"patching_rect" : [ 120.0, 75.0, 67.0, 18.0 ],
									"fontsize" : 10.0,
									"numinlets" : 1
								}

							}
, 							{
								"box" : 								{
									"maxclass" : "comment",
									"text" : "Note",
									"numoutlets" : 0,
									"id" : "obj-8",
									"fontname" : "Arial",
									"patching_rect" : [ 30.0, 30.0, 32.0, 18.0 ],
									"fontsize" : 10.0,
									"numinlets" : 1
								}

							}
, 							{
								"box" : 								{
									"maxclass" : "umenu",
									"numoutlets" : 3,
									"outlettype" : [ "int", "", "" ],
									"id" : "obj-26",
									"fontname" : "Arial",
									"types" : [  ],
									"patching_rect" : [ 75.0, 120.0, 104.0, 18.0 ],
									"fontsize" : 10.0,
									"numinlets" : 1,
									"items" : [ "chromatic", ",", "ionian", ",", "dorian", ",", "phrygian", ",", "lydian", ",", "mixolydian", ",", "aeolian", ",", "locrian", ",", "wholetone", ",", "m7", 9, 11, 13, ",", "dim7", ",", "octatonic", "2-1", ",", "octatonic", "1-2", ",", "major", "pentatonic", ",", "minor", "pentatonic", ",", "octaves" ]
								}

							}
, 							{
								"box" : 								{
									"maxclass" : "newobj",
									"text" : "loadmess 48",
									"numoutlets" : 1,
									"outlettype" : [ "" ],
									"id" : "obj-6",
									"fontname" : "Arial",
									"patching_rect" : [ 240.0, 75.0, 67.0, 18.0 ],
									"fontsize" : 10.0,
									"numinlets" : 1
								}

							}
, 							{
								"box" : 								{
									"maxclass" : "number",
									"format" : 4,
									"numoutlets" : 2,
									"outlettype" : [ "int", "bang" ],
									"id" : "obj-20",
									"fontname" : "Arial",
									"patching_rect" : [ 195.0, 120.0, 50.0, 20.0 ],
									"fontsize" : 11.595187,
									"numinlets" : 1
								}

							}
, 							{
								"box" : 								{
									"maxclass" : "newobj",
									"text" : "+ 48",
									"numoutlets" : 1,
									"outlettype" : [ "int" ],
									"id" : "obj-5",
									"fontname" : "Arial",
									"patching_rect" : [ 30.0, 255.0, 32.5, 18.0 ],
									"fontsize" : 10.0,
									"numinlets" : 2
								}

							}
, 							{
								"box" : 								{
									"maxclass" : "newobj",
									"text" : "pack 60 0",
									"numoutlets" : 1,
									"outlettype" : [ "" ],
									"id" : "obj-4",
									"fontname" : "Arial",
									"patching_rect" : [ 30.0, 150.0, 64.0, 18.0 ],
									"fontsize" : 10.0,
									"numinlets" : 2
								}

							}
, 							{
								"box" : 								{
									"maxclass" : "message",
									"text" : "nth $2 $1",
									"numoutlets" : 1,
									"outlettype" : [ "" ],
									"id" : "obj-3",
									"fontname" : "Arial",
									"patching_rect" : [ 30.0, 180.0, 52.0, 16.0 ],
									"fontsize" : 10.0,
									"numinlets" : 2
								}

							}
, 							{
								"box" : 								{
									"maxclass" : "newobj",
									"text" : "coll",
									"numoutlets" : 4,
									"outlettype" : [ "", "", "", "" ],
									"id" : "obj-1",
									"fontname" : "Arial",
									"patching_rect" : [ 30.0, 210.0, 59.5, 18.0 ],
									"fontsize" : 10.0,
									"numinlets" : 1,
									"save" : [ "#N", "coll", ";" ],
									"saved_object_attributes" : 									{
										"embed" : 0
									}

								}

							}
 ],
						"lines" : [ 							{
								"patchline" : 								{
									"source" : [ "obj-3", 0 ],
									"destination" : [ "obj-1", 0 ],
									"hidden" : 0,
									"midpoints" : [  ]
								}

							}
, 							{
								"patchline" : 								{
									"source" : [ "obj-4", 0 ],
									"destination" : [ "obj-3", 0 ],
									"hidden" : 0,
									"midpoints" : [  ]
								}

							}
, 							{
								"patchline" : 								{
									"source" : [ "obj-1", 0 ],
									"destination" : [ "obj-5", 0 ],
									"hidden" : 0,
									"midpoints" : [  ]
								}

							}
, 							{
								"patchline" : 								{
									"source" : [ "obj-20", 0 ],
									"destination" : [ "obj-5", 1 ],
									"hidden" : 0,
									"midpoints" : [ 204.5, 240.0, 53.0, 240.0 ]
								}

							}
, 							{
								"patchline" : 								{
									"source" : [ "obj-6", 0 ],
									"destination" : [ "obj-20", 0 ],
									"hidden" : 0,
									"midpoints" : [ 249.5, 105.0, 204.5, 105.0 ]
								}

							}
, 							{
								"patchline" : 								{
									"source" : [ "obj-26", 0 ],
									"destination" : [ "obj-4", 1 ],
									"hidden" : 0,
									"midpoints" : [  ]
								}

							}
, 							{
								"patchline" : 								{
									"source" : [ "obj-9", 0 ],
									"destination" : [ "obj-26", 0 ],
									"hidden" : 0,
									"midpoints" : [ 129.5, 105.0, 84.5, 105.0 ]
								}

							}
, 							{
								"patchline" : 								{
									"source" : [ "obj-5", 0 ],
									"destination" : [ "obj-10", 0 ],
									"hidden" : 0,
									"midpoints" : [  ]
								}

							}
, 							{
								"patchline" : 								{
									"source" : [ "obj-5", 0 ],
									"destination" : [ "obj-13", 0 ],
									"hidden" : 0,
									"midpoints" : [  ]
								}

							}
, 							{
								"patchline" : 								{
									"source" : [ "obj-14", 0 ],
									"destination" : [ "obj-4", 0 ],
									"hidden" : 0,
									"midpoints" : [  ]
								}

							}
, 							{
								"patchline" : 								{
									"source" : [ "obj-10", 0 ],
									"destination" : [ "obj-15", 0 ],
									"hidden" : 0,
									"midpoints" : [  ]
								}

							}
, 							{
								"patchline" : 								{
									"source" : [ "obj-13", 0 ],
									"destination" : [ "obj-16", 0 ],
									"hidden" : 0,
									"midpoints" : [  ]
								}

							}
, 							{
								"patchline" : 								{
									"source" : [ "obj-17", 0 ],
									"destination" : [ "obj-26", 0 ],
									"hidden" : 0,
									"midpoints" : [  ]
								}

							}
, 							{
								"patchline" : 								{
									"source" : [ "obj-18", 0 ],
									"destination" : [ "obj-20", 0 ],
									"hidden" : 0,
									"midpoints" : [  ]
								}

							}
 ]
					}
,
					"saved_object_attributes" : 					{
						"default_fontsize" : 10.0,
						"fontname" : "Arial",
						"globalpatchername" : "",
						"default_fontface" : 0,
						"fontface" : 0,
						"fontsize" : 10.0,
						"default_fontname" : "Arial"
					}

				}

			}
, 			{
				"box" : 				{
					"maxclass" : "message",
					"text" : "clear",
					"numoutlets" : 1,
					"outlettype" : [ "" ],
					"id" : "obj-19",
					"fontname" : "Arial",
					"patching_rect" : [ 345.0, 150.0, 32.5, 16.0 ],
					"fontsize" : 10.0,
					"numinlets" : 2
				}

			}
, 			{
				"box" : 				{
					"maxclass" : "flonum",
					"numoutlets" : 2,
					"outlettype" : [ "float", "bang" ],
					"id" : "obj-17",
					"fontname" : "Arial",
					"patching_rect" : [ 345.0, 270.0, 36.0, 18.0 ],
					"fontsize" : 10.0,
					"numinlets" : 1
				}

			}
, 			{
				"box" : 				{
					"maxclass" : "newobj",
					"text" : "p Synth",
					"numoutlets" : 1,
					"outlettype" : [ "signal" ],
					"id" : "obj-13",
					"fontname" : "Arial",
					"patching_rect" : [ 300.0, 300.0, 109.0, 18.0 ],
					"fontsize" : 10.0,
					"numinlets" : 3,
					"patcher" : 					{
						"fileversion" : 1,
						"rect" : [ 652.0, 90.0, 478.0, 479.0 ],
						"bglocked" : 0,
						"defrect" : [ 652.0, 90.0, 478.0, 479.0 ],
						"openrect" : [ 0.0, 0.0, 0.0, 0.0 ],
						"openinpresentation" : 0,
						"default_fontsize" : 10.0,
						"default_fontface" : 0,
						"default_fontname" : "Arial",
						"gridonopen" : 0,
						"gridsize" : [ 15.0, 15.0 ],
						"gridsnaponopen" : 0,
						"toolbarvisible" : 1,
						"boxanimatetime" : 200,
						"imprint" : 0,
						"metadata" : [  ],
						"boxes" : [ 							{
								"box" : 								{
									"maxclass" : "message",
									"text" : "clear",
									"numoutlets" : 1,
									"outlettype" : [ "" ],
									"id" : "obj-9",
									"fontname" : "Arial",
									"patching_rect" : [ 416.0, 129.0, 32.5, 16.0 ],
									"fontsize" : 10.0,
									"numinlets" : 2
								}

							}
, 							{
								"box" : 								{
									"maxclass" : "number",
									"numoutlets" : 2,
									"outlettype" : [ "int", "bang" ],
									"id" : "obj-7",
									"fontname" : "Arial",
									"patching_rect" : [ 342.0, 57.0, 50.0, 18.0 ],
									"fontsize" : 10.0,
									"numinlets" : 1
								}

							}
, 							{
								"box" : 								{
									"maxclass" : "inlet",
									"numoutlets" : 1,
									"outlettype" : [ "" ],
									"id" : "obj-5",
									"patching_rect" : [ 270.0, 90.0, 25.0, 25.0 ],
									"numinlets" : 0,
									"comment" : ""
								}

							}
, 							{
								"box" : 								{
									"maxclass" : "inlet",
									"numoutlets" : 1,
									"outlettype" : [ "float" ],
									"id" : "obj-4",
									"patching_rect" : [ 150.0, 180.0, 25.0, 25.0 ],
									"numinlets" : 0,
									"comment" : ""
								}

							}
, 							{
								"box" : 								{
									"maxclass" : "inlet",
									"numoutlets" : 1,
									"outlettype" : [ "" ],
									"id" : "obj-2",
									"patching_rect" : [ 75.0, 180.0, 25.0, 25.0 ],
									"numinlets" : 0,
									"comment" : ""
								}

							}
, 							{
								"box" : 								{
									"maxclass" : "newobj",
									"text" : "*~ 0.6",
									"numoutlets" : 1,
									"outlettype" : [ "signal" ],
									"id" : "obj-3",
									"fontname" : "Arial",
									"patching_rect" : [ 75.0, 405.0, 37.0, 18.0 ],
									"fontsize" : 10.0,
									"numinlets" : 2
								}

							}
, 							{
								"box" : 								{
									"maxclass" : "newobj",
									"text" : "p simpleFM",
									"numoutlets" : 1,
									"outlettype" : [ "signal" ],
									"id" : "obj-27",
									"fontname" : "Arial",
									"patching_rect" : [ 75.0, 345.0, 169.0, 18.0 ],
									"fontsize" : 10.0,
									"numinlets" : 3,
									"patcher" : 									{
										"fileversion" : 1,
										"rect" : [ 503.0, 140.0, 311.0, 322.0 ],
										"bglocked" : 0,
										"defrect" : [ 503.0, 140.0, 311.0, 322.0 ],
										"openrect" : [ 0.0, 0.0, 0.0, 0.0 ],
										"openinpresentation" : 0,
										"default_fontsize" : 10.0,
										"default_fontface" : 0,
										"default_fontname" : "Arial",
										"gridonopen" : 0,
										"gridsize" : [ 15.0, 15.0 ],
										"gridsnaponopen" : 0,
										"toolbarvisible" : 1,
										"boxanimatetime" : 200,
										"imprint" : 0,
										"metadata" : [  ],
										"boxes" : [ 											{
												"box" : 												{
													"maxclass" : "outlet",
													"numoutlets" : 0,
													"id" : "obj-10",
													"patching_rect" : [ 90.0, 255.0, 25.0, 25.0 ],
													"numinlets" : 1,
													"comment" : ""
												}

											}
, 											{
												"box" : 												{
													"maxclass" : "newobj",
													"text" : "cycle~",
													"numoutlets" : 1,
													"outlettype" : [ "signal" ],
													"id" : "obj-9",
													"fontname" : "Arial",
													"patching_rect" : [ 90.0, 225.0, 39.0, 18.0 ],
													"fontsize" : 10.0,
													"numinlets" : 2
												}

											}
, 											{
												"box" : 												{
													"maxclass" : "newobj",
													"text" : "*~",
													"numoutlets" : 1,
													"outlettype" : [ "signal" ],
													"id" : "obj-8",
													"fontname" : "Arial",
													"patching_rect" : [ 120.0, 165.0, 63.5, 18.0 ],
													"fontsize" : 10.0,
													"numinlets" : 2
												}

											}
, 											{
												"box" : 												{
													"maxclass" : "newobj",
													"text" : "cycle~",
													"numoutlets" : 1,
													"outlettype" : [ "signal" ],
													"id" : "obj-7",
													"fontname" : "Arial",
													"patching_rect" : [ 120.0, 135.0, 39.0, 18.0 ],
													"fontsize" : 10.0,
													"numinlets" : 2
												}

											}
, 											{
												"box" : 												{
													"maxclass" : "newobj",
													"text" : "*~ 0.",
													"numoutlets" : 1,
													"outlettype" : [ "signal" ],
													"id" : "obj-6",
													"fontname" : "Arial",
													"patching_rect" : [ 165.0, 135.0, 33.5, 18.0 ],
													"fontsize" : 10.0,
													"numinlets" : 2
												}

											}
, 											{
												"box" : 												{
													"maxclass" : "newobj",
													"text" : "+~",
													"numoutlets" : 1,
													"outlettype" : [ "signal" ],
													"id" : "obj-5",
													"fontname" : "Arial",
													"patching_rect" : [ 90.0, 195.0, 48.5, 18.0 ],
													"fontsize" : 10.0,
													"numinlets" : 2
												}

											}
, 											{
												"box" : 												{
													"maxclass" : "newobj",
													"text" : "*~ 0.",
													"numoutlets" : 1,
													"outlettype" : [ "signal" ],
													"id" : "obj-4",
													"fontname" : "Arial",
													"patching_rect" : [ 120.0, 105.0, 33.5, 18.0 ],
													"fontsize" : 10.0,
													"numinlets" : 2
												}

											}
, 											{
												"box" : 												{
													"maxclass" : "inlet",
													"numoutlets" : 1,
													"outlettype" : [ "signal" ],
													"id" : "obj-3",
													"patching_rect" : [ 180.0, 60.0, 25.0, 25.0 ],
													"numinlets" : 0,
													"comment" : ""
												}

											}
, 											{
												"box" : 												{
													"maxclass" : "inlet",
													"numoutlets" : 1,
													"outlettype" : [ "signal" ],
													"id" : "obj-2",
													"patching_rect" : [ 135.0, 60.0, 25.0, 25.0 ],
													"numinlets" : 0,
													"comment" : ""
												}

											}
, 											{
												"box" : 												{
													"maxclass" : "inlet",
													"numoutlets" : 1,
													"outlettype" : [ "signal" ],
													"id" : "obj-1",
													"patching_rect" : [ 90.0, 60.0, 25.0, 25.0 ],
													"numinlets" : 0,
													"comment" : ""
												}

											}
 ],
										"lines" : [ 											{
												"patchline" : 												{
													"source" : [ "obj-2", 0 ],
													"destination" : [ "obj-4", 1 ],
													"hidden" : 0,
													"midpoints" : [  ]
												}

											}
, 											{
												"patchline" : 												{
													"source" : [ "obj-1", 0 ],
													"destination" : [ "obj-4", 0 ],
													"hidden" : 0,
													"midpoints" : [ 99.5, 102.0, 129.5, 102.0 ]
												}

											}
, 											{
												"patchline" : 												{
													"source" : [ "obj-4", 0 ],
													"destination" : [ "obj-6", 0 ],
													"hidden" : 0,
													"midpoints" : [ 129.5, 132.0, 174.5, 132.0 ]
												}

											}
, 											{
												"patchline" : 												{
													"source" : [ "obj-3", 0 ],
													"destination" : [ "obj-6", 1 ],
													"hidden" : 0,
													"midpoints" : [  ]
												}

											}
, 											{
												"patchline" : 												{
													"source" : [ "obj-4", 0 ],
													"destination" : [ "obj-7", 0 ],
													"hidden" : 0,
													"midpoints" : [  ]
												}

											}
, 											{
												"patchline" : 												{
													"source" : [ "obj-7", 0 ],
													"destination" : [ "obj-8", 0 ],
													"hidden" : 0,
													"midpoints" : [  ]
												}

											}
, 											{
												"patchline" : 												{
													"source" : [ "obj-6", 0 ],
													"destination" : [ "obj-8", 1 ],
													"hidden" : 0,
													"midpoints" : [  ]
												}

											}
, 											{
												"patchline" : 												{
													"source" : [ "obj-8", 0 ],
													"destination" : [ "obj-5", 1 ],
													"hidden" : 0,
													"midpoints" : [  ]
												}

											}
, 											{
												"patchline" : 												{
													"source" : [ "obj-1", 0 ],
													"destination" : [ "obj-5", 0 ],
													"hidden" : 0,
													"midpoints" : [  ]
												}

											}
, 											{
												"patchline" : 												{
													"source" : [ "obj-5", 0 ],
													"destination" : [ "obj-9", 0 ],
													"hidden" : 0,
													"midpoints" : [  ]
												}

											}
, 											{
												"patchline" : 												{
													"source" : [ "obj-9", 0 ],
													"destination" : [ "obj-10", 0 ],
													"hidden" : 0,
													"midpoints" : [  ]
												}

											}
 ]
									}
,
									"saved_object_attributes" : 									{
										"default_fontsize" : 10.0,
										"fontname" : "Arial",
										"globalpatchername" : "",
										"default_fontface" : 0,
										"fontface" : 0,
										"fontsize" : 10.0,
										"default_fontname" : "Arial"
									}

								}

							}
, 							{
								"box" : 								{
									"maxclass" : "newobj",
									"text" : "r length",
									"numoutlets" : 1,
									"outlettype" : [ "" ],
									"id" : "obj-13",
									"fontname" : "Arial",
									"patching_rect" : [ 330.0, 90.0, 44.0, 18.0 ],
									"fontsize" : 10.0,
									"numinlets" : 0
								}

							}
, 							{
								"box" : 								{
									"maxclass" : "button",
									"numoutlets" : 1,
									"outlettype" : [ "bang" ],
									"id" : "obj-58",
									"patching_rect" : [ 270.0, 120.0, 20.0, 20.0 ],
									"numinlets" : 1
								}

							}
, 							{
								"box" : 								{
									"maxclass" : "message",
									"text" : "setdomain $1",
									"numoutlets" : 1,
									"outlettype" : [ "" ],
									"id" : "obj-54",
									"fontname" : "Arial",
									"patching_rect" : [ 330.0, 120.0, 71.0, 16.0 ],
									"fontsize" : 10.0,
									"numinlets" : 2
								}

							}
, 							{
								"box" : 								{
									"maxclass" : "flonum",
									"numoutlets" : 2,
									"outlettype" : [ "float", "bang" ],
									"id" : "obj-52",
									"fontname" : "Arial",
									"patching_rect" : [ 150.0, 225.0, 50.0, 18.0 ],
									"fontsize" : 10.0,
									"numinlets" : 1
								}

							}
, 							{
								"box" : 								{
									"maxclass" : "comment",
									"text" : "Amp",
									"numoutlets" : 0,
									"id" : "obj-50",
									"fontname" : "Arial",
									"patching_rect" : [ 285.0, 435.0, 40.0, 18.0 ],
									"fontsize" : 10.0,
									"numinlets" : 1
								}

							}
, 							{
								"box" : 								{
									"maxclass" : "comment",
									"text" : "Modulation",
									"numoutlets" : 0,
									"id" : "obj-48",
									"fontname" : "Arial",
									"patching_rect" : [ 210.0, 435.0, 62.0, 18.0 ],
									"fontsize" : 10.0,
									"numinlets" : 1
								}

							}
, 							{
								"box" : 								{
									"maxclass" : "comment",
									"text" : "Harmonicity",
									"numoutlets" : 0,
									"id" : "obj-46",
									"fontname" : "Arial",
									"patching_rect" : [ 135.0, 435.0, 66.0, 18.0 ],
									"fontsize" : 10.0,
									"numinlets" : 1
								}

							}
, 							{
								"box" : 								{
									"maxclass" : "comment",
									"text" : "Carrier",
									"numoutlets" : 0,
									"id" : "obj-42",
									"fontname" : "Arial",
									"patching_rect" : [ 30.0, 435.0, 43.0, 18.0 ],
									"fontsize" : 10.0,
									"numinlets" : 1
								}

							}
, 							{
								"box" : 								{
									"maxclass" : "message",
									"text" : "clear",
									"numoutlets" : 1,
									"outlettype" : [ "" ],
									"id" : "obj-40",
									"fontname" : "Arial",
									"patching_rect" : [ 210.0, 120.0, 32.5, 16.0 ],
									"fontsize" : 10.0,
									"numinlets" : 2
								}

							}
, 							{
								"box" : 								{
									"maxclass" : "function",
									"range" : [ 0.0, 24.0 ],
									"numoutlets" : 4,
									"pointcolor" : [ 0.321569, 0.321569, 0.321569, 1.0 ],
									"outlettype" : [ "float", "", "", "bang" ],
									"linecolor" : [ 0.333333, 0.333333, 0.333333, 1.0 ],
									"id" : "obj-38",
									"domain" : 1370.0,
									"bordercolor" : [ 0.0, 0.0, 0.0, 1.0 ],
									"patching_rect" : [ 330.0, 180.0, 108.0, 90.0 ],
									"numinlets" : 1,
									"addpoints" : [ 0.0, 0.0, 0, 28.541666, 0.0, 0, 385.3125, 0.738462, 0, 1370.0, 0.0, 0 ]
								}

							}
, 							{
								"box" : 								{
									"maxclass" : "newobj",
									"text" : "line~",
									"numoutlets" : 2,
									"outlettype" : [ "signal", "bang" ],
									"id" : "obj-37",
									"fontname" : "Arial",
									"patching_rect" : [ 360.0, 345.0, 32.5, 18.0 ],
									"fontsize" : 10.0,
									"numinlets" : 2
								}

							}
, 							{
								"box" : 								{
									"maxclass" : "outlet",
									"numoutlets" : 0,
									"id" : "obj-1",
									"patching_rect" : [ 75.0, 435.0, 25.0, 25.0 ],
									"numinlets" : 1,
									"comment" : ""
								}

							}
, 							{
								"box" : 								{
									"maxclass" : "flonum",
									"numoutlets" : 2,
									"triscale" : 0.9,
									"htextcolor" : [ 0.870588, 0.870588, 0.870588, 1.0 ],
									"outlettype" : [ "float", "bang" ],
									"id" : "obj-21",
									"fontname" : "Arial",
									"patching_rect" : [ 75.0, 225.0, 60.0, 17.0 ],
									"minimum" : 0.0,
									"bgcolor" : [ 0.866667, 0.866667, 0.866667, 1.0 ],
									"fontsize" : 9.0,
									"numinlets" : 1
								}

							}
, 							{
								"box" : 								{
									"maxclass" : "newobj",
									"text" : "*~",
									"numoutlets" : 1,
									"outlettype" : [ "signal" ],
									"id" : "obj-23",
									"fontname" : "Arial",
									"patching_rect" : [ 75.0, 375.0, 305.0, 17.0 ],
									"fontsize" : 9.0,
									"numinlets" : 2
								}

							}
, 							{
								"box" : 								{
									"maxclass" : "newobj",
									"text" : "line~",
									"numoutlets" : 2,
									"outlettype" : [ "signal", "bang" ],
									"id" : "obj-25",
									"fontname" : "Arial",
									"patching_rect" : [ 225.0, 285.0, 38.0, 17.0 ],
									"fontsize" : 9.0,
									"numinlets" : 2
								}

							}
, 							{
								"box" : 								{
									"maxclass" : "function",
									"range" : [ 0.0, 24.0 ],
									"numoutlets" : 4,
									"pointcolor" : [ 0.321569, 0.321569, 0.321569, 1.0 ],
									"outlettype" : [ "float", "", "", "bang" ],
									"linecolor" : [ 0.333333, 0.333333, 0.333333, 1.0 ],
									"id" : "obj-26",
									"domain" : 1370.0,
									"bordercolor" : [ 0.0, 0.0, 0.0, 1.0 ],
									"patching_rect" : [ 210.0, 180.0, 108.0, 90.0 ],
									"numinlets" : 1,
									"addpoints" : [ 0.0, 0.0, 0, 499.479156, 7.384615, 0, 841.979187, 14.030769, 0, 1170.208374, 22.892307, 0, 1370.0, 0.0, 0, 1370.0, 0.0, 0, 1370.0, 0.0, 0, 1370.0, 0.0, 0 ]
								}

							}
, 							{
								"box" : 								{
									"maxclass" : "newobj",
									"text" : "sig~",
									"numoutlets" : 1,
									"outlettype" : [ "signal" ],
									"id" : "obj-34",
									"fontname" : "Arial",
									"patching_rect" : [ 75.0, 315.0, 32.0, 17.0 ],
									"fontsize" : 9.0,
									"numinlets" : 1
								}

							}
, 							{
								"box" : 								{
									"maxclass" : "newobj",
									"text" : "sig~",
									"numoutlets" : 1,
									"outlettype" : [ "signal" ],
									"id" : "obj-35",
									"fontname" : "Arial",
									"patching_rect" : [ 150.0, 285.0, 32.0, 17.0 ],
									"fontsize" : 9.0,
									"numinlets" : 1
								}

							}
 ],
						"lines" : [ 							{
								"patchline" : 								{
									"source" : [ "obj-9", 0 ],
									"destination" : [ "obj-38", 0 ],
									"hidden" : 0,
									"midpoints" : [  ]
								}

							}
, 							{
								"patchline" : 								{
									"source" : [ "obj-7", 0 ],
									"destination" : [ "obj-54", 0 ],
									"hidden" : 0,
									"midpoints" : [  ]
								}

							}
, 							{
								"patchline" : 								{
									"source" : [ "obj-3", 0 ],
									"destination" : [ "obj-1", 0 ],
									"hidden" : 0,
									"midpoints" : [  ]
								}

							}
, 							{
								"patchline" : 								{
									"source" : [ "obj-5", 0 ],
									"destination" : [ "obj-58", 0 ],
									"hidden" : 0,
									"midpoints" : [  ]
								}

							}
, 							{
								"patchline" : 								{
									"source" : [ "obj-2", 0 ],
									"destination" : [ "obj-21", 0 ],
									"hidden" : 0,
									"midpoints" : [  ]
								}

							}
, 							{
								"patchline" : 								{
									"source" : [ "obj-4", 0 ],
									"destination" : [ "obj-52", 0 ],
									"hidden" : 0,
									"midpoints" : [  ]
								}

							}
, 							{
								"patchline" : 								{
									"source" : [ "obj-23", 0 ],
									"destination" : [ "obj-3", 0 ],
									"hidden" : 0,
									"midpoints" : [  ]
								}

							}
, 							{
								"patchline" : 								{
									"source" : [ "obj-27", 0 ],
									"destination" : [ "obj-23", 0 ],
									"hidden" : 0,
									"midpoints" : [  ]
								}

							}
, 							{
								"patchline" : 								{
									"source" : [ "obj-34", 0 ],
									"destination" : [ "obj-27", 0 ],
									"hidden" : 0,
									"midpoints" : [  ]
								}

							}
, 							{
								"patchline" : 								{
									"source" : [ "obj-35", 0 ],
									"destination" : [ "obj-27", 1 ],
									"hidden" : 0,
									"midpoints" : [  ]
								}

							}
, 							{
								"patchline" : 								{
									"source" : [ "obj-25", 0 ],
									"destination" : [ "obj-27", 2 ],
									"hidden" : 0,
									"midpoints" : [  ]
								}

							}
, 							{
								"patchline" : 								{
									"source" : [ "obj-13", 0 ],
									"destination" : [ "obj-54", 0 ],
									"hidden" : 0,
									"midpoints" : [  ]
								}

							}
, 							{
								"patchline" : 								{
									"source" : [ "obj-52", 0 ],
									"destination" : [ "obj-35", 0 ],
									"hidden" : 0,
									"midpoints" : [  ]
								}

							}
, 							{
								"patchline" : 								{
									"source" : [ "obj-21", 0 ],
									"destination" : [ "obj-34", 0 ],
									"hidden" : 0,
									"midpoints" : [  ]
								}

							}
, 							{
								"patchline" : 								{
									"source" : [ "obj-37", 0 ],
									"destination" : [ "obj-23", 1 ],
									"hidden" : 0,
									"midpoints" : [  ]
								}

							}
, 							{
								"patchline" : 								{
									"source" : [ "obj-26", 1 ],
									"destination" : [ "obj-25", 0 ],
									"hidden" : 0,
									"midpoints" : [  ]
								}

							}
, 							{
								"patchline" : 								{
									"source" : [ "obj-38", 1 ],
									"destination" : [ "obj-37", 0 ],
									"hidden" : 0,
									"midpoints" : [ 369.166656, 330.0, 369.5, 330.0 ]
								}

							}
, 							{
								"patchline" : 								{
									"source" : [ "obj-40", 0 ],
									"destination" : [ "obj-38", 0 ],
									"hidden" : 0,
									"midpoints" : [ 219.5, 165.0, 339.5, 165.0 ]
								}

							}
, 							{
								"patchline" : 								{
									"source" : [ "obj-40", 0 ],
									"destination" : [ "obj-26", 0 ],
									"hidden" : 0,
									"midpoints" : [  ]
								}

							}
, 							{
								"patchline" : 								{
									"source" : [ "obj-54", 0 ],
									"destination" : [ "obj-26", 0 ],
									"hidden" : 0,
									"midpoints" : [ 339.5, 165.0, 219.5, 165.0 ]
								}

							}
, 							{
								"patchline" : 								{
									"source" : [ "obj-54", 0 ],
									"destination" : [ "obj-38", 0 ],
									"hidden" : 0,
									"midpoints" : [  ]
								}

							}
, 							{
								"patchline" : 								{
									"source" : [ "obj-58", 0 ],
									"destination" : [ "obj-26", 0 ],
									"hidden" : 0,
									"midpoints" : [ 279.5, 165.0, 219.5, 165.0 ]
								}

							}
, 							{
								"patchline" : 								{
									"source" : [ "obj-58", 0 ],
									"destination" : [ "obj-38", 0 ],
									"hidden" : 0,
									"midpoints" : [ 279.5, 165.0, 339.5, 165.0 ]
								}

							}
 ]
					}
,
					"saved_object_attributes" : 					{
						"default_fontsize" : 10.0,
						"fontname" : "Arial",
						"globalpatchername" : "",
						"default_fontface" : 0,
						"fontface" : 0,
						"fontsize" : 10.0,
						"default_fontname" : "Arial"
					}

				}

			}
, 			{
				"box" : 				{
					"maxclass" : "newobj",
					"text" : "+ 1",
					"numoutlets" : 1,
					"outlettype" : [ "int" ],
					"id" : "obj-11",
					"fontname" : "Arial",
					"patching_rect" : [ 300.0, 180.0, 32.5, 18.0 ],
					"fontsize" : 10.0,
					"numinlets" : 2
				}

			}
, 			{
				"box" : 				{
					"maxclass" : "newobj",
					"text" : "urn 12",
					"numoutlets" : 2,
					"outlettype" : [ "int", "bang" ],
					"id" : "obj-10",
					"fontname" : "Arial",
					"patching_rect" : [ 300.0, 150.0, 39.0, 18.0 ],
					"fontsize" : 10.0,
					"numinlets" : 2
				}

			}
, 			{
				"box" : 				{
					"maxclass" : "number",
					"format" : 4,
					"numoutlets" : 2,
					"outlettype" : [ "int", "bang" ],
					"id" : "obj-8",
					"fontname" : "Arial",
					"patching_rect" : [ 420.0, 210.0, 50.0, 20.0 ],
					"fontsize" : 11.595187,
					"numinlets" : 1
				}

			}
, 			{
				"box" : 				{
					"maxclass" : "umenu",
					"numoutlets" : 3,
					"outlettype" : [ "int", "", "" ],
					"id" : "obj-7",
					"fontname" : "Arial",
					"types" : [  ],
					"patching_rect" : [ 330.0, 210.0, 79.0, 18.0 ],
					"fontsize" : 10.0,
					"numinlets" : 1,
					"items" : [ "chromatic", ",", "ionian", ",", "dorian", ",", "phrygian", ",", "lydian", ",", "mixolydian", ",", "aeolian", ",", "locrian", ",", "wholetone", ",", "m7", 9, 11, 13, ",", "dim7", ",", "octatonic", "2-1", ",", "octatonic", "1-2", ",", "major", "pentatonic", ",", "minor", "pentatonic", ",", "octaves" ]
				}

			}
 ],
		"lines" : [ 			{
				"patchline" : 				{
					"source" : [ "obj-29", 0 ],
					"destination" : [ "obj-14", 1 ],
					"hidden" : 0,
					"midpoints" : [  ]
				}

			}
, 			{
				"patchline" : 				{
					"source" : [ "obj-29", 0 ],
					"destination" : [ "obj-14", 0 ],
					"hidden" : 0,
					"midpoints" : [  ]
				}

			}
, 			{
				"patchline" : 				{
					"source" : [ "obj-27", 3 ],
					"destination" : [ "obj-29", 2 ],
					"hidden" : 0,
					"midpoints" : [  ]
				}

			}
, 			{
				"patchline" : 				{
					"source" : [ "obj-27", 2 ],
					"destination" : [ "obj-29", 2 ],
					"hidden" : 0,
					"midpoints" : [  ]
				}

			}
, 			{
				"patchline" : 				{
					"source" : [ "obj-28", 0 ],
					"destination" : [ "obj-27", 0 ],
					"hidden" : 0,
					"midpoints" : [  ]
				}

			}
, 			{
				"patchline" : 				{
					"source" : [ "obj-27", 0 ],
					"destination" : [ "obj-29", 2 ],
					"hidden" : 0,
					"midpoints" : [  ]
				}

			}
, 			{
				"patchline" : 				{
					"source" : [ "obj-27", 1 ],
					"destination" : [ "obj-29", 2 ],
					"hidden" : 0,
					"midpoints" : [  ]
				}

			}
, 			{
				"patchline" : 				{
					"source" : [ "obj-32", 0 ],
					"destination" : [ "obj-25", 0 ],
					"hidden" : 0,
					"midpoints" : [  ]
				}

			}
, 			{
				"patchline" : 				{
					"source" : [ "obj-15", 0 ],
					"destination" : [ "obj-32", 0 ],
					"hidden" : 0,
					"midpoints" : [  ]
				}

			}
, 			{
				"patchline" : 				{
					"source" : [ "obj-31", 0 ],
					"destination" : [ "obj-25", 3 ],
					"hidden" : 0,
					"midpoints" : [  ]
				}

			}
, 			{
				"patchline" : 				{
					"source" : [ "obj-31", 0 ],
					"destination" : [ "obj-28", 3 ],
					"hidden" : 0,
					"midpoints" : [  ]
				}

			}
, 			{
				"patchline" : 				{
					"source" : [ "obj-26", 1 ],
					"destination" : [ "obj-9", 0 ],
					"hidden" : 0,
					"midpoints" : [  ]
				}

			}
, 			{
				"patchline" : 				{
					"source" : [ "obj-20", 0 ],
					"destination" : [ "obj-28", 0 ],
					"hidden" : 0,
					"midpoints" : [  ]
				}

			}
, 			{
				"patchline" : 				{
					"source" : [ "obj-26", 0 ],
					"destination" : [ "obj-9", 0 ],
					"hidden" : 0,
					"midpoints" : [  ]
				}

			}
, 			{
				"patchline" : 				{
					"source" : [ "obj-25", 0 ],
					"destination" : [ "obj-26", 0 ],
					"hidden" : 0,
					"midpoints" : [  ]
				}

			}
, 			{
				"patchline" : 				{
					"source" : [ "obj-24", 0 ],
					"destination" : [ "obj-20", 1 ],
					"hidden" : 0,
					"midpoints" : [  ]
				}

			}
, 			{
				"patchline" : 				{
					"source" : [ "obj-22", 0 ],
					"destination" : [ "obj-20", 0 ],
					"hidden" : 0,
					"midpoints" : [  ]
				}

			}
, 			{
				"patchline" : 				{
					"source" : [ "obj-20", 0 ],
					"destination" : [ "obj-15", 0 ],
					"hidden" : 0,
					"midpoints" : [  ]
				}

			}
, 			{
				"patchline" : 				{
					"source" : [ "obj-18", 0 ],
					"destination" : [ "obj-15", 1 ],
					"hidden" : 0,
					"midpoints" : [  ]
				}

			}
, 			{
				"patchline" : 				{
					"source" : [ "obj-13", 0 ],
					"destination" : [ "obj-14", 1 ],
					"hidden" : 0,
					"midpoints" : [  ]
				}

			}
, 			{
				"patchline" : 				{
					"source" : [ "obj-13", 0 ],
					"destination" : [ "obj-14", 0 ],
					"hidden" : 0,
					"midpoints" : [  ]
				}

			}
, 			{
				"patchline" : 				{
					"source" : [ "obj-9", 0 ],
					"destination" : [ "obj-12", 0 ],
					"hidden" : 0,
					"midpoints" : [  ]
				}

			}
, 			{
				"patchline" : 				{
					"source" : [ "obj-9", 0 ],
					"destination" : [ "obj-10", 0 ],
					"hidden" : 0,
					"midpoints" : [  ]
				}

			}
, 			{
				"patchline" : 				{
					"source" : [ "obj-11", 0 ],
					"destination" : [ "obj-4", 0 ],
					"hidden" : 0,
					"midpoints" : [  ]
				}

			}
, 			{
				"patchline" : 				{
					"source" : [ "obj-5", 0 ],
					"destination" : [ "obj-13", 2 ],
					"hidden" : 0,
					"midpoints" : [  ]
				}

			}
, 			{
				"patchline" : 				{
					"source" : [ "obj-8", 0 ],
					"destination" : [ "obj-4", 2 ],
					"hidden" : 0,
					"midpoints" : [  ]
				}

			}
, 			{
				"patchline" : 				{
					"source" : [ "obj-7", 0 ],
					"destination" : [ "obj-4", 1 ],
					"hidden" : 0,
					"midpoints" : [  ]
				}

			}
, 			{
				"patchline" : 				{
					"source" : [ "obj-4", 0 ],
					"destination" : [ "obj-13", 0 ],
					"hidden" : 0,
					"midpoints" : [  ]
				}

			}
, 			{
				"patchline" : 				{
					"source" : [ "obj-19", 0 ],
					"destination" : [ "obj-10", 0 ],
					"hidden" : 0,
					"midpoints" : [  ]
				}

			}
, 			{
				"patchline" : 				{
					"source" : [ "obj-10", 1 ],
					"destination" : [ "obj-19", 0 ],
					"hidden" : 0,
					"midpoints" : [  ]
				}

			}
, 			{
				"patchline" : 				{
					"source" : [ "obj-10", 0 ],
					"destination" : [ "obj-11", 0 ],
					"hidden" : 0,
					"midpoints" : [  ]
				}

			}
, 			{
				"patchline" : 				{
					"source" : [ "obj-17", 0 ],
					"destination" : [ "obj-13", 1 ],
					"hidden" : 0,
					"midpoints" : [  ]
				}

			}
 ]
	}

}
