#N canvas 441 171 428 403 10;
#X obj 43 183 f;
#X obj 71 215 pack f f f f f;
#X obj 58 110 r \$2-midiout\$1_trigger;
#X obj 91 130 r \$2-midiout\$1_pitch;
#X obj 111 150 r \$2-midiout\$1_octave;
#X obj 131 171 r \$2-midiout\$1_velocity;
#X obj 152 191 r \$2-midiout\$1_length;
#X obj 43 85 r \$2-midiout\$1_param;
#X obj 71 280 s \$2-midiout_glob_param;
#X obj 71 245 prepend \$1;
#X connect 0 0 1 0;
#X connect 1 0 9 0;
#X connect 2 0 0 1;
#X connect 3 0 1 1;
#X connect 4 0 1 2;
#X connect 5 0 1 3;
#X connect 6 0 1 4;
#X connect 7 0 0 0;
#X connect 9 0 8 0;
