#N canvas 82 81 1160 632 10;
#X obj 228 281 *~;
#X obj 278 301 line~;
#X obj 173 331 cos~;
#X obj 173 311 +~;
#X obj 228 261 osc~ 0;
#X obj 278 281 pack 0 50;
#X obj 278 261 / 100;
#X obj 173 261 phasor~;
#X obj 193 461 hip~;
#X obj 173 73 ead~ 1 20;
#X obj 173 113 +~ 1;
#X obj 173 93 *~ 1;
#X obj 383 311 ead~ 1 50;
#X obj 231 385 *~;
#X obj 193 491 *~ 1;
#X obj 233 491 *~ 1;
#X obj 837 155 s \$0-trigger;
#X obj 837 135 sel 1;
#X obj 523 420 s \$0-pitch-bottom;
#X obj 569 399 s \$0-pitch-top;
#X obj 581 372 s \$0-mod-freq;
#X obj 615 349 s \$0-mod-index;
#X obj 636 328 s \$0-amp-attack;
#X obj 657 306 s \$0-amp-decay;
#X obj 696 250 s \$0-pan-left;
#X obj 713 225 s \$0-pan-right;
#X obj 366 458 r \$0-pan-left;
#X obj 366 489 r \$0-pan-right;
#X obj 409 265 r \$0-amp-attack;
#X obj 415 286 r \$0-amp-decay;
#X obj 193 441 *~;
#X obj 674 278 s \$0-amp-level;
#X obj 273 400 r \$0-amp-level;
#X obj 213 93 r \$0-pitch-top;
#X obj 213 113 r \$0-pitch-bottom;
#X obj 198 33 r \$0-pitch-attack;
#X obj 224 53 r \$0-pitch-decay;
#X obj 488 463 s \$0-pitch-attack;
#X obj 506 440 s \$0-pitch-decay;
#X obj 228 154 r \$0-mod-freq;
#X obj 254 203 r \$0-mod-index;
#X obj 173 13 r \$0-trigger;
#X obj 394 242 r \$0-trigger;
#X obj 522 79 inlet;
#X obj 96 588 outlet~;
#X obj 166 588 outlet~;
#X msg 518 530 1 5 50 1000 1 10 1 40 1 1 1;
#X obj 70 505 inlet~;
#X obj 140 505 inlet~;
#X obj 97 540 +~;
#X obj 147 540 +~;
#X obj 525 605 outlet;
#X obj 882 45 r \$1-event;
#X obj 882 65 > 0.5;
#X obj 882 105 change;
#X obj 515 124 unpack f f f f f f f f f f f f;
#X obj 723 195 s \$0-env-bypass;
#X obj 837 25 r \$0-env-bypass;
#X obj 837 85 gate 2 1;
#X obj 837 55 + 1;
#X obj 224 356 *~ 0;
#X obj 79 336 *~ 1;
#X obj 44 211 r \$0-env-bypass;
#X obj 98 239 != 1;
#X obj 857 185 s \$0-trigger-val;
#X obj 103 366 r \$0-trigger-val;
#X obj 76 418 *~;
#X obj 103 406 line~;
#X msg 103 386 \$1 8;
#X connect 0 0 3 1;
#X connect 1 0 0 1;
#X connect 2 0 60 0;
#X connect 2 0 61 0;
#X connect 3 0 2 0;
#X connect 4 0 0 0;
#X connect 5 0 1 0;
#X connect 6 0 5 0;
#X connect 7 0 3 0;
#X connect 8 0 14 0;
#X connect 8 0 15 0;
#X connect 9 0 11 0;
#X connect 10 0 7 0;
#X connect 11 0 10 0;
#X connect 12 0 13 1;
#X connect 13 0 30 0;
#X connect 14 0 49 1;
#X connect 15 0 50 1;
#X connect 17 0 16 0;
#X connect 26 0 14 1;
#X connect 27 0 15 1;
#X connect 28 0 12 1;
#X connect 29 0 12 2;
#X connect 30 0 8 0;
#X connect 32 0 30 1;
#X connect 33 0 11 1;
#X connect 34 0 10 1;
#X connect 35 0 9 1;
#X connect 36 0 9 2;
#X connect 39 0 4 0;
#X connect 40 0 6 0;
#X connect 41 0 9 0;
#X connect 42 0 12 0;
#X connect 43 0 55 0;
#X connect 47 0 49 0;
#X connect 48 0 50 0;
#X connect 49 0 44 0;
#X connect 50 0 45 0;
#X connect 52 0 53 0;
#X connect 53 0 58 1;
#X connect 54 0 17 0;
#X connect 54 0 64 0;
#X connect 55 0 37 0;
#X connect 55 1 38 0;
#X connect 55 2 18 0;
#X connect 55 3 19 0;
#X connect 55 4 20 0;
#X connect 55 5 21 0;
#X connect 55 6 22 0;
#X connect 55 7 23 0;
#X connect 55 8 31 0;
#X connect 55 9 24 0;
#X connect 55 10 25 0;
#X connect 55 11 56 0;
#X connect 57 0 59 0;
#X connect 58 0 17 0;
#X connect 58 0 64 0;
#X connect 58 1 54 0;
#X connect 59 0 58 0;
#X connect 60 0 13 0;
#X connect 61 0 66 0;
#X connect 62 0 61 1;
#X connect 62 0 63 0;
#X connect 63 0 60 1;
#X connect 65 0 68 0;
#X connect 66 0 30 0;
#X connect 67 0 66 1;
#X connect 68 0 67 0;
