#N canvas 192 105 771 576 10;
#X floatatom 575 110 5 0 0 0 - - -;
#X text 615 108 bpm;
#X obj 539 150 tgl 15 0 empty empty empty 17 7 0 10 -262144 -1 -1 0
1;
#X obj 575 130 expr (60000 / $f1) * 4;
#X obj 575 150 s \$0-transport-tempo;
#X obj 539 170 s \$0-transport-power;
#X obj 501 331 table seq1;
#X obj 501 351 table seq2;
#X obj 501 371 table seq3;
#X obj 501 391 table seq4;
#X obj 501 411 table seq5;
#X obj 508 19 r \$0-transport-reset;
#X obj 508 79 t b b b;
#X msg 508 110 1;
#X msg 539 110 0;
#X obj 49 229 sig~ 0;
#X obj 49 469 *~ 1;
#X obj 86 469 *~ 1;
#X obj 58 495 dac~;
#X obj 49 519 writesf~ 2;
#X msg 145 479 start;
#X msg 189 479 stop;
#X obj 575 82 loadmess 120;
#N canvas 77 301 450 300 text_loader 0;
#X obj 177 126 textfile;
#X obj 177 146 t l b;
#X obj 234 166 + 1;
#X obj 81 130 until;
#X obj 204 166 f 1;
#X msg 246 130 1;
#X obj 179 69 t b a;
#X obj 167 269 outlet;
#X obj 217 269 outlet;
#X obj 267 269 outlet;
#X obj 317 269 outlet;
#X obj 367 269 outlet;
#X msg 280 83 rewind;
#X obj 180 98 t b b b;
#X obj 177 196 gate 5 1;
#X obj 353 59 inlet;
#X obj 356 96 openpanel;
#X obj 322 146 prepend read;
#X connect 0 0 1 0;
#X connect 0 1 3 1;
#X connect 1 0 14 1;
#X connect 1 1 4 0;
#X connect 2 0 4 1;
#X connect 3 0 0 0;
#X connect 4 0 2 0;
#X connect 4 0 14 0;
#X connect 5 0 4 1;
#X connect 6 0 13 0;
#X connect 6 1 0 0;
#X connect 12 0 0 0;
#X connect 13 0 3 0;
#X connect 13 1 5 0;
#X connect 13 2 12 0;
#X connect 14 0 7 0;
#X connect 14 1 8 0;
#X connect 14 2 9 0;
#X connect 14 3 10 0;
#X connect 14 4 11 0;
#X connect 15 0 16 0;
#X connect 16 0 17 0;
#X connect 17 0 6 0;
#X restore 48 39 pd text_loader;
#X obj 107 440 tgl 15 0 empty empty empty 17 7 0 10 -262144 -1 -1 1
1;
#X obj 107 419 loadmess 1;
#X obj 539 59 r \$0-transport-stop;
#X obj 508 39 r \$0-transport-play;
#X obj 48 19 bng 15 250 50 0 empty empty empty 17 7 0 10 -262144 -1
-1;
#X obj 28 69 bng 15 250 50 0 empty empty empty 17 7 0 10 -262144 -1
-1;
#X obj 28 89 bng 15 250 50 0 empty empty empty 17 7 0 10 -262144 -1
-1;
#X obj 28 109 bng 15 250 50 0 empty empty empty 17 7 0 10 -262144 -1
-1;
#X obj 29 129 bng 15 250 50 0 empty empty empty 17 7 0 10 -262144 -1
-1;
#X obj 29 149 bng 15 250 50 0 empty empty empty 17 7 0 10 -262144 -1
-1;
#X obj 125 499 openpanel;
#X obj 125 519 prepend open;
#X obj 125 479 bng 15 250 50 0 empty empty empty 17 7 0 10 -262144
-1 -1;
#X msg 144 339 1 20 50 600 10 0 1 50 0 0.25 0.25 1;
#X msg 144 319 1 20 50 1000 10 0 1 100 1 0.25 0.25 1;
#X msg 168 129 1 3 256 0 0;
#X msg 168 149 1 51 100 0 0;
#X msg 167 69 1 0 0 0 0;
#X msg 144 279 1 10 1000 10000 100 10 1 1 1 0.2 0.2 1;
#X msg 144 259 1 20 50 1000 10 0 1 50 1 0.5 0.5 0;
#X msg 167 89 1 3 13 0 0;
#X msg 167 109 1 2 8 -2 0;
#X msg 144 299 1 20 200 1000 200 100 10 5 1 0.125 0.125 1;
#X obj 48 69 sequencer seq1 \$0;
#X obj 48 89 sequencer seq2 \$0;
#X obj 48 109 sequencer seq3 \$0;
#X obj 49 129 sequencer seq4 \$0;
#X obj 49 149 sequencer seq5 \$0;
#X obj 49 259 clicker~ seq1;
#X obj 49 279 clicker~ seq2;
#X obj 49 299 clicker~ seq3;
#X obj 49 319 clicker~ seq4;
#X obj 49 339 clicker~ seq5;
#X text 273 489 Each line in a text file represents a track. Rows can
vary in length \, they will be stretched to fill any number of bars.
;
#X text 164 44 args) bars \, pulses \, steps \, rotation \, reverse
;
#X text 141 221 args) p_attack \, p_dec \, p_bott \, p_top \, mod_freq
\, mod_idx \, att \, dec \, vol \, pan_l \, pan_r \, bypass;
#X text 71 17 Load text file.;
#X text 273 469 Text file sequencer.;
#X text 131 459 Record;
#X connect 0 0 3 0;
#X connect 2 0 5 0;
#X connect 3 0 4 0;
#X connect 11 0 12 0;
#X connect 12 0 13 0;
#X connect 12 1 14 0;
#X connect 12 2 0 0;
#X connect 13 0 2 0;
#X connect 14 0 2 0;
#X connect 15 0 52 0;
#X connect 15 0 52 1;
#X connect 16 0 18 0;
#X connect 16 0 19 0;
#X connect 17 0 18 1;
#X connect 17 0 19 1;
#X connect 20 0 19 0;
#X connect 21 0 19 0;
#X connect 22 0 0 0;
#X connect 23 0 47 0;
#X connect 23 1 48 0;
#X connect 23 2 49 0;
#X connect 23 3 50 0;
#X connect 23 4 51 0;
#X connect 24 0 17 1;
#X connect 24 0 16 1;
#X connect 25 0 24 0;
#X connect 26 0 14 0;
#X connect 27 0 13 0;
#X connect 28 0 23 0;
#X connect 34 0 35 0;
#X connect 35 0 19 0;
#X connect 36 0 34 0;
#X connect 37 0 56 2;
#X connect 38 0 55 2;
#X connect 39 0 50 1;
#X connect 40 0 51 1;
#X connect 41 0 47 1;
#X connect 42 0 53 2;
#X connect 43 0 52 2;
#X connect 44 0 48 1;
#X connect 45 0 49 1;
#X connect 46 0 54 2;
#X connect 47 0 29 0;
#X connect 48 0 30 0;
#X connect 49 0 31 0;
#X connect 50 0 32 0;
#X connect 51 0 33 0;
#X connect 52 0 53 0;
#X connect 52 1 53 1;
#X connect 53 0 54 0;
#X connect 53 1 54 1;
#X connect 54 0 55 0;
#X connect 54 1 55 1;
#X connect 55 0 56 0;
#X connect 55 1 56 1;
#X connect 56 0 16 0;
#X connect 56 1 17 0;
