{
	"patcher" : 	{
		"fileversion" : 1,
		"rect" : [ 640.0, 205.0, 640.0, 506.0 ],
		"bglocked" : 0,
		"defrect" : [ 640.0, 205.0, 640.0, 506.0 ],
		"openrect" : [ 0.0, 0.0, 0.0, 0.0 ],
		"openinpresentation" : 0,
		"default_fontsize" : 10.0,
		"default_fontface" : 0,
		"default_fontname" : "Arial",
		"gridonopen" : 0,
		"gridsize" : [ 15.0, 15.0 ],
		"gridsnaponopen" : 0,
		"toolbarvisible" : 1,
		"boxanimatetime" : 200,
		"imprint" : 0,
		"metadata" : [  ],
		"boxes" : [ 			{
				"box" : 				{
					"maxclass" : "newobj",
					"text" : "thispoly~",
					"outlettype" : [ "int", "int" ],
					"id" : "obj-29",
					"fontname" : "Arial",
					"patching_rect" : [ 120.0, 300.0, 50.0, 18.0 ],
					"numinlets" : 1,
					"fontsize" : 10.0,
					"numoutlets" : 2
				}

			}
, 			{
				"box" : 				{
					"maxclass" : "newobj",
					"text" : "out~ 2",
					"id" : "obj-28",
					"fontname" : "Arial",
					"patching_rect" : [ 75.0, 390.0, 39.0, 18.0 ],
					"numinlets" : 1,
					"fontsize" : 10.0,
					"numoutlets" : 0,
					"saved_object_attributes" : 					{

					}

				}

			}
, 			{
				"box" : 				{
					"maxclass" : "newobj",
					"text" : "out~ 1",
					"id" : "obj-27",
					"fontname" : "Arial",
					"patching_rect" : [ 30.0, 390.0, 39.0, 18.0 ],
					"numinlets" : 1,
					"fontsize" : 10.0,
					"numoutlets" : 0,
					"saved_object_attributes" : 					{

					}

				}

			}
, 			{
				"box" : 				{
					"maxclass" : "newobj",
					"text" : "loadmess 0",
					"outlettype" : [ "" ],
					"id" : "obj-26",
					"fontname" : "Arial",
					"patching_rect" : [ 120.0, 330.0, 62.0, 18.0 ],
					"numinlets" : 1,
					"fontsize" : 10.0,
					"numoutlets" : 1
				}

			}
, 			{
				"box" : 				{
					"maxclass" : "newobj",
					"text" : "pan2",
					"outlettype" : [ "signal", "signal" ],
					"id" : "obj-25",
					"fontname" : "Arial",
					"patching_rect" : [ 30.0, 360.0, 63.5, 18.0 ],
					"numinlets" : 4,
					"fontsize" : 10.0,
					"numoutlets" : 2
				}

			}
, 			{
				"box" : 				{
					"maxclass" : "newobj",
					"text" : "*~",
					"outlettype" : [ "signal" ],
					"id" : "obj-24",
					"fontname" : "Arial",
					"patching_rect" : [ 30.0, 330.0, 32.5, 18.0 ],
					"numinlets" : 2,
					"fontsize" : 10.0,
					"numoutlets" : 1
				}

			}
, 			{
				"box" : 				{
					"maxclass" : "newobj",
					"text" : "t b f",
					"outlettype" : [ "bang", "float" ],
					"id" : "obj-23",
					"fontname" : "Arial",
					"patching_rect" : [ 120.0, 135.0, 32.5, 18.0 ],
					"numinlets" : 1,
					"fontsize" : 10.0,
					"numoutlets" : 2
				}

			}
, 			{
				"box" : 				{
					"maxclass" : "newobj",
					"text" : "float",
					"outlettype" : [ "float" ],
					"id" : "obj-22",
					"fontname" : "Arial",
					"patching_rect" : [ 120.0, 165.0, 32.5, 18.0 ],
					"numinlets" : 2,
					"fontsize" : 10.0,
					"numoutlets" : 1
				}

			}
, 			{
				"box" : 				{
					"maxclass" : "newobj",
					"text" : "pack 0. 0. 0. 0.",
					"outlettype" : [ "" ],
					"id" : "obj-21",
					"fontname" : "Arial",
					"patching_rect" : [ 120.0, 225.0, 76.0, 18.0 ],
					"numinlets" : 4,
					"fontsize" : 10.0,
					"numoutlets" : 1
				}

			}
, 			{
				"box" : 				{
					"maxclass" : "newobj",
					"text" : "line~",
					"outlettype" : [ "signal", "bang" ],
					"id" : "obj-20",
					"fontname" : "Arial",
					"patching_rect" : [ 120.0, 255.0, 32.5, 18.0 ],
					"numinlets" : 2,
					"fontsize" : 10.0,
					"numoutlets" : 2
				}

			}
, 			{
				"box" : 				{
					"maxclass" : "newobj",
					"text" : "/ 2.",
					"outlettype" : [ "float" ],
					"id" : "obj-19",
					"fontname" : "Arial",
					"patching_rect" : [ 120.0, 105.0, 32.5, 18.0 ],
					"numinlets" : 2,
					"fontsize" : 10.0,
					"numoutlets" : 1
				}

			}
, 			{
				"box" : 				{
					"maxclass" : "newobj",
					"text" : "scale 0 127 0. 1. 1.03",
					"outlettype" : [ "float" ],
					"id" : "obj-18",
					"fontname" : "Arial",
					"patching_rect" : [ 165.0, 135.0, 106.0, 18.0 ],
					"numinlets" : 6,
					"fontsize" : 10.0,
					"numoutlets" : 1
				}

			}
, 			{
				"box" : 				{
					"maxclass" : "message",
					"text" : "$1, $2 $3",
					"outlettype" : [ "" ],
					"id" : "obj-17",
					"fontname" : "Arial",
					"patching_rect" : [ 30.0, 165.0, 52.0, 16.0 ],
					"numinlets" : 2,
					"fontsize" : 10.0,
					"numoutlets" : 1
				}

			}
, 			{
				"box" : 				{
					"maxclass" : "newobj",
					"text" : "pack 0 0 0",
					"outlettype" : [ "" ],
					"id" : "obj-15",
					"fontname" : "Arial",
					"patching_rect" : [ 30.0, 135.0, 57.0, 18.0 ],
					"numinlets" : 3,
					"fontsize" : 10.0,
					"numoutlets" : 1
				}

			}
, 			{
				"box" : 				{
					"maxclass" : "newobj",
					"text" : "+",
					"outlettype" : [ "int" ],
					"id" : "obj-14",
					"fontname" : "Arial",
					"patching_rect" : [ 45.0, 105.0, 32.5, 18.0 ],
					"numinlets" : 2,
					"fontsize" : 10.0,
					"numoutlets" : 1
				}

			}
, 			{
				"box" : 				{
					"maxclass" : "newobj",
					"text" : "line~",
					"outlettype" : [ "signal", "bang" ],
					"id" : "obj-13",
					"fontname" : "Arial",
					"patching_rect" : [ 30.0, 195.0, 32.5, 18.0 ],
					"numinlets" : 2,
					"fontsize" : 10.0,
					"numoutlets" : 2
				}

			}
, 			{
				"box" : 				{
					"maxclass" : "newobj",
					"text" : "unpack 0 0 0 0",
					"outlettype" : [ "int", "int", "int", "int" ],
					"id" : "obj-12",
					"fontname" : "Arial",
					"patching_rect" : [ 30.0, 60.0, 76.0, 18.0 ],
					"numinlets" : 1,
					"fontsize" : 10.0,
					"numoutlets" : 4
				}

			}
, 			{
				"box" : 				{
					"maxclass" : "newobj",
					"text" : "in 1",
					"outlettype" : [ "" ],
					"id" : "obj-11",
					"fontname" : "Arial",
					"patching_rect" : [ 30.0, 30.0, 27.0, 18.0 ],
					"numinlets" : 1,
					"fontsize" : 10.0,
					"numoutlets" : 1,
					"saved_object_attributes" : 					{

					}

				}

			}
, 			{
				"box" : 				{
					"maxclass" : "newobj",
					"text" : "play~ gran",
					"outlettype" : [ "signal" ],
					"id" : "obj-2",
					"fontname" : "Arial",
					"patching_rect" : [ 30.0, 225.0, 57.0, 18.0 ],
					"numinlets" : 1,
					"fontsize" : 10.0,
					"numoutlets" : 1
				}

			}
 ],
		"lines" : [ 			{
				"patchline" : 				{
					"source" : [ "obj-11", 0 ],
					"destination" : [ "obj-12", 0 ],
					"hidden" : 0,
					"midpoints" : [  ]
				}

			}
, 			{
				"patchline" : 				{
					"source" : [ "obj-13", 0 ],
					"destination" : [ "obj-2", 0 ],
					"hidden" : 0,
					"midpoints" : [  ]
				}

			}
, 			{
				"patchline" : 				{
					"source" : [ "obj-12", 0 ],
					"destination" : [ "obj-14", 0 ],
					"hidden" : 0,
					"midpoints" : [  ]
				}

			}
, 			{
				"patchline" : 				{
					"source" : [ "obj-12", 1 ],
					"destination" : [ "obj-14", 1 ],
					"hidden" : 0,
					"midpoints" : [  ]
				}

			}
, 			{
				"patchline" : 				{
					"source" : [ "obj-12", 0 ],
					"destination" : [ "obj-15", 0 ],
					"hidden" : 0,
					"midpoints" : [  ]
				}

			}
, 			{
				"patchline" : 				{
					"source" : [ "obj-14", 0 ],
					"destination" : [ "obj-15", 1 ],
					"hidden" : 0,
					"midpoints" : [  ]
				}

			}
, 			{
				"patchline" : 				{
					"source" : [ "obj-12", 1 ],
					"destination" : [ "obj-15", 2 ],
					"hidden" : 0,
					"midpoints" : [  ]
				}

			}
, 			{
				"patchline" : 				{
					"source" : [ "obj-15", 0 ],
					"destination" : [ "obj-17", 0 ],
					"hidden" : 0,
					"midpoints" : [  ]
				}

			}
, 			{
				"patchline" : 				{
					"source" : [ "obj-17", 0 ],
					"destination" : [ "obj-13", 0 ],
					"hidden" : 0,
					"midpoints" : [  ]
				}

			}
, 			{
				"patchline" : 				{
					"source" : [ "obj-12", 2 ],
					"destination" : [ "obj-18", 0 ],
					"hidden" : 0,
					"midpoints" : [  ]
				}

			}
, 			{
				"patchline" : 				{
					"source" : [ "obj-12", 1 ],
					"destination" : [ "obj-19", 0 ],
					"hidden" : 0,
					"midpoints" : [  ]
				}

			}
, 			{
				"patchline" : 				{
					"source" : [ "obj-21", 0 ],
					"destination" : [ "obj-20", 0 ],
					"hidden" : 0,
					"midpoints" : [  ]
				}

			}
, 			{
				"patchline" : 				{
					"source" : [ "obj-18", 0 ],
					"destination" : [ "obj-22", 1 ],
					"hidden" : 0,
					"midpoints" : [  ]
				}

			}
, 			{
				"patchline" : 				{
					"source" : [ "obj-19", 0 ],
					"destination" : [ "obj-23", 0 ],
					"hidden" : 0,
					"midpoints" : [  ]
				}

			}
, 			{
				"patchline" : 				{
					"source" : [ "obj-23", 0 ],
					"destination" : [ "obj-22", 0 ],
					"hidden" : 0,
					"midpoints" : [  ]
				}

			}
, 			{
				"patchline" : 				{
					"source" : [ "obj-22", 0 ],
					"destination" : [ "obj-21", 0 ],
					"hidden" : 0,
					"midpoints" : [  ]
				}

			}
, 			{
				"patchline" : 				{
					"source" : [ "obj-23", 1 ],
					"destination" : [ "obj-21", 1 ],
					"hidden" : 0,
					"midpoints" : [  ]
				}

			}
, 			{
				"patchline" : 				{
					"source" : [ "obj-23", 1 ],
					"destination" : [ "obj-21", 3 ],
					"hidden" : 0,
					"midpoints" : [  ]
				}

			}
, 			{
				"patchline" : 				{
					"source" : [ "obj-20", 0 ],
					"destination" : [ "obj-24", 1 ],
					"hidden" : 0,
					"midpoints" : [  ]
				}

			}
, 			{
				"patchline" : 				{
					"source" : [ "obj-2", 0 ],
					"destination" : [ "obj-24", 0 ],
					"hidden" : 0,
					"midpoints" : [  ]
				}

			}
, 			{
				"patchline" : 				{
					"source" : [ "obj-12", 3 ],
					"destination" : [ "obj-25", 2 ],
					"hidden" : 0,
					"midpoints" : [  ]
				}

			}
, 			{
				"patchline" : 				{
					"source" : [ "obj-26", 0 ],
					"destination" : [ "obj-25", 3 ],
					"hidden" : 0,
					"midpoints" : [  ]
				}

			}
, 			{
				"patchline" : 				{
					"source" : [ "obj-24", 0 ],
					"destination" : [ "obj-25", 0 ],
					"hidden" : 0,
					"midpoints" : [  ]
				}

			}
, 			{
				"patchline" : 				{
					"source" : [ "obj-25", 0 ],
					"destination" : [ "obj-27", 0 ],
					"hidden" : 0,
					"midpoints" : [  ]
				}

			}
, 			{
				"patchline" : 				{
					"source" : [ "obj-25", 1 ],
					"destination" : [ "obj-28", 0 ],
					"hidden" : 0,
					"midpoints" : [  ]
				}

			}
, 			{
				"patchline" : 				{
					"source" : [ "obj-20", 0 ],
					"destination" : [ "obj-29", 0 ],
					"hidden" : 0,
					"midpoints" : [  ]
				}

			}
 ]
	}

}
