{
	"patcher" : 	{
		"fileversion" : 1,
		"rect" : [ 50.0, 94.0, 640.0, 506.0 ],
		"bglocked" : 0,
		"defrect" : [ 50.0, 94.0, 640.0, 506.0 ],
		"openrect" : [ 0.0, 0.0, 0.0, 0.0 ],
		"openinpresentation" : 1,
		"default_fontsize" : 9.0,
		"default_fontface" : 0,
		"default_fontname" : "Arial",
		"gridonopen" : 0,
		"gridsize" : [ 15.0, 15.0 ],
		"gridsnaponopen" : 0,
		"toolbarvisible" : 1,
		"boxanimatetime" : 200,
		"imprint" : 0,
		"metadata" : [  ],
		"boxes" : [ 			{
				"box" : 				{
					"maxclass" : "inlet",
					"numoutlets" : 1,
					"outlettype" : [ "" ],
					"id" : "obj-5",
					"patching_rect" : [ 296.0, 114.0, 25.0, 25.0 ],
					"numinlets" : 0,
					"comment" : ""
				}

			}
, 			{
				"box" : 				{
					"maxclass" : "inlet",
					"numoutlets" : 1,
					"outlettype" : [ "" ],
					"id" : "obj-4",
					"patching_rect" : [ 235.0, 118.0, 25.0, 25.0 ],
					"numinlets" : 0,
					"comment" : ""
				}

			}
, 			{
				"box" : 				{
					"maxclass" : "outlet",
					"numoutlets" : 0,
					"id" : "obj-3",
					"patching_rect" : [ 262.0, 378.0, 25.0, 25.0 ],
					"numinlets" : 1,
					"comment" : ""
				}

			}
, 			{
				"box" : 				{
					"maxclass" : "outlet",
					"numoutlets" : 0,
					"id" : "obj-2",
					"patching_rect" : [ 157.0, 381.0, 25.0, 25.0 ],
					"numinlets" : 1,
					"comment" : ""
				}

			}
, 			{
				"box" : 				{
					"maxclass" : "inlet",
					"numoutlets" : 1,
					"outlettype" : [ "" ],
					"id" : "obj-1",
					"patching_rect" : [ 164.0, 85.0, 25.0, 25.0 ],
					"numinlets" : 0,
					"comment" : ""
				}

			}
, 			{
				"box" : 				{
					"maxclass" : "button",
					"numoutlets" : 1,
					"presentation_rect" : [ 180.0, 30.0, 20.0, 20.0 ],
					"outlettype" : [ "bang" ],
					"id" : "obj-14",
					"patching_rect" : [ 165.0, 315.0, 20.0, 20.0 ],
					"outlinecolor" : [ 0.258824, 0.258824, 0.258824, 1.0 ],
					"presentation" : 1,
					"numinlets" : 1
				}

			}
, 			{
				"box" : 				{
					"maxclass" : "newobj",
					"text" : "select 1",
					"numoutlets" : 2,
					"outlettype" : [ "bang", "" ],
					"id" : "obj-10",
					"fontname" : "Arial",
					"patching_rect" : [ 165.0, 285.0, 45.0, 18.0 ],
					"fontsize" : 10.0,
					"numinlets" : 2
				}

			}
, 			{
				"box" : 				{
					"maxclass" : "flonum",
					"numoutlets" : 2,
					"presentation_rect" : [ 120.0, 30.0, 50.0, 18.0 ],
					"bordercolor" : [ 0.258824, 0.258824, 0.258824, 1.0 ],
					"outlettype" : [ "float", "bang" ],
					"id" : "obj-55",
					"fontname" : "Arial",
					"patching_rect" : [ 255.0, 240.0, 50.0, 18.0 ],
					"presentation" : 1,
					"fontsize" : 10.0,
					"numinlets" : 1
				}

			}
, 			{
				"box" : 				{
					"maxclass" : "comment",
					"text" : "Threshold",
					"numoutlets" : 0,
					"presentation_rect" : [ 60.0, 0.0, 59.0, 18.0 ],
					"id" : "obj-56",
					"fontname" : "Arial",
					"patching_rect" : [ 270.0, 165.0, 59.0, 18.0 ],
					"presentation" : 1,
					"fontface" : 1,
					"fontsize" : 10.0,
					"numinlets" : 1
				}

			}
, 			{
				"box" : 				{
					"maxclass" : "comment",
					"text" : "Gain",
					"numoutlets" : 0,
					"presentation_rect" : [ 0.0, 0.0, 35.0, 18.0 ],
					"id" : "obj-57",
					"fontname" : "Arial",
					"patching_rect" : [ 210.0, 165.0, 35.0, 18.0 ],
					"presentation" : 1,
					"fontface" : 1,
					"fontsize" : 10.0,
					"numinlets" : 1
				}

			}
, 			{
				"box" : 				{
					"maxclass" : "flonum",
					"numoutlets" : 2,
					"presentation_rect" : [ 60.0, 30.0, 50.0, 18.0 ],
					"bordercolor" : [ 0.258824, 0.258824, 0.258824, 1.0 ],
					"outlettype" : [ "float", "bang" ],
					"id" : "obj-58",
					"fontname" : "Arial",
					"patching_rect" : [ 270.0, 180.0, 50.0, 18.0 ],
					"presentation" : 1,
					"fontsize" : 10.0,
					"numinlets" : 1
				}

			}
, 			{
				"box" : 				{
					"maxclass" : "flonum",
					"numoutlets" : 2,
					"presentation_rect" : [ 0.0, 30.0, 50.0, 18.0 ],
					"bordercolor" : [ 0.258824, 0.258824, 0.258824, 1.0 ],
					"outlettype" : [ "float", "bang" ],
					"id" : "obj-59",
					"fontname" : "Arial",
					"patching_rect" : [ 210.0, 180.0, 50.0, 18.0 ],
					"presentation" : 1,
					"fontsize" : 10.0,
					"numinlets" : 1
				}

			}
, 			{
				"box" : 				{
					"maxclass" : "newobj",
					"text" : "p audioEvent",
					"numoutlets" : 2,
					"outlettype" : [ "int", "float" ],
					"id" : "obj-60",
					"fontname" : "Arial",
					"patching_rect" : [ 165.0, 210.0, 109.0, 18.0 ],
					"fontsize" : 10.0,
					"numinlets" : 3,
					"patcher" : 					{
						"fileversion" : 1,
						"rect" : [ 640.0, 196.0, 640.0, 480.0 ],
						"bglocked" : 0,
						"defrect" : [ 640.0, 196.0, 640.0, 480.0 ],
						"openrect" : [ 0.0, 0.0, 0.0, 0.0 ],
						"openinpresentation" : 0,
						"default_fontsize" : 10.0,
						"default_fontface" : 0,
						"default_fontname" : "Arial",
						"gridonopen" : 0,
						"gridsize" : [ 15.0, 15.0 ],
						"gridsnaponopen" : 0,
						"toolbarvisible" : 1,
						"boxanimatetime" : 200,
						"imprint" : 0,
						"metadata" : [  ],
						"boxes" : [ 							{
								"box" : 								{
									"maxclass" : "inlet",
									"numoutlets" : 1,
									"outlettype" : [ "float" ],
									"id" : "obj-6",
									"patching_rect" : [ 240.0, 30.0, 25.0, 25.0 ],
									"numinlets" : 0,
									"comment" : ""
								}

							}
, 							{
								"box" : 								{
									"maxclass" : "inlet",
									"numoutlets" : 1,
									"outlettype" : [ "float" ],
									"id" : "obj-5",
									"patching_rect" : [ 195.0, 30.0, 25.0, 25.0 ],
									"numinlets" : 0,
									"comment" : ""
								}

							}
, 							{
								"box" : 								{
									"maxclass" : "outlet",
									"numoutlets" : 0,
									"id" : "obj-4",
									"patching_rect" : [ 173.0, 300.0, 25.0, 25.0 ],
									"numinlets" : 1,
									"comment" : ""
								}

							}
, 							{
								"box" : 								{
									"maxclass" : "outlet",
									"numoutlets" : 0,
									"id" : "obj-3",
									"patching_rect" : [ 105.0, 300.0, 25.0, 25.0 ],
									"numinlets" : 1,
									"comment" : ""
								}

							}
, 							{
								"box" : 								{
									"maxclass" : "inlet",
									"numoutlets" : 1,
									"outlettype" : [ "" ],
									"id" : "obj-2",
									"patching_rect" : [ 105.0, 30.0, 25.0, 25.0 ],
									"numinlets" : 0,
									"comment" : ""
								}

							}
, 							{
								"box" : 								{
									"maxclass" : "comment",
									"text" : "Amplitude",
									"numoutlets" : 0,
									"id" : "obj-34",
									"fontname" : "Arial",
									"patching_rect" : [ 30.0, 195.0, 61.0, 18.0 ],
									"fontsize" : 10.0,
									"numinlets" : 1
								}

							}
, 							{
								"box" : 								{
									"maxclass" : "comment",
									"text" : "Max Amplitude",
									"numoutlets" : 0,
									"id" : "obj-32",
									"fontname" : "Arial",
									"patching_rect" : [ 30.0, 60.0, 75.0, 18.0 ],
									"fontsize" : 10.0,
									"numinlets" : 1
								}

							}
, 							{
								"box" : 								{
									"maxclass" : "comment",
									"text" : "Convert to dB",
									"numoutlets" : 0,
									"id" : "obj-30",
									"fontname" : "Arial",
									"patching_rect" : [ 30.0, 90.0, 73.0, 18.0 ],
									"fontsize" : 10.0,
									"numinlets" : 1
								}

							}
, 							{
								"box" : 								{
									"maxclass" : "flonum",
									"numoutlets" : 2,
									"outlettype" : [ "float", "bang" ],
									"id" : "obj-28",
									"fontname" : "Arial",
									"patching_rect" : [ 105.0, 195.0, 50.0, 18.0 ],
									"fontsize" : 10.0,
									"numinlets" : 1
								}

							}
, 							{
								"box" : 								{
									"maxclass" : "comment",
									"text" : "Threshold",
									"numoutlets" : 0,
									"id" : "obj-22",
									"fontname" : "Arial",
									"patching_rect" : [ 135.0, 225.0, 56.0, 18.0 ],
									"fontsize" : 10.0,
									"numinlets" : 1
								}

							}
, 							{
								"box" : 								{
									"maxclass" : "flonum",
									"numoutlets" : 2,
									"outlettype" : [ "float", "bang" ],
									"id" : "obj-20",
									"fontname" : "Arial",
									"patching_rect" : [ 135.0, 240.0, 50.0, 18.0 ],
									"fontsize" : 10.0,
									"numinlets" : 1,
									"maximum" : 0.0
								}

							}
, 							{
								"box" : 								{
									"maxclass" : "newobj",
									"text" : ">=",
									"numoutlets" : 1,
									"outlettype" : [ "int" ],
									"id" : "obj-18",
									"fontname" : "Arial",
									"patching_rect" : [ 105.0, 270.0, 48.5, 18.0 ],
									"fontsize" : 10.0,
									"numinlets" : 2
								}

							}
, 							{
								"box" : 								{
									"maxclass" : "comment",
									"text" : "Gain",
									"numoutlets" : 0,
									"id" : "obj-14",
									"fontname" : "Arial",
									"patching_rect" : [ 135.0, 120.0, 34.0, 18.0 ],
									"fontsize" : 10.0,
									"numinlets" : 1
								}

							}
, 							{
								"box" : 								{
									"maxclass" : "flonum",
									"numoutlets" : 2,
									"outlettype" : [ "float", "bang" ],
									"id" : "obj-12",
									"fontname" : "Arial",
									"patching_rect" : [ 135.0, 135.0, 50.0, 18.0 ],
									"fontsize" : 10.0,
									"numinlets" : 1
								}

							}
, 							{
								"box" : 								{
									"maxclass" : "newobj",
									"text" : "+ 0.",
									"numoutlets" : 1,
									"outlettype" : [ "float" ],
									"id" : "obj-10",
									"fontname" : "Arial",
									"patching_rect" : [ 105.0, 165.0, 48.5, 18.0 ],
									"fontsize" : 10.0,
									"numinlets" : 2
								}

							}
, 							{
								"box" : 								{
									"maxclass" : "newobj",
									"text" : "expr 20.*log10($f1)",
									"numoutlets" : 1,
									"outlettype" : [ "" ],
									"id" : "obj-9",
									"fontname" : "Arial",
									"patching_rect" : [ 105.0, 90.0, 96.0, 18.0 ],
									"fontsize" : 10.0,
									"numinlets" : 1
								}

							}
, 							{
								"box" : 								{
									"maxclass" : "newobj",
									"text" : "peakamp~ 12",
									"numoutlets" : 1,
									"outlettype" : [ "float" ],
									"id" : "obj-1",
									"fontname" : "Arial",
									"patching_rect" : [ 105.0, 60.0, 71.0, 18.0 ],
									"fontsize" : 10.0,
									"numinlets" : 2
								}

							}
 ],
						"lines" : [ 							{
								"patchline" : 								{
									"source" : [ "obj-28", 0 ],
									"destination" : [ "obj-18", 0 ],
									"hidden" : 0,
									"midpoints" : [  ]
								}

							}
, 							{
								"patchline" : 								{
									"source" : [ "obj-10", 0 ],
									"destination" : [ "obj-28", 0 ],
									"hidden" : 0,
									"midpoints" : [  ]
								}

							}
, 							{
								"patchline" : 								{
									"source" : [ "obj-20", 0 ],
									"destination" : [ "obj-18", 1 ],
									"hidden" : 0,
									"midpoints" : [  ]
								}

							}
, 							{
								"patchline" : 								{
									"source" : [ "obj-12", 0 ],
									"destination" : [ "obj-10", 1 ],
									"hidden" : 0,
									"midpoints" : [  ]
								}

							}
, 							{
								"patchline" : 								{
									"source" : [ "obj-9", 0 ],
									"destination" : [ "obj-10", 0 ],
									"hidden" : 0,
									"midpoints" : [  ]
								}

							}
, 							{
								"patchline" : 								{
									"source" : [ "obj-1", 0 ],
									"destination" : [ "obj-9", 0 ],
									"hidden" : 0,
									"midpoints" : [  ]
								}

							}
, 							{
								"patchline" : 								{
									"source" : [ "obj-18", 0 ],
									"destination" : [ "obj-3", 0 ],
									"hidden" : 0,
									"midpoints" : [  ]
								}

							}
, 							{
								"patchline" : 								{
									"source" : [ "obj-28", 0 ],
									"destination" : [ "obj-4", 0 ],
									"hidden" : 0,
									"midpoints" : [ 114.5, 255.0, 182.5, 255.0 ]
								}

							}
, 							{
								"patchline" : 								{
									"source" : [ "obj-5", 0 ],
									"destination" : [ "obj-12", 0 ],
									"hidden" : 0,
									"midpoints" : [  ]
								}

							}
, 							{
								"patchline" : 								{
									"source" : [ "obj-6", 0 ],
									"destination" : [ "obj-20", 0 ],
									"hidden" : 0,
									"midpoints" : [  ]
								}

							}
, 							{
								"patchline" : 								{
									"source" : [ "obj-2", 0 ],
									"destination" : [ "obj-1", 0 ],
									"hidden" : 0,
									"midpoints" : [  ]
								}

							}
 ]
					}
,
					"saved_object_attributes" : 					{
						"default_fontsize" : 10.0,
						"fontname" : "Arial",
						"globalpatchername" : "",
						"default_fontface" : 0,
						"fontface" : 0,
						"fontsize" : 10.0,
						"default_fontname" : "Arial"
					}

				}

			}
 ],
		"lines" : [ 			{
				"patchline" : 				{
					"source" : [ "obj-59", 0 ],
					"destination" : [ "obj-60", 1 ],
					"hidden" : 0,
					"midpoints" : [  ]
				}

			}
, 			{
				"patchline" : 				{
					"source" : [ "obj-58", 0 ],
					"destination" : [ "obj-60", 2 ],
					"hidden" : 0,
					"midpoints" : [  ]
				}

			}
, 			{
				"patchline" : 				{
					"source" : [ "obj-60", 1 ],
					"destination" : [ "obj-55", 0 ],
					"hidden" : 0,
					"midpoints" : [  ]
				}

			}
, 			{
				"patchline" : 				{
					"source" : [ "obj-60", 0 ],
					"destination" : [ "obj-10", 0 ],
					"hidden" : 0,
					"midpoints" : [  ]
				}

			}
, 			{
				"patchline" : 				{
					"source" : [ "obj-10", 0 ],
					"destination" : [ "obj-14", 0 ],
					"hidden" : 0,
					"midpoints" : [  ]
				}

			}
, 			{
				"patchline" : 				{
					"source" : [ "obj-1", 0 ],
					"destination" : [ "obj-60", 0 ],
					"hidden" : 0,
					"midpoints" : [  ]
				}

			}
, 			{
				"patchline" : 				{
					"source" : [ "obj-14", 0 ],
					"destination" : [ "obj-2", 0 ],
					"hidden" : 0,
					"midpoints" : [  ]
				}

			}
, 			{
				"patchline" : 				{
					"source" : [ "obj-55", 0 ],
					"destination" : [ "obj-3", 0 ],
					"hidden" : 0,
					"midpoints" : [  ]
				}

			}
, 			{
				"patchline" : 				{
					"source" : [ "obj-4", 0 ],
					"destination" : [ "obj-59", 0 ],
					"hidden" : 0,
					"midpoints" : [  ]
				}

			}
, 			{
				"patchline" : 				{
					"source" : [ "obj-5", 0 ],
					"destination" : [ "obj-58", 0 ],
					"hidden" : 0,
					"midpoints" : [  ]
				}

			}
 ]
	}

}
