#N canvas 0 22 450 300 10;
#X obj 108 127 iter;
#X obj 171 147 f 0;
#X obj 201 147 + 1;
#X msg 186 127 0;
#X obj 108 147 t f b;
#X obj 108 87 t l b;
#X obj 102 44 inlet;
#X obj 111 197 outlet;
#X obj 181 197 outlet;
#X connect 0 0 4 0;
#X connect 1 0 2 0;
#X connect 1 0 8 0;
#X connect 2 0 1 1;
#X connect 3 0 1 1;
#X connect 4 0 7 0;
#X connect 4 1 1 0;
#X connect 5 0 0 0;
#X connect 5 1 3 0;
#X connect 6 0 5 0;
