#N canvas 237 34 941 591 10;
#X obj 55 318 inlet~;
#X obj 118 318 inlet~;
#X obj 83 354 +~;
#X obj 146 354 +~;
#X obj 83 384 outlet~;
#X obj 146 384 outlet~;
#X obj 161 238 hip~ 5;
#X obj 98 238 hip~ 5;
#X obj 334 339 symbol \$1;
#X obj 289 319 t b b;
#X obj 289 339 f \$3;
#X obj 289 359 pack f s;
#X obj 289 299 loadbang;
#X obj 289 116 r \$3-\$1-sine;
#X obj 299 66 r \$3-\$1-noise;
#X obj 289 199 r \$3-\$1-misc;
#X obj 289 46 noise~;
#X obj 289 86 tabwrite~ \$2;
#X obj 289 136 symbol \$2;
#X msg 289 156 \; \$1 sinesum 515 1;
#N canvas 0 22 537 621 panner 0;
#X obj 67 56 inlet~;
#X obj 101 479 outlet~;
#X obj 201 479 outlet~;
#X obj 122 441 *~;
#X obj 192 441 *~;
#X obj 220 141 sel 1;
#X obj 284 299 == 0;
#X obj 257 269 t f f;
#X obj 257 249 random 2;
#X obj 257 229 t b;
#X msg 220 229 1;
#X obj 310 81 r \$3-\$1-panning;
#X obj 220 181 sel 0;
#X obj 220 161 random 0;
#X obj 220 81 r \$1-event;
#X obj 220 101 unpack;
#X floatatom 198 387 5 0 0 0 - - -;
#X floatatom 253 389 5 0 0 0 - - -;
#X obj 220 121 > 0.5;
#X connect 0 0 3 0;
#X connect 0 0 4 0;
#X connect 3 0 1 0;
#X connect 4 0 2 0;
#X connect 5 0 13 0;
#X connect 6 0 17 0;
#X connect 7 0 16 0;
#X connect 7 1 6 0;
#X connect 8 0 7 0;
#X connect 9 0 8 0;
#X connect 10 0 16 0;
#X connect 10 0 17 0;
#X connect 11 0 13 1;
#X connect 12 0 10 0;
#X connect 12 1 9 0;
#X connect 13 0 12 0;
#X connect 14 0 15 0;
#X connect 15 0 18 0;
#X connect 16 0 3 1;
#X connect 17 0 4 1;
#X connect 18 0 5 0;
#X restore 98 208 pd panner;
#N canvas 0 22 611 600 oscillator 1;
#X obj 50 527 outlet~;
#X obj 50 177 *~;
#X obj 50 467 +~;
#X obj 50 487 osc~;
#X obj 50 30 r \$3-\$1-mod_freq;
#X obj 50 70 sig~;
#X obj 65 117 r \$3-\$1-mod_depth;
#X obj 50 90 tabosc4~ \$2;
#X obj 50 50 mtof;
#X obj 65 137 / 127;
#X obj 149 441 mtof;
#X obj 293 387 dp_markov 3;
#X msg 293 247 clear;
#X obj 293 227 t b b;
#X obj 234 247 sel 1;
#X obj 189 117 r \$3-\$1-oneshot;
#X obj 189 197 gate 2 1;
#X obj 189 177 + 1;
#X obj 234 177 > 0.5;
#X obj 234 137 r \$1-event;
#X obj 234 157 unpack;
#X obj 189 217 change;
#X obj 293 197 r \$3-\$1-pitchgen-new;
#X obj 383 227 r \$3-\$1-pitchgen-length;
#X obj 410 317 r \$3-\$1-pitchgen-upper;
#X obj 437 337 r \$3-\$1-pitchgen-lower;
#X obj 383 247 / 127;
#X obj 383 267 * 27;
#X obj 383 287 + 5;
#X obj 144 371 f;
#X obj 149 307 gate 2 1;
#X obj 90 278 + 1;
#X obj 90 255 r \$3-\$1-pitchgen-on;
#X obj 158 343 r \$3-\$1-carr_freq;
#X obj 356 367 seed \$3;
#X obj 229 512 pitchquant;
#X obj 257 472 r \$3-scale-scale;
#X obj 286 493 r \$3-scale-root;
#X obj 65 157 * 4000;
#X connect 1 0 2 0;
#X connect 2 0 3 0;
#X connect 3 0 0 0;
#X connect 4 0 8 0;
#X connect 5 0 7 0;
#X connect 6 0 9 0;
#X connect 7 0 1 0;
#X connect 8 0 5 0;
#X connect 9 0 38 0;
#X connect 10 0 2 1;
#X connect 11 0 35 0;
#X connect 12 0 11 0;
#X connect 13 0 34 0;
#X connect 13 1 12 0;
#X connect 14 0 30 1;
#X connect 15 0 17 0;
#X connect 16 0 21 0;
#X connect 16 1 14 0;
#X connect 17 0 16 0;
#X connect 18 0 16 1;
#X connect 19 0 20 0;
#X connect 20 0 18 0;
#X connect 21 0 14 0;
#X connect 22 0 13 0;
#X connect 23 0 26 0;
#X connect 24 0 34 2;
#X connect 25 0 34 3;
#X connect 26 0 27 0;
#X connect 27 0 28 0;
#X connect 28 0 34 1;
#X connect 29 0 35 0;
#X connect 30 0 29 0;
#X connect 30 1 11 0;
#X connect 31 0 30 0;
#X connect 32 0 31 0;
#X connect 33 0 29 1;
#X connect 34 0 11 1;
#X connect 35 0 10 0;
#X connect 36 0 35 1;
#X connect 37 0 35 2;
#X connect 38 0 1 1;
#X restore 98 68 pd oscillator;
#N canvas 475 107 431 567 envelope 0;
#X obj 45 397 *~;
#X obj 45 47 inlet~;
#X obj 45 427 outlet~;
#X obj 105 307 f;
#X obj 60 367 vline~;
#X obj 120 227 r \$3-\$1-osc_duration;
#X obj 120 247 / 127;
#X obj 120 277 * 1;
#X obj 160 247 r \$1-duration;
#X obj 105 197 sel 1;
#X msg 105 327 1 3 0 \, 0 0 \$1;
#X obj 60 97 r \$3-\$1-oneshot;
#X obj 60 177 gate 2 1;
#X obj 60 157 + 1;
#X obj 105 157 > 0.5;
#X obj 105 117 r \$1-event;
#X obj 105 137 unpack;
#X obj 60 197 change;
#X msg 61 327 \$1 0;
#X connect 0 0 2 0;
#X connect 1 0 0 0;
#X connect 3 0 10 0;
#X connect 4 0 0 1;
#X connect 5 0 6 0;
#X connect 6 0 7 0;
#X connect 7 0 3 1;
#X connect 8 0 7 1;
#X connect 9 0 3 0;
#X connect 10 0 4 0;
#X connect 11 0 13 0;
#X connect 12 0 17 0;
#X connect 12 1 9 0;
#X connect 13 0 12 0;
#X connect 14 0 12 1;
#X connect 15 0 16 0;
#X connect 16 0 14 0;
#X connect 17 0 18 0;
#X connect 18 0 4 0;
#X restore 98 148 pd envelope;
#N canvas 282 187 558 364 accent 0;
#X obj 57 228 *~ 0.5;
#X obj 133 157 * 0.75;
#X obj 133 187 + 0.25;
#X obj 166 87 r \$3-\$1-accent;
#X obj 166 107 / 127;
#X obj 193 157 expr 1 - $f1;
#X obj 57 178 inlet~;
#X obj 57 278 outlet~;
#X obj 100 57 r \$1-event;
#X obj 100 127 unpack;
#X obj 166 127 t f f;
#X connect 0 0 7 0;
#X connect 1 0 2 0;
#X connect 2 0 0 1;
#X connect 3 0 4 0;
#X connect 4 0 10 0;
#X connect 5 0 2 1;
#X connect 6 0 0 0;
#X connect 8 0 9 0;
#X connect 9 1 1 0;
#X connect 10 0 1 1;
#X connect 10 1 5 0;
#X restore 98 188 pd accent;
#N canvas 0 22 1366 720 click 0;
#X obj 66 46 inlet~;
#X obj 66 499 outlet~;
#X obj 66 469 +~;
#X obj 81 439 *~;
#X obj 102 412 r \$3-\$1-osc_click;
#X obj 108 437 / 127;
#X obj 81 349 osc~;
#X obj 81 86 sig~ 128;
#X obj 81 106 mtof~;
#X obj 81 329 *~;
#X obj 96 310 ead~ 0 10;
#X obj 81 379 *~;
#X obj 118 349 ead~ 0 50;
#X obj 102 273 t b b;
#X obj 102 253 sel 1;
#X obj 102 133 r \$3-\$1-oneshot;
#X obj 102 213 gate 2 1;
#X obj 102 193 + 1;
#X obj 147 193 > 0.5;
#X obj 147 153 r \$1-event;
#X obj 147 173 unpack;
#X obj 102 233 change;
#X connect 0 0 2 0;
#X connect 2 0 1 0;
#X connect 3 0 2 1;
#X connect 4 0 5 0;
#X connect 5 0 3 1;
#X connect 6 0 11 0;
#X connect 7 0 8 0;
#X connect 8 0 9 0;
#X connect 9 0 6 0;
#X connect 10 0 9 1;
#X connect 11 0 3 0;
#X connect 12 0 11 1;
#X connect 13 0 12 0;
#X connect 13 1 10 0;
#X connect 14 0 13 0;
#X connect 15 0 17 0;
#X connect 16 0 21 0;
#X connect 16 1 14 0;
#X connect 17 0 16 0;
#X connect 18 0 16 1;
#X connect 19 0 20 0;
#X connect 20 0 18 0;
#X connect 21 0 14 0;
#X restore 98 168 pd click;
#N canvas 318 222 457 267 volume 0;
#X obj 54 153 *~ 0.5;
#X obj 87 103 r \$3-\$1-vol;
#X obj 87 123 / 127;
#X obj 54 63 inlet~;
#X obj 54 193 outlet~;
#X connect 0 0 4 0;
#X connect 1 0 2 0;
#X connect 2 0 0 1;
#X connect 3 0 0 0;
#X restore 98 88 pd volume;
#N canvas 318 222 385 305 noise 0;
#X obj 69 183 *~ 0.5;
#X obj 102 163 / 127;
#X obj 54 63 inlet~;
#X obj 54 223 outlet~;
#X obj 102 143 r \$3-\$1-noise;
#X obj 54 203 +~;
#X obj 69 103 noise~;
#X connect 0 0 5 1;
#X connect 1 0 0 1;
#X connect 2 0 5 0;
#X connect 4 0 1 0;
#X connect 5 0 3 0;
#X connect 6 0 0 0;
#X restore 98 108 pd noise;
#N canvas 398 183 318 430 ringmod 0;
#X obj 41 381 outlet~;
#X obj 41 41 inlet~;
#X obj 106 120 mtof;
#X obj 106 140 osc~;
#X obj 91 170 *~;
#X obj 62 240 == 0;
#X obj 41 270 *~ 1;
#X obj 91 270 *~ 0;
#X obj 106 100 r \$3-\$1-ringmod;
#X obj 112 210 r \$3-\$1-ringmod-toggle;
#X connect 1 0 4 0;
#X connect 1 0 6 0;
#X connect 2 0 3 0;
#X connect 3 0 4 1;
#X connect 4 0 7 0;
#X connect 5 0 6 1;
#X connect 6 0 0 0;
#X connect 7 0 0 0;
#X connect 8 0 2 0;
#X connect 9 0 5 0;
#X connect 9 0 7 1;
#X restore 98 128 pd ringmod;
#N canvas 552 240 681 457 recorder 0;
#X obj 63 42 inlet~;
#X obj 66 265 outlet~;
#X obj 195 239 writesf~ 2;
#X msg 221 83 stop;
#X obj 161 63 sel 1 0;
#X obj 358 70 inlet~;
#X obj 336 246 outlet~;
#X obj 453 119 pack f f f f;
#X obj 453 99 time -------;
#X obj 453 79 bng 15 250 50 0 empty empty empty 17 7 0 10 -262144 -1
-1;
#X obj 453 159 prepend \$3;
#X obj 453 139 prepend \$1;
#X msg 453 179 open \$1-\$3_\$4_\$5_\$6-\$2.wav;
#X obj 453 199 t b a;
#X msg 398 216 start;
#X obj 161 43 r \$3-record;
#X connect 0 0 2 0;
#X connect 0 0 1 0;
#X connect 3 0 2 0;
#X connect 4 0 9 0;
#X connect 4 1 3 0;
#X connect 5 0 6 0;
#X connect 5 0 2 1;
#X connect 7 0 11 0;
#X connect 8 0 7 0;
#X connect 8 1 7 1;
#X connect 8 2 7 2;
#X connect 8 3 7 3;
#X connect 9 0 8 0;
#X connect 10 0 12 0;
#X connect 11 0 10 0;
#X connect 12 0 13 0;
#X connect 13 0 14 0;
#X connect 13 1 2 0;
#X connect 14 0 2 0;
#X connect 15 0 4 0;
#X restore 98 268 pd recorder;
#X msg 289 379 \; \$1-\$2-vol_set 0 \; \$1-\$2-accent_set 30 \; \$1-\$2-osc_duration_set
0 \; \$1-\$2-osc_click_set 0 \; \$1-\$2-oneshot_set 1 \; \$1-\$2-pitchgen-on_set
0 \; \$1-\$2-noise_set 0 \;;
#X connect 0 0 2 0;
#X connect 1 0 3 0;
#X connect 2 0 4 0;
#X connect 3 0 5 0;
#X connect 6 0 28 1;
#X connect 7 0 28 0;
#X connect 8 0 11 1;
#X connect 9 0 10 0;
#X connect 9 1 8 0;
#X connect 10 0 11 0;
#X connect 11 0 29 0;
#X connect 12 0 9 0;
#X connect 13 0 18 0;
#X connect 14 0 17 0;
#X connect 16 0 17 0;
#X connect 18 0 19 0;
#X connect 20 0 7 0;
#X connect 20 1 6 0;
#X connect 21 0 25 0;
#X connect 22 0 24 0;
#X connect 23 0 20 0;
#X connect 24 0 23 0;
#X connect 25 0 26 0;
#X connect 26 0 27 0;
#X connect 27 0 22 0;
#X connect 28 0 2 1;
#X connect 28 1 3 1;
