#N canvas 540 22 740 740 10;
#X obj 102 544 *~;
#X obj 196 417 r \$0-adrum_decay;
#X obj 196 465 mid2dec;
#X obj 196 490 * 500;
#X obj 145 465 mid2dec;
#X obj 145 490 * 500;
#X obj 145 395 r \$0-adrum_attack;
#X obj 78 22 inlet;
#X obj 78 48 stripnote;
#X obj 102 598 outlet~;
#X obj 527 312 knob 32 32 0 127 0 0 \$0-adrum_amount \$0-adrum_amount_set
amount 0 -8 192 8 -262144 -1 -1 1562 1;
#X obj 567 312 knob 32 32 0 127 0 0 \$0-adrum_rate \$0-adrum_rate_set
rate 0 -8 192 8 -262144 -1 -1 122 1;
#X obj 397 312 knob 32 32 0 127 0 0 \$0-adrum_attack \$0-adrum_attack_set
attack 0 -8 192 8 -262144 -1 -1 49 1;
#X obj 437 312 knob 32 32 0 127 0 0 \$0-adrum_decay \$0-adrum_decay_set
decay 0 -8 192 8 -262144 -1 -1 2441 1;
#X obj 355 22 inlet;
#X obj 355 138 s \$0-adrum_amount_set;
#X obj 399 116 s \$0-adrum_rate_set;
#X obj 487 71 s \$0-adrum_decay_set;
#X obj 443 93 s \$0-adrum_attack_set;
#X obj 310 417 traninfo;
#X obj 340 473 t b f;
#X obj 340 448 * 0.5;
#X obj 502 284 bng 10 250 50 0 \$0-samp_gui_break \$0-samp_gui_break_set
empty 17 7 0 10 -262144 -1 -1;
#X obj 512 284 bng 10 250 50 0 \$0-samp_gui_vocal \$0-samp_gui_vocal_set
empty 17 7 0 10 -262144 -1 -1;
#X obj 522 284 bng 10 250 50 0 \$0-samp_gui_misc \$0-samp_gui_misc_set
empty 17 7 0 10 -262144 -1 -1;
#X obj 532 284 bng 10 250 50 0 \$0-samp_gui_open \$0-samp_gui_open_set
empty 17 7 0 10 -262144 -1 -1;
#X obj 40 245 delay;
#X obj 43 141 tranlength;
#X obj 67 221 random;
#X obj 117 131 traninfo;
#X obj 127 197 f 0;
#X obj 100 197 f;
#X obj 147 172 * 0.0625;
#X obj 100 170 sel 2;
#X obj 40 198 t b b;
#X obj 57 366 gate 3;
#X obj 90 74 swap;
#X obj 52 276 f;
#X obj 40 91 t b f;
#X obj 67 115 mid2dec;
#X obj 90 293 pack;
#X obj 57 320 r \$0-adrum_algo;
#X text 211 163 these objects will delay every other 8th note to add
a bit of swing to the drums;
#X text 105 364 send to style of drum. fm \, simple \, sample;
#X obj 57 343 + 1;
#X obj 487 312 knob 32 32 0 127 0 0 \$0-adrum_offset \$0-adrum_offset_set
offset 0 -8 192 8 -262144 -1 -1 0 1;
#X obj 607 312 knob 32 32 0 127 0 0 \$0-adrum_noise \$0-adrum_noise_set
noise 0 -8 192 8 -262144 -1 -1 0 1;
#X text 455 232 modRa;
#X text 493 230 ModDe;
#X text 402 233 carrRat;
#X text 532 230 feedback;
#X obj 444 284 hradio 10 1 0 3 \$0-adrum_algo \$0-adrum_algo_set type
34 5 0 8 -262144 -1 -1 1;
#X obj 145 442 max 2;
#X obj 196 442 max 2;
#X obj 117 519 ead~ 2 500;
#X text 125 293 velocity(dec) \, pitch(midi);
#N canvas 587 22 408 756 fm 0;
#X obj 68 726 outlet~;
#X obj 29 282 phasor~;
#X obj 29 482 +~;
#X obj 29 512 cos~;
#X obj 29 246 *~;
#X obj 55 220 sig~;
#X obj 17 220 sig~;
#X obj 137 346 +~;
#X obj 137 440 osc~;
#X obj 152 393 sig~;
#X obj 137 417 *~;
#X obj 137 465 *~;
#X obj 152 322 r~ \$0-fdrum_modulator_feedback;
#X obj 70 570 s~ \$0-fdrum_modulator_feedback;
#X obj 137 299 samphold~;
#X obj 137 272 line~;
#X obj 70 546 *~ 0;
#X text 130 153 Ratio;
#N canvas 741 308 450 300 t 0;
#X obj 131 60 traninfo;
#X obj 82 92 mid2dec;
#X obj 82 56 inlet;
#X obj 82 183 outlet;
#X obj 82 159 *;
#X obj 161 110 t b f;
#X obj 161 85 * 0.25;
#X connect 0 2 6 0;
#X connect 1 0 4 0;
#X connect 2 0 1 0;
#X connect 4 0 3 0;
#X connect 5 0 4 0;
#X connect 5 1 4 1;
#X connect 6 0 5 0;
#X restore 291 426 pd t;
#N canvas 622 223 450 300 t 0;
#X obj 32 20 inlet;
#X obj 32 91 outlet;
#X obj 32 42 mid2dec;
#X obj 32 64 * 24;
#X connect 0 0 2 0;
#X connect 2 0 3 0;
#X connect 3 0 1 0;
#X restore 91 524 pd t;
#N canvas 204 98 450 300 t 0;
#X obj 32 55 mid2dec;
#X obj 32 101 + 1;
#X obj 30 124 int;
#X obj 32 78 * 31;
#X obj 33 28 inlet;
#X obj 32 156 outlet;
#X connect 0 0 3 0;
#X connect 1 0 2 0;
#X connect 2 0 5 0;
#X connect 3 0 1 0;
#X connect 4 0 0 0;
#X restore 17 178 pd t;
#N canvas 0 22 450 300 t 0;
#X obj 72 136 pack 0 50;
#X obj 72 83 mid2dec;
#X obj 72 107 * 64;
#X obj 74 55 inlet;
#X obj 72 174 outlet;
#X connect 0 0 4 0;
#X connect 1 0 2 0;
#X connect 2 0 0 0;
#X connect 3 0 1 0;
#X restore 137 245 pd t;
#X obj 17 154 r \$0-adrum_offset;
#X obj 137 219 r \$0-adrum_amount;
#X obj 91 501 r \$0-adrum_noise;
#X obj 234 448 ead~ 2 100;
#X obj 291 404 r \$0-adrum_rate;
#X obj 125 726 outlet;
#X obj 29 668 spigot~;
#X obj 17 17 inlet;
#X obj 17 38 unpack;
#X obj 61 63 mtof;
#X obj 17 63 t b f;
#X obj 17 128 s \$0-fm_trig;
#X obj 44 108 s \$0-fm_vel;
#X obj 61 88 s \$0-fm_fun;
#X obj 234 382 r \$0-fm_trig;
#X obj 55 185 r \$0-fm_fun;
#X obj 152 369 r \$0-fm_fun;
#X obj 68 698 *~ 1;
#X obj 89 668 r \$0-fm_vel;
#X obj 125 698 r \$0-fm_trig;
#X obj 68 594 r \$0-adrum_algo;
#X obj 68 640 f 1;
#X obj 95 640 f 0;
#X obj 68 617 sel 0 1 2;
#X connect 1 0 2 0;
#X connect 1 0 14 1;
#X connect 2 0 3 0;
#X connect 3 0 16 0;
#X connect 3 0 28 0;
#X connect 4 0 1 0;
#X connect 5 0 4 1;
#X connect 6 0 4 0;
#X connect 7 0 10 0;
#X connect 8 0 11 0;
#X connect 9 0 10 1;
#X connect 10 0 8 0;
#X connect 11 0 2 1;
#X connect 12 0 7 1;
#X connect 14 0 7 0;
#X connect 15 0 14 0;
#X connect 16 0 13 0;
#X connect 18 0 25 2;
#X connect 19 0 16 1;
#X connect 20 0 6 0;
#X connect 21 0 15 0;
#X connect 22 0 20 0;
#X connect 23 0 21 0;
#X connect 24 0 19 0;
#X connect 25 0 11 1;
#X connect 26 0 18 0;
#X connect 28 1 39 0;
#X connect 29 0 30 0;
#X connect 30 0 32 0;
#X connect 30 1 31 0;
#X connect 31 0 35 0;
#X connect 32 0 33 0;
#X connect 32 1 34 0;
#X connect 36 0 25 0;
#X connect 37 0 5 0;
#X connect 38 0 9 0;
#X connect 39 0 0 0;
#X connect 40 0 39 1;
#X connect 41 0 27 0;
#X connect 42 0 45 0;
#X connect 43 0 28 1;
#X connect 44 0 28 1;
#X connect 45 0 43 0;
#X connect 45 1 44 0;
#X connect 45 2 44 0;
#X restore 57 403 pd fm;
#N canvas 537 22 332 756 si 0;
#X obj 93 402 t b f;
#X obj 40 484 sig~;
#X obj 40 464 mtof;
#X obj 120 488 sig~;
#X obj 120 468 mtof;
#X obj 25 252 ead~ 1 20;
#X obj 76 188 r \$0-adrum_rate;
#X obj 76 209 mid2dec;
#X obj 76 230 * 500;
#X obj 40 278 r \$0-adrum_amount;
#X obj 40 419 +;
#X obj 40 442 min 127;
#X obj 134 698 outlet~;
#X obj 169 455 noise~;
#X obj 25 602 +~;
#X obj 190 477 r \$0-adrum_noise;
#X obj 169 525 *~ 0;
#X obj 190 501 mid2dec;
#X obj 25 542 +~;
#X obj 25 513 *~;
#X obj 25 568 osc~;
#X obj 108 320 r \$0-adrum_offset;
#X obj 93 346 +;
#X obj 93 373 min 127;
#X obj 229 699 outlet;
#X obj 95 644 spigot~;
#X obj 28 24 inlet;
#X obj 28 54 unpack;
#X obj 28 79 t b f;
#X obj 28 144 s \$0-si_trig;
#X obj 229 674 r \$0-si_trig;
#X obj 72 104 s \$0-si_fun;
#X obj 55 124 s \$0-si_vel;
#X obj 93 299 r \$0-si_fun;
#X obj 25 167 r \$0-si_trig;
#X obj 134 674 *~ 1;
#X obj 155 644 r \$0-si_vel;
#X obj 134 568 r \$0-adrum_algo;
#X obj 134 624 f 1;
#X obj 161 624 f 0;
#X obj 134 591 sel 0 1 2;
#X connect 0 0 10 0;
#X connect 0 1 4 0;
#X connect 0 1 10 1;
#X connect 1 0 19 1;
#X connect 2 0 1 0;
#X connect 3 0 18 1;
#X connect 4 0 3 0;
#X connect 5 0 19 0;
#X connect 6 0 7 0;
#X connect 7 0 8 0;
#X connect 8 0 5 2;
#X connect 9 0 10 0;
#X connect 10 0 11 0;
#X connect 11 0 2 0;
#X connect 13 0 16 0;
#X connect 14 0 25 0;
#X connect 15 0 17 0;
#X connect 16 0 14 1;
#X connect 17 0 16 1;
#X connect 18 0 20 0;
#X connect 19 0 18 0;
#X connect 20 0 14 0;
#X connect 21 0 22 1;
#X connect 22 0 23 0;
#X connect 23 0 0 0;
#X connect 25 1 35 0;
#X connect 26 0 27 0;
#X connect 27 0 28 0;
#X connect 27 1 31 0;
#X connect 28 0 29 0;
#X connect 28 1 32 0;
#X connect 30 0 24 0;
#X connect 33 0 22 0;
#X connect 34 0 5 0;
#X connect 35 0 12 0;
#X connect 36 0 35 1;
#X connect 37 0 40 0;
#X connect 38 0 25 1;
#X connect 39 0 25 1;
#X connect 40 0 39 0;
#X connect 40 1 38 0;
#X connect 40 2 39 0;
#X restore 73 423 pd si;
#N canvas 511 22 861 576 sa 0;
#X obj 73 309 readsf~;
#X msg 54 275 1;
#X obj 54 225 t b b;
#X obj 85 249 symbol;
#X msg 85 275 open \$1;
#X obj 112 464 outlet~;
#X obj 252 341 openpanel;
#X obj 206 39 r \$0-samp_gui_break;
#X obj 202 117 r \$0-samp_gui_vocal;
#X obj 325 231 r \$0-samp_gui_misc;
#X obj 252 317 r \$0-samp_gui_open;
#X obj 210 464 outlet;
#X obj 73 414 spigot~;
#X obj 55 60 inlet;
#X obj 55 89 unpack;
#X obj 55 114 t b f;
#X obj 55 159 s \$0-sa_trig;
#X obj 82 139 s \$0-sa_vel;
#X obj 112 442 *~ 1;
#X obj 133 414 r \$0-sa_vel;
#X obj 210 442 r \$0-sa_trig;
#X obj 54 203 r \$0-sa_trig;
#X obj 112 340 r \$0-adrum_algo;
#X obj 112 386 f 1;
#X obj 139 386 f 0;
#X obj 112 363 sel 0 1 2;
#X obj 206 80 rand_file;
#X obj 328 39 loadbang;
#X obj 208 199 rand_file;
#X obj 358 125 loadbang;
#X obj 325 266 rand_file;
#X obj 395 257 loadbang;
#X msg 328 61 symbol /Users/dapoulter/desktop/dpsamples/kits/monomachine/kick/*.wav
;
#X msg 395 279 symbol /Users/dapoulter/desktop/dpsamples/kits/monomachine/perc/*.wav
;
#X msg 358 147 symbol /Users/dapoulter/desktop/dpsamples/kits/monomachine/snares/*.wav
;
#X connect 0 0 12 0;
#X connect 1 0 0 0;
#X connect 2 0 1 0;
#X connect 2 1 3 0;
#X connect 3 0 4 0;
#X connect 4 0 0 0;
#X connect 6 0 3 1;
#X connect 7 0 26 0;
#X connect 8 0 28 0;
#X connect 9 0 30 0;
#X connect 10 0 6 0;
#X connect 12 1 18 0;
#X connect 13 0 14 0;
#X connect 14 0 15 0;
#X connect 15 0 16 0;
#X connect 15 1 17 0;
#X connect 18 0 5 0;
#X connect 19 0 18 1;
#X connect 20 0 11 0;
#X connect 21 0 2 0;
#X connect 22 0 25 0;
#X connect 23 0 12 1;
#X connect 24 0 12 1;
#X connect 25 0 24 0;
#X connect 25 1 24 0;
#X connect 25 2 23 0;
#X connect 26 0 3 1;
#X connect 27 0 32 0;
#X connect 28 0 3 1;
#X connect 29 0 34 0;
#X connect 30 0 3 1;
#X connect 31 0 33 0;
#X connect 32 0 26 0;
#X connect 33 0 30 0;
#X connect 34 0 28 0;
#X restore 90 443 pd sa;
#X obj 541 488 loadbang;
#N canvas 956 76 212 288 parameters 0;
#X obj 21 16 inlet;
#X text 60 15 34 Parameters;
#X msg 22 37 \; \$1-adrum_offset_set \$2 \; \$1-adrum_amount_set \$3
\; \$1-adrum_rate_set \$4 \; \$1-adrum_noise_set \$5 \; \$1-adrum_attack_set
\$6 \; \$1-adrum_decay_set \$7 \; \$1-adrum_algo_set \$8 \;;
#X connect 0 0 2 0;
#X restore 524 567 pd parameters;
#N canvas 475 39 483 581 presets 0;
#X obj 131 103 prepend;
#X obj 170 471 prepend \$0;
#X obj 48 220 t b b b;
#X obj 42 267 1-0;
#X obj 42 293 + 1;
#X obj 125 500 + 1;
#X obj 170 183 pack;
#X obj 170 156 f 0;
#X obj 131 130 t b b l;
#X obj 125 376 gate 2 2;
#X obj 48 193 inlet;
#X obj 67 293 f 0;
#X text 219 79 add 1 to it;
#X text 221 60 get the amount of presets stored;
#X text 220 98 prepend this to new preset;
#X text 216 119 store preset;
#X text 217 139 update the amount of presets;
#X msg 265 269 0 0;
#X msg 285 291 clear;
#X obj 246 227 bng 15 250 50 0 empty empty empty 17 7 0 10 -262144
-1 -1;
#X text 264 226 master reset (DONT TOUCH);
#X text 27 170 bang to save;
#X obj 170 500 outlet;
#X obj 246 247 t b b b;
#X obj 170 399 iter;
#X obj 170 423 int;
#X obj 152 48 t b f f;
#X obj 110 198 inlet;
#X obj 152 25 r \$0-fm7_preset_count;
#X obj 125 523 s \$0-fm7_preset_count;
#X obj 110 222 int;
#N canvas 631 31 270 289 param 0;
#X obj 48 239 outlet;
#X obj 28 27 inlet;
#X obj 28 173 f;
#X obj 135 162 r \$0-adrum_decay;
#X obj 118 141 r \$0-adrum_attack;
#X obj 153 183 r \$0-adrum_algo;
#X obj 43 57 r \$0-adrum_offset;
#X obj 65 78 r \$0-adrum_amount;
#X obj 83 99 r \$0-adrum_rate;
#X obj 100 120 r \$0-adrum_noise;
#X obj 48 204 pack f f f f f f f;
#X connect 1 0 2 0;
#X connect 2 0 10 0;
#X connect 3 0 10 5;
#X connect 4 0 10 4;
#X connect 5 0 10 6;
#X connect 6 0 2 1;
#X connect 7 0 10 1;
#X connect 8 0 10 2;
#X connect 9 0 10 3;
#X connect 10 0 0 0;
#X restore 131 77 pd param;
#X text 108 173 recall;
#X obj 170 353 coll adrum2~_presets.txt;
#C restore;
#X msg 246 316 write adrum2~_presets.txt;
#X obj 170 447 zl group 7;
#X connect 0 0 8 0;
#X connect 1 0 22 0;
#X connect 2 0 3 0;
#X connect 2 1 11 0;
#X connect 2 2 3 1;
#X connect 3 0 4 0;
#X connect 4 0 9 0;
#X connect 5 0 29 0;
#X connect 6 0 33 0;
#X connect 7 0 6 0;
#X connect 8 0 34 0;
#X connect 8 1 7 0;
#X connect 8 2 33 0;
#X connect 9 0 5 0;
#X connect 9 1 24 0;
#X connect 10 0 2 0;
#X connect 11 0 33 0;
#X connect 17 0 33 0;
#X connect 18 0 33 0;
#X connect 19 0 23 0;
#X connect 23 0 34 0;
#X connect 23 1 17 0;
#X connect 23 2 18 0;
#X connect 24 0 25 0;
#X connect 25 0 35 0;
#X connect 26 0 31 0;
#X connect 26 1 0 1;
#X connect 26 2 6 1;
#X connect 27 0 30 0;
#X connect 28 0 26 0;
#X connect 30 0 33 0;
#X connect 31 0 0 0;
#X connect 33 0 9 1;
#X connect 34 0 33 0;
#X connect 35 0 1 0;
#X restore 524 457 pd presets;
#N canvas 470 165 450 300 random 0;
#X obj 158 167 f \$0;
#X obj 119 105 random 128;
#X obj 119 190 prepend;
#X obj 119 150 t l b;
#X obj 119 83 until;
#X obj 119 39 inlet;
#X obj 119 216 outlet;
#X text 147 61 number of parameters;
#X text 158 82 keep banging;
#X text 189 104 random;
#X text 194 127 create list;
#X text 190 167 patch ID;
#X msg 119 61 7;
#X obj 119 127 zl group 7;
#X connect 0 0 2 1;
#X connect 1 0 13 0;
#X connect 2 0 6 0;
#X connect 3 0 2 0;
#X connect 3 1 0 0;
#X connect 4 0 1 0;
#X connect 5 0 12 0;
#X connect 12 0 4 0;
#X connect 13 0 3 0;
#X restore 416 457 pd random;
#X obj 621 284 bng 10 250 50 0 \$0-adrum_random \$0-adrum_random_set
empty 17 7 0 10 -260097 -1 -1;
#X obj 631 284 bng 10 250 50 0 \$0-adrum_save \$0-adrum_save_set empty
17 7 0 10 -258113 -1 -1;
#X obj 550 284 hsl 64 10 0 127 0 0 \$0-adrum_recall \$0-adrum_recall_set
empty -2 -8 0 10 -262144 -1 -1 0 1;
#X obj 524 403 r \$0-adrum_save;
#X obj 416 403 r \$0-adrum_random;
#X obj 581 430 r \$0-adrum_recall;
#X msg 541 510 0 64 5 0 2 100 1;
#X obj 541 532 prepend \$0;
#X obj 147 151 * 0.25;
#X obj 102 572 hip~ 5;
#X obj 355 47 route amount rate attack decay realdecay;
#X obj 536 137 s \$0-adrum_decayreal;
#X obj 260 526 r \$0-adrum_decayreal;
#X connect 0 0 72 0;
#X connect 1 0 53 0;
#X connect 2 0 3 0;
#X connect 3 0 54 2;
#X connect 4 0 5 0;
#X connect 5 0 54 1;
#X connect 6 0 52 0;
#X connect 7 0 8 0;
#X connect 8 0 36 0;
#X connect 8 1 36 1;
#X connect 14 0 73 0;
#X connect 19 2 21 0;
#X connect 20 0 3 0;
#X connect 20 0 5 0;
#X connect 20 1 3 1;
#X connect 20 1 5 1;
#X connect 21 0 20 0;
#X connect 26 0 37 0;
#X connect 27 5 33 0;
#X connect 28 0 26 1;
#X connect 29 2 71 0;
#X connect 30 0 28 1;
#X connect 31 0 28 1;
#X connect 32 0 31 1;
#X connect 33 0 31 0;
#X connect 33 1 30 0;
#X connect 34 0 26 0;
#X connect 34 1 28 0;
#X connect 35 0 56 0;
#X connect 35 1 57 0;
#X connect 35 2 58 0;
#X connect 36 0 38 0;
#X connect 36 1 40 1;
#X connect 37 0 40 0;
#X connect 38 0 34 0;
#X connect 38 1 39 0;
#X connect 39 0 37 1;
#X connect 40 0 35 1;
#X connect 41 0 44 0;
#X connect 44 0 35 0;
#X connect 52 0 4 0;
#X connect 53 0 2 0;
#X connect 54 0 0 1;
#X connect 56 0 0 0;
#X connect 56 1 54 0;
#X connect 57 0 0 0;
#X connect 57 1 54 0;
#X connect 58 0 0 0;
#X connect 58 1 54 0;
#X connect 59 0 69 0;
#X connect 61 0 60 0;
#X connect 62 0 60 0;
#X connect 66 0 61 0;
#X connect 67 0 62 0;
#X connect 68 0 61 1;
#X connect 69 0 70 0;
#X connect 70 0 60 0;
#X connect 71 0 32 0;
#X connect 72 0 9 0;
#X connect 73 0 15 0;
#X connect 73 1 16 0;
#X connect 73 2 18 0;
#X connect 73 3 17 0;
#X connect 73 4 74 0;
#X connect 75 0 54 2;
#X coords 0 -1 1 1 255 70 1 390 280;
