#N canvas 45 22 919 556 10;
#X obj 354 32 inlet;
#X obj 535 249 counter;
#X obj 354 91 t f f;
#X obj 30 32 inlet;
#X obj 30 459 outlet;
#X obj 354 66 route record list;
#X obj 30 320 pack f f f;
#N canvas 696 226 320 305 duration 0;
#X obj 72 88 route 0;
#X obj 100 121 t b;
#X obj 73 121 t b;
#X obj 73 146 timer;
#X obj 72 63 inlet;
#X obj 73 171 outlet;
#X text 130 87 Route note on/off;
#X text 131 119 Bang!;
#X text 130 147 Duration;
#X text 69 199 Get duration of note;
#X text 71 38 Midi message;
#X connect 0 0 1 0;
#X connect 0 1 2 0;
#X connect 1 0 3 1;
#X connect 2 0 3 0;
#X connect 3 0 5 0;
#X connect 4 0 0 0;
#X restore 465 203 pd duration;
#X obj 30 197 t f f f;
#X obj 381 203 stripnote;
#X obj 432 179 t f f;
#X obj 551 281 s \$0-arp_write_in;
#X obj 555 343 r \$0-arp_write_in;
#X obj 690 27 table \$0-rec_pit_1;
#X obj 690 47 table \$0-rec_vel_1;
#X obj 690 67 table \$0-rec_dur_1;
#X obj 688 103 table \$0-rec_pit_2;
#X obj 688 143 table \$0-rec_dur_2;
#X obj 381 393 tabwrite \$0-rec_pit_1;
#X obj 432 423 tabwrite \$0-rec_vel_1;
#X obj 465 453 tabwrite \$0-rec_dur_1;
#X obj 30 235 tabread \$0-rec_pit_2;
#X obj 688 123 table \$0-rec_vel_2;
#X obj 58 265 tabread \$0-rec_vel_2;
#X obj 87 295 tabread \$0-rec_dur_2;
#X msg 222 278 set \$1-rec_dur_\$2;
#X msg 222 248 set \$1-rec_vel_\$2;
#X msg 222 218 set \$1-rec_pit_\$2;
#X msg 692 436 set \$1-rec_dur_\$2;
#X msg 692 406 set \$1-rec_vel_\$2;
#X msg 692 376 set \$1-rec_pit_\$2;
#X obj 222 161 prepend \$0;
#X obj 692 327 prepend \$0;
#X obj 692 352 t a a a;
#X obj 222 119 < 1;
#X obj 222 139 + 1;
#X obj 222 186 t a a a;
#X obj 520 281 f;
#X obj 520 307 s \$0-arp_max;
#X obj 30 173 random;
#X obj 63 128 r \$0-arp_max;
#X text 58 374 get max;
#X text 58 394 restart count;
#X text 58 414 switch arrays;
#X obj 600 175 counter 1;
#X obj 600 201 s \$0-arp_switch;
#X obj 692 304 + 1;
#X obj 692 280 r \$0-arp_switch;
#X obj 381 155 unpack;
#X obj 222 96 r \$0-arp_switch;
#X text 58 356 Everytime you record notes \, arrays get switched;
#X obj 381 125 gate 0;
#X obj 554 108 sel 1 0;
#X obj 573 144 t b b;
#X obj 432 232 t f b;
#X obj 63 150 + 1;
#X connect 0 0 5 0;
#X connect 1 0 11 0;
#X connect 1 0 37 1;
#X connect 2 0 52 0;
#X connect 2 1 51 0;
#X connect 3 0 39 0;
#X connect 5 0 2 0;
#X connect 5 1 51 1;
#X connect 6 0 4 0;
#X connect 7 0 20 0;
#X connect 8 0 21 0;
#X connect 8 1 23 0;
#X connect 8 2 24 0;
#X connect 9 0 18 0;
#X connect 9 1 54 0;
#X connect 10 0 9 1;
#X connect 10 1 7 0;
#X connect 12 0 18 1;
#X connect 12 0 19 1;
#X connect 12 0 20 1;
#X connect 21 0 6 0;
#X connect 23 0 6 1;
#X connect 24 0 6 2;
#X connect 25 0 24 0;
#X connect 26 0 23 0;
#X connect 27 0 21 0;
#X connect 28 0 20 0;
#X connect 29 0 19 0;
#X connect 30 0 18 0;
#X connect 31 0 36 0;
#X connect 32 0 33 0;
#X connect 33 0 30 0;
#X connect 33 1 29 0;
#X connect 33 2 28 0;
#X connect 34 0 35 0;
#X connect 35 0 31 0;
#X connect 36 0 27 0;
#X connect 36 1 26 0;
#X connect 36 2 25 0;
#X connect 37 0 38 0;
#X connect 39 0 8 0;
#X connect 40 0 55 0;
#X connect 44 0 45 0;
#X connect 46 0 32 0;
#X connect 47 0 46 0;
#X connect 48 0 9 0;
#X connect 48 1 10 0;
#X connect 49 0 34 0;
#X connect 51 0 48 0;
#X connect 52 0 1 2;
#X connect 52 1 53 0;
#X connect 53 0 37 0;
#X connect 53 1 44 0;
#X connect 54 0 19 0;
#X connect 54 1 1 0;
#X connect 55 0 39 1;
