#N canvas 530 159 565 454 10;
#N canvas 686 270 448 393 trigger 0;
#X obj 229 250 gate 1 1;
#X obj 229 225 1-0;
#X obj 158 138 t b b b;
#X obj 119 188 onebang;
#X msg 274 225 0;
#X msg 177 250 1;
#X obj 177 286 outlet;
#X obj 115 46 inlet;
#X obj 247 138 t b b;
#X obj 247 46 inlet;
#N canvas 326 126 253 346 anatomy 0;
#X obj 78 106 change;
#X obj 78 202 change;
#X obj 78 154 f 1;
#X obj 78 129 t b b;
#X obj 105 177 f 0;
#X obj 78 68 inlet;
#X obj 78 260 outlet;
#X obj 78 225 sel 1;
#X obj 105 154 delay 30;
#X connect 0 0 3 0;
#X connect 1 0 7 0;
#X connect 2 0 1 0;
#X connect 3 0 2 0;
#X connect 3 1 8 0;
#X connect 4 0 1 0;
#X connect 5 0 0 0;
#X connect 7 0 6 0;
#X connect 8 0 4 0;
#X restore 115 101 pd anatomy;
#X text 2 132 anatomy needs cc value;
#X obj 115 69 unpack f f f;
#X text 63 22 [value \, number \, channel];
#X text 233 22 clock (bang);
#X text -2 313 To work out wether control change has started or not
\, 1==if there has been a change (1 will only be outputted at the start
of a gesture not continuously) 0==no change happening;
#X connect 0 0 6 0;
#X connect 1 0 0 0;
#X connect 2 0 3 1;
#X connect 2 1 5 0;
#X connect 2 2 1 1;
#X connect 3 0 1 0;
#X connect 4 0 0 1;
#X connect 5 0 6 0;
#X connect 7 0 12 0;
#X connect 8 0 3 0;
#X connect 8 1 4 0;
#X connect 9 0 8 0;
#X connect 10 0 2 0;
#X connect 12 0 10 0;
#X restore 129 104 pd trigger;
#X obj 41 341 switch 2 1;
#X obj 98 219 sel 1;
#X obj 69 52 inlet;
#X obj 41 381 outlet;
#X obj 129 125 s \$1-trig_in_\$2;
#X obj 41 317 r \$1-trig_switch;
#X obj 98 190 r \$1-trig_out_\$2;
#X obj 186 52 inlet;
#X obj 156 250 r \$1-trig_rec;
#X obj 69 87 t l l;
#X obj 69 127 t l l;
#X obj 98 267 ccpeg;
#X text 61 24 User Data;
#X text 183 24 Clock;
#X text 213 191 \$1-trig_out_\$2 is a 1||0 generated from a markov
chain;
#X text 244 249 record user control data;
#X text 119 340 switch between user and computer;
#X text 38 407 [value \, number \, channel];
#X text 203 104 quantised to 16th notes;
#X text 154 269 randomly create control data on gestures user has previously
done.;
#X text 128 148 send either a 1 or 0 to the markov chain to represent
a trigger;
#X connect 0 0 5 0;
#X connect 1 0 4 0;
#X connect 2 0 12 0;
#X connect 3 0 10 0;
#X connect 6 0 1 0;
#X connect 7 0 2 0;
#X connect 8 0 0 1;
#X connect 9 0 12 1;
#X connect 10 0 11 0;
#X connect 10 1 0 0;
#X connect 11 0 1 1;
#X connect 11 1 12 1;
#X connect 12 0 1 2;
