#N canvas 479 113 716 646 10;
#X obj 24 26 inlet~;
#X obj 94 26 inlet~;
#X obj 24 113 *~ 0.6;
#X obj 94 113 *~ 0.6;
#X text 73 350 Gain Stage;
#X text 75 365 Filter;
#X text 75 379 Pan;
#N canvas 0 22 536 571 filter 0;
#X obj 95 282 spigot~;
#X obj 74 119 == 65;
#X obj 134 85 int;
#X obj 35 205 spigot~;
#X obj 74 402 outlet~;
#X obj 134 159 > 64;
#X obj 185 182 /;
#X obj 185 157 f 1;
#X obj 212 157 f 64;
#X obj 185 110 loadbang;
#X obj 185 131 t b b;
#X obj 170 206 *;
#X obj 209 250 - 1;
#X obj 107 54 t f f;
#X obj 170 85 int;
#X obj 170 227 moses 1;
#X obj 209 271 * 127;
#X obj 170 271 * 127;
#X obj 170 293 mtof;
#X obj 209 293 mtof;
#X obj 35 29 inlet~;
#X obj 107 29 inlet;
#X obj 95 363 lop~;
#X obj 188 361 hip~;
#X connect 0 0 22 0;
#X connect 0 1 23 0;
#X connect 1 0 3 1;
#X connect 2 0 1 0;
#X connect 2 0 5 0;
#X connect 3 0 0 0;
#X connect 3 1 4 0;
#X connect 5 0 0 1;
#X connect 6 0 11 1;
#X connect 7 0 6 0;
#X connect 8 0 6 1;
#X connect 9 0 10 0;
#X connect 10 0 7 0;
#X connect 10 1 8 0;
#X connect 11 0 15 0;
#X connect 12 0 16 0;
#X connect 13 0 14 0;
#X connect 13 1 2 0;
#X connect 14 0 11 0;
#X connect 15 0 17 0;
#X connect 15 1 12 0;
#X connect 16 0 19 0;
#X connect 17 0 18 0;
#X connect 18 0 22 1;
#X connect 19 0 23 1;
#X connect 20 0 3 0;
#X connect 21 0 13 0;
#X connect 22 0 4 0;
#X connect 23 0 4 0;
#X restore 24 183 pd filter;
#N canvas 247 81 361 465 filter 0;
#X obj 95 282 spigot~;
#X obj 74 119 == 65;
#X obj 134 85 int;
#X obj 35 205 spigot~;
#X obj 74 372 outlet~;
#X obj 134 159 > 64;
#X obj 185 182 /;
#X obj 185 157 f 1;
#X obj 212 157 f 64;
#X obj 185 110 loadbang;
#X obj 185 131 t b b;
#X obj 170 206 *;
#X obj 209 250 - 1;
#X obj 107 54 t f f;
#X obj 170 85 int;
#X obj 170 227 moses 1;
#X obj 209 271 * 127;
#X obj 170 271 * 127;
#X obj 170 293 mtof;
#X obj 209 293 mtof;
#X obj 35 29 inlet~;
#X obj 107 29 inlet;
#X obj 95 333 lop~;
#X obj 188 339 hip~;
#X connect 0 0 22 0;
#X connect 0 1 23 0;
#X connect 1 0 3 1;
#X connect 2 0 1 0;
#X connect 2 0 5 0;
#X connect 3 0 0 0;
#X connect 3 1 4 0;
#X connect 5 0 0 1;
#X connect 6 0 11 1;
#X connect 7 0 6 0;
#X connect 8 0 6 1;
#X connect 9 0 10 0;
#X connect 10 0 7 0;
#X connect 10 1 8 0;
#X connect 11 0 15 0;
#X connect 12 0 16 0;
#X connect 13 0 14 0;
#X connect 13 1 2 0;
#X connect 14 0 11 0;
#X connect 15 0 17 0;
#X connect 15 1 12 0;
#X connect 16 0 19 0;
#X connect 17 0 18 0;
#X connect 18 0 22 1;
#X connect 19 0 23 1;
#X connect 20 0 3 0;
#X connect 21 0 13 0;
#X connect 22 0 4 0;
#X connect 23 0 4 0;
#X restore 93 183 pd filter;
#X obj 127 78 * 0.01;
#X obj 68 309 outlet~;
#X obj 119 309 outlet~;
#X obj 144 148 r \$1-mixer_\$2_filter;
#X obj 205 33 r \$1-mixer_\$2_gain;
#X obj 119 233 r \$1-mixer_\$2_pan;
#N canvas 787 231 297 415 panner 0;
#X obj 168 198 /;
#X obj 168 173 f 1;
#X obj 195 173 f 64;
#X obj 168 126 loadbang;
#X obj 168 147 t b b;
#X obj 153 222 *;
#X obj 192 266 - 1;
#X obj 153 101 int;
#X obj 153 243 moses 1;
#X obj 192 289 expr 1-$f1;
#X obj 43 337 *~ 1;
#X obj 98 337 *~ 1;
#X obj 43 76 inlet~;
#X obj 98 76 inlet~;
#X obj 153 76 inlet;
#X obj 43 363 outlet~;
#X obj 98 363 outlet~;
#X connect 0 0 5 1;
#X connect 1 0 0 0;
#X connect 2 0 0 1;
#X connect 3 0 4 0;
#X connect 4 0 1 0;
#X connect 4 1 2 0;
#X connect 5 0 8 0;
#X connect 6 0 9 0;
#X connect 7 0 5 0;
#X connect 8 0 11 1;
#X connect 8 1 6 0;
#X connect 9 0 10 1;
#X connect 10 0 15 0;
#X connect 11 0 16 0;
#X connect 12 0 10 0;
#X connect 13 0 11 0;
#X connect 14 0 7 0;
#X restore 68 263 pd panner;
#X obj 42 428 r \$1-mixer_\$2_reset;
#X msg 42 562 \; \$1-mixer_\$2_filter_set 65 \; \$1-mixer_\$2_gain_set
100 \; \$1-mixer_\$2_pan_set 65 \;;
#X obj 76 511 f \$2;
#X obj 42 511 f \$1;
#X obj 42 480 t b b;
#X obj 42 540 pack;
#X obj 58 451 loadbang;
#X obj 263 476 f;
#X obj 292 443 moses 1;
#X obj 223 417 sel 1 0;
#X msg 223 477 0;
#X obj 223 391 r \$1-mixer_\$2_mute;
#X obj 292 418 r \$1-mixer_\$2_gain;
#X obj 251 545 f \$2;
#X obj 223 571 pack f f f;
#X obj 223 506 t f b b;
#X obj 280 545 f \$1;
#X msg 223 596 \; \$3-mixer_\$2_gain_set \$1 \;;
#X obj 365 114 r \$1-mixer_\$2_send1;
#X obj 227 309 outlet~;
#X obj 278 309 outlet~;
#X obj 347 309 outlet~;
#X obj 398 309 outlet~;
#X obj 467 309 outlet~;
#X obj 518 309 outlet~;
#X obj 587 309 outlet~;
#X obj 638 309 outlet~;
#X obj 188 280 spigot~;
#X obj 239 280 spigot~;
#X obj 308 280 spigot~;
#X obj 359 280 spigot~;
#X obj 428 280 spigot~;
#X obj 479 280 spigot~;
#X obj 548 280 spigot~;
#X obj 599 280 spigot~;
#X obj 385 134 r \$1-mixer_\$2_send2;
#X obj 405 154 r \$1-mixer_\$2_send3;
#X obj 425 174 r \$1-mixer_\$2_send4;
#X obj 89 222 hip~ 5;
#X obj 39 222 hip~ 5;
#X connect 0 0 2 0;
#X connect 1 0 3 0;
#X connect 2 0 7 0;
#X connect 3 0 8 0;
#X connect 7 0 55 0;
#X connect 8 0 54 0;
#X connect 9 0 3 1;
#X connect 9 0 2 1;
#X connect 12 0 8 1;
#X connect 12 0 7 1;
#X connect 13 0 9 0;
#X connect 14 0 15 2;
#X connect 15 0 10 0;
#X connect 15 0 43 0;
#X connect 15 0 45 0;
#X connect 15 0 47 0;
#X connect 15 0 49 0;
#X connect 15 1 11 0;
#X connect 15 1 44 0;
#X connect 15 1 46 0;
#X connect 15 1 48 0;
#X connect 15 1 50 0;
#X connect 16 0 20 0;
#X connect 18 0 21 1;
#X connect 19 0 21 0;
#X connect 20 0 19 0;
#X connect 20 1 18 0;
#X connect 21 0 17 0;
#X connect 22 0 20 0;
#X connect 23 0 31 0;
#X connect 24 1 23 1;
#X connect 25 0 26 0;
#X connect 25 1 23 0;
#X connect 26 0 31 0;
#X connect 27 0 25 0;
#X connect 28 0 24 0;
#X connect 29 0 30 1;
#X connect 30 0 33 0;
#X connect 31 0 30 0;
#X connect 31 1 29 0;
#X connect 31 2 32 0;
#X connect 32 0 30 2;
#X connect 34 0 43 1;
#X connect 34 0 44 1;
#X connect 43 1 35 0;
#X connect 44 1 36 0;
#X connect 45 1 37 0;
#X connect 46 1 38 0;
#X connect 47 1 39 0;
#X connect 48 1 40 0;
#X connect 49 1 41 0;
#X connect 50 1 42 0;
#X connect 51 0 45 1;
#X connect 51 0 46 1;
#X connect 52 0 47 1;
#X connect 52 0 48 1;
#X connect 53 0 49 1;
#X connect 53 0 50 1;
#X connect 54 0 15 1;
#X connect 55 0 15 0;
