#N canvas 412 22 451 627 10;
#X obj 28 130 inlet;
#X obj 28 176 unpack;
#X obj 28 242 t f f;
#X obj 68 242 t f f;
#X obj 28 322 pack;
#X obj 116 272 t f f;
#X obj 76 332 pack;
#X obj 76 302 + 2;
#X obj 116 332 t f f;
#X obj 156 332 t f f;
#X obj 116 392 pack;
#X obj 116 362 + 2;
#X obj 156 392 t f f;
#X obj 196 392 t f f;
#X obj 156 452 pack;
#X obj 156 422 + 2;
#X obj 196 512 pack;
#X obj 196 482 + 2;
#X obj 175 542 gate;
#X obj 135 482 gate;
#X obj 95 422 gate;
#X obj 55 362 gate;
#X obj 28 559 outlet;
#X obj 94 212 unpack f f f f;
#X msg 154 173 1 0 0 0;
#X msg 214 173 1 1 0 0;
#X msg 274 173 1 1 1 0;
#X msg 334 173 1 1 1 1;
#X msg 94 173 0 0 0 0;
#X obj 184 132 sel 1 2 3 4 5;
#X obj 54 27 hradio 15 1 0 5 \$0-chords_voices \$0-chords_voices_set
voices 80 7 0 10 -262144 -1 -1 3;
#X obj 184 106 + 1;
#X obj 175 27 nbx 3 15 0 1e+37 0 0 \$0-chords_interval \$0-chords_interval_set
interval 40 7 0 10 -262144 -1 -1 2 256;
#X obj 184 85 r \$0-chords_voices;
#X obj 211 285 r \$0-chords_interval;
#X obj 247 489 f \$0;
#X obj 247 458 loadbang;
#X obj 35 276 - 0;
#X msg 247 516 \; \$1-chords_voices_set 3 \; \$1-chords_interval_set
3 \;;
#X connect 0 0 1 0;
#X connect 1 0 2 0;
#X connect 1 1 3 0;
#X connect 2 0 37 0;
#X connect 2 1 7 0;
#X connect 3 0 4 1;
#X connect 3 1 5 0;
#X connect 4 0 22 0;
#X connect 5 0 6 1;
#X connect 5 1 9 0;
#X connect 6 0 21 1;
#X connect 7 0 6 0;
#X connect 7 0 8 0;
#X connect 8 0 11 0;
#X connect 8 1 12 0;
#X connect 9 0 10 1;
#X connect 9 1 13 0;
#X connect 10 0 20 1;
#X connect 11 0 10 0;
#X connect 11 0 12 0;
#X connect 12 0 15 0;
#X connect 12 1 17 0;
#X connect 13 0 14 1;
#X connect 13 1 16 1;
#X connect 14 0 19 1;
#X connect 15 0 14 0;
#X connect 16 0 18 1;
#X connect 17 0 16 0;
#X connect 18 0 22 0;
#X connect 19 0 22 0;
#X connect 20 0 22 0;
#X connect 21 0 22 0;
#X connect 23 0 21 0;
#X connect 23 1 20 0;
#X connect 23 2 19 0;
#X connect 23 3 18 0;
#X connect 24 0 23 0;
#X connect 25 0 23 0;
#X connect 26 0 23 0;
#X connect 27 0 23 0;
#X connect 28 0 23 0;
#X connect 29 0 28 0;
#X connect 29 1 24 0;
#X connect 29 2 25 0;
#X connect 29 3 26 0;
#X connect 29 4 27 0;
#X connect 31 0 29 0;
#X connect 33 0 31 0;
#X connect 34 0 7 1;
#X connect 34 0 11 1;
#X connect 34 0 15 1;
#X connect 34 0 17 1;
#X connect 35 0 38 0;
#X connect 36 0 35 0;
#X connect 37 0 4 0;
#X coords 0 -1 1 1 216 36 1 50 10;
