#N canvas 404 218 443 350 10;
#X obj 41 54 inlet;
#X obj 126 54 inlet;
#X obj 41 168 outlet;
#X obj 126 127 int;
#X text 93 167 weighted random decision;
#X text 40 31 bang;
#X text 120 31 strength;
#X text 35 234 if strength == 127 output will always be 1;
#X text 35 250 if strength == 0 output will always be 0;
#X text 129 16 0-127;
#X text 43 190 1|0;
#X obj 41 144 < \$1;
#X obj 41 80 random 100;
#X obj 126 103 * 100;
#X obj 126 80 mid2dec;
#X connect 0 0 12 0;
#X connect 1 0 14 0;
#X connect 3 0 11 1;
#X connect 11 0 2 0;
#X connect 12 0 11 0;
#X connect 13 0 3 0;
#X connect 14 0 13 0;
