#N canvas 65 22 526 212 10;
#X obj 24 22 inlet~;
#X obj 105 22 inlet~;
#X obj 24 129 outlet~;
#X obj 105 129 outlet~;
#N canvas 100 22 468 727 filterdelay 0;
#N canvas 668 61 268 427 time 0;
#X obj 132 77 max 1;
#X obj 38 115 traninfo;
#X obj 132 140 t b f;
#X obj 132 98 mid2dec;
#X obj 132 119 * 16;
#X obj 68 140 * 0.0625;
#X obj 134 179 *;
#X obj 132 52 inlet;
#X obj 134 279 outlet~;
#X obj 134 204 min 4799;
#X obj 134 253 sig~;
#X connect 0 0 3 0;
#X connect 1 2 5 0;
#X connect 2 0 6 0;
#X connect 2 1 6 1;
#X connect 3 0 4 0;
#X connect 4 0 2 0;
#X connect 5 0 6 0;
#X connect 6 0 9 0;
#X connect 7 0 0 0;
#X connect 9 0 10 0;
#X connect 10 0 8 0;
#X restore 23 144 pd time;
#X obj 23 20 inlet~;
#X obj 43 76 delwrite~ \$0-delleft 4800;
#X obj 231 20 inlet~;
#X obj 251 76 delwrite~ \$0-delright 4800;
#X obj 232 172 vd~ \$0-delright;
#X obj 23 169 vd~ \$0-delleft;
#X obj 23 121 r \$0-delay_time_left;
#X obj 232 122 r \$0-delay_time_right;
#X obj 48 214 r \$0-delay_fil_left;
#X obj 257 215 r \$0-delay_fil_right;
#N canvas 639 277 450 300 filter 0;
#X obj 45 23 inlet;
#X obj 43 73 mtof;
#X obj 43 153 outlet~;
#X obj 46 48 min 1;
#X obj 48 119 sig~;
#X connect 0 0 3 0;
#X connect 1 0 4 0;
#X connect 3 0 1 0;
#X connect 4 0 2 0;
#X restore 257 239 pd filter;
#X obj 54 344 *~;
#X obj 265 336 *~;
#N canvas 475 238 450 300 feedback 0;
#X obj 73 35 inlet;
#X obj 72 81 mid2dec;
#X obj 74 131 sig~;
#X obj 71 171 outlet~;
#X connect 0 0 1 0;
#X connect 1 0 2 0;
#X connect 2 0 3 0;
#X restore 69 320 pd feedback;
#N canvas 475 238 450 300 feedback 0;
#X obj 73 35 inlet;
#X obj 72 81 mid2dec;
#X obj 74 131 sig~;
#X obj 71 171 outlet~;
#X connect 0 0 1 0;
#X connect 1 0 2 0;
#X connect 2 0 3 0;
#X restore 280 312 pd feedback;
#X obj 69 297 r \$0-delay_fb_left;
#X obj 280 290 r \$0-delay_fb_right;
#X obj 69 445 *~ -1;
#X obj 69 467 +~ 1;
#X obj 23 490 *~;
#X obj 54 490 *~;
#X obj 278 445 *~ -1;
#X obj 278 467 +~ 1;
#X obj 232 490 *~;
#X obj 263 490 *~;
#N canvas 475 238 450 300 pan 0;
#X obj 73 35 inlet;
#X obj 72 81 mid2dec;
#X obj 74 131 sig~;
#X obj 71 171 outlet~;
#X connect 0 0 1 0;
#X connect 1 0 2 0;
#X connect 2 0 3 0;
#X restore 278 417 pd pan;
#N canvas 475 238 450 300 pan 0;
#X obj 73 35 inlet;
#X obj 72 81 mid2dec;
#X obj 74 131 sig~;
#X obj 71 171 outlet~;
#X connect 0 0 1 0;
#X connect 1 0 2 0;
#X connect 2 0 3 0;
#X restore 69 417 pd pan;
#X obj 69 393 r \$0-delay_pan_left;
#X obj 278 393 r \$0-delay_pan_right;
#X obj 23 552 *~;
#X obj 263 552 *~;
#N canvas 475 238 450 300 send 0;
#X obj 71 95 inlet;
#X obj 71 121 mid2dec;
#X obj 71 146 sig~;
#X obj 71 171 outlet~;
#X connect 0 0 1 0;
#X connect 1 0 2 0;
#X connect 2 0 3 0;
#X restore 54 552 pd send;
#X obj 110 552 r \$0-delay_send;
#X obj 37 651 spigot~;
#X obj 279 647 spigot~;
#X obj 23 689 outlet~;
#X obj 263 688 outlet~;
#X obj 76 622 r \$0-delay_src;
#N canvas 668 61 268 427 time 0;
#X obj 132 77 max 1;
#X obj 38 115 traninfo;
#X obj 132 140 t b f;
#X obj 132 98 mid2dec;
#X obj 132 119 * 16;
#X obj 68 140 * 0.0625;
#X obj 114 179 *;
#X obj 131 45 inlet;
#X obj 117 345 outlet~;
#X obj 114 204 min 4799;
#X obj 117 315 sig~;
#X connect 0 0 3 0;
#X connect 1 2 5 0;
#X connect 2 0 6 0;
#X connect 2 1 6 1;
#X connect 3 0 4 0;
#X connect 4 0 2 0;
#X connect 5 0 6 0;
#X connect 6 0 9 0;
#X connect 7 0 0 0;
#X connect 9 0 10 0;
#X connect 10 0 8 0;
#X restore 232 146 pd time;
#N canvas 639 277 450 300 filter 0;
#X obj 45 23 inlet;
#X obj 43 73 mtof;
#X obj 43 153 outlet~;
#X obj 46 48 min 1;
#X obj 48 119 sig~;
#X connect 0 0 3 0;
#X connect 1 0 4 0;
#X connect 3 0 1 0;
#X connect 4 0 2 0;
#X restore 48 237 pd filter;
#X obj 54 367 s~ \$0-delleftfb;
#X obj 265 359 s~ \$0-delrightfb;
#X obj 43 54 r~ \$0-delleftfb;
#X obj 251 54 r~ \$0-delrightfb;
#X obj 23 97 s~ \$0-delay_left;
#X obj 231 97 s~ \$0-delay_right;
#X obj 279 595 r~ \$0-delay_right;
#X obj 37 598 r~ \$0-delay_left;
#X obj 318 617 r \$0-delay_src;
#N canvas 475 238 450 300 send 0;
#X obj 71 95 inlet;
#X obj 71 121 mid2dec;
#X obj 71 146 sig~;
#X obj 71 171 outlet~;
#X connect 0 0 1 0;
#X connect 1 0 2 0;
#X connect 2 0 3 0;
#X restore 296 552 pd send;
#X obj 351 552 r \$0-delay_send;
#X obj 23 260 vcf~;
#X obj 232 262 vcf~;
#X connect 0 0 6 0;
#X connect 1 0 2 0;
#X connect 1 0 45 0;
#X connect 3 0 4 0;
#X connect 3 0 46 0;
#X connect 5 0 53 0;
#X connect 6 0 52 0;
#X connect 7 0 0 0;
#X connect 8 0 39 0;
#X connect 9 0 40 0;
#X connect 10 0 11 0;
#X connect 11 0 53 1;
#X connect 12 0 41 0;
#X connect 13 0 42 0;
#X connect 14 0 12 1;
#X connect 15 0 13 1;
#X connect 16 0 14 0;
#X connect 17 0 15 0;
#X connect 18 0 19 0;
#X connect 19 0 21 1;
#X connect 20 0 30 0;
#X connect 21 0 31 0;
#X connect 22 0 23 0;
#X connect 23 0 25 1;
#X connect 24 0 30 0;
#X connect 25 0 31 0;
#X connect 26 0 22 0;
#X connect 26 0 24 1;
#X connect 27 0 18 0;
#X connect 27 0 20 1;
#X connect 28 0 27 0;
#X connect 29 0 26 0;
#X connect 30 0 36 0;
#X connect 31 0 37 0;
#X connect 32 0 30 1;
#X connect 33 0 32 0;
#X connect 34 0 36 0;
#X connect 35 0 37 0;
#X connect 38 0 34 1;
#X connect 39 0 5 0;
#X connect 40 0 52 1;
#X connect 43 0 2 0;
#X connect 44 0 4 0;
#X connect 47 0 35 0;
#X connect 48 0 34 0;
#X connect 49 0 35 1;
#X connect 50 0 31 1;
#X connect 51 0 50 0;
#X connect 52 0 12 0;
#X connect 52 0 20 0;
#X connect 52 0 21 0;
#X connect 53 0 13 0;
#X connect 53 0 24 0;
#X connect 53 0 25 0;
#X restore 24 61 pd filterdelay;
#X obj 305 58 knob 16 16 0 127 0 0 \$0-delay_time_left \$0-delay_time_left_set
empty 5 -8 192 8 -262144 -1 -1 0 1;
#X obj 305 39 knob 16 16 0 127 0 0 \$0-delay_time_right \$0-delay_time_right_set
tm 0 -8 192 8 -262144 -1 -1 0 1;
#X obj 325 58 knob 16 16 0 127 0 0 \$0-delay_fb_left \$0-delay_fb_left_set
empty 5 -8 192 8 -262144 -1 -1 0 1;
#X obj 325 39 knob 16 16 0 127 0 0 \$0-delay_fb_right \$0-delay_fb_right_set
fb 0 -8 192 8 -262144 -1 -1 0 1;
#X obj 345 58 knob 16 16 0 127 0 0 \$0-delay_fil_left \$0-delay_fil_left_set
empty 5 -8 192 8 -262144 -1 -1 0 1;
#X obj 345 39 knob 16 16 0 127 0 0 \$0-delay_fil_right \$0-delay_fil_right_set
fil 0 -8 192 8 -262144 -1 -1 0 1;
#X obj 365 58 knob 16 16 0 127 0 0 \$0-delay_pan_left \$0-delay_pan_left_set
empty 5 -8 192 8 -262144 -1 -1 0 1;
#X obj 365 39 knob 16 16 0 127 0 0 \$0-delay_pan_right \$0-delay_pan_right_set
pan 0 -8 192 8 -262144 -1 -1 0 1;
#X obj 424 38 tgl 32 0 \$0-delay_src \$0-delay_src_set src 5 -8 0 8
-262144 -1 -1 0 1;
#X obj 387 38 knob 32 32 0 127 0 0 \$0-delay_send \$0-delay_send_set
snd 5 -8 192 8 -262144 -1 -1 0 1;
#X obj 195 22 inlet;
#N canvas 398 22 734 340 parameters 0;
#X obj 38 23 inlet;
#X obj 38 53 route tml fbl fill panl tmr fbr filr panr snd src;
#X obj 38 259 s \$0-delay_time_left_set;
#X obj 67 239 s \$0-delay_fb_left_set;
#X obj 125 198 s \$0-delay_pan_left_set;
#X obj 96 218 s \$0-delay_fil_left_set;
#X obj 154 179 s \$0-delay_time_right_set;
#X obj 183 159 s \$0-delay_fb_right_set;
#X obj 212 139 s \$0-delay_fil_right_set;
#X obj 241 118 s \$0-delay_pan_right_set;
#X obj 270 99 s \$0-delay_send_set;
#X obj 299 78 s \$0-delay_src_set;
#X connect 0 0 1 0;
#X connect 1 0 2 0;
#X connect 1 1 3 0;
#X connect 1 2 5 0;
#X connect 1 3 4 0;
#X connect 1 4 6 0;
#X connect 1 5 7 0;
#X connect 1 6 8 0;
#X connect 1 7 9 0;
#X connect 1 8 10 0;
#X connect 1 9 11 0;
#X restore 195 61 pd parameters;
#X obj 24 96 hip~ 5;
#X obj 104 96 hip~ 5;
#X connect 0 0 4 0;
#X connect 1 0 4 1;
#X connect 4 0 17 0;
#X connect 4 1 18 0;
#X connect 15 0 16 0;
#X connect 17 0 2 0;
#X connect 18 0 3 0;
#X coords 0 -1 1 1 160 68 1 300 10;
