#N canvas 635 22 453 175 10;
#X obj 24 54 inlet~;
#X obj 87 54 inlet~;
#X obj 24 104 outlet~;
#X obj 87 104 outlet~;
#N canvas 338 246 468 502 workings 0;
#N canvas 382 287 462 312 rh_scalelog 0;
#X obj 20 155 exp;
#X obj 20 107 *;
#X obj 20 130 +;
#X obj 98 87 log;
#X obj 194 84 log;
#X obj 123 123 t b f;
#X obj 123 145 -;
#X obj 20 183 outlet;
#X obj 20 19 inlet;
#X obj 98 23 inlet;
#X obj 194 24 inlet;
#X connect 0 0 7 0;
#X connect 1 0 2 0;
#X connect 2 0 0 0;
#X connect 3 0 2 1;
#X connect 3 0 5 0;
#X connect 4 0 6 0;
#X connect 5 0 6 0;
#X connect 5 1 6 1;
#X connect 6 0 1 1;
#X connect 8 0 1 0;
#X connect 9 0 3 0;
#X connect 10 0 4 0;
#X restore 251 358 pd rh_scalelog;
#X msg 291 336 0.1;
#X msg 332 336 10;
#X obj 291 311 r \$0-loadbang;
#X obj 25 216 inlet~;
#X obj 77 215 inlet~;
#X obj 124 193 *~;
#X obj 186 193 *~;
#X obj 250 176 * 10;
#X obj 124 111 phasor~;
#X obj 124 150 cos~;
#X obj 186 149 cos~;
#X obj 124 171 +~ 1;
#X obj 186 171 +~ 1;
#N canvas 518 513 473 213 feedback 0;
#X obj 92 18 inlet~;
#X obj 278 26 inlet~;
#X obj 19 142 outlet~;
#X obj 191 154 outlet~;
#X obj 58 88 *~;
#X obj 232 94 *~;
#X obj 58 112 delwrite~ \$0-flanger-l 1000;
#X obj 233 115 delwrite~ \$0-flanger-r 1000;
#X obj 18 49 vd~ \$0-flanger-l;
#X obj 193 55 vd~ \$0-flanger-r;
#X obj 18 22 inlet~;
#X obj 192 25 inlet~;
#X obj 374 28 inlet~;
#X obj 300 147 block~ 4 1 1;
#X connect 0 0 6 0;
#X connect 1 0 7 0;
#X connect 4 0 6 0;
#X connect 5 0 7 0;
#X connect 8 0 4 0;
#X connect 8 0 2 0;
#X connect 9 0 5 0;
#X connect 9 0 3 0;
#X connect 10 0 8 0;
#X connect 11 0 9 0;
#X connect 12 0 5 1;
#X connect 12 0 4 1;
#X restore 124 269 pd feedback;
#X obj 186 128 +~ 0.06;
#X obj 124 214 +~ 0.12;
#X obj 186 214 +~ 0.12;
#X obj 124 375 *~;
#X obj 187 375 *~;
#X obj 124 433 outlet~;
#X obj 187 433 outlet~;
#X msg 351 176 \$1 20;
#X obj 351 199 line~;
#X obj 351 133 * 0.9;
#X obj 351 154 + 0.05;
#X obj 124 64 expr pow($f1 \, 2);
#X obj 124 88 + 0.1;
#X obj 124 23 r \$0-flan_freq;
#X obj 351 89 r \$0-flan_feed;
#X obj 250 134 r \$0-flan_width;
#X obj 251 268 r \$0-flan_gain;
#X obj 251 291 mid2dec;
#X obj 351 111 mid2dec;
#X obj 250 154 mid2dec;
#X obj 124 43 mid2dec;
#X obj 187 404 hip~ 5;
#X obj 127 404 hip~ 5;
#X connect 0 0 19 1;
#X connect 0 0 18 1;
#X connect 1 0 0 1;
#X connect 2 0 0 2;
#X connect 3 0 1 0;
#X connect 3 0 2 0;
#X connect 4 0 14 1;
#X connect 5 0 14 3;
#X connect 6 0 16 0;
#X connect 7 0 17 0;
#X connect 8 0 7 1;
#X connect 8 0 6 1;
#X connect 9 0 10 0;
#X connect 9 0 15 0;
#X connect 10 0 12 0;
#X connect 11 0 13 0;
#X connect 12 0 6 0;
#X connect 13 0 7 0;
#X connect 14 0 18 0;
#X connect 14 1 19 0;
#X connect 15 0 11 0;
#X connect 16 0 14 0;
#X connect 17 0 14 2;
#X connect 18 0 37 0;
#X connect 19 0 36 0;
#X connect 22 0 23 0;
#X connect 23 0 14 4;
#X connect 24 0 25 0;
#X connect 25 0 22 0;
#X connect 26 0 27 0;
#X connect 27 0 9 0;
#X connect 28 0 35 0;
#X connect 29 0 33 0;
#X connect 30 0 34 0;
#X connect 31 0 32 0;
#X connect 32 0 0 0;
#X connect 33 0 24 0;
#X connect 34 0 8 0;
#X connect 35 0 26 0;
#X connect 36 0 21 0;
#X connect 37 0 20 0;
#X restore 24 78 pd workings;
#X obj 256 80 knob 32 32 0 127 0 0 \$0-flan_freq \$0-flan_freq_set
freq 4 -8 192 8 -262144 -1 -1 1562 1;
#X obj 147 54 inlet;
#X obj 296 80 knob 32 32 0 127 0 0 \$0-flan_width \$0-flan_width_set
width 3 -8 192 8 -262144 -1 -1 2343 1;
#X obj 336 80 knob 32 32 0 127 0 0 \$0-flan_feed \$0-flan_feed_set
feed 4 -8 192 8 -262144 -1 -1 2343 1;
#X obj 376 80 knob 32 32 0 127 0 0 \$0-flan_gain \$0-flan_gain_set
gain 4 -8 192 8 -262144 -1 -1 2441 1;
#N canvas 563 294 493 240 parameters 0;
#X obj 48 43 inlet;
#X obj 48 76 route freq width feed gain;
#X obj 48 162 s \$0-flan_freq_set;
#X obj 86 142 s \$0-flan_width_set;
#X obj 124 122 s \$0-flan_feed_set;
#X obj 162 102 s \$0-flan_gain_set;
#X obj 291 95 f \$0;
#X obj 291 75 loadbang;
#X msg 291 118 \; \$1-flan_freq_set 64 \; \$1-flan_width_set 96 \;
\$1-flan_feed_set 96 \; \$1-flan_gain_set 100 \;;
#X connect 0 0 1 0;
#X connect 1 0 2 0;
#X connect 1 1 3 0;
#X connect 1 2 4 0;
#X connect 1 3 5 0;
#X connect 6 0 8 0;
#X connect 7 0 6 0;
#X restore 147 78 pd parameters;
#X text 22 143 completely taken out of hardoffs libary of abstractions
;
#X connect 0 0 4 0;
#X connect 1 0 4 1;
#X connect 4 0 2 0;
#X connect 4 1 3 0;
#X connect 6 0 10 0;
#X coords 0 -1 1 1 165 68 1 250 50;
