#N canvas 428 22 852 756 10;
#X obj 78 426 cos~;
#X obj 78 360 *~;
#X obj 120 426 cos~;
#X obj 148 309 wrap~;
#X obj 93 336 -~;
#X obj 120 393 +~;
#X obj 120 463 -~;
#X obj 133 489 *~;
#X obj 93 278 samphold~;
#X obj 213 213 line~;
#X obj 78 213 phasor~;
#X obj 323 269 cos~;
#X obj 363 292 line~;
#X obj 323 309 *~;
#X obj 363 269 pack 0 50;
#X obj 78 393 +~;
#X obj 78 506 +~;
#X obj 79 8 inlet;
#X obj 79 38 unpack;
#X obj 112 73 s \$0-fmpoly_velocity;
#X obj 79 93 s \$0-fmpoly_pitch;
#X obj 209 336 r \$0-fmpoly_velocity;
#X obj 209 364 moses 1;
#X obj 248 389 mid2dec;
#X obj 78 137 mtof;
#X obj 260 452 r \$1-fmpoly_attack;
#X obj 387 452 r \$1-fmpoly_decay;
#X obj 512 452 r \$1-fmpoly_sustain;
#X obj 643 452 r \$1-fmpoly_release;
#X obj 78 116 r \$0-fmpoly_pitch;
#X obj 213 116 r \$1-fmpoly_center;
#X obj 363 116 r \$1-fmpoly_index;
#X obj 78 633 *~;
#X obj 20 8 inlet~;
#X obj 20 690 +~;
#X obj 20 739 outlet~;
#X obj 363 221 mid2dec;
#X obj 213 138 mid2dec;
#X obj 696 473 traninfo;
#X obj 512 541 * 100;
#X obj 643 574 * 100;
#X obj 440 479 traninfo;
#X obj 387 509 mid2dec;
#X obj 387 580 * 100;
#X obj 313 476 traninfo;
#X obj 260 577 * 100;
#X obj 213 161 * 20;
#X obj 343 520 t b f;
#X obj 470 524 t b f;
#X obj 696 521 t b f;
#X obj 260 509 mid2dec;
#X obj 260 476 max 1;
#X obj 387 480 max 1;
#X obj 643 513 mid2dec;
#X obj 643 473 max 1;
#X obj 512 508 mid2dec;
#X obj 512 480 max 1;
#X obj 209 616 adsr~ 1 400 500 50 200;
#X obj 224 461 f 1;
#X obj 194 461 f 0;
#X obj 205 406 t b;
#X obj 235 416 t b b f;
#X obj 213 187 pack 0 100;
#X obj 78 673 *~ 0.15;
#X obj 20 715 hip~ 5;
#X connect 0 0 6 1;
#X connect 0 0 16 0;
#X connect 1 0 15 0;
#X connect 2 0 6 0;
#X connect 3 0 4 1;
#X connect 3 0 7 1;
#X connect 4 0 1 1;
#X connect 5 0 2 0;
#X connect 6 0 7 0;
#X connect 7 0 16 1;
#X connect 8 0 4 0;
#X connect 8 0 3 0;
#X connect 9 0 8 0;
#X connect 10 0 8 1;
#X connect 10 0 11 0;
#X connect 10 0 1 0;
#X connect 10 0 5 1;
#X connect 11 0 13 0;
#X connect 12 0 13 1;
#X connect 13 0 15 1;
#X connect 14 0 12 0;
#X connect 15 0 5 0;
#X connect 15 0 0 0;
#X connect 16 0 32 0;
#X connect 17 0 18 0;
#X connect 18 0 20 0;
#X connect 18 1 19 0;
#X connect 21 0 22 0;
#X connect 22 0 60 0;
#X connect 22 1 23 0;
#X connect 23 0 61 0;
#X connect 24 0 10 0;
#X connect 25 0 51 0;
#X connect 26 0 52 0;
#X connect 27 0 56 0;
#X connect 28 0 54 0;
#X connect 29 0 24 0;
#X connect 30 0 37 0;
#X connect 31 0 36 0;
#X connect 32 0 63 0;
#X connect 33 0 34 0;
#X connect 34 0 64 0;
#X connect 36 0 14 0;
#X connect 37 0 46 0;
#X connect 38 2 49 0;
#X connect 39 0 57 4;
#X connect 40 0 57 5;
#X connect 41 2 48 0;
#X connect 42 0 43 0;
#X connect 43 0 57 3;
#X connect 44 2 47 0;
#X connect 45 0 57 2;
#X connect 46 0 62 0;
#X connect 47 0 45 0;
#X connect 47 1 45 1;
#X connect 48 0 43 0;
#X connect 48 1 43 1;
#X connect 49 0 40 0;
#X connect 49 1 40 1;
#X connect 50 0 45 0;
#X connect 51 0 50 0;
#X connect 52 0 42 0;
#X connect 53 0 40 0;
#X connect 54 0 53 0;
#X connect 55 0 39 0;
#X connect 56 0 55 0;
#X connect 57 0 32 1;
#X connect 58 0 57 0;
#X connect 59 0 57 0;
#X connect 60 0 59 0;
#X connect 61 1 58 0;
#X connect 61 2 57 1;
#X connect 62 0 9 0;
#X connect 63 0 34 1;
#X connect 64 0 35 0;
