#N canvas 0 22 1280 696 10;
#X obj 7 30 knob 32 32 0 127 0 0 \$0-trig_length \$0-trig_length_set
length 0 -8 192 8 -262144 -1 -1 0 1;
#X obj 53 30 knob 32 32 0 127 0 0 \$0-trig_prob \$0-trig_prob_set prbblty
0 -8 192 8 -262144 -1 -1 3100 1;
#X obj 100 29 tgl 32 0 empty \$0-trig_switch_set state 3 -8 0 8 -262144
-1 -1 1 1;
#X obj 302 33 inlet;
#X obj 379 33 inlet;
#X obj 456 33 inlet;
#X obj 533 33 inlet;
#X obj 610 33 inlet;
#X obj 687 33 inlet;
#X obj 764 33 inlet;
#X obj 302 283 outlet;
#X obj 379 283 outlet;
#X obj 456 283 outlet;
#X obj 533 283 outlet;
#X obj 610 283 outlet;
#X obj 687 283 outlet;
#X obj 764 283 outlet;
#X obj 88 336 pdj bin2int;
#X obj 19 403 pdj int2bin;
#X obj 88 294 pack f f f f f f f;
#X obj 19 450 unpack f f f f f f f;
#X obj 107 363 r \$0-trig_rec;
#X obj 88 153 r \$0-trig_in_1;
#X obj 105 173 r \$0-trig_in_2;
#X obj 123 193 r \$0-trig_in_3;
#X obj 140 213 r \$0-trig_in_4;
#X obj 158 233 r \$0-trig_in_5;
#X obj 175 253 r \$0-trig_in_6;
#X obj 193 273 r \$0-trig_in_7;
#X obj 19 592 s \$0-trig_out_1;
#X obj 38 572 s \$0-trig_out_2;
#X obj 58 552 s \$0-trig_out_3;
#X obj 77 532 s \$0-trig_out_4;
#X obj 97 512 s \$0-trig_out_5;
#X obj 116 492 s \$0-trig_out_6;
#X obj 136 472 s \$0-trig_out_7;
#X obj 1030 469 s \$0-trig_rec;
#X obj 1003 340 sel 0;
#X obj 976 235 + 1;
#X obj 852 419 + 1;
#X obj 976 165 mid2dec;
#X obj 976 210 int;
#X obj 976 187 * 5;
#X obj 985 259 tranlength;
#X obj 852 383 decide3;
#X obj 976 283 switch 6 6;
#X obj 976 142 r \$0-trig_length;
#X obj 891 359 r \$0-trig_prob;
#X obj 852 454 s \$0-trig_switch;
#X obj 882 419 s \$0-trig_switch_set;
#X obj 19 324 gate;
#X obj 19 130 r \$0-trig_switch;
#X obj 19 295 - 1;
#X obj 976 307 t b f;
#X obj 1080 208 f \$0;
#X obj 1080 186 loadbang;
#N canvas 578 144 538 309 length 0;
#X obj 33 179 f 0;
#X obj 103 67 length;
#X obj 130 155 sel 1 0;
#X obj 130 130 < 7;
#X obj 130 204 list;
#X obj 169 204 list;
#X text 205 204 fine;
#X obj 151 50 t l l l;
#X obj 70 236 zl join;
#X obj 33 204 zl group;
#X obj 33 105 expr 7-$f1;
#X obj 33 155 until;
#X obj 33 130 t f f;
#X obj 103 88 t f f;
#X obj 169 253 outlet;
#X obj 151 22 inlet;
#X text 93 203 short;
#X text 232 107 7 == the length the list should be;
#X text 232 147 if it is to short add correct amount of '0's;
#X text 408 281 need to look at >>;
#X connect 0 0 9 0;
#X connect 1 0 13 0;
#X connect 2 0 4 0;
#X connect 2 1 5 0;
#X connect 3 0 2 0;
#X connect 4 0 8 1;
#X connect 5 0 14 0;
#X connect 7 0 1 0;
#X connect 7 1 4 1;
#X connect 7 2 5 1;
#X connect 8 0 14 0;
#X connect 9 0 8 0;
#X connect 10 0 12 0;
#X connect 11 0 0 0;
#X connect 12 0 11 0;
#X connect 12 1 9 1;
#X connect 13 0 10 0;
#X connect 13 1 3 0;
#X connect 15 0 7 0;
#X restore 19 426 pd length;
#X obj 1030 398 t b b;
#X obj 1030 423 1-0;
#X msg 1030 446 record \$1;
#X obj 73 252 f;
#X obj 19 380 d.markov 128;
#X obj 844 235 t b b b b b b b b;
#X obj 1003 366 t b b;
#X obj 976 33 inlet;
#X obj 976 108 s \$0-trig_prob_set;
#X obj 976 65 route prob length;
#X obj 1025 88 s \$0-trig_length_set;
#X msg 1080 231 \; \$1-trig_length_set 32 \; \$1-trig_prob_set 0 \;
;
#X text 105 382 store in markov chain;
#X text 96 403 integer to list;
#X text 86 426 make sure the list is correct length;
#X text 967 11 parameters;
#X text 297 11 channel1;
#X text 374 11 channel2;
#X text 451 11 channel3;
#X text 528 11 channel4;
#X text 605 11 channel5;
#X text 682 11 channel6;
#X text 759 11 channe7;
#X text 297 304 channel1;
#X text 374 304 channel2;
#X text 451 304 channel3;
#X text 528 304 channel4;
#X text 605 304 channel5;
#X text 682 304 channel6;
#X text 759 304 channe7;
#X text 157 449 send to channel;
#X text 16 625 7 places with 2 possible values = 2^7 = 128 states;
#X text 905 334 "prbblty";
#X text 166 337 list to integer;
#X text 211 294 every 16th;
#X text 1053 340 toggle between user and markov;
#X obj 799 213 tranlength;
#X text 1113 208 initial parameters;
#X obj 533 252 cctrig \$0 4;
#X obj 456 252 cctrig \$0 3;
#X obj 687 252 cctrig \$0 6;
#X obj 302 252 cctrig \$0 1;
#X obj 379 252 cctrig \$0 2;
#X obj 610 252 cctrig \$0 5;
#X obj 764 252 cctrig \$0 7;
#X connect 3 0 98 0;
#X connect 4 0 99 0;
#X connect 5 0 96 0;
#X connect 6 0 95 0;
#X connect 7 0 100 0;
#X connect 8 0 97 0;
#X connect 9 0 101 0;
#X connect 17 0 61 1;
#X connect 18 0 56 0;
#X connect 19 0 17 0;
#X connect 20 0 29 0;
#X connect 20 1 30 0;
#X connect 20 2 31 0;
#X connect 20 3 32 0;
#X connect 20 4 33 0;
#X connect 20 5 34 0;
#X connect 20 6 35 0;
#X connect 21 0 61 1;
#X connect 22 0 60 1;
#X connect 23 0 19 1;
#X connect 24 0 19 2;
#X connect 25 0 19 3;
#X connect 26 0 19 4;
#X connect 27 0 19 5;
#X connect 28 0 19 6;
#X connect 37 0 63 0;
#X connect 38 0 45 0;
#X connect 39 0 48 0;
#X connect 40 0 42 0;
#X connect 41 0 38 0;
#X connect 42 0 41 0;
#X connect 43 0 45 1;
#X connect 43 1 45 2;
#X connect 43 2 45 3;
#X connect 43 3 45 4;
#X connect 43 4 45 5;
#X connect 43 5 45 6;
#X connect 44 0 39 0;
#X connect 44 0 49 0;
#X connect 45 0 53 0;
#X connect 46 0 40 0;
#X connect 47 0 44 1;
#X connect 50 0 61 0;
#X connect 51 0 52 0;
#X connect 52 0 50 0;
#X connect 53 0 50 1;
#X connect 53 1 37 0;
#X connect 54 0 68 0;
#X connect 55 0 54 0;
#X connect 56 0 20 0;
#X connect 57 0 58 0;
#X connect 57 1 58 1;
#X connect 58 0 59 0;
#X connect 59 0 36 0;
#X connect 60 0 19 0;
#X connect 61 0 18 0;
#X connect 62 0 60 0;
#X connect 62 1 98 1;
#X connect 62 2 99 1;
#X connect 62 3 96 1;
#X connect 62 4 95 1;
#X connect 62 5 100 1;
#X connect 62 6 97 1;
#X connect 62 7 101 1;
#X connect 63 0 44 0;
#X connect 63 1 57 0;
#X connect 64 0 66 0;
#X connect 66 0 65 0;
#X connect 66 1 67 0;
#X connect 93 4 62 0;
#X connect 95 0 13 0;
#X connect 96 0 12 0;
#X connect 97 0 15 0;
#X connect 98 0 10 0;
#X connect 99 0 11 0;
#X connect 100 0 14 0;
#X connect 101 0 16 0;
#X coords 0 -1 1 1 140 70 1 0 0;
