#N canvas 204 140 1076 461 10;
#X symbolatom 405 21 5 0 0 0 - #0-scales_root_sym_set #0-scales_root_sym
;
#X symbolatom 441 21 9 0 0 0 - #0-scales_name_sym_set #0-scales_name_sym
;
#N canvas 511 73 395 473 HarmonyExample 0;
#X obj 177 156 pack f f;
#X obj 128 208 prepend nth;
#X text 152 13 Scale;
#X obj 136 183 gate 1;
#X msg 144 133 0;
#X msg 113 133 1;
#X text 39 27 Degree;
#X obj 177 130 f;
#X obj 184 101 t b f;
#X text 26 397 Individual Notes;
#X text 264 392 Scale Name;
#X obj 101 377 outlet;
#X obj 266 371 outlet;
#X text 53 422 Float;
#X text 178 422 List;
#X text 269 417 Symbol;
#X obj 89 305 gate 2;
#X obj 150 61 t f b f b;
#X obj 50 135 t b f b;
#X msg 89 173 2;
#X msg 36 174 1;
#N canvas 621 22 595 666 scaleName 0;
#X msg 78 126 Chromatic;
#X msg 110 170 Ionian;
#X msg 135 210 Dorian;
#X msg 156 246 Phrygian;
#X msg 212 272 Lydian;
#X msg 235 290 Mixolydian;
#X msg 136 326 Aeolian;
#X msg 131 353 Locrian;
#X msg 134 377 Wholetone;
#X msg 144 412 m7 9 11 13;
#X msg 158 442 dim7;
#X msg 176 465 Octatonic 2-1;
#X msg 189 491 Octatonic 1-2;
#X msg 195 525 Major Pentatonic;
#X msg 214 558 Minor Pentatonic;
#X msg 242 585 Octaves;
#X obj 368 253 outlet;
#X obj 97 79 sel 0 1 2 3 4 5 6 7 8 9 10 11 12 13 14 15;
#X obj 80 49 inlet;
#X connect 0 0 16 0;
#X connect 1 0 16 0;
#X connect 2 0 16 0;
#X connect 3 0 16 0;
#X connect 4 0 16 0;
#X connect 5 0 16 0;
#X connect 6 0 16 0;
#X connect 7 0 16 0;
#X connect 8 0 16 0;
#X connect 9 0 16 0;
#X connect 10 0 16 0;
#X connect 11 0 16 0;
#X connect 12 0 16 0;
#X connect 13 0 16 0;
#X connect 14 0 16 0;
#X connect 15 0 16 0;
#X connect 17 0 0 0;
#X connect 17 1 1 0;
#X connect 17 2 2 0;
#X connect 17 3 3 0;
#X connect 17 4 4 0;
#X connect 17 5 5 0;
#X connect 17 6 6 0;
#X connect 17 7 7 0;
#X connect 17 8 8 0;
#X connect 17 9 9 0;
#X connect 17 10 10 0;
#X connect 17 11 11 0;
#X connect 17 12 12 0;
#X connect 17 13 13 0;
#X connect 17 14 14 0;
#X connect 17 15 15 0;
#X connect 18 0 17 0;
#X restore 266 338 pd scaleName;
#X obj 151 33 inlet;
#X obj 39 46 inlet;
#X text 162 398 Whole Scale;
#X obj 101 353 + 48;
#X obj 263 45 inlet;
#X text 254 27 Root Note;
#X obj 182 366 outlet;
#X obj 125 279 coll pitch2scale.txt;
#C restore;
#N canvas 262 102 497 456 scaleroot 0;
#X floatatom 42 107 5 0 127 0 - - -;
#X obj 400 169 int;
#X msg 293 210 A;
#X msg 353 210 B;
#X msg 20 210 C;
#X msg 83 210 D;
#X msg 143 210 E;
#X obj 400 208 t b f;
#X symbolatom 185 366 10 0 0 0 - - -;
#X obj 185 320 pack s f;
#X obj 42 180 select 0 1 2 3 4 5 6 7 8 9 10 11;
#X obj 42 156 mod 12;
#X msg 171 210 F;
#X msg 235 210 G;
#X obj 400 147 / 12;
#X msg 53 210 C#;
#X msg 204 210 F#;
#X msg 264 210 G#;
#X obj 427 233 - 1;
#X obj 42 81 inlet;
#X obj 185 389 outlet;
#X obj 42 130 t f f;
#X text 81 105 <-- MIDI number;
#X text 259 364 <-- MIDI note name;
#X msg 185 343 symbol \$1\$2;
#X msg 323 210 A#;
#X msg 112 210 D#;
#X connect 0 0 21 0;
#X connect 1 0 7 0;
#X connect 2 0 9 0;
#X connect 3 0 9 0;
#X connect 4 0 9 0;
#X connect 5 0 9 0;
#X connect 6 0 9 0;
#X connect 7 0 9 0;
#X connect 7 1 18 0;
#X connect 8 0 20 0;
#X connect 9 0 24 0;
#X connect 10 0 4 0;
#X connect 10 1 15 0;
#X connect 10 2 5 0;
#X connect 10 3 26 0;
#X connect 10 4 6 0;
#X connect 10 5 12 0;
#X connect 10 6 16 0;
#X connect 10 7 13 0;
#X connect 10 8 17 0;
#X connect 10 9 2 0;
#X connect 10 10 25 0;
#X connect 10 11 3 0;
#X connect 11 0 10 0;
#X connect 12 0 9 0;
#X connect 13 0 9 0;
#X connect 14 0 1 0;
#X connect 15 0 9 0;
#X connect 16 0 9 0;
#X connect 17 0 9 0;
#X connect 18 0 9 1;
#X connect 19 0 0 0;
#X connect 21 0 11 0;
#X connect 21 1 14 0;
#X connect 24 0 8 0;
#X connect 25 0 9 0;
#X connect 26 0 9 0;
#X restore 271 167 pd scaleroot;
#X connect 0 0 3 1;
#X connect 1 0 29 0;
#X connect 3 0 1 0;
#X connect 4 0 3 0;
#X connect 5 0 3 0;
#X connect 7 0 0 0;
#X connect 8 0 7 0;
#X connect 8 1 0 1;
#X connect 16 0 25 0;
#X connect 17 0 18 0;
#X connect 17 1 5 0;
#X connect 17 2 7 1;
#X connect 17 3 4 0;
#X connect 18 0 20 0;
#X connect 18 1 29 0;
#X connect 18 2 19 0;
#X connect 19 0 16 0;
#X connect 20 0 16 0;
#X connect 21 0 12 0;
#X connect 22 0 17 0;
#X connect 23 0 8 0;
#X connect 25 0 11 0;
#X connect 26 0 25 1;
#X connect 26 0 30 0;
#X connect 29 0 16 1;
#X connect 29 1 21 0;
#X connect 30 0 28 0;
#X restore 14 245 pd HarmonyExample;
#X obj 113 274 prepend set;
#X obj 332 47 hradio 10 1 0 16 \$0-scales_num \$0-scales_num_set mode
-28 6 0 10 -262144 -1 -1 14;
#X obj 63 343 s \$0-scales_root_sym_set;
#X obj 113 321 s \$0-scales_name_sym_set;
#X obj 63 297 prepend set;
#X obj 14 17 inlet;
#X obj 14 384 outlet;
#X obj 14 67 unpack;
#X obj 14 343 pack;
#X obj 332 27 hradio 10 1 0 7 \$0-scales_octave \$0-scales_octave_set
oct -22 5 0 10 -262144 -1 -1 3;
#X obj 113 100 r \$0-scales_key;
#X obj 155 125 r \$0-scales_octave;
#X obj 113 216 +;
#X obj 113 189 t b f;
#X obj 155 172 * 12;
#X obj 155 148 + 1;
#X obj 332 37 hradio 10 1 0 12 \$0-scales_key \$0-scales_key_set key
-22 5 0 10 -262144 -1 -1 0;
#X msg 329 206 \; \$1-scales_octave_set 3 \; \$1-scales_key_set 0 \;
\$1-scales_num_set 14 \;;
#X obj 329 182 f \$0;
#X obj 329 162 loadbang;
#X obj 63 67 r \$0-scales_num;
#X obj 509 99 inlet;
#X obj 509 138 route oct key mode;
#X obj 509 207 s \$0-scales_octave_set;
#X obj 544 187 s \$0-scales_key_set;
#X obj 579 167 s \$0-scales_num_set;
#X obj 14 127 - 47;
#X connect 2 0 11 0;
#X connect 2 1 7 0;
#X connect 2 2 3 0;
#X connect 3 0 6 0;
#X connect 7 0 5 0;
#X connect 8 0 10 0;
#X connect 10 0 29 0;
#X connect 10 1 11 1;
#X connect 11 0 9 0;
#X connect 13 0 15 0;
#X connect 14 0 18 0;
#X connect 15 0 2 2;
#X connect 16 0 15 0;
#X connect 16 1 15 1;
#X connect 17 0 16 0;
#X connect 18 0 17 0;
#X connect 21 0 20 0;
#X connect 22 0 21 0;
#X connect 23 0 2 1;
#X connect 24 0 25 0;
#X connect 25 0 26 0;
#X connect 25 1 27 0;
#X connect 25 2 28 0;
#X connect 29 0 2 0;
#X coords 0 -1 1 1 200 52 1 300 10;
