#N canvas 65 22 1215 756 10;
#X obj 29 35 inlet~;
#X text 71 34 Signal;
#X obj 29 61 delwrite~ \$0-pitchshift_del 5000;
#N canvas 206 72 651 647 guts 0;
#X obj 141 415 *~;
#X obj 296 352 line~;
#X obj 296 326 pack 0 200;
#X obj 78 200 exp;
#X obj 78 288 /;
#X obj 205 218 * 0.001;
#X obj 405 422 line~;
#X obj 405 397 pack 0 200;
#X obj 141 441 +~;
#X obj 78 467 cos~;
#X obj 78 494 *~;
#X obj 78 523 +~;
#X obj 165 374 wrap~;
#X obj 342 417 *~;
#X obj 342 450 +~;
#X obj 279 477 cos~;
#X obj 279 504 *~;
#X obj 205 245 t b f;
#X obj 165 347 +~ 0.5;
#X obj 78 415 -~ 0.5;
#X obj 78 441 *~ 0.5;
#X obj 279 416 -~ 0.5;
#X obj 279 449 *~ 0.5;
#X obj 78 225 - 1;
#X obj 78 174 * 0.05776;
#X obj 78 251 * -1;
#X text 142 172 <-- transposition;
#X text 338 167 <--window (msec);
#X obj 78 312 phasor~;
#X obj 405 373 max 1.5;
#X obj 296 168 max 1;
#X obj 78 61 r \$0-pitchshift_transpose;
#X obj 296 61 r \$0-pitchshift_window;
#X obj 405 300 r \$0-pitchshift_delay;
#X obj 78 549 outlet~;
#X obj 342 479 vd~ \$0-pitchshift_del;
#X obj 141 467 vd~ \$0-pitchshift_del;
#X obj 78 85 mid2dec;
#X obj 78 129 - 24;
#X obj 78 151 int;
#X obj 78 107 * 48;
#X obj 296 84 mid2dec;
#X obj 296 113 * 500;
#X obj 405 324 mid2dec;
#X obj 405 348 * 1;
#X obj 539 300 traninfo;
#X obj 569 331 t b f;
#X text 459 372 delay;
#X text 197 538 Based on one of the example patches;
#X connect 0 0 8 0;
#X connect 1 0 0 1;
#X connect 1 0 13 1;
#X connect 2 0 1 0;
#X connect 3 0 23 0;
#X connect 4 0 28 0;
#X connect 5 0 17 0;
#X connect 6 0 14 1;
#X connect 6 0 8 1;
#X connect 7 0 6 0;
#X connect 8 0 36 0;
#X connect 9 0 10 0;
#X connect 10 0 11 0;
#X connect 11 0 34 0;
#X connect 12 0 13 0;
#X connect 12 0 21 0;
#X connect 13 0 14 0;
#X connect 14 0 35 0;
#X connect 15 0 16 0;
#X connect 16 0 11 1;
#X connect 17 0 4 0;
#X connect 17 1 4 1;
#X connect 18 0 12 0;
#X connect 19 0 20 0;
#X connect 20 0 9 0;
#X connect 21 0 22 0;
#X connect 22 0 15 0;
#X connect 23 0 25 0;
#X connect 24 0 3 0;
#X connect 25 0 4 0;
#X connect 28 0 0 0;
#X connect 28 0 19 0;
#X connect 28 0 18 0;
#X connect 29 0 7 0;
#X connect 30 0 5 0;
#X connect 30 0 2 0;
#X connect 31 0 37 0;
#X connect 32 0 41 0;
#X connect 33 0 43 0;
#X connect 35 0 16 1;
#X connect 36 0 10 1;
#X connect 37 0 40 0;
#X connect 38 0 39 0;
#X connect 39 0 24 0;
#X connect 40 0 38 0;
#X connect 41 0 42 0;
#X connect 42 0 30 0;
#X connect 43 0 44 0;
#X connect 44 0 29 0;
#X connect 45 2 46 0;
#X connect 46 0 44 0;
#X connect 46 1 44 1;
#X restore 30 92 pd guts;
#X obj 30 158 outlet~;
#X obj 506 59 knob 32 32 0 127 0 0 \$0-pitchshift_transpose \$0-pitchshift_transpose_set
trnsps 0 -8 192 8 -262144 -1 -1 1562 1;
#X obj 546 59 knob 32 32 0 127 0 0 \$0-pitchshift_window \$0-pitchshift_window_set
window 0 -8 192 8 -262144 -1 -1 610 1;
#X obj 586 59 knob 32 32 0 127 0 0 \$0-pitchshift_delay \$0-pitchshift_delay_set
delay 4 -8 192 8 -262144 -1 -1 0 1;
#X obj 398 210 f \$0;
#X obj 398 184 loadbang;
#X msg 398 234 \; \$1-pitchshift_transpose_set 64 \; \$1-pitchshift_window_set
25 \; \$1-pitchshift_delay_set 0;
#X obj 239 35 inlet~;
#X text 281 34 Signal;
#N canvas 206 72 651 647 guts 0;
#X obj 141 415 *~;
#X obj 296 352 line~;
#X obj 296 326 pack 0 200;
#X obj 78 200 exp;
#X obj 78 288 /;
#X obj 205 218 * 0.001;
#X obj 405 422 line~;
#X obj 405 397 pack 0 200;
#X obj 141 441 +~;
#X obj 78 467 cos~;
#X obj 78 494 *~;
#X obj 78 523 +~;
#X obj 165 374 wrap~;
#X obj 342 417 *~;
#X obj 342 450 +~;
#X obj 279 477 cos~;
#X obj 279 504 *~;
#X obj 205 245 t b f;
#X obj 165 347 +~ 0.5;
#X obj 78 415 -~ 0.5;
#X obj 78 441 *~ 0.5;
#X obj 279 416 -~ 0.5;
#X obj 279 449 *~ 0.5;
#X obj 78 225 - 1;
#X obj 78 174 * 0.05776;
#X obj 78 251 * -1;
#X text 142 172 <-- transposition;
#X text 338 167 <--window (msec);
#X obj 78 312 phasor~;
#X obj 405 373 max 1.5;
#X obj 296 168 max 1;
#X obj 78 61 r \$0-pitchshift_transpose;
#X obj 296 61 r \$0-pitchshift_window;
#X obj 405 300 r \$0-pitchshift_delay;
#X obj 78 549 outlet~;
#X obj 78 85 mid2dec;
#X obj 78 129 - 24;
#X obj 78 151 int;
#X obj 78 107 * 48;
#X obj 296 84 mid2dec;
#X obj 296 113 * 500;
#X obj 405 324 mid2dec;
#X obj 405 348 * 1;
#X obj 539 300 traninfo;
#X obj 569 331 t b f;
#X text 459 372 delay;
#X obj 141 467 vd~ \$0-pitchshift_delr;
#X obj 342 479 vd~ \$0-pitchshift_delr;
#X connect 0 0 8 0;
#X connect 1 0 0 1;
#X connect 1 0 13 1;
#X connect 2 0 1 0;
#X connect 3 0 23 0;
#X connect 4 0 28 0;
#X connect 5 0 17 0;
#X connect 6 0 14 1;
#X connect 6 0 8 1;
#X connect 7 0 6 0;
#X connect 8 0 46 0;
#X connect 9 0 10 0;
#X connect 10 0 11 0;
#X connect 11 0 34 0;
#X connect 12 0 13 0;
#X connect 12 0 21 0;
#X connect 13 0 14 0;
#X connect 14 0 47 0;
#X connect 15 0 16 0;
#X connect 16 0 11 1;
#X connect 17 0 4 0;
#X connect 17 1 4 1;
#X connect 18 0 12 0;
#X connect 19 0 20 0;
#X connect 20 0 9 0;
#X connect 21 0 22 0;
#X connect 22 0 15 0;
#X connect 23 0 25 0;
#X connect 24 0 3 0;
#X connect 25 0 4 0;
#X connect 28 0 0 0;
#X connect 28 0 19 0;
#X connect 28 0 18 0;
#X connect 29 0 7 0;
#X connect 30 0 5 0;
#X connect 30 0 2 0;
#X connect 31 0 35 0;
#X connect 32 0 39 0;
#X connect 33 0 41 0;
#X connect 35 0 38 0;
#X connect 36 0 37 0;
#X connect 37 0 24 0;
#X connect 38 0 36 0;
#X connect 39 0 40 0;
#X connect 40 0 30 0;
#X connect 41 0 42 0;
#X connect 42 0 29 0;
#X connect 43 2 44 0;
#X connect 44 0 42 0;
#X connect 44 1 42 1;
#X connect 46 0 10 1;
#X connect 47 0 16 1;
#X restore 240 92 pd guts;
#X obj 240 158 outlet~;
#X obj 239 61 delwrite~ \$0-pitchshift_delr 5000;
#X obj 665 55 inlet;
#X obj 621 135 s \$0-pitchshift_transpose_set;
#X obj 622 169 s \$0-pitchshift_window_set;
#X obj 610 204 s \$0-pitchshift_delay_set;
#X obj 663 87 route trnsps window delay;
#X obj 31 128 hip~ 5;
#X obj 242 126 hip~ 5;
#X connect 0 0 2 0;
#X connect 3 0 21 0;
#X connect 8 0 10 0;
#X connect 9 0 8 0;
#X connect 11 0 15 0;
#X connect 13 0 22 0;
#X connect 16 0 20 0;
#X connect 20 0 17 0;
#X connect 20 1 18 0;
#X connect 20 2 19 0;
#X connect 21 0 4 0;
#X connect 22 0 14 0;
#X coords 0 -1 1 1 123 68 1 500 30;
