#N canvas 543 22 322 427 10;
#X obj 96 142 folder_list;
#X obj 96 170 t a b;
#X obj 195 187 counter;
#X msg 195 142 set 1;
#X obj 96 317 msgfile;
#X obj 180 225 int;
#X msg 96 198 add \$1;
#X obj 96 105 t a b b;
#X msg 52 142 clear;
#X obj 145 249 random;
#X obj 96 35 inlet;
#X msg 182 300 goto \$1;
#X msg 145 300 this;
#X obj 145 274 t b a;
#X obj 145 198 t b b;
#X obj 96 75 route symbol bang;
#X obj 96 357 outlet;
#X connect 0 0 1 0;
#X connect 1 0 6 0;
#X connect 1 1 2 0;
#X connect 2 0 5 1;
#X connect 3 0 2 0;
#X connect 4 0 16 0;
#X connect 5 0 9 1;
#X connect 6 0 4 0;
#X connect 7 0 0 0;
#X connect 7 1 3 0;
#X connect 7 2 8 0;
#X connect 8 0 4 0;
#X connect 9 0 13 0;
#X connect 10 0 15 0;
#X connect 11 0 4 0;
#X connect 12 0 4 0;
#X connect 13 0 12 0;
#X connect 13 1 11 0;
#X connect 14 0 9 0;
#X connect 14 1 5 0;
#X connect 15 0 7 0;
#X connect 15 1 14 0;
#X coords 0 0 1 1 85 60 0;
