#N canvas 663 54 610 509 10;
#N canvas 313 148 656 455 record 0;
#X msg 51 130 stop;
#X msg 93 132 start;
#X obj 95 60 sel 0 1;
#X obj 166 134 date;
#X obj 143 175 pack f f f;
#X obj 127 88 t b b b b;
#X obj 256 124 time;
#X obj 242 157 pack f f;
#X msg 179 239 \$1_\$2_\$3-\$4_\$5;
#X obj 172 208 zl join;
#X obj 179 263 symbol;
#X obj 93 34 inlet;
#X obj 144 354 outlet;
#X msg 179 294 open /Users/record\$1.wav;
#X connect 0 0 12 0;
#X connect 1 0 12 0;
#X connect 2 0 0 0;
#X connect 2 1 5 0;
#X connect 3 0 4 0;
#X connect 3 1 4 1;
#X connect 3 2 4 2;
#X connect 4 0 9 0;
#X connect 5 0 1 0;
#X connect 5 2 3 0;
#X connect 5 3 6 0;
#X connect 6 0 7 0;
#X connect 6 1 7 1;
#X connect 7 0 9 1;
#X connect 8 0 10 0;
#X connect 9 0 8 0;
#X connect 10 0 13 0;
#X connect 11 0 2 0;
#X connect 13 0 12 0;
#X restore 75 178 pd record;
#X obj 105 44 inlet;
#X obj 23 46 inlet~;
#N canvas 186 53 421 436 time 0;
#X obj 103 89 metro 1000;
#X text 119 336 Hours;
#X text 165 336 Minutes;
#X text 215 336 Seconds;
#X obj 208 166 counter 0 59;
#X obj 162 198 sel 0;
#X obj 162 226 counter 0 59;
#X obj 115 285 counter;
#X obj 115 260 sel 0;
#X obj 183 97 t b b b;
#X obj 183 74 sel 0;
#X obj 129 45 inlet;
#X obj 115 312 outlet;
#X obj 162 314 outlet;
#X obj 209 314 outlet;
#X connect 0 0 4 0;
#X connect 4 0 14 0;
#X connect 4 0 5 0;
#X connect 5 0 6 0;
#X connect 6 0 13 0;
#X connect 6 0 8 0;
#X connect 7 0 12 0;
#X connect 8 0 7 0;
#X connect 9 0 7 2;
#X connect 9 1 6 2;
#X connect 9 2 4 2;
#X connect 10 0 9 0;
#X connect 11 0 0 0;
#X connect 11 0 10 0;
#X restore 140 138 pd time;
#X obj 105 104 tgl 15 0 empty empty empty 17 7 0 10 -262144 -1 -1 0
1;
#X obj 144 105 nbx 2 14 -1e+37 1e+37 0 0 empty empty empty 0 -8 0 10
-262144 -1 -1 0 256;
#X obj 191 105 nbx 2 14 -1e+37 1e+37 0 0 empty empty empty 0 -8 0 10
-262144 -1 -1 0 256;
#X obj 243 105 nbx 2 14 -1e+37 1e+37 0 0 empty empty empty 0 -8 0 10
-262144 -1 -1 0 256;
#X text 220 104 min;
#X text 272 104 sec;
#X text 173 104 hr;
#X text 121 103 rec;
#X obj 49 248 writesf~ 2;
#X obj 53 74 inlet~;
#X connect 0 0 12 0;
#X connect 1 0 4 0;
#X connect 2 0 12 0;
#X connect 3 0 5 0;
#X connect 3 1 6 0;
#X connect 3 2 7 0;
#X connect 4 0 0 0;
#X connect 4 0 3 0;
#X connect 13 0 12 1;
#X coords 0 -1 1 1 195 23 2 100 100;
