#N canvas 401 91 314 425 10;
#N canvas 259 107 273 301 trigger 0;
#X obj 139 220 gate 1 1;
#X obj 68 58 > 0;
#X obj 68 83 sel 1;
#X obj 139 195 1-0;
#X obj 68 108 t b b b;
#X obj 29 158 onebang;
#X msg 184 195 0;
#X msg 87 220 1;
#X obj 87 256 outlet;
#X obj 68 26 inlet;
#X obj 157 108 t b b;
#X obj 157 60 inlet;
#X connect 0 0 8 0;
#X connect 1 0 2 0;
#X connect 2 0 4 0;
#X connect 3 0 0 0;
#X connect 4 0 5 1;
#X connect 4 1 7 0;
#X connect 4 2 3 1;
#X connect 5 0 3 0;
#X connect 6 0 0 1;
#X connect 7 0 8 0;
#X connect 9 0 1 0;
#X connect 10 0 5 0;
#X connect 10 1 6 0;
#X connect 11 0 10 0;
#X restore 139 104 pd trigger;
#X obj 112 80 t f f;
#X obj 79 55 unpack;
#X obj 79 104 pack;
#X obj 79 127 t l l;
#X obj 51 321 switch 2 1;
#X obj 108 191 sel 1;
#X obj 79 32 inlet;
#X obj 51 351 outlet;
#X obj 139 125 s \$1-trig_in_\$2;
#X obj 51 297 r \$1-trig_switch;
#X obj 108 169 r \$1-trig_out_\$2;
#X obj 108 239 makenote;
#X obj 108 264 pack;
#X obj 196 32 inlet;
#X obj 108 214 arpeg2;
#X obj 160 214 r \$1-trig_rec;
#X connect 0 0 9 0;
#X connect 1 0 3 1;
#X connect 1 1 0 0;
#X connect 2 0 3 0;
#X connect 2 1 1 0;
#X connect 3 0 4 0;
#X connect 4 0 5 1;
#X connect 4 1 15 1;
#X connect 5 0 8 0;
#X connect 6 0 15 0;
#X connect 7 0 2 0;
#X connect 10 0 5 0;
#X connect 11 0 6 0;
#X connect 12 0 13 0;
#X connect 12 1 13 1;
#X connect 13 0 5 2;
#X connect 14 0 0 1;
#X connect 15 0 12 0;
#X connect 16 0 15 1;
