{
	"patcher" : 	{
		"fileversion" : 1,
		"rect" : [ 87.0, 114.0, 490.0, 465.0 ],
		"bglocked" : 0,
		"defrect" : [ 87.0, 114.0, 490.0, 465.0 ],
		"openrect" : [ 0.0, 0.0, 0.0, 0.0 ],
		"openinpresentation" : 0,
		"default_fontsize" : 12.0,
		"default_fontface" : 0,
		"default_fontname" : "Arial",
		"gridonopen" : 0,
		"gridsize" : [ 15.0, 15.0 ],
		"gridsnaponopen" : 0,
		"toolbarvisible" : 1,
		"boxanimatetime" : 200,
		"imprint" : 0,
		"metadata" : [  ],
		"boxes" : [ 			{
				"box" : 				{
					"maxclass" : "message",
					"text" : "stop",
					"id" : "obj-42",
					"fontname" : "Arial",
					"numinlets" : 2,
					"numoutlets" : 1,
					"fontsize" : 12.0,
					"patching_rect" : [ 135.0, 45.0, 33.0, 18.0 ],
					"outlettype" : [ "" ]
				}

			}
, 			{
				"box" : 				{
					"maxclass" : "newobj",
					"text" : "patcher HiHat",
					"id" : "obj-39",
					"fontname" : "Arial",
					"numinlets" : 1,
					"numoutlets" : 1,
					"fontsize" : 12.0,
					"patching_rect" : [ 210.0, 120.0, 84.0, 20.0 ],
					"outlettype" : [ "signal" ],
					"patcher" : 					{
						"fileversion" : 1,
						"rect" : [ 41.0, 439.0, 586.0, 409.0 ],
						"bglocked" : 0,
						"defrect" : [ 41.0, 439.0, 586.0, 409.0 ],
						"openrect" : [ 0.0, 0.0, 0.0, 0.0 ],
						"openinpresentation" : 0,
						"default_fontsize" : 12.0,
						"default_fontface" : 0,
						"default_fontname" : "Arial",
						"gridonopen" : 0,
						"gridsize" : [ 15.0, 15.0 ],
						"gridsnaponopen" : 0,
						"toolbarvisible" : 1,
						"boxanimatetime" : 200,
						"imprint" : 0,
						"visible" : 1,
						"metadata" : [  ],
						"boxes" : [ 							{
								"box" : 								{
									"maxclass" : "outlet",
									"id" : "obj-2",
									"numinlets" : 1,
									"numoutlets" : 0,
									"patching_rect" : [ 105.0, 360.0, 25.0, 25.0 ],
									"comment" : ""
								}

							}
, 							{
								"box" : 								{
									"maxclass" : "inlet",
									"id" : "obj-1",
									"numinlets" : 0,
									"numoutlets" : 1,
									"patching_rect" : [ 15.0, 15.0, 25.0, 25.0 ],
									"outlettype" : [ "bang" ],
									"comment" : ""
								}

							}
, 							{
								"box" : 								{
									"maxclass" : "message",
									"text" : "highpass",
									"id" : "obj-153",
									"fontname" : "Arial",
									"numinlets" : 2,
									"numoutlets" : 1,
									"fontsize" : 12.0,
									"patching_rect" : [ 225.0, 45.0, 59.0, 18.0 ],
									"outlettype" : [ "" ]
								}

							}
, 							{
								"box" : 								{
									"maxclass" : "comment",
									"text" : "HIHAT",
									"id" : "obj-143",
									"fontname" : "Arial",
									"numinlets" : 1,
									"numoutlets" : 0,
									"fontface" : 1,
									"fontsize" : 12.0,
									"patching_rect" : [ 45.0, 45.0, 52.0, 20.0 ]
								}

							}
, 							{
								"box" : 								{
									"maxclass" : "button",
									"id" : "obj-144",
									"numinlets" : 1,
									"numoutlets" : 1,
									"patching_rect" : [ 15.0, 45.0, 20.0, 20.0 ],
									"outlettype" : [ "bang" ]
								}

							}
, 							{
								"box" : 								{
									"maxclass" : "newobj",
									"text" : "*~",
									"id" : "obj-142",
									"fontname" : "Arial",
									"numinlets" : 2,
									"numoutlets" : 1,
									"fontsize" : 12.0,
									"patching_rect" : [ 105.0, 315.0, 32.5, 20.0 ],
									"outlettype" : [ "signal" ]
								}

							}
, 							{
								"box" : 								{
									"maxclass" : "newobj",
									"text" : "line~",
									"id" : "obj-139",
									"fontname" : "Arial",
									"numinlets" : 2,
									"numoutlets" : 2,
									"fontsize" : 12.0,
									"patching_rect" : [ 75.0, 225.0, 36.0, 20.0 ],
									"outlettype" : [ "signal", "bang" ]
								}

							}
, 							{
								"box" : 								{
									"maxclass" : "newobj",
									"text" : "route list",
									"id" : "obj-140",
									"fontname" : "Arial",
									"numinlets" : 1,
									"numoutlets" : 2,
									"fontsize" : 12.0,
									"patching_rect" : [ 75.0, 195.0, 56.0, 20.0 ],
									"outlettype" : [ "", "" ]
								}

							}
, 							{
								"box" : 								{
									"maxclass" : "function",
									"id" : "obj-141",
									"numinlets" : 1,
									"numoutlets" : 4,
									"patching_rect" : [ 15.0, 90.0, 200.0, 100.0 ],
									"outlettype" : [ "float", "", "", "bang" ],
									"addpoints" : [ 0.0, 0.0, 0, 10.638298, 1.0, 0, 53.19149, 0.253333, 0, 111.702126, 0.0, 0, 281.914886, 0.0, 0, 1000.0, 0.0, 0 ]
								}

							}
, 							{
								"box" : 								{
									"maxclass" : "newobj",
									"text" : "noise~",
									"id" : "obj-108",
									"fontname" : "Arial",
									"numinlets" : 1,
									"numoutlets" : 1,
									"fontsize" : 11.595187,
									"patching_rect" : [ 165.0, 225.0, 43.0, 20.0 ],
									"outlettype" : [ "signal" ]
								}

							}
, 							{
								"box" : 								{
									"maxclass" : "newobj",
									"text" : "biquad~",
									"id" : "obj-110",
									"fontname" : "Arial",
									"numinlets" : 6,
									"numoutlets" : 1,
									"fontsize" : 11.595187,
									"patching_rect" : [ 165.0, 270.0, 79.0, 20.0 ],
									"outlettype" : [ "signal" ]
								}

							}
, 							{
								"box" : 								{
									"maxclass" : "comment",
									"text" : "res",
									"id" : "obj-113",
									"fontname" : "Arial",
									"numinlets" : 1,
									"numoutlets" : 0,
									"fontsize" : 11.595187,
									"patching_rect" : [ 480.0, 45.0, 42.0, 20.0 ]
								}

							}
, 							{
								"box" : 								{
									"maxclass" : "flonum",
									"id" : "obj-114",
									"fontname" : "Arial",
									"numinlets" : 1,
									"numoutlets" : 2,
									"fontsize" : 11.595187,
									"patching_rect" : [ 480.0, 60.0, 50.0, 20.0 ],
									"outlettype" : [ "float", "bang" ]
								}

							}
, 							{
								"box" : 								{
									"maxclass" : "flonum",
									"id" : "obj-115",
									"fontname" : "Arial",
									"numinlets" : 1,
									"numoutlets" : 2,
									"fontsize" : 11.595187,
									"patching_rect" : [ 420.0, 60.0, 50.0, 20.0 ],
									"outlettype" : [ "float", "bang" ]
								}

							}
, 							{
								"box" : 								{
									"maxclass" : "flonum",
									"id" : "obj-116",
									"fontname" : "Arial",
									"numinlets" : 1,
									"numoutlets" : 2,
									"fontsize" : 11.595187,
									"patching_rect" : [ 360.0, 60.0, 50.0, 20.0 ],
									"outlettype" : [ "float", "bang" ]
								}

							}
, 							{
								"box" : 								{
									"maxclass" : "filtergraph~",
									"markercolor" : [ 0.509804, 0.509804, 0.509804, 1.0 ],
									"id" : "obj-122",
									"fgcolor" : [ 0.756863, 0.756863, 1.0, 1.0 ],
									"bgcolor" : [ 0.913725, 0.913725, 1.0, 1.0 ],
									"numinlets" : 8,
									"hbwidthcolor" : [ 0.823529, 0.290196, 0.211765, 1.0 ],
									"hcurvecolor" : [ 1.0, 0.086275, 0.086275, 1.0 ],
									"numoutlets" : 7,
									"domain" : [ 0.0, 22050.0 ],
									"fontsize" : 8.998901,
									"autoout" : 1,
									"patching_rect" : [ 225.0, 90.0, 305.0, 132.0 ],
									"outlettype" : [ "list", "float", "float", "float", "float", "list", "int" ],
									"bwidthcolor" : [ 0.462745, 0.47451, 0.65098, 1.0 ],
									"nfilters" : 1,
									"setfilter" : [ 0, 2, 0, 0, 0, 3450.0, 1.0, 1.5, 0.0001, 22050.0, 0.0001, 16.0, 0.5, 25.0 ]
								}

							}
, 							{
								"box" : 								{
									"maxclass" : "comment",
									"text" : "cutoff",
									"id" : "obj-123",
									"fontname" : "Arial",
									"numinlets" : 1,
									"numoutlets" : 0,
									"fontsize" : 11.595187,
									"patching_rect" : [ 360.0, 45.0, 54.0, 20.0 ]
								}

							}
, 							{
								"box" : 								{
									"maxclass" : "comment",
									"text" : "gain",
									"id" : "obj-124",
									"fontname" : "Arial",
									"numinlets" : 1,
									"numoutlets" : 0,
									"fontsize" : 11.595187,
									"patching_rect" : [ 420.0, 45.0, 45.0, 20.0 ]
								}

							}
 ],
						"lines" : [ 							{
								"patchline" : 								{
									"source" : [ "obj-142", 0 ],
									"destination" : [ "obj-2", 0 ],
									"hidden" : 0,
									"midpoints" : [  ]
								}

							}
, 							{
								"patchline" : 								{
									"source" : [ "obj-1", 0 ],
									"destination" : [ "obj-144", 0 ],
									"hidden" : 0,
									"midpoints" : [  ]
								}

							}
, 							{
								"patchline" : 								{
									"source" : [ "obj-153", 0 ],
									"destination" : [ "obj-122", 0 ],
									"hidden" : 0,
									"midpoints" : [  ]
								}

							}
, 							{
								"patchline" : 								{
									"source" : [ "obj-144", 0 ],
									"destination" : [ "obj-141", 0 ],
									"hidden" : 0,
									"midpoints" : [ 24.5, 66.0, 24.5, 66.0 ]
								}

							}
, 							{
								"patchline" : 								{
									"source" : [ "obj-110", 0 ],
									"destination" : [ "obj-142", 0 ],
									"hidden" : 0,
									"midpoints" : [ 174.5, 300.0, 114.5, 300.0 ]
								}

							}
, 							{
								"patchline" : 								{
									"source" : [ "obj-139", 0 ],
									"destination" : [ "obj-142", 1 ],
									"hidden" : 0,
									"midpoints" : [ 84.5, 300.0, 128.0, 300.0 ]
								}

							}
, 							{
								"patchline" : 								{
									"source" : [ "obj-141", 1 ],
									"destination" : [ "obj-140", 0 ],
									"hidden" : 0,
									"midpoints" : [ 84.833336, 192.0, 84.5, 192.0 ]
								}

							}
, 							{
								"patchline" : 								{
									"source" : [ "obj-140", 0 ],
									"destination" : [ "obj-139", 0 ],
									"hidden" : 0,
									"midpoints" : [  ]
								}

							}
, 							{
								"patchline" : 								{
									"source" : [ "obj-108", 0 ],
									"destination" : [ "obj-110", 0 ],
									"hidden" : 0,
									"midpoints" : [  ]
								}

							}
, 							{
								"patchline" : 								{
									"source" : [ "obj-122", 0 ],
									"destination" : [ "obj-110", 1 ],
									"hidden" : 0,
									"midpoints" : [ 234.5, 255.0, 186.5, 255.0 ]
								}

							}
, 							{
								"patchline" : 								{
									"source" : [ "obj-114", 0 ],
									"destination" : [ "obj-122", 7 ],
									"hidden" : 0,
									"midpoints" : [ 489.5, 87.0, 520.5, 87.0 ]
								}

							}
, 							{
								"patchline" : 								{
									"source" : [ "obj-115", 0 ],
									"destination" : [ "obj-122", 6 ],
									"hidden" : 0,
									"midpoints" : [ 429.5, 87.0, 479.642853, 87.0 ]
								}

							}
, 							{
								"patchline" : 								{
									"source" : [ "obj-116", 0 ],
									"destination" : [ "obj-122", 5 ],
									"hidden" : 0,
									"midpoints" : [ 369.5, 87.0, 438.785706, 87.0 ]
								}

							}
 ]
					}
,
					"saved_object_attributes" : 					{
						"default_fontname" : "Arial",
						"fontname" : "Arial",
						"default_fontsize" : 12.0,
						"globalpatchername" : "",
						"fontface" : 0,
						"fontsize" : 12.0,
						"default_fontface" : 0
					}

				}

			}
, 			{
				"box" : 				{
					"maxclass" : "newobj",
					"text" : "patcher Snare",
					"id" : "obj-38",
					"fontname" : "Arial",
					"numinlets" : 1,
					"numoutlets" : 1,
					"fontsize" : 12.0,
					"patching_rect" : [ 105.0, 120.0, 86.0, 20.0 ],
					"outlettype" : [ "signal" ],
					"patcher" : 					{
						"fileversion" : 1,
						"rect" : [ 602.0, 332.0, 643.0, 458.0 ],
						"bglocked" : 0,
						"defrect" : [ 602.0, 332.0, 643.0, 458.0 ],
						"openrect" : [ 0.0, 0.0, 0.0, 0.0 ],
						"openinpresentation" : 0,
						"default_fontsize" : 12.0,
						"default_fontface" : 0,
						"default_fontname" : "Arial",
						"gridonopen" : 0,
						"gridsize" : [ 15.0, 15.0 ],
						"gridsnaponopen" : 0,
						"toolbarvisible" : 1,
						"boxanimatetime" : 200,
						"imprint" : 0,
						"visible" : 1,
						"metadata" : [  ],
						"boxes" : [ 							{
								"box" : 								{
									"maxclass" : "message",
									"text" : "clear",
									"id" : "obj-5",
									"fontname" : "Arial",
									"numinlets" : 2,
									"numoutlets" : 1,
									"fontsize" : 12.0,
									"patching_rect" : [ 150.0, 60.0, 37.0, 18.0 ],
									"outlettype" : [ "" ]
								}

							}
, 							{
								"box" : 								{
									"maxclass" : "outlet",
									"id" : "obj-2",
									"numinlets" : 1,
									"numoutlets" : 0,
									"patching_rect" : [ 60.0, 405.0, 25.0, 25.0 ],
									"comment" : ""
								}

							}
, 							{
								"box" : 								{
									"maxclass" : "inlet",
									"id" : "obj-1",
									"numinlets" : 0,
									"numoutlets" : 1,
									"patching_rect" : [ 60.0, 15.0, 25.0, 25.0 ],
									"outlettype" : [ "bang" ],
									"comment" : ""
								}

							}
, 							{
								"box" : 								{
									"maxclass" : "message",
									"text" : "lowpass",
									"id" : "obj-25",
									"fontname" : "Arial",
									"numinlets" : 2,
									"numoutlets" : 1,
									"fontsize" : 12.0,
									"patching_rect" : [ 270.0, 60.0, 54.0, 18.0 ],
									"outlettype" : [ "" ]
								}

							}
, 							{
								"box" : 								{
									"maxclass" : "newobj",
									"text" : "biquad~",
									"id" : "obj-28",
									"fontname" : "Arial",
									"numinlets" : 6,
									"numoutlets" : 1,
									"fontsize" : 11.595187,
									"patching_rect" : [ 60.0, 375.0, 79.0, 20.0 ],
									"outlettype" : [ "signal" ]
								}

							}
, 							{
								"box" : 								{
									"maxclass" : "comment",
									"text" : "res",
									"id" : "obj-29",
									"fontname" : "Arial",
									"numinlets" : 1,
									"numoutlets" : 0,
									"fontsize" : 11.595187,
									"patching_rect" : [ 525.0, 60.0, 42.0, 20.0 ]
								}

							}
, 							{
								"box" : 								{
									"maxclass" : "flonum",
									"id" : "obj-30",
									"fontname" : "Arial",
									"numinlets" : 1,
									"numoutlets" : 2,
									"fontsize" : 11.595187,
									"patching_rect" : [ 525.0, 75.0, 50.0, 20.0 ],
									"outlettype" : [ "float", "bang" ]
								}

							}
, 							{
								"box" : 								{
									"maxclass" : "flonum",
									"id" : "obj-31",
									"fontname" : "Arial",
									"numinlets" : 1,
									"numoutlets" : 2,
									"fontsize" : 11.595187,
									"patching_rect" : [ 465.0, 75.0, 50.0, 20.0 ],
									"outlettype" : [ "float", "bang" ]
								}

							}
, 							{
								"box" : 								{
									"maxclass" : "flonum",
									"id" : "obj-32",
									"fontname" : "Arial",
									"numinlets" : 1,
									"numoutlets" : 2,
									"fontsize" : 11.595187,
									"patching_rect" : [ 405.0, 75.0, 50.0, 20.0 ],
									"outlettype" : [ "float", "bang" ]
								}

							}
, 							{
								"box" : 								{
									"maxclass" : "filtergraph~",
									"markercolor" : [ 0.509804, 0.509804, 0.509804, 1.0 ],
									"id" : "obj-33",
									"fgcolor" : [ 0.756863, 0.756863, 1.0, 1.0 ],
									"bgcolor" : [ 0.913725, 0.913725, 1.0, 1.0 ],
									"numinlets" : 8,
									"hbwidthcolor" : [ 0.823529, 0.290196, 0.211765, 1.0 ],
									"hcurvecolor" : [ 1.0, 0.086275, 0.086275, 1.0 ],
									"numoutlets" : 7,
									"domain" : [ 0.0, 22050.0 ],
									"fontsize" : 8.998901,
									"autoout" : 1,
									"patching_rect" : [ 270.0, 105.0, 305.0, 132.0 ],
									"outlettype" : [ "list", "float", "float", "float", "float", "list", "int" ],
									"bwidthcolor" : [ 0.462745, 0.47451, 0.65098, 1.0 ],
									"nfilters" : 1,
									"setfilter" : [ 0, 1, 0, 0, 0, 5309.0, 1.0, 2.0, 0.0001, 22050.0, 0.0001, 16.0, 0.5, 25.0 ]
								}

							}
, 							{
								"box" : 								{
									"maxclass" : "comment",
									"text" : "cutoff",
									"id" : "obj-34",
									"fontname" : "Arial",
									"numinlets" : 1,
									"numoutlets" : 0,
									"fontsize" : 11.595187,
									"patching_rect" : [ 405.0, 60.0, 54.0, 20.0 ]
								}

							}
, 							{
								"box" : 								{
									"maxclass" : "comment",
									"text" : "gain",
									"id" : "obj-35",
									"fontname" : "Arial",
									"numinlets" : 1,
									"numoutlets" : 0,
									"fontsize" : 11.595187,
									"patching_rect" : [ 465.0, 60.0, 45.0, 20.0 ]
								}

							}
, 							{
								"box" : 								{
									"maxclass" : "flonum",
									"id" : "obj-91",
									"fontname" : "Arial",
									"numinlets" : 1,
									"numoutlets" : 2,
									"fontsize" : 12.0,
									"patching_rect" : [ 180.0, 210.0, 50.0, 20.0 ],
									"outlettype" : [ "float", "bang" ]
								}

							}
, 							{
								"box" : 								{
									"maxclass" : "newobj",
									"text" : "*~",
									"id" : "obj-89",
									"fontname" : "Arial",
									"numinlets" : 2,
									"numoutlets" : 1,
									"fontsize" : 12.0,
									"patching_rect" : [ 60.0, 255.0, 32.5, 20.0 ],
									"outlettype" : [ "signal" ]
								}

							}
, 							{
								"box" : 								{
									"maxclass" : "number",
									"id" : "obj-88",
									"fontname" : "Arial",
									"numinlets" : 1,
									"numoutlets" : 2,
									"fontsize" : 12.0,
									"patching_rect" : [ 210.0, 240.0, 50.0, 20.0 ],
									"outlettype" : [ "int", "bang" ]
								}

							}
, 							{
								"box" : 								{
									"maxclass" : "newobj",
									"text" : "cycle~",
									"id" : "obj-86",
									"fontname" : "Arial",
									"numinlets" : 2,
									"numoutlets" : 1,
									"fontsize" : 12.0,
									"patching_rect" : [ 210.0, 270.0, 45.0, 20.0 ],
									"outlettype" : [ "signal" ]
								}

							}
, 							{
								"box" : 								{
									"maxclass" : "comment",
									"text" : "SNARE",
									"id" : "obj-66",
									"fontname" : "Arial",
									"numinlets" : 1,
									"numoutlets" : 0,
									"fontface" : 1,
									"fontsize" : 12.0,
									"patching_rect" : [ 90.0, 60.0, 52.0, 20.0 ]
								}

							}
, 							{
								"box" : 								{
									"maxclass" : "newobj",
									"text" : "line~",
									"id" : "obj-61",
									"fontname" : "Arial",
									"numinlets" : 2,
									"numoutlets" : 2,
									"fontsize" : 12.0,
									"patching_rect" : [ 120.0, 255.0, 36.0, 20.0 ],
									"outlettype" : [ "signal", "bang" ]
								}

							}
, 							{
								"box" : 								{
									"maxclass" : "newobj",
									"text" : "route list",
									"id" : "obj-59",
									"fontname" : "Arial",
									"numinlets" : 1,
									"numoutlets" : 2,
									"fontsize" : 12.0,
									"patching_rect" : [ 120.0, 210.0, 56.0, 20.0 ],
									"outlettype" : [ "", "" ]
								}

							}
, 							{
								"box" : 								{
									"maxclass" : "function",
									"id" : "obj-60",
									"numinlets" : 1,
									"numoutlets" : 4,
									"patching_rect" : [ 60.0, 105.0, 200.0, 100.0 ],
									"outlettype" : [ "float", "", "", "bang" ],
									"addpoints" : [ 0.0, 0.0, 0, 10.638298, 0.826667, 0, 159.574463, 0.0, 0, 356.382965, 0.0, 0 ]
								}

							}
, 							{
								"box" : 								{
									"maxclass" : "newobj",
									"text" : "*~",
									"id" : "obj-58",
									"fontname" : "Arial",
									"numinlets" : 2,
									"numoutlets" : 1,
									"fontsize" : 12.0,
									"patching_rect" : [ 60.0, 330.0, 32.5, 20.0 ],
									"outlettype" : [ "signal" ]
								}

							}
, 							{
								"box" : 								{
									"maxclass" : "button",
									"id" : "obj-57",
									"numinlets" : 1,
									"numoutlets" : 1,
									"patching_rect" : [ 60.0, 60.0, 20.0, 20.0 ],
									"outlettype" : [ "bang" ]
								}

							}
, 							{
								"box" : 								{
									"maxclass" : "newobj",
									"text" : "noise~",
									"id" : "obj-56",
									"fontname" : "Arial",
									"numinlets" : 1,
									"numoutlets" : 1,
									"fontsize" : 12.0,
									"patching_rect" : [ 60.0, 210.0, 46.0, 20.0 ],
									"outlettype" : [ "signal" ]
								}

							}
 ],
						"lines" : [ 							{
								"patchline" : 								{
									"source" : [ "obj-28", 0 ],
									"destination" : [ "obj-2", 0 ],
									"hidden" : 0,
									"midpoints" : [  ]
								}

							}
, 							{
								"patchline" : 								{
									"source" : [ "obj-1", 0 ],
									"destination" : [ "obj-57", 0 ],
									"hidden" : 0,
									"midpoints" : [  ]
								}

							}
, 							{
								"patchline" : 								{
									"source" : [ "obj-60", 1 ],
									"destination" : [ "obj-59", 0 ],
									"hidden" : 0,
									"midpoints" : [  ]
								}

							}
, 							{
								"patchline" : 								{
									"source" : [ "obj-59", 0 ],
									"destination" : [ "obj-61", 0 ],
									"hidden" : 0,
									"midpoints" : [  ]
								}

							}
, 							{
								"patchline" : 								{
									"source" : [ "obj-61", 0 ],
									"destination" : [ "obj-58", 1 ],
									"hidden" : 0,
									"midpoints" : [ 129.5, 300.0, 83.0, 300.0 ]
								}

							}
, 							{
								"patchline" : 								{
									"source" : [ "obj-57", 0 ],
									"destination" : [ "obj-60", 0 ],
									"hidden" : 0,
									"midpoints" : [  ]
								}

							}
, 							{
								"patchline" : 								{
									"source" : [ "obj-88", 0 ],
									"destination" : [ "obj-86", 0 ],
									"hidden" : 0,
									"midpoints" : [  ]
								}

							}
, 							{
								"patchline" : 								{
									"source" : [ "obj-86", 0 ],
									"destination" : [ "obj-58", 0 ],
									"hidden" : 0,
									"midpoints" : [ 219.5, 300.0, 69.5, 300.0 ]
								}

							}
, 							{
								"patchline" : 								{
									"source" : [ "obj-89", 0 ],
									"destination" : [ "obj-58", 0 ],
									"hidden" : 0,
									"midpoints" : [  ]
								}

							}
, 							{
								"patchline" : 								{
									"source" : [ "obj-56", 0 ],
									"destination" : [ "obj-89", 0 ],
									"hidden" : 0,
									"midpoints" : [  ]
								}

							}
, 							{
								"patchline" : 								{
									"source" : [ "obj-91", 0 ],
									"destination" : [ "obj-89", 1 ],
									"hidden" : 0,
									"midpoints" : [ 189.5, 240.0, 83.0, 240.0 ]
								}

							}
, 							{
								"patchline" : 								{
									"source" : [ "obj-32", 0 ],
									"destination" : [ "obj-33", 5 ],
									"hidden" : 0,
									"midpoints" : [ 414.5, 102.0, 483.785706, 102.0 ]
								}

							}
, 							{
								"patchline" : 								{
									"source" : [ "obj-31", 0 ],
									"destination" : [ "obj-33", 6 ],
									"hidden" : 0,
									"midpoints" : [ 474.5, 102.0, 524.642883, 102.0 ]
								}

							}
, 							{
								"patchline" : 								{
									"source" : [ "obj-30", 0 ],
									"destination" : [ "obj-33", 7 ],
									"hidden" : 0,
									"midpoints" : [ 534.5, 102.0, 565.5, 102.0 ]
								}

							}
, 							{
								"patchline" : 								{
									"source" : [ "obj-33", 0 ],
									"destination" : [ "obj-28", 1 ],
									"hidden" : 0,
									"midpoints" : [ 279.5, 360.0, 81.5, 360.0 ]
								}

							}
, 							{
								"patchline" : 								{
									"source" : [ "obj-25", 0 ],
									"destination" : [ "obj-33", 0 ],
									"hidden" : 0,
									"midpoints" : [  ]
								}

							}
, 							{
								"patchline" : 								{
									"source" : [ "obj-58", 0 ],
									"destination" : [ "obj-28", 0 ],
									"hidden" : 0,
									"midpoints" : [  ]
								}

							}
, 							{
								"patchline" : 								{
									"source" : [ "obj-5", 0 ],
									"destination" : [ "obj-60", 0 ],
									"hidden" : 0,
									"midpoints" : [ 159.5, 90.0, 69.5, 90.0 ]
								}

							}
 ]
					}
,
					"saved_object_attributes" : 					{
						"default_fontname" : "Arial",
						"fontname" : "Arial",
						"default_fontsize" : 12.0,
						"globalpatchername" : "",
						"fontface" : 0,
						"fontsize" : 12.0,
						"default_fontface" : 0
					}

				}

			}
, 			{
				"box" : 				{
					"maxclass" : "newobj",
					"text" : "patcher Kick",
					"id" : "obj-37",
					"fontname" : "Arial",
					"numinlets" : 1,
					"numoutlets" : 1,
					"fontsize" : 12.0,
					"patching_rect" : [ 15.0, 120.0, 77.0, 20.0 ],
					"outlettype" : [ "signal" ],
					"patcher" : 					{
						"fileversion" : 1,
						"rect" : [ 590.0, 138.0, 640.0, 480.0 ],
						"bglocked" : 0,
						"defrect" : [ 590.0, 138.0, 640.0, 480.0 ],
						"openrect" : [ 0.0, 0.0, 0.0, 0.0 ],
						"openinpresentation" : 0,
						"default_fontsize" : 12.0,
						"default_fontface" : 0,
						"default_fontname" : "Arial",
						"gridonopen" : 0,
						"gridsize" : [ 15.0, 15.0 ],
						"gridsnaponopen" : 0,
						"toolbarvisible" : 1,
						"boxanimatetime" : 200,
						"imprint" : 0,
						"visible" : 1,
						"metadata" : [  ],
						"boxes" : [ 							{
								"box" : 								{
									"maxclass" : "outlet",
									"id" : "obj-3",
									"numinlets" : 1,
									"numoutlets" : 0,
									"patching_rect" : [ 105.0, 390.0, 25.0, 25.0 ],
									"comment" : ""
								}

							}
, 							{
								"box" : 								{
									"maxclass" : "inlet",
									"id" : "obj-1",
									"numinlets" : 0,
									"numoutlets" : 1,
									"patching_rect" : [ 30.0, 30.0, 25.0, 25.0 ],
									"outlettype" : [ "bang" ],
									"comment" : ""
								}

							}
, 							{
								"box" : 								{
									"maxclass" : "newobj",
									"text" : "route list",
									"id" : "obj-55",
									"fontname" : "Arial",
									"numinlets" : 1,
									"numoutlets" : 2,
									"fontsize" : 12.0,
									"patching_rect" : [ 330.0, 225.0, 56.0, 20.0 ],
									"outlettype" : [ "", "" ]
								}

							}
, 							{
								"box" : 								{
									"maxclass" : "function",
									"id" : "obj-53",
									"numinlets" : 1,
									"numoutlets" : 4,
									"patching_rect" : [ 270.0, 120.0, 200.0, 100.0 ],
									"outlettype" : [ "float", "", "", "bang" ],
									"addpoints" : [ 0.0, 0.0, 0, 10.638298, 1.0, 0, 111.702126, 0.6, 0, 250.0, 0.333333, 0, 707.446838, 0.0, 0 ]
								}

							}
, 							{
								"box" : 								{
									"maxclass" : "button",
									"id" : "obj-12",
									"numinlets" : 1,
									"numoutlets" : 1,
									"patching_rect" : [ 30.0, 75.0, 20.0, 20.0 ],
									"outlettype" : [ "bang" ]
								}

							}
, 							{
								"box" : 								{
									"maxclass" : "newobj",
									"text" : "*~",
									"id" : "obj-41",
									"fontname" : "Arial",
									"numinlets" : 2,
									"numoutlets" : 1,
									"fontsize" : 12.0,
									"patching_rect" : [ 105.0, 345.0, 32.5, 20.0 ],
									"outlettype" : [ "signal" ]
								}

							}
, 							{
								"box" : 								{
									"maxclass" : "newobj",
									"text" : "line~",
									"id" : "obj-40",
									"fontname" : "Arial",
									"numinlets" : 2,
									"numoutlets" : 2,
									"fontsize" : 12.0,
									"patching_rect" : [ 165.0, 285.0, 36.0, 20.0 ],
									"outlettype" : [ "signal", "bang" ]
								}

							}
, 							{
								"box" : 								{
									"maxclass" : "comment",
									"text" : "KICK",
									"id" : "obj-54",
									"fontname" : "Arial",
									"numinlets" : 1,
									"numoutlets" : 0,
									"fontface" : 1,
									"fontsize" : 12.0,
									"patching_rect" : [ 60.0, 75.0, 55.0, 20.0 ]
								}

							}
, 							{
								"box" : 								{
									"maxclass" : "comment",
									"text" : "dec",
									"id" : "obj-52",
									"fontname" : "Arial",
									"numinlets" : 1,
									"numoutlets" : 0,
									"fontsize" : 12.0,
									"patching_rect" : [ 225.0, 150.0, 35.0, 20.0 ]
								}

							}
, 							{
								"box" : 								{
									"maxclass" : "comment",
									"text" : "att",
									"id" : "obj-50",
									"fontname" : "Arial",
									"numinlets" : 1,
									"numoutlets" : 0,
									"fontsize" : 12.0,
									"patching_rect" : [ 165.0, 150.0, 34.0, 20.0 ]
								}

							}
, 							{
								"box" : 								{
									"maxclass" : "comment",
									"text" : "high",
									"id" : "obj-48",
									"fontname" : "Arial",
									"numinlets" : 1,
									"numoutlets" : 0,
									"fontsize" : 12.0,
									"patching_rect" : [ 105.0, 150.0, 32.0, 20.0 ]
								}

							}
, 							{
								"box" : 								{
									"maxclass" : "comment",
									"text" : "low",
									"id" : "obj-46",
									"fontname" : "Arial",
									"numinlets" : 1,
									"numoutlets" : 0,
									"fontsize" : 12.0,
									"patching_rect" : [ 45.0, 150.0, 43.0, 20.0 ]
								}

							}
, 							{
								"box" : 								{
									"maxclass" : "newobj",
									"text" : "pak f f f f",
									"id" : "obj-44",
									"fontname" : "Arial",
									"numinlets" : 4,
									"numoutlets" : 1,
									"fontsize" : 12.0,
									"patching_rect" : [ 105.0, 195.0, 59.5, 20.0 ],
									"outlettype" : [ "" ]
								}

							}
, 							{
								"box" : 								{
									"maxclass" : "message",
									"text" : "$1, $2 $3 $1 $4",
									"id" : "obj-43",
									"fontname" : "Arial",
									"numinlets" : 2,
									"numoutlets" : 1,
									"fontsize" : 12.0,
									"patching_rect" : [ 105.0, 225.0, 94.0, 18.0 ],
									"outlettype" : [ "" ]
								}

							}
, 							{
								"box" : 								{
									"maxclass" : "newobj",
									"text" : "cycle~",
									"id" : "obj-11",
									"fontname" : "Arial",
									"numinlets" : 2,
									"numoutlets" : 1,
									"fontsize" : 12.0,
									"patching_rect" : [ 105.0, 285.0, 45.0, 20.0 ],
									"outlettype" : [ "signal" ]
								}

							}
, 							{
								"box" : 								{
									"maxclass" : "newobj",
									"text" : "line~",
									"id" : "obj-10",
									"fontname" : "Arial",
									"numinlets" : 2,
									"numoutlets" : 2,
									"fontsize" : 12.0,
									"patching_rect" : [ 105.0, 255.0, 36.0, 20.0 ],
									"outlettype" : [ "signal", "bang" ]
								}

							}
, 							{
								"box" : 								{
									"maxclass" : "number",
									"id" : "obj-8",
									"fontname" : "Arial",
									"numinlets" : 1,
									"numoutlets" : 2,
									"fontsize" : 12.0,
									"patching_rect" : [ 90.0, 120.0, 50.0, 20.0 ],
									"outlettype" : [ "int", "bang" ]
								}

							}
, 							{
								"box" : 								{
									"maxclass" : "number",
									"id" : "obj-6",
									"fontname" : "Arial",
									"numinlets" : 1,
									"numoutlets" : 2,
									"fontsize" : 12.0,
									"patching_rect" : [ 150.0, 120.0, 50.0, 20.0 ],
									"outlettype" : [ "int", "bang" ]
								}

							}
, 							{
								"box" : 								{
									"maxclass" : "number",
									"id" : "obj-4",
									"fontname" : "Arial",
									"numinlets" : 1,
									"numoutlets" : 2,
									"fontsize" : 12.0,
									"patching_rect" : [ 210.0, 120.0, 50.0, 20.0 ],
									"outlettype" : [ "int", "bang" ]
								}

							}
, 							{
								"box" : 								{
									"maxclass" : "number",
									"id" : "obj-2",
									"fontname" : "Arial",
									"numinlets" : 1,
									"numoutlets" : 2,
									"fontsize" : 12.0,
									"patching_rect" : [ 30.0, 120.0, 50.0, 20.0 ],
									"outlettype" : [ "int", "bang" ]
								}

							}
 ],
						"lines" : [ 							{
								"patchline" : 								{
									"source" : [ "obj-41", 0 ],
									"destination" : [ "obj-3", 0 ],
									"hidden" : 0,
									"midpoints" : [  ]
								}

							}
, 							{
								"patchline" : 								{
									"source" : [ "obj-1", 0 ],
									"destination" : [ "obj-12", 0 ],
									"hidden" : 0,
									"midpoints" : [  ]
								}

							}
, 							{
								"patchline" : 								{
									"source" : [ "obj-44", 0 ],
									"destination" : [ "obj-43", 0 ],
									"hidden" : 0,
									"midpoints" : [  ]
								}

							}
, 							{
								"patchline" : 								{
									"source" : [ "obj-4", 0 ],
									"destination" : [ "obj-44", 3 ],
									"hidden" : 0,
									"midpoints" : [ 219.5, 180.0, 155.0, 180.0 ]
								}

							}
, 							{
								"patchline" : 								{
									"source" : [ "obj-6", 0 ],
									"destination" : [ "obj-44", 2 ],
									"hidden" : 0,
									"midpoints" : [ 159.5, 180.0, 141.5, 180.0 ]
								}

							}
, 							{
								"patchline" : 								{
									"source" : [ "obj-8", 0 ],
									"destination" : [ "obj-44", 1 ],
									"hidden" : 0,
									"midpoints" : [ 99.5, 180.0, 128.0, 180.0 ]
								}

							}
, 							{
								"patchline" : 								{
									"source" : [ "obj-2", 0 ],
									"destination" : [ "obj-44", 0 ],
									"hidden" : 0,
									"midpoints" : [ 39.5, 180.0, 114.5, 180.0 ]
								}

							}
, 							{
								"patchline" : 								{
									"source" : [ "obj-43", 0 ],
									"destination" : [ "obj-10", 0 ],
									"hidden" : 0,
									"midpoints" : [  ]
								}

							}
, 							{
								"patchline" : 								{
									"source" : [ "obj-10", 0 ],
									"destination" : [ "obj-11", 0 ],
									"hidden" : 0,
									"midpoints" : [  ]
								}

							}
, 							{
								"patchline" : 								{
									"source" : [ "obj-40", 0 ],
									"destination" : [ "obj-41", 1 ],
									"hidden" : 0,
									"midpoints" : [ 174.5, 315.0, 128.0, 315.0 ]
								}

							}
, 							{
								"patchline" : 								{
									"source" : [ "obj-11", 0 ],
									"destination" : [ "obj-41", 0 ],
									"hidden" : 0,
									"midpoints" : [  ]
								}

							}
, 							{
								"patchline" : 								{
									"source" : [ "obj-53", 1 ],
									"destination" : [ "obj-55", 0 ],
									"hidden" : 0,
									"midpoints" : [  ]
								}

							}
, 							{
								"patchline" : 								{
									"source" : [ "obj-55", 0 ],
									"destination" : [ "obj-40", 0 ],
									"hidden" : 0,
									"midpoints" : [ 339.5, 270.0, 174.5, 270.0 ]
								}

							}
, 							{
								"patchline" : 								{
									"source" : [ "obj-12", 0 ],
									"destination" : [ "obj-2", 0 ],
									"hidden" : 0,
									"midpoints" : [  ]
								}

							}
, 							{
								"patchline" : 								{
									"source" : [ "obj-12", 0 ],
									"destination" : [ "obj-8", 0 ],
									"hidden" : 0,
									"midpoints" : [ 39.5, 105.0, 99.5, 105.0 ]
								}

							}
, 							{
								"patchline" : 								{
									"source" : [ "obj-12", 0 ],
									"destination" : [ "obj-6", 0 ],
									"hidden" : 0,
									"midpoints" : [ 39.5, 105.0, 159.5, 105.0 ]
								}

							}
, 							{
								"patchline" : 								{
									"source" : [ "obj-12", 0 ],
									"destination" : [ "obj-4", 0 ],
									"hidden" : 0,
									"midpoints" : [ 39.5, 105.0, 219.5, 105.0 ]
								}

							}
, 							{
								"patchline" : 								{
									"source" : [ "obj-12", 0 ],
									"destination" : [ "obj-53", 0 ],
									"hidden" : 0,
									"midpoints" : [ 39.5, 105.0, 279.5, 105.0 ]
								}

							}
 ]
					}
,
					"saved_object_attributes" : 					{
						"default_fontname" : "Arial",
						"fontname" : "Arial",
						"default_fontsize" : 12.0,
						"globalpatchername" : "",
						"fontface" : 0,
						"fontsize" : 12.0,
						"default_fontface" : 0
					}

				}

			}
, 			{
				"box" : 				{
					"maxclass" : "comment",
					"text" : "AUDIO\nON/OFF",
					"linecount" : 2,
					"id" : "obj-24",
					"fontname" : "Arial",
					"numinlets" : 1,
					"numoutlets" : 0,
					"fontface" : 1,
					"fontsize" : 12.0,
					"patching_rect" : [ 210.0, 240.0, 56.0, 34.0 ]
				}

			}
, 			{
				"box" : 				{
					"maxclass" : "comment",
					"text" : "MSTR",
					"id" : "obj-22",
					"fontname" : "Arial",
					"numinlets" : 1,
					"numoutlets" : 0,
					"fontface" : 1,
					"fontsize" : 12.0,
					"patching_rect" : [ 150.0, 165.0, 43.0, 20.0 ]
				}

			}
, 			{
				"box" : 				{
					"maxclass" : "comment",
					"text" : "HH",
					"id" : "obj-20",
					"fontname" : "Arial",
					"numinlets" : 1,
					"numoutlets" : 0,
					"fontface" : 1,
					"fontsize" : 12.0,
					"patching_rect" : [ 105.0, 165.0, 28.0, 20.0 ]
				}

			}
, 			{
				"box" : 				{
					"maxclass" : "comment",
					"text" : "SD",
					"id" : "obj-18",
					"fontname" : "Arial",
					"numinlets" : 1,
					"numoutlets" : 0,
					"fontface" : 1,
					"fontsize" : 12.0,
					"patching_rect" : [ 75.0, 165.0, 28.0, 20.0 ]
				}

			}
, 			{
				"box" : 				{
					"maxclass" : "comment",
					"text" : "BD",
					"id" : "obj-16",
					"fontname" : "Arial",
					"numinlets" : 1,
					"numoutlets" : 0,
					"fontface" : 1,
					"fontsize" : 12.0,
					"patching_rect" : [ 45.0, 165.0, 30.0, 20.0 ]
				}

			}
, 			{
				"box" : 				{
					"maxclass" : "gain~",
					"id" : "obj-13",
					"numinlets" : 2,
					"numoutlets" : 2,
					"patching_rect" : [ 165.0, 195.0, 20.0, 140.0 ],
					"outlettype" : [ "signal", "int" ]
				}

			}
, 			{
				"box" : 				{
					"maxclass" : "gain~",
					"id" : "obj-9",
					"numinlets" : 2,
					"numoutlets" : 2,
					"patching_rect" : [ 105.0, 195.0, 20.0, 140.0 ],
					"outlettype" : [ "signal", "int" ]
				}

			}
, 			{
				"box" : 				{
					"maxclass" : "gain~",
					"id" : "obj-7",
					"numinlets" : 2,
					"numoutlets" : 2,
					"patching_rect" : [ 75.0, 195.0, 20.0, 140.0 ],
					"outlettype" : [ "signal", "int" ]
				}

			}
, 			{
				"box" : 				{
					"maxclass" : "gain~",
					"id" : "obj-5",
					"numinlets" : 2,
					"numoutlets" : 2,
					"patching_rect" : [ 45.0, 195.0, 20.0, 140.0 ],
					"outlettype" : [ "signal", "int" ]
				}

			}
, 			{
				"box" : 				{
					"maxclass" : "button",
					"id" : "obj-158",
					"numinlets" : 1,
					"numoutlets" : 1,
					"patching_rect" : [ 105.0, 45.0, 20.0, 20.0 ],
					"outlettype" : [ "bang" ]
				}

			}
, 			{
				"box" : 				{
					"maxclass" : "newobj",
					"text" : "metro 200",
					"id" : "obj-157",
					"fontname" : "Arial",
					"numinlets" : 2,
					"numoutlets" : 1,
					"fontsize" : 12.0,
					"patching_rect" : [ 210.0, 90.0, 65.0, 20.0 ],
					"outlettype" : [ "bang" ]
				}

			}
, 			{
				"box" : 				{
					"maxclass" : "newobj",
					"text" : "metro 800",
					"id" : "obj-156",
					"fontname" : "Arial",
					"numinlets" : 2,
					"numoutlets" : 1,
					"fontsize" : 12.0,
					"patching_rect" : [ 105.0, 90.0, 65.0, 20.0 ],
					"outlettype" : [ "bang" ]
				}

			}
, 			{
				"box" : 				{
					"maxclass" : "newobj",
					"text" : "metro 400",
					"id" : "obj-155",
					"fontname" : "Arial",
					"numinlets" : 2,
					"numoutlets" : 1,
					"fontsize" : 12.0,
					"patching_rect" : [ 15.0, 90.0, 65.0, 20.0 ],
					"outlettype" : [ "bang" ]
				}

			}
, 			{
				"box" : 				{
					"maxclass" : "ezdac~",
					"id" : "obj-14",
					"numinlets" : 2,
					"numoutlets" : 0,
					"patching_rect" : [ 210.0, 285.0, 45.0, 45.0 ]
				}

			}
 ],
		"lines" : [ 			{
				"patchline" : 				{
					"source" : [ "obj-42", 0 ],
					"destination" : [ "obj-157", 0 ],
					"hidden" : 0,
					"midpoints" : [ 144.5, 75.0, 219.5, 75.0 ]
				}

			}
, 			{
				"patchline" : 				{
					"source" : [ "obj-39", 0 ],
					"destination" : [ "obj-9", 0 ],
					"hidden" : 1,
					"midpoints" : [  ]
				}

			}
, 			{
				"patchline" : 				{
					"source" : [ "obj-38", 0 ],
					"destination" : [ "obj-7", 0 ],
					"hidden" : 1,
					"midpoints" : [  ]
				}

			}
, 			{
				"patchline" : 				{
					"source" : [ "obj-37", 0 ],
					"destination" : [ "obj-5", 0 ],
					"hidden" : 1,
					"midpoints" : [  ]
				}

			}
, 			{
				"patchline" : 				{
					"source" : [ "obj-157", 0 ],
					"destination" : [ "obj-39", 0 ],
					"hidden" : 0,
					"midpoints" : [  ]
				}

			}
, 			{
				"patchline" : 				{
					"source" : [ "obj-158", 0 ],
					"destination" : [ "obj-157", 0 ],
					"hidden" : 0,
					"midpoints" : [ 114.5, 75.0, 219.5, 75.0 ]
				}

			}
, 			{
				"patchline" : 				{
					"source" : [ "obj-5", 0 ],
					"destination" : [ "obj-13", 0 ],
					"hidden" : 1,
					"midpoints" : [  ]
				}

			}
, 			{
				"patchline" : 				{
					"source" : [ "obj-7", 0 ],
					"destination" : [ "obj-13", 0 ],
					"hidden" : 1,
					"midpoints" : [  ]
				}

			}
, 			{
				"patchline" : 				{
					"source" : [ "obj-9", 0 ],
					"destination" : [ "obj-13", 0 ],
					"hidden" : 1,
					"midpoints" : [  ]
				}

			}
, 			{
				"patchline" : 				{
					"source" : [ "obj-13", 0 ],
					"destination" : [ "obj-14", 1 ],
					"hidden" : 1,
					"midpoints" : [  ]
				}

			}
, 			{
				"patchline" : 				{
					"source" : [ "obj-13", 0 ],
					"destination" : [ "obj-14", 0 ],
					"hidden" : 1,
					"midpoints" : [  ]
				}

			}
, 			{
				"patchline" : 				{
					"source" : [ "obj-158", 0 ],
					"destination" : [ "obj-155", 0 ],
					"hidden" : 0,
					"midpoints" : [ 114.5, 75.0, 24.5, 75.0 ]
				}

			}
, 			{
				"patchline" : 				{
					"source" : [ "obj-155", 0 ],
					"destination" : [ "obj-37", 0 ],
					"hidden" : 0,
					"midpoints" : [  ]
				}

			}
, 			{
				"patchline" : 				{
					"source" : [ "obj-42", 0 ],
					"destination" : [ "obj-155", 0 ],
					"hidden" : 0,
					"midpoints" : [ 144.5, 75.0, 24.5, 75.0 ]
				}

			}
, 			{
				"patchline" : 				{
					"source" : [ "obj-158", 0 ],
					"destination" : [ "obj-156", 0 ],
					"hidden" : 0,
					"midpoints" : [  ]
				}

			}
, 			{
				"patchline" : 				{
					"source" : [ "obj-156", 0 ],
					"destination" : [ "obj-38", 0 ],
					"hidden" : 0,
					"midpoints" : [  ]
				}

			}
, 			{
				"patchline" : 				{
					"source" : [ "obj-42", 0 ],
					"destination" : [ "obj-156", 0 ],
					"hidden" : 0,
					"midpoints" : [ 144.5, 75.0, 114.5, 75.0 ]
				}

			}
 ]
	}

}
