#N canvas 162 44 1052 619 10;
#X obj 485 221 dp_bjorklund;
#X obj 623 363 list length;
#X obj 485 416 iter;
#X obj 485 336 t l b l;
#X obj 663 393 s \$0-sequence-length;
#X obj 138 276 r \$0-sequence-length;
#X obj 435 51 inlet;
#X obj 55 381 tabread \$1;
#X obj 485 466 tabwrite \$1;
#X obj 623 433 pack s 0;
#X msg 623 453 \; \$1 resize \$2;
#X obj 623 413 symbol \$1;
#X obj 623 393 t b f;
#X obj 485 276 list-rot;
#X obj 530 316 list-rev;
#X obj 566 221 + 1;
#X obj 548 436 f 0;
#X obj 578 436 + 1;
#X msg 563 416 0;
#X text 483 500 Write to array;
#X text 621 500 Trigger resize event;
#X obj 55 281 metro 155;
#X obj 106 261 / 1;
#X obj 55 261 t f b;
#X obj 462 161 unpack f f f f f;
#X text 382 23 length \, pulses \, steps \, rotation \, reverse;
#X obj 55 321 f 0;
#X obj 85 321 + 1;
#X msg 82 301 0;
#X obj 55 351 % 1;
#X obj 435 77 t b l;
#X obj 106 181 r \$2-transport-tempo;
#X obj 55 161 r \$2-transport-power;
#X obj 435 541 s \$2-transport-reset;
#X obj 55 451 s \$1-event;
#X obj 485 436 t f b;
#X obj 58 47 inlet;
#X text 56 19 Sequence;
#X obj 462 181 s \$0-bar-length;
#X obj 121 211 r \$0-bar-length;
#X obj 58 77 s \$0-raw-sequence;
#X obj 571 281 r \$0-raw-sequence;
#X obj 140 301 t b f;
#X obj 485 296 gate 2 1;
#X obj 106 231 * 1;
#X obj 677 160 s \$1-parameters;
#X obj 154 245 s \$1-interval;
#X obj 130 451 outlet;
#X obj 130 421 sel 1;
#X connect 0 0 13 0;
#X connect 1 0 4 0;
#X connect 1 0 12 0;
#X connect 2 0 35 0;
#X connect 3 0 2 0;
#X connect 3 1 18 0;
#X connect 3 2 1 0;
#X connect 5 0 29 1;
#X connect 5 0 42 0;
#X connect 6 0 30 0;
#X connect 7 0 34 0;
#X connect 7 0 48 0;
#X connect 9 0 10 0;
#X connect 11 0 9 0;
#X connect 12 0 11 0;
#X connect 12 1 9 1;
#X connect 13 0 43 1;
#X connect 14 0 3 0;
#X connect 15 0 43 0;
#X connect 16 0 17 0;
#X connect 16 0 8 1;
#X connect 17 0 16 1;
#X connect 18 0 16 1;
#X connect 21 0 26 0;
#X connect 22 0 21 1;
#X connect 22 0 46 0;
#X connect 23 0 21 0;
#X connect 23 1 28 0;
#X connect 24 0 38 0;
#X connect 24 1 0 0;
#X connect 24 2 0 1;
#X connect 24 3 13 1;
#X connect 24 4 15 0;
#X connect 26 0 27 0;
#X connect 26 0 29 0;
#X connect 27 0 26 1;
#X connect 28 0 26 1;
#X connect 29 0 7 0;
#X connect 30 0 33 0;
#X connect 30 1 24 0;
#X connect 30 1 45 0;
#X connect 31 0 44 0;
#X connect 32 0 23 0;
#X connect 35 0 8 0;
#X connect 35 1 16 0;
#X connect 36 0 40 0;
#X connect 39 0 44 1;
#X connect 41 0 13 0;
#X connect 42 0 44 0;
#X connect 42 1 22 1;
#X connect 43 0 3 0;
#X connect 43 1 14 0;
#X connect 44 0 22 0;
#X connect 48 0 47 0;
