#N canvas 0 264 1083 800 10;
#X obj 283 656 clip~ -1 1;
#X obj 191 591 * -1;
#X obj 133 686 /~;
#X obj 283 686 /~;
#X obj 534 55 inlet;
#X obj 444 55 inlet;
#X obj 624 55 inlet;
#X obj 73 55 inlet~;
#X obj 133 956 outlet~;
#X obj 283 956 outlet~;
#X obj 133 175 *~ 1;
#X obj 148 75 phasor~ 0;
#X text 622 33 Clip (0...1);
#X obj 148 886 inlet~;
#X obj 298 886 inlet~;
#X obj 133 906 +~;
#X obj 283 906 +~;
#X obj 73 95 outlet~;
#X obj 444 125 outlet;
#X obj 534 125 outlet;
#X obj 624 125 outlet;
#X text 442 33 Ratio;
#X text 532 33 Modulation;
#X obj 133 95 +~;
#X obj 714 55 inlet;
#X obj 714 125 outlet;
#X obj 283 836 *~ 0.5;
#X obj 133 836 *~ 0.5;
#X obj 464 89 s \$0-ratio;
#X obj 154 155 r \$0-ratio;
#X obj 554 89 s \$0-mod;
#X obj 148 55 r \$0-mod;
#X obj 644 89 s \$0-clip;
#X obj 161 521 r \$0-clip;
#X text 71 32 Fundamental;
#X obj 183 448 cos~;
#X obj 133 326 +~;
#X obj 804 55 inlet;
#X obj 283 326 +~;
#X obj 804 125 outlet;
#X obj 316 776 t b f;
#X msg 316 796 1;
#X obj 316 816 - 1;
#X obj 166 776 t f f;
#X text 712 33 Mix (0...1);
#X obj 734 89 s \$0-mix;
#X obj 166 756 r \$0-mix;
#X obj 191 611 t f f;
#X obj 161 541 expr 1.2-$f1;
#X obj 298 611 t f f;
#X obj 148 611 t f f;
#X obj 133 656 clip~ -1 1;
#X obj 161 561 t f f f;
#X text 353 596 Move between sine wave & square wave;
#X text 372 807 Mix between the two waveforms;
#X text 353 387 Two sine waves \, half a cycle out of phase;
#X obj 298 256 t b f;
#X msg 298 276 1;
#X obj 298 296 - 1;
#X obj 148 256 t f f;
#X text 343 286 Shift the waves phase by a fine tune amount;
#X obj 148 236 r \$0-phase;
#X obj 824 89 s \$0-phase;
#X obj 611 479 loadbang;
#X msg 611 589 \; \$1-waveform normalize 1 \;;
#X obj 611 519 t f f;
#X obj 611 499 f \$0;
#X obj 133 448 tabread4~ \$0-waveform;
#X obj 283 448 tabread4~ \$0-waveform;
#X obj 133 428 *~ 2048;
#X obj 283 428 *~ 2048;
#X msg 658 539 \; \$1-waveform sinesum 2048 1 0 -0.111111 0 0.04 0
-0.204082 0 0.0123457 0 -0.00826446 0;
#X obj 647 223 table \$0-waveform 2048;
#X msg 638 629 \; \$1-waveform sinesum 2048 1;
#X obj 283 408 wrap~ 1 0;
#X obj 681 439 bng 15 250 50 0 empty empty empty 17 7 0 10 -262144
-1 -1;
#X obj 283 388 +~ 0.25;
#X obj 133 408 wrap~ 1 0;
#X msg 737 416 \; \$1-waveform sinesum 2048 1 0.5 0.333333 0.25 0.2
0.166667 0.142857 0.125 0.111111 0.1 0.090909 0.833333 0.076923;
#X connect 0 0 3 0;
#X connect 1 0 47 0;
#X connect 2 0 27 0;
#X connect 3 0 26 0;
#X connect 4 0 30 0;
#X connect 4 0 19 0;
#X connect 5 0 28 0;
#X connect 5 0 18 0;
#X connect 6 0 32 0;
#X connect 6 0 20 0;
#X connect 7 0 17 0;
#X connect 7 0 23 0;
#X connect 10 0 36 0;
#X connect 10 0 38 0;
#X connect 11 0 23 1;
#X connect 13 0 15 1;
#X connect 14 0 16 1;
#X connect 15 0 8 0;
#X connect 16 0 9 0;
#X connect 23 0 10 0;
#X connect 24 0 25 0;
#X connect 24 0 45 0;
#X connect 26 0 16 0;
#X connect 27 0 15 0;
#X connect 29 0 10 1;
#X connect 31 0 11 0;
#X connect 33 0 48 0;
#X connect 36 0 77 0;
#X connect 37 0 39 0;
#X connect 37 0 62 0;
#X connect 38 0 76 0;
#X connect 40 0 41 0;
#X connect 40 1 42 1;
#X connect 41 0 42 0;
#X connect 42 0 26 1;
#X connect 43 0 27 1;
#X connect 43 1 40 0;
#X connect 46 0 43 0;
#X connect 47 0 51 1;
#X connect 47 1 0 1;
#X connect 48 0 52 0;
#X connect 49 0 3 1;
#X connect 49 1 0 2;
#X connect 50 0 2 1;
#X connect 50 1 51 2;
#X connect 51 0 2 0;
#X connect 52 0 1 0;
#X connect 52 1 50 0;
#X connect 52 2 49 0;
#X connect 56 0 57 0;
#X connect 56 1 58 1;
#X connect 57 0 58 0;
#X connect 58 0 38 1;
#X connect 59 0 36 1;
#X connect 59 1 56 0;
#X connect 61 0 59 0;
#X connect 63 0 66 0;
#X connect 65 0 64 0;
#X connect 65 1 78 0;
#X connect 66 0 65 0;
#X connect 67 0 51 0;
#X connect 68 0 0 0;
#X connect 69 0 67 0;
#X connect 70 0 68 0;
#X connect 74 0 70 0;
#X connect 75 0 66 0;
#X connect 76 0 74 0;
#X connect 77 0 69 0;
