#N canvas 501 24 601 500 10;
#X obj 416 54 vsl 15 128 0 2 0 0 empty empty empty 0 -9 0 10 -262144
-1 -1 0 1;
#N canvas 714 90 501 550 scope 0;
#X obj 81 279 gemhead;
#X msg 151 276 draw point;
#X obj 178 302 *~;
#X obj 205 303 *~;
#X obj 151 325 scopeXYZ~ 1024;
#X obj 212 163 gemwin;
#X msg 212 140 create \, 1;
#X obj 81 302 color 0 1 0;
#X obj 323 139 vsl 15 128 0 2 0 0 empty empty empty 0 -9 0 10 -262144
-1 -1 6350 1;
#X obj 206 71 loadbang;
#X text 317 120 size;
#X msg 238 94 1;
#X obj 238 117 dsp;
#X obj 63 42 inlet~;
#X obj 109 42 inlet~;
#X obj 323 47 inlet;
#X msg 209 210 draw linestrip;
#X obj 167 45 route 0 1;
#X obj 167 22 inlet;
#X obj 262 25 bng 15 250 50 0 empty empty empty 17 7 0 10 -262144 -1
-1;
#X obj 66 449 outlet~;
#X obj 123 449 outlet~;
#X connect 0 0 7 0;
#X connect 1 0 4 0;
#X connect 2 0 4 1;
#X connect 3 0 4 2;
#X connect 6 0 5 0;
#X connect 7 0 4 0;
#X connect 8 0 3 1;
#X connect 8 0 2 1;
#X connect 9 0 6 0;
#X connect 9 0 1 0;
#X connect 9 0 11 0;
#X connect 11 0 8 0;
#X connect 11 0 12 0;
#X connect 13 0 2 0;
#X connect 13 0 20 0;
#X connect 14 0 3 0;
#X connect 14 0 21 0;
#X connect 15 0 8 0;
#X connect 16 0 4 0;
#X connect 17 0 1 0;
#X connect 17 1 16 0;
#X connect 18 0 17 0;
#X connect 19 0 1 0;
#X connect 19 0 6 0;
#X connect 19 0 11 0;
#X restore 352 194 pd scope;
#X obj 382 170 hradio 15 1 0 2 empty empty empty 0 -8 0 10 -262144
-1 -1 0;
#X obj 34 33 lissajous-synth;
#X obj 356 299 dac~;
#X obj 401 248 *~ 0.02;
#X obj 351 248 *~ 0.02;
#X connect 0 0 1 3;
#X connect 1 0 6 0;
#X connect 1 1 5 0;
#X connect 2 0 1 2;
#X connect 3 0 1 0;
#X connect 3 1 1 1;
#X connect 5 0 4 1;
#X connect 6 0 4 0;
