#N canvas 817 96 190 358 10;
#X obj 37 136 t f b f;
#X obj 37 44 inlet;
#X obj 109 44 inlet;
#X text 28 24 Retrieve;
#X text 106 21 Reset;
#X obj 37 300 outlet;
#X obj 109 94 t f b;
#X obj 52 80 r \$0-f;
#X obj 37 244 s \$0-f;
#X text 35 324 Fibonacci;
#X obj 37 215 +;
#X obj 37 111 i 0;
#X obj 37 177 i 1;
#X obj 109 69 i 0;
#X obj 136 160 i 1;
#X obj 37 269 r \$0-f;
#X connect 0 0 12 1;
#X connect 0 1 12 0;
#X connect 0 2 10 1;
#X connect 1 0 11 0;
#X connect 2 0 13 0;
#X connect 6 0 11 1;
#X connect 6 1 14 0;
#X connect 7 0 11 1;
#X connect 10 0 8 0;
#X connect 11 0 0 0;
#X connect 12 0 10 0;
#X connect 13 0 6 0;
#X connect 14 0 12 1;
#X connect 15 0 5 0;
