#N canvas 735 165 306 300 10;
#X obj -3 182 random;
#X obj 69 225 +;
#X obj 30 158 -;
#X obj -3 66 inlet;
#X obj 84 64 inlet;
#X obj 168 62 inlet;
#X obj 69 248 outlet;
#X obj 168 83 + 1;
#X obj 30 114 t b f;
#X text -5 41 Bang;
#X text 67 40 Lower Limit;
#X text 154 39 Upper Limit;
#X connect 0 0 1 0;
#X connect 1 0 6 0;
#X connect 2 0 0 1;
#X connect 3 0 0 0;
#X connect 4 0 1 1;
#X connect 4 0 8 0;
#X connect 5 0 7 0;
#X connect 7 0 2 0;
#X connect 8 0 2 0;
#X connect 8 1 2 1;
