{
	"patcher" : 	{
		"fileversion" : 1,
		"rect" : [ 78.0, 69.0, 640.0, 506.0 ],
		"bglocked" : 0,
		"defrect" : [ 78.0, 69.0, 640.0, 506.0 ],
		"openrect" : [ 0.0, 0.0, 0.0, 0.0 ],
		"openinpresentation" : 0,
		"default_fontsize" : 10.0,
		"default_fontface" : 0,
		"default_fontname" : "Arial",
		"gridonopen" : 0,
		"gridsize" : [ 15.0, 15.0 ],
		"gridsnaponopen" : 0,
		"toolbarvisible" : 1,
		"boxanimatetime" : 200,
		"imprint" : 0,
		"metadata" : [  ],
		"boxes" : [ 			{
				"box" : 				{
					"maxclass" : "outlet",
					"numinlets" : 1,
					"patching_rect" : [ 90.0, 135.0, 25.0, 25.0 ],
					"id" : "obj-3",
					"numoutlets" : 0,
					"comment" : "BPM (Float)"
				}

			}
, 			{
				"box" : 				{
					"maxclass" : "outlet",
					"numinlets" : 1,
					"patching_rect" : [ 15.0, 135.0, 25.0, 25.0 ],
					"id" : "obj-2",
					"numoutlets" : 0,
					"comment" : "On/Off (Toggle)"
				}

			}
, 			{
				"box" : 				{
					"maxclass" : "inlet",
					"numinlets" : 0,
					"patching_rect" : [ 15.0, 15.0, 25.0, 25.0 ],
					"id" : "obj-1",
					"numoutlets" : 1,
					"outlettype" : [ "" ],
					"comment" : "Toggle"
				}

			}
, 			{
				"box" : 				{
					"maxclass" : "comment",
					"text" : "BPM",
					"numinlets" : 1,
					"patching_rect" : [ 120.0, 135.0, 39.0, 18.0 ],
					"id" : "obj-23",
					"numoutlets" : 0,
					"fontname" : "Arial",
					"fontsize" : 10.0
				}

			}
, 			{
				"box" : 				{
					"maxclass" : "comment",
					"text" : "On/Off",
					"numinlets" : 1,
					"patching_rect" : [ 45.0, 135.0, 44.0, 18.0 ],
					"id" : "obj-21",
					"numoutlets" : 0,
					"fontname" : "Arial",
					"fontsize" : 10.0
				}

			}
, 			{
				"box" : 				{
					"maxclass" : "newobj",
					"text" : "change",
					"numinlets" : 1,
					"patching_rect" : [ 15.0, 105.0, 46.0, 18.0 ],
					"id" : "obj-15",
					"numoutlets" : 3,
					"fontname" : "Arial",
					"outlettype" : [ "", "int", "int" ],
					"fontsize" : 10.0
				}

			}
, 			{
				"box" : 				{
					"maxclass" : "newobj",
					"text" : "metro 5",
					"numinlets" : 2,
					"patching_rect" : [ 15.0, 45.0, 44.0, 18.0 ],
					"id" : "obj-7",
					"numoutlets" : 1,
					"fontname" : "Arial",
					"outlettype" : [ "bang" ],
					"fontsize" : 10.0
				}

			}
, 			{
				"box" : 				{
					"maxclass" : "newobj",
					"text" : "hostsync~",
					"numinlets" : 1,
					"patching_rect" : [ 15.0, 75.0, 154.5, 18.0 ],
					"id" : "obj-4",
					"numoutlets" : 10,
					"fontname" : "Arial",
					"outlettype" : [ "int", "int", "int", "float", "list", "float", "float", "int", "list", "int" ],
					"fontsize" : 10.0
				}

			}
 ],
		"lines" : [ 			{
				"patchline" : 				{
					"source" : [ "obj-4", 5 ],
					"destination" : [ "obj-3", 0 ],
					"hidden" : 0,
					"midpoints" : [  ]
				}

			}
, 			{
				"patchline" : 				{
					"source" : [ "obj-15", 0 ],
					"destination" : [ "obj-2", 0 ],
					"hidden" : 0,
					"midpoints" : [  ]
				}

			}
, 			{
				"patchline" : 				{
					"source" : [ "obj-1", 0 ],
					"destination" : [ "obj-7", 0 ],
					"hidden" : 0,
					"midpoints" : [  ]
				}

			}
, 			{
				"patchline" : 				{
					"source" : [ "obj-7", 0 ],
					"destination" : [ "obj-4", 0 ],
					"hidden" : 0,
					"midpoints" : [  ]
				}

			}
, 			{
				"patchline" : 				{
					"source" : [ "obj-4", 0 ],
					"destination" : [ "obj-15", 0 ],
					"hidden" : 0,
					"midpoints" : [  ]
				}

			}
 ]
	}

}
