#N canvas 151 22 1366 720 10;
#X obj 291 437 *~;
#X obj 42 515 outlet~;
#X obj 272 52 r track_\$1;
#X obj 49 123 inlet~;
#X obj 55 433 +~;
#X obj 127 354 click~;
#X obj 123 299 sel 1;
#X obj 232 306 phasor~ \$2;
#X obj 243 356 *~ 2;
#X obj 243 392 -~ 1;
#X obj 292 462 *~ 0.25;
#X obj 298 161 sel 1;
#X obj 235 334 cos~;
#X obj 233 267 *~;
#X obj 476 168 f \$2;
#X obj 477 136 loadbang;
#X obj 474 201 * 2;
#X obj 229 220 ead~ 2 10;
#X obj 531 327 vline~;
#X obj 545 401 *~;
#X obj 547 426 cos~;
#X obj 464 406 *~;
#X obj 412 477 *~;
#X obj 375 362 ead~ 0 50;
#X msg 521 281 1 \, 0 50 0;
#X obj 550 365 *~ 2;
#X text 616 363 Phase locked kickdrum?;
#X connect 0 0 10 0;
#X connect 2 0 6 0;
#X connect 2 0 11 0;
#X connect 3 0 4 1;
#X connect 4 0 1 0;
#X connect 6 0 5 0;
#X connect 7 0 12 0;
#X connect 8 0 9 0;
#X connect 9 0 0 0;
#X connect 11 0 17 0;
#X connect 11 0 24 0;
#X connect 11 0 23 0;
#X connect 12 0 8 0;
#X connect 13 0 7 0;
#X connect 14 0 16 0;
#X connect 15 0 14 0;
#X connect 16 0 13 1;
#X connect 17 0 13 0;
#X connect 18 0 21 0;
#X connect 18 0 25 0;
#X connect 19 0 20 0;
#X connect 20 0 21 1;
#X connect 21 0 22 1;
#X connect 22 0 4 0;
#X connect 23 0 0 1;
#X connect 23 0 22 0;
#X connect 24 0 18 0;
#X connect 25 0 19 0;
#X connect 25 0 19 1;
