#N canvas 780 80 320 354 10;
#X obj 23 120 sel 1;
#X obj 23 243 makenote;
#X obj 23 166 f;
#X obj 23 25 r \$1-n\$2;
#X obj 48 45 r \$1-k\$2;
#X obj 74 65 r \$1-o\$2;
#X obj 38 145 r \$1-p\$2;
#X obj 45 195 r \$1-v\$2;
#X obj 68 215 r \$1-d\$2;
#X obj 97 243 r \$1-c\$2;
#X obj 167 22 loadbang;
#X obj 167 82 f \$1;
#X obj 167 52 t b b;
#X obj 207 82 f \$2;
#N canvas 545 118 659 561 rhythm 1;
#N canvas 128 394 296 295 subdiv 0;
#X obj 106 75 traninfo;
#X obj 136 146 /;
#X obj 39 75 tranlength;
#X obj 73 99 sel 0;
#X obj 73 194 counter;
#X obj 161 146 - 1;
#X obj 73 146 f 1;
#X obj 73 170 metro 10000;
#X obj 73 121 t b b;
#X obj 73 228 outlet;
#X obj 164 75 t b f f;
#X obj 164 42 inlet;
#X connect 0 0 6 1;
#X connect 0 2 1 0;
#X connect 1 0 7 1;
#X connect 2 3 3 0;
#X connect 3 0 8 0;
#X connect 4 0 9 0;
#X connect 5 0 4 4;
#X connect 6 0 7 0;
#X connect 7 0 4 0;
#X connect 8 0 6 0;
#X connect 8 1 4 2;
#X connect 10 0 1 0;
#X connect 10 1 1 1;
#X connect 10 2 5 0;
#X connect 11 0 10 0;
#X restore 79 129 pd subdiv;
#X obj 106 185 sel 0;
#X obj 106 210 onebang;
#X obj 145 185 t b l;
#X obj 151 241 list;
#X obj 79 432 tabread \$0-prhythm_seq;
#N canvas 0 22 450 300 highlow 0;
#X obj 169 112 >;
#X obj 93 173 f;
#X obj 120 173 f;
#X obj 107 220 outlet;
#X obj 129 146 sel 1 0;
#X obj 192 48 inlet;
#X obj 117 49 inlet;
#X obj 179 177 f;
#X obj 206 177 f;
#X obj 194 77 t b f f f;
#X obj 121 76 t f f f;
#X obj 190 143 sel 0 1;
#X obj 190 222 outlet;
#X text 99 244 high;
#X text 192 246 low;
#X connect 0 0 4 0;
#X connect 0 0 11 0;
#X connect 1 0 3 0;
#X connect 2 0 3 0;
#X connect 4 0 1 0;
#X connect 4 1 2 0;
#X connect 5 0 9 0;
#X connect 6 0 10 0;
#X connect 7 0 12 0;
#X connect 8 0 12 0;
#X connect 9 0 0 0;
#X connect 9 1 0 1;
#X connect 9 2 2 1;
#X connect 9 3 8 1;
#X connect 10 0 0 0;
#X connect 10 1 1 1;
#X connect 10 2 7 1;
#X connect 11 0 7 0;
#X connect 11 1 8 0;
#X restore 126 66 pd highlow;
#X text 87 65 steps;
#X text 197 64 pulses;
#X obj 132 324 iter;
#X obj 159 372 counter;
#X obj 132 347 t f b;
#X obj 151 297 t l b;
#X obj 79 158 t f f;
#X obj 79 470 outlet;
#X obj 126 33 inlet;
#X obj 183 33 inlet;
#X obj 132 406 tabwrite \$0-prhythm_seq;
#X obj 229 167 pack;
#X obj 229 147 f \$0;
#X obj 229 127 t b f;
#X msg 229 190 \; \$1-prhythm_seq resize \$2;
#X obj 229 107 max 1;
#X obj 223 241 table \$0-prhythm_seq;
#X obj 151 270 zl rot;
#X obj 393 173 min 3;
#X obj 393 223 max 0;
#X obj 393 145 f;
#X obj 393 107 t b f;
#X obj 126 90 t f f f f;
#X obj 393 33 inlet;
#X text 272 159 resize array;
#X text 403 196 make sure offset is within steps;
#X text 181 155 list;
#X text 50 158 pos;
#X text 37 129 clock;
#X text 433 33 offset;
#X text 219 33 n;
#X text 165 33 k;
#X text 126 470 1||0;
#X obj 393 253 t b f;
#X obj 145 155 list;
#X obj 145 129 dp_bjorklund;
#X connect 0 0 13 0;
#X connect 1 0 2 0;
#X connect 2 0 4 0;
#X connect 3 0 2 1;
#X connect 3 1 4 1;
#X connect 4 0 24 0;
#X connect 5 0 14 0;
#X connect 6 0 29 0;
#X connect 6 1 42 1;
#X connect 9 0 11 0;
#X connect 10 0 17 1;
#X connect 11 0 17 0;
#X connect 11 1 10 0;
#X connect 12 0 9 0;
#X connect 12 1 10 2;
#X connect 13 0 5 0;
#X connect 13 1 1 0;
#X connect 15 0 6 0;
#X connect 16 0 6 1;
#X connect 18 0 21 0;
#X connect 19 0 18 0;
#X connect 20 0 19 0;
#X connect 20 1 18 1;
#X connect 22 0 20 0;
#X connect 24 0 12 0;
#X connect 25 0 26 0;
#X connect 26 0 40 0;
#X connect 27 0 25 0;
#X connect 28 0 27 0;
#X connect 28 1 25 1;
#X connect 29 0 0 0;
#X connect 29 1 42 0;
#X connect 29 2 22 0;
#X connect 29 3 28 0;
#X connect 30 0 27 0;
#X connect 40 0 41 0;
#X connect 40 1 24 1;
#X connect 41 0 3 0;
#X connect 42 0 41 0;
#X restore 23 94 pd rhythm;
#X obj 40 279 pack f f f;
#X obj 40 310 outlet;
#X obj 244 112 + 47;
#X obj 167 111 pack f f f;
#X msg 167 139 \; \$1-n\$2_set 4 \; \$1-k\$2_set 8 \; \$1-o\$2_set
0 \; \$1-p\$2_set \$3 \; \$1-v\$2_set 127 \; \$1-d\$2_set 100 \; \$1-c\$2_set
\$2 \;;
#X connect 0 0 2 0;
#X connect 1 0 15 0;
#X connect 1 1 15 1;
#X connect 2 0 1 0;
#X connect 3 0 14 0;
#X connect 4 0 14 1;
#X connect 5 0 14 2;
#X connect 6 0 2 1;
#X connect 7 0 1 1;
#X connect 8 0 1 2;
#X connect 9 0 15 2;
#X connect 10 0 12 0;
#X connect 11 0 18 0;
#X connect 12 0 11 0;
#X connect 12 1 13 0;
#X connect 13 0 17 0;
#X connect 13 0 18 1;
#X connect 14 0 0 0;
#X connect 15 0 16 0;
#X connect 17 0 18 2;
#X connect 18 0 19 0;
