#N canvas 490 169 428 500 10;
#X obj 166 340 line~;
#X obj 127 210 / 44.1;
#X obj 127 170 t f f;
#X obj 166 260 pack 0 0;
#X msg 127 300 stop;
#X obj 54 260 t b b;
#X obj 46 450 outlet~;
#X obj 166 360 tabread4~ \$1;
#X obj 127 150 arraysize \$1;
#X obj 54 40 inlet stop;
#X obj 127 40 inlet start;
#X msg 54 300 \; pd dsp 0 \;;
#X msg 154 110 \; pd dsp 1 \;;
#X obj 127 80 t b b;
#X obj 127 260 del;
#X msg 166 300 0 \, \$2 \$1;
#X obj 127 230 t f f;
#X obj 16 380 inlet~;
#X obj 46 420 +~;
#X connect 0 0 7 0;
#X connect 1 0 16 0;
#X connect 2 0 1 0;
#X connect 2 1 3 1;
#X connect 3 0 15 0;
#X connect 4 0 0 0;
#X connect 5 0 11 0;
#X connect 5 1 4 0;
#X connect 7 0 18 0;
#X connect 8 0 2 0;
#X connect 9 0 5 0;
#X connect 10 0 13 0;
#X connect 13 0 8 0;
#X connect 13 1 12 0;
#X connect 14 0 11 0;
#X connect 15 0 0 0;
#X connect 16 0 14 0;
#X connect 16 1 3 0;
#X connect 17 0 18 1;
#X connect 18 0 6 0;
