{
	"patcher" : 	{
		"fileversion" : 1,
		"rect" : [ 49.0, 44.0, 1231.0, 730.0 ],
		"bglocked" : 0,
		"defrect" : [ 49.0, 44.0, 1231.0, 730.0 ],
		"openrect" : [ 0.0, 0.0, 0.0, 0.0 ],
		"openinpresentation" : 1,
		"default_fontsize" : 10.0,
		"default_fontface" : 0,
		"default_fontname" : "Arial",
		"gridonopen" : 0,
		"gridsize" : [ 15.0, 15.0 ],
		"gridsnaponopen" : 0,
		"toolbarvisible" : 1,
		"boxanimatetime" : 200,
		"imprint" : 0,
		"metadata" : [  ],
		"boxes" : [ 			{
				"box" : 				{
					"maxclass" : "newobj",
					"text" : "loadmess 0",
					"numinlets" : 1,
					"numoutlets" : 1,
					"fontsize" : 10.0,
					"id" : "obj-8",
					"outlettype" : [ "" ],
					"patching_rect" : [ 65.0, 183.0, 62.0, 18.0 ],
					"fontname" : "Arial"
				}

			}
, 			{
				"box" : 				{
					"maxclass" : "newobj",
					"text" : "loadmess 0",
					"numinlets" : 1,
					"numoutlets" : 1,
					"fontsize" : 10.0,
					"id" : "obj-7",
					"outlettype" : [ "" ],
					"patching_rect" : [ 345.0, 132.0, 62.0, 18.0 ],
					"fontname" : "Arial"
				}

			}
, 			{
				"box" : 				{
					"maxclass" : "newobj",
					"text" : "loadmess 1",
					"numinlets" : 1,
					"numoutlets" : 1,
					"fontsize" : 10.0,
					"id" : "obj-6",
					"outlettype" : [ "" ],
					"patching_rect" : [ 19.0, 273.0, 62.0, 18.0 ],
					"fontname" : "Arial"
				}

			}
, 			{
				"box" : 				{
					"maxclass" : "outlet",
					"numinlets" : 1,
					"numoutlets" : 0,
					"id" : "obj-4",
					"patching_rect" : [ 161.0, 376.0, 25.0, 25.0 ],
					"comment" : ""
				}

			}
, 			{
				"box" : 				{
					"maxclass" : "inlet",
					"numinlets" : 0,
					"numoutlets" : 1,
					"id" : "obj-2",
					"outlettype" : [ "" ],
					"patching_rect" : [ 292.0, 163.0, 25.0, 25.0 ],
					"comment" : ""
				}

			}
, 			{
				"box" : 				{
					"maxclass" : "outlet",
					"numinlets" : 1,
					"numoutlets" : 0,
					"id" : "obj-135",
					"patching_rect" : [ 30.0, 420.0, 25.0, 25.0 ],
					"comment" : ""
				}

			}
, 			{
				"box" : 				{
					"maxclass" : "inlet",
					"numinlets" : 0,
					"numoutlets" : 1,
					"id" : "obj-134",
					"outlettype" : [ "" ],
					"patching_rect" : [ 165.0, 150.0, 25.0, 25.0 ],
					"comment" : ""
				}

			}
, 			{
				"box" : 				{
					"maxclass" : "inlet",
					"numinlets" : 0,
					"numoutlets" : 1,
					"id" : "obj-133",
					"outlettype" : [ "" ],
					"patching_rect" : [ 150.0, 30.0, 25.0, 25.0 ],
					"comment" : ""
				}

			}
, 			{
				"box" : 				{
					"maxclass" : "inlet",
					"numinlets" : 0,
					"numoutlets" : 1,
					"id" : "obj-132",
					"outlettype" : [ "" ],
					"patching_rect" : [ 90.0, 225.0, 25.0, 25.0 ],
					"comment" : ""
				}

			}
, 			{
				"box" : 				{
					"maxclass" : "newobj",
					"text" : "t b",
					"numinlets" : 1,
					"numoutlets" : 1,
					"fontsize" : 10.0,
					"id" : "obj-123",
					"outlettype" : [ "bang" ],
					"patching_rect" : [ 165.0, 210.0, 22.0, 18.0 ],
					"fontname" : "Arial"
				}

			}
, 			{
				"box" : 				{
					"maxclass" : "message",
					"text" : "16.",
					"numinlets" : 2,
					"numoutlets" : 1,
					"fontsize" : 10.0,
					"id" : "obj-122",
					"outlettype" : [ "" ],
					"patching_rect" : [ 420.0, 240.0, 32.5, 16.0 ],
					"fontname" : "Arial"
				}

			}
, 			{
				"box" : 				{
					"maxclass" : "message",
					"text" : "8.",
					"numinlets" : 2,
					"numoutlets" : 1,
					"fontsize" : 10.0,
					"id" : "obj-120",
					"outlettype" : [ "" ],
					"patching_rect" : [ 375.0, 240.0, 32.5, 16.0 ],
					"fontname" : "Arial"
				}

			}
, 			{
				"box" : 				{
					"maxclass" : "message",
					"text" : "6.",
					"numinlets" : 2,
					"numoutlets" : 1,
					"fontsize" : 10.0,
					"id" : "obj-118",
					"outlettype" : [ "" ],
					"patching_rect" : [ 330.0, 240.0, 32.5, 16.0 ],
					"fontname" : "Arial"
				}

			}
, 			{
				"box" : 				{
					"maxclass" : "message",
					"text" : "4.",
					"numinlets" : 2,
					"numoutlets" : 1,
					"fontsize" : 10.0,
					"id" : "obj-116",
					"outlettype" : [ "" ],
					"patching_rect" : [ 285.0, 240.0, 32.5, 16.0 ],
					"fontname" : "Arial"
				}

			}
, 			{
				"box" : 				{
					"maxclass" : "message",
					"text" : "2.",
					"numinlets" : 2,
					"numoutlets" : 1,
					"fontsize" : 10.0,
					"id" : "obj-114",
					"outlettype" : [ "" ],
					"patching_rect" : [ 240.0, 240.0, 32.5, 16.0 ],
					"fontname" : "Arial"
				}

			}
, 			{
				"box" : 				{
					"maxclass" : "message",
					"text" : "1.",
					"numinlets" : 2,
					"numoutlets" : 1,
					"fontsize" : 10.0,
					"id" : "obj-112",
					"outlettype" : [ "" ],
					"patching_rect" : [ 195.0, 240.0, 32.5, 16.0 ],
					"fontname" : "Arial"
				}

			}
, 			{
				"box" : 				{
					"maxclass" : "newobj",
					"text" : "select 0 1 2 3 4 5",
					"numinlets" : 1,
					"numoutlets" : 7,
					"fontsize" : 10.0,
					"id" : "obj-110",
					"outlettype" : [ "bang", "bang", "bang", "bang", "bang", "bang", "" ],
					"patching_rect" : [ 195.0, 210.0, 289.0, 18.0 ],
					"fontname" : "Arial"
				}

			}
, 			{
				"box" : 				{
					"maxclass" : "umenu",
					"numinlets" : 1,
					"numoutlets" : 3,
					"fontsize" : 10.0,
					"id" : "obj-109",
					"outlettype" : [ "int", "", "" ],
					"types" : [  ],
					"patching_rect" : [ 165.0, 180.0, 57.0, 18.0 ],
					"fontname" : "Arial",
					"items" : [ 1, ",", "1/2", ",", "1/4", ",", "1/8", ",", "1/16", ",", "1/32" ]
				}

			}
, 			{
				"box" : 				{
					"maxclass" : "newobj",
					"text" : "* 1.",
					"numinlets" : 2,
					"numoutlets" : 1,
					"fontsize" : 10.0,
					"id" : "obj-108",
					"outlettype" : [ "float" ],
					"patching_rect" : [ 150.0, 285.0, 33.5, 18.0 ],
					"fontname" : "Arial"
				}

			}
, 			{
				"box" : 				{
					"maxclass" : "toggle",
					"numinlets" : 1,
					"numoutlets" : 1,
					"presentation_rect" : [ 15.0, 15.0, 21.0, 21.0 ],
					"id" : "obj-97",
					"outlettype" : [ "int" ],
					"patching_rect" : [ 60.0, 315.0, 21.0, 21.0 ],
					"presentation" : 1
				}

			}
, 			{
				"box" : 				{
					"maxclass" : "newobj",
					"text" : "+ 1",
					"numinlets" : 2,
					"numoutlets" : 1,
					"fontsize" : 10.0,
					"id" : "obj-95",
					"outlettype" : [ "int" ],
					"patching_rect" : [ 60.0, 345.0, 28.5, 18.0 ],
					"fontname" : "Arial"
				}

			}
, 			{
				"box" : 				{
					"maxclass" : "newobj",
					"text" : "selector~ 2",
					"numinlets" : 3,
					"numoutlets" : 1,
					"fontsize" : 10.0,
					"id" : "obj-94",
					"outlettype" : [ "signal" ],
					"patching_rect" : [ 60.0, 375.0, 78.0, 18.0 ],
					"fontname" : "Arial"
				}

			}
, 			{
				"box" : 				{
					"maxclass" : "newobj",
					"text" : "rect~",
					"numinlets" : 3,
					"numoutlets" : 1,
					"fontsize" : 10.0,
					"id" : "obj-93",
					"outlettype" : [ "signal" ],
					"patching_rect" : [ 210.0, 315.0, 46.0, 18.0 ],
					"fontname" : "Arial"
				}

			}
, 			{
				"box" : 				{
					"maxclass" : "newobj",
					"text" : "tri~",
					"numinlets" : 3,
					"numoutlets" : 1,
					"fontsize" : 10.0,
					"id" : "obj-92",
					"outlettype" : [ "signal" ],
					"patching_rect" : [ 330.0, 315.0, 46.0, 18.0 ],
					"fontname" : "Arial"
				}

			}
, 			{
				"box" : 				{
					"maxclass" : "newobj",
					"text" : "phasor~",
					"numinlets" : 2,
					"numoutlets" : 1,
					"fontsize" : 10.0,
					"id" : "obj-91",
					"outlettype" : [ "signal" ],
					"patching_rect" : [ 270.0, 315.0, 47.0, 18.0 ],
					"fontname" : "Arial"
				}

			}
, 			{
				"box" : 				{
					"maxclass" : "newobj",
					"text" : "cycle~",
					"numinlets" : 2,
					"numoutlets" : 1,
					"fontsize" : 10.0,
					"id" : "obj-90",
					"outlettype" : [ "signal" ],
					"patching_rect" : [ 150.0, 315.0, 39.0, 18.0 ],
					"fontname" : "Arial"
				}

			}
, 			{
				"box" : 				{
					"maxclass" : "newobj",
					"text" : "selector~ 4",
					"numinlets" : 5,
					"numoutlets" : 1,
					"fontsize" : 10.0,
					"id" : "obj-89",
					"outlettype" : [ "signal" ],
					"patching_rect" : [ 90.0, 345.0, 259.0, 18.0 ],
					"fontname" : "Arial"
				}

			}
, 			{
				"box" : 				{
					"maxclass" : "newobj",
					"text" : "+ 1",
					"numinlets" : 2,
					"numoutlets" : 1,
					"fontsize" : 10.0,
					"id" : "obj-86",
					"outlettype" : [ "int" ],
					"patching_rect" : [ 90.0, 315.0, 32.5, 18.0 ],
					"fontname" : "Arial"
				}

			}
, 			{
				"box" : 				{
					"maxclass" : "number",
					"numinlets" : 1,
					"numoutlets" : 2,
					"fontsize" : 10.0,
					"id" : "obj-85",
					"outlettype" : [ "int", "bang" ],
					"patching_rect" : [ 90.0, 285.0, 50.0, 18.0 ],
					"fontname" : "Arial"
				}

			}
, 			{
				"box" : 				{
					"maxclass" : "umenu",
					"numinlets" : 1,
					"numoutlets" : 3,
					"fontsize" : 10.0,
					"id" : "obj-83",
					"outlettype" : [ "int", "", "" ],
					"types" : [  ],
					"patching_rect" : [ 90.0, 255.0, 55.0, 18.0 ],
					"fontname" : "Arial",
					"items" : [ "Sine", ",", "Square", ",", "Saw", ",", "Triangle" ]
				}

			}
, 			{
				"box" : 				{
					"maxclass" : "button",
					"numinlets" : 1,
					"numoutlets" : 1,
					"id" : "obj-56",
					"outlettype" : [ "bang" ],
					"patching_rect" : [ 270.0, 675.0, 20.0, 20.0 ]
				}

			}
, 			{
				"box" : 				{
					"maxclass" : "newobj",
					"text" : "edge~",
					"numinlets" : 1,
					"numoutlets" : 2,
					"fontsize" : 10.0,
					"id" : "obj-54",
					"outlettype" : [ "bang", "bang" ],
					"patching_rect" : [ 270.0, 600.0, 39.0, 18.0 ],
					"fontname" : "Arial"
				}

			}
, 			{
				"box" : 				{
					"maxclass" : "newobj",
					"text" : ">=~ 0.",
					"numinlets" : 2,
					"numoutlets" : 1,
					"fontsize" : 10.0,
					"id" : "obj-53",
					"outlettype" : [ "signal" ],
					"patching_rect" : [ 270.0, 570.0, 39.0, 18.0 ],
					"fontname" : "Arial"
				}

			}
, 			{
				"box" : 				{
					"maxclass" : "comment",
					"text" : "Frequency",
					"numinlets" : 1,
					"numoutlets" : 0,
					"fontsize" : 10.0,
					"id" : "obj-52",
					"patching_rect" : [ 210.0, 120.0, 61.0, 18.0 ],
					"fontname" : "Arial"
				}

			}
, 			{
				"box" : 				{
					"maxclass" : "comment",
					"text" : "Converts To Freq (BPM / 60 = hz)",
					"numinlets" : 1,
					"numoutlets" : 0,
					"fontsize" : 10.0,
					"id" : "obj-50",
					"patching_rect" : [ 210.0, 90.0, 162.0, 18.0 ],
					"fontname" : "Arial"
				}

			}
, 			{
				"box" : 				{
					"maxclass" : "comment",
					"text" : "Tempo (BPM)",
					"numinlets" : 1,
					"numoutlets" : 0,
					"fontsize" : 10.0,
					"id" : "obj-48",
					"patching_rect" : [ 210.0, 60.0, 72.0, 18.0 ],
					"fontname" : "Arial"
				}

			}
, 			{
				"box" : 				{
					"maxclass" : "number",
					"numinlets" : 1,
					"numoutlets" : 2,
					"fontsize" : 10.0,
					"id" : "obj-27",
					"outlettype" : [ "int", "bang" ],
					"patching_rect" : [ 165.0, 675.0, 50.0, 18.0 ],
					"fontname" : "Arial"
				}

			}
, 			{
				"box" : 				{
					"maxclass" : "newobj",
					"text" : "scale -1. 1. 0 128",
					"numinlets" : 6,
					"numoutlets" : 1,
					"fontsize" : 10.0,
					"id" : "obj-23",
					"outlettype" : [ "float" ],
					"patching_rect" : [ 165.0, 645.0, 87.0, 18.0 ],
					"fontname" : "Arial"
				}

			}
, 			{
				"box" : 				{
					"maxclass" : "ezdac~",
					"numinlets" : 2,
					"numoutlets" : 0,
					"id" : "obj-20",
					"patching_rect" : [ 825.0, 285.0, 45.0, 45.0 ]
				}

			}
, 			{
				"box" : 				{
					"maxclass" : "flonum",
					"numinlets" : 1,
					"numoutlets" : 2,
					"fontsize" : 10.0,
					"id" : "obj-17",
					"outlettype" : [ "float", "bang" ],
					"patching_rect" : [ 60.0, 675.0, 50.0, 18.0 ],
					"fontname" : "Arial"
				}

			}
, 			{
				"box" : 				{
					"maxclass" : "scope~",
					"numinlets" : 2,
					"numoutlets" : 0,
					"presentation_rect" : [ 15.0, 45.0, 145.0, 61.0 ],
					"id" : "obj-13",
					"patching_rect" : [ 60.0, 420.0, 130.0, 130.0 ],
					"presentation" : 1
				}

			}
, 			{
				"box" : 				{
					"maxclass" : "newobj",
					"text" : "scale -1. 1. 0. 1.",
					"numinlets" : 6,
					"numoutlets" : 1,
					"fontsize" : 10.0,
					"id" : "obj-15",
					"outlettype" : [ "float" ],
					"patching_rect" : [ 60.0, 645.0, 86.5, 18.0 ],
					"fontname" : "Arial"
				}

			}
, 			{
				"box" : 				{
					"maxclass" : "flonum",
					"numinlets" : 1,
					"numoutlets" : 2,
					"fontsize" : 10.0,
					"id" : "obj-12",
					"outlettype" : [ "float", "bang" ],
					"patching_rect" : [ 60.0, 600.0, 50.0, 18.0 ],
					"fontname" : "Arial"
				}

			}
, 			{
				"box" : 				{
					"maxclass" : "newobj",
					"text" : "snapshot~ 2",
					"numinlets" : 2,
					"numoutlets" : 1,
					"fontsize" : 10.0,
					"id" : "obj-10",
					"outlettype" : [ "float" ],
					"patching_rect" : [ 60.0, 570.0, 65.0, 18.0 ],
					"fontname" : "Arial"
				}

			}
, 			{
				"box" : 				{
					"maxclass" : "flonum",
					"numinlets" : 1,
					"numoutlets" : 2,
					"fontsize" : 10.0,
					"id" : "obj-5",
					"outlettype" : [ "float", "bang" ],
					"patching_rect" : [ 150.0, 120.0, 50.0, 18.0 ],
					"fontname" : "Arial"
				}

			}
, 			{
				"box" : 				{
					"maxclass" : "flonum",
					"numinlets" : 1,
					"numoutlets" : 2,
					"fontsize" : 10.0,
					"id" : "obj-3",
					"outlettype" : [ "float", "bang" ],
					"patching_rect" : [ 150.0, 60.0, 50.0, 18.0 ],
					"fontname" : "Arial"
				}

			}
, 			{
				"box" : 				{
					"maxclass" : "newobj",
					"text" : "!/ 60.",
					"numinlets" : 2,
					"numoutlets" : 1,
					"fontsize" : 10.0,
					"id" : "obj-1",
					"outlettype" : [ "float" ],
					"patching_rect" : [ 150.0, 90.0, 33.0, 18.0 ],
					"fontname" : "Arial"
				}

			}
 ],
		"lines" : [ 			{
				"patchline" : 				{
					"source" : [ "obj-8", 0 ],
					"destination" : [ "obj-83", 0 ],
					"hidden" : 0,
					"midpoints" : [  ]
				}

			}
, 			{
				"patchline" : 				{
					"source" : [ "obj-7", 0 ],
					"destination" : [ "obj-109", 0 ],
					"hidden" : 0,
					"midpoints" : [  ]
				}

			}
, 			{
				"patchline" : 				{
					"source" : [ "obj-6", 0 ],
					"destination" : [ "obj-94", 0 ],
					"hidden" : 0,
					"midpoints" : [  ]
				}

			}
, 			{
				"patchline" : 				{
					"source" : [ "obj-91", 0 ],
					"destination" : [ "obj-89", 3 ],
					"hidden" : 0,
					"midpoints" : [  ]
				}

			}
, 			{
				"patchline" : 				{
					"source" : [ "obj-108", 0 ],
					"destination" : [ "obj-91", 0 ],
					"hidden" : 0,
					"midpoints" : [ 159.5, 303.0, 279.5, 303.0 ]
				}

			}
, 			{
				"patchline" : 				{
					"source" : [ "obj-108", 0 ],
					"destination" : [ "obj-93", 0 ],
					"hidden" : 0,
					"midpoints" : [ 159.5, 303.0, 219.5, 303.0 ]
				}

			}
, 			{
				"patchline" : 				{
					"source" : [ "obj-93", 0 ],
					"destination" : [ "obj-89", 2 ],
					"hidden" : 0,
					"midpoints" : [  ]
				}

			}
, 			{
				"patchline" : 				{
					"source" : [ "obj-133", 0 ],
					"destination" : [ "obj-3", 0 ],
					"hidden" : 0,
					"midpoints" : [  ]
				}

			}
, 			{
				"patchline" : 				{
					"source" : [ "obj-94", 0 ],
					"destination" : [ "obj-135", 0 ],
					"hidden" : 0,
					"midpoints" : [  ]
				}

			}
, 			{
				"patchline" : 				{
					"source" : [ "obj-134", 0 ],
					"destination" : [ "obj-109", 0 ],
					"hidden" : 0,
					"midpoints" : [  ]
				}

			}
, 			{
				"patchline" : 				{
					"source" : [ "obj-132", 0 ],
					"destination" : [ "obj-83", 0 ],
					"hidden" : 0,
					"midpoints" : [  ]
				}

			}
, 			{
				"patchline" : 				{
					"source" : [ "obj-123", 0 ],
					"destination" : [ "obj-3", 0 ],
					"hidden" : 0,
					"midpoints" : [ 174.5, 228.0, 135.0, 228.0, 135.0, 57.0, 159.5, 57.0 ]
				}

			}
, 			{
				"patchline" : 				{
					"source" : [ "obj-109", 0 ],
					"destination" : [ "obj-123", 0 ],
					"hidden" : 0,
					"midpoints" : [  ]
				}

			}
, 			{
				"patchline" : 				{
					"source" : [ "obj-122", 0 ],
					"destination" : [ "obj-108", 1 ],
					"hidden" : 0,
					"midpoints" : [ 429.5, 270.0, 174.0, 270.0 ]
				}

			}
, 			{
				"patchline" : 				{
					"source" : [ "obj-120", 0 ],
					"destination" : [ "obj-108", 1 ],
					"hidden" : 0,
					"midpoints" : [ 384.5, 270.0, 174.0, 270.0 ]
				}

			}
, 			{
				"patchline" : 				{
					"source" : [ "obj-118", 0 ],
					"destination" : [ "obj-108", 1 ],
					"hidden" : 0,
					"midpoints" : [ 339.5, 270.0, 174.0, 270.0 ]
				}

			}
, 			{
				"patchline" : 				{
					"source" : [ "obj-116", 0 ],
					"destination" : [ "obj-108", 1 ],
					"hidden" : 0,
					"midpoints" : [ 294.5, 270.0, 174.0, 270.0 ]
				}

			}
, 			{
				"patchline" : 				{
					"source" : [ "obj-114", 0 ],
					"destination" : [ "obj-108", 1 ],
					"hidden" : 0,
					"midpoints" : [ 249.5, 270.0, 174.0, 270.0 ]
				}

			}
, 			{
				"patchline" : 				{
					"source" : [ "obj-112", 0 ],
					"destination" : [ "obj-108", 1 ],
					"hidden" : 0,
					"midpoints" : [ 204.5, 270.0, 174.0, 270.0 ]
				}

			}
, 			{
				"patchline" : 				{
					"source" : [ "obj-110", 5 ],
					"destination" : [ "obj-122", 0 ],
					"hidden" : 0,
					"midpoints" : [  ]
				}

			}
, 			{
				"patchline" : 				{
					"source" : [ "obj-110", 4 ],
					"destination" : [ "obj-120", 0 ],
					"hidden" : 0,
					"midpoints" : [  ]
				}

			}
, 			{
				"patchline" : 				{
					"source" : [ "obj-110", 3 ],
					"destination" : [ "obj-118", 0 ],
					"hidden" : 0,
					"midpoints" : [  ]
				}

			}
, 			{
				"patchline" : 				{
					"source" : [ "obj-110", 2 ],
					"destination" : [ "obj-116", 0 ],
					"hidden" : 0,
					"midpoints" : [  ]
				}

			}
, 			{
				"patchline" : 				{
					"source" : [ "obj-110", 1 ],
					"destination" : [ "obj-114", 0 ],
					"hidden" : 0,
					"midpoints" : [  ]
				}

			}
, 			{
				"patchline" : 				{
					"source" : [ "obj-110", 0 ],
					"destination" : [ "obj-112", 0 ],
					"hidden" : 0,
					"midpoints" : [  ]
				}

			}
, 			{
				"patchline" : 				{
					"source" : [ "obj-109", 0 ],
					"destination" : [ "obj-110", 0 ],
					"hidden" : 0,
					"midpoints" : [ 174.5, 204.0, 204.5, 204.0 ]
				}

			}
, 			{
				"patchline" : 				{
					"source" : [ "obj-5", 0 ],
					"destination" : [ "obj-108", 0 ],
					"hidden" : 0,
					"midpoints" : [  ]
				}

			}
, 			{
				"patchline" : 				{
					"source" : [ "obj-108", 0 ],
					"destination" : [ "obj-92", 0 ],
					"hidden" : 0,
					"midpoints" : [ 159.5, 303.0, 315.0, 303.0, 315.0, 303.0, 339.5, 303.0 ]
				}

			}
, 			{
				"patchline" : 				{
					"source" : [ "obj-108", 0 ],
					"destination" : [ "obj-90", 0 ],
					"hidden" : 0,
					"midpoints" : [  ]
				}

			}
, 			{
				"patchline" : 				{
					"source" : [ "obj-94", 0 ],
					"destination" : [ "obj-10", 0 ],
					"hidden" : 1,
					"midpoints" : [  ]
				}

			}
, 			{
				"patchline" : 				{
					"source" : [ "obj-97", 0 ],
					"destination" : [ "obj-95", 0 ],
					"hidden" : 0,
					"midpoints" : [  ]
				}

			}
, 			{
				"patchline" : 				{
					"source" : [ "obj-94", 0 ],
					"destination" : [ "obj-53", 0 ],
					"hidden" : 0,
					"midpoints" : [ 69.5, 405.0, 279.5, 405.0 ]
				}

			}
, 			{
				"patchline" : 				{
					"source" : [ "obj-94", 0 ],
					"destination" : [ "obj-13", 0 ],
					"hidden" : 0,
					"midpoints" : [  ]
				}

			}
, 			{
				"patchline" : 				{
					"source" : [ "obj-89", 0 ],
					"destination" : [ "obj-94", 1 ],
					"hidden" : 0,
					"midpoints" : [  ]
				}

			}
, 			{
				"patchline" : 				{
					"source" : [ "obj-95", 0 ],
					"destination" : [ "obj-94", 0 ],
					"hidden" : 0,
					"midpoints" : [  ]
				}

			}
, 			{
				"patchline" : 				{
					"source" : [ "obj-86", 0 ],
					"destination" : [ "obj-89", 0 ],
					"hidden" : 0,
					"midpoints" : [  ]
				}

			}
, 			{
				"patchline" : 				{
					"source" : [ "obj-92", 0 ],
					"destination" : [ "obj-89", 4 ],
					"hidden" : 0,
					"midpoints" : [  ]
				}

			}
, 			{
				"patchline" : 				{
					"source" : [ "obj-90", 0 ],
					"destination" : [ "obj-89", 1 ],
					"hidden" : 0,
					"midpoints" : [  ]
				}

			}
, 			{
				"patchline" : 				{
					"source" : [ "obj-85", 0 ],
					"destination" : [ "obj-86", 0 ],
					"hidden" : 0,
					"midpoints" : [  ]
				}

			}
, 			{
				"patchline" : 				{
					"source" : [ "obj-83", 0 ],
					"destination" : [ "obj-85", 0 ],
					"hidden" : 0,
					"midpoints" : [  ]
				}

			}
, 			{
				"patchline" : 				{
					"source" : [ "obj-3", 0 ],
					"destination" : [ "obj-1", 0 ],
					"hidden" : 0,
					"midpoints" : [  ]
				}

			}
, 			{
				"patchline" : 				{
					"source" : [ "obj-1", 0 ],
					"destination" : [ "obj-5", 0 ],
					"hidden" : 0,
					"midpoints" : [  ]
				}

			}
, 			{
				"patchline" : 				{
					"source" : [ "obj-54", 0 ],
					"destination" : [ "obj-56", 0 ],
					"hidden" : 0,
					"midpoints" : [  ]
				}

			}
, 			{
				"patchline" : 				{
					"source" : [ "obj-53", 0 ],
					"destination" : [ "obj-54", 0 ],
					"hidden" : 0,
					"midpoints" : [  ]
				}

			}
, 			{
				"patchline" : 				{
					"source" : [ "obj-23", 0 ],
					"destination" : [ "obj-27", 0 ],
					"hidden" : 0,
					"midpoints" : [  ]
				}

			}
, 			{
				"patchline" : 				{
					"source" : [ "obj-12", 0 ],
					"destination" : [ "obj-23", 0 ],
					"hidden" : 0,
					"midpoints" : [ 69.5, 630.0, 174.5, 630.0 ]
				}

			}
, 			{
				"patchline" : 				{
					"source" : [ "obj-10", 0 ],
					"destination" : [ "obj-12", 0 ],
					"hidden" : 0,
					"midpoints" : [  ]
				}

			}
, 			{
				"patchline" : 				{
					"source" : [ "obj-12", 0 ],
					"destination" : [ "obj-15", 0 ],
					"hidden" : 0,
					"midpoints" : [  ]
				}

			}
, 			{
				"patchline" : 				{
					"source" : [ "obj-15", 0 ],
					"destination" : [ "obj-17", 0 ],
					"hidden" : 0,
					"midpoints" : [  ]
				}

			}
, 			{
				"patchline" : 				{
					"source" : [ "obj-2", 0 ],
					"destination" : [ "obj-108", 0 ],
					"hidden" : 0,
					"midpoints" : [  ]
				}

			}
, 			{
				"patchline" : 				{
					"source" : [ "obj-108", 0 ],
					"destination" : [ "obj-4", 0 ],
					"hidden" : 0,
					"midpoints" : [  ]
				}

			}
 ]
	}

}
