{
	"patcher" : 	{
		"fileversion" : 1,
		"rect" : [ 582.0, 44.0, 899.0, 730.0 ],
		"bglocked" : 0,
		"defrect" : [ 582.0, 44.0, 899.0, 730.0 ],
		"openrect" : [ 0.0, 0.0, 0.0, 0.0 ],
		"openinpresentation" : 0,
		"default_fontsize" : 10.0,
		"default_fontface" : 0,
		"default_fontname" : "Arial",
		"gridonopen" : 0,
		"gridsize" : [ 15.0, 15.0 ],
		"gridsnaponopen" : 0,
		"toolbarvisible" : 1,
		"boxanimatetime" : 200,
		"imprint" : 0,
		"metadata" : [  ],
		"boxes" : [ 			{
				"box" : 				{
					"maxclass" : "newobj",
					"text" : "t b f",
					"numoutlets" : 2,
					"patching_rect" : [ 330.0, 345.0, 32.5, 18.0 ],
					"outlettype" : [ "bang", "float" ],
					"id" : "obj-28",
					"fontname" : "Arial",
					"numinlets" : 1,
					"fontsize" : 10.0
				}

			}
, 			{
				"box" : 				{
					"maxclass" : "newobj",
					"text" : "r delay",
					"numoutlets" : 1,
					"patching_rect" : [ 345.0, 375.0, 41.0, 18.0 ],
					"outlettype" : [ "" ],
					"id" : "obj-27",
					"fontname" : "Arial",
					"numinlets" : 0,
					"fontsize" : 10.0
				}

			}
, 			{
				"box" : 				{
					"maxclass" : "newobj",
					"text" : "s delay",
					"numoutlets" : 0,
					"patching_rect" : [ 405.0, 150.0, 42.0, 18.0 ],
					"id" : "obj-26",
					"fontname" : "Arial",
					"numinlets" : 1,
					"fontsize" : 10.0
				}

			}
, 			{
				"box" : 				{
					"maxclass" : "newobj",
					"text" : "float",
					"numoutlets" : 1,
					"patching_rect" : [ 330.0, 435.0, 74.5, 18.0 ],
					"outlettype" : [ "float" ],
					"id" : "obj-25",
					"fontname" : "Arial",
					"numinlets" : 2,
					"fontsize" : 10.0
				}

			}
, 			{
				"box" : 				{
					"maxclass" : "newobj",
					"text" : "delay",
					"numoutlets" : 1,
					"patching_rect" : [ 330.0, 405.0, 34.0, 18.0 ],
					"outlettype" : [ "bang" ],
					"id" : "obj-24",
					"fontname" : "Arial",
					"numinlets" : 2,
					"fontsize" : 10.0
				}

			}
, 			{
				"box" : 				{
					"maxclass" : "newobj",
					"text" : "t b",
					"numoutlets" : 1,
					"patching_rect" : [ 330.0, 465.0, 22.0, 18.0 ],
					"outlettype" : [ "bang" ],
					"id" : "obj-19",
					"fontname" : "Arial",
					"numinlets" : 1,
					"fontsize" : 10.0
				}

			}
, 			{
				"box" : 				{
					"maxclass" : "flonum",
					"numoutlets" : 2,
					"patching_rect" : [ 390.0, 495.0, 50.0, 18.0 ],
					"outlettype" : [ "float", "bang" ],
					"id" : "obj-18",
					"fontname" : "Arial",
					"numinlets" : 1,
					"fontsize" : 10.0
				}

			}
, 			{
				"box" : 				{
					"maxclass" : "flonum",
					"numoutlets" : 2,
					"patching_rect" : [ 330.0, 495.0, 50.0, 18.0 ],
					"outlettype" : [ "float", "bang" ],
					"id" : "obj-16",
					"fontname" : "Arial",
					"numinlets" : 1,
					"fontsize" : 10.0
				}

			}
, 			{
				"box" : 				{
					"maxclass" : "newobj",
					"text" : "line",
					"numoutlets" : 3,
					"patching_rect" : [ 270.0, 525.0, 139.0, 18.0 ],
					"outlettype" : [ "", "", "" ],
					"id" : "obj-12",
					"fontname" : "Arial",
					"numinlets" : 3,
					"fontsize" : 10.0
				}

			}
, 			{
				"box" : 				{
					"maxclass" : "comment",
					"text" : "End",
					"numoutlets" : 0,
					"patching_rect" : [ 390.0, 315.0, 32.0, 18.0 ],
					"id" : "obj-11",
					"fontname" : "Arial",
					"numinlets" : 1,
					"fontsize" : 10.0
				}

			}
, 			{
				"box" : 				{
					"maxclass" : "comment",
					"text" : "Start",
					"numoutlets" : 0,
					"patching_rect" : [ 225.0, 315.0, 31.0, 18.0 ],
					"id" : "obj-9",
					"fontname" : "Arial",
					"numinlets" : 1,
					"fontsize" : 10.0
				}

			}
, 			{
				"box" : 				{
					"maxclass" : "flonum",
					"numoutlets" : 2,
					"patching_rect" : [ 270.0, 315.0, 50.0, 18.0 ],
					"outlettype" : [ "float", "bang" ],
					"id" : "obj-7",
					"fontname" : "Arial",
					"numinlets" : 1,
					"fontsize" : 10.0
				}

			}
, 			{
				"box" : 				{
					"maxclass" : "flonum",
					"numoutlets" : 2,
					"patching_rect" : [ 330.0, 315.0, 50.0, 18.0 ],
					"outlettype" : [ "float", "bang" ],
					"id" : "obj-4",
					"fontname" : "Arial",
					"numinlets" : 1,
					"fontsize" : 10.0
				}

			}
, 			{
				"box" : 				{
					"maxclass" : "newobj",
					"text" : "t f b f",
					"numoutlets" : 3,
					"patching_rect" : [ 270.0, 255.0, 46.0, 18.0 ],
					"outlettype" : [ "float", "bang", "float" ],
					"id" : "obj-78",
					"fontname" : "Arial",
					"numinlets" : 1,
					"fontsize" : 10.0
				}

			}
, 			{
				"box" : 				{
					"maxclass" : "newobj",
					"text" : "t f f",
					"numoutlets" : 2,
					"patching_rect" : [ 360.0, 150.0, 32.5, 18.0 ],
					"outlettype" : [ "float", "float" ],
					"id" : "obj-76",
					"fontname" : "Arial",
					"numinlets" : 1,
					"fontsize" : 10.0
				}

			}
, 			{
				"box" : 				{
					"maxclass" : "newobj",
					"text" : "+ 1.",
					"numoutlets" : 1,
					"patching_rect" : [ 330.0, 285.0, 62.5, 18.0 ],
					"outlettype" : [ "float" ],
					"id" : "obj-74",
					"fontname" : "Arial",
					"numinlets" : 2,
					"fontsize" : 10.0
				}

			}
, 			{
				"box" : 				{
					"maxclass" : "button",
					"numoutlets" : 1,
					"patching_rect" : [ 270.0, 105.0, 20.0, 20.0 ],
					"outlettype" : [ "bang" ],
					"id" : "obj-68",
					"numinlets" : 1
				}

			}
, 			{
				"box" : 				{
					"maxclass" : "flonum",
					"numoutlets" : 2,
					"patching_rect" : [ 270.0, 225.0, 50.0, 18.0 ],
					"outlettype" : [ "float", "bang" ],
					"id" : "obj-53",
					"fontname" : "Arial",
					"numinlets" : 1,
					"fontsize" : 10.0
				}

			}
, 			{
				"box" : 				{
					"maxclass" : "newobj",
					"text" : "+ 1.",
					"numoutlets" : 1,
					"patching_rect" : [ 270.0, 165.0, 32.5, 18.0 ],
					"outlettype" : [ "float" ],
					"id" : "obj-50",
					"fontname" : "Arial",
					"numinlets" : 2,
					"fontsize" : 10.0
				}

			}
, 			{
				"box" : 				{
					"maxclass" : "newobj",
					"text" : "random 15",
					"numoutlets" : 1,
					"patching_rect" : [ 270.0, 135.0, 58.0, 18.0 ],
					"outlettype" : [ "int" ],
					"id" : "obj-49",
					"fontname" : "Arial",
					"numinlets" : 2,
					"fontsize" : 10.0
				}

			}
, 			{
				"box" : 				{
					"maxclass" : "newobj",
					"text" : "* 1.",
					"numoutlets" : 1,
					"patching_rect" : [ 270.0, 195.0, 32.5, 18.0 ],
					"outlettype" : [ "float" ],
					"id" : "obj-48",
					"fontname" : "Arial",
					"numinlets" : 2,
					"fontsize" : 10.0
				}

			}
, 			{
				"box" : 				{
					"maxclass" : "flonum",
					"numoutlets" : 2,
					"patching_rect" : [ 360.0, 120.0, 50.0, 18.0 ],
					"outlettype" : [ "float", "bang" ],
					"id" : "obj-41",
					"fontname" : "Arial",
					"numinlets" : 1,
					"fontsize" : 10.0
				}

			}
, 			{
				"box" : 				{
					"maxclass" : "comment",
					"text" : "Length of one piece",
					"numoutlets" : 0,
					"patching_rect" : [ 420.0, 120.0, 150.0, 18.0 ],
					"id" : "obj-39",
					"fontname" : "Arial",
					"numinlets" : 1,
					"fontsize" : 10.0
				}

			}
, 			{
				"box" : 				{
					"maxclass" : "comment",
					"text" : "cuts the sample into 16 pieces",
					"numoutlets" : 0,
					"patching_rect" : [ 420.0, 90.0, 150.0, 18.0 ],
					"id" : "obj-37",
					"fontname" : "Arial",
					"numinlets" : 1,
					"fontsize" : 10.0
				}

			}
, 			{
				"box" : 				{
					"maxclass" : "newobj",
					"text" : "/ 16.",
					"numoutlets" : 1,
					"patching_rect" : [ 360.0, 90.0, 32.5, 18.0 ],
					"outlettype" : [ "float" ],
					"id" : "obj-35",
					"fontname" : "Arial",
					"numinlets" : 2,
					"fontsize" : 10.0
				}

			}
, 			{
				"box" : 				{
					"maxclass" : "pictslider",
					"numoutlets" : 2,
					"patching_rect" : [ 89.0, 630.0, 14.0, 74.0 ],
					"topvalue" : 0,
					"rightvalue" : 0,
					"outlettype" : [ "int", "int" ],
					"id" : "obj-111",
					"inactiveimage" : 0,
					"bkgndpict" : "wfmodes.pct",
					"knobpict" : "wfknob.pct",
					"movehorizontal" : 0,
					"numinlets" : 2,
					"imagemask" : 1,
					"bottomvalue" : 3
				}

			}
, 			{
				"box" : 				{
					"maxclass" : "comment",
					"text" : "End(ms)",
					"numoutlets" : 0,
					"patching_rect" : [ 340.0, 596.0, 48.0, 18.0 ],
					"id" : "obj-110",
					"fontname" : "Arial",
					"numinlets" : 1,
					"fontsize" : 10.0
				}

			}
, 			{
				"box" : 				{
					"maxclass" : "comment",
					"text" : "Start(ms)",
					"numoutlets" : 0,
					"patching_rect" : [ 150.0, 570.0, 53.0, 18.0 ],
					"id" : "obj-106",
					"fontname" : "Arial",
					"numinlets" : 1,
					"fontsize" : 10.0
				}

			}
, 			{
				"box" : 				{
					"maxclass" : "flonum",
					"numoutlets" : 2,
					"patching_rect" : [ 285.0, 600.0, 50.0, 18.0 ],
					"outlettype" : [ "float", "bang" ],
					"id" : "obj-100",
					"fontname" : "Arial",
					"numinlets" : 1,
					"fontsize" : 10.0
				}

			}
, 			{
				"box" : 				{
					"maxclass" : "flonum",
					"numoutlets" : 2,
					"patching_rect" : [ 210.0, 570.0, 50.0, 18.0 ],
					"outlettype" : [ "float", "bang" ],
					"id" : "obj-98",
					"fontname" : "Arial",
					"numinlets" : 1,
					"fontsize" : 10.0
				}

			}
, 			{
				"box" : 				{
					"maxclass" : "waveform~",
					"numoutlets" : 6,
					"patching_rect" : [ 105.0, 630.0, 253.0, 74.0 ],
					"outlettype" : [ "float", "float", "float", "float", "list", "" ],
					"id" : "obj-86",
					"presentation" : 1,
					"setmode" : 3,
					"buffername" : "sample",
					"numinlets" : 5,
					"presentation_rect" : [ 60.0, 135.0, 253.0, 74.0 ],
					"textcolor" : [  ]
				}

			}
, 			{
				"box" : 				{
					"maxclass" : "message",
					"text" : "set sample",
					"numoutlets" : 1,
					"patching_rect" : [ 105.0, 602.0, 59.0, 16.0 ],
					"outlettype" : [ "" ],
					"id" : "obj-14",
					"fontname" : "Arial",
					"numinlets" : 2,
					"fontsize" : 10.0
				}

			}
, 			{
				"box" : 				{
					"maxclass" : "message",
					"text" : "read",
					"numoutlets" : 1,
					"patching_rect" : [ 210.0, 20.0, 32.5, 16.0 ],
					"outlettype" : [ "" ],
					"id" : "obj-5",
					"fontname" : "Arial",
					"numinlets" : 2,
					"fontsize" : 10.0
				}

			}
, 			{
				"box" : 				{
					"maxclass" : "newobj",
					"text" : "info~ sample",
					"numoutlets" : 8,
					"patching_rect" : [ 270.0, 70.0, 123.5, 18.0 ],
					"outlettype" : [ "float", "list", "float", "float", "float", "float", "float", "" ],
					"id" : "obj-3",
					"fontname" : "Arial",
					"numinlets" : 1,
					"fontsize" : 10.0
				}

			}
, 			{
				"box" : 				{
					"maxclass" : "newobj",
					"text" : "buffer~ sample",
					"numoutlets" : 2,
					"patching_rect" : [ 210.0, 50.0, 79.0, 18.0 ],
					"outlettype" : [ "float", "bang" ],
					"id" : "obj-2",
					"fontname" : "Arial",
					"numinlets" : 1,
					"fontsize" : 10.0
				}

			}
 ],
		"lines" : [ 			{
				"patchline" : 				{
					"source" : [ "obj-25", 0 ],
					"destination" : [ "obj-19", 0 ],
					"hidden" : 0,
					"midpoints" : [  ]
				}

			}
, 			{
				"patchline" : 				{
					"source" : [ "obj-7", 0 ],
					"destination" : [ "obj-12", 0 ],
					"hidden" : 0,
					"midpoints" : [  ]
				}

			}
, 			{
				"patchline" : 				{
					"source" : [ "obj-25", 0 ],
					"destination" : [ "obj-12", 0 ],
					"hidden" : 0,
					"midpoints" : [  ]
				}

			}
, 			{
				"patchline" : 				{
					"source" : [ "obj-24", 0 ],
					"destination" : [ "obj-25", 0 ],
					"hidden" : 0,
					"midpoints" : [  ]
				}

			}
, 			{
				"patchline" : 				{
					"source" : [ "obj-28", 0 ],
					"destination" : [ "obj-24", 0 ],
					"hidden" : 0,
					"midpoints" : [  ]
				}

			}
, 			{
				"patchline" : 				{
					"source" : [ "obj-4", 0 ],
					"destination" : [ "obj-28", 0 ],
					"hidden" : 0,
					"midpoints" : [  ]
				}

			}
, 			{
				"patchline" : 				{
					"source" : [ "obj-28", 1 ],
					"destination" : [ "obj-25", 1 ],
					"hidden" : 0,
					"midpoints" : [ 353.0, 363.0, 395.0, 363.0 ]
				}

			}
, 			{
				"patchline" : 				{
					"source" : [ "obj-27", 0 ],
					"destination" : [ "obj-24", 1 ],
					"hidden" : 0,
					"midpoints" : [  ]
				}

			}
, 			{
				"patchline" : 				{
					"source" : [ "obj-41", 0 ],
					"destination" : [ "obj-26", 0 ],
					"hidden" : 0,
					"midpoints" : [  ]
				}

			}
, 			{
				"patchline" : 				{
					"source" : [ "obj-7", 0 ],
					"destination" : [ "obj-98", 0 ],
					"hidden" : 0,
					"midpoints" : [  ]
				}

			}
, 			{
				"patchline" : 				{
					"source" : [ "obj-12", 0 ],
					"destination" : [ "obj-100", 0 ],
					"hidden" : 0,
					"midpoints" : [  ]
				}

			}
, 			{
				"patchline" : 				{
					"source" : [ "obj-19", 0 ],
					"destination" : [ "obj-16", 0 ],
					"hidden" : 0,
					"midpoints" : [  ]
				}

			}
, 			{
				"patchline" : 				{
					"source" : [ "obj-18", 0 ],
					"destination" : [ "obj-12", 2 ],
					"hidden" : 0,
					"midpoints" : [  ]
				}

			}
, 			{
				"patchline" : 				{
					"source" : [ "obj-16", 0 ],
					"destination" : [ "obj-12", 1 ],
					"hidden" : 0,
					"midpoints" : [  ]
				}

			}
, 			{
				"patchline" : 				{
					"source" : [ "obj-78", 0 ],
					"destination" : [ "obj-7", 0 ],
					"hidden" : 0,
					"midpoints" : [  ]
				}

			}
, 			{
				"patchline" : 				{
					"source" : [ "obj-74", 0 ],
					"destination" : [ "obj-4", 0 ],
					"hidden" : 0,
					"midpoints" : [  ]
				}

			}
, 			{
				"patchline" : 				{
					"source" : [ "obj-78", 1 ],
					"destination" : [ "obj-74", 0 ],
					"hidden" : 0,
					"midpoints" : [  ]
				}

			}
, 			{
				"patchline" : 				{
					"source" : [ "obj-78", 2 ],
					"destination" : [ "obj-74", 0 ],
					"hidden" : 0,
					"midpoints" : [  ]
				}

			}
, 			{
				"patchline" : 				{
					"source" : [ "obj-53", 0 ],
					"destination" : [ "obj-78", 0 ],
					"hidden" : 0,
					"midpoints" : [  ]
				}

			}
, 			{
				"patchline" : 				{
					"source" : [ "obj-3", 6 ],
					"destination" : [ "obj-35", 0 ],
					"hidden" : 0,
					"midpoints" : [  ]
				}

			}
, 			{
				"patchline" : 				{
					"source" : [ "obj-35", 0 ],
					"destination" : [ "obj-41", 0 ],
					"hidden" : 0,
					"midpoints" : [  ]
				}

			}
, 			{
				"patchline" : 				{
					"source" : [ "obj-50", 0 ],
					"destination" : [ "obj-48", 0 ],
					"hidden" : 0,
					"midpoints" : [  ]
				}

			}
, 			{
				"patchline" : 				{
					"source" : [ "obj-48", 0 ],
					"destination" : [ "obj-53", 0 ],
					"hidden" : 0,
					"midpoints" : [  ]
				}

			}
, 			{
				"patchline" : 				{
					"source" : [ "obj-41", 0 ],
					"destination" : [ "obj-76", 0 ],
					"hidden" : 0,
					"midpoints" : [  ]
				}

			}
, 			{
				"patchline" : 				{
					"source" : [ "obj-76", 0 ],
					"destination" : [ "obj-48", 1 ],
					"hidden" : 0,
					"midpoints" : [  ]
				}

			}
, 			{
				"patchline" : 				{
					"source" : [ "obj-76", 1 ],
					"destination" : [ "obj-74", 1 ],
					"hidden" : 0,
					"midpoints" : [  ]
				}

			}
, 			{
				"patchline" : 				{
					"source" : [ "obj-49", 0 ],
					"destination" : [ "obj-50", 0 ],
					"hidden" : 0,
					"midpoints" : [  ]
				}

			}
, 			{
				"patchline" : 				{
					"source" : [ "obj-68", 0 ],
					"destination" : [ "obj-49", 0 ],
					"hidden" : 0,
					"midpoints" : [  ]
				}

			}
, 			{
				"patchline" : 				{
					"source" : [ "obj-14", 0 ],
					"destination" : [ "obj-86", 0 ],
					"hidden" : 0,
					"midpoints" : [  ]
				}

			}
, 			{
				"patchline" : 				{
					"source" : [ "obj-100", 0 ],
					"destination" : [ "obj-86", 3 ],
					"hidden" : 0,
					"midpoints" : [  ]
				}

			}
, 			{
				"patchline" : 				{
					"source" : [ "obj-98", 0 ],
					"destination" : [ "obj-86", 2 ],
					"hidden" : 0,
					"midpoints" : [  ]
				}

			}
, 			{
				"patchline" : 				{
					"source" : [ "obj-5", 0 ],
					"destination" : [ "obj-2", 0 ],
					"hidden" : 0,
					"midpoints" : [  ]
				}

			}
, 			{
				"patchline" : 				{
					"source" : [ "obj-2", 1 ],
					"destination" : [ "obj-3", 0 ],
					"hidden" : 0,
					"midpoints" : [  ]
				}

			}
 ]
	}

}
