{
	"patcher" : 	{
		"fileversion" : 1,
		"rect" : [ 49.0, 44.0, 1231.0, 730.0 ],
		"bglocked" : 0,
		"defrect" : [ 49.0, 44.0, 1231.0, 730.0 ],
		"openrect" : [ 0.0, 0.0, 0.0, 0.0 ],
		"openinpresentation" : 0,
		"default_fontsize" : 12.0,
		"default_fontface" : 0,
		"default_fontname" : "Arial",
		"gridonopen" : 0,
		"gridsize" : [ 15.0, 15.0 ],
		"gridsnaponopen" : 0,
		"toolbarvisible" : 1,
		"boxanimatetime" : 200,
		"imprint" : 0,
		"metadata" : [  ],
		"boxes" : [ 			{
				"box" : 				{
					"maxclass" : "newobj",
					"text" : "p filter",
					"id" : "obj-18",
					"fontname" : "Arial",
					"numinlets" : 1,
					"numoutlets" : 0,
					"fontsize" : 12.0,
					"patching_rect" : [ 585.0, 165.0, 43.0, 20.0 ],
					"patcher" : 					{
						"fileversion" : 1,
						"rect" : [ 74.0, 69.0, 640.0, 480.0 ],
						"bglocked" : 0,
						"defrect" : [ 74.0, 69.0, 640.0, 480.0 ],
						"openrect" : [ 0.0, 0.0, 0.0, 0.0 ],
						"openinpresentation" : 0,
						"default_fontsize" : 12.0,
						"default_fontface" : 0,
						"default_fontname" : "Arial",
						"gridonopen" : 0,
						"gridsize" : [ 15.0, 15.0 ],
						"gridsnaponopen" : 0,
						"toolbarvisible" : 1,
						"boxanimatetime" : 200,
						"imprint" : 0,
						"metadata" : [  ],
						"boxes" : [ 							{
								"box" : 								{
									"maxclass" : "inlet",
									"id" : "obj-1",
									"numinlets" : 0,
									"numoutlets" : 1,
									"patching_rect" : [ 30.0, 30.0, 25.0, 25.0 ],
									"outlettype" : [ "signal" ],
									"comment" : ""
								}

							}
 ],
						"lines" : [  ]
					}
,
					"saved_object_attributes" : 					{
						"default_fontname" : "Arial",
						"fontname" : "Arial",
						"default_fontsize" : 12.0,
						"globalpatchername" : "",
						"fontface" : 0,
						"fontsize" : 12.0,
						"default_fontface" : 0
					}

				}

			}
, 			{
				"box" : 				{
					"maxclass" : "flonum",
					"id" : "obj-9",
					"fontname" : "Arial",
					"numinlets" : 1,
					"numoutlets" : 2,
					"fontsize" : 12.0,
					"patching_rect" : [ 675.0, 135.0, 50.0, 20.0 ],
					"outlettype" : [ "float", "bang" ]
				}

			}
, 			{
				"box" : 				{
					"maxclass" : "newobj",
					"text" : "select 1 2 3 4 5 6 7 8 9",
					"id" : "obj-4",
					"fontname" : "Arial",
					"numinlets" : 1,
					"numoutlets" : 10,
					"fontsize" : 12.0,
					"patching_rect" : [ 675.0, 105.0, 140.5, 20.0 ],
					"outlettype" : [ "bang", "bang", "bang", "bang", "bang", "bang", "bang", "bang", "bang", "" ]
				}

			}
, 			{
				"box" : 				{
					"maxclass" : "newobj",
					"text" : "p fmSynth",
					"id" : "obj-1",
					"fontname" : "Arial",
					"numinlets" : 3,
					"numoutlets" : 1,
					"fontsize" : 12.0,
					"patching_rect" : [ 585.0, 135.0, 65.0, 20.0 ],
					"outlettype" : [ "signal" ],
					"patcher" : 					{
						"fileversion" : 1,
						"rect" : [ 569.0, 110.0, 668.0, 501.0 ],
						"bglocked" : 0,
						"defrect" : [ 569.0, 110.0, 668.0, 501.0 ],
						"openrect" : [ 0.0, 0.0, 0.0, 0.0 ],
						"openinpresentation" : 0,
						"default_fontsize" : 12.0,
						"default_fontface" : 0,
						"default_fontname" : "Arial",
						"gridonopen" : 0,
						"gridsize" : [ 15.0, 15.0 ],
						"gridsnaponopen" : 0,
						"toolbarvisible" : 1,
						"boxanimatetime" : 200,
						"imprint" : 0,
						"metadata" : [  ],
						"boxes" : [ 							{
								"box" : 								{
									"maxclass" : "inlet",
									"id" : "obj-26",
									"numinlets" : 0,
									"numoutlets" : 1,
									"patching_rect" : [ 120.0, 180.0, 25.0, 25.0 ],
									"outlettype" : [ "float" ],
									"comment" : ""
								}

							}
, 							{
								"box" : 								{
									"maxclass" : "inlet",
									"id" : "obj-25",
									"numinlets" : 0,
									"numoutlets" : 1,
									"patching_rect" : [ 45.0, 180.0, 25.0, 25.0 ],
									"outlettype" : [ "" ],
									"comment" : ""
								}

							}
, 							{
								"box" : 								{
									"maxclass" : "inlet",
									"id" : "obj-16",
									"numinlets" : 0,
									"numoutlets" : 1,
									"patching_rect" : [ 240.0, 75.0, 25.0, 25.0 ],
									"outlettype" : [ "bang" ],
									"comment" : ""
								}

							}
, 							{
								"box" : 								{
									"maxclass" : "outlet",
									"id" : "obj-1",
									"numinlets" : 1,
									"numoutlets" : 0,
									"patching_rect" : [ 45.0, 420.0, 25.0, 25.0 ],
									"comment" : ""
								}

							}
, 							{
								"box" : 								{
									"maxclass" : "newobj",
									"text" : "sig~",
									"id" : "obj-3",
									"fontname" : "Arial",
									"numinlets" : 1,
									"numoutlets" : 1,
									"fontsize" : 11.595187,
									"patching_rect" : [ 124.0, 273.0, 32.0, 20.0 ],
									"outlettype" : [ "signal" ]
								}

							}
, 							{
								"box" : 								{
									"maxclass" : "newobj",
									"text" : "sig~",
									"id" : "obj-4",
									"fontname" : "Arial",
									"numinlets" : 1,
									"numoutlets" : 1,
									"fontsize" : 11.595187,
									"patching_rect" : [ 46.0, 273.0, 32.0, 20.0 ],
									"outlettype" : [ "signal" ]
								}

							}
, 							{
								"box" : 								{
									"maxclass" : "preset",
									"id" : "obj-5",
									"numinlets" : 1,
									"spacing" : 2,
									"numoutlets" : 4,
									"bubblesize" : 8,
									"fontsize" : 11.595187,
									"patching_rect" : [ 210.0, 165.0, 46.0, 28.0 ],
									"outlettype" : [ "preset", "int", "preset", "int" ],
									"margin" : 4,
									"preset_data" : [ 										{
											"number" : 1,
											"data" : [ 5, "obj-24", "flonum", "float", 5000.0, 5, "obj-21", "flonum", "float", 130.809998, 5, "obj-20", "flonum", "float", 2.8, 4, "obj-14", "function", "clear", 6, "obj-14", "function", "add", 0.0, 6.0, 6, "obj-14", "function", "add", 4999.999512, 0.0, 4, "obj-13", "function", "clear", 6, "obj-13", "function", "add", 0.0, 0.90625, 6, "obj-13", "function", "add", 1000.0, 0.125, 6, "obj-13", "function", "add", 3000.0, 0.015062, 6, "obj-13", "function", "add", 4999.999512, 0.0 ]
										}
, 										{
											"number" : 2,
											"data" : [ 5, "obj-24", "flonum", "float", 5000.0, 5, "obj-21", "flonum", "float", 130.809998, 5, "obj-20", "flonum", "float", 1.005, 4, "obj-14", "function", "clear", 6, "obj-14", "function", "add", 0.0, 7.5, 6, "obj-14", "function", "add", 2706.421875, 1.875, 6, "obj-14", "function", "add", 4999.999512, 0.0, 4, "obj-13", "function", "clear", 6, "obj-13", "function", "add", 0.0, 0.90625, 6, "obj-13", "function", "add", 1000.0, 0.125, 6, "obj-13", "function", "add", 3000.0, 0.015062, 6, "obj-13", "function", "add", 4999.999512, 0.0 ]
										}
, 										{
											"number" : 3,
											"data" : [ 5, "obj-24", "flonum", "float", 400.0, 5, "obj-21", "flonum", "float", 130.809998, 5, "obj-20", "flonum", "float", 0.707, 4, "obj-14", "function", "clear", 6, "obj-14", "function", "add", 0.0, 1.5, 6, "obj-14", "function", "add", 399.999969, 0.0, 4, "obj-13", "function", "clear", 6, "obj-13", "function", "add", 0.0, 0.6875, 6, "obj-13", "function", "add", 40.36697, 0.84375, 6, "obj-13", "function", "add", 99.082565, 0.765625, 6, "obj-13", "function", "add", 161.46788, 0.09375, 6, "obj-13", "function", "add", 399.999969, 0.0 ]
										}
, 										{
											"number" : 4,
											"data" : [ 5, "obj-24", "flonum", "float", 400.0, 5, "obj-21", "flonum", "float", 392.0, 5, "obj-20", "flonum", "float", 1.0, 4, "obj-14", "function", "clear", 6, "obj-14", "function", "add", 0.0, 0.0, 6, "obj-14", "function", "add", 51.376144, 5.25, 6, "obj-14", "function", "add", 80.73394, 4.5, 6, "obj-14", "function", "add", 297.247681, 0.375, 6, "obj-14", "function", "add", 399.999969, 0.0, 4, "obj-13", "function", "clear", 6, "obj-13", "function", "add", 0.0, 0.0, 6, "obj-13", "function", "add", 51.376144, 1.0, 6, "obj-13", "function", "add", 91.743118, 0.734375, 6, "obj-13", "function", "add", 326.605499, 0.6875, 6, "obj-13", "function", "add", 399.999969, 0.0 ]
										}
, 										{
											"number" : 5,
											"data" : [ 5, "obj-24", "flonum", "float", 200.0, 5, "obj-21", "flonum", "float", 1046.599976, 5, "obj-20", "flonum", "float", 1.0, 4, "obj-14", "function", "clear", 6, "obj-14", "function", "add", 0.0, 0.0, 6, "obj-14", "function", "add", 25.688072, 5.25, 6, "obj-14", "function", "add", 40.36697, 4.5, 6, "obj-14", "function", "add", 148.62384, 0.375, 6, "obj-14", "function", "add", 199.999985, 0.0, 4, "obj-13", "function", "clear", 6, "obj-13", "function", "add", 0.0, 0.0, 6, "obj-13", "function", "add", 25.688072, 1.0, 6, "obj-13", "function", "add", 45.871559, 0.734375, 6, "obj-13", "function", "add", 163.30275, 0.6875, 6, "obj-13", "function", "add", 199.999985, 0.0 ]
										}
, 										{
											"number" : 6,
											"data" : [ 5, "obj-24", "flonum", "float", 200.0, 5, "obj-21", "flonum", "float", 1046.599976, 5, "obj-20", "flonum", "float", 1.0, 4, "obj-14", "function", "clear", 6, "obj-14", "function", "add", 0.0, 1.875, 6, "obj-14", "function", "add", 51.376144, 0.375, 6, "obj-14", "function", "add", 199.999985, 0.0, 4, "obj-13", "function", "clear", 6, "obj-13", "function", "add", 0.0, 1.0, 6, "obj-13", "function", "add", 49.541283, 0.125, 6, "obj-13", "function", "add", 135.779816, 0.015625, 6, "obj-13", "function", "add", 199.999985, 0.0 ]
										}
, 										{
											"number" : 7,
											"data" : [ 5, "obj-24", "flonum", "float", 2000.0, 5, "obj-21", "flonum", "float", 392.0, 5, "obj-20", "flonum", "float", 4.0, 4, "obj-14", "function", "clear", 6, "obj-14", "function", "add", 18.348623, 0.0, 6, "obj-14", "function", "add", 477.064209, 0.75, 6, "obj-14", "function", "add", 1633.027466, 0.75, 6, "obj-14", "function", "add", 1999.999878, 0.0, 4, "obj-13", "function", "clear", 6, "obj-13", "function", "add", 18.348623, 0.0, 6, "obj-13", "function", "add", 495.412811, 1.0, 6, "obj-13", "function", "add", 1284.403564, 0.78125, 6, "obj-13", "function", "add", 1688.073364, 0.21875, 6, "obj-13", "function", "add", 1999.999878, 0.0 ]
										}
, 										{
											"number" : 8,
											"data" : [ 5, "obj-24", "flonum", "float", 2000.0, 5, "obj-21", "flonum", "float", 61.400002, 5, "obj-20", "flonum", "float", 2.5, 4, "obj-14", "function", "clear", 6, "obj-14", "function", "add", 0.0, 8.25, 6, "obj-14", "function", "add", 660.550415, 23.25, 6, "obj-14", "function", "add", 1045.87146, 7.875, 6, "obj-14", "function", "add", 1357.798096, 10.875, 6, "obj-14", "function", "add", 1541.284302, 1.875, 6, "obj-14", "function", "add", 1743.119141, 3.0, 6, "obj-14", "function", "add", 1999.999756, 0.0, 4, "obj-13", "function", "clear", 6, "obj-13", "function", "add", 0.0, 0.0, 6, "obj-13", "function", "add", 36.697247, 1.0, 6, "obj-13", "function", "add", 348.62384, 0.703125, 6, "obj-13", "function", "add", 1357.798096, 0.671875, 6, "obj-13", "function", "add", 1761.467773, 0.078125, 6, "obj-13", "function", "add", 1999.999756, 0.0 ]
										}
 ]
								}

							}
, 							{
								"box" : 								{
									"maxclass" : "comment",
									"text" : "FM tone settings",
									"id" : "obj-6",
									"fontname" : "Arial",
									"numinlets" : 1,
									"numoutlets" : 0,
									"fontsize" : 11.595187,
									"patching_rect" : [ 105.0, 165.0, 96.0, 20.0 ]
								}

							}
, 							{
								"box" : 								{
									"maxclass" : "button",
									"id" : "obj-7",
									"numinlets" : 1,
									"numoutlets" : 1,
									"patching_rect" : [ 240.0, 105.0, 20.0, 20.0 ],
									"outlettype" : [ "bang" ]
								}

							}
, 							{
								"box" : 								{
									"maxclass" : "comment",
									"text" : "Play a note",
									"id" : "obj-8",
									"fontname" : "Arial",
									"numinlets" : 1,
									"numoutlets" : 0,
									"fontsize" : 11.595187,
									"patching_rect" : [ 165.0, 105.0, 69.0, 20.0 ]
								}

							}
, 							{
								"box" : 								{
									"maxclass" : "comment",
									"text" : "Amplitude",
									"id" : "obj-9",
									"fontname" : "Arial",
									"numinlets" : 1,
									"numoutlets" : 0,
									"fontsize" : 11.595187,
									"patching_rect" : [ 437.0, 265.0, 62.0, 20.0 ]
								}

							}
, 							{
								"box" : 								{
									"maxclass" : "comment",
									"text" : "Modulation Index",
									"id" : "obj-10",
									"fontname" : "Arial",
									"numinlets" : 1,
									"numoutlets" : 0,
									"fontsize" : 11.595187,
									"patching_rect" : [ 313.0, 265.0, 99.0, 20.0 ]
								}

							}
, 							{
								"box" : 								{
									"maxclass" : "comment",
									"text" : "Duration",
									"id" : "obj-11",
									"fontname" : "Arial",
									"numinlets" : 1,
									"numoutlets" : 0,
									"fontsize" : 11.595187,
									"patching_rect" : [ 270.0, 75.0, 54.0, 20.0 ]
								}

							}
, 							{
								"box" : 								{
									"maxclass" : "message",
									"text" : "setdomain $1",
									"id" : "obj-12",
									"fontname" : "Arial",
									"numinlets" : 2,
									"numoutlets" : 1,
									"fontsize" : 11.595187,
									"patching_rect" : [ 270.0, 135.0, 80.0, 18.0 ],
									"outlettype" : [ "" ]
								}

							}
, 							{
								"box" : 								{
									"maxclass" : "function",
									"id" : "obj-13",
									"numinlets" : 1,
									"pointcolor" : [ 0.321569, 0.321569, 0.321569, 1.0 ],
									"bordercolor" : [ 0.0, 0.0, 0.0, 1.0 ],
									"numoutlets" : 4,
									"domain" : 322.0,
									"patching_rect" : [ 394.0, 165.0, 121.0, 89.0 ],
									"outlettype" : [ "float", "", "", "bang" ],
									"linecolor" : [ 0.333333, 0.333333, 0.333333, 1.0 ],
									"addpoints" : [ 0.0, 0.0, 0, 5.908257, 0.0, 0, 124.073395, 0.96875, 0, 127.027512, 0.0, 0, 129.981873, 0.0, 0, 283.595825, 0.0, 0, 321.999908, 0.0, 0 ]
								}

							}
, 							{
								"box" : 								{
									"maxclass" : "function",
									"range" : [ 0.0, 24.0 ],
									"id" : "obj-14",
									"numinlets" : 1,
									"pointcolor" : [ 0.321569, 0.321569, 0.321569, 1.0 ],
									"bordercolor" : [ 0.0, 0.0, 0.0, 1.0 ],
									"numoutlets" : 4,
									"domain" : 322.0,
									"patching_rect" : [ 270.0, 165.0, 121.0, 89.0 ],
									"outlettype" : [ "float", "", "", "bang" ],
									"linecolor" : [ 0.333333, 0.333333, 0.333333, 1.0 ],
									"addpoints" : [ 0.0, 24.0, 0, 85.669724, 0.0, 0, 118.165138, 0.0, 0, 124.073395, 0.0, 0, 310.183441, 22.5, 0, 322.0, 0.0, 0, 322.0, 0.0, 0 ]
								}

							}
, 							{
								"box" : 								{
									"maxclass" : "comment",
									"text" : "Harmonicity",
									"id" : "obj-15",
									"fontname" : "Arial",
									"numinlets" : 1,
									"numoutlets" : 0,
									"fontsize" : 11.595187,
									"patching_rect" : [ 126.0, 215.0, 72.0, 20.0 ]
								}

							}
, 							{
								"box" : 								{
									"maxclass" : "newobj",
									"text" : "line~",
									"id" : "obj-17",
									"fontname" : "Arial",
									"numinlets" : 2,
									"numoutlets" : 2,
									"fontsize" : 11.595187,
									"patching_rect" : [ 270.0, 265.0, 35.0, 20.0 ],
									"outlettype" : [ "signal", "bang" ]
								}

							}
, 							{
								"box" : 								{
									"maxclass" : "newobj",
									"text" : "line~",
									"id" : "obj-18",
									"fontname" : "Arial",
									"numinlets" : 2,
									"numoutlets" : 2,
									"fontsize" : 11.595187,
									"patching_rect" : [ 270.0, 315.0, 35.0, 20.0 ],
									"outlettype" : [ "signal", "bang" ]
								}

							}
, 							{
								"box" : 								{
									"maxclass" : "newobj",
									"text" : "*~",
									"id" : "obj-19",
									"fontname" : "Arial",
									"numinlets" : 2,
									"numoutlets" : 1,
									"fontsize" : 11.595187,
									"patching_rect" : [ 45.0, 390.0, 32.5, 20.0 ],
									"outlettype" : [ "signal" ]
								}

							}
, 							{
								"box" : 								{
									"maxclass" : "flonum",
									"id" : "obj-20",
									"fontname" : "Arial",
									"bgcolor" : [ 0.866667, 0.866667, 0.866667, 1.0 ],
									"minimum" : 0.0,
									"numinlets" : 1,
									"triscale" : 0.9,
									"numoutlets" : 2,
									"fontsize" : 11.595187,
									"patching_rect" : [ 124.0, 239.0, 59.0, 20.0 ],
									"outlettype" : [ "float", "bang" ],
									"htextcolor" : [ 0.870588, 0.870588, 0.870588, 1.0 ]
								}

							}
, 							{
								"box" : 								{
									"maxclass" : "flonum",
									"id" : "obj-21",
									"fontname" : "Arial",
									"bgcolor" : [ 0.866667, 0.866667, 0.866667, 1.0 ],
									"minimum" : 0.0,
									"numinlets" : 1,
									"triscale" : 0.9,
									"numoutlets" : 2,
									"fontsize" : 11.595187,
									"patching_rect" : [ 46.0, 239.0, 59.0, 20.0 ],
									"outlettype" : [ "float", "bang" ],
									"htextcolor" : [ 0.870588, 0.870588, 0.870588, 1.0 ]
								}

							}
, 							{
								"box" : 								{
									"maxclass" : "newobj",
									"text" : "simpleFM~",
									"id" : "obj-22",
									"fontname" : "Arial",
									"numinlets" : 3,
									"numoutlets" : 1,
									"fontsize" : 11.595187,
									"patching_rect" : [ 46.0, 305.0, 174.0, 20.0 ],
									"outlettype" : [ "signal" ]
								}

							}
, 							{
								"box" : 								{
									"maxclass" : "comment",
									"text" : "Carrier Freq.",
									"id" : "obj-23",
									"fontname" : "Arial",
									"numinlets" : 1,
									"numoutlets" : 0,
									"fontsize" : 11.595187,
									"patching_rect" : [ 48.0, 215.0, 76.0, 20.0 ]
								}

							}
, 							{
								"box" : 								{
									"maxclass" : "flonum",
									"id" : "obj-24",
									"fontname" : "Arial",
									"bgcolor" : [ 0.866667, 0.866667, 0.866667, 1.0 ],
									"minimum" : 0.0,
									"numinlets" : 1,
									"triscale" : 0.9,
									"numoutlets" : 2,
									"fontsize" : 11.595187,
									"patching_rect" : [ 270.0, 105.0, 59.0, 20.0 ],
									"outlettype" : [ "float", "bang" ],
									"htextcolor" : [ 0.870588, 0.870588, 0.870588, 1.0 ]
								}

							}
 ],
						"lines" : [ 							{
								"patchline" : 								{
									"source" : [ "obj-26", 0 ],
									"destination" : [ "obj-20", 0 ],
									"hidden" : 0,
									"midpoints" : [  ]
								}

							}
, 							{
								"patchline" : 								{
									"source" : [ "obj-25", 0 ],
									"destination" : [ "obj-21", 0 ],
									"hidden" : 0,
									"midpoints" : [  ]
								}

							}
, 							{
								"patchline" : 								{
									"source" : [ "obj-16", 0 ],
									"destination" : [ "obj-7", 0 ],
									"hidden" : 0,
									"midpoints" : [  ]
								}

							}
, 							{
								"patchline" : 								{
									"source" : [ "obj-19", 0 ],
									"destination" : [ "obj-1", 0 ],
									"hidden" : 0,
									"midpoints" : [  ]
								}

							}
, 							{
								"patchline" : 								{
									"source" : [ "obj-12", 0 ],
									"destination" : [ "obj-13", 0 ],
									"hidden" : 0,
									"midpoints" : [ 279.5, 161.0, 403.5, 161.0 ]
								}

							}
, 							{
								"patchline" : 								{
									"source" : [ "obj-7", 0 ],
									"destination" : [ "obj-13", 0 ],
									"hidden" : 0,
									"midpoints" : [ 249.5, 161.0, 403.5, 161.0 ]
								}

							}
, 							{
								"patchline" : 								{
									"source" : [ "obj-18", 0 ],
									"destination" : [ "obj-19", 1 ],
									"hidden" : 0,
									"midpoints" : [  ]
								}

							}
, 							{
								"patchline" : 								{
									"source" : [ "obj-13", 1 ],
									"destination" : [ "obj-18", 0 ],
									"hidden" : 0,
									"midpoints" : [ 437.5, 301.0, 279.5, 301.0 ]
								}

							}
, 							{
								"patchline" : 								{
									"source" : [ "obj-17", 0 ],
									"destination" : [ "obj-22", 2 ],
									"hidden" : 0,
									"midpoints" : [  ]
								}

							}
, 							{
								"patchline" : 								{
									"source" : [ "obj-14", 1 ],
									"destination" : [ "obj-17", 0 ],
									"hidden" : 0,
									"midpoints" : [ 313.5, 256.0, 281.0, 256.0, 281.0, 262.0, 279.5, 262.0 ]
								}

							}
, 							{
								"patchline" : 								{
									"source" : [ "obj-7", 0 ],
									"destination" : [ "obj-14", 0 ],
									"hidden" : 0,
									"midpoints" : [ 249.5, 161.0, 279.5, 161.0 ]
								}

							}
, 							{
								"patchline" : 								{
									"source" : [ "obj-12", 0 ],
									"destination" : [ "obj-14", 0 ],
									"hidden" : 0,
									"midpoints" : [  ]
								}

							}
, 							{
								"patchline" : 								{
									"source" : [ "obj-24", 0 ],
									"destination" : [ "obj-12", 0 ],
									"hidden" : 0,
									"midpoints" : [  ]
								}

							}
, 							{
								"patchline" : 								{
									"source" : [ "obj-3", 0 ],
									"destination" : [ "obj-22", 1 ],
									"hidden" : 0,
									"midpoints" : [  ]
								}

							}
, 							{
								"patchline" : 								{
									"source" : [ "obj-20", 0 ],
									"destination" : [ "obj-3", 0 ],
									"hidden" : 0,
									"midpoints" : [  ]
								}

							}
, 							{
								"patchline" : 								{
									"source" : [ "obj-22", 0 ],
									"destination" : [ "obj-19", 0 ],
									"hidden" : 0,
									"midpoints" : [  ]
								}

							}
, 							{
								"patchline" : 								{
									"source" : [ "obj-4", 0 ],
									"destination" : [ "obj-22", 0 ],
									"hidden" : 0,
									"midpoints" : [  ]
								}

							}
, 							{
								"patchline" : 								{
									"source" : [ "obj-21", 0 ],
									"destination" : [ "obj-4", 0 ],
									"hidden" : 0,
									"midpoints" : [  ]
								}

							}
 ]
					}
,
					"saved_object_attributes" : 					{
						"default_fontname" : "Arial",
						"fontname" : "Arial",
						"default_fontsize" : 12.0,
						"globalpatchername" : "",
						"fontface" : 0,
						"fontsize" : 12.0,
						"default_fontface" : 0
					}

				}

			}
, 			{
				"box" : 				{
					"maxclass" : "comment",
					"text" : "SCALE SEQUENCER v0.2",
					"id" : "obj-117",
					"fontname" : "Arial",
					"numinlets" : 1,
					"numoutlets" : 0,
					"fontface" : 3,
					"fontsize" : 16.0,
					"patching_rect" : [ 15.0, 30.0, 224.0, 25.0 ]
				}

			}
, 			{
				"box" : 				{
					"maxclass" : "comment",
					"text" : "BASS",
					"id" : "obj-112",
					"fontname" : "Arial",
					"numinlets" : 1,
					"numoutlets" : 0,
					"fontface" : 1,
					"fontsize" : 16.0,
					"patching_rect" : [ 15.0, 135.0, 59.0, 25.0 ]
				}

			}
, 			{
				"box" : 				{
					"maxclass" : "newobj",
					"text" : "p mtof",
					"id" : "obj-110",
					"fontname" : "Arial",
					"numinlets" : 1,
					"numoutlets" : 1,
					"fontsize" : 12.0,
					"patching_rect" : [ 585.0, 105.0, 44.0, 20.0 ],
					"outlettype" : [ "" ],
					"patcher" : 					{
						"fileversion" : 1,
						"rect" : [ 29.0, 69.0, 640.0, 480.0 ],
						"bglocked" : 0,
						"defrect" : [ 29.0, 69.0, 640.0, 480.0 ],
						"openrect" : [ 0.0, 0.0, 0.0, 0.0 ],
						"openinpresentation" : 0,
						"default_fontsize" : 12.0,
						"default_fontface" : 0,
						"default_fontname" : "Arial",
						"gridonopen" : 0,
						"gridsize" : [ 15.0, 15.0 ],
						"gridsnaponopen" : 0,
						"toolbarvisible" : 1,
						"boxanimatetime" : 200,
						"imprint" : 0,
						"metadata" : [  ],
						"boxes" : [ 							{
								"box" : 								{
									"maxclass" : "outlet",
									"id" : "obj-3",
									"numinlets" : 1,
									"numoutlets" : 0,
									"patching_rect" : [ 114.0, 167.0, 25.0, 25.0 ],
									"comment" : ""
								}

							}
, 							{
								"box" : 								{
									"maxclass" : "newobj",
									"text" : "if $i1>10 then $i1 else 0",
									"id" : "obj-96",
									"fontname" : "Arial",
									"numinlets" : 1,
									"numoutlets" : 1,
									"fontsize" : 12.0,
									"patching_rect" : [ 117.0, 138.0, 138.0, 20.0 ],
									"outlettype" : [ "" ]
								}

							}
, 							{
								"box" : 								{
									"maxclass" : "newobj",
									"text" : "mtof",
									"id" : "obj-2",
									"fontname" : "Arial",
									"numinlets" : 1,
									"numoutlets" : 1,
									"fontsize" : 12.0,
									"patching_rect" : [ 116.0, 105.0, 34.0, 20.0 ],
									"outlettype" : [ "" ]
								}

							}
, 							{
								"box" : 								{
									"maxclass" : "inlet",
									"id" : "obj-1",
									"numinlets" : 0,
									"numoutlets" : 1,
									"patching_rect" : [ 116.0, 66.0, 25.0, 25.0 ],
									"outlettype" : [ "int" ],
									"comment" : ""
								}

							}
 ],
						"lines" : [ 							{
								"patchline" : 								{
									"source" : [ "obj-1", 0 ],
									"destination" : [ "obj-2", 0 ],
									"hidden" : 0,
									"midpoints" : [  ]
								}

							}
, 							{
								"patchline" : 								{
									"source" : [ "obj-2", 0 ],
									"destination" : [ "obj-96", 0 ],
									"hidden" : 0,
									"midpoints" : [  ]
								}

							}
, 							{
								"patchline" : 								{
									"source" : [ "obj-96", 0 ],
									"destination" : [ "obj-3", 0 ],
									"hidden" : 0,
									"midpoints" : [  ]
								}

							}
 ]
					}
,
					"saved_object_attributes" : 					{
						"default_fontname" : "Arial",
						"fontname" : "Arial",
						"default_fontsize" : 12.0,
						"globalpatchername" : "",
						"fontface" : 0,
						"fontsize" : 12.0,
						"default_fontface" : 0
					}

				}

			}
, 			{
				"box" : 				{
					"maxclass" : "newobj",
					"text" : "p timing",
					"id" : "obj-109",
					"fontname" : "Arial",
					"numinlets" : 2,
					"hidden" : 1,
					"numoutlets" : 2,
					"fontsize" : 12.0,
					"patching_rect" : [ 15.0, 105.0, 53.0, 20.0 ],
					"outlettype" : [ "", "int" ],
					"patcher" : 					{
						"fileversion" : 1,
						"rect" : [ 490.0, 292.0, 640.0, 480.0 ],
						"bglocked" : 0,
						"defrect" : [ 490.0, 292.0, 640.0, 480.0 ],
						"openrect" : [ 0.0, 0.0, 0.0, 0.0 ],
						"openinpresentation" : 0,
						"default_fontsize" : 12.0,
						"default_fontface" : 0,
						"default_fontname" : "Arial",
						"gridonopen" : 0,
						"gridsize" : [ 15.0, 15.0 ],
						"gridsnaponopen" : 0,
						"toolbarvisible" : 1,
						"boxanimatetime" : 200,
						"imprint" : 0,
						"metadata" : [  ],
						"boxes" : [ 							{
								"box" : 								{
									"maxclass" : "outlet",
									"id" : "obj-4",
									"numinlets" : 1,
									"numoutlets" : 0,
									"patching_rect" : [ 45.0, 165.0, 25.0, 25.0 ],
									"comment" : ""
								}

							}
, 							{
								"box" : 								{
									"maxclass" : "outlet",
									"id" : "obj-3",
									"numinlets" : 1,
									"numoutlets" : 0,
									"patching_rect" : [ 30.0, 225.0, 25.0, 25.0 ],
									"comment" : ""
								}

							}
, 							{
								"box" : 								{
									"maxclass" : "inlet",
									"id" : "obj-2",
									"numinlets" : 0,
									"numoutlets" : 1,
									"patching_rect" : [ 60.0, 15.0, 25.0, 25.0 ],
									"outlettype" : [ "int" ],
									"comment" : ""
								}

							}
, 							{
								"box" : 								{
									"maxclass" : "inlet",
									"id" : "obj-1",
									"numinlets" : 0,
									"numoutlets" : 1,
									"patching_rect" : [ 30.0, 15.0, 25.0, 25.0 ],
									"outlettype" : [ "int" ],
									"comment" : ""
								}

							}
, 							{
								"box" : 								{
									"maxclass" : "newobj",
									"text" : "tempo",
									"id" : "obj-77",
									"fontname" : "Arial",
									"numinlets" : 4,
									"hidden" : 1,
									"numoutlets" : 1,
									"fontsize" : 12.0,
									"patching_rect" : [ 30.0, 45.0, 109.5, 20.0 ],
									"outlettype" : [ "int" ]
								}

							}
, 							{
								"box" : 								{
									"maxclass" : "newobj",
									"text" : "prepend fetch",
									"id" : "obj-78",
									"fontname" : "Arial",
									"numinlets" : 1,
									"hidden" : 1,
									"numoutlets" : 1,
									"fontsize" : 12.0,
									"patching_rect" : [ 30.0, 195.0, 84.0, 20.0 ],
									"outlettype" : [ "" ]
								}

							}
, 							{
								"box" : 								{
									"maxclass" : "number",
									"id" : "obj-79",
									"fontname" : "Arial",
									"numinlets" : 1,
									"hidden" : 1,
									"numoutlets" : 2,
									"fontsize" : 12.0,
									"patching_rect" : [ 30.0, 135.0, 50.0, 20.0 ],
									"outlettype" : [ "int", "bang" ]
								}

							}
, 							{
								"box" : 								{
									"maxclass" : "newobj",
									"text" : "counter 1 16",
									"id" : "obj-80",
									"fontname" : "Arial",
									"numinlets" : 5,
									"hidden" : 1,
									"numoutlets" : 4,
									"fontsize" : 12.0,
									"patching_rect" : [ 30.0, 105.0, 77.0, 20.0 ],
									"outlettype" : [ "int", "", "", "int" ]
								}

							}
, 							{
								"box" : 								{
									"maxclass" : "button",
									"id" : "obj-81",
									"numinlets" : 1,
									"hidden" : 1,
									"numoutlets" : 1,
									"patching_rect" : [ 30.0, 75.0, 20.0, 20.0 ],
									"outlettype" : [ "bang" ]
								}

							}
 ],
						"lines" : [ 							{
								"patchline" : 								{
									"source" : [ "obj-81", 0 ],
									"destination" : [ "obj-80", 0 ],
									"hidden" : 1,
									"midpoints" : [  ]
								}

							}
, 							{
								"patchline" : 								{
									"source" : [ "obj-80", 0 ],
									"destination" : [ "obj-79", 0 ],
									"hidden" : 1,
									"midpoints" : [  ]
								}

							}
, 							{
								"patchline" : 								{
									"source" : [ "obj-79", 0 ],
									"destination" : [ "obj-78", 0 ],
									"hidden" : 1,
									"midpoints" : [  ]
								}

							}
, 							{
								"patchline" : 								{
									"source" : [ "obj-77", 0 ],
									"destination" : [ "obj-81", 0 ],
									"hidden" : 1,
									"midpoints" : [  ]
								}

							}
, 							{
								"patchline" : 								{
									"source" : [ "obj-1", 0 ],
									"destination" : [ "obj-77", 0 ],
									"hidden" : 0,
									"midpoints" : [  ]
								}

							}
, 							{
								"patchline" : 								{
									"source" : [ "obj-2", 0 ],
									"destination" : [ "obj-77", 1 ],
									"hidden" : 0,
									"midpoints" : [  ]
								}

							}
, 							{
								"patchline" : 								{
									"source" : [ "obj-78", 0 ],
									"destination" : [ "obj-3", 0 ],
									"hidden" : 0,
									"midpoints" : [  ]
								}

							}
, 							{
								"patchline" : 								{
									"source" : [ "obj-79", 0 ],
									"destination" : [ "obj-4", 0 ],
									"hidden" : 0,
									"midpoints" : [  ]
								}

							}
 ]
					}
,
					"saved_object_attributes" : 					{
						"default_fontname" : "Arial",
						"fontname" : "Arial",
						"default_fontsize" : 12.0,
						"globalpatchername" : "",
						"fontface" : 0,
						"fontsize" : 12.0,
						"default_fontface" : 0
					}

				}

			}
, 			{
				"box" : 				{
					"maxclass" : "number",
					"id" : "obj-75",
					"fontname" : "Arial",
					"numinlets" : 1,
					"numoutlets" : 2,
					"fontsize" : 12.0,
					"patching_rect" : [ 45.0, 75.0, 50.0, 20.0 ],
					"outlettype" : [ "int", "bang" ]
				}

			}
, 			{
				"box" : 				{
					"maxclass" : "toggle",
					"id" : "obj-76",
					"numinlets" : 1,
					"numoutlets" : 1,
					"patching_rect" : [ 15.0, 75.0, 20.0, 20.0 ],
					"outlettype" : [ "int" ]
				}

			}
, 			{
				"box" : 				{
					"maxclass" : "newobj",
					"text" : "select 1 2 3 4 5 6 7 8 9 10 11 12 13 14 15 16",
					"id" : "obj-74",
					"fontname" : "Arial",
					"numinlets" : 1,
					"hidden" : 1,
					"numoutlets" : 17,
					"fontsize" : 12.0,
					"patching_rect" : [ 105.0, 30.0, 249.0, 20.0 ],
					"outlettype" : [ "bang", "bang", "bang", "bang", "bang", "bang", "bang", "bang", "bang", "bang", "bang", "bang", "bang", "bang", "bang", "bang", "" ]
				}

			}
, 			{
				"box" : 				{
					"maxclass" : "button",
					"id" : "obj-38",
					"numinlets" : 1,
					"numoutlets" : 1,
					"patching_rect" : [ 555.0, 75.0, 20.0, 20.0 ],
					"outlettype" : [ "bang" ]
				}

			}
, 			{
				"box" : 				{
					"maxclass" : "button",
					"id" : "obj-39",
					"numinlets" : 1,
					"numoutlets" : 1,
					"patching_rect" : [ 525.0, 75.0, 20.0, 20.0 ],
					"outlettype" : [ "bang" ]
				}

			}
, 			{
				"box" : 				{
					"maxclass" : "button",
					"id" : "obj-40",
					"numinlets" : 1,
					"numoutlets" : 1,
					"patching_rect" : [ 495.0, 75.0, 20.0, 20.0 ],
					"outlettype" : [ "bang" ]
				}

			}
, 			{
				"box" : 				{
					"maxclass" : "button",
					"id" : "obj-41",
					"numinlets" : 1,
					"numoutlets" : 1,
					"patching_rect" : [ 465.0, 75.0, 20.0, 20.0 ],
					"outlettype" : [ "bang" ]
				}

			}
, 			{
				"box" : 				{
					"maxclass" : "button",
					"id" : "obj-42",
					"numinlets" : 1,
					"numoutlets" : 1,
					"patching_rect" : [ 435.0, 75.0, 20.0, 20.0 ],
					"outlettype" : [ "bang" ]
				}

			}
, 			{
				"box" : 				{
					"maxclass" : "button",
					"id" : "obj-43",
					"numinlets" : 1,
					"numoutlets" : 1,
					"patching_rect" : [ 405.0, 75.0, 20.0, 20.0 ],
					"outlettype" : [ "bang" ]
				}

			}
, 			{
				"box" : 				{
					"maxclass" : "button",
					"id" : "obj-44",
					"numinlets" : 1,
					"numoutlets" : 1,
					"patching_rect" : [ 375.0, 75.0, 20.0, 20.0 ],
					"outlettype" : [ "bang" ]
				}

			}
, 			{
				"box" : 				{
					"maxclass" : "button",
					"id" : "obj-45",
					"numinlets" : 1,
					"numoutlets" : 1,
					"patching_rect" : [ 345.0, 75.0, 20.0, 20.0 ],
					"outlettype" : [ "bang" ]
				}

			}
, 			{
				"box" : 				{
					"maxclass" : "button",
					"id" : "obj-32",
					"numinlets" : 1,
					"numoutlets" : 1,
					"patching_rect" : [ 315.0, 75.0, 20.0, 20.0 ],
					"outlettype" : [ "bang" ]
				}

			}
, 			{
				"box" : 				{
					"maxclass" : "button",
					"id" : "obj-35",
					"numinlets" : 1,
					"numoutlets" : 1,
					"patching_rect" : [ 285.0, 75.0, 20.0, 20.0 ],
					"outlettype" : [ "bang" ]
				}

			}
, 			{
				"box" : 				{
					"maxclass" : "button",
					"id" : "obj-36",
					"numinlets" : 1,
					"numoutlets" : 1,
					"patching_rect" : [ 255.0, 75.0, 20.0, 20.0 ],
					"outlettype" : [ "bang" ]
				}

			}
, 			{
				"box" : 				{
					"maxclass" : "button",
					"id" : "obj-37",
					"numinlets" : 1,
					"numoutlets" : 1,
					"patching_rect" : [ 225.0, 75.0, 20.0, 20.0 ],
					"outlettype" : [ "bang" ]
				}

			}
, 			{
				"box" : 				{
					"maxclass" : "button",
					"id" : "obj-30",
					"numinlets" : 1,
					"numoutlets" : 1,
					"patching_rect" : [ 195.0, 75.0, 20.0, 20.0 ],
					"outlettype" : [ "bang" ]
				}

			}
, 			{
				"box" : 				{
					"maxclass" : "button",
					"id" : "obj-26",
					"numinlets" : 1,
					"numoutlets" : 1,
					"patching_rect" : [ 165.0, 75.0, 20.0, 20.0 ],
					"outlettype" : [ "bang" ]
				}

			}
, 			{
				"box" : 				{
					"maxclass" : "button",
					"id" : "obj-20",
					"numinlets" : 1,
					"numoutlets" : 1,
					"patching_rect" : [ 135.0, 75.0, 20.0, 20.0 ],
					"outlettype" : [ "bang" ]
				}

			}
, 			{
				"box" : 				{
					"maxclass" : "button",
					"id" : "obj-11",
					"numinlets" : 1,
					"numoutlets" : 1,
					"patching_rect" : [ 105.0, 75.0, 20.0, 20.0 ],
					"outlettype" : [ "bang" ]
				}

			}
, 			{
				"box" : 				{
					"maxclass" : "multislider",
					"id" : "obj-5",
					"numinlets" : 1,
					"spacing" : 2,
					"slidercolor" : [ 0.258824, 0.258824, 0.258824, 1.0 ],
					"bordercolor" : [ 0.258824, 0.258824, 0.258824, 1.0 ],
					"numoutlets" : 2,
					"setminmax" : [ 1.0, 9.0 ],
					"settype" : 0,
					"patching_rect" : [ 102.0, 105.0, 472.0, 78.0 ],
					"outlettype" : [ "", "" ],
					"setstyle" : 1,
					"size" : 16
				}

			}
, 			{
				"box" : 				{
					"maxclass" : "umenu",
					"types" : [  ],
					"id" : "obj-104",
					"fontname" : "Arial",
					"numinlets" : 1,
					"numoutlets" : 3,
					"fontsize" : 12.0,
					"patching_rect" : [ 675.0, 75.0, 100.0, 20.0 ],
					"outlettype" : [ "int", "", "" ],
					"items" : [ "C", "Major", ",", "C", "Minor", ",", "C#", "Major", ",", "C#", "Minor", ",", "D", "Major", ",", "D", "Minor", ",", "D#", "Major", ",", "D#", "Minor", ",", "E", "Major", ",", "E", "Minor", ",", "F", "Major", ",", "F", "Minor", ",", "F#", "Major", ",", "F#", "Minor", ",", "G", "Major", ",", "G", "Minor", ",", "G#", "Major", ",", "G#", "Minor", ",", "A", "Major", ",", "A", "Minor", ",", "A#", "Major", ",", "A#", "Minor", ",", "B", "Major", ",", "B", "Minor" ]
				}

			}
, 			{
				"box" : 				{
					"maxclass" : "newobj",
					"text" : "p scale",
					"id" : "obj-6",
					"fontname" : "Arial",
					"numinlets" : 2,
					"numoutlets" : 1,
					"fontsize" : 12.0,
					"patching_rect" : [ 585.0, 75.0, 49.0, 20.0 ],
					"outlettype" : [ "int" ],
					"patcher" : 					{
						"fileversion" : 1,
						"rect" : [ 579.0, 327.0, 786.0, 573.0 ],
						"bglocked" : 0,
						"defrect" : [ 579.0, 327.0, 786.0, 573.0 ],
						"openrect" : [ 0.0, 0.0, 0.0, 0.0 ],
						"openinpresentation" : 0,
						"default_fontsize" : 12.0,
						"default_fontface" : 0,
						"default_fontname" : "Arial",
						"gridonopen" : 0,
						"gridsize" : [ 15.0, 15.0 ],
						"gridsnaponopen" : 0,
						"toolbarvisible" : 1,
						"boxanimatetime" : 200,
						"imprint" : 0,
						"metadata" : [  ],
						"boxes" : [ 							{
								"box" : 								{
									"maxclass" : "number",
									"id" : "obj-7",
									"fontname" : "Arial",
									"numinlets" : 1,
									"numoutlets" : 2,
									"fontsize" : 12.0,
									"patching_rect" : [ 598.0, 329.0, 50.0, 20.0 ],
									"outlettype" : [ "int", "bang" ]
								}

							}
, 							{
								"box" : 								{
									"maxclass" : "inlet",
									"id" : "obj-15",
									"numinlets" : 0,
									"numoutlets" : 1,
									"patching_rect" : [ 598.0, 298.0, 25.0, 25.0 ],
									"outlettype" : [ "" ],
									"comment" : ""
								}

							}
, 							{
								"box" : 								{
									"maxclass" : "inlet",
									"id" : "obj-5",
									"numinlets" : 0,
									"numoutlets" : 1,
									"patching_rect" : [ 30.0, 30.0, 25.0, 25.0 ],
									"outlettype" : [ "int" ],
									"comment" : ""
								}

							}
, 							{
								"box" : 								{
									"maxclass" : "outlet",
									"id" : "obj-2",
									"numinlets" : 1,
									"numoutlets" : 0,
									"patching_rect" : [ 495.0, 510.0, 25.0, 25.0 ],
									"comment" : ""
								}

							}
, 							{
								"box" : 								{
									"maxclass" : "button",
									"id" : "obj-115",
									"numinlets" : 1,
									"numoutlets" : 1,
									"patching_rect" : [ 660.0, 316.0, 20.0, 20.0 ],
									"outlettype" : [ "bang" ]
								}

							}
, 							{
								"box" : 								{
									"maxclass" : "comment",
									"text" : "MINOR",
									"id" : "obj-111",
									"fontname" : "Arial",
									"numinlets" : 1,
									"numoutlets" : 0,
									"fontface" : 1,
									"fontsize" : 12.0,
									"patching_rect" : [ 300.0, 120.0, 52.0, 20.0 ]
								}

							}
, 							{
								"box" : 								{
									"maxclass" : "comment",
									"text" : "MAJOR",
									"id" : "obj-109",
									"fontname" : "Arial",
									"numinlets" : 1,
									"numoutlets" : 0,
									"fontface" : 1,
									"fontsize" : 12.0,
									"patching_rect" : [ 60.0, 120.0, 58.0, 20.0 ]
								}

							}
, 							{
								"box" : 								{
									"maxclass" : "newobj",
									"text" : "select 0 1 2 3 4 5 6 7 8 9 10 11 12 13 14 15 16 17 18 19 20 21 22 23",
									"id" : "obj-107",
									"fontname" : "Arial",
									"numinlets" : 1,
									"numoutlets" : 25,
									"fontsize" : 12.0,
									"patching_rect" : [ 30.0, 75.0, 503.0, 20.0 ],
									"outlettype" : [ "bang", "bang", "bang", "bang", "bang", "bang", "bang", "bang", "bang", "bang", "bang", "bang", "bang", "bang", "bang", "bang", "bang", "bang", "bang", "bang", "bang", "bang", "bang", "bang", "" ]
								}

							}
, 							{
								"box" : 								{
									"maxclass" : "newobj",
									"text" : "if $i1>1 then $i1 else 0",
									"id" : "obj-83",
									"fontname" : "Arial",
									"numinlets" : 1,
									"numoutlets" : 1,
									"fontsize" : 12.0,
									"patching_rect" : [ 495.0, 450.0, 131.0, 20.0 ],
									"outlettype" : [ "" ]
								}

							}
, 							{
								"box" : 								{
									"maxclass" : "number",
									"id" : "obj-80",
									"fontname" : "Arial",
									"numinlets" : 1,
									"numoutlets" : 2,
									"fontsize" : 12.0,
									"patching_rect" : [ 495.0, 480.0, 50.0, 20.0 ],
									"outlettype" : [ "int", "bang" ]
								}

							}
, 							{
								"box" : 								{
									"maxclass" : "button",
									"id" : "obj-76",
									"numinlets" : 1,
									"numoutlets" : 1,
									"patching_rect" : [ 705.0, 361.0, 20.0, 20.0 ],
									"outlettype" : [ "bang" ]
								}

							}
, 							{
								"box" : 								{
									"maxclass" : "message",
									"text" : "clear",
									"id" : "obj-72",
									"fontname" : "Arial",
									"numinlets" : 2,
									"numoutlets" : 1,
									"fontsize" : 12.0,
									"patching_rect" : [ 660.0, 361.0, 37.0, 18.0 ],
									"outlettype" : [ "" ]
								}

							}
, 							{
								"box" : 								{
									"maxclass" : "message",
									"text" : "nth 1 $1",
									"id" : "obj-70",
									"fontname" : "Arial",
									"numinlets" : 2,
									"numoutlets" : 1,
									"fontsize" : 12.0,
									"patching_rect" : [ 600.0, 361.0, 54.0, 18.0 ],
									"outlettype" : [ "" ]
								}

							}
, 							{
								"box" : 								{
									"maxclass" : "newobj",
									"text" : "route int",
									"id" : "obj-61",
									"fontname" : "Arial",
									"numinlets" : 1,
									"numoutlets" : 2,
									"fontsize" : 12.0,
									"patching_rect" : [ 495.0, 420.0, 54.0, 20.0 ],
									"outlettype" : [ "", "" ]
								}

							}
, 							{
								"box" : 								{
									"maxclass" : "newobj",
									"text" : "prepend store 1",
									"id" : "obj-57",
									"fontname" : "Arial",
									"numinlets" : 1,
									"numoutlets" : 1,
									"fontsize" : 12.0,
									"patching_rect" : [ 495.0, 360.0, 95.0, 20.0 ],
									"outlettype" : [ "" ]
								}

							}
, 							{
								"box" : 								{
									"maxclass" : "message",
									"text" : "68 70 71 73 75 77 79 80",
									"id" : "obj-45",
									"fontname" : "Arial",
									"numinlets" : 2,
									"numoutlets" : 1,
									"fontsize" : 12.0,
									"patching_rect" : [ 300.0, 390.0, 141.0, 18.0 ],
									"outlettype" : [ "" ]
								}

							}
, 							{
								"box" : 								{
									"maxclass" : "message",
									"text" : "69 71 72 74 76 78 80 81",
									"id" : "obj-47",
									"fontname" : "Arial",
									"numinlets" : 2,
									"numoutlets" : 1,
									"fontsize" : 12.0,
									"patching_rect" : [ 300.0, 420.0, 141.0, 18.0 ],
									"outlettype" : [ "" ]
								}

							}
, 							{
								"box" : 								{
									"maxclass" : "message",
									"text" : "71 73 74 76 78 80 82 83",
									"id" : "obj-51",
									"fontname" : "Arial",
									"numinlets" : 2,
									"numoutlets" : 1,
									"fontsize" : 12.0,
									"patching_rect" : [ 300.0, 480.0, 141.0, 18.0 ],
									"outlettype" : [ "" ]
								}

							}
, 							{
								"box" : 								{
									"maxclass" : "message",
									"text" : "70 72 73 75 77 79 81 82",
									"id" : "obj-54",
									"fontname" : "Arial",
									"numinlets" : 2,
									"numoutlets" : 1,
									"fontsize" : 12.0,
									"patching_rect" : [ 300.0, 450.0, 141.0, 18.0 ],
									"outlettype" : [ "" ]
								}

							}
, 							{
								"box" : 								{
									"maxclass" : "message",
									"text" : "60 62 63 65 67 69 71 72",
									"id" : "obj-27",
									"fontname" : "Arial",
									"numinlets" : 2,
									"numoutlets" : 1,
									"fontsize" : 12.0,
									"patching_rect" : [ 300.0, 150.0, 141.0, 18.0 ],
									"outlettype" : [ "" ]
								}

							}
, 							{
								"box" : 								{
									"maxclass" : "message",
									"text" : "65 67 68 70 72 74 76 77",
									"id" : "obj-30",
									"fontname" : "Arial",
									"numinlets" : 2,
									"numoutlets" : 1,
									"fontsize" : 12.0,
									"patching_rect" : [ 300.0, 300.0, 141.0, 18.0 ],
									"outlettype" : [ "" ]
								}

							}
, 							{
								"box" : 								{
									"maxclass" : "message",
									"text" : "62 64 65 67 69 71 73 74",
									"id" : "obj-31",
									"fontname" : "Arial",
									"numinlets" : 2,
									"numoutlets" : 1,
									"fontsize" : 12.0,
									"patching_rect" : [ 300.0, 210.0, 141.0, 18.0 ],
									"outlettype" : [ "" ]
								}

							}
, 							{
								"box" : 								{
									"maxclass" : "message",
									"text" : "65 67 69 70 72 74 76 77",
									"id" : "obj-23",
									"fontname" : "Arial",
									"numinlets" : 2,
									"numoutlets" : 1,
									"fontsize" : 12.0,
									"patching_rect" : [ 60.0, 300.0, 141.0, 18.0 ],
									"outlettype" : [ "" ]
								}

							}
, 							{
								"box" : 								{
									"maxclass" : "message",
									"text" : "69 71 73 74 76 78 80 81",
									"id" : "obj-24",
									"fontname" : "Arial",
									"numinlets" : 2,
									"numoutlets" : 1,
									"fontsize" : 12.0,
									"patching_rect" : [ 60.0, 420.0, 141.0, 18.0 ],
									"outlettype" : [ "" ]
								}

							}
, 							{
								"box" : 								{
									"maxclass" : "message",
									"text" : "68 70 72 73 75 77 79 80",
									"id" : "obj-21",
									"fontname" : "Arial",
									"numinlets" : 2,
									"numoutlets" : 1,
									"fontsize" : 12.0,
									"patching_rect" : [ 60.0, 390.0, 141.0, 18.0 ],
									"outlettype" : [ "" ]
								}

							}
, 							{
								"box" : 								{
									"maxclass" : "message",
									"text" : "71 73 75 76 78 80 82 83",
									"id" : "obj-22",
									"fontname" : "Arial",
									"numinlets" : 2,
									"numoutlets" : 1,
									"fontsize" : 12.0,
									"patching_rect" : [ 60.0, 480.0, 141.0, 18.0 ],
									"outlettype" : [ "" ]
								}

							}
, 							{
								"box" : 								{
									"maxclass" : "message",
									"text" : "70 72 74 75 77 79 81 82",
									"id" : "obj-19",
									"fontname" : "Arial",
									"numinlets" : 2,
									"numoutlets" : 1,
									"fontsize" : 12.0,
									"patching_rect" : [ 60.0, 450.0, 141.0, 18.0 ],
									"outlettype" : [ "" ]
								}

							}
, 							{
								"box" : 								{
									"maxclass" : "message",
									"text" : "66 68 69 71 73 75 77 78",
									"id" : "obj-20",
									"fontname" : "Arial",
									"numinlets" : 2,
									"numoutlets" : 1,
									"fontsize" : 12.0,
									"patching_rect" : [ 300.0, 330.0, 141.0, 18.0 ],
									"outlettype" : [ "" ]
								}

							}
, 							{
								"box" : 								{
									"maxclass" : "message",
									"text" : "63 65 66 68 70 72 74 75",
									"id" : "obj-18",
									"fontname" : "Arial",
									"numinlets" : 2,
									"numoutlets" : 1,
									"fontsize" : 12.0,
									"patching_rect" : [ 300.0, 240.0, 141.0, 18.0 ],
									"outlettype" : [ "" ]
								}

							}
, 							{
								"box" : 								{
									"maxclass" : "message",
									"text" : "67 69 71 72 74 76 78 79",
									"id" : "obj-16",
									"fontname" : "Arial",
									"numinlets" : 2,
									"numoutlets" : 1,
									"fontsize" : 12.0,
									"patching_rect" : [ 60.0, 360.0, 141.0, 18.0 ],
									"outlettype" : [ "" ]
								}

							}
, 							{
								"box" : 								{
									"maxclass" : "message",
									"text" : "67 69 70 72 74 76 78 79",
									"id" : "obj-13",
									"fontname" : "Arial",
									"numinlets" : 2,
									"numoutlets" : 1,
									"fontsize" : 12.0,
									"patching_rect" : [ 300.0, 360.0, 141.0, 18.0 ],
									"outlettype" : [ "" ]
								}

							}
, 							{
								"box" : 								{
									"maxclass" : "message",
									"text" : "64 66 68 69 71 73 75 76",
									"id" : "obj-14",
									"fontname" : "Arial",
									"numinlets" : 2,
									"numoutlets" : 1,
									"fontsize" : 12.0,
									"patching_rect" : [ 60.0, 270.0, 141.0, 18.0 ],
									"outlettype" : [ "" ]
								}

							}
, 							{
								"box" : 								{
									"maxclass" : "message",
									"text" : "64 66 67 69 71 73 75 76",
									"id" : "obj-11",
									"fontname" : "Arial",
									"numinlets" : 2,
									"numoutlets" : 1,
									"fontsize" : 12.0,
									"patching_rect" : [ 300.0, 270.0, 141.0, 18.0 ],
									"outlettype" : [ "" ]
								}

							}
, 							{
								"box" : 								{
									"maxclass" : "message",
									"text" : "63 65 67 68 70 72 74 75",
									"id" : "obj-12",
									"fontname" : "Arial",
									"numinlets" : 2,
									"numoutlets" : 1,
									"fontsize" : 12.0,
									"patching_rect" : [ 60.0, 240.0, 141.0, 18.0 ],
									"outlettype" : [ "" ]
								}

							}
, 							{
								"box" : 								{
									"maxclass" : "message",
									"text" : "61 63 64 66 68 70 72 73",
									"id" : "obj-9",
									"fontname" : "Arial",
									"numinlets" : 2,
									"numoutlets" : 1,
									"fontsize" : 12.0,
									"patching_rect" : [ 300.0, 180.0, 141.0, 18.0 ],
									"outlettype" : [ "" ]
								}

							}
, 							{
								"box" : 								{
									"maxclass" : "message",
									"text" : "62 64 66 67 69 71 73 74",
									"id" : "obj-10",
									"fontname" : "Arial",
									"numinlets" : 2,
									"numoutlets" : 1,
									"fontsize" : 12.0,
									"patching_rect" : [ 60.0, 210.0, 141.0, 18.0 ],
									"outlettype" : [ "" ]
								}

							}
, 							{
								"box" : 								{
									"maxclass" : "message",
									"text" : "66 68 70 71 73 75 77 78",
									"id" : "obj-8",
									"fontname" : "Arial",
									"numinlets" : 2,
									"numoutlets" : 1,
									"fontsize" : 12.0,
									"patching_rect" : [ 60.0, 330.0, 141.0, 18.0 ],
									"outlettype" : [ "" ]
								}

							}
, 							{
								"box" : 								{
									"maxclass" : "message",
									"text" : "61 63 65 66 68 70 72 73",
									"id" : "obj-6",
									"fontname" : "Arial",
									"numinlets" : 2,
									"numoutlets" : 1,
									"fontsize" : 12.0,
									"patching_rect" : [ 60.0, 180.0, 141.0, 18.0 ],
									"outlettype" : [ "" ]
								}

							}
, 							{
								"box" : 								{
									"maxclass" : "message",
									"text" : "60 62 64 65 67 69 71 72",
									"id" : "obj-4",
									"fontname" : "Arial",
									"numinlets" : 2,
									"numoutlets" : 1,
									"fontsize" : 12.0,
									"patching_rect" : [ 60.0, 150.0, 141.0, 18.0 ],
									"outlettype" : [ "" ]
								}

							}
, 							{
								"box" : 								{
									"maxclass" : "newobj",
									"text" : "coll",
									"id" : "obj-1",
									"fontname" : "Arial",
									"numinlets" : 1,
									"numoutlets" : 4,
									"fontsize" : 12.0,
									"patching_rect" : [ 495.0, 390.0, 59.5, 20.0 ],
									"outlettype" : [ "", "", "", "" ],
									"save" : [ "#N", "coll", ";" ],
									"saved_object_attributes" : 									{
										"embed" : 0
									}

								}

							}
, 							{
								"box" : 								{
									"maxclass" : "comment",
									"text" : "B",
									"id" : "obj-44",
									"fontname" : "Arial",
									"numinlets" : 1,
									"numoutlets" : 0,
									"fontface" : 1,
									"fontsize" : 12.0,
									"patching_rect" : [ 30.0, 480.0, 28.0, 20.0 ]
								}

							}
, 							{
								"box" : 								{
									"maxclass" : "comment",
									"text" : "A#",
									"id" : "obj-43",
									"fontname" : "Arial",
									"numinlets" : 1,
									"numoutlets" : 0,
									"fontface" : 1,
									"fontsize" : 12.0,
									"patching_rect" : [ 30.0, 450.0, 28.0, 20.0 ]
								}

							}
, 							{
								"box" : 								{
									"maxclass" : "comment",
									"text" : "A",
									"id" : "obj-42",
									"fontname" : "Arial",
									"numinlets" : 1,
									"numoutlets" : 0,
									"fontface" : 1,
									"fontsize" : 12.0,
									"patching_rect" : [ 30.0, 420.0, 28.0, 20.0 ]
								}

							}
, 							{
								"box" : 								{
									"maxclass" : "comment",
									"text" : "G#",
									"id" : "obj-41",
									"fontname" : "Arial",
									"numinlets" : 1,
									"numoutlets" : 0,
									"fontface" : 1,
									"fontsize" : 12.0,
									"patching_rect" : [ 30.0, 390.0, 28.0, 20.0 ]
								}

							}
, 							{
								"box" : 								{
									"maxclass" : "comment",
									"text" : "G",
									"id" : "obj-40",
									"fontname" : "Arial",
									"numinlets" : 1,
									"numoutlets" : 0,
									"fontface" : 1,
									"fontsize" : 12.0,
									"patching_rect" : [ 30.0, 360.0, 28.0, 20.0 ]
								}

							}
, 							{
								"box" : 								{
									"maxclass" : "comment",
									"text" : "F#",
									"id" : "obj-39",
									"fontname" : "Arial",
									"numinlets" : 1,
									"numoutlets" : 0,
									"fontface" : 1,
									"fontsize" : 12.0,
									"patching_rect" : [ 30.0, 330.0, 28.0, 20.0 ]
								}

							}
, 							{
								"box" : 								{
									"maxclass" : "comment",
									"text" : "F",
									"id" : "obj-38",
									"fontname" : "Arial",
									"numinlets" : 1,
									"numoutlets" : 0,
									"fontface" : 1,
									"fontsize" : 12.0,
									"patching_rect" : [ 30.0, 300.0, 28.0, 20.0 ]
								}

							}
, 							{
								"box" : 								{
									"maxclass" : "comment",
									"text" : "E",
									"id" : "obj-37",
									"fontname" : "Arial",
									"numinlets" : 1,
									"numoutlets" : 0,
									"fontface" : 1,
									"fontsize" : 12.0,
									"patching_rect" : [ 30.0, 270.0, 28.0, 20.0 ]
								}

							}
, 							{
								"box" : 								{
									"maxclass" : "comment",
									"text" : "D#",
									"id" : "obj-36",
									"fontname" : "Arial",
									"numinlets" : 1,
									"numoutlets" : 0,
									"fontface" : 1,
									"fontsize" : 12.0,
									"patching_rect" : [ 30.0, 240.0, 28.0, 20.0 ]
								}

							}
, 							{
								"box" : 								{
									"maxclass" : "comment",
									"text" : "D",
									"id" : "obj-35",
									"fontname" : "Arial",
									"numinlets" : 1,
									"numoutlets" : 0,
									"fontface" : 1,
									"fontsize" : 12.0,
									"patching_rect" : [ 30.0, 210.0, 28.0, 20.0 ]
								}

							}
, 							{
								"box" : 								{
									"maxclass" : "comment",
									"text" : "C#",
									"id" : "obj-34",
									"fontname" : "Arial",
									"numinlets" : 1,
									"numoutlets" : 0,
									"fontface" : 1,
									"fontsize" : 12.0,
									"patching_rect" : [ 30.0, 180.0, 28.0, 20.0 ]
								}

							}
, 							{
								"box" : 								{
									"maxclass" : "comment",
									"text" : "C",
									"id" : "obj-33",
									"fontname" : "Arial",
									"numinlets" : 1,
									"numoutlets" : 0,
									"fontface" : 1,
									"fontsize" : 12.0,
									"patching_rect" : [ 30.0, 150.0, 28.0, 20.0 ]
								}

							}
 ],
						"lines" : [ 							{
								"patchline" : 								{
									"source" : [ "obj-5", 0 ],
									"destination" : [ "obj-115", 0 ],
									"hidden" : 0,
									"midpoints" : [  ]
								}

							}
, 							{
								"patchline" : 								{
									"source" : [ "obj-5", 0 ],
									"destination" : [ "obj-107", 0 ],
									"hidden" : 0,
									"midpoints" : [  ]
								}

							}
, 							{
								"patchline" : 								{
									"source" : [ "obj-115", 0 ],
									"destination" : [ "obj-72", 0 ],
									"hidden" : 0,
									"midpoints" : [  ]
								}

							}
, 							{
								"patchline" : 								{
									"source" : [ "obj-51", 0 ],
									"destination" : [ "obj-57", 0 ],
									"hidden" : 0,
									"midpoints" : [  ]
								}

							}
, 							{
								"patchline" : 								{
									"source" : [ "obj-54", 0 ],
									"destination" : [ "obj-57", 0 ],
									"hidden" : 0,
									"midpoints" : [  ]
								}

							}
, 							{
								"patchline" : 								{
									"source" : [ "obj-47", 0 ],
									"destination" : [ "obj-57", 0 ],
									"hidden" : 0,
									"midpoints" : [  ]
								}

							}
, 							{
								"patchline" : 								{
									"source" : [ "obj-45", 0 ],
									"destination" : [ "obj-57", 0 ],
									"hidden" : 0,
									"midpoints" : [  ]
								}

							}
, 							{
								"patchline" : 								{
									"source" : [ "obj-13", 0 ],
									"destination" : [ "obj-57", 0 ],
									"hidden" : 0,
									"midpoints" : [  ]
								}

							}
, 							{
								"patchline" : 								{
									"source" : [ "obj-20", 0 ],
									"destination" : [ "obj-57", 0 ],
									"hidden" : 0,
									"midpoints" : [  ]
								}

							}
, 							{
								"patchline" : 								{
									"source" : [ "obj-30", 0 ],
									"destination" : [ "obj-57", 0 ],
									"hidden" : 0,
									"midpoints" : [  ]
								}

							}
, 							{
								"patchline" : 								{
									"source" : [ "obj-11", 0 ],
									"destination" : [ "obj-57", 0 ],
									"hidden" : 0,
									"midpoints" : [  ]
								}

							}
, 							{
								"patchline" : 								{
									"source" : [ "obj-18", 0 ],
									"destination" : [ "obj-57", 0 ],
									"hidden" : 0,
									"midpoints" : [  ]
								}

							}
, 							{
								"patchline" : 								{
									"source" : [ "obj-31", 0 ],
									"destination" : [ "obj-57", 0 ],
									"hidden" : 0,
									"midpoints" : [  ]
								}

							}
, 							{
								"patchline" : 								{
									"source" : [ "obj-9", 0 ],
									"destination" : [ "obj-57", 0 ],
									"hidden" : 0,
									"midpoints" : [  ]
								}

							}
, 							{
								"patchline" : 								{
									"source" : [ "obj-27", 0 ],
									"destination" : [ "obj-57", 0 ],
									"hidden" : 0,
									"midpoints" : [  ]
								}

							}
, 							{
								"patchline" : 								{
									"source" : [ "obj-22", 0 ],
									"destination" : [ "obj-57", 0 ],
									"hidden" : 0,
									"midpoints" : [  ]
								}

							}
, 							{
								"patchline" : 								{
									"source" : [ "obj-19", 0 ],
									"destination" : [ "obj-57", 0 ],
									"hidden" : 0,
									"midpoints" : [  ]
								}

							}
, 							{
								"patchline" : 								{
									"source" : [ "obj-24", 0 ],
									"destination" : [ "obj-57", 0 ],
									"hidden" : 0,
									"midpoints" : [  ]
								}

							}
, 							{
								"patchline" : 								{
									"source" : [ "obj-21", 0 ],
									"destination" : [ "obj-57", 0 ],
									"hidden" : 0,
									"midpoints" : [  ]
								}

							}
, 							{
								"patchline" : 								{
									"source" : [ "obj-16", 0 ],
									"destination" : [ "obj-57", 0 ],
									"hidden" : 0,
									"midpoints" : [  ]
								}

							}
, 							{
								"patchline" : 								{
									"source" : [ "obj-8", 0 ],
									"destination" : [ "obj-57", 0 ],
									"hidden" : 0,
									"midpoints" : [  ]
								}

							}
, 							{
								"patchline" : 								{
									"source" : [ "obj-23", 0 ],
									"destination" : [ "obj-57", 0 ],
									"hidden" : 0,
									"midpoints" : [  ]
								}

							}
, 							{
								"patchline" : 								{
									"source" : [ "obj-14", 0 ],
									"destination" : [ "obj-57", 0 ],
									"hidden" : 0,
									"midpoints" : [  ]
								}

							}
, 							{
								"patchline" : 								{
									"source" : [ "obj-12", 0 ],
									"destination" : [ "obj-57", 0 ],
									"hidden" : 0,
									"midpoints" : [  ]
								}

							}
, 							{
								"patchline" : 								{
									"source" : [ "obj-10", 0 ],
									"destination" : [ "obj-57", 0 ],
									"hidden" : 0,
									"midpoints" : [  ]
								}

							}
, 							{
								"patchline" : 								{
									"source" : [ "obj-6", 0 ],
									"destination" : [ "obj-57", 0 ],
									"hidden" : 0,
									"midpoints" : [  ]
								}

							}
, 							{
								"patchline" : 								{
									"source" : [ "obj-4", 0 ],
									"destination" : [ "obj-57", 0 ],
									"hidden" : 0,
									"midpoints" : [  ]
								}

							}
, 							{
								"patchline" : 								{
									"source" : [ "obj-107", 23 ],
									"destination" : [ "obj-51", 0 ],
									"hidden" : 0,
									"midpoints" : [  ]
								}

							}
, 							{
								"patchline" : 								{
									"source" : [ "obj-107", 22 ],
									"destination" : [ "obj-22", 0 ],
									"hidden" : 0,
									"midpoints" : [  ]
								}

							}
, 							{
								"patchline" : 								{
									"source" : [ "obj-107", 21 ],
									"destination" : [ "obj-54", 0 ],
									"hidden" : 0,
									"midpoints" : [  ]
								}

							}
, 							{
								"patchline" : 								{
									"source" : [ "obj-107", 20 ],
									"destination" : [ "obj-19", 0 ],
									"hidden" : 0,
									"midpoints" : [  ]
								}

							}
, 							{
								"patchline" : 								{
									"source" : [ "obj-107", 19 ],
									"destination" : [ "obj-47", 0 ],
									"hidden" : 0,
									"midpoints" : [  ]
								}

							}
, 							{
								"patchline" : 								{
									"source" : [ "obj-107", 18 ],
									"destination" : [ "obj-24", 0 ],
									"hidden" : 0,
									"midpoints" : [  ]
								}

							}
, 							{
								"patchline" : 								{
									"source" : [ "obj-107", 17 ],
									"destination" : [ "obj-45", 0 ],
									"hidden" : 0,
									"midpoints" : [  ]
								}

							}
, 							{
								"patchline" : 								{
									"source" : [ "obj-107", 16 ],
									"destination" : [ "obj-21", 0 ],
									"hidden" : 0,
									"midpoints" : [  ]
								}

							}
, 							{
								"patchline" : 								{
									"source" : [ "obj-107", 15 ],
									"destination" : [ "obj-13", 0 ],
									"hidden" : 0,
									"midpoints" : [  ]
								}

							}
, 							{
								"patchline" : 								{
									"source" : [ "obj-107", 14 ],
									"destination" : [ "obj-16", 0 ],
									"hidden" : 0,
									"midpoints" : [  ]
								}

							}
, 							{
								"patchline" : 								{
									"source" : [ "obj-107", 13 ],
									"destination" : [ "obj-20", 0 ],
									"hidden" : 0,
									"midpoints" : [  ]
								}

							}
, 							{
								"patchline" : 								{
									"source" : [ "obj-107", 12 ],
									"destination" : [ "obj-8", 0 ],
									"hidden" : 0,
									"midpoints" : [  ]
								}

							}
, 							{
								"patchline" : 								{
									"source" : [ "obj-107", 11 ],
									"destination" : [ "obj-30", 0 ],
									"hidden" : 0,
									"midpoints" : [  ]
								}

							}
, 							{
								"patchline" : 								{
									"source" : [ "obj-107", 10 ],
									"destination" : [ "obj-23", 0 ],
									"hidden" : 0,
									"midpoints" : [  ]
								}

							}
, 							{
								"patchline" : 								{
									"source" : [ "obj-107", 9 ],
									"destination" : [ "obj-11", 0 ],
									"hidden" : 0,
									"midpoints" : [  ]
								}

							}
, 							{
								"patchline" : 								{
									"source" : [ "obj-107", 8 ],
									"destination" : [ "obj-14", 0 ],
									"hidden" : 0,
									"midpoints" : [  ]
								}

							}
, 							{
								"patchline" : 								{
									"source" : [ "obj-107", 7 ],
									"destination" : [ "obj-18", 0 ],
									"hidden" : 0,
									"midpoints" : [  ]
								}

							}
, 							{
								"patchline" : 								{
									"source" : [ "obj-107", 6 ],
									"destination" : [ "obj-12", 0 ],
									"hidden" : 0,
									"midpoints" : [  ]
								}

							}
, 							{
								"patchline" : 								{
									"source" : [ "obj-107", 5 ],
									"destination" : [ "obj-31", 0 ],
									"hidden" : 0,
									"midpoints" : [  ]
								}

							}
, 							{
								"patchline" : 								{
									"source" : [ "obj-107", 4 ],
									"destination" : [ "obj-10", 0 ],
									"hidden" : 0,
									"midpoints" : [  ]
								}

							}
, 							{
								"patchline" : 								{
									"source" : [ "obj-107", 3 ],
									"destination" : [ "obj-9", 0 ],
									"hidden" : 0,
									"midpoints" : [  ]
								}

							}
, 							{
								"patchline" : 								{
									"source" : [ "obj-107", 2 ],
									"destination" : [ "obj-6", 0 ],
									"hidden" : 0,
									"midpoints" : [  ]
								}

							}
, 							{
								"patchline" : 								{
									"source" : [ "obj-107", 1 ],
									"destination" : [ "obj-27", 0 ],
									"hidden" : 0,
									"midpoints" : [  ]
								}

							}
, 							{
								"patchline" : 								{
									"source" : [ "obj-107", 0 ],
									"destination" : [ "obj-4", 0 ],
									"hidden" : 0,
									"midpoints" : [  ]
								}

							}
, 							{
								"patchline" : 								{
									"source" : [ "obj-57", 0 ],
									"destination" : [ "obj-1", 0 ],
									"hidden" : 0,
									"midpoints" : [  ]
								}

							}
, 							{
								"patchline" : 								{
									"source" : [ "obj-76", 0 ],
									"destination" : [ "obj-1", 0 ],
									"hidden" : 0,
									"midpoints" : [  ]
								}

							}
, 							{
								"patchline" : 								{
									"source" : [ "obj-72", 0 ],
									"destination" : [ "obj-1", 0 ],
									"hidden" : 0,
									"midpoints" : [  ]
								}

							}
, 							{
								"patchline" : 								{
									"source" : [ "obj-70", 0 ],
									"destination" : [ "obj-1", 0 ],
									"hidden" : 0,
									"midpoints" : [  ]
								}

							}
, 							{
								"patchline" : 								{
									"source" : [ "obj-1", 1 ],
									"destination" : [ "obj-61", 0 ],
									"hidden" : 0,
									"midpoints" : [  ]
								}

							}
, 							{
								"patchline" : 								{
									"source" : [ "obj-1", 0 ],
									"destination" : [ "obj-61", 0 ],
									"hidden" : 0,
									"midpoints" : [  ]
								}

							}
, 							{
								"patchline" : 								{
									"source" : [ "obj-80", 0 ],
									"destination" : [ "obj-2", 0 ],
									"hidden" : 0,
									"midpoints" : [  ]
								}

							}
, 							{
								"patchline" : 								{
									"source" : [ "obj-61", 0 ],
									"destination" : [ "obj-83", 0 ],
									"hidden" : 0,
									"midpoints" : [  ]
								}

							}
, 							{
								"patchline" : 								{
									"source" : [ "obj-83", 0 ],
									"destination" : [ "obj-80", 0 ],
									"hidden" : 0,
									"midpoints" : [  ]
								}

							}
, 							{
								"patchline" : 								{
									"source" : [ "obj-7", 0 ],
									"destination" : [ "obj-76", 0 ],
									"hidden" : 0,
									"midpoints" : [  ]
								}

							}
, 							{
								"patchline" : 								{
									"source" : [ "obj-7", 0 ],
									"destination" : [ "obj-70", 0 ],
									"hidden" : 0,
									"midpoints" : [  ]
								}

							}
, 							{
								"patchline" : 								{
									"source" : [ "obj-15", 0 ],
									"destination" : [ "obj-7", 0 ],
									"hidden" : 0,
									"midpoints" : [  ]
								}

							}
 ]
					}
,
					"saved_object_attributes" : 					{
						"default_fontname" : "Arial",
						"fontname" : "Arial",
						"default_fontsize" : 12.0,
						"globalpatchername" : "",
						"fontface" : 0,
						"fontsize" : 12.0,
						"default_fontface" : 0
					}

				}

			}
, 			{
				"box" : 				{
					"maxclass" : "panel",
					"id" : "obj-71",
					"bgcolor" : [ 0.258824, 0.258824, 0.258824, 1.0 ],
					"numinlets" : 1,
					"numoutlets" : 0,
					"patching_rect" : [ 102.0, 71.0, 118.0, 28.0 ]
				}

			}
, 			{
				"box" : 				{
					"maxclass" : "panel",
					"id" : "obj-73",
					"bgcolor" : [ 0.258824, 0.258824, 0.258824, 1.0 ],
					"numinlets" : 1,
					"numoutlets" : 0,
					"patching_rect" : [ 341.0, 71.0, 118.0, 28.0 ]
				}

			}
 ],
		"lines" : [ 			{
				"patchline" : 				{
					"source" : [ "obj-1", 0 ],
					"destination" : [ "obj-18", 0 ],
					"hidden" : 0,
					"midpoints" : [  ]
				}

			}
, 			{
				"patchline" : 				{
					"source" : [ "obj-5", 1 ],
					"destination" : [ "obj-4", 0 ],
					"hidden" : 0,
					"midpoints" : [ 564.5, 183.0, 660.0, 183.0, 660.0, 102.0, 684.5, 102.0 ]
				}

			}
, 			{
				"patchline" : 				{
					"source" : [ "obj-9", 0 ],
					"destination" : [ "obj-1", 1 ],
					"hidden" : 0,
					"midpoints" : [ 684.5, 156.0, 660.0, 156.0, 660.0, 132.0, 617.5, 132.0 ]
				}

			}
, 			{
				"patchline" : 				{
					"source" : [ "obj-110", 0 ],
					"destination" : [ "obj-1", 0 ],
					"hidden" : 0,
					"midpoints" : [  ]
				}

			}
, 			{
				"patchline" : 				{
					"source" : [ "obj-4", 7 ],
					"destination" : [ "obj-1", 2 ],
					"hidden" : 0,
					"midpoints" : [  ]
				}

			}
, 			{
				"patchline" : 				{
					"source" : [ "obj-4", 6 ],
					"destination" : [ "obj-1", 2 ],
					"hidden" : 0,
					"midpoints" : [  ]
				}

			}
, 			{
				"patchline" : 				{
					"source" : [ "obj-4", 5 ],
					"destination" : [ "obj-1", 2 ],
					"hidden" : 0,
					"midpoints" : [  ]
				}

			}
, 			{
				"patchline" : 				{
					"source" : [ "obj-4", 4 ],
					"destination" : [ "obj-1", 2 ],
					"hidden" : 0,
					"midpoints" : [  ]
				}

			}
, 			{
				"patchline" : 				{
					"source" : [ "obj-4", 3 ],
					"destination" : [ "obj-1", 2 ],
					"hidden" : 0,
					"midpoints" : [  ]
				}

			}
, 			{
				"patchline" : 				{
					"source" : [ "obj-4", 2 ],
					"destination" : [ "obj-1", 2 ],
					"hidden" : 0,
					"midpoints" : [  ]
				}

			}
, 			{
				"patchline" : 				{
					"source" : [ "obj-4", 1 ],
					"destination" : [ "obj-1", 2 ],
					"hidden" : 0,
					"midpoints" : [  ]
				}

			}
, 			{
				"patchline" : 				{
					"source" : [ "obj-4", 0 ],
					"destination" : [ "obj-1", 2 ],
					"hidden" : 0,
					"midpoints" : [  ]
				}

			}
, 			{
				"patchline" : 				{
					"source" : [ "obj-104", 0 ],
					"destination" : [ "obj-6", 0 ],
					"hidden" : 0,
					"midpoints" : [ 684.5, 96.0, 645.0, 96.0, 645.0, 72.0, 594.5, 72.0 ]
				}

			}
, 			{
				"patchline" : 				{
					"source" : [ "obj-74", 0 ],
					"destination" : [ "obj-11", 0 ],
					"hidden" : 1,
					"midpoints" : [  ]
				}

			}
, 			{
				"patchline" : 				{
					"source" : [ "obj-74", 1 ],
					"destination" : [ "obj-20", 0 ],
					"hidden" : 1,
					"midpoints" : [  ]
				}

			}
, 			{
				"patchline" : 				{
					"source" : [ "obj-74", 2 ],
					"destination" : [ "obj-26", 0 ],
					"hidden" : 1,
					"midpoints" : [  ]
				}

			}
, 			{
				"patchline" : 				{
					"source" : [ "obj-74", 3 ],
					"destination" : [ "obj-30", 0 ],
					"hidden" : 1,
					"midpoints" : [  ]
				}

			}
, 			{
				"patchline" : 				{
					"source" : [ "obj-74", 4 ],
					"destination" : [ "obj-37", 0 ],
					"hidden" : 1,
					"midpoints" : [  ]
				}

			}
, 			{
				"patchline" : 				{
					"source" : [ "obj-74", 5 ],
					"destination" : [ "obj-36", 0 ],
					"hidden" : 1,
					"midpoints" : [  ]
				}

			}
, 			{
				"patchline" : 				{
					"source" : [ "obj-74", 6 ],
					"destination" : [ "obj-35", 0 ],
					"hidden" : 1,
					"midpoints" : [  ]
				}

			}
, 			{
				"patchline" : 				{
					"source" : [ "obj-74", 7 ],
					"destination" : [ "obj-32", 0 ],
					"hidden" : 1,
					"midpoints" : [  ]
				}

			}
, 			{
				"patchline" : 				{
					"source" : [ "obj-74", 8 ],
					"destination" : [ "obj-45", 0 ],
					"hidden" : 1,
					"midpoints" : [  ]
				}

			}
, 			{
				"patchline" : 				{
					"source" : [ "obj-74", 9 ],
					"destination" : [ "obj-44", 0 ],
					"hidden" : 1,
					"midpoints" : [  ]
				}

			}
, 			{
				"patchline" : 				{
					"source" : [ "obj-74", 10 ],
					"destination" : [ "obj-43", 0 ],
					"hidden" : 1,
					"midpoints" : [  ]
				}

			}
, 			{
				"patchline" : 				{
					"source" : [ "obj-74", 11 ],
					"destination" : [ "obj-42", 0 ],
					"hidden" : 1,
					"midpoints" : [  ]
				}

			}
, 			{
				"patchline" : 				{
					"source" : [ "obj-74", 12 ],
					"destination" : [ "obj-41", 0 ],
					"hidden" : 1,
					"midpoints" : [  ]
				}

			}
, 			{
				"patchline" : 				{
					"source" : [ "obj-74", 13 ],
					"destination" : [ "obj-40", 0 ],
					"hidden" : 1,
					"midpoints" : [  ]
				}

			}
, 			{
				"patchline" : 				{
					"source" : [ "obj-74", 14 ],
					"destination" : [ "obj-39", 0 ],
					"hidden" : 1,
					"midpoints" : [  ]
				}

			}
, 			{
				"patchline" : 				{
					"source" : [ "obj-74", 15 ],
					"destination" : [ "obj-38", 0 ],
					"hidden" : 1,
					"midpoints" : [  ]
				}

			}
, 			{
				"patchline" : 				{
					"source" : [ "obj-109", 1 ],
					"destination" : [ "obj-74", 0 ],
					"hidden" : 1,
					"midpoints" : [  ]
				}

			}
, 			{
				"patchline" : 				{
					"source" : [ "obj-109", 0 ],
					"destination" : [ "obj-5", 0 ],
					"hidden" : 1,
					"midpoints" : [  ]
				}

			}
, 			{
				"patchline" : 				{
					"source" : [ "obj-75", 0 ],
					"destination" : [ "obj-109", 1 ],
					"hidden" : 1,
					"midpoints" : [  ]
				}

			}
, 			{
				"patchline" : 				{
					"source" : [ "obj-76", 0 ],
					"destination" : [ "obj-109", 0 ],
					"hidden" : 1,
					"midpoints" : [  ]
				}

			}
, 			{
				"patchline" : 				{
					"source" : [ "obj-5", 1 ],
					"destination" : [ "obj-6", 1 ],
					"hidden" : 0,
					"midpoints" : [ 564.5, 183.0, 660.0, 183.0, 660.0, 72.0, 624.5, 72.0 ]
				}

			}
, 			{
				"patchline" : 				{
					"source" : [ "obj-6", 0 ],
					"destination" : [ "obj-110", 0 ],
					"hidden" : 0,
					"midpoints" : [  ]
				}

			}
 ]
	}

}
