{
	"patcher" : 	{
		"fileversion" : 1,
		"rect" : [ 25.0, 69.0, 640.0, 506.0 ],
		"bglocked" : 0,
		"defrect" : [ 25.0, 69.0, 640.0, 506.0 ],
		"openrect" : [ 0.0, 0.0, 0.0, 0.0 ],
		"openinpresentation" : 0,
		"default_fontsize" : 9.0,
		"default_fontface" : 0,
		"default_fontname" : "Arial",
		"gridonopen" : 0,
		"gridsize" : [ 15.0, 15.0 ],
		"gridsnaponopen" : 0,
		"toolbarvisible" : 1,
		"boxanimatetime" : 200,
		"imprint" : 0,
		"metadata" : [  ],
		"boxes" : [ 			{
				"box" : 				{
					"maxclass" : "comment",
					"text" : "Send midi out",
					"numinlets" : 1,
					"numoutlets" : 0,
					"id" : "obj-27",
					"fontname" : "Arial",
					"patching_rect" : [ 195.0, 135.0, 73.0, 18.0 ],
					"fontsize" : 10.0
				}

			}
, 			{
				"box" : 				{
					"maxclass" : "comment",
					"text" : "Sync ext. source",
					"numinlets" : 1,
					"numoutlets" : 0,
					"id" : "obj-25",
					"fontname" : "Arial",
					"patching_rect" : [ 195.0, 105.0, 85.0, 18.0 ],
					"fontsize" : 10.0
				}

			}
, 			{
				"box" : 				{
					"maxclass" : "comment",
					"text" : "Fake clock",
					"numinlets" : 1,
					"numoutlets" : 0,
					"id" : "obj-23",
					"fontname" : "Arial",
					"patching_rect" : [ 195.0, 75.0, 63.0, 18.0 ],
					"fontsize" : 10.0
				}

			}
, 			{
				"box" : 				{
					"maxclass" : "comment",
					"text" : "ON/OFF",
					"numinlets" : 1,
					"numoutlets" : 0,
					"id" : "obj-21",
					"fontname" : "Arial",
					"patching_rect" : [ 45.0, 45.0, 48.0, 18.0 ],
					"fontface" : 1,
					"fontsize" : 10.0
				}

			}
, 			{
				"box" : 				{
					"maxclass" : "flonum",
					"numinlets" : 1,
					"numoutlets" : 2,
					"id" : "obj-19",
					"fontname" : "Arial",
					"outlettype" : [ "float", "bang" ],
					"patching_rect" : [ 135.0, 45.0, 50.0, 18.0 ],
					"fontsize" : 10.0
				}

			}
, 			{
				"box" : 				{
					"maxclass" : "newobj",
					"text" : "midiout",
					"numinlets" : 1,
					"numoutlets" : 0,
					"id" : "obj-17",
					"fontname" : "Arial",
					"patching_rect" : [ 135.0, 135.0, 43.0, 18.0 ],
					"fontsize" : 10.0
				}

			}
, 			{
				"box" : 				{
					"maxclass" : "newobj",
					"text" : "sync~",
					"numinlets" : 1,
					"numoutlets" : 3,
					"id" : "obj-16",
					"fontname" : "Arial",
					"outlettype" : [ "signal", "", "int" ],
					"patching_rect" : [ 105.0, 105.0, 49.0, 18.0 ],
					"fontsize" : 10.0
				}

			}
, 			{
				"box" : 				{
					"maxclass" : "toggle",
					"numinlets" : 1,
					"numoutlets" : 1,
					"id" : "obj-12",
					"outlettype" : [ "int" ],
					"patching_rect" : [ 105.0, 45.0, 20.0, 20.0 ]
				}

			}
, 			{
				"box" : 				{
					"maxclass" : "newobj",
					"text" : "p clock",
					"numinlets" : 2,
					"numoutlets" : 1,
					"id" : "obj-13",
					"fontname" : "Arial",
					"outlettype" : [ "" ],
					"patching_rect" : [ 105.0, 75.0, 49.0, 18.0 ],
					"fontsize" : 10.0,
					"patcher" : 					{
						"fileversion" : 1,
						"rect" : [ 376.0, 134.0, 377.0, 408.0 ],
						"bglocked" : 0,
						"defrect" : [ 376.0, 134.0, 377.0, 408.0 ],
						"openrect" : [ 0.0, 0.0, 0.0, 0.0 ],
						"openinpresentation" : 0,
						"default_fontsize" : 10.0,
						"default_fontface" : 0,
						"default_fontname" : "Arial",
						"gridonopen" : 0,
						"gridsize" : [ 15.0, 15.0 ],
						"gridsnaponopen" : 0,
						"toolbarvisible" : 1,
						"boxanimatetime" : 200,
						"imprint" : 0,
						"metadata" : [  ],
						"boxes" : [ 							{
								"box" : 								{
									"maxclass" : "outlet",
									"numinlets" : 1,
									"numoutlets" : 0,
									"id" : "obj-23",
									"patching_rect" : [ 105.0, 240.0, 25.0, 25.0 ],
									"comment" : ""
								}

							}
, 							{
								"box" : 								{
									"maxclass" : "message",
									"text" : "248",
									"numinlets" : 2,
									"numoutlets" : 1,
									"id" : "obj-22",
									"fontname" : "Arial",
									"outlettype" : [ "" ],
									"patching_rect" : [ 105.0, 195.0, 28.5, 16.0 ],
									"fontsize" : 10.0
								}

							}
, 							{
								"box" : 								{
									"maxclass" : "message",
									"text" : "252",
									"numinlets" : 2,
									"numoutlets" : 1,
									"id" : "obj-20",
									"fontname" : "Arial",
									"outlettype" : [ "" ],
									"patching_rect" : [ 210.0, 195.0, 28.5, 16.0 ],
									"fontsize" : 10.0
								}

							}
, 							{
								"box" : 								{
									"maxclass" : "message",
									"text" : "250",
									"numinlets" : 2,
									"numoutlets" : 1,
									"id" : "obj-18",
									"fontname" : "Arial",
									"outlettype" : [ "" ],
									"patching_rect" : [ 180.0, 195.0, 28.5, 16.0 ],
									"fontsize" : 10.0
								}

							}
, 							{
								"box" : 								{
									"maxclass" : "flonum",
									"numinlets" : 1,
									"numoutlets" : 2,
									"id" : "obj-16",
									"fontname" : "Arial",
									"outlettype" : [ "float", "bang" ],
									"patching_rect" : [ 135.0, 60.0, 41.0, 18.0 ],
									"fontsize" : 10.0
								}

							}
, 							{
								"box" : 								{
									"maxclass" : "flonum",
									"numinlets" : 1,
									"numoutlets" : 2,
									"id" : "obj-14",
									"fontname" : "Arial",
									"outlettype" : [ "float", "bang" ],
									"patching_rect" : [ 135.0, 135.0, 41.0, 18.0 ],
									"fontsize" : 10.0
								}

							}
, 							{
								"box" : 								{
									"maxclass" : "inlet",
									"numinlets" : 0,
									"numoutlets" : 1,
									"id" : "obj-3",
									"outlettype" : [ "float" ],
									"patching_rect" : [ 135.0, 30.0, 25.0, 25.0 ],
									"comment" : ""
								}

							}
, 							{
								"box" : 								{
									"maxclass" : "newobj",
									"text" : "expr 60000./($f1*24.)",
									"numinlets" : 1,
									"numoutlets" : 1,
									"id" : "obj-6",
									"fontname" : "Arial",
									"outlettype" : [ "" ],
									"patching_rect" : [ 135.0, 90.0, 102.0, 18.0 ],
									"fontsize" : 10.0
								}

							}
, 							{
								"box" : 								{
									"maxclass" : "inlet",
									"numinlets" : 0,
									"numoutlets" : 1,
									"id" : "obj-7",
									"outlettype" : [ "int" ],
									"patching_rect" : [ 105.0, 30.0, 25.0, 25.0 ],
									"comment" : ""
								}

							}
, 							{
								"box" : 								{
									"maxclass" : "newobj",
									"text" : "sel 1 0",
									"numinlets" : 1,
									"numoutlets" : 3,
									"id" : "obj-8",
									"fontname" : "Arial",
									"outlettype" : [ "bang", "bang", "" ],
									"patching_rect" : [ 180.0, 165.0, 79.0, 18.0 ],
									"fontsize" : 10.0
								}

							}
, 							{
								"box" : 								{
									"maxclass" : "newobj",
									"text" : "metro 12",
									"numinlets" : 2,
									"numoutlets" : 1,
									"id" : "obj-10",
									"fontname" : "Arial",
									"outlettype" : [ "bang" ],
									"patching_rect" : [ 105.0, 165.0, 49.0, 18.0 ],
									"fontsize" : 10.0
								}

							}
, 							{
								"box" : 								{
									"maxclass" : "toggle",
									"numinlets" : 1,
									"numoutlets" : 1,
									"id" : "obj-11",
									"outlettype" : [ "int" ],
									"patching_rect" : [ 105.0, 60.0, 20.0, 20.0 ]
								}

							}
 ],
						"lines" : [ 							{
								"patchline" : 								{
									"source" : [ "obj-11", 0 ],
									"destination" : [ "obj-10", 0 ],
									"hidden" : 0,
									"midpoints" : [  ]
								}

							}
, 							{
								"patchline" : 								{
									"source" : [ "obj-7", 0 ],
									"destination" : [ "obj-11", 0 ],
									"hidden" : 0,
									"midpoints" : [  ]
								}

							}
, 							{
								"patchline" : 								{
									"source" : [ "obj-11", 0 ],
									"destination" : [ "obj-8", 0 ],
									"hidden" : 0,
									"midpoints" : [ 114.5, 120.0, 189.5, 120.0 ]
								}

							}
, 							{
								"patchline" : 								{
									"source" : [ "obj-3", 0 ],
									"destination" : [ "obj-16", 0 ],
									"hidden" : 0,
									"midpoints" : [  ]
								}

							}
, 							{
								"patchline" : 								{
									"source" : [ "obj-16", 0 ],
									"destination" : [ "obj-6", 0 ],
									"hidden" : 0,
									"midpoints" : [  ]
								}

							}
, 							{
								"patchline" : 								{
									"source" : [ "obj-14", 0 ],
									"destination" : [ "obj-10", 1 ],
									"hidden" : 0,
									"midpoints" : [  ]
								}

							}
, 							{
								"patchline" : 								{
									"source" : [ "obj-6", 0 ],
									"destination" : [ "obj-14", 0 ],
									"hidden" : 0,
									"midpoints" : [  ]
								}

							}
, 							{
								"patchline" : 								{
									"source" : [ "obj-10", 0 ],
									"destination" : [ "obj-22", 0 ],
									"hidden" : 0,
									"midpoints" : [  ]
								}

							}
, 							{
								"patchline" : 								{
									"source" : [ "obj-8", 0 ],
									"destination" : [ "obj-18", 0 ],
									"hidden" : 0,
									"midpoints" : [  ]
								}

							}
, 							{
								"patchline" : 								{
									"source" : [ "obj-8", 1 ],
									"destination" : [ "obj-20", 0 ],
									"hidden" : 0,
									"midpoints" : [  ]
								}

							}
, 							{
								"patchline" : 								{
									"source" : [ "obj-22", 0 ],
									"destination" : [ "obj-23", 0 ],
									"hidden" : 0,
									"midpoints" : [  ]
								}

							}
, 							{
								"patchline" : 								{
									"source" : [ "obj-18", 0 ],
									"destination" : [ "obj-23", 0 ],
									"hidden" : 0,
									"midpoints" : [ 189.5, 225.0, 114.5, 225.0 ]
								}

							}
, 							{
								"patchline" : 								{
									"source" : [ "obj-20", 0 ],
									"destination" : [ "obj-23", 0 ],
									"hidden" : 0,
									"midpoints" : [ 219.5, 225.0, 114.5, 225.0 ]
								}

							}
 ]
					}
,
					"saved_object_attributes" : 					{
						"default_fontsize" : 10.0,
						"fontname" : "Arial",
						"globalpatchername" : "",
						"default_fontface" : 0,
						"fontface" : 0,
						"fontsize" : 10.0,
						"default_fontname" : "Arial"
					}

				}

			}
, 			{
				"box" : 				{
					"maxclass" : "comment",
					"text" : "BPM",
					"numinlets" : 1,
					"numoutlets" : 0,
					"id" : "obj-15",
					"fontname" : "Arial",
					"patching_rect" : [ 195.0, 45.0, 35.0, 18.0 ],
					"fontface" : 1,
					"fontsize" : 10.0
				}

			}
 ],
		"lines" : [ 			{
				"patchline" : 				{
					"source" : [ "obj-12", 0 ],
					"destination" : [ "obj-13", 0 ],
					"hidden" : 0,
					"midpoints" : [  ]
				}

			}
, 			{
				"patchline" : 				{
					"source" : [ "obj-16", 2 ],
					"destination" : [ "obj-17", 0 ],
					"hidden" : 0,
					"midpoints" : [  ]
				}

			}
, 			{
				"patchline" : 				{
					"source" : [ "obj-19", 0 ],
					"destination" : [ "obj-13", 1 ],
					"hidden" : 0,
					"midpoints" : [  ]
				}

			}
, 			{
				"patchline" : 				{
					"source" : [ "obj-13", 0 ],
					"destination" : [ "obj-16", 0 ],
					"hidden" : 0,
					"midpoints" : [  ]
				}

			}
 ]
	}

}
