#N canvas 0 22 885 535 10;
#X obj 364 42 inlet;
#X obj 545 259 counter;
#X obj 364 101 t f f;
#X obj 40 42 inlet;
#X obj 40 469 outlet;
#X obj 364 76 route record list;
#N canvas 696 226 320 305 duration 0;
#X obj 72 88 route 0;
#X obj 73 146 timer;
#X obj 72 63 inlet;
#X obj 73 171 outlet;
#X obj 73 121 b;
#X obj 100 121 b;
#X connect 0 0 5 0;
#X connect 0 1 4 0;
#X connect 1 0 3 0;
#X connect 2 0 0 0;
#X connect 4 0 1 0;
#X connect 5 0 1 1;
#X restore 475 213 pd duration;
#X obj 391 213 stripnote;
#X obj 442 189 t f f;
#X obj 561 291 s \$0-arp_write_in;
#X obj 565 353 r \$0-arp_write_in;
#X obj 700 57 table \$0-rec_vel_1;
#X obj 700 77 table \$0-rec_dur_1;
#X obj 698 153 table \$0-rec_dur_2;
#X obj 442 433 tabwrite \$0-rec_vel_1;
#X obj 475 463 tabwrite \$0-rec_dur_1;
#X obj 698 133 table \$0-rec_vel_2;
#X obj 40 275 tabread \$0-rec_vel_2;
#X obj 67 305 tabread \$0-rec_dur_2;
#X msg 232 288 set \$1-rec_dur_\$2;
#X msg 232 258 set \$1-rec_vel_\$2;
#X msg 702 446 set \$1-rec_dur_\$2;
#X msg 702 416 set \$1-rec_vel_\$2;
#X obj 232 208 prepend \$0;
#X obj 702 366 prepend \$0;
#X obj 232 168 < 1;
#X obj 232 188 + 1;
#X obj 530 291 f;
#X obj 530 317 s \$0-arp_max;
#X obj 40 183 random;
#X obj 73 138 r \$0-arp_max;
#X text 68 384 get max;
#X text 68 404 restart count;
#X text 68 424 switch arrays;
#X obj 610 185 counter 1;
#X obj 610 211 s \$0-arp_switch;
#X obj 702 346 + 1;
#X obj 702 326 r \$0-arp_switch;
#X obj 391 165 unpack;
#X obj 232 148 r \$0-arp_switch;
#X text 68 366 Everytime you record notes \, arrays get switched;
#X obj 391 135 gate 0;
#X obj 564 118 sel 1 0;
#X obj 583 154 t b b;
#X obj 442 242 t f b;
#X obj 73 160 + 1;
#X obj 40 330 pack;
#X obj 40 207 t f f;
#X obj 232 228 t a a;
#X obj 702 386 t a a;
#X connect 0 0 5 0;
#X connect 1 0 9 0;
#X connect 1 0 27 1;
#X connect 2 0 42 0;
#X connect 2 1 41 0;
#X connect 3 0 29 0;
#X connect 5 0 2 0;
#X connect 5 1 41 1;
#X connect 6 0 15 0;
#X connect 7 1 44 0;
#X connect 8 0 7 1;
#X connect 8 1 6 0;
#X connect 10 0 14 1;
#X connect 10 0 15 1;
#X connect 17 0 46 0;
#X connect 18 0 46 1;
#X connect 19 0 18 0;
#X connect 20 0 17 0;
#X connect 21 0 15 0;
#X connect 22 0 14 0;
#X connect 23 0 48 0;
#X connect 24 0 49 0;
#X connect 25 0 26 0;
#X connect 26 0 23 0;
#X connect 27 0 28 0;
#X connect 29 0 47 0;
#X connect 30 0 45 0;
#X connect 34 0 35 0;
#X connect 36 0 24 0;
#X connect 37 0 36 0;
#X connect 38 0 7 0;
#X connect 38 1 8 0;
#X connect 39 0 25 0;
#X connect 41 0 38 0;
#X connect 42 0 1 2;
#X connect 42 1 43 0;
#X connect 43 0 27 0;
#X connect 43 1 34 0;
#X connect 44 0 14 0;
#X connect 44 1 1 0;
#X connect 45 0 29 1;
#X connect 46 0 4 0;
#X connect 47 0 17 0;
#X connect 47 1 18 0;
#X connect 48 0 20 0;
#X connect 48 1 19 0;
#X connect 49 0 22 0;
#X connect 49 1 21 0;
