#N canvas 336 22 389 695 10;
#X obj 35 381 list-enumerate;
#X obj 35 401 list-rev;
#N canvas 408 199 712 324 clk 0;
#X obj 295 226 f 0;
#X obj 325 226 + 1;
#X obj 440 76 inlet;
#X msg 333 196 0;
#X obj 295 256 %;
#X obj 440 106 t b f f;
#X obj 295 196 metro;
#X obj 397 149 /;
#X obj 295 166 f;
#X obj 295 136 t b b;
#X obj 295 106 sel 0;
#X obj 354 106 sel 0;
#X obj 354 149 t b f;
#X obj 354 76 traninfo;
#N canvas 0 22 450 300 if 0;
#X obj 121 188 *;
#X obj 136 105 sel 0 1 2 3 4 5;
#X obj 145 47 r \$0-length;
#X obj 108 161 f;
#X obj 144 73 t b f;
#X obj 91 51 inlet;
#X obj 106 233 outlet;
#X msg 136 143 4;
#X msg 176 143 2;
#X msg 206 143 3;
#X msg 236 143 1;
#X msg 266 143 0.5;
#X msg 296 143 0.25;
#X connect 0 0 6 0;
#X connect 1 0 7 0;
#X connect 1 1 8 0;
#X connect 1 2 9 0;
#X connect 1 3 10 0;
#X connect 1 4 11 0;
#X connect 1 5 12 0;
#X connect 2 0 4 0;
#X connect 3 0 0 0;
#X connect 4 0 3 0;
#X connect 4 1 1 0;
#X connect 5 0 3 0;
#X connect 7 0 0 1;
#X connect 8 0 0 1;
#X connect 9 0 0 1;
#X connect 10 0 0 1;
#X connect 11 0 0 1;
#X connect 12 0 0 1;
#X restore 397 106 pd if;
#X obj 295 50 switch 6;
#X obj 362 33 tranlength;
#X obj 295 7 r \$0-length;
#X obj 295 27 + 1;
#X obj 295 286 outlet;
#X connect 0 0 1 0;
#X connect 0 0 4 0;
#X connect 1 0 0 1;
#X connect 2 0 5 0;
#X connect 3 0 0 1;
#X connect 4 0 19 0;
#X connect 5 0 7 0;
#X connect 5 1 7 1;
#X connect 5 2 4 1;
#X connect 6 0 0 0;
#X connect 7 0 6 1;
#X connect 8 0 6 0;
#X connect 9 0 8 0;
#X connect 9 1 3 0;
#X connect 10 0 9 0;
#X connect 11 0 12 0;
#X connect 11 1 8 1;
#X connect 12 0 8 0;
#X connect 12 1 8 1;
#X connect 13 0 11 0;
#X connect 13 2 14 0;
#X connect 14 0 7 0;
#X connect 15 0 10 0;
#X connect 16 0 15 1;
#X connect 16 1 15 2;
#X connect 16 2 15 3;
#X connect 16 3 15 4;
#X connect 16 4 15 5;
#X connect 16 5 15 6;
#X connect 17 0 18 0;
#X connect 18 0 15 0;
#X restore 142 371 pd clk;
#X obj 35 441 tabwrite \$0-v;
#X obj 142 281 list length;
#X obj 142 391 tabread \$0-v;
#X obj 142 211 + 1024;
#X obj 242 381 pack;
#X obj 242 361 f \$0;
#X obj 242 341 t b f;
#X msg 242 401 \; \$1-v resize \$2;
#X obj 142 411 sel 1;
#X obj 142 501 outlet;
#X obj 142 301 t f f;
#X obj 142 111 r \$0-bang;
#X obj 142 191 urn 1024;
#X obj 202 191 b;
#X obj 187 151 r \$0-random_range;
#X obj 185 211 r \$0-random_offset;
#X obj 187 171 f;
#X obj 142 558 f \$0;
#X obj 142 538 loadbang;
#X obj 35 421 unpack f f;
#X obj 142 241 s \$0-value_set;
#X obj 35 201 r \$0-value;
#X obj 37 23 cnv 15 100 60 empty \$0-label BINARYBEAT 0 0 0 9 -262144
-1 0;
#X obj 212 66 bng 17 250 50 0 \$0-bang \$0-bang_set empty 17 7 0 10
-262144 -1 -1;
#X obj 287 16 nbx 5 15 -1e+37 1e+37 0 0 \$0-random_range \$0-random_range_set
Range 54 7 0 9 -262144 -1 -1 1024 256;
#X obj 287 31 nbx 5 15 -1e+37 1e+37 0 0 \$0-random_offset \$0-random_offset_set
Offset 54 7 0 9 -262144 -1 -1 512 256;
#N canvas 0 22 450 300 (subpatch) 0;
#X array \$0-v 11 float 1;
#A 0 1 0 0 1 1 0 1 1 1 1 0;
#X coords 0 1 10 0 200 52 1;
#X restore 6 31 graph;
#X obj 212 31 nbx 4 30 -1e+37 1e+37 0 0 \$0-value \$0-value_set empty
54 7 0 15 -262144 -1 -1 670 256;
#X obj 234 66 hradio 17 1 0 6 \$0-length \$0-length_set Length 108
8 0 9 -262144 -1 -1 4;
#X msg 142 583 \; \$1-random_range_set 1024 \; \$1-random_offset_set
512 \; \$1-length_set 4 \; \$1-bang bang \;;
#X obj 35 342 list;
#X obj 53 312 t b f;
#X obj 35 361 list-rot;
#X obj 287 46 nbx 5 15 -1e+37 1e+37 0 0 \$0-rotate \$0-rotate_set Rotate
54 7 0 9 -262144 -1 -1 0 256;
#X obj 53 282 r \$0-rotate;
#X obj 35 241 t b a a;
#X obj 8 111 inlet;
#X obj 8 151 s \$0-value_set;
#X obj 35 221 dp_binary;
#X connect 0 0 1 0;
#X connect 1 0 22 0;
#X connect 2 0 5 0;
#X connect 4 0 13 0;
#X connect 5 0 11 0;
#X connect 6 0 23 0;
#X connect 7 0 10 0;
#X connect 8 0 7 0;
#X connect 9 0 8 0;
#X connect 9 1 7 1;
#X connect 11 0 12 0;
#X connect 13 0 2 0;
#X connect 13 1 9 0;
#X connect 14 0 15 0;
#X connect 15 0 6 0;
#X connect 15 1 16 0;
#X connect 16 0 19 0;
#X connect 17 0 19 0;
#X connect 18 0 6 1;
#X connect 19 0 15 1;
#X connect 20 0 32 0;
#X connect 21 0 20 0;
#X connect 22 0 3 0;
#X connect 22 1 3 1;
#X connect 24 0 41 0;
#X connect 33 0 35 0;
#X connect 34 0 33 0;
#X connect 34 1 35 1;
#X connect 35 0 0 0;
#X connect 37 0 34 0;
#X connect 38 0 33 0;
#X connect 38 1 33 1;
#X connect 38 2 4 0;
#X connect 39 0 40 0;
#X connect 41 0 38 0;
#X coords 0 -1 1 1 383 90 2 0 0;
