#N canvas 146 22 523 700 10;
#X obj 18 526 sel 1;
#N canvas 364 42 383 559 rhythm 1;
#X obj 99 306 list;
#X obj 53 485 outlet;
#X obj 53 20 inlet;
#X obj 111 20 inlet;
#X obj 201 20 inlet;
#X text 241 20 offset;
#X text 147 20 n;
#X text 92 20 k;
#X text 100 485 1||0;
#X obj 201 289 t b f;
#X obj 99 345 list-enumerate;
#X obj 99 365 list-rev;
#X obj 53 110 minmax;
#X obj 111 53 t b f;
#X obj 53 140 swap;
#X obj 53 181 t f f f;
#X text 22 139 Big;
#X text 92 139 Small;
#X obj 53 447 tabread \$0-p;
#X obj 99 415 tabwrite \$0-p;
#X obj 99 385 unpack f f;
#X obj 53 90 pack f f;
#X obj 99 325 list-rot;
#N canvas 408 199 712 324 clk 0;
#X obj 106 75 traninfo;
#X obj 136 146 /;
#X obj 39 75 tranlength;
#X obj 73 99 sel 0;
#X obj 73 194 counter;
#X obj 161 146 - 1;
#X obj 73 146 f 1;
#X obj 73 170 metro 10000;
#X obj 73 121 t b b;
#X obj 164 75 t b f f;
#X obj 295 226 f 0;
#X obj 325 226 + 1;
#X obj 440 76 inlet;
#X msg 333 196 0;
#X obj 295 256 %;
#X obj 440 106 t b f f;
#X obj 295 196 metro;
#X obj 397 149 /;
#X obj 295 166 f;
#X obj 295 136 t b b;
#X obj 295 106 sel 0;
#X obj 354 106 sel 0;
#X obj 354 149 t b f;
#X obj 354 76 traninfo;
#N canvas 0 22 450 300 if 0;
#X obj 121 188 *;
#X obj 136 105 sel 0 1 2 3 4 5;
#X obj 145 47 r \$0-length;
#X obj 108 161 f;
#X obj 144 73 t b f;
#X obj 91 51 inlet;
#X obj 106 233 outlet;
#X msg 136 143 4;
#X msg 176 143 2;
#X msg 206 143 3;
#X msg 236 143 1;
#X msg 266 143 0.5;
#X msg 296 143 0.25;
#X connect 0 0 6 0;
#X connect 1 0 7 0;
#X connect 1 1 8 0;
#X connect 1 2 9 0;
#X connect 1 3 10 0;
#X connect 1 4 11 0;
#X connect 1 5 12 0;
#X connect 2 0 4 0;
#X connect 3 0 0 0;
#X connect 4 0 3 0;
#X connect 4 1 1 0;
#X connect 5 0 3 0;
#X connect 7 0 0 1;
#X connect 8 0 0 1;
#X connect 9 0 0 1;
#X connect 10 0 0 1;
#X connect 11 0 0 1;
#X connect 12 0 0 1;
#X restore 397 106 pd if;
#X obj 295 50 switch 6;
#X obj 362 33 tranlength;
#X obj 295 7 r \$0-length;
#X obj 295 27 + 1;
#X text 71 249 outlet;
#X text 160 51 inlet;
#X obj 295 286 outlet;
#X connect 0 0 6 1;
#X connect 0 2 1 0;
#X connect 1 0 7 1;
#X connect 2 3 3 0;
#X connect 3 0 8 0;
#X connect 5 0 4 4;
#X connect 6 0 7 0;
#X connect 7 0 4 0;
#X connect 8 0 6 0;
#X connect 8 1 4 2;
#X connect 9 0 1 0;
#X connect 9 1 1 1;
#X connect 9 2 5 0;
#X connect 10 0 11 0;
#X connect 10 0 14 0;
#X connect 11 0 10 1;
#X connect 12 0 15 0;
#X connect 13 0 10 1;
#X connect 14 0 31 0;
#X connect 15 0 17 0;
#X connect 15 1 17 1;
#X connect 15 2 14 1;
#X connect 16 0 10 0;
#X connect 17 0 16 1;
#X connect 18 0 16 0;
#X connect 19 0 18 0;
#X connect 19 1 13 0;
#X connect 20 0 19 0;
#X connect 21 0 22 0;
#X connect 21 1 18 1;
#X connect 22 0 18 0;
#X connect 22 1 18 1;
#X connect 23 0 21 0;
#X connect 23 2 24 0;
#X connect 24 0 17 0;
#X connect 25 0 20 0;
#X connect 26 0 25 1;
#X connect 26 1 25 2;
#X connect 26 2 25 3;
#X connect 26 3 25 4;
#X connect 26 4 25 5;
#X connect 26 5 25 6;
#X connect 27 0 28 0;
#X connect 28 0 25 0;
#X restore 53 244 pd clk;
#N canvas 0 22 450 300 rsz 0;
#X obj 180 162 pack;
#X obj 180 142 f \$0;
#X obj 180 122 t b f;
#X msg 180 185 \; \$1-p resize \$2;
#X obj 180 102 max 1;
#X obj 180 72 inlet;
#X connect 0 0 3 0;
#X connect 1 0 0 0;
#X connect 2 0 1 0;
#X connect 2 1 0 1;
#X connect 4 0 2 0;
#X connect 5 0 4 0;
#X restore 92 212 pd rsz;
#X obj 99 276 t b a;
#X obj 99 244 dp_bjorklund;
#X connect 0 0 22 0;
#X connect 2 0 21 0;
#X connect 3 0 13 0;
#X connect 4 0 9 0;
#X connect 9 0 0 0;
#X connect 9 1 22 1;
#X connect 10 0 11 0;
#X connect 11 0 20 0;
#X connect 12 0 14 0;
#X connect 12 1 14 1;
#X connect 13 0 21 0;
#X connect 13 1 21 1;
#X connect 14 0 15 0;
#X connect 14 1 26 1;
#X connect 15 0 23 0;
#X connect 15 1 26 0;
#X connect 15 2 24 0;
#X connect 18 0 1 0;
#X connect 20 0 19 0;
#X connect 20 1 19 1;
#X connect 21 0 12 0;
#X connect 22 0 10 0;
#X connect 23 0 18 0;
#X connect 25 0 0 0;
#X connect 25 1 0 1;
#X connect 26 0 25 0;
#X restore 18 496 pd rhythm;
#X obj 18 556 outlet;
#X obj 18 406 r \$0-n;
#X obj 43 436 r \$0-k;
#X obj 69 466 r \$0-o;
#X obj 350 105 inlet;
#N canvas 0 22 450 300 (subpatch) 0;
#X array \$0-p 8 float 0;
#X coords 0 1 7 0 287 40 1;
#X restore 6 28 graph;
#N canvas 0 22 450 300 init 0;
#X obj 44 76 loadbang;
#X obj 44 96 f \$0;
#X msg 44 118 \; \$1-n_set 4 \; \$1-k_set 8 \; \$1-o_set 0 \; \$1-length_set
3 \;;
#X connect 0 0 1 0;
#X connect 1 0 2 0;
#X restore 373 63 pd init;
#N canvas 0 22 450 300 parameters 0;
#X obj 59 22 inlet;
#X obj 167 86 unpack f f f f;
#X obj 59 250 s \$0-n_set;
#X obj 86 230 s \$0-k_set;
#X obj 113 210 s \$0-o_set;
#X obj 140 190 s \$0-length_set;
#X obj 167 170 s \$0-n_set;
#X obj 194 150 s \$0-k_set;
#X obj 221 130 s \$0-o_set;
#X obj 248 110 s \$0-length_set;
#X obj 59 56 route n k o length dump;
#X connect 0 0 10 0;
#X connect 1 0 6 0;
#X connect 1 1 7 0;
#X connect 1 2 8 0;
#X connect 1 3 9 0;
#X connect 10 0 2 0;
#X connect 10 1 3 0;
#X connect 10 2 4 0;
#X connect 10 3 5 0;
#X connect 10 4 1 0;
#X restore 350 135 pd parameters;
#X obj 6 16 cnv 10 100 10 empty empty empty 20 12 0 14 -262144 -66577
0;
#X obj 39 7 nbx 3 14 -1e+37 1e+37 0 0 \$0-n \$0-n_set n 35 7 0 8 -262144
-1 -1 4 256;
#X obj 86 7 nbx 3 14 -1e+37 1e+37 0 0 \$0-k \$0-k_set k 35 7 0 8 -262144
-1 -1 8 256;
#X obj 133 7 nbx 3 14 -1e+37 1e+37 0 0 \$0-o \$0-o_set offset 35 7
0 8 -262144 -1 -1 0 256;
#X obj 203 6 hradio 15 1 0 6 \$0-length \$0-length_set empty 95 8 0
8 -262144 -1 -1 3;
#X obj 6 69 cnv 10 100 10 empty empty empty 20 12 0 14 -262144 -66577
0;
#X connect 0 0 2 0;
#X connect 1 0 0 0;
#X connect 3 0 1 0;
#X connect 4 0 1 1;
#X connect 5 0 1 2;
#X connect 6 0 9 0;
#X coords 0 -1 1 1 300 75 2 0 0;
