#N canvas 534 73 840 555 10;
#X obj 364 75 seq_generator;
#N canvas 0 22 450 278 (subpatch) 0;
#X array \$0-sequence 15 float 3;
#A 0 1 0 0 0 1 0 0 0 1 0 0 0 1 0 0;
#X coords 0 2 15 0 200 65 1 0 0;
#X restore 556 75 graph;
#N canvas 0 22 524 439 list-to-array 0;
#X obj 50 89 drip;
#X obj 77 163 cup;
#X obj 50 119 t f b;
#X msg 97 119 0;
#X obj 50 196 pack;
#X obj 197 89 list length;
#X obj 50 59 t a b a;
#X obj 50 256 tabwrite \$0-sequence;
#X msg 237 175 \; \$1-sequence resize \$2;
#X obj 237 149 prepend \$0;
#X obj 50 226 unpack;
#X obj 50 29 inlet;
#X obj 197 256 outlet;
#X obj 197 119 t f f;
#X connect 0 0 2 0;
#X connect 1 0 4 1;
#X connect 2 0 4 0;
#X connect 2 1 1 0;
#X connect 3 0 1 0;
#X connect 4 0 10 0;
#X connect 5 0 13 0;
#X connect 6 0 0 0;
#X connect 6 1 3 0;
#X connect 6 2 5 0;
#X connect 9 0 8 0;
#X connect 10 0 7 0;
#X connect 10 1 7 1;
#X connect 11 0 6 0;
#X connect 13 0 12 0;
#X connect 13 1 9 0;
#X restore 16 181 pd list-to-array;
#X obj 14 330 cup;
#X obj 14 389 tabread \$0-sequence;
#X obj 14 418 sel 1;
#X obj 14 360 % 13;
#X obj 220 90 divisor;
#X msg 34 290 0;
#X obj 364 160 s \$0-generated-list;
#X obj 16 51 r \$0-generated-list;
#X obj 16 211 t f f;
#X obj 67 508 outlet;
#X obj 67 480 f;
#X obj 14 508 outlet;
#X obj 151 508 outlet;
#X obj 14 448 t b b;
#X obj 16 151 zl rot;
#X obj 16 121 l;
#X obj 22 91 t b f;
#X obj 307 70 nbx 5 20 -1e+37 1e+37 0 0 \$0-seq-rotate \$0-seq-rotate-gui
empty 0 -8 0 10 -262144 -1 -1 0 256;
#X obj 22 71 r \$0-seq-rotate;
#X connect 0 0 9 0;
#X connect 2 0 11 0;
#X connect 3 0 6 0;
#X connect 4 0 5 0;
#X connect 5 0 16 0;
#X connect 6 0 4 0;
#X connect 7 0 3 0;
#X connect 7 1 13 1;
#X connect 7 2 15 0;
#X connect 7 2 8 0;
#X connect 8 0 3 0;
#X connect 10 0 18 0;
#X connect 11 0 6 1;
#X connect 11 1 7 1;
#X connect 13 0 12 0;
#X connect 16 0 14 0;
#X connect 16 1 13 0;
#X connect 17 0 2 0;
#X connect 18 0 17 0;
#X connect 19 0 18 0;
#X connect 19 1 17 1;
#X connect 21 0 19 0;
#X coords 0 -1 1 1 556 90 2 210 60;
