#N canvas 379 201 479 396 10;
#N canvas 225 156 844 388 apdist 0;
#X obj 42 307 rpole~;
#X obj 42 282 rzero_rev~;
#X obj 42 52 inlet~;
#X obj 42 342 outlet~;
#X obj 99 252 clip~ -0.9999 0.9999;
#X obj 120 52 inlet;
#X obj 184 52 inlet;
#X obj 184 151 pack 0 10;
#X obj 184 173 line~;
#X obj 99 224 *~;
#X text 184 32 drive;
#X obj 99 111 lop~;
#X text 118 30 Cutoff;
#X text 39 30 Signal;
#X text 347 63 apdist~;
#X text 342 94 "Coefficient Modulated Allpass Filter as Distortion
Effect";
#X text 347 113 as in the DAFx 2008 paper by Jussi Pekonen;
#X text 348 138 See: http://www.acoustics.hut.fi/~jpekonen/Papers/dafx08/
;
#X text 349 197 As free as Pd.;
#X text 348 174 Frank Barknecht \, 2008;
#X connect 0 0 3 0;
#X connect 1 0 0 0;
#X connect 2 0 1 0;
#X connect 2 0 11 0;
#X connect 4 0 1 1;
#X connect 5 0 11 1;
#X connect 6 0 7 0;
#X connect 7 0 8 0;
#X connect 8 0 9 1;
#X connect 9 0 4 0;
#X connect 11 0 9 0;
#X restore 83 175 pd apdist;
#N canvas 0 22 424 320 drywet 0;
#X obj 76 87 inlet~;
#X obj 141 87 inlet~;
#X obj 77 198 outlet~;
#X obj 201 87 inlet;
#X obj 141 136 -~;
#X obj 141 156 *~;
#X obj 201 127 line~;
#X obj 201 107 pack 0 10;
#X connect 0 0 4 1;
#X connect 0 0 2 0;
#X connect 1 0 4 0;
#X connect 3 0 7 0;
#X connect 4 0 5 0;
#X connect 5 0 2 0;
#X connect 6 0 5 1;
#X connect 7 0 6 0;
#X restore 83 215 pd drywet;
#X obj 143 104 list trim;
#X obj 83 83 inlet~;
#X obj 83 265 outlet~;
#X obj 143 81 inlet;
#X text 83 43 apdist: all pass distortion;
#X obj 143 126 route lop drive dry;
#X obj 83 245 hip~ 5;
#X connect 0 0 1 0;
#X connect 1 0 8 0;
#X connect 2 0 7 0;
#X connect 3 0 0 0;
#X connect 3 0 1 1;
#X connect 5 0 2 0;
#X connect 7 0 0 1;
#X connect 7 1 0 2;
#X connect 7 2 1 2;
#X connect 8 0 4 0;
