#N canvas 46 22 826 689 10;
#X obj 161 65 inlet~;
#X obj 361 641 outlet~;
#X obj 191 642 tabwrite~ \$0-override;
#X obj 248 261 r \$0-bufsize;
#X obj 361 380 metro 2048;
#X obj 361 440 tabplay~ \$0-override;
#X obj 426 246 r \$0-bufsize;
#X obj 418 300 *;
#X obj 426 276 t b f;
#X obj 361 568 *~;
#X obj 376 538 tabreceive~ \$0-hann;
#X obj 446 592 block~ 256 2 0.5;
#X obj 432 380 del;
#X msg 432 360 stop;
#X obj 191 312 metro 2048;
#X obj 266 312 del;
#X msg 266 291 stop;
#X obj 191 281 loadbang;
#N canvas 0 22 501 483 hanning-table 0;
#X obj 212 347 s \$0-hann;
#X obj 212 168 f;
#X obj 239 170 + 1;
#X obj 212 146 until;
#X msg 250 140 0;
#X obj 255 264 * 3.14159;
#X obj 256 284 * 2;
#X obj 212 327 pack 0 0;
#X obj 212 190 t f f;
#X obj 255 233 - 0.25;
#X obj 212 115 t f b f;
#X obj 255 211 /;
#X obj 257 303 expr 0.5+0.5*(sin($f1));
#X obj 213 69 loadbang;
#X msg 213 90 256;
#X obj 212 378 table \$0-hann 256;
#X connect 1 0 2 0;
#X connect 1 0 8 0;
#X connect 2 0 1 1;
#X connect 3 0 1 0;
#X connect 4 0 1 1;
#X connect 5 0 6 0;
#X connect 6 0 12 0;
#X connect 7 0 0 0;
#X connect 8 0 7 0;
#X connect 8 1 11 0;
#X connect 9 0 5 0;
#X connect 10 0 3 0;
#X connect 10 1 4 0;
#X connect 10 2 11 1;
#X connect 11 0 9 0;
#X connect 12 0 7 1;
#X connect 13 0 14 0;
#X connect 14 0 10 0;
#X restore 444 624 pd hanning-table;
#X obj 418 224 r \$0-minibuffer;
#X obj 418 330 max 1;
#X obj 161 562 *~;
#X obj 206 458 spigot;
#X msg 268 423 1;
#X msg 239 424 0;
#X msg 206 482 1;
#X obj 206 512 t f;
#X obj 361 508 *~;
#X obj 376 468 - 1;
#X obj 376 488 * -1;
#X obj 444 646 table \$0-override 200000;
#X msg 306 482 0;
#X obj 306 391 del 125;
#X obj 361 410 t b b;
#X obj 361 591 *~ 2;
#X obj 206 390 t b b b;
#X obj 251 175 s \$0-bufsize;
#X obj 251 125 * 2000;
#X obj 251 145 + 20;
#X obj 401 175 s \$0-minibuffer;
#X obj 251 105 expr pow($f1 \, 4);
#X obj 401 145 expr pow($f1 \, 2);
#X obj 401 105 / 1.01;
#X obj 401 125 + 0.01;
#X obj 251 65 inlet;
#X obj 401 65 inlet;
#X text 253 45 Main;
#X text 406 45 Sub;
#X text 158 45 Signal~;
#X text 253 25 0 - 1;
#X text 401 25 0 - 1;
#X text 159 25 -1 - 1;
#X connect 0 0 21 0;
#X connect 3 0 14 1;
#X connect 3 0 15 0;
#X connect 4 0 33 0;
#X connect 5 0 27 0;
#X connect 6 0 8 0;
#X connect 7 0 20 0;
#X connect 8 0 7 0;
#X connect 8 1 7 1;
#X connect 9 0 34 0;
#X connect 10 0 9 1;
#X connect 12 0 4 0;
#X connect 13 0 12 0;
#X connect 14 0 16 0;
#X connect 14 0 2 0;
#X connect 14 0 32 0;
#X connect 14 0 4 0;
#X connect 14 0 35 0;
#X connect 15 0 14 0;
#X connect 16 0 15 0;
#X connect 17 0 14 0;
#X connect 19 0 7 0;
#X connect 20 0 4 1;
#X connect 20 0 12 0;
#X connect 20 0 32 1;
#X connect 21 0 2 0;
#X connect 21 0 9 0;
#X connect 22 0 25 0;
#X connect 23 0 22 1;
#X connect 24 0 22 1;
#X connect 25 0 26 0;
#X connect 26 0 21 1;
#X connect 26 0 28 0;
#X connect 27 0 9 0;
#X connect 28 0 29 0;
#X connect 29 0 27 1;
#X connect 31 0 26 0;
#X connect 32 0 31 0;
#X connect 33 0 5 0;
#X connect 33 1 13 0;
#X connect 34 0 1 0;
#X connect 35 0 24 0;
#X connect 35 1 22 0;
#X connect 35 2 23 0;
#X connect 37 0 38 0;
#X connect 38 0 36 0;
#X connect 40 0 37 0;
#X connect 41 0 39 0;
#X connect 42 0 43 0;
#X connect 43 0 41 0;
#X connect 44 0 40 0;
#X connect 45 0 42 0;
#X coords 0 0 1 1 180 77 0;
