#N canvas 387 165 700 590 10;
#X obj 247 314 *~;
#X obj 228 202 lores~;
#X obj 112 37 inlet~;
#X obj 204 37 inlet~;
#X obj 39 532 outlet~;
#X obj 387 37 inlet~;
#X obj 228 256 *~;
#X obj 294 37 inlet~;
#X obj 39 37 inlet~;
#X obj 64 420 expr~ 1-$v1;
#X obj 64 448 pow~ 0.5;
#X obj 141 447 pow~ 0.5;
#X obj 575 37 inlet~;
#X obj 112 66 s~ \$0-deltime;
#X obj 228 101 r~ \$0-deltime;
#X obj 204 66 s~ \$0-delfil;
#X obj 244 172 r~ \$0-delfil;
#X obj 294 66 s~ \$0-delgain;
#X obj 243 228 r~ \$0-delgain;
#X obj 387 66 s~ \$0-delfdbck;
#X obj 262 288 r~ \$0-delfdbck;
#X obj 575 66 s~ \$0-delmix;
#X obj 141 376 r~ \$0-delmix;
#X obj 228 489 *~;
#X obj 39 489 *~;
#X obj 228 130 vd~ \$0-del;
#X text 36 16 signal;
#X text 107 16 time(ms);
#X text 200 17 filter(hz);
#X text 287 16 gain(0-1);
#X text 372 15 feedback(0-1);
#X text 572 15 mix(0-1);
#X obj 63 151 delwrite~ \$0-del \$1;
#X obj 318 409 *~ -1;
#X obj 318 431 +~ 1;
#X obj 222 454 *~;
#X obj 303 454 *~;
#X obj 485 37 inlet~;
#X obj 485 66 s~ \$0-delpan;
#X text 482 15 pan(0-1);
#X obj 308 489 *~;
#X obj 309 532 outlet~;
#X obj 129 489 *~;
#X obj 318 377 r~ \$0-delpan;
#X obj 63 105 catch~ \$0-delfb;
#X obj 247 341 throw~ \$0-delfb;
#X connect 0 0 45 0;
#X connect 1 0 6 0;
#X connect 2 0 13 0;
#X connect 3 0 15 0;
#X connect 5 0 19 0;
#X connect 6 0 0 0;
#X connect 6 0 35 0;
#X connect 6 0 36 0;
#X connect 7 0 17 0;
#X connect 8 0 24 0;
#X connect 8 0 32 0;
#X connect 8 0 42 0;
#X connect 9 0 10 0;
#X connect 10 0 24 1;
#X connect 10 0 42 1;
#X connect 11 0 23 1;
#X connect 11 0 40 1;
#X connect 12 0 21 0;
#X connect 14 0 25 0;
#X connect 16 0 1 1;
#X connect 18 0 6 1;
#X connect 20 0 0 1;
#X connect 22 0 11 0;
#X connect 22 0 9 0;
#X connect 23 0 4 0;
#X connect 24 0 4 0;
#X connect 25 0 1 0;
#X connect 33 0 34 0;
#X connect 34 0 36 1;
#X connect 35 0 23 0;
#X connect 36 0 40 0;
#X connect 37 0 38 0;
#X connect 40 0 41 0;
#X connect 42 0 41 0;
#X connect 43 0 33 0;
#X connect 43 0 35 1;
#X connect 44 0 32 0;
