#N canvas 64 169 711 614 10;
#X obj 29 160 inlet~;
#X obj 29 189 s~ \$0-signal_left;
#X obj 269 31 loadbang;
#X msg 269 71 \; \$1-grain_size_set 32 \; \$1-grain_pitch_set 64 \;
\$1-grain_feedback_set 64 \; \$1-grain_volume_set 127 \; \$1-grain_window_t_set
1 \;;
#X obj 149 160 inlet~;
#X obj 149 189 s~ \$0-signal_right;
#N canvas 0 22 987 695 guts 0;
#X obj 56 354 phasor~;
#X obj 57 406 *~ -1;
#X obj 57 436 +~ 1;
#X obj 57 552 *~;
#X obj 72 492 sig~;
#X obj 72 522 samphold~;
#X obj 57 633 *~;
#X obj 100 812 *~ 0.4;
#X obj 233 139 * 72;
#X obj 233 159 - 36;
#X floatatom 233 179 5 0 0 0 - - -;
#X obj 233 201 t b f;
#X floatatom 56 218 5 0 0 0 - - -;
#X obj 29 162 t b f;
#X obj 56 331 expr (pow(2 \, ($f2/12)) - 1) * (44100/$f1);
#X obj 29 99 mid2dec;
#X obj 233 119 mid2dec;
#X obj 105 226 loadbang;
#X obj 105 266 / 44.1;
#X msg 105 246 1;
#X obj 72 286 * 44.1;
#X obj 133 752 mid2dec;
#N canvas 78 34 450 300 window 0;
#X obj 92 86 sel 0 1 2 3 4;
#N canvas 262 101 450 300 hanning 0;
#X obj 45 82 until;
#X msg 45 59 512;
#X obj 45 105 counter 0 0 511;
#X obj 45 129 t f f;
#X obj 72 154 expr 0.5-0.5*cos((2*3.14159265*$f1)/511);
#X obj 43 34 inlet;
#X obj 45 179 pack f f;
#X obj 46 211 outlet;
#X connect 0 0 2 0;
#X connect 1 0 0 0;
#X connect 2 0 3 0;
#X connect 3 0 6 0;
#X connect 3 1 4 0;
#X connect 4 0 6 1;
#X connect 5 0 1 0;
#X connect 6 0 7 0;
#X restore 107 139 pd hanning;
#N canvas 743 106 489 457 rexpodec 0;
#X obj 45 82 until;
#X msg 45 59 512;
#X obj 45 105 counter 0 0 511;
#X obj 45 129 t f f f;
#X obj 72 156 - 511;
#X obj 71 215 gate 2;
#X obj 70 244 / 0;
#X obj 80 367 minimum 0.9999;
#X obj 180 254 - 0;
#X obj 181 286 expr exp(-1.0*abs($f1)/$f2)/(2.0*$f2);
#X obj 136 328 * 200;
#X obj 168 154 - 511;
#X obj 168 177 < 0;
#X obj 168 200 + 1;
#X obj 236 143 * -1;
#X obj 236 118 f 10;
#X obj 236 93 loadbang;
#X obj 399 257 f 100;
#X obj 45 31 inlet;
#X obj 48 397 pack f f;
#X obj 46 425 outlet;
#X connect 0 0 2 0;
#X connect 1 0 0 0;
#X connect 2 0 3 0;
#X connect 3 0 19 0;
#X connect 3 1 4 0;
#X connect 3 2 11 0;
#X connect 4 0 5 1;
#X connect 5 0 6 0;
#X connect 5 1 8 0;
#X connect 6 0 7 0;
#X connect 7 0 19 1;
#X connect 8 0 9 0;
#X connect 9 0 10 0;
#X connect 10 0 7 0;
#X connect 11 0 12 0;
#X connect 12 0 13 0;
#X connect 13 0 5 0;
#X connect 14 0 12 1;
#X connect 14 0 6 1;
#X connect 14 0 8 1;
#X connect 15 0 14 0;
#X connect 16 0 15 0;
#X connect 16 0 17 0;
#X connect 17 0 9 1;
#X connect 18 0 1 0;
#X connect 19 0 20 0;
#X restore 137 192 pd rexpodec;
#N canvas 743 106 489 457 expodec 0;
#X obj 45 82 until;
#X msg 45 59 512;
#X obj 45 105 counter 0 0 511;
#X obj 45 129 t f f f;
#X obj 71 215 gate 2;
#X obj 70 244 / 0;
#X obj 80 367 minimum 0.9999;
#X obj 180 254 - 0;
#X obj 181 286 expr exp(-1.0*abs($f1)/$f2)/(2.0*$f2);
#X obj 136 328 * 200;
#X obj 157 180 + 1;
#X obj 236 143 * -1;
#X obj 236 118 f 10;
#X obj 236 93 loadbang;
#X obj 399 257 f 100;
#X obj 157 157 > 0;
#X obj 318 101 bng 15 250 50 0 empty empty empty 17 7 0 10 -262144
-1 -1;
#X obj 46 29 inlet;
#X obj 45 396 pack f f;
#X obj 45 424 outlet;
#X connect 0 0 2 0;
#X connect 1 0 0 0;
#X connect 2 0 3 0;
#X connect 3 0 18 0;
#X connect 3 1 4 1;
#X connect 3 2 15 0;
#X connect 4 0 5 0;
#X connect 4 1 7 0;
#X connect 5 0 6 0;
#X connect 6 0 18 1;
#X connect 7 0 8 0;
#X connect 8 0 9 0;
#X connect 9 0 6 0;
#X connect 10 0 4 0;
#X connect 11 0 5 1;
#X connect 11 0 7 1;
#X connect 11 0 15 1;
#X connect 12 0 11 0;
#X connect 13 0 12 0;
#X connect 13 0 14 0;
#X connect 14 0 8 1;
#X connect 15 0 10 0;
#X connect 16 0 12 0;
#X connect 16 0 14 0;
#X connect 17 0 1 0;
#X connect 18 0 19 0;
#X restore 122 165 pd expodec;
#N canvas 629 147 489 457 gauss 0;
#X obj 27 68 until;
#X msg 27 45 512;
#X obj 27 91 counter 0 0 511;
#X obj 232 110 loadbang;
#X obj 54 222 * 0.3133;
#X obj 54 169 expr exp((-1*($f1-$f3)*($f1-$f3))/(2*$f2*$f2))/($f2*sqrt(2*3.1416))
;
#X obj 232 143 f 0.125;
#X obj 411 143 f 0.5;
#X obj 27 115 t f f;
#X obj 54 140 / 512;
#X obj 27 23 inlet;
#X obj 22 262 pack f f;
#X obj 22 286 outlet;
#X connect 0 0 2 0;
#X connect 1 0 0 0;
#X connect 2 0 8 0;
#X connect 3 0 6 0;
#X connect 3 0 7 0;
#X connect 4 0 11 1;
#X connect 5 0 4 0;
#X connect 6 0 5 1;
#X connect 7 0 5 2;
#X connect 8 0 11 0;
#X connect 8 1 9 0;
#X connect 9 0 5 0;
#X connect 10 0 1 0;
#X connect 11 0 12 0;
#X restore 92 113 pd gauss;
#N canvas 499 154 232 318 tri 0;
#X obj 42 96 until;
#X msg 42 73 512;
#X obj 42 119 counter 0 0 511;
#X obj 88 204 / 256;
#X obj 88 179 counter 2 0 256;
#X obj 42 143 t f b;
#X obj 43 40 inlet;
#X obj 41 233 pack f f;
#X obj 42 260 outlet;
#X connect 0 0 2 0;
#X connect 1 0 0 0;
#X connect 2 0 5 0;
#X connect 3 0 7 1;
#X connect 4 0 3 0;
#X connect 5 0 7 0;
#X connect 5 1 4 0;
#X connect 6 0 1 0;
#X connect 7 0 8 0;
#X restore 152 221 pd tri;
#X obj 92 56 inlet;
#X obj 147 247 peek~ \$0-window;
#X obj 294 63 table \$0-window 512;
#X connect 0 0 4 0;
#X connect 0 1 1 0;
#X connect 0 2 3 0;
#X connect 0 3 2 0;
#X connect 0 4 5 0;
#X connect 1 0 7 0;
#X connect 2 0 7 0;
#X connect 3 0 7 0;
#X connect 4 0 7 0;
#X connect 5 0 7 0;
#X connect 6 0 0 0;
#X restore 562 295 pd window;
#X obj 132 616 tabread~ \$0-window;
#X obj 72 306 s \$0-grain_size_smps;
#X obj 72 462 r \$0-grain_size_smps;
#X obj 120 842 r~ \$0-signal_left;
#X obj 100 872 delwrite~ \$0-left 5000;
#X obj 57 582 vd~ \$0-left;
#X obj 132 596 *~ 512;
#X obj 267 426 *~ -1;
#X obj 267 456 +~ 1;
#X obj 267 572 *~;
#X obj 282 512 sig~;
#X obj 282 542 samphold~;
#X obj 267 655 *~;
#X obj 342 638 tabread~ \$0-window;
#X obj 282 482 r \$0-grain_size_smps;
#X obj 267 602 vd~ \$0-left;
#X obj 342 618 *~ 512;
#X obj 267 396 wrap~;
#X obj 267 371 +~ 0.5;
#X obj 57 672 +~;
#X obj 29 139 + 50;
#X obj 133 792 max 0;
#X obj 133 772 - 0.0001;
#X obj 29 119 * 950;
#X obj 57 742 *~;
#X obj 57 769 hip~ 5;
#X obj 57 919 outlet~;
#X obj 72 722 mid2dec;
#X obj 507 406 *~ -1;
#X obj 507 436 +~ 1;
#X obj 507 552 *~;
#X obj 522 492 sig~;
#X obj 522 522 samphold~;
#X obj 507 633 *~;
#X obj 550 812 *~ 0.4;
#X obj 583 752 mid2dec;
#X obj 592 616 tabread~ \$0-window;
#X obj 522 462 r \$0-grain_size_smps;
#X obj 592 596 *~ 512;
#X obj 717 426 *~ -1;
#X obj 717 456 +~ 1;
#X obj 717 572 *~;
#X obj 732 512 sig~;
#X obj 732 542 samphold~;
#X obj 717 655 *~;
#X obj 802 638 tabread~ \$0-window;
#X obj 732 482 r \$0-grain_size_smps;
#X obj 802 618 *~ 512;
#X obj 717 396 wrap~;
#X obj 717 371 +~ 0.5;
#X obj 507 672 +~;
#X obj 583 792 max 0;
#X obj 583 772 - 0.0001;
#X obj 507 742 *~;
#X obj 507 769 hip~ 5;
#X obj 507 919 outlet~;
#X obj 522 722 mid2dec;
#X obj 550 872 delwrite~ \$0-right 5000;
#X obj 570 842 r~ \$0-signal_right;
#X obj 507 582 vd~ \$0-right;
#X obj 717 602 vd~ \$0-right;
#X obj 29 79 r \$0-grain_size;
#X obj 233 99 r \$0-grain_pitch;
#X obj 562 272 r \$0-grain_window_t;
#X obj 133 732 r \$0-grain_feedback;
#X obj 583 732 r \$0-grain_feedback;
#X obj 522 702 r \$0-grain_volume;
#X obj 72 702 r \$0-grain_volume;
#X connect 0 0 1 0;
#X connect 0 0 5 1;
#X connect 0 0 29 0;
#X connect 0 0 41 0;
#X connect 0 0 72 0;
#X connect 0 0 51 0;
#X connect 0 0 55 1;
#X connect 0 0 61 0;
#X connect 1 0 2 0;
#X connect 2 0 3 0;
#X connect 3 0 28 0;
#X connect 4 0 5 0;
#X connect 5 0 3 1;
#X connect 6 0 42 0;
#X connect 7 0 27 0;
#X connect 8 0 9 0;
#X connect 9 0 10 0;
#X connect 10 0 11 0;
#X connect 11 0 12 0;
#X connect 11 1 14 1;
#X connect 12 0 14 0;
#X connect 12 0 20 0;
#X connect 13 0 10 0;
#X connect 13 1 12 0;
#X connect 14 0 0 0;
#X connect 15 0 46 0;
#X connect 16 0 8 0;
#X connect 17 0 19 0;
#X connect 18 0 20 1;
#X connect 19 0 18 0;
#X connect 20 0 24 0;
#X connect 21 0 45 0;
#X connect 23 0 6 1;
#X connect 25 0 4 0;
#X connect 26 0 27 0;
#X connect 28 0 6 0;
#X connect 29 0 23 0;
#X connect 30 0 31 0;
#X connect 31 0 32 0;
#X connect 32 0 38 0;
#X connect 33 0 34 0;
#X connect 34 0 32 1;
#X connect 35 0 42 1;
#X connect 36 0 35 1;
#X connect 37 0 33 0;
#X connect 38 0 35 0;
#X connect 39 0 36 0;
#X connect 40 0 30 0;
#X connect 40 0 39 0;
#X connect 40 0 34 1;
#X connect 41 0 40 0;
#X connect 42 0 47 0;
#X connect 43 0 13 0;
#X connect 44 0 7 1;
#X connect 45 0 44 0;
#X connect 46 0 43 0;
#X connect 47 0 48 0;
#X connect 48 0 7 0;
#X connect 48 0 49 0;
#X connect 50 0 47 1;
#X connect 51 0 52 0;
#X connect 52 0 53 0;
#X connect 53 0 82 0;
#X connect 54 0 55 0;
#X connect 55 0 53 1;
#X connect 56 0 73 0;
#X connect 57 0 80 0;
#X connect 58 0 75 0;
#X connect 59 0 56 1;
#X connect 60 0 54 0;
#X connect 61 0 59 0;
#X connect 62 0 63 0;
#X connect 63 0 64 0;
#X connect 64 0 83 0;
#X connect 65 0 66 0;
#X connect 66 0 64 1;
#X connect 67 0 73 1;
#X connect 68 0 67 1;
#X connect 69 0 65 0;
#X connect 70 0 68 0;
#X connect 71 0 62 0;
#X connect 71 0 70 0;
#X connect 71 0 66 1;
#X connect 72 0 71 0;
#X connect 73 0 76 0;
#X connect 74 0 57 1;
#X connect 75 0 74 0;
#X connect 76 0 77 0;
#X connect 77 0 57 0;
#X connect 77 0 78 0;
#X connect 79 0 76 1;
#X connect 81 0 80 0;
#X connect 82 0 56 0;
#X connect 83 0 67 0;
#X connect 84 0 15 0;
#X connect 85 0 16 0;
#X connect 86 0 22 0;
#X connect 87 0 21 0;
#X connect 88 0 58 0;
#X connect 89 0 79 0;
#X connect 90 0 50 0;
#X restore 91 229 pd guts;
#X obj 269 51 f \$0;
#X obj 29 270 outlet~;
#X obj 149 270 outlet~;
#X obj 7 10 cnv 15 10 10 empty \$0-label GRANULAR 0 0 0 9 -262144 -1
0;
#X obj 8 20 hsl 128 15 0 127 0 0 \$0-grain_size \$0-grain_size_set
SIZE 20 7 0 9 -262144 -1 -1 0 1;
#X obj 8 40 hsl 128 15 0 127 0 0 \$0-grain_pitch \$0-grain_pitch_set
PITCH 20 7 0 9 -262144 -1 -1 0 1;
#X obj 8 60 hsl 128 15 0 127 0 0 \$0-grain_feedback \$0-grain_feedback_set
FEEDBACK 20 7 0 9 -262144 -1 -1 0 1;
#X obj 8 80 hsl 128 15 0 127 0 0 \$0-grain_volume \$0-grain_volume_set
VOLUME 20 7 0 9 -262144 -1 -1 0 1;
#X obj 143 20 vradio 15 1 0 5 \$0-grain_window_t \$0-grain_window_t_set
empty 0 -8 0 10 -262144 -1 -1 0;
#X obj 163 24 cnv 10 10 5 empty empty GAUSS 0 3 0 9 -262144 -1 0;
#X obj 163 40 cnv 10 10 5 empty empty HANNING 0 3 0 9 -262144 -1 0
;
#X obj 163 56 cnv 10 10 5 empty empty EXPODEC 0 3 0 9 -262144 -1 0
;
#X obj 163 71 cnv 10 10 5 empty empty REXPODEC 0 3 0 9 -262144 -1 0
;
#X obj 163 86 cnv 10 10 5 empty empty TRIANGLE 0 3 0 9 -262144 -1 0
;
#X connect 0 0 1 0;
#X connect 2 0 7 0;
#X connect 4 0 5 0;
#X connect 6 0 8 0;
#X connect 6 1 9 0;
#X connect 7 0 3 0;
#X coords 0 -1 1 1 218 102 2 0 0;
