#N canvas 0 22 1265 696 10;
#X obj 66 364 phasor~;
#X obj 67 416 *~ -1;
#X obj 67 446 +~ 1;
#X obj 67 562 *~;
#X obj 82 502 sig~;
#X obj 82 532 samphold~;
#X obj 67 643 *~;
#X obj 110 822 *~ 0.4;
#X obj 243 149 * 72;
#X obj 243 169 - 36;
#X obj 39 30 inlet~;
#X floatatom 243 189 5 0 0 0 - - -;
#X obj 243 211 t b f;
#X floatatom 66 228 5 0 0 0 - - -;
#X obj 39 172 t b f;
#X obj 66 341 expr (pow(2 \, ($f2/12)) - 1) * (44100/$f1);
#X obj 589 278 hsl 128 15 0 127 0 0 \$0-grain_size \$0-grain_size_set
size 20 8 0 8 -262144 -1 -1 0 1;
#X obj 39 109 mid2dec;
#X obj 243 129 mid2dec;
#X obj 115 236 loadbang;
#X obj 115 276 / 44.1;
#X msg 115 256 1;
#X obj 82 296 * 44.1;
#X obj 143 762 mid2dec;
#X obj 589 293 hsl 128 15 0 127 0 0 \$0-grain_pitch \$0-grain_pitch_set
pitch 20 8 0 8 -262144 -1 -1 0 1;
#X obj 589 308 hsl 128 15 0 127 0 0 \$0-grain_feedback \$0-grain_feedback_set
feedback 20 8 0 8 -262144 -1 -1 0 1;
#X obj 589 323 hsl 128 15 0 127 0 0 \$0-grain_volume \$0-grain_volume_set
volume 20 8 0 8 -262144 -1 -1 0 1;
#N canvas 78 34 450 300 window 0;
#X obj 92 86 sel 0 1 2 3 4;
#N canvas 262 101 450 300 hanning 0;
#X obj 45 82 until;
#X msg 45 59 512;
#X obj 45 105 counter 0 0 511;
#X obj 45 129 t f f;
#X obj 72 154 expr 0.5-0.5*cos((2*3.14159265*$f1)/511);
#X obj 43 34 inlet;
#X obj 45 179 pack f f;
#X obj 46 211 outlet;
#X connect 0 0 2 0;
#X connect 1 0 0 0;
#X connect 2 0 3 0;
#X connect 3 0 6 0;
#X connect 3 1 4 0;
#X connect 4 0 6 1;
#X connect 5 0 1 0;
#X connect 6 0 7 0;
#X restore 107 139 pd hanning;
#N canvas 743 106 489 457 rexpodec 0;
#X obj 45 82 until;
#X msg 45 59 512;
#X obj 45 105 counter 0 0 511;
#X obj 45 129 t f f f;
#X obj 72 156 - 511;
#X obj 71 215 gate 2;
#X obj 70 244 / 0;
#X obj 80 367 minimum 0.9999;
#X obj 180 254 - 0;
#X obj 181 286 expr exp(-1.0*abs($f1)/$f2)/(2.0*$f2);
#X obj 136 328 * 200;
#X obj 168 154 - 511;
#X obj 168 177 < 0;
#X obj 168 200 + 1;
#X obj 236 143 * -1;
#X obj 236 118 f 10;
#X obj 236 93 loadbang;
#X obj 399 257 f 100;
#X obj 45 31 inlet;
#X obj 48 397 pack f f;
#X obj 46 425 outlet;
#X connect 0 0 2 0;
#X connect 1 0 0 0;
#X connect 2 0 3 0;
#X connect 3 0 19 0;
#X connect 3 1 4 0;
#X connect 3 2 11 0;
#X connect 4 0 5 1;
#X connect 5 0 6 0;
#X connect 5 1 8 0;
#X connect 6 0 7 0;
#X connect 7 0 19 1;
#X connect 8 0 9 0;
#X connect 9 0 10 0;
#X connect 10 0 7 0;
#X connect 11 0 12 0;
#X connect 12 0 13 0;
#X connect 13 0 5 0;
#X connect 14 0 12 1;
#X connect 14 0 6 1;
#X connect 14 0 8 1;
#X connect 15 0 14 0;
#X connect 16 0 15 0;
#X connect 16 0 17 0;
#X connect 17 0 9 1;
#X connect 18 0 1 0;
#X connect 19 0 20 0;
#X restore 137 192 pd rexpodec;
#N canvas 743 106 489 457 expodec 0;
#X obj 45 82 until;
#X msg 45 59 512;
#X obj 45 105 counter 0 0 511;
#X obj 45 129 t f f f;
#X obj 71 215 gate 2;
#X obj 70 244 / 0;
#X obj 80 367 minimum 0.9999;
#X obj 180 254 - 0;
#X obj 181 286 expr exp(-1.0*abs($f1)/$f2)/(2.0*$f2);
#X obj 136 328 * 200;
#X obj 157 180 + 1;
#X obj 236 143 * -1;
#X obj 236 118 f 10;
#X obj 236 93 loadbang;
#X obj 399 257 f 100;
#X obj 157 157 > 0;
#X obj 318 101 bng 15 250 50 0 empty empty empty 17 7 0 10 -262144
-1 -1;
#X obj 46 29 inlet;
#X obj 45 396 pack f f;
#X obj 45 424 outlet;
#X connect 0 0 2 0;
#X connect 1 0 0 0;
#X connect 2 0 3 0;
#X connect 3 0 18 0;
#X connect 3 1 4 1;
#X connect 3 2 15 0;
#X connect 4 0 5 0;
#X connect 4 1 7 0;
#X connect 5 0 6 0;
#X connect 6 0 18 1;
#X connect 7 0 8 0;
#X connect 8 0 9 0;
#X connect 9 0 6 0;
#X connect 10 0 4 0;
#X connect 11 0 5 1;
#X connect 11 0 7 1;
#X connect 11 0 15 1;
#X connect 12 0 11 0;
#X connect 13 0 12 0;
#X connect 13 0 14 0;
#X connect 14 0 8 1;
#X connect 15 0 10 0;
#X connect 16 0 12 0;
#X connect 16 0 14 0;
#X connect 17 0 1 0;
#X connect 18 0 19 0;
#X restore 122 165 pd expodec;
#N canvas 629 147 489 457 gauss 0;
#X obj 27 68 until;
#X msg 27 45 512;
#X obj 27 91 counter 0 0 511;
#X obj 232 110 loadbang;
#X obj 54 222 * 0.3133;
#X obj 54 169 expr exp((-1*($f1-$f3)*($f1-$f3))/(2*$f2*$f2))/($f2*sqrt(2*3.1416))
;
#X obj 232 143 f 0.125;
#X obj 411 143 f 0.5;
#X obj 27 115 t f f;
#X obj 54 140 / 512;
#X obj 27 23 inlet;
#X obj 22 262 pack f f;
#X obj 22 286 outlet;
#X connect 0 0 2 0;
#X connect 1 0 0 0;
#X connect 2 0 8 0;
#X connect 3 0 6 0;
#X connect 3 0 7 0;
#X connect 4 0 11 1;
#X connect 5 0 4 0;
#X connect 6 0 5 1;
#X connect 7 0 5 2;
#X connect 8 0 11 0;
#X connect 8 1 9 0;
#X connect 9 0 5 0;
#X connect 10 0 1 0;
#X connect 11 0 12 0;
#X restore 92 113 pd gauss;
#N canvas 499 154 232 318 tri 0;
#X obj 42 96 until;
#X msg 42 73 512;
#X obj 42 119 counter 0 0 511;
#X obj 88 204 / 256;
#X obj 88 179 counter 2 0 256;
#X obj 42 143 t f b;
#X obj 43 40 inlet;
#X obj 41 233 pack f f;
#X obj 42 260 outlet;
#X connect 0 0 2 0;
#X connect 1 0 0 0;
#X connect 2 0 5 0;
#X connect 3 0 7 1;
#X connect 4 0 3 0;
#X connect 5 0 7 0;
#X connect 5 1 4 0;
#X connect 6 0 1 0;
#X connect 7 0 8 0;
#X restore 152 221 pd tri;
#X obj 92 56 inlet;
#X obj 147 247 peek~ \$0-window;
#X obj 294 63 table \$0-window 512;
#X connect 0 0 4 0;
#X connect 0 1 1 0;
#X connect 0 2 3 0;
#X connect 0 3 2 0;
#X connect 0 4 5 0;
#X connect 1 0 7 0;
#X connect 2 0 7 0;
#X connect 3 0 7 0;
#X connect 4 0 7 0;
#X connect 5 0 7 0;
#X connect 6 0 0 0;
#X restore 435 404 pd window;
#X obj 724 278 vradio 12 1 0 5 \$0-grain_window_t \$0-grain_window_t_set
empty 0 -8 0 10 -262144 -1 -1 0;
#X text 740 275 Gauss;
#X text 740 288 Hanning;
#X text 740 300 Expodec;
#X text 740 312 Rexpodec;
#X text 740 325 Triangle;
#X obj 232 533 tabread~ \$0-window;
#X obj 82 316 s \$0-grain_size_smps;
#X obj 82 472 r \$0-grain_size_smps;
#X obj 130 852 r~ \$0-signal_left;
#X obj 39 59 s~ \$0-signal_left;
#X obj 110 882 delwrite~ \$0-left 5000;
#X obj 67 592 vd~ \$0-left;
#X obj 232 513 *~ 512;
#X obj 357 436 *~ -1;
#X obj 357 466 +~ 1;
#X obj 357 582 *~;
#X obj 372 522 sig~;
#X obj 372 552 samphold~;
#X obj 357 665 *~;
#X obj 522 533 tabread~ \$0-window;
#X obj 372 492 r \$0-grain_size_smps;
#X obj 357 612 vd~ \$0-left;
#X obj 522 513 *~ 512;
#X obj 357 406 wrap~;
#X obj 357 381 +~ 0.5;
#X obj 67 682 +~;
#X obj 39 149 + 50;
#X obj 143 802 max 0;
#X obj 143 782 - 0.0001;
#X obj 39 129 * 950;
#X obj 67 752 *~;
#X obj 67 779 hip~ 5;
#X obj 67 929 outlet~;
#X obj 471 140 s \$0-grain_feedback_set;
#X obj 517 120 s \$0-grain_volume_set;
#X obj 379 180 s \$0-grain_size_set;
#X obj 425 160 s \$0-grain_pitch_set;
#X obj 379 30 inlet;
#X obj 379 60 route size pitch feedback volume window;
#X obj 563 100 s \$0-grain_window_t_set;
#X obj 379 227 loadbang;
#X msg 379 267 \; \$1-grain_size_set 32 \; \$1-grain_pitch_set 64 \;
\$1-grain_feedback_set 64 \; \$1-grain_volume_set 127 \; \$1-grain_window_t_set
1 \;;
#X obj 82 732 mid2dec;
#X obj 379 247 f \$1;
#X obj 243 109 r \$1-grain_pitch;
#X obj 39 89 r \$1-grain_size;
#X obj 143 742 r \$1-grain_feedback;
#X obj 82 712 r \$1-grain_volume;
#X obj 435 381 r \$1-grain_window_t;
#X connect 0 0 1 0;
#X connect 0 0 5 1;
#X connect 0 0 41 0;
#X connect 0 0 53 0;
#X connect 1 0 2 0;
#X connect 2 0 3 0;
#X connect 3 0 40 0;
#X connect 4 0 5 0;
#X connect 5 0 3 1;
#X connect 6 0 54 0;
#X connect 7 0 39 0;
#X connect 8 0 9 0;
#X connect 9 0 11 0;
#X connect 10 0 38 0;
#X connect 11 0 12 0;
#X connect 12 0 13 0;
#X connect 12 1 15 1;
#X connect 13 0 15 0;
#X connect 13 0 22 0;
#X connect 14 0 11 0;
#X connect 14 1 13 0;
#X connect 15 0 0 0;
#X connect 17 0 58 0;
#X connect 18 0 8 0;
#X connect 19 0 21 0;
#X connect 20 0 22 1;
#X connect 21 0 20 0;
#X connect 22 0 35 0;
#X connect 23 0 57 0;
#X connect 34 0 6 1;
#X connect 36 0 4 0;
#X connect 37 0 39 0;
#X connect 40 0 6 0;
#X connect 41 0 34 0;
#X connect 42 0 43 0;
#X connect 43 0 44 0;
#X connect 44 0 50 0;
#X connect 45 0 46 0;
#X connect 46 0 44 1;
#X connect 47 0 54 1;
#X connect 48 0 47 1;
#X connect 49 0 45 0;
#X connect 50 0 47 0;
#X connect 51 0 48 0;
#X connect 52 0 42 0;
#X connect 52 0 51 0;
#X connect 52 0 46 1;
#X connect 53 0 52 0;
#X connect 54 0 59 0;
#X connect 55 0 14 0;
#X connect 56 0 7 1;
#X connect 57 0 56 0;
#X connect 58 0 55 0;
#X connect 59 0 60 0;
#X connect 60 0 7 0;
#X connect 60 0 61 0;
#X connect 66 0 67 0;
#X connect 67 0 64 0;
#X connect 67 1 65 0;
#X connect 67 2 62 0;
#X connect 67 3 63 0;
#X connect 67 4 68 0;
#X connect 69 0 72 0;
#X connect 71 0 59 1;
#X connect 72 0 70 0;
#X connect 73 0 18 0;
#X connect 74 0 17 0;
#X connect 75 0 23 0;
#X connect 76 0 71 0;
#X connect 77 0 27 0;
