#N canvas 0 22 679 335 10;
#X obj 69 163 z~ 64;
#X obj 116 163 limiter~;
#X obj 69 193 *~;
#X obj 69 133 *~;
#X obj 279 163 z~ 64;
#X obj 326 163 limiter~;
#X obj 279 193 *~;
#X obj 279 133 *~;
#X obj 29 43 inlet~;
#X obj 239 43 inlet~;
#X obj 239 133 *~;
#X obj 29 133 *~;
#X obj 294 73 < 1;
#X obj 294 43 inlet;
#X obj 29 233 hip~ 5;
#X obj 239 233 hip~ 5;
#X obj 29 273 outlet~;
#X obj 239 273 outlet~;
#X connect 0 0 2 0;
#X connect 1 0 2 1;
#X connect 2 0 14 0;
#X connect 3 0 0 0;
#X connect 3 0 1 0;
#X connect 4 0 6 0;
#X connect 5 0 6 1;
#X connect 6 0 15 0;
#X connect 7 0 4 0;
#X connect 7 0 5 0;
#X connect 8 0 3 0;
#X connect 8 0 11 0;
#X connect 9 0 7 0;
#X connect 9 0 10 0;
#X connect 10 0 15 0;
#X connect 11 0 14 0;
#X connect 12 0 10 1;
#X connect 12 0 11 1;
#X connect 13 0 7 1;
#X connect 13 0 3 1;
#X connect 13 0 12 0;
#X connect 14 0 16 0;
#X connect 15 0 17 0;
