#N canvas 177 362 261 226 10;
#X obj 45 37 inlet~;
#X obj 45 157 outlet~;
#X obj 130 37 inlet;
#X obj 115 127 *~;
#X obj 115 157 outlet~;
#X obj 66 105 < 1;
#X obj 45 127 *~ 1;
#X obj 180 37 loadbang;
#X obj 180 88 f \$1;
#X connect 0 0 3 0;
#X connect 0 0 6 0;
#X connect 2 0 3 1;
#X connect 2 0 5 0;
#X connect 3 0 4 0;
#X connect 5 0 6 1;
#X connect 6 0 1 0;
#X connect 7 0 8 0;
#X connect 8 0 3 1;
#X connect 8 0 5 0;
